G75*
%MOIN*%
%OFA0B0*%
%FSLAX25Y25*%
%IPPOS*%
%LPD*%
%AMOC8*
5,1,8,0,0,1.08239X$1,22.5*
%
%ADD10R,0.02001X0.04300*%
%ADD11R,0.03200X0.09500*%
%ADD12R,0.04816X0.02414*%
%ADD13R,0.06587X0.05800*%
%ADD14R,0.06706X0.14580*%
%ADD15R,0.05131X0.04737*%
%ADD16R,0.04737X0.05131*%
%ADD17R,0.06706X0.07099*%
%ADD18R,0.05524X0.05524*%
%ADD19R,0.01981X0.03359*%
%ADD20R,0.01981X0.03950*%
%ADD21R,0.02375X0.04324*%
%ADD22R,0.02375X0.03950*%
%ADD23R,0.03950X0.02178*%
%ADD24R,0.03950X0.02375*%
%ADD25R,0.13386X0.13386*%
%ADD26C,0.01421*%
%ADD27R,0.05524X0.02965*%
%ADD28C,0.08200*%
%ADD29R,0.06115X0.02375*%
%ADD30R,0.08280X0.06706*%
%ADD31C,0.03162*%
%ADD32C,0.05169*%
%ADD33R,0.04343X0.03950*%
%ADD34R,0.18910X0.04737*%
%ADD35R,0.14186X0.07099*%
%ADD36R,0.11430X0.03950*%
%ADD37R,0.03950X0.01784*%
%ADD38R,0.01784X0.03950*%
%ADD39R,0.07100X0.05400*%
%ADD40C,0.12611*%
%ADD41R,0.08280X0.06312*%
%ADD42R,0.06312X0.07887*%
%ADD43R,0.06706X0.03556*%
%ADD44R,0.05524X0.02769*%
%ADD45R,0.02769X0.05524*%
%ADD46OC8,0.08200*%
%ADD47R,0.04300X0.04300*%
%ADD48R,0.02965X0.05524*%
%ADD49C,0.08477*%
%ADD50R,0.06800X0.06800*%
D10*
X0149563Y0163195D03*
X0151531Y0163195D03*
X0153500Y0163195D03*
X0155469Y0163195D03*
X0157437Y0163195D03*
X0157437Y0179805D03*
X0155469Y0179805D03*
X0153500Y0179805D03*
X0151531Y0179805D03*
X0149563Y0179805D03*
D11*
X0150000Y0113800D03*
X0145000Y0113800D03*
X0140000Y0113800D03*
X0135000Y0113800D03*
X0135000Y0093200D03*
X0140000Y0093200D03*
X0145000Y0093200D03*
X0150000Y0093200D03*
X0170000Y0093200D03*
X0175000Y0093200D03*
X0180000Y0093200D03*
X0185000Y0093200D03*
X0185000Y0113800D03*
X0180000Y0113800D03*
X0175000Y0113800D03*
X0170000Y0113800D03*
D12*
X0153949Y0052339D03*
X0153949Y0049780D03*
X0153949Y0047220D03*
X0153949Y0044661D03*
X0135051Y0044661D03*
X0135051Y0047220D03*
X0135051Y0049780D03*
X0135051Y0052339D03*
D13*
X0122500Y0162035D03*
X0122500Y0178965D03*
X0122500Y0188035D03*
X0122500Y0204965D03*
X0181500Y0178965D03*
X0181500Y0162035D03*
D14*
X0173421Y0206000D03*
X0163579Y0206000D03*
X0143421Y0206000D03*
X0133579Y0206000D03*
D15*
X0153654Y0189500D03*
X0160346Y0189500D03*
X0139846Y0171500D03*
X0133154Y0171500D03*
X0140154Y0154500D03*
X0146846Y0154500D03*
X0146846Y0143500D03*
X0140154Y0143500D03*
X0140154Y0132500D03*
X0146846Y0132500D03*
X0160154Y0132500D03*
X0166846Y0132500D03*
X0166846Y0143500D03*
X0160154Y0143500D03*
X0160154Y0154500D03*
X0166846Y0154500D03*
X0097346Y0154000D03*
X0090654Y0154000D03*
X0089846Y0137500D03*
X0083154Y0137500D03*
X0083154Y0128000D03*
X0089846Y0128000D03*
X0090154Y0171000D03*
X0096846Y0171000D03*
X0089846Y0181500D03*
X0083154Y0181500D03*
X0072346Y0169000D03*
X0065654Y0169000D03*
X0044346Y0156000D03*
X0037654Y0156000D03*
X0035346Y0146000D03*
X0028654Y0146000D03*
X0028654Y0136000D03*
X0035346Y0136000D03*
X0035346Y0126000D03*
X0028654Y0126000D03*
X0090154Y0194000D03*
X0096846Y0194000D03*
X0096846Y0204000D03*
X0090154Y0204000D03*
X0081846Y0232000D03*
X0075154Y0232000D03*
X0045846Y0240500D03*
X0039154Y0240500D03*
X0036846Y0214500D03*
X0030154Y0214500D03*
X0045154Y0289000D03*
X0051846Y0289000D03*
X0095154Y0321000D03*
X0101846Y0321000D03*
X0176654Y0303500D03*
X0183346Y0303500D03*
X0183346Y0293500D03*
X0176654Y0293500D03*
X0235654Y0249000D03*
X0242346Y0249000D03*
X0254654Y0246000D03*
X0261346Y0246000D03*
X0261346Y0256000D03*
X0254654Y0256000D03*
X0262654Y0300000D03*
X0269346Y0300000D03*
X0269346Y0310000D03*
X0262654Y0310000D03*
X0262654Y0320000D03*
X0269346Y0320000D03*
X0252346Y0327500D03*
X0245654Y0327500D03*
X0224346Y0079000D03*
X0217654Y0079000D03*
X0217654Y0069000D03*
X0224346Y0069000D03*
X0217846Y0032500D03*
X0211154Y0032500D03*
X0147846Y0034500D03*
X0141154Y0034500D03*
X0141254Y0061500D03*
X0147946Y0061500D03*
X0285654Y0061000D03*
X0292346Y0061000D03*
X0292346Y0052000D03*
X0285654Y0052000D03*
X0285654Y0043000D03*
X0292346Y0043000D03*
X0292346Y0034000D03*
X0285654Y0034000D03*
D16*
X0286500Y0071154D03*
X0286500Y0077846D03*
X0276500Y0077846D03*
X0276500Y0071154D03*
X0266500Y0071154D03*
X0266500Y0077846D03*
X0256500Y0077846D03*
X0256500Y0071154D03*
X0162500Y0060846D03*
X0162500Y0054154D03*
X0161500Y0091154D03*
X0161500Y0097846D03*
X0161500Y0107154D03*
X0161500Y0113846D03*
X0126500Y0115846D03*
X0126500Y0109154D03*
X0126500Y0097846D03*
X0126500Y0091154D03*
X0126500Y0043846D03*
X0126500Y0037154D03*
X0072000Y0123654D03*
X0072000Y0130346D03*
X0055000Y0130346D03*
X0055000Y0123654D03*
X0045500Y0123654D03*
X0045500Y0130346D03*
X0055000Y0164654D03*
X0055000Y0171346D03*
X0045500Y0209154D03*
X0045500Y0215846D03*
X0029500Y0222154D03*
X0029500Y0228846D03*
X0066000Y0230846D03*
X0066000Y0224154D03*
X0170000Y0228154D03*
X0170000Y0234846D03*
X0262000Y0228346D03*
X0262000Y0221654D03*
X0281500Y0250654D03*
X0281500Y0257346D03*
X0290500Y0258346D03*
X0290500Y0251654D03*
X0299500Y0251654D03*
X0299500Y0258346D03*
X0312000Y0228846D03*
X0312000Y0222154D03*
D17*
X0166500Y0042406D03*
D18*
X0162563Y0029315D03*
X0170437Y0029315D03*
D19*
X0227996Y0056504D03*
X0230358Y0056504D03*
X0232720Y0056504D03*
X0235083Y0056504D03*
X0237445Y0056504D03*
X0239807Y0056504D03*
X0242169Y0056504D03*
X0244531Y0056504D03*
X0246894Y0056504D03*
X0249256Y0056504D03*
X0251618Y0056504D03*
X0253980Y0056504D03*
X0256343Y0056504D03*
X0258705Y0056504D03*
X0261067Y0056504D03*
X0263429Y0056504D03*
X0265791Y0056504D03*
X0268154Y0056504D03*
X0270516Y0056504D03*
D20*
X0271657Y0045185D03*
X0269295Y0045185D03*
X0266933Y0045185D03*
X0264571Y0045185D03*
X0262209Y0045185D03*
X0259846Y0045185D03*
X0257484Y0045185D03*
X0255122Y0045185D03*
X0252760Y0045185D03*
X0250398Y0045185D03*
X0248035Y0045185D03*
X0245673Y0045185D03*
X0243311Y0045185D03*
X0240949Y0045185D03*
X0238587Y0045185D03*
X0236224Y0045185D03*
X0233862Y0045185D03*
X0231500Y0045185D03*
X0229138Y0045185D03*
X0226776Y0045185D03*
D21*
X0224020Y0045972D03*
X0274413Y0045972D03*
D22*
X0066724Y0139248D03*
X0063575Y0139248D03*
X0060425Y0139248D03*
X0057276Y0139248D03*
X0057276Y0157752D03*
X0060425Y0157752D03*
X0063575Y0157752D03*
X0066724Y0157752D03*
D23*
X0071252Y0143776D03*
D24*
X0071252Y0146925D03*
X0071252Y0150075D03*
X0071252Y0153224D03*
X0052748Y0153224D03*
X0052748Y0150075D03*
X0052748Y0146925D03*
X0052748Y0143776D03*
D25*
X0062000Y0148500D03*
X0245500Y0230500D03*
X0295500Y0230500D03*
D26*
X0100295Y0311342D02*
X0100295Y0314658D01*
X0103611Y0314658D01*
X0103611Y0311342D01*
X0100295Y0311342D01*
X0100295Y0312762D02*
X0103611Y0312762D01*
X0103611Y0314182D02*
X0100295Y0314182D01*
X0093389Y0314658D02*
X0093389Y0311342D01*
X0093389Y0314658D02*
X0096705Y0314658D01*
X0096705Y0311342D01*
X0093389Y0311342D01*
X0093389Y0312762D02*
X0096705Y0312762D01*
X0096705Y0314182D02*
X0093389Y0314182D01*
X0031158Y0241295D02*
X0027842Y0241295D01*
X0027842Y0244611D01*
X0031158Y0244611D01*
X0031158Y0241295D01*
X0031158Y0242715D02*
X0027842Y0242715D01*
X0027842Y0244135D02*
X0031158Y0244135D01*
X0031158Y0234389D02*
X0027842Y0234389D01*
X0027842Y0237705D01*
X0031158Y0237705D01*
X0031158Y0234389D01*
X0031158Y0235809D02*
X0027842Y0235809D01*
X0027842Y0237229D02*
X0031158Y0237229D01*
X0084705Y0164658D02*
X0084705Y0161342D01*
X0081389Y0161342D01*
X0081389Y0164658D01*
X0084705Y0164658D01*
X0084705Y0162762D02*
X0081389Y0162762D01*
X0081389Y0164182D02*
X0084705Y0164182D01*
X0091611Y0164658D02*
X0091611Y0161342D01*
X0088295Y0161342D01*
X0088295Y0164658D01*
X0091611Y0164658D01*
X0091611Y0162762D02*
X0088295Y0162762D01*
X0088295Y0164182D02*
X0091611Y0164182D01*
X0091611Y0147658D02*
X0091611Y0144342D01*
X0088295Y0144342D01*
X0088295Y0147658D01*
X0091611Y0147658D01*
X0091611Y0145762D02*
X0088295Y0145762D01*
X0088295Y0147182D02*
X0091611Y0147182D01*
X0084705Y0147658D02*
X0084705Y0144342D01*
X0081389Y0144342D01*
X0081389Y0147658D01*
X0084705Y0147658D01*
X0084705Y0145762D02*
X0081389Y0145762D01*
X0081389Y0147182D02*
X0084705Y0147182D01*
D27*
X0085119Y0215260D03*
X0085119Y0219000D03*
X0085119Y0222740D03*
X0074881Y0222740D03*
X0074881Y0215260D03*
D28*
X0073500Y0198500D03*
X0045000Y0198000D03*
X0055500Y0238000D03*
X0057700Y0251600D03*
X0057700Y0269400D03*
X0083300Y0269400D03*
X0083300Y0251600D03*
X0127500Y0283000D03*
X0127500Y0293000D03*
X0127500Y0303000D03*
X0137500Y0303000D03*
X0137500Y0293000D03*
X0137500Y0283000D03*
X0147500Y0283000D03*
X0147500Y0293000D03*
X0147500Y0303000D03*
X0147500Y0313000D03*
X0147500Y0323000D03*
X0147500Y0333000D03*
X0137500Y0333000D03*
X0137500Y0323000D03*
X0137500Y0313000D03*
X0127500Y0313000D03*
X0127500Y0323000D03*
X0127500Y0333000D03*
X0127500Y0343000D03*
X0127500Y0353000D03*
X0127500Y0363000D03*
X0137500Y0363000D03*
X0137500Y0353000D03*
X0137500Y0343000D03*
X0147500Y0343000D03*
X0147500Y0353000D03*
X0147500Y0363000D03*
X0147500Y0373000D03*
X0147500Y0383000D03*
X0147500Y0393000D03*
X0137500Y0393000D03*
X0137500Y0383000D03*
X0137500Y0373000D03*
X0127500Y0373000D03*
X0127500Y0383000D03*
X0127500Y0393000D03*
X0103500Y0388500D03*
X0103500Y0378500D03*
X0103500Y0368500D03*
X0103500Y0358500D03*
X0103500Y0348500D03*
X0197500Y0353000D03*
X0197500Y0343000D03*
X0207500Y0343000D03*
X0207500Y0353000D03*
X0207500Y0363000D03*
X0197500Y0363000D03*
X0197500Y0373000D03*
X0197500Y0383000D03*
X0197500Y0393000D03*
X0207500Y0393000D03*
X0207500Y0383000D03*
X0207500Y0373000D03*
X0217500Y0373000D03*
X0217500Y0383000D03*
X0217500Y0393000D03*
X0217500Y0363000D03*
X0217500Y0353000D03*
X0217500Y0343000D03*
X0217500Y0333000D03*
X0217500Y0323000D03*
X0217500Y0313000D03*
X0207500Y0313000D03*
X0207500Y0323000D03*
X0207500Y0333000D03*
X0197500Y0333000D03*
X0197500Y0323000D03*
X0197500Y0313000D03*
X0197500Y0303000D03*
X0197500Y0293000D03*
X0197500Y0283000D03*
X0207500Y0283000D03*
X0207500Y0293000D03*
X0207500Y0303000D03*
X0217500Y0303000D03*
X0217500Y0293000D03*
X0217500Y0283000D03*
X0141000Y0231500D03*
X0124500Y0138500D03*
X0087500Y0107500D03*
X0072500Y0107500D03*
X0072500Y0097500D03*
X0127500Y0076500D03*
X0162000Y0076500D03*
X0176500Y0057500D03*
X0191000Y0138500D03*
D29*
X0039031Y0171382D03*
X0039031Y0173941D03*
X0039031Y0176500D03*
X0039031Y0179059D03*
X0039031Y0181618D03*
D30*
X0028500Y0180437D03*
X0028539Y0172563D03*
D31*
X0036768Y0168823D03*
X0036768Y0184177D03*
D32*
X0030684Y0187425D02*
X0026316Y0187425D01*
X0026316Y0165575D02*
X0030684Y0165575D01*
D33*
X0153669Y0231500D03*
X0161937Y0227760D03*
X0161937Y0235240D03*
D34*
X0050567Y0095937D03*
X0050567Y0088063D03*
D35*
X0030094Y0078614D03*
X0030094Y0105386D03*
D36*
X0099500Y0214169D03*
X0099500Y0222831D03*
D37*
X0237429Y0226563D03*
X0237429Y0228531D03*
X0237429Y0230500D03*
X0237429Y0232469D03*
X0237429Y0234437D03*
X0253571Y0234437D03*
X0253571Y0232469D03*
X0253571Y0230500D03*
X0253571Y0228531D03*
X0253571Y0226563D03*
X0287429Y0226563D03*
X0287429Y0228531D03*
X0287429Y0230500D03*
X0287429Y0232469D03*
X0287429Y0234437D03*
X0303571Y0234437D03*
X0303571Y0232469D03*
X0303571Y0230500D03*
X0303571Y0228531D03*
X0303571Y0226563D03*
D38*
X0299831Y0222429D03*
X0297862Y0222429D03*
X0295894Y0222429D03*
X0293925Y0222429D03*
X0291957Y0222429D03*
X0291957Y0238571D03*
X0293925Y0238571D03*
X0295894Y0238571D03*
X0297862Y0238571D03*
X0299831Y0238571D03*
X0249831Y0238571D03*
X0247862Y0238571D03*
X0245894Y0238571D03*
X0243925Y0238571D03*
X0241957Y0238571D03*
X0241957Y0222429D03*
X0243925Y0222429D03*
X0245894Y0222429D03*
X0247862Y0222429D03*
X0249831Y0222429D03*
D39*
X0307000Y0034500D03*
X0307000Y0028500D03*
X0307000Y0022500D03*
D40*
X0047091Y0042091D03*
X0310870Y0120831D03*
X0310870Y0384610D03*
X0047091Y0384610D03*
D41*
X0032693Y0348925D03*
X0029150Y0296957D03*
D42*
X0084268Y0319004D03*
X0084268Y0342626D03*
D43*
X0044110Y0341051D03*
X0044110Y0345382D03*
X0042535Y0336720D03*
X0044110Y0332390D03*
X0042535Y0328059D03*
X0044110Y0323728D03*
X0045685Y0319398D03*
X0044110Y0315067D03*
D44*
X0245669Y0314724D03*
X0245669Y0311575D03*
X0245669Y0308425D03*
X0245669Y0305276D03*
X0245669Y0302126D03*
X0254331Y0302126D03*
X0254331Y0305276D03*
X0254331Y0308425D03*
X0254331Y0311575D03*
X0254331Y0314724D03*
X0254331Y0317874D03*
X0245669Y0317874D03*
D45*
X0250000Y0318268D03*
X0250000Y0301732D03*
D46*
X0247000Y0372500D03*
X0247000Y0382500D03*
X0247000Y0392500D03*
X0257000Y0392500D03*
X0257000Y0382500D03*
X0257000Y0372500D03*
D47*
X0282500Y0243500D03*
X0282500Y0237500D03*
X0235500Y0242500D03*
X0230500Y0233500D03*
X0087500Y0232000D03*
D48*
X0045240Y0232619D03*
X0041500Y0232619D03*
X0037760Y0232619D03*
X0037760Y0222381D03*
X0045240Y0222381D03*
D49*
X0279500Y0293413D03*
X0279500Y0372154D03*
D50*
X0080500Y0363500D03*
M02*
