G75*
%MOIN*%
%OFA0B0*%
%FSLAX25Y25*%
%IPPOS*%
%LPD*%
%AMOC8*
5,1,8,0,0,1.08239X$1,22.5*
%
%ADD10C,0.00000*%
%ADD11R,0.01201X0.03500*%
%ADD12R,0.02400X0.08700*%
%ADD13R,0.04016X0.01614*%
%ADD14R,0.05787X0.05000*%
%ADD15R,0.05906X0.13780*%
%ADD16R,0.04331X0.03937*%
%ADD17R,0.03937X0.04331*%
%ADD18R,0.05906X0.06299*%
%ADD19R,0.04724X0.04724*%
%ADD20R,0.01181X0.02559*%
%ADD21R,0.01181X0.03150*%
%ADD22R,0.01575X0.03524*%
%ADD23R,0.01575X0.03150*%
%ADD24R,0.03150X0.01378*%
%ADD25R,0.03150X0.01575*%
%ADD26R,0.12598X0.12598*%
%ADD27C,0.01181*%
%ADD28R,0.04724X0.02165*%
%ADD29R,0.05315X0.01575*%
%ADD30R,0.07480X0.05906*%
%ADD31R,0.03543X0.03150*%
%ADD32R,0.18110X0.03937*%
%ADD33R,0.13386X0.06299*%
%ADD34R,0.10630X0.03150*%
%ADD35R,0.03150X0.00984*%
%ADD36R,0.11811X0.11811*%
%ADD37R,0.00984X0.03150*%
%ADD38R,0.06300X0.04600*%
%ADD39R,0.07480X0.05512*%
%ADD40R,0.05512X0.07087*%
%ADD41R,0.05906X0.02756*%
%ADD42R,0.04724X0.01969*%
%ADD43R,0.01969X0.04724*%
%ADD44R,0.02165X0.04724*%
D10*
X0021500Y0036185D02*
X0021500Y0390516D01*
X0021506Y0390992D01*
X0021523Y0391467D01*
X0021552Y0391942D01*
X0021592Y0392416D01*
X0021644Y0392889D01*
X0021707Y0393360D01*
X0021781Y0393830D01*
X0021867Y0394298D01*
X0021964Y0394764D01*
X0022072Y0395227D01*
X0022191Y0395687D01*
X0022322Y0396145D01*
X0022463Y0396599D01*
X0022616Y0397050D01*
X0022779Y0397496D01*
X0022953Y0397939D01*
X0023138Y0398377D01*
X0023333Y0398811D01*
X0023539Y0399240D01*
X0023755Y0399664D01*
X0023981Y0400083D01*
X0024217Y0400496D01*
X0024463Y0400903D01*
X0024719Y0401304D01*
X0024985Y0401698D01*
X0025260Y0402087D01*
X0025544Y0402468D01*
X0025837Y0402842D01*
X0026139Y0403210D01*
X0026451Y0403570D01*
X0026770Y0403922D01*
X0027098Y0404266D01*
X0027435Y0404603D01*
X0027779Y0404931D01*
X0028131Y0405250D01*
X0028491Y0405562D01*
X0028859Y0405864D01*
X0029233Y0406157D01*
X0029614Y0406441D01*
X0030003Y0406716D01*
X0030397Y0406982D01*
X0030798Y0407238D01*
X0031205Y0407484D01*
X0031618Y0407720D01*
X0032037Y0407946D01*
X0032461Y0408162D01*
X0032890Y0408368D01*
X0033324Y0408563D01*
X0033762Y0408748D01*
X0034205Y0408922D01*
X0034651Y0409085D01*
X0035102Y0409238D01*
X0035556Y0409379D01*
X0036014Y0409510D01*
X0036474Y0409629D01*
X0036937Y0409737D01*
X0037403Y0409834D01*
X0037871Y0409920D01*
X0038341Y0409994D01*
X0038812Y0410057D01*
X0039285Y0410109D01*
X0039759Y0410149D01*
X0040234Y0410178D01*
X0040709Y0410195D01*
X0041185Y0410201D01*
X0316776Y0410201D01*
X0317252Y0410195D01*
X0317727Y0410178D01*
X0318202Y0410149D01*
X0318676Y0410109D01*
X0319149Y0410057D01*
X0319620Y0409994D01*
X0320090Y0409920D01*
X0320558Y0409834D01*
X0321024Y0409737D01*
X0321487Y0409629D01*
X0321947Y0409510D01*
X0322405Y0409379D01*
X0322859Y0409238D01*
X0323310Y0409085D01*
X0323756Y0408922D01*
X0324199Y0408748D01*
X0324637Y0408563D01*
X0325071Y0408368D01*
X0325500Y0408162D01*
X0325924Y0407946D01*
X0326343Y0407720D01*
X0326756Y0407484D01*
X0327163Y0407238D01*
X0327564Y0406982D01*
X0327958Y0406716D01*
X0328347Y0406441D01*
X0328728Y0406157D01*
X0329102Y0405864D01*
X0329470Y0405562D01*
X0329830Y0405250D01*
X0330182Y0404931D01*
X0330526Y0404603D01*
X0330863Y0404266D01*
X0331191Y0403922D01*
X0331510Y0403570D01*
X0331822Y0403210D01*
X0332124Y0402842D01*
X0332417Y0402468D01*
X0332701Y0402087D01*
X0332976Y0401698D01*
X0333242Y0401304D01*
X0333498Y0400903D01*
X0333744Y0400496D01*
X0333980Y0400083D01*
X0334206Y0399664D01*
X0334422Y0399240D01*
X0334628Y0398811D01*
X0334823Y0398377D01*
X0335008Y0397939D01*
X0335182Y0397496D01*
X0335345Y0397050D01*
X0335498Y0396599D01*
X0335639Y0396145D01*
X0335770Y0395687D01*
X0335889Y0395227D01*
X0335997Y0394764D01*
X0336094Y0394298D01*
X0336180Y0393830D01*
X0336254Y0393360D01*
X0336317Y0392889D01*
X0336369Y0392416D01*
X0336409Y0391942D01*
X0336438Y0391467D01*
X0336455Y0390992D01*
X0336461Y0390516D01*
X0336461Y0036185D01*
X0336455Y0035709D01*
X0336438Y0035234D01*
X0336409Y0034759D01*
X0336369Y0034285D01*
X0336317Y0033812D01*
X0336254Y0033341D01*
X0336180Y0032871D01*
X0336094Y0032403D01*
X0335997Y0031937D01*
X0335889Y0031474D01*
X0335770Y0031014D01*
X0335639Y0030556D01*
X0335498Y0030102D01*
X0335345Y0029651D01*
X0335182Y0029205D01*
X0335008Y0028762D01*
X0334823Y0028324D01*
X0334628Y0027890D01*
X0334422Y0027461D01*
X0334206Y0027037D01*
X0333980Y0026618D01*
X0333744Y0026205D01*
X0333498Y0025798D01*
X0333242Y0025397D01*
X0332976Y0025003D01*
X0332701Y0024614D01*
X0332417Y0024233D01*
X0332124Y0023859D01*
X0331822Y0023491D01*
X0331510Y0023131D01*
X0331191Y0022779D01*
X0330863Y0022435D01*
X0330526Y0022098D01*
X0330182Y0021770D01*
X0329830Y0021451D01*
X0329470Y0021139D01*
X0329102Y0020837D01*
X0328728Y0020544D01*
X0328347Y0020260D01*
X0327958Y0019985D01*
X0327564Y0019719D01*
X0327163Y0019463D01*
X0326756Y0019217D01*
X0326343Y0018981D01*
X0325924Y0018755D01*
X0325500Y0018539D01*
X0325071Y0018333D01*
X0324637Y0018138D01*
X0324199Y0017953D01*
X0323756Y0017779D01*
X0323310Y0017616D01*
X0322859Y0017463D01*
X0322405Y0017322D01*
X0321947Y0017191D01*
X0321487Y0017072D01*
X0321024Y0016964D01*
X0320558Y0016867D01*
X0320090Y0016781D01*
X0319620Y0016707D01*
X0319149Y0016644D01*
X0318676Y0016592D01*
X0318202Y0016552D01*
X0317727Y0016523D01*
X0317252Y0016506D01*
X0316776Y0016500D01*
X0041185Y0016500D01*
X0040709Y0016506D01*
X0040234Y0016523D01*
X0039759Y0016552D01*
X0039285Y0016592D01*
X0038812Y0016644D01*
X0038341Y0016707D01*
X0037871Y0016781D01*
X0037403Y0016867D01*
X0036937Y0016964D01*
X0036474Y0017072D01*
X0036014Y0017191D01*
X0035556Y0017322D01*
X0035102Y0017463D01*
X0034651Y0017616D01*
X0034205Y0017779D01*
X0033762Y0017953D01*
X0033324Y0018138D01*
X0032890Y0018333D01*
X0032461Y0018539D01*
X0032037Y0018755D01*
X0031618Y0018981D01*
X0031205Y0019217D01*
X0030798Y0019463D01*
X0030397Y0019719D01*
X0030003Y0019985D01*
X0029614Y0020260D01*
X0029233Y0020544D01*
X0028859Y0020837D01*
X0028491Y0021139D01*
X0028131Y0021451D01*
X0027779Y0021770D01*
X0027435Y0022098D01*
X0027098Y0022435D01*
X0026770Y0022779D01*
X0026451Y0023131D01*
X0026139Y0023491D01*
X0025837Y0023859D01*
X0025544Y0024233D01*
X0025260Y0024614D01*
X0024985Y0025003D01*
X0024719Y0025397D01*
X0024463Y0025798D01*
X0024217Y0026205D01*
X0023981Y0026618D01*
X0023755Y0027037D01*
X0023539Y0027461D01*
X0023333Y0027890D01*
X0023138Y0028324D01*
X0022953Y0028762D01*
X0022779Y0029205D01*
X0022616Y0029651D01*
X0022463Y0030102D01*
X0022322Y0030556D01*
X0022191Y0031014D01*
X0022072Y0031474D01*
X0021964Y0031937D01*
X0021867Y0032403D01*
X0021781Y0032871D01*
X0021707Y0033341D01*
X0021644Y0033812D01*
X0021592Y0034285D01*
X0021552Y0034759D01*
X0021523Y0035234D01*
X0021506Y0035709D01*
X0021500Y0036185D01*
X0041185Y0042091D02*
X0041187Y0042244D01*
X0041193Y0042398D01*
X0041203Y0042551D01*
X0041217Y0042703D01*
X0041235Y0042856D01*
X0041257Y0043007D01*
X0041282Y0043158D01*
X0041312Y0043309D01*
X0041346Y0043459D01*
X0041383Y0043607D01*
X0041424Y0043755D01*
X0041469Y0043901D01*
X0041518Y0044047D01*
X0041571Y0044191D01*
X0041627Y0044333D01*
X0041687Y0044474D01*
X0041751Y0044614D01*
X0041818Y0044752D01*
X0041889Y0044888D01*
X0041964Y0045022D01*
X0042041Y0045154D01*
X0042123Y0045284D01*
X0042207Y0045412D01*
X0042295Y0045538D01*
X0042386Y0045661D01*
X0042480Y0045782D01*
X0042578Y0045900D01*
X0042678Y0046016D01*
X0042782Y0046129D01*
X0042888Y0046240D01*
X0042997Y0046348D01*
X0043109Y0046453D01*
X0043223Y0046554D01*
X0043341Y0046653D01*
X0043460Y0046749D01*
X0043582Y0046842D01*
X0043707Y0046931D01*
X0043834Y0047018D01*
X0043963Y0047100D01*
X0044094Y0047180D01*
X0044227Y0047256D01*
X0044362Y0047329D01*
X0044499Y0047398D01*
X0044638Y0047463D01*
X0044778Y0047525D01*
X0044920Y0047583D01*
X0045063Y0047638D01*
X0045208Y0047689D01*
X0045354Y0047736D01*
X0045501Y0047779D01*
X0045649Y0047818D01*
X0045798Y0047854D01*
X0045948Y0047885D01*
X0046099Y0047913D01*
X0046250Y0047937D01*
X0046403Y0047957D01*
X0046555Y0047973D01*
X0046708Y0047985D01*
X0046861Y0047993D01*
X0047014Y0047997D01*
X0047168Y0047997D01*
X0047321Y0047993D01*
X0047474Y0047985D01*
X0047627Y0047973D01*
X0047779Y0047957D01*
X0047932Y0047937D01*
X0048083Y0047913D01*
X0048234Y0047885D01*
X0048384Y0047854D01*
X0048533Y0047818D01*
X0048681Y0047779D01*
X0048828Y0047736D01*
X0048974Y0047689D01*
X0049119Y0047638D01*
X0049262Y0047583D01*
X0049404Y0047525D01*
X0049544Y0047463D01*
X0049683Y0047398D01*
X0049820Y0047329D01*
X0049955Y0047256D01*
X0050088Y0047180D01*
X0050219Y0047100D01*
X0050348Y0047018D01*
X0050475Y0046931D01*
X0050600Y0046842D01*
X0050722Y0046749D01*
X0050841Y0046653D01*
X0050959Y0046554D01*
X0051073Y0046453D01*
X0051185Y0046348D01*
X0051294Y0046240D01*
X0051400Y0046129D01*
X0051504Y0046016D01*
X0051604Y0045900D01*
X0051702Y0045782D01*
X0051796Y0045661D01*
X0051887Y0045538D01*
X0051975Y0045412D01*
X0052059Y0045284D01*
X0052141Y0045154D01*
X0052218Y0045022D01*
X0052293Y0044888D01*
X0052364Y0044752D01*
X0052431Y0044614D01*
X0052495Y0044474D01*
X0052555Y0044333D01*
X0052611Y0044191D01*
X0052664Y0044047D01*
X0052713Y0043901D01*
X0052758Y0043755D01*
X0052799Y0043607D01*
X0052836Y0043459D01*
X0052870Y0043309D01*
X0052900Y0043158D01*
X0052925Y0043007D01*
X0052947Y0042856D01*
X0052965Y0042703D01*
X0052979Y0042551D01*
X0052989Y0042398D01*
X0052995Y0042244D01*
X0052997Y0042091D01*
X0052995Y0041938D01*
X0052989Y0041784D01*
X0052979Y0041631D01*
X0052965Y0041479D01*
X0052947Y0041326D01*
X0052925Y0041175D01*
X0052900Y0041024D01*
X0052870Y0040873D01*
X0052836Y0040723D01*
X0052799Y0040575D01*
X0052758Y0040427D01*
X0052713Y0040281D01*
X0052664Y0040135D01*
X0052611Y0039991D01*
X0052555Y0039849D01*
X0052495Y0039708D01*
X0052431Y0039568D01*
X0052364Y0039430D01*
X0052293Y0039294D01*
X0052218Y0039160D01*
X0052141Y0039028D01*
X0052059Y0038898D01*
X0051975Y0038770D01*
X0051887Y0038644D01*
X0051796Y0038521D01*
X0051702Y0038400D01*
X0051604Y0038282D01*
X0051504Y0038166D01*
X0051400Y0038053D01*
X0051294Y0037942D01*
X0051185Y0037834D01*
X0051073Y0037729D01*
X0050959Y0037628D01*
X0050841Y0037529D01*
X0050722Y0037433D01*
X0050600Y0037340D01*
X0050475Y0037251D01*
X0050348Y0037164D01*
X0050219Y0037082D01*
X0050088Y0037002D01*
X0049955Y0036926D01*
X0049820Y0036853D01*
X0049683Y0036784D01*
X0049544Y0036719D01*
X0049404Y0036657D01*
X0049262Y0036599D01*
X0049119Y0036544D01*
X0048974Y0036493D01*
X0048828Y0036446D01*
X0048681Y0036403D01*
X0048533Y0036364D01*
X0048384Y0036328D01*
X0048234Y0036297D01*
X0048083Y0036269D01*
X0047932Y0036245D01*
X0047779Y0036225D01*
X0047627Y0036209D01*
X0047474Y0036197D01*
X0047321Y0036189D01*
X0047168Y0036185D01*
X0047014Y0036185D01*
X0046861Y0036189D01*
X0046708Y0036197D01*
X0046555Y0036209D01*
X0046403Y0036225D01*
X0046250Y0036245D01*
X0046099Y0036269D01*
X0045948Y0036297D01*
X0045798Y0036328D01*
X0045649Y0036364D01*
X0045501Y0036403D01*
X0045354Y0036446D01*
X0045208Y0036493D01*
X0045063Y0036544D01*
X0044920Y0036599D01*
X0044778Y0036657D01*
X0044638Y0036719D01*
X0044499Y0036784D01*
X0044362Y0036853D01*
X0044227Y0036926D01*
X0044094Y0037002D01*
X0043963Y0037082D01*
X0043834Y0037164D01*
X0043707Y0037251D01*
X0043582Y0037340D01*
X0043460Y0037433D01*
X0043341Y0037529D01*
X0043223Y0037628D01*
X0043109Y0037729D01*
X0042997Y0037834D01*
X0042888Y0037942D01*
X0042782Y0038053D01*
X0042678Y0038166D01*
X0042578Y0038282D01*
X0042480Y0038400D01*
X0042386Y0038521D01*
X0042295Y0038644D01*
X0042207Y0038770D01*
X0042123Y0038898D01*
X0042041Y0039028D01*
X0041964Y0039160D01*
X0041889Y0039294D01*
X0041818Y0039430D01*
X0041751Y0039568D01*
X0041687Y0039708D01*
X0041627Y0039849D01*
X0041571Y0039991D01*
X0041518Y0040135D01*
X0041469Y0040281D01*
X0041424Y0040427D01*
X0041383Y0040575D01*
X0041346Y0040723D01*
X0041312Y0040873D01*
X0041282Y0041024D01*
X0041257Y0041175D01*
X0041235Y0041326D01*
X0041217Y0041479D01*
X0041203Y0041631D01*
X0041193Y0041784D01*
X0041187Y0041938D01*
X0041185Y0042091D01*
X0035587Y0168823D02*
X0035589Y0168892D01*
X0035595Y0168960D01*
X0035605Y0169028D01*
X0035619Y0169095D01*
X0035637Y0169162D01*
X0035658Y0169227D01*
X0035684Y0169291D01*
X0035713Y0169353D01*
X0035745Y0169413D01*
X0035781Y0169472D01*
X0035821Y0169528D01*
X0035863Y0169582D01*
X0035909Y0169633D01*
X0035958Y0169682D01*
X0036009Y0169728D01*
X0036063Y0169770D01*
X0036119Y0169810D01*
X0036177Y0169846D01*
X0036238Y0169878D01*
X0036300Y0169907D01*
X0036364Y0169933D01*
X0036429Y0169954D01*
X0036496Y0169972D01*
X0036563Y0169986D01*
X0036631Y0169996D01*
X0036699Y0170002D01*
X0036768Y0170004D01*
X0036837Y0170002D01*
X0036905Y0169996D01*
X0036973Y0169986D01*
X0037040Y0169972D01*
X0037107Y0169954D01*
X0037172Y0169933D01*
X0037236Y0169907D01*
X0037298Y0169878D01*
X0037358Y0169846D01*
X0037417Y0169810D01*
X0037473Y0169770D01*
X0037527Y0169728D01*
X0037578Y0169682D01*
X0037627Y0169633D01*
X0037673Y0169582D01*
X0037715Y0169528D01*
X0037755Y0169472D01*
X0037791Y0169413D01*
X0037823Y0169353D01*
X0037852Y0169291D01*
X0037878Y0169227D01*
X0037899Y0169162D01*
X0037917Y0169095D01*
X0037931Y0169028D01*
X0037941Y0168960D01*
X0037947Y0168892D01*
X0037949Y0168823D01*
X0037947Y0168754D01*
X0037941Y0168686D01*
X0037931Y0168618D01*
X0037917Y0168551D01*
X0037899Y0168484D01*
X0037878Y0168419D01*
X0037852Y0168355D01*
X0037823Y0168293D01*
X0037791Y0168232D01*
X0037755Y0168174D01*
X0037715Y0168118D01*
X0037673Y0168064D01*
X0037627Y0168013D01*
X0037578Y0167964D01*
X0037527Y0167918D01*
X0037473Y0167876D01*
X0037417Y0167836D01*
X0037359Y0167800D01*
X0037298Y0167768D01*
X0037236Y0167739D01*
X0037172Y0167713D01*
X0037107Y0167692D01*
X0037040Y0167674D01*
X0036973Y0167660D01*
X0036905Y0167650D01*
X0036837Y0167644D01*
X0036768Y0167642D01*
X0036699Y0167644D01*
X0036631Y0167650D01*
X0036563Y0167660D01*
X0036496Y0167674D01*
X0036429Y0167692D01*
X0036364Y0167713D01*
X0036300Y0167739D01*
X0036238Y0167768D01*
X0036177Y0167800D01*
X0036119Y0167836D01*
X0036063Y0167876D01*
X0036009Y0167918D01*
X0035958Y0167964D01*
X0035909Y0168013D01*
X0035863Y0168064D01*
X0035821Y0168118D01*
X0035781Y0168174D01*
X0035745Y0168232D01*
X0035713Y0168293D01*
X0035684Y0168355D01*
X0035658Y0168419D01*
X0035637Y0168484D01*
X0035619Y0168551D01*
X0035605Y0168618D01*
X0035595Y0168686D01*
X0035589Y0168754D01*
X0035587Y0168823D01*
X0035587Y0184177D02*
X0035589Y0184246D01*
X0035595Y0184314D01*
X0035605Y0184382D01*
X0035619Y0184449D01*
X0035637Y0184516D01*
X0035658Y0184581D01*
X0035684Y0184645D01*
X0035713Y0184707D01*
X0035745Y0184767D01*
X0035781Y0184826D01*
X0035821Y0184882D01*
X0035863Y0184936D01*
X0035909Y0184987D01*
X0035958Y0185036D01*
X0036009Y0185082D01*
X0036063Y0185124D01*
X0036119Y0185164D01*
X0036177Y0185200D01*
X0036238Y0185232D01*
X0036300Y0185261D01*
X0036364Y0185287D01*
X0036429Y0185308D01*
X0036496Y0185326D01*
X0036563Y0185340D01*
X0036631Y0185350D01*
X0036699Y0185356D01*
X0036768Y0185358D01*
X0036837Y0185356D01*
X0036905Y0185350D01*
X0036973Y0185340D01*
X0037040Y0185326D01*
X0037107Y0185308D01*
X0037172Y0185287D01*
X0037236Y0185261D01*
X0037298Y0185232D01*
X0037358Y0185200D01*
X0037417Y0185164D01*
X0037473Y0185124D01*
X0037527Y0185082D01*
X0037578Y0185036D01*
X0037627Y0184987D01*
X0037673Y0184936D01*
X0037715Y0184882D01*
X0037755Y0184826D01*
X0037791Y0184767D01*
X0037823Y0184707D01*
X0037852Y0184645D01*
X0037878Y0184581D01*
X0037899Y0184516D01*
X0037917Y0184449D01*
X0037931Y0184382D01*
X0037941Y0184314D01*
X0037947Y0184246D01*
X0037949Y0184177D01*
X0037947Y0184108D01*
X0037941Y0184040D01*
X0037931Y0183972D01*
X0037917Y0183905D01*
X0037899Y0183838D01*
X0037878Y0183773D01*
X0037852Y0183709D01*
X0037823Y0183647D01*
X0037791Y0183586D01*
X0037755Y0183528D01*
X0037715Y0183472D01*
X0037673Y0183418D01*
X0037627Y0183367D01*
X0037578Y0183318D01*
X0037527Y0183272D01*
X0037473Y0183230D01*
X0037417Y0183190D01*
X0037359Y0183154D01*
X0037298Y0183122D01*
X0037236Y0183093D01*
X0037172Y0183067D01*
X0037107Y0183046D01*
X0037040Y0183028D01*
X0036973Y0183014D01*
X0036905Y0183004D01*
X0036837Y0182998D01*
X0036768Y0182996D01*
X0036699Y0182998D01*
X0036631Y0183004D01*
X0036563Y0183014D01*
X0036496Y0183028D01*
X0036429Y0183046D01*
X0036364Y0183067D01*
X0036300Y0183093D01*
X0036238Y0183122D01*
X0036177Y0183154D01*
X0036119Y0183190D01*
X0036063Y0183230D01*
X0036009Y0183272D01*
X0035958Y0183318D01*
X0035909Y0183367D01*
X0035863Y0183418D01*
X0035821Y0183472D01*
X0035781Y0183528D01*
X0035745Y0183586D01*
X0035713Y0183647D01*
X0035684Y0183709D01*
X0035658Y0183773D01*
X0035637Y0183838D01*
X0035619Y0183905D01*
X0035605Y0183972D01*
X0035595Y0184040D01*
X0035589Y0184108D01*
X0035587Y0184177D01*
X0041185Y0384610D02*
X0041187Y0384763D01*
X0041193Y0384917D01*
X0041203Y0385070D01*
X0041217Y0385222D01*
X0041235Y0385375D01*
X0041257Y0385526D01*
X0041282Y0385677D01*
X0041312Y0385828D01*
X0041346Y0385978D01*
X0041383Y0386126D01*
X0041424Y0386274D01*
X0041469Y0386420D01*
X0041518Y0386566D01*
X0041571Y0386710D01*
X0041627Y0386852D01*
X0041687Y0386993D01*
X0041751Y0387133D01*
X0041818Y0387271D01*
X0041889Y0387407D01*
X0041964Y0387541D01*
X0042041Y0387673D01*
X0042123Y0387803D01*
X0042207Y0387931D01*
X0042295Y0388057D01*
X0042386Y0388180D01*
X0042480Y0388301D01*
X0042578Y0388419D01*
X0042678Y0388535D01*
X0042782Y0388648D01*
X0042888Y0388759D01*
X0042997Y0388867D01*
X0043109Y0388972D01*
X0043223Y0389073D01*
X0043341Y0389172D01*
X0043460Y0389268D01*
X0043582Y0389361D01*
X0043707Y0389450D01*
X0043834Y0389537D01*
X0043963Y0389619D01*
X0044094Y0389699D01*
X0044227Y0389775D01*
X0044362Y0389848D01*
X0044499Y0389917D01*
X0044638Y0389982D01*
X0044778Y0390044D01*
X0044920Y0390102D01*
X0045063Y0390157D01*
X0045208Y0390208D01*
X0045354Y0390255D01*
X0045501Y0390298D01*
X0045649Y0390337D01*
X0045798Y0390373D01*
X0045948Y0390404D01*
X0046099Y0390432D01*
X0046250Y0390456D01*
X0046403Y0390476D01*
X0046555Y0390492D01*
X0046708Y0390504D01*
X0046861Y0390512D01*
X0047014Y0390516D01*
X0047168Y0390516D01*
X0047321Y0390512D01*
X0047474Y0390504D01*
X0047627Y0390492D01*
X0047779Y0390476D01*
X0047932Y0390456D01*
X0048083Y0390432D01*
X0048234Y0390404D01*
X0048384Y0390373D01*
X0048533Y0390337D01*
X0048681Y0390298D01*
X0048828Y0390255D01*
X0048974Y0390208D01*
X0049119Y0390157D01*
X0049262Y0390102D01*
X0049404Y0390044D01*
X0049544Y0389982D01*
X0049683Y0389917D01*
X0049820Y0389848D01*
X0049955Y0389775D01*
X0050088Y0389699D01*
X0050219Y0389619D01*
X0050348Y0389537D01*
X0050475Y0389450D01*
X0050600Y0389361D01*
X0050722Y0389268D01*
X0050841Y0389172D01*
X0050959Y0389073D01*
X0051073Y0388972D01*
X0051185Y0388867D01*
X0051294Y0388759D01*
X0051400Y0388648D01*
X0051504Y0388535D01*
X0051604Y0388419D01*
X0051702Y0388301D01*
X0051796Y0388180D01*
X0051887Y0388057D01*
X0051975Y0387931D01*
X0052059Y0387803D01*
X0052141Y0387673D01*
X0052218Y0387541D01*
X0052293Y0387407D01*
X0052364Y0387271D01*
X0052431Y0387133D01*
X0052495Y0386993D01*
X0052555Y0386852D01*
X0052611Y0386710D01*
X0052664Y0386566D01*
X0052713Y0386420D01*
X0052758Y0386274D01*
X0052799Y0386126D01*
X0052836Y0385978D01*
X0052870Y0385828D01*
X0052900Y0385677D01*
X0052925Y0385526D01*
X0052947Y0385375D01*
X0052965Y0385222D01*
X0052979Y0385070D01*
X0052989Y0384917D01*
X0052995Y0384763D01*
X0052997Y0384610D01*
X0052995Y0384457D01*
X0052989Y0384303D01*
X0052979Y0384150D01*
X0052965Y0383998D01*
X0052947Y0383845D01*
X0052925Y0383694D01*
X0052900Y0383543D01*
X0052870Y0383392D01*
X0052836Y0383242D01*
X0052799Y0383094D01*
X0052758Y0382946D01*
X0052713Y0382800D01*
X0052664Y0382654D01*
X0052611Y0382510D01*
X0052555Y0382368D01*
X0052495Y0382227D01*
X0052431Y0382087D01*
X0052364Y0381949D01*
X0052293Y0381813D01*
X0052218Y0381679D01*
X0052141Y0381547D01*
X0052059Y0381417D01*
X0051975Y0381289D01*
X0051887Y0381163D01*
X0051796Y0381040D01*
X0051702Y0380919D01*
X0051604Y0380801D01*
X0051504Y0380685D01*
X0051400Y0380572D01*
X0051294Y0380461D01*
X0051185Y0380353D01*
X0051073Y0380248D01*
X0050959Y0380147D01*
X0050841Y0380048D01*
X0050722Y0379952D01*
X0050600Y0379859D01*
X0050475Y0379770D01*
X0050348Y0379683D01*
X0050219Y0379601D01*
X0050088Y0379521D01*
X0049955Y0379445D01*
X0049820Y0379372D01*
X0049683Y0379303D01*
X0049544Y0379238D01*
X0049404Y0379176D01*
X0049262Y0379118D01*
X0049119Y0379063D01*
X0048974Y0379012D01*
X0048828Y0378965D01*
X0048681Y0378922D01*
X0048533Y0378883D01*
X0048384Y0378847D01*
X0048234Y0378816D01*
X0048083Y0378788D01*
X0047932Y0378764D01*
X0047779Y0378744D01*
X0047627Y0378728D01*
X0047474Y0378716D01*
X0047321Y0378708D01*
X0047168Y0378704D01*
X0047014Y0378704D01*
X0046861Y0378708D01*
X0046708Y0378716D01*
X0046555Y0378728D01*
X0046403Y0378744D01*
X0046250Y0378764D01*
X0046099Y0378788D01*
X0045948Y0378816D01*
X0045798Y0378847D01*
X0045649Y0378883D01*
X0045501Y0378922D01*
X0045354Y0378965D01*
X0045208Y0379012D01*
X0045063Y0379063D01*
X0044920Y0379118D01*
X0044778Y0379176D01*
X0044638Y0379238D01*
X0044499Y0379303D01*
X0044362Y0379372D01*
X0044227Y0379445D01*
X0044094Y0379521D01*
X0043963Y0379601D01*
X0043834Y0379683D01*
X0043707Y0379770D01*
X0043582Y0379859D01*
X0043460Y0379952D01*
X0043341Y0380048D01*
X0043223Y0380147D01*
X0043109Y0380248D01*
X0042997Y0380353D01*
X0042888Y0380461D01*
X0042782Y0380572D01*
X0042678Y0380685D01*
X0042578Y0380801D01*
X0042480Y0380919D01*
X0042386Y0381040D01*
X0042295Y0381163D01*
X0042207Y0381289D01*
X0042123Y0381417D01*
X0042041Y0381547D01*
X0041964Y0381679D01*
X0041889Y0381813D01*
X0041818Y0381949D01*
X0041751Y0382087D01*
X0041687Y0382227D01*
X0041627Y0382368D01*
X0041571Y0382510D01*
X0041518Y0382654D01*
X0041469Y0382800D01*
X0041424Y0382946D01*
X0041383Y0383094D01*
X0041346Y0383242D01*
X0041312Y0383392D01*
X0041282Y0383543D01*
X0041257Y0383694D01*
X0041235Y0383845D01*
X0041217Y0383998D01*
X0041203Y0384150D01*
X0041193Y0384303D01*
X0041187Y0384457D01*
X0041185Y0384610D01*
X0304964Y0384610D02*
X0304966Y0384763D01*
X0304972Y0384917D01*
X0304982Y0385070D01*
X0304996Y0385222D01*
X0305014Y0385375D01*
X0305036Y0385526D01*
X0305061Y0385677D01*
X0305091Y0385828D01*
X0305125Y0385978D01*
X0305162Y0386126D01*
X0305203Y0386274D01*
X0305248Y0386420D01*
X0305297Y0386566D01*
X0305350Y0386710D01*
X0305406Y0386852D01*
X0305466Y0386993D01*
X0305530Y0387133D01*
X0305597Y0387271D01*
X0305668Y0387407D01*
X0305743Y0387541D01*
X0305820Y0387673D01*
X0305902Y0387803D01*
X0305986Y0387931D01*
X0306074Y0388057D01*
X0306165Y0388180D01*
X0306259Y0388301D01*
X0306357Y0388419D01*
X0306457Y0388535D01*
X0306561Y0388648D01*
X0306667Y0388759D01*
X0306776Y0388867D01*
X0306888Y0388972D01*
X0307002Y0389073D01*
X0307120Y0389172D01*
X0307239Y0389268D01*
X0307361Y0389361D01*
X0307486Y0389450D01*
X0307613Y0389537D01*
X0307742Y0389619D01*
X0307873Y0389699D01*
X0308006Y0389775D01*
X0308141Y0389848D01*
X0308278Y0389917D01*
X0308417Y0389982D01*
X0308557Y0390044D01*
X0308699Y0390102D01*
X0308842Y0390157D01*
X0308987Y0390208D01*
X0309133Y0390255D01*
X0309280Y0390298D01*
X0309428Y0390337D01*
X0309577Y0390373D01*
X0309727Y0390404D01*
X0309878Y0390432D01*
X0310029Y0390456D01*
X0310182Y0390476D01*
X0310334Y0390492D01*
X0310487Y0390504D01*
X0310640Y0390512D01*
X0310793Y0390516D01*
X0310947Y0390516D01*
X0311100Y0390512D01*
X0311253Y0390504D01*
X0311406Y0390492D01*
X0311558Y0390476D01*
X0311711Y0390456D01*
X0311862Y0390432D01*
X0312013Y0390404D01*
X0312163Y0390373D01*
X0312312Y0390337D01*
X0312460Y0390298D01*
X0312607Y0390255D01*
X0312753Y0390208D01*
X0312898Y0390157D01*
X0313041Y0390102D01*
X0313183Y0390044D01*
X0313323Y0389982D01*
X0313462Y0389917D01*
X0313599Y0389848D01*
X0313734Y0389775D01*
X0313867Y0389699D01*
X0313998Y0389619D01*
X0314127Y0389537D01*
X0314254Y0389450D01*
X0314379Y0389361D01*
X0314501Y0389268D01*
X0314620Y0389172D01*
X0314738Y0389073D01*
X0314852Y0388972D01*
X0314964Y0388867D01*
X0315073Y0388759D01*
X0315179Y0388648D01*
X0315283Y0388535D01*
X0315383Y0388419D01*
X0315481Y0388301D01*
X0315575Y0388180D01*
X0315666Y0388057D01*
X0315754Y0387931D01*
X0315838Y0387803D01*
X0315920Y0387673D01*
X0315997Y0387541D01*
X0316072Y0387407D01*
X0316143Y0387271D01*
X0316210Y0387133D01*
X0316274Y0386993D01*
X0316334Y0386852D01*
X0316390Y0386710D01*
X0316443Y0386566D01*
X0316492Y0386420D01*
X0316537Y0386274D01*
X0316578Y0386126D01*
X0316615Y0385978D01*
X0316649Y0385828D01*
X0316679Y0385677D01*
X0316704Y0385526D01*
X0316726Y0385375D01*
X0316744Y0385222D01*
X0316758Y0385070D01*
X0316768Y0384917D01*
X0316774Y0384763D01*
X0316776Y0384610D01*
X0316774Y0384457D01*
X0316768Y0384303D01*
X0316758Y0384150D01*
X0316744Y0383998D01*
X0316726Y0383845D01*
X0316704Y0383694D01*
X0316679Y0383543D01*
X0316649Y0383392D01*
X0316615Y0383242D01*
X0316578Y0383094D01*
X0316537Y0382946D01*
X0316492Y0382800D01*
X0316443Y0382654D01*
X0316390Y0382510D01*
X0316334Y0382368D01*
X0316274Y0382227D01*
X0316210Y0382087D01*
X0316143Y0381949D01*
X0316072Y0381813D01*
X0315997Y0381679D01*
X0315920Y0381547D01*
X0315838Y0381417D01*
X0315754Y0381289D01*
X0315666Y0381163D01*
X0315575Y0381040D01*
X0315481Y0380919D01*
X0315383Y0380801D01*
X0315283Y0380685D01*
X0315179Y0380572D01*
X0315073Y0380461D01*
X0314964Y0380353D01*
X0314852Y0380248D01*
X0314738Y0380147D01*
X0314620Y0380048D01*
X0314501Y0379952D01*
X0314379Y0379859D01*
X0314254Y0379770D01*
X0314127Y0379683D01*
X0313998Y0379601D01*
X0313867Y0379521D01*
X0313734Y0379445D01*
X0313599Y0379372D01*
X0313462Y0379303D01*
X0313323Y0379238D01*
X0313183Y0379176D01*
X0313041Y0379118D01*
X0312898Y0379063D01*
X0312753Y0379012D01*
X0312607Y0378965D01*
X0312460Y0378922D01*
X0312312Y0378883D01*
X0312163Y0378847D01*
X0312013Y0378816D01*
X0311862Y0378788D01*
X0311711Y0378764D01*
X0311558Y0378744D01*
X0311406Y0378728D01*
X0311253Y0378716D01*
X0311100Y0378708D01*
X0310947Y0378704D01*
X0310793Y0378704D01*
X0310640Y0378708D01*
X0310487Y0378716D01*
X0310334Y0378728D01*
X0310182Y0378744D01*
X0310029Y0378764D01*
X0309878Y0378788D01*
X0309727Y0378816D01*
X0309577Y0378847D01*
X0309428Y0378883D01*
X0309280Y0378922D01*
X0309133Y0378965D01*
X0308987Y0379012D01*
X0308842Y0379063D01*
X0308699Y0379118D01*
X0308557Y0379176D01*
X0308417Y0379238D01*
X0308278Y0379303D01*
X0308141Y0379372D01*
X0308006Y0379445D01*
X0307873Y0379521D01*
X0307742Y0379601D01*
X0307613Y0379683D01*
X0307486Y0379770D01*
X0307361Y0379859D01*
X0307239Y0379952D01*
X0307120Y0380048D01*
X0307002Y0380147D01*
X0306888Y0380248D01*
X0306776Y0380353D01*
X0306667Y0380461D01*
X0306561Y0380572D01*
X0306457Y0380685D01*
X0306357Y0380801D01*
X0306259Y0380919D01*
X0306165Y0381040D01*
X0306074Y0381163D01*
X0305986Y0381289D01*
X0305902Y0381417D01*
X0305820Y0381547D01*
X0305743Y0381679D01*
X0305668Y0381813D01*
X0305597Y0381949D01*
X0305530Y0382087D01*
X0305466Y0382227D01*
X0305406Y0382368D01*
X0305350Y0382510D01*
X0305297Y0382654D01*
X0305248Y0382800D01*
X0305203Y0382946D01*
X0305162Y0383094D01*
X0305125Y0383242D01*
X0305091Y0383392D01*
X0305061Y0383543D01*
X0305036Y0383694D01*
X0305014Y0383845D01*
X0304996Y0383998D01*
X0304982Y0384150D01*
X0304972Y0384303D01*
X0304966Y0384457D01*
X0304964Y0384610D01*
X0304964Y0120831D02*
X0304966Y0120984D01*
X0304972Y0121138D01*
X0304982Y0121291D01*
X0304996Y0121443D01*
X0305014Y0121596D01*
X0305036Y0121747D01*
X0305061Y0121898D01*
X0305091Y0122049D01*
X0305125Y0122199D01*
X0305162Y0122347D01*
X0305203Y0122495D01*
X0305248Y0122641D01*
X0305297Y0122787D01*
X0305350Y0122931D01*
X0305406Y0123073D01*
X0305466Y0123214D01*
X0305530Y0123354D01*
X0305597Y0123492D01*
X0305668Y0123628D01*
X0305743Y0123762D01*
X0305820Y0123894D01*
X0305902Y0124024D01*
X0305986Y0124152D01*
X0306074Y0124278D01*
X0306165Y0124401D01*
X0306259Y0124522D01*
X0306357Y0124640D01*
X0306457Y0124756D01*
X0306561Y0124869D01*
X0306667Y0124980D01*
X0306776Y0125088D01*
X0306888Y0125193D01*
X0307002Y0125294D01*
X0307120Y0125393D01*
X0307239Y0125489D01*
X0307361Y0125582D01*
X0307486Y0125671D01*
X0307613Y0125758D01*
X0307742Y0125840D01*
X0307873Y0125920D01*
X0308006Y0125996D01*
X0308141Y0126069D01*
X0308278Y0126138D01*
X0308417Y0126203D01*
X0308557Y0126265D01*
X0308699Y0126323D01*
X0308842Y0126378D01*
X0308987Y0126429D01*
X0309133Y0126476D01*
X0309280Y0126519D01*
X0309428Y0126558D01*
X0309577Y0126594D01*
X0309727Y0126625D01*
X0309878Y0126653D01*
X0310029Y0126677D01*
X0310182Y0126697D01*
X0310334Y0126713D01*
X0310487Y0126725D01*
X0310640Y0126733D01*
X0310793Y0126737D01*
X0310947Y0126737D01*
X0311100Y0126733D01*
X0311253Y0126725D01*
X0311406Y0126713D01*
X0311558Y0126697D01*
X0311711Y0126677D01*
X0311862Y0126653D01*
X0312013Y0126625D01*
X0312163Y0126594D01*
X0312312Y0126558D01*
X0312460Y0126519D01*
X0312607Y0126476D01*
X0312753Y0126429D01*
X0312898Y0126378D01*
X0313041Y0126323D01*
X0313183Y0126265D01*
X0313323Y0126203D01*
X0313462Y0126138D01*
X0313599Y0126069D01*
X0313734Y0125996D01*
X0313867Y0125920D01*
X0313998Y0125840D01*
X0314127Y0125758D01*
X0314254Y0125671D01*
X0314379Y0125582D01*
X0314501Y0125489D01*
X0314620Y0125393D01*
X0314738Y0125294D01*
X0314852Y0125193D01*
X0314964Y0125088D01*
X0315073Y0124980D01*
X0315179Y0124869D01*
X0315283Y0124756D01*
X0315383Y0124640D01*
X0315481Y0124522D01*
X0315575Y0124401D01*
X0315666Y0124278D01*
X0315754Y0124152D01*
X0315838Y0124024D01*
X0315920Y0123894D01*
X0315997Y0123762D01*
X0316072Y0123628D01*
X0316143Y0123492D01*
X0316210Y0123354D01*
X0316274Y0123214D01*
X0316334Y0123073D01*
X0316390Y0122931D01*
X0316443Y0122787D01*
X0316492Y0122641D01*
X0316537Y0122495D01*
X0316578Y0122347D01*
X0316615Y0122199D01*
X0316649Y0122049D01*
X0316679Y0121898D01*
X0316704Y0121747D01*
X0316726Y0121596D01*
X0316744Y0121443D01*
X0316758Y0121291D01*
X0316768Y0121138D01*
X0316774Y0120984D01*
X0316776Y0120831D01*
X0316774Y0120678D01*
X0316768Y0120524D01*
X0316758Y0120371D01*
X0316744Y0120219D01*
X0316726Y0120066D01*
X0316704Y0119915D01*
X0316679Y0119764D01*
X0316649Y0119613D01*
X0316615Y0119463D01*
X0316578Y0119315D01*
X0316537Y0119167D01*
X0316492Y0119021D01*
X0316443Y0118875D01*
X0316390Y0118731D01*
X0316334Y0118589D01*
X0316274Y0118448D01*
X0316210Y0118308D01*
X0316143Y0118170D01*
X0316072Y0118034D01*
X0315997Y0117900D01*
X0315920Y0117768D01*
X0315838Y0117638D01*
X0315754Y0117510D01*
X0315666Y0117384D01*
X0315575Y0117261D01*
X0315481Y0117140D01*
X0315383Y0117022D01*
X0315283Y0116906D01*
X0315179Y0116793D01*
X0315073Y0116682D01*
X0314964Y0116574D01*
X0314852Y0116469D01*
X0314738Y0116368D01*
X0314620Y0116269D01*
X0314501Y0116173D01*
X0314379Y0116080D01*
X0314254Y0115991D01*
X0314127Y0115904D01*
X0313998Y0115822D01*
X0313867Y0115742D01*
X0313734Y0115666D01*
X0313599Y0115593D01*
X0313462Y0115524D01*
X0313323Y0115459D01*
X0313183Y0115397D01*
X0313041Y0115339D01*
X0312898Y0115284D01*
X0312753Y0115233D01*
X0312607Y0115186D01*
X0312460Y0115143D01*
X0312312Y0115104D01*
X0312163Y0115068D01*
X0312013Y0115037D01*
X0311862Y0115009D01*
X0311711Y0114985D01*
X0311558Y0114965D01*
X0311406Y0114949D01*
X0311253Y0114937D01*
X0311100Y0114929D01*
X0310947Y0114925D01*
X0310793Y0114925D01*
X0310640Y0114929D01*
X0310487Y0114937D01*
X0310334Y0114949D01*
X0310182Y0114965D01*
X0310029Y0114985D01*
X0309878Y0115009D01*
X0309727Y0115037D01*
X0309577Y0115068D01*
X0309428Y0115104D01*
X0309280Y0115143D01*
X0309133Y0115186D01*
X0308987Y0115233D01*
X0308842Y0115284D01*
X0308699Y0115339D01*
X0308557Y0115397D01*
X0308417Y0115459D01*
X0308278Y0115524D01*
X0308141Y0115593D01*
X0308006Y0115666D01*
X0307873Y0115742D01*
X0307742Y0115822D01*
X0307613Y0115904D01*
X0307486Y0115991D01*
X0307361Y0116080D01*
X0307239Y0116173D01*
X0307120Y0116269D01*
X0307002Y0116368D01*
X0306888Y0116469D01*
X0306776Y0116574D01*
X0306667Y0116682D01*
X0306561Y0116793D01*
X0306457Y0116906D01*
X0306357Y0117022D01*
X0306259Y0117140D01*
X0306165Y0117261D01*
X0306074Y0117384D01*
X0305986Y0117510D01*
X0305902Y0117638D01*
X0305820Y0117768D01*
X0305743Y0117900D01*
X0305668Y0118034D01*
X0305597Y0118170D01*
X0305530Y0118308D01*
X0305466Y0118448D01*
X0305406Y0118589D01*
X0305350Y0118731D01*
X0305297Y0118875D01*
X0305248Y0119021D01*
X0305203Y0119167D01*
X0305162Y0119315D01*
X0305125Y0119463D01*
X0305091Y0119613D01*
X0305061Y0119764D01*
X0305036Y0119915D01*
X0305014Y0120066D01*
X0304996Y0120219D01*
X0304982Y0120371D01*
X0304972Y0120524D01*
X0304966Y0120678D01*
X0304964Y0120831D01*
D11*
X0157437Y0163195D03*
X0155469Y0163195D03*
X0153500Y0163195D03*
X0151531Y0163195D03*
X0149563Y0163195D03*
X0149563Y0179805D03*
X0151531Y0179805D03*
X0153500Y0179805D03*
X0155469Y0179805D03*
X0157437Y0179805D03*
D12*
X0150000Y0113800D03*
X0145000Y0113800D03*
X0140000Y0113800D03*
X0135000Y0113800D03*
X0135000Y0093200D03*
X0140000Y0093200D03*
X0145000Y0093200D03*
X0150000Y0093200D03*
X0170000Y0093200D03*
X0175000Y0093200D03*
X0180000Y0093200D03*
X0185000Y0093200D03*
X0185000Y0113800D03*
X0180000Y0113800D03*
X0175000Y0113800D03*
X0170000Y0113800D03*
D13*
X0153949Y0052339D03*
X0153949Y0049780D03*
X0153949Y0047220D03*
X0153949Y0044661D03*
X0135051Y0044661D03*
X0135051Y0047220D03*
X0135051Y0049780D03*
X0135051Y0052339D03*
D14*
X0122500Y0162035D03*
X0122500Y0178965D03*
X0122500Y0188035D03*
X0122500Y0204965D03*
X0181500Y0178965D03*
X0181500Y0162035D03*
D15*
X0173421Y0206000D03*
X0163579Y0206000D03*
X0143421Y0206000D03*
X0133579Y0206000D03*
D16*
X0153654Y0189500D03*
X0160346Y0189500D03*
X0139846Y0171500D03*
X0133154Y0171500D03*
X0140154Y0154500D03*
X0146846Y0154500D03*
X0146846Y0143500D03*
X0140154Y0143500D03*
X0140154Y0132500D03*
X0146846Y0132500D03*
X0160154Y0132500D03*
X0166846Y0132500D03*
X0166846Y0143500D03*
X0160154Y0143500D03*
X0160154Y0154500D03*
X0166846Y0154500D03*
X0097346Y0154000D03*
X0090654Y0154000D03*
X0089846Y0137500D03*
X0083154Y0137500D03*
X0083154Y0128000D03*
X0089846Y0128000D03*
X0090154Y0171000D03*
X0096846Y0171000D03*
X0089846Y0181500D03*
X0083154Y0181500D03*
X0072346Y0169000D03*
X0065654Y0169000D03*
X0044346Y0156000D03*
X0037654Y0156000D03*
X0035346Y0146000D03*
X0028654Y0146000D03*
X0028654Y0136000D03*
X0035346Y0136000D03*
X0035346Y0126000D03*
X0028654Y0126000D03*
X0090154Y0194000D03*
X0096846Y0194000D03*
X0096846Y0204000D03*
X0090154Y0204000D03*
X0081846Y0232000D03*
X0075154Y0232000D03*
X0045846Y0240500D03*
X0039154Y0240500D03*
X0036846Y0214500D03*
X0030154Y0214500D03*
X0045154Y0289000D03*
X0051846Y0289000D03*
X0095154Y0321000D03*
X0101846Y0321000D03*
X0176654Y0303500D03*
X0183346Y0303500D03*
X0183346Y0293500D03*
X0176654Y0293500D03*
X0235654Y0249000D03*
X0242346Y0249000D03*
X0254654Y0246000D03*
X0261346Y0246000D03*
X0261346Y0256000D03*
X0254654Y0256000D03*
X0262654Y0300000D03*
X0269346Y0300000D03*
X0269346Y0310000D03*
X0262654Y0310000D03*
X0262654Y0320000D03*
X0269346Y0320000D03*
X0252346Y0327500D03*
X0245654Y0327500D03*
X0224346Y0079000D03*
X0217654Y0079000D03*
X0217654Y0069000D03*
X0224346Y0069000D03*
X0217846Y0032500D03*
X0211154Y0032500D03*
X0147846Y0034500D03*
X0141154Y0034500D03*
X0141254Y0061500D03*
X0147946Y0061500D03*
X0285654Y0061000D03*
X0292346Y0061000D03*
X0292346Y0052000D03*
X0285654Y0052000D03*
X0285654Y0043000D03*
X0292346Y0043000D03*
X0292346Y0034000D03*
X0285654Y0034000D03*
D17*
X0286500Y0071154D03*
X0286500Y0077846D03*
X0276500Y0077846D03*
X0276500Y0071154D03*
X0266500Y0071154D03*
X0266500Y0077846D03*
X0256500Y0077846D03*
X0256500Y0071154D03*
X0162500Y0060846D03*
X0162500Y0054154D03*
X0161500Y0091154D03*
X0161500Y0097846D03*
X0161500Y0107154D03*
X0161500Y0113846D03*
X0126500Y0115846D03*
X0126500Y0109154D03*
X0126500Y0097846D03*
X0126500Y0091154D03*
X0126500Y0043846D03*
X0126500Y0037154D03*
X0072000Y0123654D03*
X0072000Y0130346D03*
X0055000Y0130346D03*
X0055000Y0123654D03*
X0045500Y0123654D03*
X0045500Y0130346D03*
X0055000Y0164654D03*
X0055000Y0171346D03*
X0045500Y0209154D03*
X0045500Y0215846D03*
X0029500Y0222154D03*
X0029500Y0228846D03*
X0066000Y0230846D03*
X0066000Y0224154D03*
X0170000Y0228154D03*
X0170000Y0234846D03*
X0262000Y0228346D03*
X0262000Y0221654D03*
X0281500Y0250654D03*
X0281500Y0257346D03*
X0290500Y0258346D03*
X0290500Y0251654D03*
X0299500Y0251654D03*
X0299500Y0258346D03*
X0312000Y0228846D03*
X0312000Y0222154D03*
D18*
X0166500Y0042406D03*
D19*
X0162563Y0029315D03*
X0170437Y0029315D03*
D20*
X0227996Y0056504D03*
X0230358Y0056504D03*
X0232720Y0056504D03*
X0235083Y0056504D03*
X0237445Y0056504D03*
X0239807Y0056504D03*
X0242169Y0056504D03*
X0244531Y0056504D03*
X0246894Y0056504D03*
X0249256Y0056504D03*
X0251618Y0056504D03*
X0253980Y0056504D03*
X0256343Y0056504D03*
X0258705Y0056504D03*
X0261067Y0056504D03*
X0263429Y0056504D03*
X0265791Y0056504D03*
X0268154Y0056504D03*
X0270516Y0056504D03*
D21*
X0271657Y0045185D03*
X0269295Y0045185D03*
X0266933Y0045185D03*
X0264571Y0045185D03*
X0262209Y0045185D03*
X0259846Y0045185D03*
X0257484Y0045185D03*
X0255122Y0045185D03*
X0252760Y0045185D03*
X0250398Y0045185D03*
X0248035Y0045185D03*
X0245673Y0045185D03*
X0243311Y0045185D03*
X0240949Y0045185D03*
X0238587Y0045185D03*
X0236224Y0045185D03*
X0233862Y0045185D03*
X0231500Y0045185D03*
X0229138Y0045185D03*
X0226776Y0045185D03*
D22*
X0224020Y0045972D03*
X0274413Y0045972D03*
D23*
X0066724Y0139248D03*
X0063575Y0139248D03*
X0060425Y0139248D03*
X0057276Y0139248D03*
X0057276Y0157752D03*
X0060425Y0157752D03*
X0063575Y0157752D03*
X0066724Y0157752D03*
D24*
X0071252Y0143776D03*
D25*
X0071252Y0146925D03*
X0071252Y0150075D03*
X0071252Y0153224D03*
X0052748Y0153224D03*
X0052748Y0150075D03*
X0052748Y0146925D03*
X0052748Y0143776D03*
D26*
X0062000Y0148500D03*
D27*
X0084425Y0147378D02*
X0084425Y0144622D01*
X0081669Y0144622D01*
X0081669Y0147378D01*
X0084425Y0147378D01*
X0084425Y0145802D02*
X0081669Y0145802D01*
X0081669Y0146982D02*
X0084425Y0146982D01*
X0091331Y0147378D02*
X0091331Y0144622D01*
X0088575Y0144622D01*
X0088575Y0147378D01*
X0091331Y0147378D01*
X0091331Y0145802D02*
X0088575Y0145802D01*
X0088575Y0146982D02*
X0091331Y0146982D01*
X0091331Y0161622D02*
X0091331Y0164378D01*
X0091331Y0161622D02*
X0088575Y0161622D01*
X0088575Y0164378D01*
X0091331Y0164378D01*
X0091331Y0162802D02*
X0088575Y0162802D01*
X0088575Y0163982D02*
X0091331Y0163982D01*
X0084425Y0164378D02*
X0084425Y0161622D01*
X0081669Y0161622D01*
X0081669Y0164378D01*
X0084425Y0164378D01*
X0084425Y0162802D02*
X0081669Y0162802D01*
X0081669Y0163982D02*
X0084425Y0163982D01*
X0030878Y0234669D02*
X0028122Y0234669D01*
X0028122Y0237425D01*
X0030878Y0237425D01*
X0030878Y0234669D01*
X0030878Y0235849D02*
X0028122Y0235849D01*
X0028122Y0237029D02*
X0030878Y0237029D01*
X0030878Y0241575D02*
X0028122Y0241575D01*
X0028122Y0244331D01*
X0030878Y0244331D01*
X0030878Y0241575D01*
X0030878Y0242755D02*
X0028122Y0242755D01*
X0028122Y0243935D02*
X0030878Y0243935D01*
X0093669Y0311622D02*
X0093669Y0314378D01*
X0096425Y0314378D01*
X0096425Y0311622D01*
X0093669Y0311622D01*
X0093669Y0312802D02*
X0096425Y0312802D01*
X0096425Y0313982D02*
X0093669Y0313982D01*
X0100575Y0314378D02*
X0100575Y0311622D01*
X0100575Y0314378D02*
X0103331Y0314378D01*
X0103331Y0311622D01*
X0100575Y0311622D01*
X0100575Y0312802D02*
X0103331Y0312802D01*
X0103331Y0313982D02*
X0100575Y0313982D01*
D28*
X0085119Y0222740D03*
X0085119Y0219000D03*
X0085119Y0215260D03*
X0074881Y0215260D03*
X0074881Y0222740D03*
D29*
X0039031Y0181618D03*
X0039031Y0179059D03*
X0039031Y0176500D03*
X0039031Y0173941D03*
X0039031Y0171382D03*
D30*
X0028539Y0172563D03*
X0028500Y0180437D03*
D31*
X0153669Y0231500D03*
X0161937Y0227760D03*
X0161937Y0235240D03*
D32*
X0050567Y0095937D03*
X0050567Y0088063D03*
D33*
X0030094Y0078614D03*
X0030094Y0105386D03*
D34*
X0099500Y0214169D03*
X0099500Y0222831D03*
D35*
X0237429Y0226563D03*
X0237429Y0228531D03*
X0237429Y0230500D03*
X0237429Y0232469D03*
X0237429Y0234437D03*
X0253571Y0234437D03*
X0253571Y0232469D03*
X0253571Y0230500D03*
X0253571Y0228531D03*
X0253571Y0226563D03*
X0287429Y0226563D03*
X0287429Y0228531D03*
X0287429Y0230500D03*
X0287429Y0232469D03*
X0287429Y0234437D03*
X0303571Y0234437D03*
X0303571Y0232469D03*
X0303571Y0230500D03*
X0303571Y0228531D03*
X0303571Y0226563D03*
D36*
X0295500Y0230500D03*
X0245500Y0230500D03*
D37*
X0245894Y0222429D03*
X0247862Y0222429D03*
X0249831Y0222429D03*
X0243925Y0222429D03*
X0241957Y0222429D03*
X0241957Y0238571D03*
X0243925Y0238571D03*
X0245894Y0238571D03*
X0247862Y0238571D03*
X0249831Y0238571D03*
X0291957Y0238571D03*
X0293925Y0238571D03*
X0295894Y0238571D03*
X0297862Y0238571D03*
X0299831Y0238571D03*
X0299831Y0222429D03*
X0297862Y0222429D03*
X0295894Y0222429D03*
X0293925Y0222429D03*
X0291957Y0222429D03*
D38*
X0307000Y0034500D03*
X0307000Y0028500D03*
X0307000Y0022500D03*
D39*
X0029150Y0296957D03*
X0032693Y0348925D03*
D40*
X0084268Y0342626D03*
X0084268Y0319004D03*
D41*
X0045685Y0319398D03*
X0044110Y0323728D03*
X0042535Y0328059D03*
X0044110Y0332390D03*
X0042535Y0336720D03*
X0044110Y0341051D03*
X0044110Y0345382D03*
X0044110Y0315067D03*
D42*
X0245669Y0314724D03*
X0245669Y0311575D03*
X0245669Y0308425D03*
X0245669Y0305276D03*
X0245669Y0302126D03*
X0254331Y0302126D03*
X0254331Y0305276D03*
X0254331Y0308425D03*
X0254331Y0311575D03*
X0254331Y0314724D03*
X0254331Y0317874D03*
X0245669Y0317874D03*
D43*
X0250000Y0318268D03*
X0250000Y0301732D03*
D44*
X0045240Y0232619D03*
X0041500Y0232619D03*
X0037760Y0232619D03*
X0037760Y0222381D03*
X0045240Y0222381D03*
M02*
