G75*
%MOIN*%
%OFA0B0*%
%FSLAX25Y25*%
%IPPOS*%
%LPD*%
%AMOC8*
5,1,8,0,0,1.08239X$1,22.5*
%
%ADD10C,0.08200*%
%ADD11C,0.03162*%
%ADD12C,0.05169*%
%ADD13C,0.12611*%
%ADD14OC8,0.08200*%
%ADD15C,0.08477*%
D10*
X0072500Y0097500D03*
X0072500Y0107500D03*
X0087500Y0107500D03*
X0124500Y0138500D03*
X0127500Y0076500D03*
X0162000Y0076500D03*
X0176500Y0057500D03*
X0191000Y0138500D03*
X0141000Y0231500D03*
X0137500Y0283000D03*
X0137500Y0293000D03*
X0137500Y0303000D03*
X0127500Y0303000D03*
X0127500Y0293000D03*
X0127500Y0283000D03*
X0147500Y0283000D03*
X0147500Y0293000D03*
X0147500Y0303000D03*
X0147500Y0313000D03*
X0147500Y0323000D03*
X0147500Y0333000D03*
X0137500Y0333000D03*
X0137500Y0323000D03*
X0137500Y0313000D03*
X0127500Y0313000D03*
X0127500Y0323000D03*
X0127500Y0333000D03*
X0127500Y0343000D03*
X0127500Y0353000D03*
X0127500Y0363000D03*
X0137500Y0363000D03*
X0137500Y0353000D03*
X0137500Y0343000D03*
X0147500Y0343000D03*
X0147500Y0353000D03*
X0147500Y0363000D03*
X0147500Y0373000D03*
X0147500Y0383000D03*
X0147500Y0393000D03*
X0137500Y0393000D03*
X0137500Y0383000D03*
X0137500Y0373000D03*
X0127500Y0373000D03*
X0127500Y0383000D03*
X0127500Y0393000D03*
X0103500Y0388500D03*
X0103500Y0378500D03*
X0103500Y0368500D03*
X0103500Y0358500D03*
X0103500Y0348500D03*
X0083300Y0269400D03*
X0083300Y0251600D03*
X0057700Y0251600D03*
X0055500Y0238000D03*
X0057700Y0269400D03*
X0045000Y0198000D03*
X0073500Y0198500D03*
X0197500Y0283000D03*
X0197500Y0293000D03*
X0197500Y0303000D03*
X0207500Y0303000D03*
X0207500Y0293000D03*
X0207500Y0283000D03*
X0217500Y0283000D03*
X0217500Y0293000D03*
X0217500Y0303000D03*
X0217500Y0313000D03*
X0217500Y0323000D03*
X0217500Y0333000D03*
X0207500Y0333000D03*
X0207500Y0323000D03*
X0207500Y0313000D03*
X0197500Y0313000D03*
X0197500Y0323000D03*
X0197500Y0333000D03*
X0197500Y0343000D03*
X0197500Y0353000D03*
X0197500Y0363000D03*
X0207500Y0363000D03*
X0207500Y0353000D03*
X0207500Y0343000D03*
X0217500Y0343000D03*
X0217500Y0353000D03*
X0217500Y0363000D03*
X0217500Y0373000D03*
X0217500Y0383000D03*
X0217500Y0393000D03*
X0207500Y0393000D03*
X0207500Y0383000D03*
X0207500Y0373000D03*
X0197500Y0373000D03*
X0197500Y0383000D03*
X0197500Y0393000D03*
D11*
X0036768Y0184177D03*
X0036768Y0168823D03*
D12*
X0030684Y0165575D02*
X0026316Y0165575D01*
X0026316Y0187425D02*
X0030684Y0187425D01*
D13*
X0047091Y0042091D03*
X0310870Y0120831D03*
X0310870Y0384610D03*
X0047091Y0384610D03*
D14*
X0247000Y0382500D03*
X0247000Y0372500D03*
X0257000Y0372500D03*
X0257000Y0382500D03*
X0257000Y0392500D03*
X0247000Y0392500D03*
D15*
X0279500Y0372154D03*
X0279500Y0293413D03*
M02*
