G75*
%MOIN*%
%OFA0B0*%
%FSLAX25Y25*%
%IPPOS*%
%LPD*%
%AMOC8*
5,1,8,0,0,1.08239X$1,22.5*
%
%ADD10C,0.07400*%
%ADD11C,0.04369*%
%ADD12OC8,0.07400*%
%ADD13C,0.07677*%
%ADD14C,0.01000*%
%ADD15C,0.03569*%
%ADD16C,0.02781*%
%ADD17C,0.01200*%
%ADD18C,0.05000*%
%ADD19C,0.03200*%
%ADD20C,0.01600*%
%ADD21C,0.02400*%
%ADD22C,0.04000*%
D10*
X0072500Y0097500D03*
X0072500Y0107500D03*
X0087500Y0107500D03*
X0124500Y0138500D03*
X0127500Y0076500D03*
X0162000Y0076500D03*
X0176500Y0057500D03*
X0191000Y0138500D03*
X0141000Y0231500D03*
X0137500Y0283000D03*
X0137500Y0293000D03*
X0137500Y0303000D03*
X0127500Y0303000D03*
X0127500Y0293000D03*
X0127500Y0283000D03*
X0147500Y0283000D03*
X0147500Y0293000D03*
X0147500Y0303000D03*
X0147500Y0313000D03*
X0147500Y0323000D03*
X0147500Y0333000D03*
X0137500Y0333000D03*
X0137500Y0323000D03*
X0137500Y0313000D03*
X0127500Y0313000D03*
X0127500Y0323000D03*
X0127500Y0333000D03*
X0127500Y0343000D03*
X0127500Y0353000D03*
X0127500Y0363000D03*
X0137500Y0363000D03*
X0137500Y0353000D03*
X0137500Y0343000D03*
X0147500Y0343000D03*
X0147500Y0353000D03*
X0147500Y0363000D03*
X0147500Y0373000D03*
X0147500Y0383000D03*
X0147500Y0393000D03*
X0137500Y0393000D03*
X0137500Y0383000D03*
X0137500Y0373000D03*
X0127500Y0373000D03*
X0127500Y0383000D03*
X0127500Y0393000D03*
X0103500Y0388500D03*
X0103500Y0378500D03*
X0103500Y0368500D03*
X0103500Y0358500D03*
X0103500Y0348500D03*
X0083300Y0269400D03*
X0083300Y0251600D03*
X0057700Y0251600D03*
X0055500Y0238000D03*
X0057700Y0269400D03*
X0045000Y0198000D03*
X0073500Y0198500D03*
X0197500Y0283000D03*
X0197500Y0293000D03*
X0197500Y0303000D03*
X0207500Y0303000D03*
X0207500Y0293000D03*
X0207500Y0283000D03*
X0217500Y0283000D03*
X0217500Y0293000D03*
X0217500Y0303000D03*
X0217500Y0313000D03*
X0217500Y0323000D03*
X0217500Y0333000D03*
X0207500Y0333000D03*
X0207500Y0323000D03*
X0207500Y0313000D03*
X0197500Y0313000D03*
X0197500Y0323000D03*
X0197500Y0333000D03*
X0197500Y0343000D03*
X0197500Y0353000D03*
X0197500Y0363000D03*
X0207500Y0363000D03*
X0207500Y0353000D03*
X0207500Y0343000D03*
X0217500Y0343000D03*
X0217500Y0353000D03*
X0217500Y0363000D03*
X0217500Y0373000D03*
X0217500Y0383000D03*
X0217500Y0393000D03*
X0207500Y0393000D03*
X0207500Y0383000D03*
X0207500Y0373000D03*
X0197500Y0373000D03*
X0197500Y0383000D03*
X0197500Y0393000D03*
D11*
X0030684Y0187425D02*
X0026316Y0187425D01*
X0026316Y0165575D02*
X0030684Y0165575D01*
D12*
X0247000Y0372500D03*
X0247000Y0382500D03*
X0247000Y0392500D03*
X0257000Y0392500D03*
X0257000Y0382500D03*
X0257000Y0372500D03*
D13*
X0279500Y0372154D03*
X0279500Y0293413D03*
D14*
X0164958Y0025487D02*
X0026085Y0025487D01*
X0026441Y0024871D02*
X0024015Y0029073D01*
X0022759Y0033759D01*
X0022600Y0036185D01*
X0022600Y0036641D01*
X0022600Y0390516D01*
X0022759Y0392942D01*
X0024015Y0397628D01*
X0026441Y0401830D01*
X0029871Y0405260D01*
X0034073Y0407686D01*
X0038759Y0408942D01*
X0041185Y0409101D01*
X0316776Y0409101D01*
X0319201Y0408942D01*
X0323888Y0407686D01*
X0328089Y0405260D01*
X0331520Y0401830D01*
X0333946Y0397628D01*
X0335202Y0392942D01*
X0335361Y0390516D01*
X0335361Y0036185D01*
X0335202Y0033759D01*
X0333946Y0029073D01*
X0331520Y0024871D01*
X0328089Y0021441D01*
X0323888Y0019015D01*
X0319201Y0017759D01*
X0316776Y0017600D01*
X0041185Y0017600D01*
X0038759Y0017759D01*
X0034073Y0019015D01*
X0029871Y0021441D01*
X0026441Y0024871D01*
X0026824Y0024488D02*
X0165956Y0024488D01*
X0166251Y0024193D02*
X0251749Y0024193D01*
X0252807Y0025251D01*
X0255807Y0028251D01*
X0255807Y0032378D01*
X0255972Y0032213D01*
X0256963Y0031802D01*
X0258037Y0031802D01*
X0259028Y0032213D01*
X0259787Y0032972D01*
X0260198Y0033963D01*
X0260198Y0035037D01*
X0259787Y0036028D01*
X0259307Y0036508D01*
X0259307Y0051251D01*
X0260807Y0052751D01*
X0260807Y0061251D01*
X0261307Y0061751D01*
X0261307Y0067249D01*
X0260249Y0068307D01*
X0259749Y0068307D01*
X0258807Y0069249D01*
X0258807Y0081521D01*
X0259198Y0082463D01*
X0259198Y0082747D01*
X0259251Y0082693D01*
X0261251Y0080693D01*
X0269492Y0080693D01*
X0269972Y0080213D01*
X0270963Y0079802D01*
X0272037Y0079802D01*
X0273028Y0080213D01*
X0273193Y0080378D01*
X0273193Y0050751D01*
X0274251Y0049693D01*
X0279249Y0049693D01*
X0279358Y0049802D01*
X0280037Y0049802D01*
X0281028Y0050213D01*
X0281787Y0050972D01*
X0282193Y0051952D01*
X0282193Y0043251D01*
X0283193Y0042251D01*
X0284251Y0041193D01*
X0295953Y0041193D01*
X0296120Y0041081D01*
X0296679Y0041193D01*
X0297137Y0041193D01*
X0295251Y0039307D01*
X0283508Y0039307D01*
X0283028Y0039787D01*
X0282037Y0040198D01*
X0280963Y0040198D01*
X0279972Y0039787D01*
X0279213Y0039028D01*
X0278802Y0038037D01*
X0278802Y0036963D01*
X0279213Y0035972D01*
X0279972Y0035213D01*
X0280963Y0034802D01*
X0282037Y0034802D01*
X0283028Y0035213D01*
X0283508Y0035693D01*
X0296749Y0035693D01*
X0301749Y0040693D01*
X0302807Y0041751D01*
X0302807Y0046749D01*
X0282807Y0066749D01*
X0282807Y0087249D01*
X0281249Y0088807D01*
X0266748Y0088807D01*
X0265307Y0090248D01*
X0265307Y0187751D01*
X0267249Y0189693D01*
X0310249Y0189693D01*
X0325249Y0204693D01*
X0326307Y0205751D01*
X0326307Y0290249D01*
X0301307Y0315249D01*
X0300249Y0316307D01*
X0239249Y0316307D01*
X0222507Y0333048D01*
X0222507Y0333996D01*
X0221745Y0335836D01*
X0220336Y0337245D01*
X0218513Y0338000D01*
X0220336Y0338755D01*
X0221745Y0340164D01*
X0222507Y0342004D01*
X0222507Y0343996D01*
X0221745Y0345836D01*
X0220336Y0347245D01*
X0218513Y0348000D01*
X0220336Y0348755D01*
X0221745Y0350164D01*
X0222507Y0352004D01*
X0222507Y0353996D01*
X0221745Y0355836D01*
X0220336Y0357245D01*
X0218496Y0358007D01*
X0216504Y0358007D01*
X0214664Y0357245D01*
X0213255Y0355836D01*
X0212500Y0354013D01*
X0211745Y0355836D01*
X0210336Y0357245D01*
X0208496Y0358007D01*
X0206504Y0358007D01*
X0204664Y0357245D01*
X0203255Y0355836D01*
X0202500Y0354013D01*
X0201745Y0355836D01*
X0200336Y0357245D01*
X0198496Y0358007D01*
X0196504Y0358007D01*
X0194664Y0357245D01*
X0193255Y0355836D01*
X0192493Y0353996D01*
X0192493Y0352004D01*
X0193255Y0350164D01*
X0194664Y0348755D01*
X0196487Y0348000D01*
X0194664Y0347245D01*
X0193255Y0345836D01*
X0192493Y0343996D01*
X0192493Y0342004D01*
X0193255Y0340164D01*
X0194664Y0338755D01*
X0196487Y0338000D01*
X0194664Y0337245D01*
X0193255Y0335836D01*
X0192493Y0333996D01*
X0192493Y0332004D01*
X0193255Y0330164D01*
X0194664Y0328755D01*
X0196487Y0328000D01*
X0194664Y0327245D01*
X0193255Y0325836D01*
X0192493Y0323996D01*
X0192493Y0322004D01*
X0193255Y0320164D01*
X0194664Y0318755D01*
X0196487Y0318000D01*
X0194664Y0317245D01*
X0193255Y0315836D01*
X0192493Y0313996D01*
X0192493Y0312004D01*
X0193255Y0310164D01*
X0194664Y0308755D01*
X0196487Y0308000D01*
X0194664Y0307245D01*
X0193255Y0305836D01*
X0192493Y0303996D01*
X0192493Y0302004D01*
X0193255Y0300164D01*
X0194664Y0298755D01*
X0196487Y0298000D01*
X0194664Y0297245D01*
X0193255Y0295836D01*
X0192493Y0293996D01*
X0192493Y0292004D01*
X0193255Y0290164D01*
X0194664Y0288755D01*
X0196487Y0288000D01*
X0194664Y0287245D01*
X0193255Y0285836D01*
X0192493Y0283996D01*
X0192493Y0282004D01*
X0193255Y0280164D01*
X0194664Y0278755D01*
X0196504Y0277993D01*
X0198496Y0277993D01*
X0200336Y0278755D01*
X0201745Y0280164D01*
X0202500Y0281987D01*
X0203255Y0280164D01*
X0204664Y0278755D01*
X0206504Y0277993D01*
X0208496Y0277993D01*
X0210336Y0278755D01*
X0211745Y0280164D01*
X0212500Y0281987D01*
X0213255Y0280164D01*
X0214664Y0278755D01*
X0216504Y0277993D01*
X0218496Y0277993D01*
X0220336Y0278755D01*
X0221745Y0280164D01*
X0221964Y0280693D01*
X0244249Y0280693D01*
X0245307Y0281751D01*
X0246249Y0282693D01*
X0247307Y0283751D01*
X0247307Y0293935D01*
X0248121Y0294749D01*
X0248591Y0295885D01*
X0248591Y0297115D01*
X0248121Y0298251D01*
X0247251Y0299121D01*
X0246115Y0299591D01*
X0244885Y0299591D01*
X0243749Y0299121D01*
X0242879Y0298251D01*
X0242409Y0297115D01*
X0242409Y0295885D01*
X0242879Y0294749D01*
X0243693Y0293935D01*
X0243693Y0285249D01*
X0242751Y0284307D01*
X0222378Y0284307D01*
X0221745Y0285836D01*
X0220336Y0287245D01*
X0218513Y0288000D01*
X0220336Y0288755D01*
X0221745Y0290164D01*
X0222507Y0292004D01*
X0222507Y0293996D01*
X0221745Y0295836D01*
X0220336Y0297245D01*
X0218513Y0298000D01*
X0220336Y0298755D01*
X0221745Y0300164D01*
X0222378Y0301693D01*
X0298751Y0301693D01*
X0316693Y0283751D01*
X0316693Y0214249D01*
X0303751Y0201307D01*
X0293863Y0201307D01*
X0305858Y0213302D01*
X0306537Y0213302D01*
X0307528Y0213713D01*
X0308287Y0214472D01*
X0308698Y0215463D01*
X0308698Y0216537D01*
X0308287Y0217528D01*
X0307528Y0218287D01*
X0306537Y0218698D01*
X0305463Y0218698D01*
X0304472Y0218287D01*
X0303713Y0217528D01*
X0303302Y0216537D01*
X0303302Y0215858D01*
X0292251Y0204807D01*
X0290863Y0204807D01*
X0297858Y0211802D01*
X0298537Y0211802D01*
X0299528Y0212213D01*
X0300287Y0212972D01*
X0300698Y0213963D01*
X0300698Y0215037D01*
X0300287Y0216028D01*
X0299528Y0216787D01*
X0298537Y0217198D01*
X0297463Y0217198D01*
X0296472Y0216787D01*
X0295713Y0216028D01*
X0295302Y0215037D01*
X0295302Y0214358D01*
X0289251Y0208307D01*
X0284363Y0208307D01*
X0290858Y0214802D01*
X0291537Y0214802D01*
X0292528Y0215213D01*
X0293287Y0215972D01*
X0293698Y0216963D01*
X0293698Y0218037D01*
X0293287Y0219028D01*
X0292528Y0219787D01*
X0291537Y0220198D01*
X0290463Y0220198D01*
X0289472Y0219787D01*
X0288713Y0219028D01*
X0288302Y0218037D01*
X0288302Y0217358D01*
X0282751Y0211807D01*
X0272363Y0211807D01*
X0273307Y0212751D01*
X0273307Y0212751D01*
X0282358Y0221802D01*
X0283037Y0221802D01*
X0284028Y0222213D01*
X0284787Y0222972D01*
X0285198Y0223963D01*
X0285198Y0225037D01*
X0284787Y0226028D01*
X0284028Y0226787D01*
X0283037Y0227198D01*
X0281963Y0227198D01*
X0280972Y0226787D01*
X0280213Y0226028D01*
X0279802Y0225037D01*
X0279802Y0224358D01*
X0270751Y0215307D01*
X0258122Y0215307D01*
X0258787Y0215972D01*
X0259198Y0216963D01*
X0259198Y0218037D01*
X0258787Y0219028D01*
X0258028Y0219787D01*
X0257037Y0220198D01*
X0255963Y0220198D01*
X0255198Y0219880D01*
X0255198Y0220537D01*
X0254787Y0221528D01*
X0254307Y0222008D01*
X0254307Y0225749D01*
X0251807Y0228249D01*
X0250749Y0229307D01*
X0181012Y0229307D01*
X0180621Y0230251D01*
X0179751Y0231121D01*
X0178615Y0231591D01*
X0177385Y0231591D01*
X0176249Y0231121D01*
X0175379Y0230251D01*
X0174909Y0229115D01*
X0174909Y0227885D01*
X0175379Y0226749D01*
X0176249Y0225879D01*
X0177385Y0225409D01*
X0178615Y0225409D01*
X0179301Y0225693D01*
X0225137Y0225693D01*
X0222751Y0223307D01*
X0221693Y0222249D01*
X0221693Y0177249D01*
X0220751Y0176307D01*
X0168065Y0176307D01*
X0167251Y0177121D01*
X0166115Y0177591D01*
X0164885Y0177591D01*
X0163749Y0177121D01*
X0162879Y0176251D01*
X0162409Y0175115D01*
X0162409Y0173885D01*
X0162879Y0172749D01*
X0163628Y0172000D01*
X0162879Y0171251D01*
X0162409Y0170115D01*
X0162409Y0168885D01*
X0162879Y0167749D01*
X0163749Y0166879D01*
X0164885Y0166409D01*
X0166115Y0166409D01*
X0167251Y0166879D01*
X0168065Y0167693D01*
X0225249Y0167693D01*
X0227249Y0169693D01*
X0228307Y0170751D01*
X0228307Y0218751D01*
X0229249Y0219693D01*
X0230952Y0219693D01*
X0229972Y0219287D01*
X0229213Y0218528D01*
X0228802Y0217537D01*
X0228802Y0216463D01*
X0229213Y0215472D01*
X0229693Y0214992D01*
X0229693Y0040079D01*
X0228706Y0038698D01*
X0228463Y0038698D01*
X0227472Y0038287D01*
X0226713Y0037528D01*
X0226302Y0036537D01*
X0226302Y0035463D01*
X0226713Y0034472D01*
X0227472Y0033713D01*
X0227993Y0033497D01*
X0227802Y0033037D01*
X0227802Y0031963D01*
X0228213Y0030972D01*
X0228972Y0030213D01*
X0229963Y0029802D01*
X0231037Y0029802D01*
X0232028Y0030213D01*
X0232787Y0030972D01*
X0233198Y0031963D01*
X0233198Y0033025D01*
X0235357Y0035802D01*
X0235807Y0036251D01*
X0235807Y0036380D01*
X0235886Y0036481D01*
X0235807Y0037113D01*
X0235807Y0057751D01*
X0236693Y0058637D01*
X0236693Y0034378D01*
X0236472Y0034287D01*
X0235713Y0033528D01*
X0235302Y0032537D01*
X0235302Y0031463D01*
X0235713Y0030472D01*
X0236472Y0029713D01*
X0237463Y0029302D01*
X0238537Y0029302D01*
X0239528Y0029713D01*
X0240287Y0030472D01*
X0240576Y0031170D01*
X0241463Y0030802D01*
X0242537Y0030802D01*
X0243528Y0031213D01*
X0244287Y0031972D01*
X0244698Y0032963D01*
X0244698Y0034037D01*
X0244580Y0034320D01*
X0244802Y0034412D01*
X0244802Y0033463D01*
X0245213Y0032472D01*
X0245972Y0031713D01*
X0246963Y0031302D01*
X0247120Y0031302D01*
X0246802Y0030537D01*
X0246802Y0029463D01*
X0247213Y0028472D01*
X0247878Y0027807D01*
X0167749Y0027807D01*
X0117807Y0077749D01*
X0117807Y0103914D01*
X0118528Y0104213D01*
X0119287Y0104972D01*
X0119698Y0105963D01*
X0119698Y0107037D01*
X0119287Y0108028D01*
X0118528Y0108787D01*
X0117537Y0109198D01*
X0116463Y0109198D01*
X0115472Y0108787D01*
X0114713Y0108028D01*
X0114302Y0107037D01*
X0114302Y0106358D01*
X0114193Y0106249D01*
X0114193Y0076251D01*
X0115251Y0075193D01*
X0166251Y0024193D01*
X0167000Y0026000D02*
X0116000Y0077000D01*
X0116000Y0105500D01*
X0117000Y0106500D01*
X0118952Y0108363D02*
X0189093Y0108363D01*
X0189093Y0107365D02*
X0119562Y0107365D01*
X0119698Y0106366D02*
X0189093Y0106366D01*
X0189093Y0105368D02*
X0119451Y0105368D01*
X0118684Y0104369D02*
X0189093Y0104369D01*
X0189093Y0103370D02*
X0117807Y0103370D01*
X0117807Y0102372D02*
X0189093Y0102372D01*
X0189093Y0101373D02*
X0117807Y0101373D01*
X0117807Y0100375D02*
X0189093Y0100375D01*
X0189093Y0099376D02*
X0117807Y0099376D01*
X0117807Y0098378D02*
X0189093Y0098378D01*
X0189093Y0097379D02*
X0117807Y0097379D01*
X0117807Y0096381D02*
X0189093Y0096381D01*
X0189093Y0095382D02*
X0117807Y0095382D01*
X0117807Y0094384D02*
X0189093Y0094384D01*
X0189093Y0093385D02*
X0117807Y0093385D01*
X0117807Y0092387D02*
X0189093Y0092387D01*
X0189093Y0091388D02*
X0117807Y0091388D01*
X0117807Y0090390D02*
X0189093Y0090390D01*
X0189093Y0089391D02*
X0117807Y0089391D01*
X0117807Y0088393D02*
X0189093Y0088393D01*
X0189093Y0087394D02*
X0117807Y0087394D01*
X0117807Y0086396D02*
X0189093Y0086396D01*
X0189093Y0085397D02*
X0117807Y0085397D01*
X0117807Y0084399D02*
X0189093Y0084399D01*
X0189093Y0083400D02*
X0117807Y0083400D01*
X0117807Y0082402D02*
X0189093Y0082402D01*
X0189093Y0081403D02*
X0163247Y0081403D01*
X0162996Y0081507D02*
X0161004Y0081507D01*
X0159164Y0080745D01*
X0157755Y0079336D01*
X0156993Y0077496D01*
X0156993Y0075504D01*
X0157755Y0073664D01*
X0159164Y0072255D01*
X0161004Y0071493D01*
X0162996Y0071493D01*
X0164836Y0072255D01*
X0166245Y0073664D01*
X0167007Y0075504D01*
X0167007Y0077496D01*
X0166245Y0079336D01*
X0164836Y0080745D01*
X0162996Y0081507D01*
X0160753Y0081403D02*
X0128747Y0081403D01*
X0128496Y0081507D02*
X0126504Y0081507D01*
X0124664Y0080745D01*
X0123255Y0079336D01*
X0122493Y0077496D01*
X0122493Y0075504D01*
X0123255Y0073664D01*
X0124664Y0072255D01*
X0126504Y0071493D01*
X0128496Y0071493D01*
X0129525Y0071919D01*
X0163751Y0037693D01*
X0220492Y0037693D01*
X0220972Y0037213D01*
X0221963Y0036802D01*
X0223037Y0036802D01*
X0224028Y0037213D01*
X0224787Y0037972D01*
X0225198Y0038963D01*
X0225198Y0040037D01*
X0224787Y0041028D01*
X0224028Y0041787D01*
X0223037Y0042198D01*
X0221963Y0042198D01*
X0220972Y0041787D01*
X0220492Y0041307D01*
X0215426Y0041307D01*
X0215698Y0041963D01*
X0215698Y0043037D01*
X0215287Y0044028D01*
X0214807Y0044508D01*
X0214807Y0061492D01*
X0215287Y0061972D01*
X0215698Y0062963D01*
X0215698Y0064037D01*
X0215287Y0065028D01*
X0214528Y0065787D01*
X0213537Y0066198D01*
X0212463Y0066198D01*
X0211472Y0065787D01*
X0210713Y0065028D01*
X0210302Y0064037D01*
X0210302Y0062963D01*
X0210713Y0061972D01*
X0211193Y0061492D01*
X0211193Y0044508D01*
X0210713Y0044028D01*
X0210302Y0043037D01*
X0210302Y0041963D01*
X0210574Y0041307D01*
X0165249Y0041307D01*
X0132081Y0074475D01*
X0132507Y0075504D01*
X0132507Y0077496D01*
X0131745Y0079336D01*
X0130336Y0080745D01*
X0128496Y0081507D01*
X0126253Y0081403D02*
X0117807Y0081403D01*
X0117807Y0080405D02*
X0124324Y0080405D01*
X0123325Y0079406D02*
X0117807Y0079406D01*
X0117807Y0078408D02*
X0122871Y0078408D01*
X0122493Y0077409D02*
X0118146Y0077409D01*
X0119145Y0076411D02*
X0122493Y0076411D01*
X0122531Y0075412D02*
X0120143Y0075412D01*
X0121142Y0074414D02*
X0122945Y0074414D01*
X0123504Y0073415D02*
X0122140Y0073415D01*
X0123139Y0072417D02*
X0124502Y0072417D01*
X0124137Y0071418D02*
X0130026Y0071418D01*
X0131025Y0070420D02*
X0125136Y0070420D01*
X0126134Y0069421D02*
X0132023Y0069421D01*
X0133022Y0068423D02*
X0127133Y0068423D01*
X0128132Y0067424D02*
X0134020Y0067424D01*
X0135019Y0066426D02*
X0129130Y0066426D01*
X0130129Y0065427D02*
X0136017Y0065427D01*
X0137016Y0064429D02*
X0131127Y0064429D01*
X0132126Y0063430D02*
X0138014Y0063430D01*
X0139013Y0062432D02*
X0133124Y0062432D01*
X0134123Y0061433D02*
X0140011Y0061433D01*
X0141010Y0060434D02*
X0135121Y0060434D01*
X0136120Y0059436D02*
X0142008Y0059436D01*
X0143007Y0058437D02*
X0137118Y0058437D01*
X0138117Y0057439D02*
X0144005Y0057439D01*
X0145004Y0056440D02*
X0139115Y0056440D01*
X0140114Y0055442D02*
X0146002Y0055442D01*
X0147001Y0054443D02*
X0141112Y0054443D01*
X0142111Y0053445D02*
X0147999Y0053445D01*
X0148998Y0052446D02*
X0143109Y0052446D01*
X0144108Y0051448D02*
X0149996Y0051448D01*
X0150995Y0050449D02*
X0145106Y0050449D01*
X0146105Y0049451D02*
X0151994Y0049451D01*
X0152992Y0048452D02*
X0147103Y0048452D01*
X0148102Y0047454D02*
X0153991Y0047454D01*
X0154989Y0046455D02*
X0149100Y0046455D01*
X0150099Y0045457D02*
X0155988Y0045457D01*
X0156986Y0044458D02*
X0151097Y0044458D01*
X0152096Y0043460D02*
X0157985Y0043460D01*
X0158983Y0042461D02*
X0153094Y0042461D01*
X0154093Y0041463D02*
X0159982Y0041463D01*
X0160980Y0040464D02*
X0155091Y0040464D01*
X0156090Y0039466D02*
X0161979Y0039466D01*
X0162977Y0038467D02*
X0157088Y0038467D01*
X0158087Y0037469D02*
X0220716Y0037469D01*
X0222500Y0039500D02*
X0164500Y0039500D01*
X0127500Y0076500D01*
X0132129Y0078408D02*
X0157371Y0078408D01*
X0156993Y0077409D02*
X0132507Y0077409D01*
X0132507Y0076411D02*
X0156993Y0076411D01*
X0157031Y0075412D02*
X0132469Y0075412D01*
X0132142Y0074414D02*
X0157445Y0074414D01*
X0158004Y0073415D02*
X0133140Y0073415D01*
X0134139Y0072417D02*
X0159002Y0072417D01*
X0164998Y0072417D02*
X0189093Y0072417D01*
X0189093Y0073415D02*
X0165996Y0073415D01*
X0166555Y0074414D02*
X0189093Y0074414D01*
X0189093Y0075412D02*
X0166969Y0075412D01*
X0167007Y0076411D02*
X0189093Y0076411D01*
X0189093Y0077409D02*
X0167007Y0077409D01*
X0166629Y0078408D02*
X0189093Y0078408D01*
X0189093Y0079406D02*
X0166175Y0079406D01*
X0165176Y0080405D02*
X0189093Y0080405D01*
X0192907Y0080405D02*
X0229693Y0080405D01*
X0229693Y0081403D02*
X0192907Y0081403D01*
X0192907Y0082402D02*
X0229693Y0082402D01*
X0229693Y0083400D02*
X0192907Y0083400D01*
X0192907Y0084399D02*
X0229693Y0084399D01*
X0229693Y0085397D02*
X0192907Y0085397D01*
X0192907Y0086396D02*
X0229693Y0086396D01*
X0229693Y0087394D02*
X0192907Y0087394D01*
X0192907Y0088393D02*
X0229693Y0088393D01*
X0229693Y0089391D02*
X0192907Y0089391D01*
X0192907Y0090390D02*
X0229693Y0090390D01*
X0229693Y0091388D02*
X0192907Y0091388D01*
X0192907Y0092387D02*
X0229693Y0092387D01*
X0229693Y0093385D02*
X0192907Y0093385D01*
X0192907Y0094384D02*
X0229693Y0094384D01*
X0229693Y0095382D02*
X0192907Y0095382D01*
X0192907Y0096381D02*
X0229693Y0096381D01*
X0229693Y0097379D02*
X0192907Y0097379D01*
X0192907Y0098378D02*
X0229693Y0098378D01*
X0229693Y0099376D02*
X0192907Y0099376D01*
X0192907Y0100375D02*
X0229693Y0100375D01*
X0229693Y0101373D02*
X0192907Y0101373D01*
X0192907Y0102372D02*
X0229693Y0102372D01*
X0229693Y0103370D02*
X0192907Y0103370D01*
X0192907Y0104369D02*
X0229693Y0104369D01*
X0229693Y0105368D02*
X0192907Y0105368D01*
X0192907Y0106366D02*
X0229693Y0106366D01*
X0229693Y0107365D02*
X0192907Y0107365D01*
X0192907Y0108363D02*
X0229693Y0108363D01*
X0229693Y0109362D02*
X0192907Y0109362D01*
X0192907Y0110360D02*
X0229693Y0110360D01*
X0229693Y0111359D02*
X0192907Y0111359D01*
X0192907Y0112357D02*
X0229693Y0112357D01*
X0229693Y0113356D02*
X0192907Y0113356D01*
X0192907Y0114354D02*
X0229693Y0114354D01*
X0229693Y0115353D02*
X0192907Y0115353D01*
X0192907Y0116351D02*
X0229693Y0116351D01*
X0229693Y0117350D02*
X0192907Y0117350D01*
X0192907Y0118348D02*
X0229693Y0118348D01*
X0229693Y0119347D02*
X0192907Y0119347D01*
X0192907Y0120345D02*
X0229693Y0120345D01*
X0229693Y0121344D02*
X0192907Y0121344D01*
X0192907Y0122342D02*
X0229693Y0122342D01*
X0229693Y0123341D02*
X0192907Y0123341D01*
X0192907Y0124339D02*
X0229693Y0124339D01*
X0229693Y0125338D02*
X0192907Y0125338D01*
X0192907Y0126336D02*
X0229693Y0126336D01*
X0229693Y0127335D02*
X0192907Y0127335D01*
X0192907Y0128333D02*
X0229693Y0128333D01*
X0229693Y0129332D02*
X0192907Y0129332D01*
X0192907Y0130330D02*
X0229693Y0130330D01*
X0229693Y0131329D02*
X0192907Y0131329D01*
X0192907Y0132327D02*
X0229693Y0132327D01*
X0229693Y0133326D02*
X0192907Y0133326D01*
X0192907Y0133870D02*
X0193836Y0134255D01*
X0195245Y0135664D01*
X0196007Y0137504D01*
X0196007Y0139496D01*
X0195245Y0141336D01*
X0193836Y0142745D01*
X0191996Y0143507D01*
X0190004Y0143507D01*
X0188164Y0142745D01*
X0186755Y0141336D01*
X0185993Y0139496D01*
X0185993Y0137504D01*
X0186755Y0135664D01*
X0188164Y0134255D01*
X0189093Y0133870D01*
X0189093Y0050408D01*
X0188713Y0050028D01*
X0188302Y0049037D01*
X0188302Y0047963D01*
X0188713Y0046972D01*
X0189472Y0046213D01*
X0190463Y0045802D01*
X0191537Y0045802D01*
X0192528Y0046213D01*
X0193287Y0046972D01*
X0193698Y0047963D01*
X0193698Y0049037D01*
X0193287Y0050028D01*
X0192907Y0050408D01*
X0192907Y0133870D01*
X0193905Y0134324D02*
X0229693Y0134324D01*
X0229693Y0135323D02*
X0194904Y0135323D01*
X0195517Y0136321D02*
X0229693Y0136321D01*
X0229693Y0137320D02*
X0195931Y0137320D01*
X0196007Y0138318D02*
X0229693Y0138318D01*
X0229693Y0139317D02*
X0196007Y0139317D01*
X0195668Y0140315D02*
X0229693Y0140315D01*
X0229693Y0141314D02*
X0195254Y0141314D01*
X0194269Y0142312D02*
X0229693Y0142312D01*
X0229693Y0143311D02*
X0192469Y0143311D01*
X0189531Y0143311D02*
X0125969Y0143311D01*
X0125496Y0143507D02*
X0123504Y0143507D01*
X0121664Y0142745D01*
X0120255Y0141336D01*
X0119493Y0139496D01*
X0119493Y0137504D01*
X0120255Y0135664D01*
X0121664Y0134255D01*
X0123504Y0133493D01*
X0125496Y0133493D01*
X0127336Y0134255D01*
X0128745Y0135664D01*
X0129507Y0137504D01*
X0129507Y0139496D01*
X0128745Y0141336D01*
X0127336Y0142745D01*
X0125496Y0143507D01*
X0123031Y0143311D02*
X0047807Y0143311D01*
X0047807Y0144309D02*
X0229693Y0144309D01*
X0229693Y0145308D02*
X0047807Y0145308D01*
X0047807Y0146306D02*
X0229693Y0146306D01*
X0229693Y0147305D02*
X0047807Y0147305D01*
X0047807Y0148303D02*
X0229693Y0148303D01*
X0229693Y0149302D02*
X0047807Y0149302D01*
X0047807Y0150301D02*
X0229693Y0150301D01*
X0229693Y0151299D02*
X0085614Y0151299D01*
X0085787Y0151472D02*
X0086198Y0152463D01*
X0086198Y0153537D01*
X0085787Y0154528D01*
X0085407Y0154908D01*
X0085407Y0182583D01*
X0091669Y0187593D01*
X0091790Y0187593D01*
X0092274Y0188077D01*
X0092808Y0188504D01*
X0092822Y0188625D01*
X0092907Y0188710D01*
X0092907Y0189394D01*
X0092983Y0190075D01*
X0092907Y0190169D01*
X0092907Y0304232D01*
X0123249Y0335821D01*
X0122493Y0333996D01*
X0122493Y0332004D01*
X0122878Y0331075D01*
X0108593Y0316790D01*
X0108593Y0310831D01*
X0108343Y0310727D01*
X0107273Y0309657D01*
X0106693Y0308257D01*
X0106693Y0306743D01*
X0107273Y0305343D01*
X0108343Y0304273D01*
X0109743Y0303693D01*
X0111257Y0303693D01*
X0112657Y0304273D01*
X0113727Y0305343D01*
X0114307Y0306743D01*
X0114307Y0308257D01*
X0113727Y0309657D01*
X0112657Y0310727D01*
X0112407Y0310831D01*
X0112407Y0315210D01*
X0125575Y0328378D01*
X0126487Y0328000D01*
X0124664Y0327245D01*
X0123255Y0325836D01*
X0122493Y0323996D01*
X0122493Y0322004D01*
X0123255Y0320164D01*
X0124664Y0318755D01*
X0126487Y0318000D01*
X0124664Y0317245D01*
X0123255Y0315836D01*
X0122493Y0313996D01*
X0122493Y0312004D01*
X0123255Y0310164D01*
X0124664Y0308755D01*
X0126487Y0308000D01*
X0124664Y0307245D01*
X0123255Y0305836D01*
X0122493Y0303996D01*
X0122493Y0302004D01*
X0123255Y0300164D01*
X0124664Y0298755D01*
X0126487Y0298000D01*
X0124664Y0297245D01*
X0123255Y0295836D01*
X0122493Y0293996D01*
X0122493Y0292004D01*
X0123255Y0290164D01*
X0124664Y0288755D01*
X0126487Y0288000D01*
X0124664Y0287245D01*
X0123255Y0285836D01*
X0122663Y0284407D01*
X0098710Y0284407D01*
X0097593Y0283290D01*
X0094593Y0280290D01*
X0094593Y0183408D01*
X0094213Y0183028D01*
X0093802Y0182037D01*
X0093802Y0180963D01*
X0094213Y0179972D01*
X0094972Y0179213D01*
X0095963Y0178802D01*
X0097037Y0178802D01*
X0098028Y0179213D01*
X0098787Y0179972D01*
X0099198Y0180963D01*
X0099198Y0182037D01*
X0098787Y0183028D01*
X0098407Y0183408D01*
X0098407Y0278710D01*
X0100290Y0280593D01*
X0123077Y0280593D01*
X0123255Y0280164D01*
X0124664Y0278755D01*
X0126504Y0277993D01*
X0128496Y0277993D01*
X0130336Y0278755D01*
X0131745Y0280164D01*
X0132500Y0281987D01*
X0133255Y0280164D01*
X0134664Y0278755D01*
X0136504Y0277993D01*
X0138496Y0277993D01*
X0140336Y0278755D01*
X0141745Y0280164D01*
X0142500Y0281987D01*
X0143255Y0280164D01*
X0144664Y0278755D01*
X0146504Y0277993D01*
X0148496Y0277993D01*
X0150336Y0278755D01*
X0151745Y0280164D01*
X0152507Y0282004D01*
X0152507Y0283996D01*
X0151745Y0285836D01*
X0150336Y0287245D01*
X0148513Y0288000D01*
X0150336Y0288755D01*
X0151745Y0290164D01*
X0152507Y0292004D01*
X0152507Y0293996D01*
X0151745Y0295836D01*
X0150336Y0297245D01*
X0148513Y0298000D01*
X0150336Y0298755D01*
X0151745Y0300164D01*
X0152507Y0302004D01*
X0152507Y0303996D01*
X0151745Y0305836D01*
X0150336Y0307245D01*
X0148513Y0308000D01*
X0150336Y0308755D01*
X0151745Y0310164D01*
X0152507Y0312004D01*
X0152507Y0313996D01*
X0151745Y0315836D01*
X0150336Y0317245D01*
X0148513Y0318000D01*
X0150336Y0318755D01*
X0151745Y0320164D01*
X0152507Y0322004D01*
X0152507Y0323996D01*
X0151745Y0325836D01*
X0150336Y0327245D01*
X0148513Y0328000D01*
X0150336Y0328755D01*
X0151745Y0330164D01*
X0152507Y0332004D01*
X0152507Y0333996D01*
X0151745Y0335836D01*
X0150336Y0337245D01*
X0148513Y0338000D01*
X0150336Y0338755D01*
X0151745Y0340164D01*
X0152507Y0342004D01*
X0152507Y0343996D01*
X0151745Y0345836D01*
X0150336Y0347245D01*
X0148513Y0348000D01*
X0150336Y0348755D01*
X0151745Y0350164D01*
X0152507Y0352004D01*
X0152507Y0353996D01*
X0151745Y0355836D01*
X0150336Y0357245D01*
X0148513Y0358000D01*
X0150336Y0358755D01*
X0151745Y0360164D01*
X0152507Y0362004D01*
X0152507Y0363996D01*
X0151745Y0365836D01*
X0150336Y0367245D01*
X0148513Y0368000D01*
X0150336Y0368755D01*
X0151745Y0370164D01*
X0152507Y0372004D01*
X0152507Y0373996D01*
X0151745Y0375836D01*
X0150336Y0377245D01*
X0148496Y0378007D01*
X0146504Y0378007D01*
X0144664Y0377245D01*
X0143255Y0375836D01*
X0142500Y0374013D01*
X0141745Y0375836D01*
X0140336Y0377245D01*
X0138496Y0378007D01*
X0136504Y0378007D01*
X0134664Y0377245D01*
X0133255Y0375836D01*
X0132500Y0374013D01*
X0131745Y0375836D01*
X0130336Y0377245D01*
X0128496Y0378007D01*
X0126504Y0378007D01*
X0124664Y0377245D01*
X0123255Y0375836D01*
X0122493Y0373996D01*
X0122493Y0372004D01*
X0123255Y0370164D01*
X0124664Y0368755D01*
X0126487Y0368000D01*
X0124664Y0367245D01*
X0123255Y0365836D01*
X0122493Y0363996D01*
X0122493Y0362004D01*
X0123255Y0360164D01*
X0124664Y0358755D01*
X0126487Y0358000D01*
X0124664Y0357245D01*
X0123255Y0355836D01*
X0123160Y0355607D01*
X0120627Y0355607D01*
X0119393Y0354373D01*
X0116393Y0351373D01*
X0116393Y0347373D01*
X0081193Y0312173D01*
X0081193Y0273947D01*
X0080464Y0273645D01*
X0079055Y0272236D01*
X0078293Y0270396D01*
X0078293Y0268404D01*
X0079055Y0266564D01*
X0080464Y0265155D01*
X0082304Y0264393D01*
X0084296Y0264393D01*
X0086136Y0265155D01*
X0087545Y0266564D01*
X0088307Y0268404D01*
X0088307Y0270396D01*
X0087545Y0272236D01*
X0086136Y0273645D01*
X0085407Y0273947D01*
X0085407Y0310427D01*
X0119373Y0344393D01*
X0120607Y0345627D01*
X0120607Y0349627D01*
X0122373Y0351393D01*
X0122746Y0351393D01*
X0123255Y0350164D01*
X0124664Y0348755D01*
X0126487Y0348000D01*
X0124664Y0347245D01*
X0123255Y0345836D01*
X0122493Y0343996D01*
X0122493Y0342004D01*
X0122917Y0340981D01*
X0089638Y0306335D01*
X0089093Y0305790D01*
X0089093Y0305768D01*
X0089077Y0305751D01*
X0089093Y0304981D01*
X0089093Y0190417D01*
X0082831Y0185407D01*
X0082710Y0185407D01*
X0082226Y0184923D01*
X0081692Y0184496D01*
X0081678Y0184375D01*
X0081593Y0184290D01*
X0081593Y0183606D01*
X0081517Y0182925D01*
X0081593Y0182831D01*
X0081593Y0154908D01*
X0081213Y0154528D01*
X0080802Y0153537D01*
X0080802Y0152463D01*
X0081213Y0151472D01*
X0081972Y0150713D01*
X0082963Y0150302D01*
X0084037Y0150302D01*
X0085028Y0150713D01*
X0085787Y0151472D01*
X0086129Y0152298D02*
X0229693Y0152298D01*
X0229693Y0153296D02*
X0086198Y0153296D01*
X0085884Y0154295D02*
X0229693Y0154295D01*
X0229693Y0155293D02*
X0085407Y0155293D01*
X0085407Y0156292D02*
X0229693Y0156292D01*
X0229693Y0157290D02*
X0085407Y0157290D01*
X0085407Y0158289D02*
X0229693Y0158289D01*
X0229693Y0159287D02*
X0085407Y0159287D01*
X0085407Y0160286D02*
X0229693Y0160286D01*
X0229693Y0161284D02*
X0085407Y0161284D01*
X0085407Y0162283D02*
X0229693Y0162283D01*
X0229693Y0163281D02*
X0085407Y0163281D01*
X0085407Y0164280D02*
X0229693Y0164280D01*
X0229693Y0165278D02*
X0085407Y0165278D01*
X0085407Y0166277D02*
X0229693Y0166277D01*
X0229693Y0167275D02*
X0167647Y0167275D01*
X0165500Y0169500D02*
X0224500Y0169500D01*
X0226500Y0171500D01*
X0226500Y0219500D01*
X0228500Y0221500D01*
X0242500Y0221500D01*
X0244500Y0219500D01*
X0244500Y0216000D01*
X0245000Y0215500D01*
X0254500Y0215500D01*
X0256500Y0217500D01*
X0258882Y0216202D02*
X0271647Y0216202D01*
X0272645Y0217201D02*
X0259198Y0217201D01*
X0259130Y0218199D02*
X0273644Y0218199D01*
X0274642Y0219198D02*
X0258617Y0219198D01*
X0257040Y0220196D02*
X0275641Y0220196D01*
X0276639Y0221195D02*
X0254925Y0221195D01*
X0255198Y0220196D02*
X0255960Y0220196D01*
X0254307Y0222193D02*
X0277638Y0222193D01*
X0278636Y0223192D02*
X0254307Y0223192D01*
X0254307Y0224190D02*
X0279635Y0224190D01*
X0279865Y0225189D02*
X0254307Y0225189D01*
X0253868Y0226187D02*
X0267534Y0226187D01*
X0267472Y0226213D02*
X0268463Y0225802D01*
X0269537Y0225802D01*
X0270528Y0226213D01*
X0271287Y0226972D01*
X0271586Y0227693D01*
X0313249Y0227693D01*
X0314307Y0228751D01*
X0314307Y0231935D01*
X0315121Y0232749D01*
X0315591Y0233885D01*
X0315591Y0235115D01*
X0315121Y0236251D01*
X0314251Y0237121D01*
X0313115Y0237591D01*
X0311885Y0237591D01*
X0310749Y0237121D01*
X0309879Y0236251D01*
X0309409Y0235115D01*
X0309409Y0233885D01*
X0309879Y0232749D01*
X0310693Y0231935D01*
X0310693Y0231307D01*
X0270307Y0231307D01*
X0270307Y0253751D01*
X0270307Y0255249D01*
X0253307Y0272249D01*
X0252249Y0273307D01*
X0178508Y0273307D01*
X0178028Y0273787D01*
X0177037Y0274198D01*
X0175963Y0274198D01*
X0174972Y0273787D01*
X0174213Y0273028D01*
X0173802Y0272037D01*
X0173802Y0270963D01*
X0174213Y0269972D01*
X0174972Y0269213D01*
X0175963Y0268802D01*
X0177037Y0268802D01*
X0178028Y0269213D01*
X0178508Y0269693D01*
X0250751Y0269693D01*
X0266693Y0253751D01*
X0266693Y0229979D01*
X0266302Y0229037D01*
X0266302Y0227963D01*
X0266713Y0226972D01*
X0267472Y0226213D01*
X0266624Y0227186D02*
X0252870Y0227186D01*
X0251871Y0228184D02*
X0266302Y0228184D01*
X0266363Y0229183D02*
X0250873Y0229183D01*
X0250000Y0227500D02*
X0179000Y0227500D01*
X0178000Y0228500D01*
X0175198Y0227186D02*
X0143669Y0227186D01*
X0143836Y0227255D02*
X0145245Y0228664D01*
X0146007Y0230504D01*
X0146007Y0232496D01*
X0145245Y0234336D01*
X0143836Y0235745D01*
X0141996Y0236507D01*
X0140004Y0236507D01*
X0138164Y0235745D01*
X0136755Y0234336D01*
X0135993Y0232496D01*
X0135993Y0230504D01*
X0136755Y0228664D01*
X0138164Y0227255D01*
X0140004Y0226493D01*
X0141996Y0226493D01*
X0143836Y0227255D01*
X0144765Y0228184D02*
X0174909Y0228184D01*
X0174937Y0229183D02*
X0145460Y0229183D01*
X0145873Y0230181D02*
X0175350Y0230181D01*
X0176392Y0231180D02*
X0146007Y0231180D01*
X0146007Y0232178D02*
X0266693Y0232178D01*
X0266693Y0231180D02*
X0179608Y0231180D01*
X0180650Y0230181D02*
X0266693Y0230181D01*
X0268500Y0229500D02*
X0268900Y0229100D01*
X0268900Y0228500D01*
X0269000Y0228500D01*
X0270000Y0229500D01*
X0312500Y0229500D01*
X0312500Y0234500D01*
X0315298Y0233177D02*
X0316693Y0233177D01*
X0316693Y0234175D02*
X0315591Y0234175D01*
X0315567Y0235174D02*
X0316693Y0235174D01*
X0316693Y0236172D02*
X0315153Y0236172D01*
X0314130Y0237171D02*
X0316693Y0237171D01*
X0316693Y0238170D02*
X0270307Y0238170D01*
X0270307Y0239168D02*
X0316693Y0239168D01*
X0316693Y0240167D02*
X0270307Y0240167D01*
X0270307Y0241165D02*
X0316693Y0241165D01*
X0316693Y0242164D02*
X0270307Y0242164D01*
X0270307Y0243162D02*
X0316693Y0243162D01*
X0316693Y0244161D02*
X0270307Y0244161D01*
X0270307Y0245159D02*
X0316693Y0245159D01*
X0316693Y0246158D02*
X0270307Y0246158D01*
X0270307Y0247156D02*
X0316693Y0247156D01*
X0316693Y0248155D02*
X0270307Y0248155D01*
X0270307Y0249153D02*
X0316693Y0249153D01*
X0316693Y0250152D02*
X0270307Y0250152D01*
X0270307Y0251150D02*
X0316693Y0251150D01*
X0316693Y0252149D02*
X0270307Y0252149D01*
X0270307Y0253147D02*
X0316693Y0253147D01*
X0316693Y0254146D02*
X0270307Y0254146D01*
X0270307Y0255144D02*
X0316693Y0255144D01*
X0316693Y0256143D02*
X0269413Y0256143D01*
X0268414Y0257141D02*
X0316693Y0257141D01*
X0316693Y0258140D02*
X0267416Y0258140D01*
X0266417Y0259138D02*
X0316693Y0259138D01*
X0316693Y0260137D02*
X0265419Y0260137D01*
X0264420Y0261135D02*
X0316693Y0261135D01*
X0316693Y0262134D02*
X0263422Y0262134D01*
X0262423Y0263132D02*
X0316693Y0263132D01*
X0316693Y0264131D02*
X0261425Y0264131D01*
X0260426Y0265129D02*
X0316693Y0265129D01*
X0316693Y0266128D02*
X0259428Y0266128D01*
X0258429Y0267126D02*
X0316693Y0267126D01*
X0316693Y0268125D02*
X0257431Y0268125D01*
X0256432Y0269123D02*
X0316693Y0269123D01*
X0316693Y0270122D02*
X0255434Y0270122D01*
X0254435Y0271120D02*
X0316693Y0271120D01*
X0316693Y0272119D02*
X0253437Y0272119D01*
X0252438Y0273117D02*
X0316693Y0273117D01*
X0316693Y0274116D02*
X0177234Y0274116D01*
X0175766Y0274116D02*
X0098407Y0274116D01*
X0098407Y0275114D02*
X0269514Y0275114D01*
X0269749Y0274879D02*
X0270885Y0274409D01*
X0272115Y0274409D01*
X0273251Y0274879D01*
X0274121Y0275749D01*
X0274591Y0276885D01*
X0274591Y0278115D01*
X0274121Y0279251D01*
X0273307Y0280065D01*
X0273307Y0283935D01*
X0274121Y0284749D01*
X0274591Y0285885D01*
X0274591Y0287115D01*
X0274121Y0288251D01*
X0273251Y0289121D01*
X0272115Y0289591D01*
X0270885Y0289591D01*
X0269749Y0289121D01*
X0268879Y0288251D01*
X0268409Y0287115D01*
X0268409Y0285885D01*
X0268879Y0284749D01*
X0269693Y0283935D01*
X0269693Y0280065D01*
X0268879Y0279251D01*
X0268409Y0278115D01*
X0268409Y0276885D01*
X0268879Y0275749D01*
X0269749Y0274879D01*
X0268728Y0276113D02*
X0098407Y0276113D01*
X0098407Y0277111D02*
X0268409Y0277111D01*
X0268409Y0278110D02*
X0218779Y0278110D01*
X0220690Y0279108D02*
X0268820Y0279108D01*
X0269693Y0280107D02*
X0221688Y0280107D01*
X0217500Y0282500D02*
X0217500Y0283000D01*
X0217500Y0282500D02*
X0243500Y0282500D01*
X0245500Y0284500D01*
X0245500Y0296500D01*
X0248260Y0295085D02*
X0274640Y0295085D01*
X0274738Y0295386D02*
X0274488Y0294617D01*
X0274377Y0293913D01*
X0279000Y0293913D01*
X0279000Y0292913D01*
X0280000Y0292913D01*
X0280000Y0288290D01*
X0280703Y0288401D01*
X0281473Y0288651D01*
X0282193Y0289018D01*
X0282848Y0289494D01*
X0283419Y0290066D01*
X0283895Y0290720D01*
X0284262Y0291441D01*
X0284512Y0292210D01*
X0284623Y0292913D01*
X0280000Y0292913D01*
X0280000Y0293913D01*
X0284623Y0293913D01*
X0284512Y0294617D01*
X0284262Y0295386D01*
X0283895Y0296107D01*
X0283419Y0296761D01*
X0282848Y0297333D01*
X0282193Y0297808D01*
X0281473Y0298175D01*
X0280703Y0298425D01*
X0280000Y0298537D01*
X0280000Y0293913D01*
X0279000Y0293913D01*
X0279000Y0298537D01*
X0278297Y0298425D01*
X0277527Y0298175D01*
X0276807Y0297808D01*
X0276152Y0297333D01*
X0275581Y0296761D01*
X0275105Y0296107D01*
X0274738Y0295386D01*
X0275093Y0296083D02*
X0248591Y0296083D01*
X0248591Y0297082D02*
X0275901Y0297082D01*
X0277340Y0298080D02*
X0248191Y0298080D01*
X0247293Y0299079D02*
X0301366Y0299079D01*
X0302364Y0298080D02*
X0281660Y0298080D01*
X0280000Y0298080D02*
X0279000Y0298080D01*
X0279000Y0297082D02*
X0280000Y0297082D01*
X0280000Y0296083D02*
X0279000Y0296083D01*
X0279000Y0295085D02*
X0280000Y0295085D01*
X0280000Y0294086D02*
X0279000Y0294086D01*
X0279000Y0293088D02*
X0247307Y0293088D01*
X0247307Y0292089D02*
X0274527Y0292089D01*
X0274488Y0292210D02*
X0274738Y0291441D01*
X0275105Y0290720D01*
X0275581Y0290066D01*
X0276152Y0289494D01*
X0276807Y0289018D01*
X0277527Y0288651D01*
X0278297Y0288401D01*
X0279000Y0288290D01*
X0279000Y0292913D01*
X0274377Y0292913D01*
X0274488Y0292210D01*
X0274916Y0291091D02*
X0247307Y0291091D01*
X0247307Y0290092D02*
X0275561Y0290092D01*
X0276703Y0289094D02*
X0273278Y0289094D01*
X0274185Y0288095D02*
X0312349Y0288095D01*
X0311351Y0289094D02*
X0282297Y0289094D01*
X0283439Y0290092D02*
X0310352Y0290092D01*
X0309354Y0291091D02*
X0284084Y0291091D01*
X0284473Y0292089D02*
X0308355Y0292089D01*
X0307357Y0293088D02*
X0280000Y0293088D01*
X0280000Y0292089D02*
X0279000Y0292089D01*
X0279000Y0291091D02*
X0280000Y0291091D01*
X0280000Y0290092D02*
X0279000Y0290092D01*
X0279000Y0289094D02*
X0280000Y0289094D01*
X0274591Y0287097D02*
X0313348Y0287097D01*
X0314346Y0286098D02*
X0274591Y0286098D01*
X0274266Y0285100D02*
X0315345Y0285100D01*
X0316343Y0284101D02*
X0273473Y0284101D01*
X0273307Y0283103D02*
X0316693Y0283103D01*
X0316693Y0282104D02*
X0273307Y0282104D01*
X0273307Y0281105D02*
X0316693Y0281105D01*
X0316693Y0280107D02*
X0273307Y0280107D01*
X0274180Y0279108D02*
X0316693Y0279108D01*
X0316693Y0278110D02*
X0274591Y0278110D01*
X0274591Y0277111D02*
X0316693Y0277111D01*
X0316693Y0276113D02*
X0274271Y0276113D01*
X0273486Y0275114D02*
X0316693Y0275114D01*
X0318500Y0284500D02*
X0299500Y0303500D01*
X0218000Y0303500D01*
X0217500Y0303000D01*
X0222123Y0301076D02*
X0299369Y0301076D01*
X0300367Y0300077D02*
X0221658Y0300077D01*
X0220660Y0299079D02*
X0243707Y0299079D01*
X0242809Y0298080D02*
X0218707Y0298080D01*
X0220499Y0297082D02*
X0242409Y0297082D01*
X0242409Y0296083D02*
X0221498Y0296083D01*
X0222056Y0295085D02*
X0242740Y0295085D01*
X0243542Y0294086D02*
X0222470Y0294086D01*
X0222507Y0293088D02*
X0243693Y0293088D01*
X0243693Y0292089D02*
X0222507Y0292089D01*
X0222129Y0291091D02*
X0243693Y0291091D01*
X0243693Y0290092D02*
X0221673Y0290092D01*
X0220675Y0289094D02*
X0243693Y0289094D01*
X0243693Y0288095D02*
X0218743Y0288095D01*
X0220485Y0287097D02*
X0243693Y0287097D01*
X0243693Y0286098D02*
X0221483Y0286098D01*
X0222050Y0285100D02*
X0243544Y0285100D01*
X0245660Y0282104D02*
X0269693Y0282104D01*
X0269693Y0281105D02*
X0244661Y0281105D01*
X0246658Y0283103D02*
X0269693Y0283103D01*
X0269527Y0284101D02*
X0247307Y0284101D01*
X0247307Y0285100D02*
X0268734Y0285100D01*
X0268409Y0286098D02*
X0247307Y0286098D01*
X0247307Y0287097D02*
X0268409Y0287097D01*
X0268815Y0288095D02*
X0247307Y0288095D01*
X0247307Y0289094D02*
X0269722Y0289094D01*
X0271500Y0286500D02*
X0271500Y0277500D01*
X0274404Y0294086D02*
X0247458Y0294086D01*
X0235500Y0310500D02*
X0223500Y0322500D01*
X0218000Y0322500D01*
X0217500Y0323000D01*
X0218000Y0332500D02*
X0217500Y0333000D01*
X0218000Y0332500D02*
X0220500Y0332500D01*
X0238500Y0314500D01*
X0299500Y0314500D01*
X0324500Y0289500D01*
X0324500Y0206500D01*
X0309500Y0191500D01*
X0266500Y0191500D01*
X0263500Y0188500D01*
X0263500Y0089500D01*
X0266000Y0087000D01*
X0280500Y0087000D01*
X0281000Y0086500D01*
X0281000Y0066000D01*
X0301000Y0046000D01*
X0301000Y0042500D01*
X0296000Y0037500D01*
X0281500Y0037500D01*
X0279007Y0036470D02*
X0259345Y0036470D01*
X0259307Y0037469D02*
X0278802Y0037469D01*
X0278981Y0038467D02*
X0259307Y0038467D01*
X0259307Y0039466D02*
X0279651Y0039466D01*
X0283349Y0039466D02*
X0295410Y0039466D01*
X0296409Y0040464D02*
X0259307Y0040464D01*
X0259307Y0041463D02*
X0283982Y0041463D01*
X0282983Y0042461D02*
X0259307Y0042461D01*
X0259307Y0043460D02*
X0282193Y0043460D01*
X0282193Y0044458D02*
X0259307Y0044458D01*
X0259307Y0045457D02*
X0282193Y0045457D01*
X0282193Y0046455D02*
X0259307Y0046455D01*
X0259307Y0047454D02*
X0282193Y0047454D01*
X0282193Y0048452D02*
X0259307Y0048452D01*
X0259307Y0049451D02*
X0282193Y0049451D01*
X0282193Y0050449D02*
X0281264Y0050449D01*
X0281984Y0051448D02*
X0282193Y0051448D01*
X0279500Y0052500D02*
X0278500Y0051500D01*
X0275000Y0051500D01*
X0275000Y0082000D01*
X0276500Y0083500D01*
X0273193Y0079406D02*
X0258807Y0079406D01*
X0258807Y0078408D02*
X0273193Y0078408D01*
X0273193Y0077409D02*
X0258807Y0077409D01*
X0258807Y0076411D02*
X0273193Y0076411D01*
X0273193Y0075412D02*
X0258807Y0075412D01*
X0258807Y0074414D02*
X0273193Y0074414D01*
X0273193Y0073415D02*
X0258807Y0073415D01*
X0258807Y0072417D02*
X0273193Y0072417D01*
X0273193Y0071418D02*
X0258807Y0071418D01*
X0258807Y0070420D02*
X0273193Y0070420D01*
X0273193Y0069421D02*
X0258807Y0069421D01*
X0259633Y0068423D02*
X0273193Y0068423D01*
X0273193Y0067424D02*
X0261132Y0067424D01*
X0261307Y0066426D02*
X0273193Y0066426D01*
X0273193Y0065427D02*
X0261307Y0065427D01*
X0261307Y0064429D02*
X0273193Y0064429D01*
X0273193Y0063430D02*
X0261307Y0063430D01*
X0261307Y0062432D02*
X0273193Y0062432D01*
X0273193Y0061433D02*
X0260989Y0061433D01*
X0260807Y0060434D02*
X0273193Y0060434D01*
X0273193Y0059436D02*
X0260807Y0059436D01*
X0260807Y0058437D02*
X0273193Y0058437D01*
X0273193Y0057439D02*
X0260807Y0057439D01*
X0260807Y0056440D02*
X0273193Y0056440D01*
X0273193Y0055442D02*
X0260807Y0055442D01*
X0260807Y0054443D02*
X0273193Y0054443D01*
X0273193Y0053445D02*
X0260807Y0053445D01*
X0260502Y0052446D02*
X0273193Y0052446D01*
X0273193Y0051448D02*
X0259503Y0051448D01*
X0259307Y0050449D02*
X0273495Y0050449D01*
X0279500Y0057000D02*
X0281000Y0057000D01*
X0284000Y0054000D01*
X0284000Y0044000D01*
X0285000Y0043000D01*
X0296500Y0043000D01*
X0297500Y0044500D01*
X0301103Y0048452D02*
X0335361Y0048452D01*
X0335361Y0047454D02*
X0302102Y0047454D01*
X0302807Y0046455D02*
X0335361Y0046455D01*
X0335361Y0045457D02*
X0302807Y0045457D01*
X0302807Y0044458D02*
X0335361Y0044458D01*
X0335361Y0043460D02*
X0302807Y0043460D01*
X0302807Y0042461D02*
X0335361Y0042461D01*
X0335361Y0041463D02*
X0302518Y0041463D01*
X0301520Y0040464D02*
X0335361Y0040464D01*
X0335361Y0039466D02*
X0300521Y0039466D01*
X0299523Y0038467D02*
X0335361Y0038467D01*
X0335361Y0037469D02*
X0298524Y0037469D01*
X0297526Y0036470D02*
X0335361Y0036470D01*
X0335314Y0035472D02*
X0283287Y0035472D01*
X0279713Y0035472D02*
X0260017Y0035472D01*
X0260198Y0034473D02*
X0335248Y0034473D01*
X0335125Y0033475D02*
X0259995Y0033475D01*
X0259291Y0032476D02*
X0334858Y0032476D01*
X0334590Y0031478D02*
X0255807Y0031478D01*
X0255807Y0030479D02*
X0334323Y0030479D01*
X0334055Y0029481D02*
X0255807Y0029481D01*
X0255807Y0028482D02*
X0333605Y0028482D01*
X0333028Y0027484D02*
X0255039Y0027484D01*
X0254041Y0026485D02*
X0332452Y0026485D01*
X0331875Y0025487D02*
X0253042Y0025487D01*
X0252044Y0024488D02*
X0331137Y0024488D01*
X0330138Y0023490D02*
X0027822Y0023490D01*
X0028821Y0022491D02*
X0329140Y0022491D01*
X0328141Y0021493D02*
X0029819Y0021493D01*
X0031511Y0020494D02*
X0326450Y0020494D01*
X0324721Y0019496D02*
X0033240Y0019496D01*
X0036005Y0018497D02*
X0321956Y0018497D01*
X0335361Y0049451D02*
X0300105Y0049451D01*
X0299106Y0050449D02*
X0335361Y0050449D01*
X0335361Y0051448D02*
X0298108Y0051448D01*
X0297109Y0052446D02*
X0335361Y0052446D01*
X0335361Y0053445D02*
X0296111Y0053445D01*
X0295112Y0054443D02*
X0335361Y0054443D01*
X0335361Y0055442D02*
X0294114Y0055442D01*
X0293115Y0056440D02*
X0335361Y0056440D01*
X0335361Y0057439D02*
X0292117Y0057439D01*
X0291118Y0058437D02*
X0335361Y0058437D01*
X0335361Y0059436D02*
X0290120Y0059436D01*
X0289121Y0060434D02*
X0335361Y0060434D01*
X0335361Y0061433D02*
X0288123Y0061433D01*
X0287124Y0062432D02*
X0335361Y0062432D01*
X0335361Y0063430D02*
X0286126Y0063430D01*
X0285127Y0064429D02*
X0335361Y0064429D01*
X0335361Y0065427D02*
X0284129Y0065427D01*
X0283130Y0066426D02*
X0335361Y0066426D01*
X0335361Y0067424D02*
X0282807Y0067424D01*
X0282807Y0068423D02*
X0335361Y0068423D01*
X0335361Y0069421D02*
X0282807Y0069421D01*
X0282807Y0070420D02*
X0335361Y0070420D01*
X0335361Y0071418D02*
X0282807Y0071418D01*
X0282807Y0072417D02*
X0335361Y0072417D01*
X0335361Y0073415D02*
X0282807Y0073415D01*
X0282807Y0074414D02*
X0335361Y0074414D01*
X0335361Y0075412D02*
X0282807Y0075412D01*
X0282807Y0076411D02*
X0335361Y0076411D01*
X0335361Y0077409D02*
X0282807Y0077409D01*
X0282807Y0078408D02*
X0335361Y0078408D01*
X0335361Y0079406D02*
X0282807Y0079406D01*
X0282807Y0080405D02*
X0335361Y0080405D01*
X0335361Y0081403D02*
X0282807Y0081403D01*
X0282807Y0082402D02*
X0335361Y0082402D01*
X0335361Y0083400D02*
X0282807Y0083400D01*
X0282807Y0084399D02*
X0335361Y0084399D01*
X0335361Y0085397D02*
X0282807Y0085397D01*
X0282807Y0086396D02*
X0335361Y0086396D01*
X0335361Y0087394D02*
X0282661Y0087394D01*
X0281663Y0088393D02*
X0335361Y0088393D01*
X0335361Y0089391D02*
X0266164Y0089391D01*
X0265307Y0090390D02*
X0335361Y0090390D01*
X0335361Y0091388D02*
X0265307Y0091388D01*
X0265307Y0092387D02*
X0335361Y0092387D01*
X0335361Y0093385D02*
X0265307Y0093385D01*
X0265307Y0094384D02*
X0335361Y0094384D01*
X0335361Y0095382D02*
X0265307Y0095382D01*
X0265307Y0096381D02*
X0335361Y0096381D01*
X0335361Y0097379D02*
X0265307Y0097379D01*
X0265307Y0098378D02*
X0335361Y0098378D01*
X0335361Y0099376D02*
X0265307Y0099376D01*
X0265307Y0100375D02*
X0335361Y0100375D01*
X0335361Y0101373D02*
X0265307Y0101373D01*
X0265307Y0102372D02*
X0335361Y0102372D01*
X0335361Y0103370D02*
X0265307Y0103370D01*
X0265307Y0104369D02*
X0335361Y0104369D01*
X0335361Y0105368D02*
X0316443Y0105368D01*
X0316898Y0105471D02*
X0316898Y0105471D01*
X0312103Y0104377D01*
X0312103Y0104377D01*
X0307198Y0104744D01*
X0307198Y0104744D01*
X0302620Y0106541D01*
X0302620Y0106541D01*
X0298775Y0109608D01*
X0298775Y0109608D01*
X0298775Y0109608D01*
X0296004Y0113672D01*
X0294554Y0118372D01*
X0294554Y0123290D01*
X0296004Y0127990D01*
X0298775Y0132054D01*
X0298775Y0132054D01*
X0302620Y0135120D01*
X0302620Y0135120D01*
X0307198Y0136917D01*
X0307198Y0136917D01*
X0312103Y0137285D01*
X0312103Y0137285D01*
X0316898Y0136190D01*
X0316898Y0136190D01*
X0321158Y0133731D01*
X0321158Y0133731D01*
X0324503Y0130125D01*
X0324503Y0130125D01*
X0326637Y0125694D01*
X0326637Y0125694D01*
X0327370Y0120831D01*
X0326637Y0115967D01*
X0324503Y0111536D01*
X0324503Y0111536D01*
X0321158Y0107930D01*
X0321158Y0107930D01*
X0316898Y0105471D01*
X0318448Y0106366D02*
X0335361Y0106366D01*
X0335361Y0107365D02*
X0320177Y0107365D01*
X0321559Y0108363D02*
X0335361Y0108363D01*
X0335361Y0109362D02*
X0322485Y0109362D01*
X0323412Y0110360D02*
X0335361Y0110360D01*
X0335361Y0111359D02*
X0324338Y0111359D01*
X0324898Y0112357D02*
X0335361Y0112357D01*
X0335361Y0113356D02*
X0325379Y0113356D01*
X0325860Y0114354D02*
X0335361Y0114354D01*
X0335361Y0115353D02*
X0326341Y0115353D01*
X0326637Y0115967D02*
X0326637Y0115967D01*
X0326695Y0116351D02*
X0335361Y0116351D01*
X0335361Y0117350D02*
X0326845Y0117350D01*
X0326996Y0118348D02*
X0335361Y0118348D01*
X0335361Y0119347D02*
X0327146Y0119347D01*
X0327297Y0120345D02*
X0335361Y0120345D01*
X0335361Y0121344D02*
X0327293Y0121344D01*
X0327142Y0122342D02*
X0335361Y0122342D01*
X0335361Y0123341D02*
X0326992Y0123341D01*
X0326841Y0124339D02*
X0335361Y0124339D01*
X0335361Y0125338D02*
X0326691Y0125338D01*
X0326328Y0126336D02*
X0335361Y0126336D01*
X0335361Y0127335D02*
X0325847Y0127335D01*
X0325366Y0128333D02*
X0335361Y0128333D01*
X0335361Y0129332D02*
X0324885Y0129332D01*
X0324313Y0130330D02*
X0335361Y0130330D01*
X0335361Y0131329D02*
X0323387Y0131329D01*
X0322460Y0132327D02*
X0335361Y0132327D01*
X0335361Y0133326D02*
X0321534Y0133326D01*
X0320130Y0134324D02*
X0335361Y0134324D01*
X0335361Y0135323D02*
X0318400Y0135323D01*
X0316323Y0136321D02*
X0335361Y0136321D01*
X0335361Y0137320D02*
X0265307Y0137320D01*
X0265307Y0138318D02*
X0335361Y0138318D01*
X0335361Y0139317D02*
X0265307Y0139317D01*
X0265307Y0140315D02*
X0335361Y0140315D01*
X0335361Y0141314D02*
X0265307Y0141314D01*
X0265307Y0142312D02*
X0335361Y0142312D01*
X0335361Y0143311D02*
X0265307Y0143311D01*
X0265307Y0144309D02*
X0335361Y0144309D01*
X0335361Y0145308D02*
X0265307Y0145308D01*
X0265307Y0146306D02*
X0335361Y0146306D01*
X0335361Y0147305D02*
X0265307Y0147305D01*
X0265307Y0148303D02*
X0335361Y0148303D01*
X0335361Y0149302D02*
X0265307Y0149302D01*
X0265307Y0150301D02*
X0335361Y0150301D01*
X0335361Y0151299D02*
X0265307Y0151299D01*
X0265307Y0152298D02*
X0335361Y0152298D01*
X0335361Y0153296D02*
X0265307Y0153296D01*
X0265307Y0154295D02*
X0335361Y0154295D01*
X0335361Y0155293D02*
X0265307Y0155293D01*
X0265307Y0156292D02*
X0335361Y0156292D01*
X0335361Y0157290D02*
X0265307Y0157290D01*
X0265307Y0158289D02*
X0335361Y0158289D01*
X0335361Y0159287D02*
X0265307Y0159287D01*
X0265307Y0160286D02*
X0335361Y0160286D01*
X0335361Y0161284D02*
X0265307Y0161284D01*
X0265307Y0162283D02*
X0335361Y0162283D01*
X0335361Y0163281D02*
X0265307Y0163281D01*
X0265307Y0164280D02*
X0335361Y0164280D01*
X0335361Y0165278D02*
X0265307Y0165278D01*
X0265307Y0166277D02*
X0335361Y0166277D01*
X0335361Y0167275D02*
X0265307Y0167275D01*
X0265307Y0168274D02*
X0335361Y0168274D01*
X0335361Y0169272D02*
X0265307Y0169272D01*
X0265307Y0170271D02*
X0335361Y0170271D01*
X0335361Y0171269D02*
X0265307Y0171269D01*
X0265307Y0172268D02*
X0335361Y0172268D01*
X0335361Y0173266D02*
X0265307Y0173266D01*
X0265307Y0174265D02*
X0335361Y0174265D01*
X0335361Y0175263D02*
X0265307Y0175263D01*
X0265307Y0176262D02*
X0335361Y0176262D01*
X0335361Y0177260D02*
X0265307Y0177260D01*
X0265307Y0178259D02*
X0335361Y0178259D01*
X0335361Y0179257D02*
X0265307Y0179257D01*
X0265307Y0180256D02*
X0335361Y0180256D01*
X0335361Y0181254D02*
X0265307Y0181254D01*
X0265307Y0182253D02*
X0335361Y0182253D01*
X0335361Y0183251D02*
X0265307Y0183251D01*
X0265307Y0184250D02*
X0335361Y0184250D01*
X0335361Y0185248D02*
X0265307Y0185248D01*
X0265307Y0186247D02*
X0335361Y0186247D01*
X0335361Y0187245D02*
X0265307Y0187245D01*
X0265800Y0188244D02*
X0335361Y0188244D01*
X0335361Y0189242D02*
X0266798Y0189242D01*
X0262500Y0195500D02*
X0260000Y0193000D01*
X0260000Y0084500D01*
X0262000Y0082500D01*
X0271500Y0082500D01*
X0269780Y0080405D02*
X0258807Y0080405D01*
X0258807Y0081403D02*
X0260541Y0081403D01*
X0259543Y0082402D02*
X0259172Y0082402D01*
X0257000Y0082500D02*
X0256500Y0083000D01*
X0256500Y0196000D01*
X0260000Y0199500D01*
X0304500Y0199500D01*
X0318500Y0213500D01*
X0318500Y0284500D01*
X0321500Y0286500D02*
X0297500Y0310500D01*
X0235500Y0310500D01*
X0238504Y0317052D02*
X0335361Y0317052D01*
X0335361Y0318050D02*
X0237505Y0318050D01*
X0236507Y0319049D02*
X0335361Y0319049D01*
X0335361Y0320047D02*
X0235508Y0320047D01*
X0234510Y0321046D02*
X0335361Y0321046D01*
X0335361Y0322044D02*
X0233511Y0322044D01*
X0232513Y0323043D02*
X0335361Y0323043D01*
X0335361Y0324041D02*
X0231514Y0324041D01*
X0230516Y0325040D02*
X0335361Y0325040D01*
X0335361Y0326039D02*
X0229517Y0326039D01*
X0228519Y0327037D02*
X0335361Y0327037D01*
X0335361Y0328036D02*
X0227520Y0328036D01*
X0226522Y0329034D02*
X0335361Y0329034D01*
X0335361Y0330033D02*
X0225523Y0330033D01*
X0224525Y0331031D02*
X0335361Y0331031D01*
X0335361Y0332030D02*
X0223526Y0332030D01*
X0222527Y0333028D02*
X0335361Y0333028D01*
X0335361Y0334027D02*
X0222494Y0334027D01*
X0222081Y0335025D02*
X0335361Y0335025D01*
X0335361Y0336024D02*
X0221557Y0336024D01*
X0220559Y0337022D02*
X0335361Y0337022D01*
X0335361Y0338021D02*
X0218563Y0338021D01*
X0220600Y0339019D02*
X0335361Y0339019D01*
X0335361Y0340018D02*
X0221599Y0340018D01*
X0222098Y0341016D02*
X0335361Y0341016D01*
X0335361Y0342015D02*
X0222507Y0342015D01*
X0222507Y0343013D02*
X0335361Y0343013D01*
X0335361Y0344012D02*
X0222501Y0344012D01*
X0222087Y0345010D02*
X0335361Y0345010D01*
X0335361Y0346009D02*
X0221572Y0346009D01*
X0220574Y0347007D02*
X0335361Y0347007D01*
X0335361Y0348006D02*
X0218527Y0348006D01*
X0220585Y0349004D02*
X0335361Y0349004D01*
X0335361Y0350003D02*
X0221584Y0350003D01*
X0222092Y0351001D02*
X0335361Y0351001D01*
X0335361Y0352000D02*
X0222505Y0352000D01*
X0222507Y0352998D02*
X0335361Y0352998D01*
X0335361Y0353997D02*
X0222507Y0353997D01*
X0222093Y0354995D02*
X0335361Y0354995D01*
X0335361Y0355994D02*
X0221587Y0355994D01*
X0220589Y0356992D02*
X0335361Y0356992D01*
X0335361Y0357991D02*
X0218535Y0357991D01*
X0218671Y0358123D02*
X0219419Y0358366D01*
X0220121Y0358724D01*
X0220757Y0359186D01*
X0221314Y0359743D01*
X0221776Y0360379D01*
X0222134Y0361081D01*
X0222377Y0361829D01*
X0222483Y0362500D01*
X0218000Y0362500D01*
X0218000Y0363500D01*
X0222483Y0363500D01*
X0222377Y0364171D01*
X0222134Y0364919D01*
X0221776Y0365621D01*
X0221314Y0366257D01*
X0220757Y0366814D01*
X0220121Y0367276D01*
X0219419Y0367634D01*
X0218671Y0367877D01*
X0218000Y0367983D01*
X0218000Y0363500D01*
X0217000Y0363500D01*
X0217000Y0367983D01*
X0216329Y0367877D01*
X0215581Y0367634D01*
X0214879Y0367276D01*
X0214243Y0366814D01*
X0213686Y0366257D01*
X0213224Y0365621D01*
X0212866Y0364919D01*
X0212623Y0364171D01*
X0212517Y0363500D01*
X0217000Y0363500D01*
X0217000Y0362500D01*
X0218000Y0362500D01*
X0218000Y0358017D01*
X0218671Y0358123D01*
X0218000Y0358989D02*
X0217000Y0358989D01*
X0217000Y0358017D02*
X0217000Y0362500D01*
X0212517Y0362500D01*
X0212623Y0361829D01*
X0212866Y0361081D01*
X0213224Y0360379D01*
X0213686Y0359743D01*
X0214243Y0359186D01*
X0214879Y0358724D01*
X0215581Y0358366D01*
X0216329Y0358123D01*
X0217000Y0358017D01*
X0216465Y0357991D02*
X0208535Y0357991D01*
X0208671Y0358123D02*
X0209419Y0358366D01*
X0210121Y0358724D01*
X0210757Y0359186D01*
X0211314Y0359743D01*
X0211776Y0360379D01*
X0212134Y0361081D01*
X0212377Y0361829D01*
X0212483Y0362500D01*
X0208000Y0362500D01*
X0208000Y0363500D01*
X0212483Y0363500D01*
X0212377Y0364171D01*
X0212134Y0364919D01*
X0211776Y0365621D01*
X0211314Y0366257D01*
X0210757Y0366814D01*
X0210121Y0367276D01*
X0209419Y0367634D01*
X0208671Y0367877D01*
X0208000Y0367983D01*
X0208000Y0363500D01*
X0207000Y0363500D01*
X0207000Y0367983D01*
X0206329Y0367877D01*
X0205581Y0367634D01*
X0204879Y0367276D01*
X0204243Y0366814D01*
X0203686Y0366257D01*
X0203224Y0365621D01*
X0202866Y0364919D01*
X0202623Y0364171D01*
X0202517Y0363500D01*
X0207000Y0363500D01*
X0207000Y0362500D01*
X0208000Y0362500D01*
X0208000Y0358017D01*
X0208671Y0358123D01*
X0208000Y0358989D02*
X0207000Y0358989D01*
X0207000Y0358017D02*
X0207000Y0362500D01*
X0202517Y0362500D01*
X0202623Y0361829D01*
X0202866Y0361081D01*
X0203224Y0360379D01*
X0203686Y0359743D01*
X0204243Y0359186D01*
X0204879Y0358724D01*
X0205581Y0358366D01*
X0206329Y0358123D01*
X0207000Y0358017D01*
X0206465Y0357991D02*
X0198535Y0357991D01*
X0198671Y0358123D02*
X0199419Y0358366D01*
X0200121Y0358724D01*
X0200757Y0359186D01*
X0201314Y0359743D01*
X0201776Y0360379D01*
X0202134Y0361081D01*
X0202377Y0361829D01*
X0202483Y0362500D01*
X0198000Y0362500D01*
X0198000Y0363500D01*
X0202483Y0363500D01*
X0202377Y0364171D01*
X0202134Y0364919D01*
X0201776Y0365621D01*
X0201314Y0366257D01*
X0200757Y0366814D01*
X0200121Y0367276D01*
X0199419Y0367634D01*
X0198671Y0367877D01*
X0198000Y0367983D01*
X0198000Y0363500D01*
X0197000Y0363500D01*
X0197000Y0367983D01*
X0196329Y0367877D01*
X0195581Y0367634D01*
X0194879Y0367276D01*
X0194243Y0366814D01*
X0193686Y0366257D01*
X0193224Y0365621D01*
X0192866Y0364919D01*
X0192623Y0364171D01*
X0192517Y0363500D01*
X0197000Y0363500D01*
X0197000Y0362500D01*
X0198000Y0362500D01*
X0198000Y0358017D01*
X0198671Y0358123D01*
X0198000Y0358989D02*
X0197000Y0358989D01*
X0197000Y0358017D02*
X0197000Y0362500D01*
X0192517Y0362500D01*
X0192623Y0361829D01*
X0192866Y0361081D01*
X0193224Y0360379D01*
X0193686Y0359743D01*
X0194243Y0359186D01*
X0194879Y0358724D01*
X0195581Y0358366D01*
X0196329Y0358123D01*
X0197000Y0358017D01*
X0196465Y0357991D02*
X0148535Y0357991D01*
X0150570Y0358989D02*
X0194514Y0358989D01*
X0193508Y0359988D02*
X0151569Y0359988D01*
X0152086Y0360986D02*
X0192914Y0360986D01*
X0192598Y0361985D02*
X0152499Y0361985D01*
X0152507Y0362983D02*
X0197000Y0362983D01*
X0197000Y0361985D02*
X0198000Y0361985D01*
X0198000Y0362983D02*
X0207000Y0362983D01*
X0207000Y0361985D02*
X0208000Y0361985D01*
X0208000Y0362983D02*
X0217000Y0362983D01*
X0217000Y0361985D02*
X0218000Y0361985D01*
X0218000Y0362983D02*
X0233037Y0362983D01*
X0234035Y0361985D02*
X0222402Y0361985D01*
X0222086Y0360986D02*
X0235034Y0360986D01*
X0235627Y0360393D02*
X0271373Y0360393D01*
X0272607Y0361627D01*
X0278131Y0367151D01*
X0278476Y0367008D01*
X0280524Y0367008D01*
X0282415Y0367791D01*
X0283862Y0369239D01*
X0284646Y0371130D01*
X0284646Y0373177D01*
X0283862Y0375068D01*
X0282415Y0376516D01*
X0280524Y0377299D01*
X0278476Y0377299D01*
X0276585Y0376516D01*
X0275138Y0375068D01*
X0274354Y0373177D01*
X0274354Y0371130D01*
X0274880Y0369860D01*
X0269627Y0364607D01*
X0237373Y0364607D01*
X0228607Y0373373D01*
X0227373Y0374607D01*
X0222254Y0374607D01*
X0221745Y0375836D01*
X0220336Y0377245D01*
X0218513Y0378000D01*
X0220336Y0378755D01*
X0221745Y0380164D01*
X0222507Y0382004D01*
X0222507Y0383996D01*
X0221745Y0385836D01*
X0220336Y0387245D01*
X0218513Y0388000D01*
X0220336Y0388755D01*
X0221745Y0390164D01*
X0222507Y0392004D01*
X0222507Y0393996D01*
X0221745Y0395836D01*
X0220336Y0397245D01*
X0218496Y0398007D01*
X0216504Y0398007D01*
X0214664Y0397245D01*
X0213255Y0395836D01*
X0212500Y0394013D01*
X0211745Y0395836D01*
X0210336Y0397245D01*
X0208496Y0398007D01*
X0206504Y0398007D01*
X0204664Y0397245D01*
X0203326Y0395907D01*
X0201674Y0395907D01*
X0200336Y0397245D01*
X0198496Y0398007D01*
X0196504Y0398007D01*
X0194664Y0397245D01*
X0193326Y0395907D01*
X0176204Y0395907D01*
X0167964Y0404147D01*
X0167147Y0404964D01*
X0166078Y0405407D01*
X0094922Y0405407D01*
X0093853Y0404964D01*
X0070146Y0381257D01*
X0069849Y0380960D01*
X0069328Y0380440D01*
X0069328Y0380440D01*
X0069188Y0380299D01*
X0069188Y0380299D01*
X0068593Y0378863D01*
X0068593Y0280407D01*
X0047977Y0280407D01*
X0047657Y0280727D01*
X0046257Y0281307D01*
X0044743Y0281307D01*
X0043343Y0280727D01*
X0042273Y0279657D01*
X0041693Y0278257D01*
X0041693Y0276743D01*
X0042273Y0275343D01*
X0043343Y0274273D01*
X0044743Y0273693D01*
X0046257Y0273693D01*
X0047657Y0274273D01*
X0047977Y0274593D01*
X0068593Y0274593D01*
X0068593Y0273922D01*
X0069035Y0272853D01*
X0069853Y0272035D01*
X0071093Y0270796D01*
X0071093Y0202923D01*
X0070664Y0202745D01*
X0069255Y0201336D01*
X0068493Y0199496D01*
X0068493Y0197504D01*
X0069255Y0195664D01*
X0070664Y0194255D01*
X0072504Y0193493D01*
X0074496Y0193493D01*
X0076336Y0194255D01*
X0077745Y0195664D01*
X0078507Y0197504D01*
X0078507Y0199496D01*
X0077745Y0201336D01*
X0076907Y0202174D01*
X0076907Y0249093D01*
X0078919Y0249093D01*
X0079055Y0248764D01*
X0080464Y0247355D01*
X0082304Y0246593D01*
X0084296Y0246593D01*
X0086136Y0247355D01*
X0087545Y0248764D01*
X0088307Y0250604D01*
X0088307Y0252596D01*
X0087545Y0254436D01*
X0086136Y0255845D01*
X0084296Y0256607D01*
X0082304Y0256607D01*
X0080464Y0255845D01*
X0079055Y0254436D01*
X0078919Y0254107D01*
X0076907Y0254107D01*
X0076907Y0272363D01*
X0076312Y0273799D01*
X0075763Y0274348D01*
X0075354Y0274757D01*
X0075354Y0274757D01*
X0074407Y0275704D01*
X0074407Y0365593D01*
X0099326Y0365593D01*
X0100664Y0364255D01*
X0102487Y0363500D01*
X0100664Y0362745D01*
X0099255Y0361336D01*
X0098493Y0359496D01*
X0098493Y0357504D01*
X0099255Y0355664D01*
X0100664Y0354255D01*
X0102504Y0353493D01*
X0104496Y0353493D01*
X0106336Y0354255D01*
X0107745Y0355664D01*
X0108507Y0357504D01*
X0108507Y0359496D01*
X0107745Y0361336D01*
X0106336Y0362745D01*
X0104513Y0363500D01*
X0106336Y0364255D01*
X0107745Y0365664D01*
X0108507Y0367504D01*
X0108507Y0369496D01*
X0107745Y0371336D01*
X0106336Y0372745D01*
X0104513Y0373500D01*
X0106336Y0374255D01*
X0107745Y0375664D01*
X0108507Y0377504D01*
X0108507Y0379496D01*
X0107745Y0381336D01*
X0106336Y0382745D01*
X0104513Y0383500D01*
X0106336Y0384255D01*
X0107745Y0385664D01*
X0108507Y0387504D01*
X0108507Y0389496D01*
X0107745Y0391336D01*
X0106336Y0392745D01*
X0104496Y0393507D01*
X0102504Y0393507D01*
X0100664Y0392745D01*
X0099255Y0391336D01*
X0098493Y0389496D01*
X0098493Y0387504D01*
X0099255Y0385664D01*
X0100664Y0384255D01*
X0102487Y0383500D01*
X0100664Y0382745D01*
X0099255Y0381336D01*
X0098493Y0379496D01*
X0098493Y0377504D01*
X0099255Y0375664D01*
X0100664Y0374255D01*
X0102487Y0373500D01*
X0100664Y0372745D01*
X0099326Y0371407D01*
X0074407Y0371407D01*
X0074407Y0377296D01*
X0096704Y0399593D01*
X0164296Y0399593D01*
X0173353Y0390535D01*
X0174422Y0390093D01*
X0193326Y0390093D01*
X0194664Y0388755D01*
X0196487Y0388000D01*
X0194664Y0387245D01*
X0193255Y0385836D01*
X0192493Y0383996D01*
X0192493Y0382004D01*
X0193255Y0380164D01*
X0194664Y0378755D01*
X0196487Y0378000D01*
X0194664Y0377245D01*
X0193255Y0375836D01*
X0192493Y0373996D01*
X0192493Y0372004D01*
X0193255Y0370164D01*
X0194664Y0368755D01*
X0196504Y0367993D01*
X0198496Y0367993D01*
X0200336Y0368755D01*
X0201745Y0370164D01*
X0202500Y0371987D01*
X0203255Y0370164D01*
X0204664Y0368755D01*
X0206504Y0367993D01*
X0208496Y0367993D01*
X0210336Y0368755D01*
X0211745Y0370164D01*
X0211840Y0370393D01*
X0213160Y0370393D01*
X0213255Y0370164D01*
X0214664Y0368755D01*
X0216504Y0367993D01*
X0218496Y0367993D01*
X0220336Y0368755D01*
X0221745Y0370164D01*
X0221840Y0370393D01*
X0225627Y0370393D01*
X0235627Y0360393D01*
X0236999Y0364980D02*
X0270001Y0364980D01*
X0270999Y0365979D02*
X0236001Y0365979D01*
X0235002Y0366977D02*
X0271998Y0366977D01*
X0272996Y0367976D02*
X0259557Y0367976D01*
X0259074Y0367493D02*
X0262007Y0370426D01*
X0262007Y0374574D01*
X0259081Y0377500D01*
X0262007Y0380426D01*
X0262007Y0384574D01*
X0259081Y0387500D01*
X0262007Y0390426D01*
X0262007Y0394574D01*
X0259074Y0397507D01*
X0254926Y0397507D01*
X0252000Y0394581D01*
X0249074Y0397507D01*
X0244926Y0397507D01*
X0241993Y0394574D01*
X0241993Y0390426D01*
X0244919Y0387500D01*
X0241993Y0384574D01*
X0241993Y0380426D01*
X0244924Y0377495D01*
X0242000Y0374571D01*
X0242000Y0373000D01*
X0246500Y0373000D01*
X0246500Y0372000D01*
X0242000Y0372000D01*
X0242000Y0370429D01*
X0244929Y0367500D01*
X0246500Y0367500D01*
X0246500Y0372000D01*
X0247500Y0372000D01*
X0247500Y0367500D01*
X0249071Y0367500D01*
X0251995Y0370424D01*
X0254926Y0367493D01*
X0259074Y0367493D01*
X0260556Y0368974D02*
X0273995Y0368974D01*
X0274834Y0369973D02*
X0261554Y0369973D01*
X0262007Y0370972D02*
X0274420Y0370972D01*
X0274354Y0371970D02*
X0262007Y0371970D01*
X0262007Y0372969D02*
X0274354Y0372969D01*
X0274682Y0373967D02*
X0262007Y0373967D01*
X0261616Y0374966D02*
X0275095Y0374966D01*
X0276033Y0375964D02*
X0260617Y0375964D01*
X0259618Y0376963D02*
X0277664Y0376963D01*
X0281336Y0376963D02*
X0296337Y0376963D01*
X0296004Y0377451D02*
X0298775Y0373387D01*
X0302620Y0370321D01*
X0302620Y0370321D01*
X0307198Y0368524D01*
X0307198Y0368524D01*
X0312103Y0368156D01*
X0316898Y0369251D01*
X0316898Y0369251D01*
X0321158Y0371710D01*
X0324503Y0375315D01*
X0324503Y0375315D01*
X0326637Y0379747D01*
X0327370Y0384610D01*
X0326637Y0389474D01*
X0324503Y0393905D01*
X0321158Y0397510D01*
X0321158Y0397510D01*
X0316898Y0399970D01*
X0312103Y0401064D01*
X0307198Y0400697D01*
X0302620Y0398900D01*
X0298775Y0395833D01*
X0296004Y0391769D01*
X0294554Y0387069D01*
X0294554Y0382151D01*
X0296004Y0377451D01*
X0296004Y0377451D01*
X0295847Y0377961D02*
X0259542Y0377961D01*
X0260541Y0378960D02*
X0295539Y0378960D01*
X0295231Y0379958D02*
X0261539Y0379958D01*
X0262007Y0380957D02*
X0294923Y0380957D01*
X0294615Y0381955D02*
X0262007Y0381955D01*
X0262007Y0382954D02*
X0294554Y0382954D01*
X0294554Y0383952D02*
X0262007Y0383952D01*
X0261630Y0384951D02*
X0294554Y0384951D01*
X0294554Y0385949D02*
X0260632Y0385949D01*
X0259633Y0386948D02*
X0294554Y0386948D01*
X0294825Y0387946D02*
X0259527Y0387946D01*
X0260526Y0388945D02*
X0295133Y0388945D01*
X0295441Y0389943D02*
X0261524Y0389943D01*
X0262007Y0390942D02*
X0295749Y0390942D01*
X0296004Y0391769D02*
X0296004Y0391769D01*
X0296121Y0391940D02*
X0262007Y0391940D01*
X0262007Y0392939D02*
X0296801Y0392939D01*
X0297482Y0393937D02*
X0262007Y0393937D01*
X0261645Y0394936D02*
X0298163Y0394936D01*
X0298775Y0395833D02*
X0298775Y0395833D01*
X0298775Y0395833D01*
X0298902Y0395934D02*
X0260647Y0395934D01*
X0259648Y0396933D02*
X0300154Y0396933D01*
X0301406Y0397931D02*
X0218679Y0397931D01*
X0220648Y0396933D02*
X0244352Y0396933D01*
X0243353Y0395934D02*
X0221647Y0395934D01*
X0222118Y0394936D02*
X0242355Y0394936D01*
X0241993Y0393937D02*
X0222507Y0393937D01*
X0222507Y0392939D02*
X0241993Y0392939D01*
X0241993Y0391940D02*
X0222481Y0391940D01*
X0222067Y0390942D02*
X0241993Y0390942D01*
X0242476Y0389943D02*
X0221524Y0389943D01*
X0220526Y0388945D02*
X0243474Y0388945D01*
X0244473Y0387946D02*
X0218643Y0387946D01*
X0220633Y0386948D02*
X0244367Y0386948D01*
X0243368Y0385949D02*
X0221632Y0385949D01*
X0222112Y0384951D02*
X0242370Y0384951D01*
X0241993Y0383952D02*
X0222507Y0383952D01*
X0222507Y0382954D02*
X0241993Y0382954D01*
X0241993Y0381955D02*
X0222487Y0381955D01*
X0222073Y0380957D02*
X0241993Y0380957D01*
X0242461Y0379958D02*
X0221539Y0379958D01*
X0220541Y0378960D02*
X0243459Y0378960D01*
X0244458Y0377961D02*
X0218607Y0377961D01*
X0220618Y0376963D02*
X0244392Y0376963D01*
X0243393Y0375964D02*
X0221617Y0375964D01*
X0222105Y0374966D02*
X0242395Y0374966D01*
X0242000Y0373967D02*
X0228013Y0373967D01*
X0229011Y0372969D02*
X0246500Y0372969D01*
X0246500Y0371970D02*
X0247500Y0371970D01*
X0247500Y0370972D02*
X0246500Y0370972D01*
X0246500Y0369973D02*
X0247500Y0369973D01*
X0247500Y0368974D02*
X0246500Y0368974D01*
X0246500Y0367976D02*
X0247500Y0367976D01*
X0249547Y0367976D02*
X0254443Y0367976D01*
X0253444Y0368974D02*
X0250546Y0368974D01*
X0251544Y0369973D02*
X0252446Y0369973D01*
X0244453Y0367976D02*
X0234004Y0367976D01*
X0233005Y0368974D02*
X0243454Y0368974D01*
X0242456Y0369973D02*
X0232007Y0369973D01*
X0231008Y0370972D02*
X0242000Y0370972D01*
X0242000Y0371970D02*
X0230010Y0371970D01*
X0227046Y0368974D02*
X0220556Y0368974D01*
X0221554Y0369973D02*
X0226047Y0369973D01*
X0228044Y0367976D02*
X0218045Y0367976D01*
X0218000Y0367976D02*
X0217000Y0367976D01*
X0216955Y0367976D02*
X0208045Y0367976D01*
X0208000Y0367976D02*
X0207000Y0367976D01*
X0206955Y0367976D02*
X0198045Y0367976D01*
X0198000Y0367976D02*
X0197000Y0367976D01*
X0196955Y0367976D02*
X0148571Y0367976D01*
X0150556Y0368974D02*
X0194444Y0368974D01*
X0193446Y0369973D02*
X0151554Y0369973D01*
X0152079Y0370972D02*
X0192921Y0370972D01*
X0192507Y0371970D02*
X0152493Y0371970D01*
X0152507Y0372969D02*
X0192493Y0372969D01*
X0192493Y0373967D02*
X0152507Y0373967D01*
X0152105Y0374966D02*
X0192895Y0374966D01*
X0193383Y0375964D02*
X0151617Y0375964D01*
X0150618Y0376963D02*
X0194381Y0376963D01*
X0194459Y0378960D02*
X0150445Y0378960D01*
X0150757Y0379186D02*
X0151314Y0379743D01*
X0151776Y0380379D01*
X0152134Y0381081D01*
X0152377Y0381829D01*
X0152483Y0382500D01*
X0148000Y0382500D01*
X0148000Y0383500D01*
X0152483Y0383500D01*
X0152377Y0384171D01*
X0152134Y0384919D01*
X0151776Y0385621D01*
X0151314Y0386257D01*
X0150757Y0386814D01*
X0150121Y0387276D01*
X0149419Y0387634D01*
X0148671Y0387877D01*
X0148000Y0387983D01*
X0148000Y0383500D01*
X0147000Y0383500D01*
X0147000Y0387983D01*
X0146329Y0387877D01*
X0145581Y0387634D01*
X0144879Y0387276D01*
X0144243Y0386814D01*
X0143686Y0386257D01*
X0143224Y0385621D01*
X0142866Y0384919D01*
X0142623Y0384171D01*
X0142517Y0383500D01*
X0147000Y0383500D01*
X0147000Y0382500D01*
X0148000Y0382500D01*
X0148000Y0378017D01*
X0148671Y0378123D01*
X0149419Y0378366D01*
X0150121Y0378724D01*
X0150757Y0379186D01*
X0151470Y0379958D02*
X0193461Y0379958D01*
X0192927Y0380957D02*
X0152070Y0380957D01*
X0152397Y0381955D02*
X0192513Y0381955D01*
X0192493Y0382954D02*
X0148000Y0382954D01*
X0148000Y0383952D02*
X0147000Y0383952D01*
X0147000Y0382954D02*
X0138000Y0382954D01*
X0138000Y0382500D02*
X0138000Y0383500D01*
X0142483Y0383500D01*
X0142377Y0384171D01*
X0142134Y0384919D01*
X0141776Y0385621D01*
X0141314Y0386257D01*
X0140757Y0386814D01*
X0140121Y0387276D01*
X0139419Y0387634D01*
X0138671Y0387877D01*
X0138000Y0387983D01*
X0138000Y0383500D01*
X0137000Y0383500D01*
X0137000Y0387983D01*
X0136329Y0387877D01*
X0135581Y0387634D01*
X0134879Y0387276D01*
X0134243Y0386814D01*
X0133686Y0386257D01*
X0133224Y0385621D01*
X0132866Y0384919D01*
X0132623Y0384171D01*
X0132517Y0383500D01*
X0137000Y0383500D01*
X0137000Y0382500D01*
X0138000Y0382500D01*
X0142483Y0382500D01*
X0142377Y0381829D01*
X0142134Y0381081D01*
X0141776Y0380379D01*
X0141314Y0379743D01*
X0140757Y0379186D01*
X0140121Y0378724D01*
X0139419Y0378366D01*
X0138671Y0378123D01*
X0138000Y0378017D01*
X0138000Y0382500D01*
X0138000Y0381955D02*
X0137000Y0381955D01*
X0137000Y0382500D02*
X0137000Y0378017D01*
X0136329Y0378123D01*
X0135581Y0378366D01*
X0134879Y0378724D01*
X0134243Y0379186D01*
X0133686Y0379743D01*
X0133224Y0380379D01*
X0132866Y0381081D01*
X0132623Y0381829D01*
X0132517Y0382500D01*
X0137000Y0382500D01*
X0137000Y0382954D02*
X0128000Y0382954D01*
X0128000Y0382500D02*
X0128000Y0383500D01*
X0132483Y0383500D01*
X0132377Y0384171D01*
X0132134Y0384919D01*
X0131776Y0385621D01*
X0131314Y0386257D01*
X0130757Y0386814D01*
X0130121Y0387276D01*
X0129419Y0387634D01*
X0128671Y0387877D01*
X0128000Y0387983D01*
X0128000Y0383500D01*
X0127000Y0383500D01*
X0127000Y0387983D01*
X0126329Y0387877D01*
X0125581Y0387634D01*
X0124879Y0387276D01*
X0124243Y0386814D01*
X0123686Y0386257D01*
X0123224Y0385621D01*
X0122866Y0384919D01*
X0122623Y0384171D01*
X0122517Y0383500D01*
X0127000Y0383500D01*
X0127000Y0382500D01*
X0128000Y0382500D01*
X0132483Y0382500D01*
X0132377Y0381829D01*
X0132134Y0381081D01*
X0131776Y0380379D01*
X0131314Y0379743D01*
X0130757Y0379186D01*
X0130121Y0378724D01*
X0129419Y0378366D01*
X0128671Y0378123D01*
X0128000Y0378017D01*
X0128000Y0382500D01*
X0128000Y0381955D02*
X0127000Y0381955D01*
X0127000Y0382500D02*
X0127000Y0378017D01*
X0126329Y0378123D01*
X0125581Y0378366D01*
X0124879Y0378724D01*
X0124243Y0379186D01*
X0123686Y0379743D01*
X0123224Y0380379D01*
X0122866Y0381081D01*
X0122623Y0381829D01*
X0122517Y0382500D01*
X0127000Y0382500D01*
X0127000Y0382954D02*
X0105832Y0382954D01*
X0105605Y0383952D02*
X0122588Y0383952D01*
X0122882Y0384951D02*
X0107032Y0384951D01*
X0107863Y0385949D02*
X0123462Y0385949D01*
X0124427Y0386948D02*
X0108277Y0386948D01*
X0108507Y0387946D02*
X0126767Y0387946D01*
X0127000Y0387946D02*
X0128000Y0387946D01*
X0128233Y0387946D02*
X0136767Y0387946D01*
X0137000Y0387946D02*
X0138000Y0387946D01*
X0138233Y0387946D02*
X0146767Y0387946D01*
X0147000Y0387946D02*
X0148000Y0387946D01*
X0148233Y0387946D02*
X0196357Y0387946D01*
X0194474Y0388945D02*
X0150526Y0388945D01*
X0150336Y0388755D02*
X0151745Y0390164D01*
X0152507Y0392004D01*
X0152507Y0393996D01*
X0151745Y0395836D01*
X0150336Y0397245D01*
X0148496Y0398007D01*
X0146504Y0398007D01*
X0144664Y0397245D01*
X0143255Y0395836D01*
X0142500Y0394013D01*
X0141745Y0395836D01*
X0140336Y0397245D01*
X0138496Y0398007D01*
X0136504Y0398007D01*
X0134664Y0397245D01*
X0133255Y0395836D01*
X0132500Y0394013D01*
X0131745Y0395836D01*
X0130336Y0397245D01*
X0128496Y0398007D01*
X0126504Y0398007D01*
X0124664Y0397245D01*
X0123255Y0395836D01*
X0122493Y0393996D01*
X0122493Y0392004D01*
X0123255Y0390164D01*
X0124664Y0388755D01*
X0126504Y0387993D01*
X0128496Y0387993D01*
X0130336Y0388755D01*
X0131745Y0390164D01*
X0132500Y0391987D01*
X0133255Y0390164D01*
X0134664Y0388755D01*
X0136504Y0387993D01*
X0138496Y0387993D01*
X0140336Y0388755D01*
X0141745Y0390164D01*
X0142500Y0391987D01*
X0143255Y0390164D01*
X0144664Y0388755D01*
X0146504Y0387993D01*
X0148496Y0387993D01*
X0150336Y0388755D01*
X0151524Y0389943D02*
X0193476Y0389943D01*
X0194367Y0386948D02*
X0150573Y0386948D01*
X0151538Y0385949D02*
X0193368Y0385949D01*
X0192888Y0384951D02*
X0152118Y0384951D01*
X0152412Y0383952D02*
X0192493Y0383952D01*
X0196393Y0377961D02*
X0148607Y0377961D01*
X0148000Y0378960D02*
X0147000Y0378960D01*
X0147000Y0378017D02*
X0147000Y0382500D01*
X0142517Y0382500D01*
X0142623Y0381829D01*
X0142866Y0381081D01*
X0143224Y0380379D01*
X0143686Y0379743D01*
X0144243Y0379186D01*
X0144879Y0378724D01*
X0145581Y0378366D01*
X0146329Y0378123D01*
X0147000Y0378017D01*
X0146393Y0377961D02*
X0138607Y0377961D01*
X0138000Y0378960D02*
X0137000Y0378960D01*
X0137000Y0379958D02*
X0138000Y0379958D01*
X0138000Y0380957D02*
X0137000Y0380957D01*
X0137000Y0383952D02*
X0138000Y0383952D01*
X0138000Y0384951D02*
X0137000Y0384951D01*
X0137000Y0385949D02*
X0138000Y0385949D01*
X0138000Y0386948D02*
X0137000Y0386948D01*
X0134427Y0386948D02*
X0130573Y0386948D01*
X0131538Y0385949D02*
X0133462Y0385949D01*
X0132882Y0384951D02*
X0132118Y0384951D01*
X0132412Y0383952D02*
X0132588Y0383952D01*
X0132603Y0381955D02*
X0132397Y0381955D01*
X0132070Y0380957D02*
X0132930Y0380957D01*
X0133530Y0379958D02*
X0131470Y0379958D01*
X0130445Y0378960D02*
X0134555Y0378960D01*
X0134381Y0376963D02*
X0130618Y0376963D01*
X0131617Y0375964D02*
X0133383Y0375964D01*
X0132895Y0374966D02*
X0132105Y0374966D01*
X0128607Y0377961D02*
X0136393Y0377961D01*
X0140445Y0378960D02*
X0144555Y0378960D01*
X0143530Y0379958D02*
X0141470Y0379958D01*
X0142070Y0380957D02*
X0142930Y0380957D01*
X0142603Y0381955D02*
X0142397Y0381955D01*
X0142412Y0383952D02*
X0142588Y0383952D01*
X0142882Y0384951D02*
X0142118Y0384951D01*
X0141538Y0385949D02*
X0143462Y0385949D01*
X0144427Y0386948D02*
X0140573Y0386948D01*
X0140526Y0388945D02*
X0144474Y0388945D01*
X0143476Y0389943D02*
X0141524Y0389943D01*
X0142067Y0390942D02*
X0142933Y0390942D01*
X0142519Y0391940D02*
X0142481Y0391940D01*
X0142118Y0394936D02*
X0142882Y0394936D01*
X0143353Y0395934D02*
X0141647Y0395934D01*
X0140648Y0396933D02*
X0144352Y0396933D01*
X0146321Y0397931D02*
X0138679Y0397931D01*
X0136321Y0397931D02*
X0128679Y0397931D01*
X0130648Y0396933D02*
X0134352Y0396933D01*
X0133353Y0395934D02*
X0131647Y0395934D01*
X0132118Y0394936D02*
X0132882Y0394936D01*
X0132519Y0391940D02*
X0132481Y0391940D01*
X0132067Y0390942D02*
X0132933Y0390942D01*
X0133476Y0389943D02*
X0131524Y0389943D01*
X0130526Y0388945D02*
X0134474Y0388945D01*
X0128000Y0386948D02*
X0127000Y0386948D01*
X0127000Y0385949D02*
X0128000Y0385949D01*
X0128000Y0384951D02*
X0127000Y0384951D01*
X0127000Y0383952D02*
X0128000Y0383952D01*
X0128000Y0380957D02*
X0127000Y0380957D01*
X0127000Y0379958D02*
X0128000Y0379958D01*
X0128000Y0378960D02*
X0127000Y0378960D01*
X0126393Y0377961D02*
X0108507Y0377961D01*
X0108507Y0378960D02*
X0124555Y0378960D01*
X0123530Y0379958D02*
X0108316Y0379958D01*
X0107902Y0380957D02*
X0122930Y0380957D01*
X0122603Y0381955D02*
X0107126Y0381955D01*
X0108283Y0376963D02*
X0124381Y0376963D01*
X0123383Y0375964D02*
X0107869Y0375964D01*
X0107047Y0374966D02*
X0122895Y0374966D01*
X0122493Y0373967D02*
X0105641Y0373967D01*
X0105796Y0372969D02*
X0122493Y0372969D01*
X0122507Y0371970D02*
X0107111Y0371970D01*
X0107896Y0370972D02*
X0122921Y0370972D01*
X0123446Y0369973D02*
X0108309Y0369973D01*
X0108507Y0368974D02*
X0124444Y0368974D01*
X0124396Y0366977D02*
X0108289Y0366977D01*
X0108507Y0367976D02*
X0126429Y0367976D01*
X0123398Y0365979D02*
X0107875Y0365979D01*
X0107062Y0364980D02*
X0122901Y0364980D01*
X0122493Y0363982D02*
X0105677Y0363982D01*
X0105760Y0362983D02*
X0122493Y0362983D01*
X0122501Y0361985D02*
X0107096Y0361985D01*
X0107890Y0360986D02*
X0122914Y0360986D01*
X0123431Y0359988D02*
X0108303Y0359988D01*
X0108507Y0358989D02*
X0124430Y0358989D01*
X0124411Y0356992D02*
X0108295Y0356992D01*
X0108507Y0357991D02*
X0126465Y0357991D01*
X0123413Y0355994D02*
X0107882Y0355994D01*
X0107076Y0354995D02*
X0120015Y0354995D01*
X0119017Y0353997D02*
X0105713Y0353997D01*
X0105419Y0353134D02*
X0104671Y0353377D01*
X0104000Y0353483D01*
X0104000Y0349000D01*
X0108483Y0349000D01*
X0108377Y0349671D01*
X0108134Y0350419D01*
X0107776Y0351121D01*
X0107314Y0351757D01*
X0106757Y0352314D01*
X0106121Y0352776D01*
X0105419Y0353134D01*
X0105685Y0352998D02*
X0118018Y0352998D01*
X0117020Y0352000D02*
X0107071Y0352000D01*
X0107837Y0351001D02*
X0116393Y0351001D01*
X0116393Y0350003D02*
X0108269Y0350003D01*
X0108482Y0349004D02*
X0116393Y0349004D01*
X0116393Y0348006D02*
X0104000Y0348006D01*
X0104000Y0348000D02*
X0104000Y0349000D01*
X0103000Y0349000D01*
X0103000Y0353483D01*
X0102329Y0353377D01*
X0101581Y0353134D01*
X0100879Y0352776D01*
X0100243Y0352314D01*
X0099686Y0351757D01*
X0099224Y0351121D01*
X0098866Y0350419D01*
X0098623Y0349671D01*
X0098517Y0349000D01*
X0103000Y0349000D01*
X0103000Y0348000D01*
X0104000Y0348000D01*
X0108483Y0348000D01*
X0108377Y0347329D01*
X0108134Y0346581D01*
X0107776Y0345879D01*
X0107314Y0345243D01*
X0106757Y0344686D01*
X0106121Y0344224D01*
X0105419Y0343866D01*
X0104671Y0343623D01*
X0104000Y0343517D01*
X0104000Y0348000D01*
X0104000Y0347007D02*
X0103000Y0347007D01*
X0103000Y0348000D02*
X0103000Y0343517D01*
X0102329Y0343623D01*
X0101581Y0343866D01*
X0100879Y0344224D01*
X0100243Y0344686D01*
X0099686Y0345243D01*
X0099224Y0345879D01*
X0098866Y0346581D01*
X0098623Y0347329D01*
X0098517Y0348000D01*
X0103000Y0348000D01*
X0103000Y0348006D02*
X0074407Y0348006D01*
X0074407Y0349004D02*
X0098518Y0349004D01*
X0098731Y0350003D02*
X0074407Y0350003D01*
X0074407Y0351001D02*
X0099163Y0351001D01*
X0099929Y0352000D02*
X0074407Y0352000D01*
X0074407Y0352998D02*
X0101315Y0352998D01*
X0101287Y0353997D02*
X0074407Y0353997D01*
X0074407Y0354995D02*
X0099924Y0354995D01*
X0099118Y0355994D02*
X0074407Y0355994D01*
X0074407Y0356992D02*
X0098705Y0356992D01*
X0098493Y0357991D02*
X0074407Y0357991D01*
X0074407Y0358989D02*
X0098493Y0358989D01*
X0098697Y0359988D02*
X0074407Y0359988D01*
X0074407Y0360986D02*
X0099110Y0360986D01*
X0099904Y0361985D02*
X0074407Y0361985D01*
X0074407Y0362983D02*
X0101240Y0362983D01*
X0101323Y0363982D02*
X0074407Y0363982D01*
X0074407Y0364980D02*
X0099938Y0364980D01*
X0099889Y0371970D02*
X0074407Y0371970D01*
X0074407Y0372969D02*
X0101204Y0372969D01*
X0101359Y0373967D02*
X0074407Y0373967D01*
X0074407Y0374966D02*
X0099953Y0374966D01*
X0099131Y0375964D02*
X0074407Y0375964D01*
X0074407Y0376963D02*
X0098717Y0376963D01*
X0098493Y0377961D02*
X0075072Y0377961D01*
X0076071Y0378960D02*
X0098493Y0378960D01*
X0098684Y0379958D02*
X0077069Y0379958D01*
X0078068Y0380957D02*
X0099098Y0380957D01*
X0099874Y0381955D02*
X0079066Y0381955D01*
X0080065Y0382954D02*
X0101168Y0382954D01*
X0101395Y0383952D02*
X0081063Y0383952D01*
X0082062Y0384951D02*
X0099968Y0384951D01*
X0099137Y0385949D02*
X0083060Y0385949D01*
X0084059Y0386948D02*
X0098723Y0386948D01*
X0098493Y0387946D02*
X0085057Y0387946D01*
X0086056Y0388945D02*
X0098493Y0388945D01*
X0098678Y0389943D02*
X0087054Y0389943D01*
X0088053Y0390942D02*
X0099092Y0390942D01*
X0099859Y0391940D02*
X0089051Y0391940D01*
X0090050Y0392939D02*
X0101132Y0392939D01*
X0105868Y0392939D02*
X0122493Y0392939D01*
X0122493Y0393937D02*
X0091049Y0393937D01*
X0092047Y0394936D02*
X0122882Y0394936D01*
X0123353Y0395934D02*
X0093046Y0395934D01*
X0094044Y0396933D02*
X0124352Y0396933D01*
X0126321Y0397931D02*
X0095043Y0397931D01*
X0096041Y0398930D02*
X0164959Y0398930D01*
X0165957Y0397931D02*
X0148679Y0397931D01*
X0150648Y0396933D02*
X0166956Y0396933D01*
X0167954Y0395934D02*
X0151647Y0395934D01*
X0152118Y0394936D02*
X0168953Y0394936D01*
X0169951Y0393937D02*
X0152507Y0393937D01*
X0152507Y0392939D02*
X0170950Y0392939D01*
X0171948Y0391940D02*
X0152481Y0391940D01*
X0152067Y0390942D02*
X0172947Y0390942D01*
X0176177Y0395934D02*
X0193353Y0395934D01*
X0194352Y0396933D02*
X0175178Y0396933D01*
X0174180Y0397931D02*
X0196321Y0397931D01*
X0198679Y0397931D02*
X0206321Y0397931D01*
X0204352Y0396933D02*
X0200648Y0396933D01*
X0201647Y0395934D02*
X0203353Y0395934D01*
X0208679Y0397931D02*
X0216321Y0397931D01*
X0214352Y0396933D02*
X0210648Y0396933D01*
X0211647Y0395934D02*
X0213353Y0395934D01*
X0212882Y0394936D02*
X0212118Y0394936D01*
X0202507Y0371970D02*
X0202493Y0371970D01*
X0202079Y0370972D02*
X0202921Y0370972D01*
X0203446Y0369973D02*
X0201554Y0369973D01*
X0200556Y0368974D02*
X0204444Y0368974D01*
X0204468Y0366977D02*
X0200532Y0366977D01*
X0201516Y0365979D02*
X0203484Y0365979D01*
X0202897Y0364980D02*
X0202103Y0364980D01*
X0202407Y0363982D02*
X0202593Y0363982D01*
X0202598Y0361985D02*
X0202402Y0361985D01*
X0202086Y0360986D02*
X0202914Y0360986D01*
X0203508Y0359988D02*
X0201492Y0359988D01*
X0200486Y0358989D02*
X0204514Y0358989D01*
X0204411Y0356992D02*
X0200589Y0356992D01*
X0201587Y0355994D02*
X0203413Y0355994D01*
X0202907Y0354995D02*
X0202093Y0354995D01*
X0198000Y0359988D02*
X0197000Y0359988D01*
X0197000Y0360986D02*
X0198000Y0360986D01*
X0198000Y0363982D02*
X0197000Y0363982D01*
X0197000Y0364980D02*
X0198000Y0364980D01*
X0198000Y0365979D02*
X0197000Y0365979D01*
X0197000Y0366977D02*
X0198000Y0366977D01*
X0194468Y0366977D02*
X0150604Y0366977D01*
X0151602Y0365979D02*
X0193484Y0365979D01*
X0192897Y0364980D02*
X0152099Y0364980D01*
X0152507Y0363982D02*
X0192593Y0363982D01*
X0194411Y0356992D02*
X0150589Y0356992D01*
X0151587Y0355994D02*
X0193413Y0355994D01*
X0192907Y0354995D02*
X0152093Y0354995D01*
X0152507Y0353997D02*
X0192493Y0353997D01*
X0192493Y0352998D02*
X0152507Y0352998D01*
X0152505Y0352000D02*
X0192495Y0352000D01*
X0192908Y0351001D02*
X0152092Y0351001D01*
X0151584Y0350003D02*
X0193416Y0350003D01*
X0194415Y0349004D02*
X0150585Y0349004D01*
X0150574Y0347007D02*
X0194426Y0347007D01*
X0193428Y0346009D02*
X0151572Y0346009D01*
X0152087Y0345010D02*
X0192913Y0345010D01*
X0192499Y0344012D02*
X0152501Y0344012D01*
X0152507Y0343013D02*
X0192493Y0343013D01*
X0192493Y0342015D02*
X0152507Y0342015D01*
X0152098Y0341016D02*
X0192902Y0341016D01*
X0193401Y0340018D02*
X0151599Y0340018D01*
X0150600Y0339019D02*
X0194400Y0339019D01*
X0194441Y0337022D02*
X0150559Y0337022D01*
X0151557Y0336024D02*
X0193443Y0336024D01*
X0192919Y0335025D02*
X0152081Y0335025D01*
X0152494Y0334027D02*
X0192506Y0334027D01*
X0192493Y0333028D02*
X0152507Y0333028D01*
X0152507Y0332030D02*
X0192493Y0332030D01*
X0192896Y0331031D02*
X0152104Y0331031D01*
X0151614Y0330033D02*
X0193386Y0330033D01*
X0194385Y0329034D02*
X0150615Y0329034D01*
X0150544Y0327037D02*
X0194456Y0327037D01*
X0193457Y0326039D02*
X0151543Y0326039D01*
X0152075Y0325040D02*
X0192925Y0325040D01*
X0192512Y0324041D02*
X0152488Y0324041D01*
X0152507Y0323043D02*
X0192493Y0323043D01*
X0192493Y0322044D02*
X0152507Y0322044D01*
X0152110Y0321046D02*
X0192890Y0321046D01*
X0193371Y0320047D02*
X0151629Y0320047D01*
X0150630Y0319049D02*
X0194370Y0319049D01*
X0194471Y0317052D02*
X0150529Y0317052D01*
X0151528Y0316053D02*
X0193472Y0316053D01*
X0192932Y0315055D02*
X0152068Y0315055D01*
X0152482Y0314056D02*
X0192518Y0314056D01*
X0192493Y0313058D02*
X0152507Y0313058D01*
X0152507Y0312059D02*
X0192493Y0312059D01*
X0192884Y0311061D02*
X0152116Y0311061D01*
X0151643Y0310062D02*
X0193357Y0310062D01*
X0194355Y0309064D02*
X0150645Y0309064D01*
X0150514Y0307067D02*
X0194486Y0307067D01*
X0193487Y0306068D02*
X0151513Y0306068D01*
X0152062Y0305070D02*
X0192938Y0305070D01*
X0192524Y0304071D02*
X0152476Y0304071D01*
X0152507Y0303073D02*
X0192493Y0303073D01*
X0192493Y0302074D02*
X0152507Y0302074D01*
X0152123Y0301076D02*
X0192877Y0301076D01*
X0193342Y0300077D02*
X0151658Y0300077D01*
X0150660Y0299079D02*
X0194340Y0299079D01*
X0194501Y0297082D02*
X0150499Y0297082D01*
X0151498Y0296083D02*
X0193502Y0296083D01*
X0192944Y0295085D02*
X0152056Y0295085D01*
X0152470Y0294086D02*
X0192530Y0294086D01*
X0192493Y0293088D02*
X0152507Y0293088D01*
X0152507Y0292089D02*
X0192493Y0292089D01*
X0192871Y0291091D02*
X0152129Y0291091D01*
X0151673Y0290092D02*
X0193327Y0290092D01*
X0194325Y0289094D02*
X0150675Y0289094D01*
X0150485Y0287097D02*
X0194515Y0287097D01*
X0193517Y0286098D02*
X0151483Y0286098D01*
X0152050Y0285100D02*
X0192950Y0285100D01*
X0192536Y0284101D02*
X0152464Y0284101D01*
X0152507Y0283103D02*
X0192493Y0283103D01*
X0192493Y0282104D02*
X0152507Y0282104D01*
X0152135Y0281105D02*
X0192865Y0281105D01*
X0193312Y0280107D02*
X0151688Y0280107D01*
X0150690Y0279108D02*
X0194310Y0279108D01*
X0196221Y0278110D02*
X0148779Y0278110D01*
X0146221Y0278110D02*
X0138779Y0278110D01*
X0140690Y0279108D02*
X0144310Y0279108D01*
X0143312Y0280107D02*
X0141688Y0280107D01*
X0142135Y0281105D02*
X0142865Y0281105D01*
X0136221Y0278110D02*
X0128779Y0278110D01*
X0130690Y0279108D02*
X0134310Y0279108D01*
X0133312Y0280107D02*
X0131688Y0280107D01*
X0132135Y0281105D02*
X0132865Y0281105D01*
X0126221Y0278110D02*
X0098407Y0278110D01*
X0098805Y0279108D02*
X0124310Y0279108D01*
X0123312Y0280107D02*
X0099804Y0280107D01*
X0097405Y0283103D02*
X0092907Y0283103D01*
X0092907Y0284101D02*
X0098404Y0284101D01*
X0096407Y0282104D02*
X0092907Y0282104D01*
X0092907Y0281105D02*
X0095408Y0281105D01*
X0094593Y0280107D02*
X0092907Y0280107D01*
X0092907Y0279108D02*
X0094593Y0279108D01*
X0094593Y0278110D02*
X0092907Y0278110D01*
X0092907Y0277111D02*
X0094593Y0277111D01*
X0094593Y0276113D02*
X0092907Y0276113D01*
X0092907Y0275114D02*
X0094593Y0275114D01*
X0094593Y0274116D02*
X0092907Y0274116D01*
X0092907Y0273117D02*
X0094593Y0273117D01*
X0094593Y0272119D02*
X0092907Y0272119D01*
X0092907Y0271120D02*
X0094593Y0271120D01*
X0094593Y0270122D02*
X0092907Y0270122D01*
X0092907Y0269123D02*
X0094593Y0269123D01*
X0094593Y0268125D02*
X0092907Y0268125D01*
X0092907Y0267126D02*
X0094593Y0267126D01*
X0094593Y0266128D02*
X0092907Y0266128D01*
X0092907Y0265129D02*
X0094593Y0265129D01*
X0094593Y0264131D02*
X0092907Y0264131D01*
X0092907Y0263132D02*
X0094593Y0263132D01*
X0094593Y0262134D02*
X0092907Y0262134D01*
X0092907Y0261135D02*
X0094593Y0261135D01*
X0094593Y0260137D02*
X0092907Y0260137D01*
X0092907Y0259138D02*
X0094593Y0259138D01*
X0094593Y0258140D02*
X0092907Y0258140D01*
X0092907Y0257141D02*
X0094593Y0257141D01*
X0094593Y0256143D02*
X0092907Y0256143D01*
X0092907Y0255144D02*
X0094593Y0255144D01*
X0094593Y0254146D02*
X0092907Y0254146D01*
X0092907Y0253147D02*
X0094593Y0253147D01*
X0094593Y0252149D02*
X0092907Y0252149D01*
X0092907Y0251150D02*
X0094593Y0251150D01*
X0094593Y0250152D02*
X0092907Y0250152D01*
X0092907Y0249153D02*
X0094593Y0249153D01*
X0094593Y0248155D02*
X0092907Y0248155D01*
X0092907Y0247156D02*
X0094593Y0247156D01*
X0094593Y0246158D02*
X0092907Y0246158D01*
X0092907Y0245159D02*
X0094593Y0245159D01*
X0094593Y0244161D02*
X0092907Y0244161D01*
X0092907Y0243162D02*
X0094593Y0243162D01*
X0094593Y0242164D02*
X0092907Y0242164D01*
X0092907Y0241165D02*
X0094593Y0241165D01*
X0094593Y0240167D02*
X0092907Y0240167D01*
X0092907Y0239168D02*
X0094593Y0239168D01*
X0094593Y0238170D02*
X0092907Y0238170D01*
X0092907Y0237171D02*
X0094593Y0237171D01*
X0094593Y0236172D02*
X0092907Y0236172D01*
X0092907Y0235174D02*
X0094593Y0235174D01*
X0094593Y0234175D02*
X0092907Y0234175D01*
X0092907Y0233177D02*
X0094593Y0233177D01*
X0094593Y0232178D02*
X0092907Y0232178D01*
X0092907Y0231180D02*
X0094593Y0231180D01*
X0094593Y0230181D02*
X0092907Y0230181D01*
X0092907Y0229183D02*
X0094593Y0229183D01*
X0094593Y0228184D02*
X0092907Y0228184D01*
X0092907Y0227186D02*
X0094593Y0227186D01*
X0094593Y0226187D02*
X0092907Y0226187D01*
X0092907Y0225189D02*
X0094593Y0225189D01*
X0094593Y0224190D02*
X0092907Y0224190D01*
X0092907Y0223192D02*
X0094593Y0223192D01*
X0094593Y0222193D02*
X0092907Y0222193D01*
X0092907Y0221195D02*
X0094593Y0221195D01*
X0094593Y0220196D02*
X0092907Y0220196D01*
X0092907Y0219198D02*
X0094593Y0219198D01*
X0094593Y0218199D02*
X0092907Y0218199D01*
X0092907Y0217201D02*
X0094593Y0217201D01*
X0094593Y0216202D02*
X0092907Y0216202D01*
X0092907Y0215204D02*
X0094593Y0215204D01*
X0094593Y0214205D02*
X0092907Y0214205D01*
X0092907Y0213207D02*
X0094593Y0213207D01*
X0094593Y0212208D02*
X0092907Y0212208D01*
X0092907Y0211210D02*
X0094593Y0211210D01*
X0094593Y0210211D02*
X0092907Y0210211D01*
X0092907Y0209213D02*
X0094593Y0209213D01*
X0094593Y0208214D02*
X0092907Y0208214D01*
X0092907Y0207216D02*
X0094593Y0207216D01*
X0094593Y0206217D02*
X0092907Y0206217D01*
X0092907Y0205219D02*
X0094593Y0205219D01*
X0094593Y0204220D02*
X0092907Y0204220D01*
X0092907Y0203222D02*
X0094593Y0203222D01*
X0094593Y0202223D02*
X0092907Y0202223D01*
X0092907Y0201225D02*
X0094593Y0201225D01*
X0094593Y0200226D02*
X0092907Y0200226D01*
X0092907Y0199228D02*
X0094593Y0199228D01*
X0094593Y0198229D02*
X0092907Y0198229D01*
X0092907Y0197231D02*
X0094593Y0197231D01*
X0094593Y0196232D02*
X0092907Y0196232D01*
X0092907Y0195234D02*
X0094593Y0195234D01*
X0094593Y0194235D02*
X0092907Y0194235D01*
X0092907Y0193237D02*
X0094593Y0193237D01*
X0094593Y0192238D02*
X0092907Y0192238D01*
X0092907Y0191239D02*
X0094593Y0191239D01*
X0094593Y0190241D02*
X0092907Y0190241D01*
X0092907Y0189242D02*
X0094593Y0189242D01*
X0094593Y0188244D02*
X0092483Y0188244D01*
X0091235Y0187245D02*
X0094593Y0187245D01*
X0094593Y0186247D02*
X0089986Y0186247D01*
X0088738Y0185248D02*
X0094593Y0185248D01*
X0094593Y0184250D02*
X0087490Y0184250D01*
X0086242Y0183251D02*
X0094436Y0183251D01*
X0093892Y0182253D02*
X0085407Y0182253D01*
X0085407Y0181254D02*
X0093802Y0181254D01*
X0094095Y0180256D02*
X0085407Y0180256D01*
X0085407Y0179257D02*
X0094928Y0179257D01*
X0098072Y0179257D02*
X0221693Y0179257D01*
X0221693Y0178259D02*
X0085407Y0178259D01*
X0085407Y0177260D02*
X0164086Y0177260D01*
X0162890Y0176262D02*
X0085407Y0176262D01*
X0085407Y0175263D02*
X0162470Y0175263D01*
X0162409Y0174265D02*
X0085407Y0174265D01*
X0085407Y0173266D02*
X0162665Y0173266D01*
X0163360Y0172268D02*
X0085407Y0172268D01*
X0085407Y0171269D02*
X0162897Y0171269D01*
X0162473Y0170271D02*
X0085407Y0170271D01*
X0085407Y0169272D02*
X0162409Y0169272D01*
X0162662Y0168274D02*
X0085407Y0168274D01*
X0085407Y0167275D02*
X0163353Y0167275D01*
X0165500Y0174500D02*
X0221500Y0174500D01*
X0223500Y0176500D01*
X0223500Y0221500D01*
X0226500Y0224500D01*
X0247000Y0224500D01*
X0248500Y0223000D01*
X0248500Y0218500D01*
X0252500Y0220000D02*
X0252500Y0225000D01*
X0250000Y0227500D01*
X0241000Y0217500D02*
X0238000Y0214500D01*
X0238000Y0062500D01*
X0234000Y0058500D01*
X0234000Y0037000D01*
X0230500Y0032500D01*
X0232996Y0031478D02*
X0235302Y0031478D01*
X0235302Y0032476D02*
X0233198Y0032476D01*
X0233547Y0033475D02*
X0235691Y0033475D01*
X0236693Y0034473D02*
X0234324Y0034473D01*
X0235101Y0035472D02*
X0236693Y0035472D01*
X0236693Y0036470D02*
X0235877Y0036470D01*
X0235807Y0037469D02*
X0236693Y0037469D01*
X0236693Y0038467D02*
X0235807Y0038467D01*
X0235807Y0039466D02*
X0236693Y0039466D01*
X0236693Y0040464D02*
X0235807Y0040464D01*
X0235807Y0041463D02*
X0236693Y0041463D01*
X0236693Y0042461D02*
X0235807Y0042461D01*
X0235807Y0043460D02*
X0236693Y0043460D01*
X0236693Y0044458D02*
X0235807Y0044458D01*
X0235807Y0045457D02*
X0236693Y0045457D01*
X0236693Y0046455D02*
X0235807Y0046455D01*
X0235807Y0047454D02*
X0236693Y0047454D01*
X0236693Y0048452D02*
X0235807Y0048452D01*
X0235807Y0049451D02*
X0236693Y0049451D01*
X0236693Y0050449D02*
X0235807Y0050449D01*
X0235807Y0051448D02*
X0236693Y0051448D01*
X0236693Y0052446D02*
X0235807Y0052446D01*
X0235807Y0053445D02*
X0236693Y0053445D01*
X0236693Y0054443D02*
X0235807Y0054443D01*
X0235807Y0055442D02*
X0236693Y0055442D01*
X0236693Y0056440D02*
X0235807Y0056440D01*
X0235807Y0057439D02*
X0236693Y0057439D01*
X0236693Y0058437D02*
X0236493Y0058437D01*
X0238500Y0059000D02*
X0241000Y0061500D01*
X0241000Y0211000D01*
X0244000Y0208500D02*
X0249000Y0213500D01*
X0271500Y0213500D01*
X0282500Y0224500D01*
X0284878Y0223192D02*
X0316693Y0223192D01*
X0316693Y0224190D02*
X0285198Y0224190D01*
X0285135Y0225189D02*
X0316693Y0225189D01*
X0316693Y0226187D02*
X0284628Y0226187D01*
X0283065Y0227186D02*
X0316693Y0227186D01*
X0316693Y0228184D02*
X0313740Y0228184D01*
X0314307Y0229183D02*
X0316693Y0229183D01*
X0316693Y0230181D02*
X0314307Y0230181D01*
X0314307Y0231180D02*
X0316693Y0231180D01*
X0316693Y0232178D02*
X0314550Y0232178D01*
X0310450Y0232178D02*
X0270307Y0232178D01*
X0270307Y0233177D02*
X0309702Y0233177D01*
X0309409Y0234175D02*
X0270307Y0234175D01*
X0270307Y0235174D02*
X0309433Y0235174D01*
X0309847Y0236172D02*
X0270307Y0236172D01*
X0270307Y0237171D02*
X0310870Y0237171D01*
X0316693Y0222193D02*
X0283980Y0222193D01*
X0281750Y0221195D02*
X0316693Y0221195D01*
X0316693Y0220196D02*
X0291540Y0220196D01*
X0290460Y0220196D02*
X0280752Y0220196D01*
X0279753Y0219198D02*
X0288883Y0219198D01*
X0288370Y0218199D02*
X0278755Y0218199D01*
X0277756Y0217201D02*
X0288145Y0217201D01*
X0287147Y0216202D02*
X0276758Y0216202D01*
X0275759Y0215204D02*
X0286148Y0215204D01*
X0285150Y0214205D02*
X0274761Y0214205D01*
X0273762Y0213207D02*
X0284151Y0213207D01*
X0283153Y0212208D02*
X0272764Y0212208D01*
X0283500Y0210000D02*
X0291000Y0217500D01*
X0293382Y0216202D02*
X0295887Y0216202D01*
X0295372Y0215204D02*
X0292506Y0215204D01*
X0293698Y0217201D02*
X0303577Y0217201D01*
X0303302Y0216202D02*
X0300113Y0216202D01*
X0300628Y0215204D02*
X0302648Y0215204D01*
X0301650Y0214205D02*
X0300698Y0214205D01*
X0300651Y0213207D02*
X0300384Y0213207D01*
X0299653Y0212208D02*
X0299516Y0212208D01*
X0298654Y0211210D02*
X0297265Y0211210D01*
X0297656Y0210211D02*
X0296267Y0210211D01*
X0296657Y0209213D02*
X0295268Y0209213D01*
X0295659Y0208214D02*
X0294270Y0208214D01*
X0294660Y0207216D02*
X0293271Y0207216D01*
X0293662Y0206217D02*
X0292273Y0206217D01*
X0292663Y0205219D02*
X0291274Y0205219D01*
X0290000Y0206500D02*
X0298000Y0214500D01*
X0295150Y0214205D02*
X0290261Y0214205D01*
X0289262Y0213207D02*
X0294151Y0213207D01*
X0293153Y0212208D02*
X0288264Y0212208D01*
X0287265Y0211210D02*
X0292154Y0211210D01*
X0291156Y0210211D02*
X0286267Y0210211D01*
X0285268Y0209213D02*
X0290157Y0209213D01*
X0290000Y0206500D02*
X0252000Y0206500D01*
X0250000Y0204500D01*
X0250000Y0058000D01*
X0246000Y0054000D01*
X0246000Y0039500D01*
X0247500Y0038000D01*
X0247500Y0034000D01*
X0246540Y0031478D02*
X0243793Y0031478D01*
X0244496Y0032476D02*
X0245211Y0032476D01*
X0244802Y0033475D02*
X0244698Y0033475D01*
X0242000Y0033500D02*
X0241000Y0034500D01*
X0241000Y0057000D01*
X0244000Y0060000D01*
X0244000Y0208500D01*
X0247000Y0206500D02*
X0250500Y0210000D01*
X0283500Y0210000D01*
X0293000Y0203000D02*
X0306000Y0216000D01*
X0308020Y0214205D02*
X0316650Y0214205D01*
X0316693Y0215204D02*
X0308590Y0215204D01*
X0308698Y0216202D02*
X0316693Y0216202D01*
X0316693Y0217201D02*
X0308423Y0217201D01*
X0307616Y0218199D02*
X0316693Y0218199D01*
X0316693Y0219198D02*
X0293117Y0219198D01*
X0293630Y0218199D02*
X0304384Y0218199D01*
X0305762Y0213207D02*
X0315651Y0213207D01*
X0314653Y0212208D02*
X0304764Y0212208D01*
X0303765Y0211210D02*
X0313654Y0211210D01*
X0312656Y0210211D02*
X0302767Y0210211D01*
X0301768Y0209213D02*
X0311657Y0209213D01*
X0310659Y0208214D02*
X0300770Y0208214D01*
X0299771Y0207216D02*
X0309660Y0207216D01*
X0308662Y0206217D02*
X0298773Y0206217D01*
X0297774Y0205219D02*
X0307663Y0205219D01*
X0306665Y0204220D02*
X0296776Y0204220D01*
X0295777Y0203222D02*
X0305666Y0203222D01*
X0304668Y0202223D02*
X0294779Y0202223D01*
X0293000Y0203000D02*
X0254500Y0203000D01*
X0253000Y0201500D01*
X0253000Y0056500D01*
X0248500Y0052000D01*
X0248500Y0040000D01*
X0251000Y0037500D01*
X0251000Y0031500D01*
X0249500Y0030000D01*
X0246802Y0030479D02*
X0240290Y0030479D01*
X0238967Y0029481D02*
X0246802Y0029481D01*
X0247209Y0028482D02*
X0167073Y0028482D01*
X0166075Y0029481D02*
X0237033Y0029481D01*
X0235710Y0030479D02*
X0232294Y0030479D01*
X0228706Y0030479D02*
X0165076Y0030479D01*
X0164078Y0031478D02*
X0228004Y0031478D01*
X0227802Y0032476D02*
X0163079Y0032476D01*
X0162081Y0033475D02*
X0227984Y0033475D01*
X0226713Y0034473D02*
X0161082Y0034473D01*
X0160084Y0035472D02*
X0226302Y0035472D01*
X0226302Y0036470D02*
X0159085Y0036470D01*
X0156970Y0033475D02*
X0061050Y0033475D01*
X0060723Y0032796D02*
X0062857Y0037227D01*
X0063591Y0042091D01*
X0062857Y0046954D01*
X0060723Y0051385D01*
X0057378Y0054991D01*
X0053119Y0057450D01*
X0053119Y0057450D01*
X0048324Y0058544D01*
X0048324Y0058544D01*
X0043419Y0058177D01*
X0038841Y0056380D01*
X0038841Y0056380D01*
X0034995Y0053313D01*
X0032225Y0049250D01*
X0030775Y0044550D01*
X0030775Y0039631D01*
X0032225Y0034931D01*
X0034995Y0030868D01*
X0034995Y0030868D01*
X0038841Y0027801D01*
X0043419Y0026004D01*
X0048324Y0025637D01*
X0053119Y0026731D01*
X0057378Y0029190D01*
X0057378Y0029190D01*
X0057378Y0029190D01*
X0060723Y0032796D01*
X0060723Y0032796D01*
X0060427Y0032476D02*
X0157968Y0032476D01*
X0158967Y0031478D02*
X0059500Y0031478D01*
X0058574Y0030479D02*
X0159965Y0030479D01*
X0160964Y0029481D02*
X0057647Y0029481D01*
X0056151Y0028482D02*
X0161962Y0028482D01*
X0162961Y0027484D02*
X0054422Y0027484D01*
X0053119Y0026731D02*
X0053119Y0026731D01*
X0052041Y0026485D02*
X0163959Y0026485D01*
X0167000Y0026000D02*
X0251000Y0026000D01*
X0254000Y0029000D01*
X0254000Y0039000D01*
X0252500Y0040500D01*
X0252500Y0051500D01*
X0256500Y0055500D01*
X0256500Y0064000D01*
X0259000Y0062000D02*
X0259500Y0062500D01*
X0259500Y0066500D01*
X0259000Y0066500D01*
X0257000Y0068500D01*
X0257000Y0082500D01*
X0259000Y0062000D02*
X0259000Y0053500D01*
X0257500Y0052000D01*
X0257500Y0034500D01*
X0244000Y0037000D02*
X0243500Y0037500D01*
X0243500Y0055500D01*
X0247000Y0059000D01*
X0247000Y0206500D01*
X0236500Y0217500D02*
X0234500Y0215500D01*
X0234500Y0072000D01*
X0229693Y0072417D02*
X0192907Y0072417D01*
X0192907Y0073415D02*
X0229693Y0073415D01*
X0229693Y0074414D02*
X0192907Y0074414D01*
X0192907Y0075412D02*
X0229693Y0075412D01*
X0229693Y0076411D02*
X0192907Y0076411D01*
X0192907Y0077409D02*
X0229693Y0077409D01*
X0229693Y0078408D02*
X0192907Y0078408D01*
X0192907Y0079406D02*
X0229693Y0079406D01*
X0229693Y0071418D02*
X0192907Y0071418D01*
X0192907Y0070420D02*
X0229693Y0070420D01*
X0229693Y0069421D02*
X0192907Y0069421D01*
X0192907Y0068423D02*
X0229693Y0068423D01*
X0229693Y0067424D02*
X0192907Y0067424D01*
X0192907Y0066426D02*
X0229693Y0066426D01*
X0229693Y0065427D02*
X0214888Y0065427D01*
X0215535Y0064429D02*
X0229693Y0064429D01*
X0229693Y0063430D02*
X0215698Y0063430D01*
X0215477Y0062432D02*
X0229693Y0062432D01*
X0229693Y0061433D02*
X0214807Y0061433D01*
X0214807Y0060434D02*
X0229693Y0060434D01*
X0229693Y0059436D02*
X0214807Y0059436D01*
X0214807Y0058437D02*
X0229693Y0058437D01*
X0229693Y0057439D02*
X0214807Y0057439D01*
X0214807Y0056440D02*
X0229693Y0056440D01*
X0229693Y0055442D02*
X0214807Y0055442D01*
X0214807Y0054443D02*
X0229693Y0054443D01*
X0229693Y0053445D02*
X0214807Y0053445D01*
X0214807Y0052446D02*
X0229693Y0052446D01*
X0229693Y0051448D02*
X0214807Y0051448D01*
X0214807Y0050449D02*
X0229693Y0050449D01*
X0229693Y0049451D02*
X0214807Y0049451D01*
X0214807Y0048452D02*
X0229693Y0048452D01*
X0229693Y0047454D02*
X0214807Y0047454D01*
X0214807Y0046455D02*
X0229693Y0046455D01*
X0229693Y0045457D02*
X0214807Y0045457D01*
X0214857Y0044458D02*
X0229693Y0044458D01*
X0229693Y0043460D02*
X0215522Y0043460D01*
X0215698Y0042461D02*
X0229693Y0042461D01*
X0229693Y0041463D02*
X0224352Y0041463D01*
X0225020Y0040464D02*
X0229693Y0040464D01*
X0229255Y0039466D02*
X0225198Y0039466D01*
X0224992Y0038467D02*
X0227907Y0038467D01*
X0226688Y0037469D02*
X0224284Y0037469D01*
X0229000Y0036000D02*
X0231500Y0039500D01*
X0231500Y0217000D01*
X0229481Y0215204D02*
X0228307Y0215204D01*
X0228307Y0216202D02*
X0228911Y0216202D01*
X0228802Y0217201D02*
X0228307Y0217201D01*
X0228307Y0218199D02*
X0229077Y0218199D01*
X0228753Y0219198D02*
X0229883Y0219198D01*
X0229693Y0214205D02*
X0228307Y0214205D01*
X0228307Y0213207D02*
X0229693Y0213207D01*
X0229693Y0212208D02*
X0228307Y0212208D01*
X0228307Y0211210D02*
X0229693Y0211210D01*
X0229693Y0210211D02*
X0228307Y0210211D01*
X0228307Y0209213D02*
X0229693Y0209213D01*
X0229693Y0208214D02*
X0228307Y0208214D01*
X0228307Y0207216D02*
X0229693Y0207216D01*
X0229693Y0206217D02*
X0228307Y0206217D01*
X0228307Y0205219D02*
X0229693Y0205219D01*
X0229693Y0204220D02*
X0228307Y0204220D01*
X0228307Y0203222D02*
X0229693Y0203222D01*
X0229693Y0202223D02*
X0228307Y0202223D01*
X0228307Y0201225D02*
X0229693Y0201225D01*
X0229693Y0200226D02*
X0228307Y0200226D01*
X0228307Y0199228D02*
X0229693Y0199228D01*
X0229693Y0198229D02*
X0228307Y0198229D01*
X0228307Y0197231D02*
X0229693Y0197231D01*
X0229693Y0196232D02*
X0228307Y0196232D01*
X0228307Y0195234D02*
X0229693Y0195234D01*
X0229693Y0194235D02*
X0228307Y0194235D01*
X0228307Y0193237D02*
X0229693Y0193237D01*
X0229693Y0192238D02*
X0228307Y0192238D01*
X0228307Y0191239D02*
X0229693Y0191239D01*
X0229693Y0190241D02*
X0228307Y0190241D01*
X0228307Y0189242D02*
X0229693Y0189242D01*
X0229693Y0188244D02*
X0228307Y0188244D01*
X0228307Y0187245D02*
X0229693Y0187245D01*
X0229693Y0186247D02*
X0228307Y0186247D01*
X0228307Y0185248D02*
X0229693Y0185248D01*
X0229693Y0184250D02*
X0228307Y0184250D01*
X0228307Y0183251D02*
X0229693Y0183251D01*
X0229693Y0182253D02*
X0228307Y0182253D01*
X0228307Y0181254D02*
X0229693Y0181254D01*
X0229693Y0180256D02*
X0228307Y0180256D01*
X0228307Y0179257D02*
X0229693Y0179257D01*
X0229693Y0178259D02*
X0228307Y0178259D01*
X0228307Y0177260D02*
X0229693Y0177260D01*
X0229693Y0176262D02*
X0228307Y0176262D01*
X0228307Y0175263D02*
X0229693Y0175263D01*
X0229693Y0174265D02*
X0228307Y0174265D01*
X0228307Y0173266D02*
X0229693Y0173266D01*
X0229693Y0172268D02*
X0228307Y0172268D01*
X0228307Y0171269D02*
X0229693Y0171269D01*
X0229693Y0170271D02*
X0227826Y0170271D01*
X0226828Y0169272D02*
X0229693Y0169272D01*
X0229693Y0168274D02*
X0225829Y0168274D01*
X0221693Y0177260D02*
X0166914Y0177260D01*
X0187731Y0142312D02*
X0127769Y0142312D01*
X0128754Y0141314D02*
X0186746Y0141314D01*
X0186332Y0140315D02*
X0129168Y0140315D01*
X0129507Y0139317D02*
X0185993Y0139317D01*
X0185993Y0138318D02*
X0129507Y0138318D01*
X0129431Y0137320D02*
X0186069Y0137320D01*
X0186483Y0136321D02*
X0129017Y0136321D01*
X0128404Y0135323D02*
X0187096Y0135323D01*
X0188095Y0134324D02*
X0127405Y0134324D01*
X0121595Y0134324D02*
X0047807Y0134324D01*
X0047807Y0133326D02*
X0189093Y0133326D01*
X0189093Y0132327D02*
X0047807Y0132327D01*
X0047807Y0131329D02*
X0189093Y0131329D01*
X0189093Y0130330D02*
X0047807Y0130330D01*
X0047807Y0129332D02*
X0189093Y0129332D01*
X0189093Y0128333D02*
X0047807Y0128333D01*
X0047807Y0127335D02*
X0189093Y0127335D01*
X0189093Y0126336D02*
X0047807Y0126336D01*
X0047807Y0125338D02*
X0189093Y0125338D01*
X0189093Y0124339D02*
X0047807Y0124339D01*
X0047807Y0123341D02*
X0189093Y0123341D01*
X0189093Y0122342D02*
X0047807Y0122342D01*
X0047807Y0121344D02*
X0189093Y0121344D01*
X0189093Y0120345D02*
X0047807Y0120345D01*
X0047807Y0119347D02*
X0189093Y0119347D01*
X0189093Y0118348D02*
X0047807Y0118348D01*
X0047807Y0117350D02*
X0189093Y0117350D01*
X0189093Y0116351D02*
X0047807Y0116351D01*
X0047807Y0115353D02*
X0189093Y0115353D01*
X0189093Y0114354D02*
X0047807Y0114354D01*
X0047807Y0113356D02*
X0189093Y0113356D01*
X0189093Y0112357D02*
X0088858Y0112357D01*
X0088496Y0112507D02*
X0086504Y0112507D01*
X0084664Y0111745D01*
X0083255Y0110336D01*
X0082493Y0108496D01*
X0082493Y0106504D01*
X0083255Y0104664D01*
X0084664Y0103255D01*
X0086504Y0102493D01*
X0088496Y0102493D01*
X0090336Y0103255D01*
X0091745Y0104664D01*
X0092507Y0106504D01*
X0092507Y0108496D01*
X0091745Y0110336D01*
X0090336Y0111745D01*
X0088496Y0112507D01*
X0086142Y0112357D02*
X0073858Y0112357D01*
X0073496Y0112507D02*
X0071504Y0112507D01*
X0069664Y0111745D01*
X0068255Y0110336D01*
X0067493Y0108496D01*
X0067493Y0106504D01*
X0068255Y0104664D01*
X0069664Y0103255D01*
X0071487Y0102500D01*
X0069664Y0101745D01*
X0068255Y0100336D01*
X0067803Y0099244D01*
X0051937Y0099244D01*
X0047807Y0103374D01*
X0047807Y0179130D01*
X0059304Y0190627D01*
X0059807Y0191842D01*
X0059807Y0209158D01*
X0059304Y0210373D01*
X0058373Y0211304D01*
X0053373Y0216304D01*
X0052158Y0216807D01*
X0041807Y0216807D01*
X0041807Y0248158D01*
X0041304Y0249373D01*
X0040373Y0250304D01*
X0039158Y0250807D01*
X0037842Y0250807D01*
X0036627Y0250304D01*
X0035696Y0249373D01*
X0035193Y0248158D01*
X0035193Y0213842D01*
X0035696Y0212627D01*
X0036696Y0211627D01*
X0037627Y0210696D01*
X0038842Y0210193D01*
X0050130Y0210193D01*
X0053193Y0207130D01*
X0053193Y0193870D01*
X0042627Y0183304D01*
X0041696Y0182373D01*
X0041193Y0181158D01*
X0041193Y0101346D01*
X0041696Y0100131D01*
X0047763Y0094064D01*
X0048694Y0093133D01*
X0049909Y0092630D01*
X0071173Y0092630D01*
X0071504Y0092493D01*
X0073496Y0092493D01*
X0075336Y0093255D01*
X0076745Y0094664D01*
X0077507Y0096504D01*
X0077507Y0098496D01*
X0076745Y0100336D01*
X0075336Y0101745D01*
X0073513Y0102500D01*
X0075336Y0103255D01*
X0076745Y0104664D01*
X0077507Y0106504D01*
X0077507Y0108496D01*
X0076745Y0110336D01*
X0075336Y0111745D01*
X0073496Y0112507D01*
X0071142Y0112357D02*
X0047807Y0112357D01*
X0047807Y0111359D02*
X0069277Y0111359D01*
X0068279Y0110360D02*
X0047807Y0110360D01*
X0047807Y0109362D02*
X0067851Y0109362D01*
X0067493Y0108363D02*
X0047807Y0108363D01*
X0047807Y0107365D02*
X0067493Y0107365D01*
X0067550Y0106366D02*
X0047807Y0106366D01*
X0047807Y0105368D02*
X0067964Y0105368D01*
X0068550Y0104369D02*
X0047807Y0104369D01*
X0047810Y0103370D02*
X0069548Y0103370D01*
X0071178Y0102372D02*
X0048809Y0102372D01*
X0049807Y0101373D02*
X0069292Y0101373D01*
X0068294Y0100375D02*
X0050806Y0100375D01*
X0051804Y0099376D02*
X0067858Y0099376D01*
X0073822Y0102372D02*
X0114193Y0102372D01*
X0114193Y0103370D02*
X0090452Y0103370D01*
X0091450Y0104369D02*
X0114193Y0104369D01*
X0114193Y0105368D02*
X0092036Y0105368D01*
X0092450Y0106366D02*
X0114302Y0106366D01*
X0114438Y0107365D02*
X0092507Y0107365D01*
X0092507Y0108363D02*
X0115048Y0108363D01*
X0114193Y0101373D02*
X0075708Y0101373D01*
X0076706Y0100375D02*
X0114193Y0100375D01*
X0114193Y0099376D02*
X0077142Y0099376D01*
X0077507Y0098378D02*
X0114193Y0098378D01*
X0114193Y0097379D02*
X0077507Y0097379D01*
X0077456Y0096381D02*
X0114193Y0096381D01*
X0114193Y0095382D02*
X0077042Y0095382D01*
X0076465Y0094384D02*
X0114193Y0094384D01*
X0114193Y0093385D02*
X0075466Y0093385D01*
X0075452Y0103370D02*
X0084548Y0103370D01*
X0083550Y0104369D02*
X0076450Y0104369D01*
X0077036Y0105368D02*
X0082964Y0105368D01*
X0082550Y0106366D02*
X0077450Y0106366D01*
X0077507Y0107365D02*
X0082493Y0107365D01*
X0082493Y0108363D02*
X0077507Y0108363D01*
X0077149Y0109362D02*
X0082851Y0109362D01*
X0083279Y0110360D02*
X0076721Y0110360D01*
X0075723Y0111359D02*
X0084277Y0111359D01*
X0090723Y0111359D02*
X0189093Y0111359D01*
X0189093Y0110360D02*
X0091721Y0110360D01*
X0092149Y0109362D02*
X0189093Y0109362D01*
X0158824Y0080405D02*
X0130676Y0080405D01*
X0131675Y0079406D02*
X0157825Y0079406D01*
X0142127Y0064429D02*
X0189093Y0064429D01*
X0189093Y0065427D02*
X0141129Y0065427D01*
X0140130Y0066426D02*
X0189093Y0066426D01*
X0189093Y0067424D02*
X0139132Y0067424D01*
X0138133Y0068423D02*
X0189093Y0068423D01*
X0189093Y0069421D02*
X0137134Y0069421D01*
X0136136Y0070420D02*
X0189093Y0070420D01*
X0189093Y0071418D02*
X0135137Y0071418D01*
X0143126Y0063430D02*
X0189093Y0063430D01*
X0189093Y0062432D02*
X0177678Y0062432D01*
X0177496Y0062507D02*
X0175504Y0062507D01*
X0173664Y0061745D01*
X0172255Y0060336D01*
X0171493Y0058496D01*
X0171493Y0056504D01*
X0172255Y0054664D01*
X0173664Y0053255D01*
X0175504Y0052493D01*
X0177496Y0052493D01*
X0179336Y0053255D01*
X0180745Y0054664D01*
X0181507Y0056504D01*
X0181507Y0058496D01*
X0180745Y0060336D01*
X0179336Y0061745D01*
X0177496Y0062507D01*
X0175322Y0062432D02*
X0144124Y0062432D01*
X0145123Y0061433D02*
X0173352Y0061433D01*
X0172353Y0060434D02*
X0146121Y0060434D01*
X0147120Y0059436D02*
X0171882Y0059436D01*
X0171493Y0058437D02*
X0148118Y0058437D01*
X0149117Y0057439D02*
X0171493Y0057439D01*
X0171519Y0056440D02*
X0150115Y0056440D01*
X0151114Y0055442D02*
X0171933Y0055442D01*
X0172475Y0054443D02*
X0152112Y0054443D01*
X0153111Y0053445D02*
X0173474Y0053445D01*
X0179526Y0053445D02*
X0189093Y0053445D01*
X0189093Y0054443D02*
X0180525Y0054443D01*
X0181067Y0055442D02*
X0189093Y0055442D01*
X0189093Y0056440D02*
X0181481Y0056440D01*
X0181507Y0057439D02*
X0189093Y0057439D01*
X0189093Y0058437D02*
X0181507Y0058437D01*
X0181118Y0059436D02*
X0189093Y0059436D01*
X0189093Y0060434D02*
X0180647Y0060434D01*
X0179648Y0061433D02*
X0189093Y0061433D01*
X0192907Y0061433D02*
X0211193Y0061433D01*
X0211193Y0060434D02*
X0192907Y0060434D01*
X0192907Y0059436D02*
X0211193Y0059436D01*
X0211193Y0058437D02*
X0192907Y0058437D01*
X0192907Y0057439D02*
X0211193Y0057439D01*
X0211193Y0056440D02*
X0192907Y0056440D01*
X0192907Y0055442D02*
X0211193Y0055442D01*
X0211193Y0054443D02*
X0192907Y0054443D01*
X0192907Y0053445D02*
X0211193Y0053445D01*
X0211193Y0052446D02*
X0192907Y0052446D01*
X0192907Y0051448D02*
X0211193Y0051448D01*
X0211193Y0050449D02*
X0192907Y0050449D01*
X0193526Y0049451D02*
X0211193Y0049451D01*
X0211193Y0048452D02*
X0193698Y0048452D01*
X0193487Y0047454D02*
X0211193Y0047454D01*
X0211193Y0046455D02*
X0192770Y0046455D01*
X0189230Y0046455D02*
X0160100Y0046455D01*
X0161099Y0045457D02*
X0211193Y0045457D01*
X0211143Y0044458D02*
X0162097Y0044458D01*
X0163096Y0043460D02*
X0210478Y0043460D01*
X0210302Y0042461D02*
X0164094Y0042461D01*
X0165093Y0041463D02*
X0210510Y0041463D01*
X0213000Y0042500D02*
X0213000Y0063500D01*
X0211112Y0065427D02*
X0192907Y0065427D01*
X0192907Y0064429D02*
X0210465Y0064429D01*
X0210302Y0063430D02*
X0192907Y0063430D01*
X0192907Y0062432D02*
X0210523Y0062432D01*
X0215490Y0041463D02*
X0220648Y0041463D01*
X0238000Y0032000D02*
X0238500Y0032500D01*
X0238500Y0059000D01*
X0189093Y0052446D02*
X0154109Y0052446D01*
X0155108Y0051448D02*
X0189093Y0051448D01*
X0189093Y0050449D02*
X0156106Y0050449D01*
X0157105Y0049451D02*
X0188474Y0049451D01*
X0188302Y0048452D02*
X0158103Y0048452D01*
X0159102Y0047454D02*
X0188513Y0047454D01*
X0155971Y0034473D02*
X0061531Y0034473D01*
X0062012Y0035472D02*
X0154973Y0035472D01*
X0153974Y0036470D02*
X0062493Y0036470D01*
X0062857Y0037227D02*
X0062857Y0037227D01*
X0062894Y0037469D02*
X0152976Y0037469D01*
X0151977Y0038467D02*
X0063044Y0038467D01*
X0063195Y0039466D02*
X0150979Y0039466D01*
X0149980Y0040464D02*
X0063345Y0040464D01*
X0063496Y0041463D02*
X0148982Y0041463D01*
X0147983Y0042461D02*
X0063535Y0042461D01*
X0063384Y0043460D02*
X0146985Y0043460D01*
X0145986Y0044458D02*
X0063234Y0044458D01*
X0063083Y0045457D02*
X0144988Y0045457D01*
X0143989Y0046455D02*
X0062933Y0046455D01*
X0062857Y0046954D02*
X0062857Y0046954D01*
X0062617Y0047454D02*
X0142991Y0047454D01*
X0141992Y0048452D02*
X0062136Y0048452D01*
X0061655Y0049451D02*
X0140994Y0049451D01*
X0139995Y0050449D02*
X0061174Y0050449D01*
X0060723Y0051385D02*
X0060723Y0051385D01*
X0060665Y0051448D02*
X0138996Y0051448D01*
X0137998Y0052446D02*
X0059739Y0052446D01*
X0058812Y0053445D02*
X0136999Y0053445D01*
X0136001Y0054443D02*
X0057886Y0054443D01*
X0057378Y0054991D02*
X0057378Y0054991D01*
X0056597Y0055442D02*
X0135002Y0055442D01*
X0134004Y0056440D02*
X0054867Y0056440D01*
X0053138Y0057439D02*
X0133005Y0057439D01*
X0132007Y0058437D02*
X0048792Y0058437D01*
X0046897Y0058437D02*
X0022600Y0058437D01*
X0022600Y0057439D02*
X0041539Y0057439D01*
X0043419Y0058177D02*
X0043419Y0058177D01*
X0038995Y0056440D02*
X0022600Y0056440D01*
X0022600Y0055442D02*
X0037664Y0055442D01*
X0036412Y0054443D02*
X0022600Y0054443D01*
X0022600Y0053445D02*
X0035160Y0053445D01*
X0034995Y0053313D02*
X0034995Y0053313D01*
X0034995Y0053313D01*
X0034404Y0052446D02*
X0022600Y0052446D01*
X0022600Y0051448D02*
X0033723Y0051448D01*
X0033043Y0050449D02*
X0022600Y0050449D01*
X0022600Y0049451D02*
X0032362Y0049451D01*
X0032225Y0049250D02*
X0032225Y0049250D01*
X0031979Y0048452D02*
X0022600Y0048452D01*
X0022600Y0047454D02*
X0031671Y0047454D01*
X0031363Y0046455D02*
X0022600Y0046455D01*
X0022600Y0045457D02*
X0031055Y0045457D01*
X0030775Y0044458D02*
X0022600Y0044458D01*
X0022600Y0043460D02*
X0030775Y0043460D01*
X0030775Y0042461D02*
X0022600Y0042461D01*
X0022600Y0041463D02*
X0030775Y0041463D01*
X0030775Y0040464D02*
X0022600Y0040464D01*
X0022600Y0039466D02*
X0030826Y0039466D01*
X0031134Y0038467D02*
X0022600Y0038467D01*
X0022600Y0037469D02*
X0031442Y0037469D01*
X0031750Y0036470D02*
X0022600Y0036470D01*
X0022647Y0035472D02*
X0032058Y0035472D01*
X0032225Y0034931D02*
X0032225Y0034931D01*
X0032537Y0034473D02*
X0022712Y0034473D01*
X0022835Y0033475D02*
X0033218Y0033475D01*
X0033899Y0032476D02*
X0023103Y0032476D01*
X0023370Y0031478D02*
X0034579Y0031478D01*
X0034995Y0030868D02*
X0034995Y0030868D01*
X0035482Y0030479D02*
X0023638Y0030479D01*
X0023905Y0029481D02*
X0036734Y0029481D01*
X0037987Y0028482D02*
X0024356Y0028482D01*
X0024932Y0027484D02*
X0039650Y0027484D01*
X0038841Y0027801D02*
X0038841Y0027801D01*
X0042194Y0026485D02*
X0025509Y0026485D01*
X0043419Y0026004D02*
X0043419Y0026004D01*
X0048324Y0025637D02*
X0048324Y0025637D01*
X0022600Y0059436D02*
X0131008Y0059436D01*
X0130010Y0060434D02*
X0022600Y0060434D01*
X0022600Y0061433D02*
X0129011Y0061433D01*
X0128013Y0062432D02*
X0022600Y0062432D01*
X0022600Y0063430D02*
X0127014Y0063430D01*
X0126016Y0064429D02*
X0022600Y0064429D01*
X0022600Y0065427D02*
X0125017Y0065427D01*
X0124019Y0066426D02*
X0022600Y0066426D01*
X0022600Y0067424D02*
X0123020Y0067424D01*
X0122022Y0068423D02*
X0022600Y0068423D01*
X0022600Y0069421D02*
X0121023Y0069421D01*
X0120025Y0070420D02*
X0022600Y0070420D01*
X0022600Y0071418D02*
X0119026Y0071418D01*
X0118028Y0072417D02*
X0022600Y0072417D01*
X0022600Y0073415D02*
X0117029Y0073415D01*
X0116031Y0074414D02*
X0022600Y0074414D01*
X0022600Y0075412D02*
X0115032Y0075412D01*
X0114193Y0076411D02*
X0022600Y0076411D01*
X0022600Y0077409D02*
X0114193Y0077409D01*
X0114193Y0078408D02*
X0022600Y0078408D01*
X0022600Y0079406D02*
X0114193Y0079406D01*
X0114193Y0080405D02*
X0022600Y0080405D01*
X0022600Y0081403D02*
X0114193Y0081403D01*
X0114193Y0082402D02*
X0022600Y0082402D01*
X0022600Y0083400D02*
X0114193Y0083400D01*
X0114193Y0084399D02*
X0022600Y0084399D01*
X0022600Y0085397D02*
X0114193Y0085397D01*
X0114193Y0086396D02*
X0022600Y0086396D01*
X0022600Y0087394D02*
X0114193Y0087394D01*
X0114193Y0088393D02*
X0022600Y0088393D01*
X0022600Y0089391D02*
X0114193Y0089391D01*
X0114193Y0090390D02*
X0022600Y0090390D01*
X0022600Y0091388D02*
X0114193Y0091388D01*
X0114193Y0092387D02*
X0022600Y0092387D01*
X0022600Y0093385D02*
X0048442Y0093385D01*
X0047443Y0094384D02*
X0022600Y0094384D01*
X0022600Y0095382D02*
X0046445Y0095382D01*
X0045446Y0096381D02*
X0022600Y0096381D01*
X0022600Y0097379D02*
X0044448Y0097379D01*
X0043449Y0098378D02*
X0022600Y0098378D01*
X0022600Y0099376D02*
X0042451Y0099376D01*
X0041595Y0100375D02*
X0022600Y0100375D01*
X0022600Y0101373D02*
X0041193Y0101373D01*
X0041193Y0102372D02*
X0022600Y0102372D01*
X0022600Y0103370D02*
X0041193Y0103370D01*
X0041193Y0104369D02*
X0022600Y0104369D01*
X0022600Y0105368D02*
X0041193Y0105368D01*
X0041193Y0106366D02*
X0022600Y0106366D01*
X0022600Y0107365D02*
X0041193Y0107365D01*
X0041193Y0108363D02*
X0022600Y0108363D01*
X0022600Y0109362D02*
X0041193Y0109362D01*
X0041193Y0110360D02*
X0022600Y0110360D01*
X0022600Y0111359D02*
X0041193Y0111359D01*
X0041193Y0112357D02*
X0022600Y0112357D01*
X0022600Y0113356D02*
X0041193Y0113356D01*
X0041193Y0114354D02*
X0022600Y0114354D01*
X0022600Y0115353D02*
X0041193Y0115353D01*
X0041193Y0116351D02*
X0022600Y0116351D01*
X0022600Y0117350D02*
X0041193Y0117350D01*
X0041193Y0118348D02*
X0022600Y0118348D01*
X0022600Y0119347D02*
X0041193Y0119347D01*
X0041193Y0120345D02*
X0022600Y0120345D01*
X0022600Y0121344D02*
X0041193Y0121344D01*
X0041193Y0122342D02*
X0022600Y0122342D01*
X0022600Y0123341D02*
X0041193Y0123341D01*
X0041193Y0124339D02*
X0022600Y0124339D01*
X0022600Y0125338D02*
X0041193Y0125338D01*
X0041193Y0126336D02*
X0022600Y0126336D01*
X0022600Y0127335D02*
X0041193Y0127335D01*
X0041193Y0128333D02*
X0022600Y0128333D01*
X0022600Y0129332D02*
X0041193Y0129332D01*
X0041193Y0130330D02*
X0022600Y0130330D01*
X0022600Y0131329D02*
X0041193Y0131329D01*
X0041193Y0132327D02*
X0022600Y0132327D01*
X0022600Y0133326D02*
X0041193Y0133326D01*
X0041193Y0134324D02*
X0022600Y0134324D01*
X0022600Y0135323D02*
X0041193Y0135323D01*
X0041193Y0136321D02*
X0022600Y0136321D01*
X0022600Y0137320D02*
X0041193Y0137320D01*
X0041193Y0138318D02*
X0022600Y0138318D01*
X0022600Y0139317D02*
X0041193Y0139317D01*
X0041193Y0140315D02*
X0022600Y0140315D01*
X0022600Y0141314D02*
X0041193Y0141314D01*
X0041193Y0142312D02*
X0022600Y0142312D01*
X0022600Y0143311D02*
X0041193Y0143311D01*
X0041193Y0144309D02*
X0022600Y0144309D01*
X0022600Y0145308D02*
X0041193Y0145308D01*
X0041193Y0146306D02*
X0022600Y0146306D01*
X0022600Y0147305D02*
X0041193Y0147305D01*
X0041193Y0148303D02*
X0022600Y0148303D01*
X0022600Y0149302D02*
X0041193Y0149302D01*
X0041193Y0150301D02*
X0022600Y0150301D01*
X0022600Y0151299D02*
X0041193Y0151299D01*
X0041193Y0152298D02*
X0022600Y0152298D01*
X0022600Y0153296D02*
X0041193Y0153296D01*
X0041193Y0154295D02*
X0022600Y0154295D01*
X0022600Y0155293D02*
X0041193Y0155293D01*
X0041193Y0156292D02*
X0022600Y0156292D01*
X0022600Y0157290D02*
X0041193Y0157290D01*
X0041193Y0158289D02*
X0022600Y0158289D01*
X0022600Y0159287D02*
X0041193Y0159287D01*
X0041193Y0160286D02*
X0022600Y0160286D01*
X0022600Y0161284D02*
X0041193Y0161284D01*
X0041193Y0162283D02*
X0031841Y0162283D01*
X0031701Y0162224D02*
X0032335Y0162487D01*
X0032905Y0162868D01*
X0033391Y0163354D01*
X0033772Y0163924D01*
X0034035Y0164558D01*
X0034168Y0165232D01*
X0034168Y0165575D01*
X0034168Y0165918D01*
X0034035Y0166591D01*
X0033772Y0167225D01*
X0033391Y0167796D01*
X0032905Y0168281D01*
X0032335Y0168663D01*
X0031701Y0168925D01*
X0031027Y0169059D01*
X0028500Y0169059D01*
X0028500Y0165575D01*
X0028500Y0165575D01*
X0028500Y0169059D01*
X0025973Y0169059D01*
X0025299Y0168925D01*
X0024665Y0168663D01*
X0024095Y0168281D01*
X0023609Y0167796D01*
X0023228Y0167225D01*
X0022965Y0166591D01*
X0022831Y0165918D01*
X0022831Y0165575D01*
X0028500Y0165575D01*
X0034168Y0165575D01*
X0028500Y0165575D01*
X0028500Y0165575D01*
X0028500Y0165575D01*
X0022831Y0165575D01*
X0022831Y0165232D01*
X0022965Y0164558D01*
X0023228Y0163924D01*
X0023609Y0163354D01*
X0024095Y0162868D01*
X0024665Y0162487D01*
X0025299Y0162224D01*
X0025973Y0162091D01*
X0028500Y0162091D01*
X0031027Y0162091D01*
X0031701Y0162224D01*
X0033318Y0163281D02*
X0041193Y0163281D01*
X0041193Y0164280D02*
X0033919Y0164280D01*
X0034168Y0165278D02*
X0041193Y0165278D01*
X0041193Y0166277D02*
X0034097Y0166277D01*
X0033739Y0167275D02*
X0035089Y0167275D01*
X0034487Y0167878D02*
X0035823Y0166542D01*
X0037713Y0166542D01*
X0039049Y0167878D01*
X0039049Y0169768D01*
X0037713Y0171104D01*
X0035823Y0171104D01*
X0034487Y0169768D01*
X0034487Y0167878D01*
X0034487Y0168274D02*
X0032913Y0168274D01*
X0034487Y0169272D02*
X0022600Y0169272D01*
X0022600Y0168274D02*
X0024087Y0168274D01*
X0023261Y0167275D02*
X0022600Y0167275D01*
X0022600Y0166277D02*
X0022903Y0166277D01*
X0022831Y0165278D02*
X0022600Y0165278D01*
X0022600Y0164280D02*
X0023081Y0164280D01*
X0022600Y0163281D02*
X0023682Y0163281D01*
X0022600Y0162283D02*
X0025159Y0162283D01*
X0028500Y0162283D02*
X0028500Y0162283D01*
X0028500Y0162091D02*
X0028500Y0165575D01*
X0028500Y0165575D01*
X0028500Y0162091D01*
X0028500Y0163281D02*
X0028500Y0163281D01*
X0028500Y0164280D02*
X0028500Y0164280D01*
X0028500Y0165278D02*
X0028500Y0165278D01*
X0028500Y0166277D02*
X0028500Y0166277D01*
X0028500Y0167275D02*
X0028500Y0167275D01*
X0028500Y0168274D02*
X0028500Y0168274D01*
X0022600Y0170271D02*
X0034990Y0170271D01*
X0038546Y0170271D02*
X0041193Y0170271D01*
X0041193Y0171269D02*
X0022600Y0171269D01*
X0022600Y0172268D02*
X0041193Y0172268D01*
X0041193Y0173266D02*
X0022600Y0173266D01*
X0022600Y0174265D02*
X0041193Y0174265D01*
X0041193Y0175263D02*
X0022600Y0175263D01*
X0022600Y0176262D02*
X0041193Y0176262D01*
X0041193Y0177260D02*
X0022600Y0177260D01*
X0022600Y0178259D02*
X0041193Y0178259D01*
X0041193Y0179257D02*
X0022600Y0179257D01*
X0022600Y0180256D02*
X0041193Y0180256D01*
X0041233Y0181254D02*
X0022600Y0181254D01*
X0022600Y0182253D02*
X0035466Y0182253D01*
X0035823Y0181896D02*
X0037713Y0181896D01*
X0039049Y0183232D01*
X0039049Y0185122D01*
X0037713Y0186458D01*
X0035823Y0186458D01*
X0034487Y0185122D01*
X0034487Y0183232D01*
X0035823Y0181896D01*
X0034487Y0183251D02*
X0022600Y0183251D01*
X0022600Y0184250D02*
X0024877Y0184250D01*
X0024665Y0184337D02*
X0025299Y0184075D01*
X0025973Y0183941D01*
X0028500Y0183941D01*
X0031027Y0183941D01*
X0031701Y0184075D01*
X0032335Y0184337D01*
X0032905Y0184719D01*
X0033391Y0185204D01*
X0033772Y0185775D01*
X0034035Y0186409D01*
X0034168Y0187082D01*
X0034168Y0187425D01*
X0028500Y0187425D01*
X0028500Y0183941D01*
X0028500Y0187425D01*
X0028500Y0187425D01*
X0022831Y0187425D01*
X0022831Y0187082D01*
X0022965Y0186409D01*
X0023228Y0185775D01*
X0023609Y0185204D01*
X0024095Y0184719D01*
X0024665Y0184337D01*
X0023580Y0185248D02*
X0022600Y0185248D01*
X0022600Y0186247D02*
X0023032Y0186247D01*
X0022831Y0187245D02*
X0022600Y0187245D01*
X0022831Y0187425D02*
X0028500Y0187425D01*
X0028500Y0187425D01*
X0028500Y0187425D01*
X0034168Y0187425D01*
X0034168Y0187768D01*
X0034035Y0188442D01*
X0033772Y0189076D01*
X0033391Y0189646D01*
X0032905Y0190132D01*
X0032335Y0190513D01*
X0031701Y0190776D01*
X0031027Y0190909D01*
X0028500Y0190909D01*
X0025973Y0190909D01*
X0025299Y0190776D01*
X0024665Y0190513D01*
X0024095Y0190132D01*
X0023609Y0189646D01*
X0023228Y0189076D01*
X0022965Y0188442D01*
X0022831Y0187768D01*
X0022831Y0187425D01*
X0022926Y0188244D02*
X0022600Y0188244D01*
X0022600Y0189242D02*
X0023340Y0189242D01*
X0022600Y0190241D02*
X0024258Y0190241D01*
X0022600Y0191239D02*
X0050563Y0191239D01*
X0049564Y0190241D02*
X0032742Y0190241D01*
X0033660Y0189242D02*
X0048566Y0189242D01*
X0047567Y0188244D02*
X0034074Y0188244D01*
X0034168Y0187245D02*
X0046569Y0187245D01*
X0045570Y0186247D02*
X0037924Y0186247D01*
X0038922Y0185248D02*
X0044571Y0185248D01*
X0043573Y0184250D02*
X0039049Y0184250D01*
X0039049Y0183251D02*
X0042574Y0183251D01*
X0041647Y0182253D02*
X0038069Y0182253D01*
X0034487Y0184250D02*
X0032123Y0184250D01*
X0033420Y0185248D02*
X0034613Y0185248D01*
X0033968Y0186247D02*
X0035612Y0186247D01*
X0042164Y0193755D02*
X0044004Y0192993D01*
X0045996Y0192993D01*
X0047836Y0193755D01*
X0049245Y0195164D01*
X0050007Y0197004D01*
X0050007Y0198996D01*
X0049245Y0200836D01*
X0047836Y0202245D01*
X0045996Y0203007D01*
X0044004Y0203007D01*
X0042164Y0202245D01*
X0040755Y0200836D01*
X0039993Y0198996D01*
X0039993Y0197004D01*
X0040755Y0195164D01*
X0042164Y0193755D01*
X0041684Y0194235D02*
X0022600Y0194235D01*
X0022600Y0193237D02*
X0043416Y0193237D01*
X0046584Y0193237D02*
X0052560Y0193237D01*
X0053193Y0194235D02*
X0048316Y0194235D01*
X0049274Y0195234D02*
X0053193Y0195234D01*
X0053193Y0196232D02*
X0049687Y0196232D01*
X0050007Y0197231D02*
X0053193Y0197231D01*
X0053193Y0198229D02*
X0050007Y0198229D01*
X0049911Y0199228D02*
X0053193Y0199228D01*
X0053193Y0200226D02*
X0049498Y0200226D01*
X0048856Y0201225D02*
X0053193Y0201225D01*
X0053193Y0202223D02*
X0047858Y0202223D01*
X0042142Y0202223D02*
X0022600Y0202223D01*
X0022600Y0201225D02*
X0041144Y0201225D01*
X0040502Y0200226D02*
X0022600Y0200226D01*
X0022600Y0199228D02*
X0040089Y0199228D01*
X0039993Y0198229D02*
X0022600Y0198229D01*
X0022600Y0197231D02*
X0039993Y0197231D01*
X0040313Y0196232D02*
X0022600Y0196232D01*
X0022600Y0195234D02*
X0040726Y0195234D01*
X0051561Y0192238D02*
X0022600Y0192238D01*
X0028500Y0190909D02*
X0028500Y0187425D01*
X0028500Y0187425D01*
X0028500Y0190909D01*
X0028500Y0190241D02*
X0028500Y0190241D01*
X0028500Y0189242D02*
X0028500Y0189242D01*
X0028500Y0188244D02*
X0028500Y0188244D01*
X0028500Y0187245D02*
X0028500Y0187245D01*
X0028500Y0186247D02*
X0028500Y0186247D01*
X0028500Y0185248D02*
X0028500Y0185248D01*
X0028500Y0184250D02*
X0028500Y0184250D01*
X0039049Y0169272D02*
X0041193Y0169272D01*
X0041193Y0168274D02*
X0039049Y0168274D01*
X0038446Y0167275D02*
X0041193Y0167275D01*
X0047807Y0167275D02*
X0081593Y0167275D01*
X0081593Y0166277D02*
X0047807Y0166277D01*
X0047807Y0165278D02*
X0081593Y0165278D01*
X0081593Y0164280D02*
X0047807Y0164280D01*
X0047807Y0163281D02*
X0081593Y0163281D01*
X0081593Y0162283D02*
X0047807Y0162283D01*
X0047807Y0161284D02*
X0081593Y0161284D01*
X0081593Y0160286D02*
X0047807Y0160286D01*
X0047807Y0159287D02*
X0081593Y0159287D01*
X0081593Y0158289D02*
X0047807Y0158289D01*
X0047807Y0157290D02*
X0081593Y0157290D01*
X0081593Y0156292D02*
X0047807Y0156292D01*
X0047807Y0155293D02*
X0081593Y0155293D01*
X0081116Y0154295D02*
X0047807Y0154295D01*
X0047807Y0153296D02*
X0080802Y0153296D01*
X0080871Y0152298D02*
X0047807Y0152298D01*
X0047807Y0151299D02*
X0081386Y0151299D01*
X0081593Y0168274D02*
X0047807Y0168274D01*
X0047807Y0169272D02*
X0081593Y0169272D01*
X0081593Y0170271D02*
X0047807Y0170271D01*
X0047807Y0171269D02*
X0081593Y0171269D01*
X0081593Y0172268D02*
X0047807Y0172268D01*
X0047807Y0173266D02*
X0081593Y0173266D01*
X0081593Y0174265D02*
X0047807Y0174265D01*
X0047807Y0175263D02*
X0081593Y0175263D01*
X0081593Y0176262D02*
X0047807Y0176262D01*
X0047807Y0177260D02*
X0081593Y0177260D01*
X0081593Y0178259D02*
X0047807Y0178259D01*
X0047934Y0179257D02*
X0081593Y0179257D01*
X0081593Y0180256D02*
X0048933Y0180256D01*
X0049931Y0181254D02*
X0081593Y0181254D01*
X0081593Y0182253D02*
X0050930Y0182253D01*
X0051928Y0183251D02*
X0081554Y0183251D01*
X0081593Y0184250D02*
X0052927Y0184250D01*
X0053925Y0185248D02*
X0082551Y0185248D01*
X0083881Y0186247D02*
X0054924Y0186247D01*
X0055922Y0187245D02*
X0085129Y0187245D01*
X0086377Y0188244D02*
X0056921Y0188244D01*
X0057919Y0189242D02*
X0087625Y0189242D01*
X0088873Y0190241D02*
X0058918Y0190241D01*
X0059557Y0191239D02*
X0089093Y0191239D01*
X0089093Y0192238D02*
X0059807Y0192238D01*
X0059807Y0193237D02*
X0089093Y0193237D01*
X0089093Y0194235D02*
X0076288Y0194235D01*
X0077315Y0195234D02*
X0089093Y0195234D01*
X0089093Y0196232D02*
X0077980Y0196232D01*
X0078394Y0197231D02*
X0089093Y0197231D01*
X0089093Y0198229D02*
X0078507Y0198229D01*
X0078507Y0199228D02*
X0089093Y0199228D01*
X0089093Y0200226D02*
X0078205Y0200226D01*
X0077791Y0201225D02*
X0089093Y0201225D01*
X0089093Y0202223D02*
X0076907Y0202223D01*
X0076907Y0203222D02*
X0089093Y0203222D01*
X0089093Y0204220D02*
X0076907Y0204220D01*
X0076907Y0205219D02*
X0089093Y0205219D01*
X0089093Y0206217D02*
X0076907Y0206217D01*
X0076907Y0207216D02*
X0089093Y0207216D01*
X0089093Y0208214D02*
X0076907Y0208214D01*
X0076907Y0209213D02*
X0089093Y0209213D01*
X0089093Y0210211D02*
X0076907Y0210211D01*
X0076907Y0211210D02*
X0089093Y0211210D01*
X0089093Y0212208D02*
X0076907Y0212208D01*
X0076907Y0213207D02*
X0089093Y0213207D01*
X0089093Y0214205D02*
X0076907Y0214205D01*
X0076907Y0215204D02*
X0089093Y0215204D01*
X0089093Y0216202D02*
X0076907Y0216202D01*
X0076907Y0217201D02*
X0089093Y0217201D01*
X0089093Y0218199D02*
X0076907Y0218199D01*
X0076907Y0219198D02*
X0089093Y0219198D01*
X0089093Y0220196D02*
X0076907Y0220196D01*
X0076907Y0221195D02*
X0089093Y0221195D01*
X0089093Y0222193D02*
X0076907Y0222193D01*
X0076907Y0223192D02*
X0089093Y0223192D01*
X0089093Y0224190D02*
X0076907Y0224190D01*
X0076907Y0225189D02*
X0089093Y0225189D01*
X0089093Y0226187D02*
X0076907Y0226187D01*
X0076907Y0227186D02*
X0089093Y0227186D01*
X0089093Y0228184D02*
X0076907Y0228184D01*
X0076907Y0229183D02*
X0089093Y0229183D01*
X0089093Y0230181D02*
X0076907Y0230181D01*
X0076907Y0231180D02*
X0089093Y0231180D01*
X0089093Y0232178D02*
X0076907Y0232178D01*
X0076907Y0233177D02*
X0089093Y0233177D01*
X0089093Y0234175D02*
X0076907Y0234175D01*
X0076907Y0235174D02*
X0089093Y0235174D01*
X0089093Y0236172D02*
X0076907Y0236172D01*
X0076907Y0237171D02*
X0089093Y0237171D01*
X0089093Y0238170D02*
X0076907Y0238170D01*
X0076907Y0239168D02*
X0089093Y0239168D01*
X0089093Y0240167D02*
X0076907Y0240167D01*
X0076907Y0241165D02*
X0089093Y0241165D01*
X0089093Y0242164D02*
X0076907Y0242164D01*
X0076907Y0243162D02*
X0089093Y0243162D01*
X0089093Y0244161D02*
X0076907Y0244161D01*
X0076907Y0245159D02*
X0089093Y0245159D01*
X0089093Y0246158D02*
X0076907Y0246158D01*
X0076907Y0247156D02*
X0080944Y0247156D01*
X0079664Y0248155D02*
X0076907Y0248155D01*
X0071093Y0248155D02*
X0061336Y0248155D01*
X0061945Y0248764D02*
X0062707Y0250604D01*
X0062707Y0252596D01*
X0061945Y0254436D01*
X0060536Y0255845D01*
X0058696Y0256607D01*
X0056704Y0256607D01*
X0054864Y0255845D01*
X0053455Y0254436D01*
X0052693Y0252596D01*
X0052693Y0250604D01*
X0053455Y0248764D01*
X0054864Y0247355D01*
X0056704Y0246593D01*
X0058696Y0246593D01*
X0060536Y0247355D01*
X0061945Y0248764D01*
X0062106Y0249153D02*
X0071093Y0249153D01*
X0071093Y0250152D02*
X0062520Y0250152D01*
X0062707Y0251150D02*
X0071093Y0251150D01*
X0071093Y0252149D02*
X0062707Y0252149D01*
X0062479Y0253147D02*
X0071093Y0253147D01*
X0071093Y0254146D02*
X0062065Y0254146D01*
X0061237Y0255144D02*
X0071093Y0255144D01*
X0071093Y0256143D02*
X0059817Y0256143D01*
X0055583Y0256143D02*
X0022600Y0256143D01*
X0022600Y0257141D02*
X0071093Y0257141D01*
X0071093Y0258140D02*
X0022600Y0258140D01*
X0022600Y0259138D02*
X0071093Y0259138D01*
X0071093Y0260137D02*
X0022600Y0260137D01*
X0022600Y0261135D02*
X0071093Y0261135D01*
X0071093Y0262134D02*
X0022600Y0262134D01*
X0022600Y0263132D02*
X0071093Y0263132D01*
X0071093Y0264131D02*
X0022600Y0264131D01*
X0022600Y0265129D02*
X0054926Y0265129D01*
X0054864Y0265155D02*
X0056704Y0264393D01*
X0058696Y0264393D01*
X0060536Y0265155D01*
X0061945Y0266564D01*
X0062707Y0268404D01*
X0062707Y0270396D01*
X0061945Y0272236D01*
X0060536Y0273645D01*
X0058696Y0274407D01*
X0056704Y0274407D01*
X0054864Y0273645D01*
X0053455Y0272236D01*
X0052693Y0270396D01*
X0052693Y0268404D01*
X0053455Y0266564D01*
X0054864Y0265155D01*
X0053891Y0266128D02*
X0022600Y0266128D01*
X0022600Y0267126D02*
X0053222Y0267126D01*
X0052809Y0268125D02*
X0022600Y0268125D01*
X0022600Y0269123D02*
X0052693Y0269123D01*
X0052693Y0270122D02*
X0022600Y0270122D01*
X0022600Y0271120D02*
X0052993Y0271120D01*
X0053407Y0272119D02*
X0022600Y0272119D01*
X0022600Y0273117D02*
X0054336Y0273117D01*
X0056001Y0274116D02*
X0047279Y0274116D01*
X0043721Y0274116D02*
X0022600Y0274116D01*
X0022600Y0275114D02*
X0042502Y0275114D01*
X0041954Y0276113D02*
X0022600Y0276113D01*
X0022600Y0277111D02*
X0041693Y0277111D01*
X0041693Y0278110D02*
X0022600Y0278110D01*
X0022600Y0279108D02*
X0042045Y0279108D01*
X0042723Y0280107D02*
X0022600Y0280107D01*
X0022600Y0281105D02*
X0044256Y0281105D01*
X0046744Y0281105D02*
X0068593Y0281105D01*
X0068593Y0282104D02*
X0022600Y0282104D01*
X0022600Y0283103D02*
X0068593Y0283103D01*
X0068593Y0284101D02*
X0022600Y0284101D01*
X0022600Y0285100D02*
X0068593Y0285100D01*
X0068593Y0286098D02*
X0022600Y0286098D01*
X0022600Y0287097D02*
X0068593Y0287097D01*
X0068593Y0288095D02*
X0022600Y0288095D01*
X0022600Y0289094D02*
X0068593Y0289094D01*
X0068593Y0290092D02*
X0022600Y0290092D01*
X0022600Y0291091D02*
X0068593Y0291091D01*
X0068593Y0292089D02*
X0022600Y0292089D01*
X0022600Y0293088D02*
X0068593Y0293088D01*
X0068593Y0294086D02*
X0022600Y0294086D01*
X0022600Y0295085D02*
X0068593Y0295085D01*
X0068593Y0296083D02*
X0022600Y0296083D01*
X0022600Y0297082D02*
X0068593Y0297082D01*
X0068593Y0298080D02*
X0022600Y0298080D01*
X0022600Y0299079D02*
X0068593Y0299079D01*
X0068593Y0300077D02*
X0022600Y0300077D01*
X0022600Y0301076D02*
X0068593Y0301076D01*
X0068593Y0302074D02*
X0022600Y0302074D01*
X0022600Y0303073D02*
X0068593Y0303073D01*
X0068593Y0304071D02*
X0022600Y0304071D01*
X0022600Y0305070D02*
X0068593Y0305070D01*
X0068593Y0306068D02*
X0022600Y0306068D01*
X0022600Y0307067D02*
X0068593Y0307067D01*
X0068593Y0308065D02*
X0022600Y0308065D01*
X0022600Y0309064D02*
X0068593Y0309064D01*
X0068593Y0310062D02*
X0022600Y0310062D01*
X0022600Y0311061D02*
X0068593Y0311061D01*
X0068593Y0312059D02*
X0022600Y0312059D01*
X0022600Y0313058D02*
X0068593Y0313058D01*
X0068593Y0314056D02*
X0022600Y0314056D01*
X0022600Y0315055D02*
X0068593Y0315055D01*
X0068593Y0316053D02*
X0022600Y0316053D01*
X0022600Y0317052D02*
X0068593Y0317052D01*
X0068593Y0318050D02*
X0022600Y0318050D01*
X0022600Y0319049D02*
X0068593Y0319049D01*
X0068593Y0320047D02*
X0022600Y0320047D01*
X0022600Y0321046D02*
X0068593Y0321046D01*
X0068593Y0322044D02*
X0022600Y0322044D01*
X0022600Y0323043D02*
X0068593Y0323043D01*
X0068593Y0324041D02*
X0022600Y0324041D01*
X0022600Y0325040D02*
X0068593Y0325040D01*
X0068593Y0326039D02*
X0022600Y0326039D01*
X0022600Y0327037D02*
X0068593Y0327037D01*
X0068593Y0328036D02*
X0022600Y0328036D01*
X0022600Y0329034D02*
X0068593Y0329034D01*
X0068593Y0330033D02*
X0022600Y0330033D01*
X0022600Y0331031D02*
X0068593Y0331031D01*
X0068593Y0332030D02*
X0022600Y0332030D01*
X0022600Y0333028D02*
X0068593Y0333028D01*
X0068593Y0334027D02*
X0022600Y0334027D01*
X0022600Y0335025D02*
X0068593Y0335025D01*
X0068593Y0336024D02*
X0022600Y0336024D01*
X0022600Y0337022D02*
X0068593Y0337022D01*
X0068593Y0338021D02*
X0022600Y0338021D01*
X0022600Y0339019D02*
X0068593Y0339019D01*
X0068593Y0340018D02*
X0022600Y0340018D01*
X0022600Y0341016D02*
X0068593Y0341016D01*
X0068593Y0342015D02*
X0022600Y0342015D01*
X0022600Y0343013D02*
X0068593Y0343013D01*
X0068593Y0344012D02*
X0022600Y0344012D01*
X0022600Y0345010D02*
X0068593Y0345010D01*
X0068593Y0346009D02*
X0022600Y0346009D01*
X0022600Y0347007D02*
X0068593Y0347007D01*
X0068593Y0348006D02*
X0022600Y0348006D01*
X0022600Y0349004D02*
X0068593Y0349004D01*
X0068593Y0350003D02*
X0022600Y0350003D01*
X0022600Y0351001D02*
X0068593Y0351001D01*
X0068593Y0352000D02*
X0022600Y0352000D01*
X0022600Y0352998D02*
X0068593Y0352998D01*
X0068593Y0353997D02*
X0022600Y0353997D01*
X0022600Y0354995D02*
X0068593Y0354995D01*
X0068593Y0355994D02*
X0022600Y0355994D01*
X0022600Y0356992D02*
X0068593Y0356992D01*
X0068593Y0357991D02*
X0022600Y0357991D01*
X0022600Y0358989D02*
X0068593Y0358989D01*
X0068593Y0359988D02*
X0022600Y0359988D01*
X0022600Y0360986D02*
X0068593Y0360986D01*
X0068593Y0361985D02*
X0022600Y0361985D01*
X0022600Y0362983D02*
X0068593Y0362983D01*
X0068593Y0363982D02*
X0022600Y0363982D01*
X0022600Y0364980D02*
X0068593Y0364980D01*
X0068593Y0365979D02*
X0022600Y0365979D01*
X0022600Y0366977D02*
X0068593Y0366977D01*
X0068593Y0367976D02*
X0022600Y0367976D01*
X0022600Y0368974D02*
X0042271Y0368974D01*
X0043419Y0368524D02*
X0043419Y0368524D01*
X0048324Y0368156D01*
X0053119Y0369251D01*
X0057378Y0371710D01*
X0060723Y0375315D01*
X0062857Y0379747D01*
X0062857Y0379747D01*
X0063591Y0384610D01*
X0062857Y0389474D01*
X0060723Y0393905D01*
X0057378Y0397510D01*
X0053119Y0399970D01*
X0053119Y0399970D01*
X0048324Y0401064D01*
X0048324Y0401064D01*
X0043419Y0400697D01*
X0038841Y0398900D01*
X0038841Y0398900D01*
X0034995Y0395833D01*
X0032225Y0391769D01*
X0030775Y0387069D01*
X0030775Y0382151D01*
X0032225Y0377451D01*
X0034995Y0373387D01*
X0038841Y0370321D01*
X0043419Y0368524D01*
X0039727Y0369973D02*
X0022600Y0369973D01*
X0022600Y0370972D02*
X0038025Y0370972D01*
X0038841Y0370321D02*
X0038841Y0370321D01*
X0036772Y0371970D02*
X0022600Y0371970D01*
X0022600Y0372969D02*
X0035520Y0372969D01*
X0034995Y0373387D02*
X0034995Y0373387D01*
X0034995Y0373387D01*
X0034600Y0373967D02*
X0022600Y0373967D01*
X0022600Y0374966D02*
X0033919Y0374966D01*
X0033238Y0375964D02*
X0022600Y0375964D01*
X0022600Y0376963D02*
X0032558Y0376963D01*
X0032225Y0377451D02*
X0032225Y0377451D01*
X0032067Y0377961D02*
X0022600Y0377961D01*
X0022600Y0378960D02*
X0031759Y0378960D01*
X0031451Y0379958D02*
X0022600Y0379958D01*
X0022600Y0380957D02*
X0031143Y0380957D01*
X0030835Y0381955D02*
X0022600Y0381955D01*
X0022600Y0382954D02*
X0030775Y0382954D01*
X0030775Y0383952D02*
X0022600Y0383952D01*
X0022600Y0384951D02*
X0030775Y0384951D01*
X0030775Y0385949D02*
X0022600Y0385949D01*
X0022600Y0386948D02*
X0030775Y0386948D01*
X0031045Y0387946D02*
X0022600Y0387946D01*
X0022600Y0388945D02*
X0031353Y0388945D01*
X0031661Y0389943D02*
X0022600Y0389943D01*
X0022628Y0390942D02*
X0031969Y0390942D01*
X0032225Y0391769D02*
X0032225Y0391769D01*
X0032341Y0391940D02*
X0022693Y0391940D01*
X0022759Y0392939D02*
X0033022Y0392939D01*
X0033703Y0393937D02*
X0023026Y0393937D01*
X0023293Y0394936D02*
X0034383Y0394936D01*
X0034995Y0395833D02*
X0034995Y0395833D01*
X0035122Y0395934D02*
X0023561Y0395934D01*
X0023828Y0396933D02*
X0036374Y0396933D01*
X0037626Y0397931D02*
X0024190Y0397931D01*
X0024015Y0397628D02*
X0024015Y0397628D01*
X0024766Y0398930D02*
X0038917Y0398930D01*
X0041462Y0399928D02*
X0025343Y0399928D01*
X0025919Y0400927D02*
X0046492Y0400927D01*
X0048925Y0400927D02*
X0089816Y0400927D01*
X0090814Y0401925D02*
X0026536Y0401925D01*
X0027535Y0402924D02*
X0091813Y0402924D01*
X0092811Y0403922D02*
X0028533Y0403922D01*
X0029532Y0404921D02*
X0093810Y0404921D01*
X0088817Y0399928D02*
X0053190Y0399928D01*
X0054920Y0398930D02*
X0087819Y0398930D01*
X0086820Y0397931D02*
X0056649Y0397931D01*
X0057378Y0397510D02*
X0057378Y0397510D01*
X0057914Y0396933D02*
X0085822Y0396933D01*
X0084823Y0395934D02*
X0058841Y0395934D01*
X0059767Y0394936D02*
X0083825Y0394936D01*
X0082826Y0393937D02*
X0060694Y0393937D01*
X0060723Y0393905D02*
X0060723Y0393905D01*
X0061189Y0392939D02*
X0081828Y0392939D01*
X0080829Y0391940D02*
X0061670Y0391940D01*
X0062151Y0390942D02*
X0079831Y0390942D01*
X0078832Y0389943D02*
X0062631Y0389943D01*
X0062857Y0389474D02*
X0062857Y0389474D01*
X0062937Y0388945D02*
X0077834Y0388945D01*
X0076835Y0387946D02*
X0063088Y0387946D01*
X0063238Y0386948D02*
X0075836Y0386948D01*
X0074838Y0385949D02*
X0063389Y0385949D01*
X0063539Y0384951D02*
X0073839Y0384951D01*
X0072841Y0383952D02*
X0063491Y0383952D01*
X0063341Y0382954D02*
X0071842Y0382954D01*
X0070844Y0381955D02*
X0063190Y0381955D01*
X0063040Y0380957D02*
X0069845Y0380957D01*
X0070146Y0381257D02*
X0070146Y0381257D01*
X0069188Y0380299D02*
X0069188Y0380299D01*
X0069047Y0379958D02*
X0062889Y0379958D01*
X0062478Y0378960D02*
X0068633Y0378960D01*
X0068593Y0377961D02*
X0061998Y0377961D01*
X0061517Y0376963D02*
X0068593Y0376963D01*
X0068593Y0375964D02*
X0061036Y0375964D01*
X0060399Y0374966D02*
X0068593Y0374966D01*
X0068593Y0373967D02*
X0059472Y0373967D01*
X0058546Y0372969D02*
X0068593Y0372969D01*
X0068593Y0371970D02*
X0057619Y0371970D01*
X0057378Y0371710D02*
X0057378Y0371710D01*
X0056099Y0370972D02*
X0068593Y0370972D01*
X0068593Y0369973D02*
X0054370Y0369973D01*
X0051908Y0368974D02*
X0068593Y0368974D01*
X0048324Y0368156D02*
X0048324Y0368156D01*
X0074407Y0347007D02*
X0098728Y0347007D01*
X0099158Y0346009D02*
X0074407Y0346009D01*
X0074407Y0345010D02*
X0099919Y0345010D01*
X0101295Y0344012D02*
X0074407Y0344012D01*
X0074407Y0343013D02*
X0112033Y0343013D01*
X0111035Y0342015D02*
X0074407Y0342015D01*
X0074407Y0341016D02*
X0110036Y0341016D01*
X0109038Y0340018D02*
X0074407Y0340018D01*
X0074407Y0339019D02*
X0108039Y0339019D01*
X0107041Y0338021D02*
X0074407Y0338021D01*
X0074407Y0337022D02*
X0106042Y0337022D01*
X0105044Y0336024D02*
X0074407Y0336024D01*
X0074407Y0335025D02*
X0104045Y0335025D01*
X0103047Y0334027D02*
X0074407Y0334027D01*
X0074407Y0333028D02*
X0102048Y0333028D01*
X0101050Y0332030D02*
X0074407Y0332030D01*
X0074407Y0331031D02*
X0100051Y0331031D01*
X0099053Y0330033D02*
X0074407Y0330033D01*
X0074407Y0329034D02*
X0098054Y0329034D01*
X0097056Y0328036D02*
X0074407Y0328036D01*
X0074407Y0327037D02*
X0096057Y0327037D01*
X0095059Y0326039D02*
X0074407Y0326039D01*
X0074407Y0325040D02*
X0094060Y0325040D01*
X0093062Y0324041D02*
X0074407Y0324041D01*
X0074407Y0323043D02*
X0092063Y0323043D01*
X0091065Y0322044D02*
X0074407Y0322044D01*
X0074407Y0321046D02*
X0090066Y0321046D01*
X0089068Y0320047D02*
X0074407Y0320047D01*
X0074407Y0319049D02*
X0088069Y0319049D01*
X0087071Y0318050D02*
X0074407Y0318050D01*
X0074407Y0317052D02*
X0086072Y0317052D01*
X0085074Y0316053D02*
X0074407Y0316053D01*
X0074407Y0315055D02*
X0084075Y0315055D01*
X0083077Y0314056D02*
X0074407Y0314056D01*
X0074407Y0313058D02*
X0082078Y0313058D01*
X0081193Y0312059D02*
X0074407Y0312059D01*
X0074407Y0311061D02*
X0081193Y0311061D01*
X0081193Y0310062D02*
X0074407Y0310062D01*
X0074407Y0309064D02*
X0081193Y0309064D01*
X0081193Y0308065D02*
X0074407Y0308065D01*
X0074407Y0307067D02*
X0081193Y0307067D01*
X0081193Y0306068D02*
X0074407Y0306068D01*
X0074407Y0305070D02*
X0081193Y0305070D01*
X0081193Y0304071D02*
X0074407Y0304071D01*
X0074407Y0303073D02*
X0081193Y0303073D01*
X0081193Y0302074D02*
X0074407Y0302074D01*
X0074407Y0301076D02*
X0081193Y0301076D01*
X0081193Y0300077D02*
X0074407Y0300077D01*
X0074407Y0299079D02*
X0081193Y0299079D01*
X0081193Y0298080D02*
X0074407Y0298080D01*
X0074407Y0297082D02*
X0081193Y0297082D01*
X0081193Y0296083D02*
X0074407Y0296083D01*
X0074407Y0295085D02*
X0081193Y0295085D01*
X0081193Y0294086D02*
X0074407Y0294086D01*
X0074407Y0293088D02*
X0081193Y0293088D01*
X0081193Y0292089D02*
X0074407Y0292089D01*
X0074407Y0291091D02*
X0081193Y0291091D01*
X0081193Y0290092D02*
X0074407Y0290092D01*
X0074407Y0289094D02*
X0081193Y0289094D01*
X0081193Y0288095D02*
X0074407Y0288095D01*
X0074407Y0287097D02*
X0081193Y0287097D01*
X0081193Y0286098D02*
X0074407Y0286098D01*
X0074407Y0285100D02*
X0081193Y0285100D01*
X0081193Y0284101D02*
X0074407Y0284101D01*
X0074407Y0283103D02*
X0081193Y0283103D01*
X0081193Y0282104D02*
X0074407Y0282104D01*
X0074407Y0281105D02*
X0081193Y0281105D01*
X0081193Y0280107D02*
X0074407Y0280107D01*
X0074407Y0279108D02*
X0081193Y0279108D01*
X0081193Y0278110D02*
X0074407Y0278110D01*
X0074407Y0277111D02*
X0081193Y0277111D01*
X0081193Y0276113D02*
X0074407Y0276113D01*
X0074997Y0275114D02*
X0081193Y0275114D01*
X0081193Y0274116D02*
X0075995Y0274116D01*
X0076312Y0273799D02*
X0076312Y0273799D01*
X0076595Y0273117D02*
X0079936Y0273117D01*
X0079007Y0272119D02*
X0076907Y0272119D01*
X0076907Y0271120D02*
X0078593Y0271120D01*
X0078293Y0270122D02*
X0076907Y0270122D01*
X0076907Y0269123D02*
X0078293Y0269123D01*
X0078409Y0268125D02*
X0076907Y0268125D01*
X0076907Y0267126D02*
X0078822Y0267126D01*
X0079491Y0266128D02*
X0076907Y0266128D01*
X0076907Y0265129D02*
X0080526Y0265129D01*
X0076907Y0264131D02*
X0089093Y0264131D01*
X0089093Y0265129D02*
X0086074Y0265129D01*
X0087109Y0266128D02*
X0089093Y0266128D01*
X0089093Y0267126D02*
X0087778Y0267126D01*
X0088191Y0268125D02*
X0089093Y0268125D01*
X0089093Y0269123D02*
X0088307Y0269123D01*
X0088307Y0270122D02*
X0089093Y0270122D01*
X0089093Y0271120D02*
X0088007Y0271120D01*
X0087593Y0272119D02*
X0089093Y0272119D01*
X0089093Y0273117D02*
X0086664Y0273117D01*
X0085407Y0274116D02*
X0089093Y0274116D01*
X0089093Y0275114D02*
X0085407Y0275114D01*
X0085407Y0276113D02*
X0089093Y0276113D01*
X0089093Y0277111D02*
X0085407Y0277111D01*
X0085407Y0278110D02*
X0089093Y0278110D01*
X0089093Y0279108D02*
X0085407Y0279108D01*
X0085407Y0280107D02*
X0089093Y0280107D01*
X0089093Y0281105D02*
X0085407Y0281105D01*
X0085407Y0282104D02*
X0089093Y0282104D01*
X0089093Y0283103D02*
X0085407Y0283103D01*
X0085407Y0284101D02*
X0089093Y0284101D01*
X0089093Y0285100D02*
X0085407Y0285100D01*
X0085407Y0286098D02*
X0089093Y0286098D01*
X0089093Y0287097D02*
X0085407Y0287097D01*
X0085407Y0288095D02*
X0089093Y0288095D01*
X0089093Y0289094D02*
X0085407Y0289094D01*
X0085407Y0290092D02*
X0089093Y0290092D01*
X0089093Y0291091D02*
X0085407Y0291091D01*
X0085407Y0292089D02*
X0089093Y0292089D01*
X0089093Y0293088D02*
X0085407Y0293088D01*
X0085407Y0294086D02*
X0089093Y0294086D01*
X0089093Y0295085D02*
X0085407Y0295085D01*
X0085407Y0296083D02*
X0089093Y0296083D01*
X0089093Y0297082D02*
X0085407Y0297082D01*
X0085407Y0298080D02*
X0089093Y0298080D01*
X0089093Y0299079D02*
X0085407Y0299079D01*
X0085407Y0300077D02*
X0089093Y0300077D01*
X0089093Y0301076D02*
X0085407Y0301076D01*
X0085407Y0302074D02*
X0089093Y0302074D01*
X0089093Y0303073D02*
X0085407Y0303073D01*
X0085407Y0304071D02*
X0089093Y0304071D01*
X0089091Y0305070D02*
X0085407Y0305070D01*
X0085407Y0306068D02*
X0089371Y0306068D01*
X0090341Y0307067D02*
X0085407Y0307067D01*
X0085407Y0308065D02*
X0091300Y0308065D01*
X0092259Y0309064D02*
X0085407Y0309064D01*
X0085407Y0310062D02*
X0093218Y0310062D01*
X0094177Y0311061D02*
X0086041Y0311061D01*
X0087039Y0312059D02*
X0095136Y0312059D01*
X0096095Y0313058D02*
X0088038Y0313058D01*
X0089036Y0314056D02*
X0097055Y0314056D01*
X0098014Y0315055D02*
X0090035Y0315055D01*
X0091033Y0316053D02*
X0098973Y0316053D01*
X0099932Y0317052D02*
X0092032Y0317052D01*
X0093030Y0318050D02*
X0100891Y0318050D01*
X0101850Y0319049D02*
X0094029Y0319049D01*
X0095027Y0320047D02*
X0102809Y0320047D01*
X0103768Y0321046D02*
X0096026Y0321046D01*
X0097024Y0322044D02*
X0104727Y0322044D01*
X0105686Y0323043D02*
X0098023Y0323043D01*
X0099021Y0324041D02*
X0106646Y0324041D01*
X0107605Y0325040D02*
X0100020Y0325040D01*
X0101018Y0326039D02*
X0108564Y0326039D01*
X0109523Y0327037D02*
X0102017Y0327037D01*
X0103015Y0328036D02*
X0110482Y0328036D01*
X0111441Y0329034D02*
X0104014Y0329034D01*
X0105012Y0330033D02*
X0112400Y0330033D01*
X0113359Y0331031D02*
X0106011Y0331031D01*
X0107009Y0332030D02*
X0114318Y0332030D01*
X0115277Y0333028D02*
X0108008Y0333028D01*
X0109006Y0334027D02*
X0116237Y0334027D01*
X0117196Y0335025D02*
X0110005Y0335025D01*
X0111003Y0336024D02*
X0118155Y0336024D01*
X0119114Y0337022D02*
X0112002Y0337022D01*
X0113001Y0338021D02*
X0120073Y0338021D01*
X0121032Y0339019D02*
X0113999Y0339019D01*
X0114998Y0340018D02*
X0121991Y0340018D01*
X0122902Y0341016D02*
X0115996Y0341016D01*
X0116995Y0342015D02*
X0122493Y0342015D01*
X0122493Y0343013D02*
X0117993Y0343013D01*
X0118992Y0344012D02*
X0122499Y0344012D01*
X0122913Y0345010D02*
X0119990Y0345010D01*
X0120607Y0346009D02*
X0123428Y0346009D01*
X0124426Y0347007D02*
X0120607Y0347007D01*
X0120607Y0348006D02*
X0126473Y0348006D01*
X0124415Y0349004D02*
X0120607Y0349004D01*
X0120983Y0350003D02*
X0123416Y0350003D01*
X0122908Y0351001D02*
X0121981Y0351001D01*
X0116027Y0347007D02*
X0108272Y0347007D01*
X0107842Y0346009D02*
X0115029Y0346009D01*
X0114030Y0345010D02*
X0107081Y0345010D01*
X0105705Y0344012D02*
X0113032Y0344012D01*
X0104000Y0344012D02*
X0103000Y0344012D01*
X0103000Y0345010D02*
X0104000Y0345010D01*
X0104000Y0346009D02*
X0103000Y0346009D01*
X0103000Y0349004D02*
X0104000Y0349004D01*
X0104000Y0350003D02*
X0103000Y0350003D01*
X0103000Y0351001D02*
X0104000Y0351001D01*
X0104000Y0352000D02*
X0103000Y0352000D01*
X0103000Y0352998D02*
X0104000Y0352998D01*
X0122484Y0335025D02*
X0122919Y0335025D01*
X0122506Y0334027D02*
X0121525Y0334027D01*
X0120566Y0333028D02*
X0122493Y0333028D01*
X0122493Y0332030D02*
X0119607Y0332030D01*
X0118648Y0331031D02*
X0122834Y0331031D01*
X0121836Y0330033D02*
X0117689Y0330033D01*
X0116730Y0329034D02*
X0120837Y0329034D01*
X0119839Y0328036D02*
X0115771Y0328036D01*
X0114811Y0327037D02*
X0118840Y0327037D01*
X0117841Y0326039D02*
X0113852Y0326039D01*
X0112893Y0325040D02*
X0116843Y0325040D01*
X0115844Y0324041D02*
X0111934Y0324041D01*
X0110975Y0323043D02*
X0114846Y0323043D01*
X0113847Y0322044D02*
X0110016Y0322044D01*
X0109057Y0321046D02*
X0112849Y0321046D01*
X0111850Y0320047D02*
X0108098Y0320047D01*
X0107139Y0319049D02*
X0110852Y0319049D01*
X0109853Y0318050D02*
X0106180Y0318050D01*
X0105220Y0317052D02*
X0108855Y0317052D01*
X0108593Y0316053D02*
X0104261Y0316053D01*
X0103302Y0315055D02*
X0108593Y0315055D01*
X0108593Y0314056D02*
X0102343Y0314056D01*
X0101384Y0313058D02*
X0108593Y0313058D01*
X0108593Y0312059D02*
X0100425Y0312059D01*
X0099466Y0311061D02*
X0108593Y0311061D01*
X0107678Y0310062D02*
X0098507Y0310062D01*
X0097548Y0309064D02*
X0107027Y0309064D01*
X0106693Y0308065D02*
X0096589Y0308065D01*
X0095630Y0307067D02*
X0106693Y0307067D01*
X0106972Y0306068D02*
X0094670Y0306068D01*
X0093711Y0305070D02*
X0107546Y0305070D01*
X0108829Y0304071D02*
X0092907Y0304071D01*
X0092907Y0303073D02*
X0122493Y0303073D01*
X0122524Y0304071D02*
X0112171Y0304071D01*
X0113454Y0305070D02*
X0122938Y0305070D01*
X0123487Y0306068D02*
X0114028Y0306068D01*
X0114307Y0307067D02*
X0124486Y0307067D01*
X0124355Y0309064D02*
X0113973Y0309064D01*
X0114307Y0308065D02*
X0126329Y0308065D01*
X0123357Y0310062D02*
X0113322Y0310062D01*
X0112407Y0311061D02*
X0122884Y0311061D01*
X0122493Y0312059D02*
X0112407Y0312059D01*
X0112407Y0313058D02*
X0122493Y0313058D01*
X0122518Y0314056D02*
X0112407Y0314056D01*
X0112407Y0315055D02*
X0122932Y0315055D01*
X0123472Y0316053D02*
X0113250Y0316053D01*
X0114249Y0317052D02*
X0124471Y0317052D01*
X0124370Y0319049D02*
X0116246Y0319049D01*
X0117244Y0320047D02*
X0123371Y0320047D01*
X0122890Y0321046D02*
X0118243Y0321046D01*
X0119241Y0322044D02*
X0122493Y0322044D01*
X0122493Y0323043D02*
X0120240Y0323043D01*
X0121238Y0324041D02*
X0122512Y0324041D01*
X0122237Y0325040D02*
X0122925Y0325040D01*
X0123236Y0326039D02*
X0123457Y0326039D01*
X0124234Y0327037D02*
X0124456Y0327037D01*
X0125233Y0328036D02*
X0126401Y0328036D01*
X0126365Y0318050D02*
X0115247Y0318050D01*
X0122493Y0302074D02*
X0092907Y0302074D01*
X0092907Y0301076D02*
X0122877Y0301076D01*
X0123342Y0300077D02*
X0092907Y0300077D01*
X0092907Y0299079D02*
X0124340Y0299079D01*
X0124501Y0297082D02*
X0092907Y0297082D01*
X0092907Y0298080D02*
X0126293Y0298080D01*
X0123502Y0296083D02*
X0092907Y0296083D01*
X0092907Y0295085D02*
X0122944Y0295085D01*
X0122530Y0294086D02*
X0092907Y0294086D01*
X0092907Y0293088D02*
X0122493Y0293088D01*
X0122493Y0292089D02*
X0092907Y0292089D01*
X0092907Y0291091D02*
X0122871Y0291091D01*
X0123327Y0290092D02*
X0092907Y0290092D01*
X0092907Y0289094D02*
X0124325Y0289094D01*
X0124515Y0287097D02*
X0092907Y0287097D01*
X0092907Y0288095D02*
X0126257Y0288095D01*
X0123517Y0286098D02*
X0092907Y0286098D01*
X0092907Y0285100D02*
X0122950Y0285100D01*
X0148743Y0288095D02*
X0196257Y0288095D01*
X0202135Y0281105D02*
X0202865Y0281105D01*
X0203312Y0280107D02*
X0201688Y0280107D01*
X0200690Y0279108D02*
X0204310Y0279108D01*
X0206221Y0278110D02*
X0198779Y0278110D01*
X0208779Y0278110D02*
X0216221Y0278110D01*
X0214310Y0279108D02*
X0210690Y0279108D01*
X0211688Y0280107D02*
X0213312Y0280107D01*
X0212865Y0281105D02*
X0212135Y0281105D01*
X0196293Y0298080D02*
X0148707Y0298080D01*
X0148671Y0308065D02*
X0196329Y0308065D01*
X0196365Y0318050D02*
X0148635Y0318050D01*
X0148599Y0328036D02*
X0196401Y0328036D01*
X0196437Y0338021D02*
X0148563Y0338021D01*
X0148527Y0348006D02*
X0196473Y0348006D01*
X0207000Y0359988D02*
X0208000Y0359988D01*
X0208000Y0360986D02*
X0207000Y0360986D01*
X0207000Y0363982D02*
X0208000Y0363982D01*
X0208000Y0364980D02*
X0207000Y0364980D01*
X0207000Y0365979D02*
X0208000Y0365979D01*
X0208000Y0366977D02*
X0207000Y0366977D01*
X0210532Y0366977D02*
X0214468Y0366977D01*
X0213484Y0365979D02*
X0211516Y0365979D01*
X0212103Y0364980D02*
X0212897Y0364980D01*
X0212593Y0363982D02*
X0212407Y0363982D01*
X0212402Y0361985D02*
X0212598Y0361985D01*
X0212914Y0360986D02*
X0212086Y0360986D01*
X0211492Y0359988D02*
X0213508Y0359988D01*
X0214514Y0358989D02*
X0210486Y0358989D01*
X0210589Y0356992D02*
X0214411Y0356992D01*
X0213413Y0355994D02*
X0211587Y0355994D01*
X0212093Y0354995D02*
X0212907Y0354995D01*
X0217000Y0359988D02*
X0218000Y0359988D01*
X0218000Y0360986D02*
X0217000Y0360986D01*
X0217000Y0363982D02*
X0218000Y0363982D01*
X0218000Y0364980D02*
X0217000Y0364980D01*
X0217000Y0365979D02*
X0218000Y0365979D01*
X0218000Y0366977D02*
X0217000Y0366977D01*
X0214444Y0368974D02*
X0210556Y0368974D01*
X0211554Y0369973D02*
X0213446Y0369973D01*
X0220532Y0366977D02*
X0229043Y0366977D01*
X0230041Y0365979D02*
X0221516Y0365979D01*
X0222103Y0364980D02*
X0231040Y0364980D01*
X0232038Y0363982D02*
X0222407Y0363982D01*
X0221492Y0359988D02*
X0335361Y0359988D01*
X0335361Y0360986D02*
X0271966Y0360986D01*
X0272965Y0361985D02*
X0335361Y0361985D01*
X0335361Y0362983D02*
X0273963Y0362983D01*
X0274962Y0363982D02*
X0335361Y0363982D01*
X0335361Y0364980D02*
X0275960Y0364980D01*
X0276959Y0365979D02*
X0335361Y0365979D01*
X0335361Y0366977D02*
X0277957Y0366977D01*
X0282600Y0367976D02*
X0335361Y0367976D01*
X0335361Y0368974D02*
X0315688Y0368974D01*
X0318149Y0369973D02*
X0335361Y0369973D01*
X0335361Y0370972D02*
X0319879Y0370972D01*
X0321158Y0371710D02*
X0321158Y0371710D01*
X0321399Y0371970D02*
X0335361Y0371970D01*
X0335361Y0372969D02*
X0322325Y0372969D01*
X0323252Y0373967D02*
X0335361Y0373967D01*
X0335361Y0374966D02*
X0324178Y0374966D01*
X0324815Y0375964D02*
X0335361Y0375964D01*
X0335361Y0376963D02*
X0325296Y0376963D01*
X0325777Y0377961D02*
X0335361Y0377961D01*
X0335361Y0378960D02*
X0326258Y0378960D01*
X0326637Y0379747D02*
X0326637Y0379747D01*
X0326669Y0379958D02*
X0335361Y0379958D01*
X0335361Y0380957D02*
X0326819Y0380957D01*
X0326970Y0381955D02*
X0335361Y0381955D01*
X0335361Y0382954D02*
X0327120Y0382954D01*
X0327271Y0383952D02*
X0335361Y0383952D01*
X0335361Y0384951D02*
X0327319Y0384951D01*
X0327168Y0385949D02*
X0335361Y0385949D01*
X0335361Y0386948D02*
X0327018Y0386948D01*
X0326867Y0387946D02*
X0335361Y0387946D01*
X0335361Y0388945D02*
X0326717Y0388945D01*
X0326637Y0389474D02*
X0326637Y0389474D01*
X0326411Y0389943D02*
X0335361Y0389943D01*
X0335333Y0390942D02*
X0325930Y0390942D01*
X0325449Y0391940D02*
X0335267Y0391940D01*
X0335202Y0392939D02*
X0324968Y0392939D01*
X0324503Y0393905D02*
X0324503Y0393905D01*
X0324473Y0393937D02*
X0334935Y0393937D01*
X0334667Y0394936D02*
X0323547Y0394936D01*
X0322620Y0395934D02*
X0334400Y0395934D01*
X0334132Y0396933D02*
X0321694Y0396933D01*
X0320429Y0397931D02*
X0333771Y0397931D01*
X0333194Y0398930D02*
X0318699Y0398930D01*
X0316970Y0399928D02*
X0332618Y0399928D01*
X0332041Y0400927D02*
X0312704Y0400927D01*
X0312103Y0401064D02*
X0312103Y0401064D01*
X0310272Y0400927D02*
X0171184Y0400927D01*
X0170186Y0401925D02*
X0331424Y0401925D01*
X0330426Y0402924D02*
X0169187Y0402924D01*
X0168189Y0403922D02*
X0329427Y0403922D01*
X0328429Y0404921D02*
X0167190Y0404921D01*
X0172183Y0399928D02*
X0305241Y0399928D01*
X0307198Y0400697D02*
X0307198Y0400697D01*
X0302697Y0398930D02*
X0173181Y0398930D01*
X0148000Y0386948D02*
X0147000Y0386948D01*
X0147000Y0385949D02*
X0148000Y0385949D01*
X0148000Y0384951D02*
X0147000Y0384951D01*
X0147000Y0381955D02*
X0148000Y0381955D01*
X0148000Y0380957D02*
X0147000Y0380957D01*
X0147000Y0379958D02*
X0148000Y0379958D01*
X0144381Y0376963D02*
X0140618Y0376963D01*
X0141617Y0375964D02*
X0143383Y0375964D01*
X0142895Y0374966D02*
X0142105Y0374966D01*
X0124474Y0388945D02*
X0108507Y0388945D01*
X0108322Y0389943D02*
X0123476Y0389943D01*
X0122933Y0390942D02*
X0107908Y0390942D01*
X0107141Y0391940D02*
X0122519Y0391940D01*
X0043419Y0400697D02*
X0043419Y0400697D01*
X0038659Y0408915D02*
X0319302Y0408915D01*
X0323028Y0407916D02*
X0034933Y0407916D01*
X0032742Y0406918D02*
X0325218Y0406918D01*
X0326948Y0405919D02*
X0031013Y0405919D01*
X0059399Y0274116D02*
X0068593Y0274116D01*
X0068926Y0273117D02*
X0061064Y0273117D01*
X0061993Y0272119D02*
X0069770Y0272119D01*
X0069853Y0272035D02*
X0069853Y0272035D01*
X0070768Y0271120D02*
X0062407Y0271120D01*
X0062707Y0270122D02*
X0071093Y0270122D01*
X0071093Y0269123D02*
X0062707Y0269123D01*
X0062591Y0268125D02*
X0071093Y0268125D01*
X0071093Y0267126D02*
X0062178Y0267126D01*
X0061509Y0266128D02*
X0071093Y0266128D01*
X0071093Y0265129D02*
X0060474Y0265129D01*
X0054163Y0255144D02*
X0022600Y0255144D01*
X0022600Y0254146D02*
X0053335Y0254146D01*
X0052921Y0253147D02*
X0022600Y0253147D01*
X0022600Y0252149D02*
X0052693Y0252149D01*
X0052693Y0251150D02*
X0022600Y0251150D01*
X0022600Y0250152D02*
X0036475Y0250152D01*
X0035605Y0249153D02*
X0022600Y0249153D01*
X0022600Y0248155D02*
X0035193Y0248155D01*
X0035193Y0247156D02*
X0022600Y0247156D01*
X0022600Y0246158D02*
X0035193Y0246158D01*
X0035193Y0245159D02*
X0022600Y0245159D01*
X0022600Y0244161D02*
X0035193Y0244161D01*
X0035193Y0243162D02*
X0022600Y0243162D01*
X0022600Y0242164D02*
X0035193Y0242164D01*
X0035193Y0241165D02*
X0022600Y0241165D01*
X0022600Y0240167D02*
X0035193Y0240167D01*
X0035193Y0239168D02*
X0022600Y0239168D01*
X0022600Y0238170D02*
X0035193Y0238170D01*
X0035193Y0237171D02*
X0022600Y0237171D01*
X0022600Y0236172D02*
X0035193Y0236172D01*
X0035193Y0235174D02*
X0022600Y0235174D01*
X0022600Y0234175D02*
X0035193Y0234175D01*
X0035193Y0233177D02*
X0022600Y0233177D01*
X0022600Y0232178D02*
X0035193Y0232178D01*
X0035193Y0231180D02*
X0022600Y0231180D01*
X0022600Y0230181D02*
X0035193Y0230181D01*
X0035193Y0229183D02*
X0022600Y0229183D01*
X0022600Y0228184D02*
X0035193Y0228184D01*
X0035193Y0227186D02*
X0022600Y0227186D01*
X0022600Y0226187D02*
X0035193Y0226187D01*
X0035193Y0225189D02*
X0022600Y0225189D01*
X0022600Y0224190D02*
X0035193Y0224190D01*
X0035193Y0223192D02*
X0022600Y0223192D01*
X0022600Y0222193D02*
X0035193Y0222193D01*
X0035193Y0221195D02*
X0022600Y0221195D01*
X0022600Y0220196D02*
X0035193Y0220196D01*
X0035193Y0219198D02*
X0022600Y0219198D01*
X0022600Y0218199D02*
X0035193Y0218199D01*
X0035193Y0217201D02*
X0022600Y0217201D01*
X0022600Y0216202D02*
X0035193Y0216202D01*
X0035193Y0215204D02*
X0022600Y0215204D01*
X0022600Y0214205D02*
X0035193Y0214205D01*
X0035456Y0213207D02*
X0022600Y0213207D01*
X0022600Y0212208D02*
X0036115Y0212208D01*
X0037113Y0211210D02*
X0022600Y0211210D01*
X0022600Y0210211D02*
X0038798Y0210211D01*
X0041807Y0217201D02*
X0071093Y0217201D01*
X0071093Y0218199D02*
X0041807Y0218199D01*
X0041807Y0219198D02*
X0071093Y0219198D01*
X0071093Y0220196D02*
X0041807Y0220196D01*
X0041807Y0221195D02*
X0071093Y0221195D01*
X0071093Y0222193D02*
X0041807Y0222193D01*
X0041807Y0223192D02*
X0071093Y0223192D01*
X0071093Y0224190D02*
X0041807Y0224190D01*
X0041807Y0225189D02*
X0071093Y0225189D01*
X0071093Y0226187D02*
X0041807Y0226187D01*
X0041807Y0227186D02*
X0071093Y0227186D01*
X0071093Y0228184D02*
X0041807Y0228184D01*
X0041807Y0229183D02*
X0071093Y0229183D01*
X0071093Y0230181D02*
X0041807Y0230181D01*
X0041807Y0231180D02*
X0071093Y0231180D01*
X0071093Y0232178D02*
X0041807Y0232178D01*
X0041807Y0233177D02*
X0054060Y0233177D01*
X0054504Y0232993D02*
X0056496Y0232993D01*
X0058336Y0233755D01*
X0059745Y0235164D01*
X0060507Y0237004D01*
X0060507Y0238996D01*
X0059745Y0240836D01*
X0058336Y0242245D01*
X0056496Y0243007D01*
X0054504Y0243007D01*
X0052664Y0242245D01*
X0051255Y0240836D01*
X0050493Y0238996D01*
X0050493Y0237004D01*
X0051255Y0235164D01*
X0052664Y0233755D01*
X0054504Y0232993D01*
X0056940Y0233177D02*
X0071093Y0233177D01*
X0071093Y0234175D02*
X0058757Y0234175D01*
X0059749Y0235174D02*
X0071093Y0235174D01*
X0071093Y0236172D02*
X0060163Y0236172D01*
X0060507Y0237171D02*
X0071093Y0237171D01*
X0071093Y0238170D02*
X0060507Y0238170D01*
X0060436Y0239168D02*
X0071093Y0239168D01*
X0071093Y0240167D02*
X0060022Y0240167D01*
X0059416Y0241165D02*
X0071093Y0241165D01*
X0071093Y0242164D02*
X0058418Y0242164D01*
X0052582Y0242164D02*
X0041807Y0242164D01*
X0041807Y0243162D02*
X0071093Y0243162D01*
X0071093Y0244161D02*
X0041807Y0244161D01*
X0041807Y0245159D02*
X0071093Y0245159D01*
X0071093Y0246158D02*
X0041807Y0246158D01*
X0041807Y0247156D02*
X0055344Y0247156D01*
X0054064Y0248155D02*
X0041807Y0248155D01*
X0041395Y0249153D02*
X0053294Y0249153D01*
X0052880Y0250152D02*
X0040525Y0250152D01*
X0041807Y0241165D02*
X0051584Y0241165D01*
X0050978Y0240167D02*
X0041807Y0240167D01*
X0041807Y0239168D02*
X0050564Y0239168D01*
X0050493Y0238170D02*
X0041807Y0238170D01*
X0041807Y0237171D02*
X0050493Y0237171D01*
X0050837Y0236172D02*
X0041807Y0236172D01*
X0041807Y0235174D02*
X0051251Y0235174D01*
X0052243Y0234175D02*
X0041807Y0234175D01*
X0060056Y0247156D02*
X0071093Y0247156D01*
X0076907Y0254146D02*
X0078935Y0254146D01*
X0079763Y0255144D02*
X0076907Y0255144D01*
X0076907Y0256143D02*
X0081183Y0256143D01*
X0085417Y0256143D02*
X0089093Y0256143D01*
X0089093Y0257141D02*
X0076907Y0257141D01*
X0076907Y0258140D02*
X0089093Y0258140D01*
X0089093Y0259138D02*
X0076907Y0259138D01*
X0076907Y0260137D02*
X0089093Y0260137D01*
X0089093Y0261135D02*
X0076907Y0261135D01*
X0076907Y0262134D02*
X0089093Y0262134D01*
X0089093Y0263132D02*
X0076907Y0263132D01*
X0086837Y0255144D02*
X0089093Y0255144D01*
X0089093Y0254146D02*
X0087665Y0254146D01*
X0088079Y0253147D02*
X0089093Y0253147D01*
X0089093Y0252149D02*
X0088307Y0252149D01*
X0088307Y0251150D02*
X0089093Y0251150D01*
X0089093Y0250152D02*
X0088120Y0250152D01*
X0087706Y0249153D02*
X0089093Y0249153D01*
X0089093Y0248155D02*
X0086936Y0248155D01*
X0085656Y0247156D02*
X0089093Y0247156D01*
X0098407Y0247156D02*
X0266693Y0247156D01*
X0266693Y0246158D02*
X0098407Y0246158D01*
X0098407Y0245159D02*
X0266693Y0245159D01*
X0266693Y0244161D02*
X0098407Y0244161D01*
X0098407Y0243162D02*
X0266693Y0243162D01*
X0266693Y0242164D02*
X0098407Y0242164D01*
X0098407Y0241165D02*
X0266693Y0241165D01*
X0266693Y0240167D02*
X0098407Y0240167D01*
X0098407Y0239168D02*
X0266693Y0239168D01*
X0266693Y0238170D02*
X0098407Y0238170D01*
X0098407Y0237171D02*
X0266693Y0237171D01*
X0266693Y0236172D02*
X0142804Y0236172D01*
X0144407Y0235174D02*
X0266693Y0235174D01*
X0266693Y0234175D02*
X0145311Y0234175D01*
X0145725Y0233177D02*
X0266693Y0233177D01*
X0268500Y0229500D02*
X0268500Y0254500D01*
X0251500Y0271500D01*
X0176500Y0271500D01*
X0177812Y0269123D02*
X0251321Y0269123D01*
X0252320Y0268125D02*
X0098407Y0268125D01*
X0098407Y0269123D02*
X0175188Y0269123D01*
X0174151Y0270122D02*
X0098407Y0270122D01*
X0098407Y0271120D02*
X0173802Y0271120D01*
X0173836Y0272119D02*
X0098407Y0272119D01*
X0098407Y0273117D02*
X0174302Y0273117D01*
X0139196Y0236172D02*
X0098407Y0236172D01*
X0098407Y0235174D02*
X0137593Y0235174D01*
X0136689Y0234175D02*
X0098407Y0234175D01*
X0098407Y0233177D02*
X0136275Y0233177D01*
X0135993Y0232178D02*
X0098407Y0232178D01*
X0098407Y0231180D02*
X0135993Y0231180D01*
X0136127Y0230181D02*
X0098407Y0230181D01*
X0098407Y0229183D02*
X0136540Y0229183D01*
X0137234Y0228184D02*
X0098407Y0228184D01*
X0098407Y0227186D02*
X0138331Y0227186D01*
X0175941Y0226187D02*
X0098407Y0226187D01*
X0098407Y0225189D02*
X0224633Y0225189D01*
X0223635Y0224190D02*
X0098407Y0224190D01*
X0098407Y0223192D02*
X0222636Y0223192D01*
X0221693Y0222193D02*
X0098407Y0222193D01*
X0098407Y0221195D02*
X0221693Y0221195D01*
X0221693Y0220196D02*
X0098407Y0220196D01*
X0098407Y0219198D02*
X0221693Y0219198D01*
X0221693Y0218199D02*
X0098407Y0218199D01*
X0098407Y0217201D02*
X0221693Y0217201D01*
X0221693Y0216202D02*
X0098407Y0216202D01*
X0098407Y0215204D02*
X0221693Y0215204D01*
X0221693Y0214205D02*
X0098407Y0214205D01*
X0098407Y0213207D02*
X0221693Y0213207D01*
X0221693Y0212208D02*
X0098407Y0212208D01*
X0098407Y0211210D02*
X0221693Y0211210D01*
X0221693Y0210211D02*
X0098407Y0210211D01*
X0098407Y0209213D02*
X0221693Y0209213D01*
X0221693Y0208214D02*
X0098407Y0208214D01*
X0098407Y0207216D02*
X0221693Y0207216D01*
X0221693Y0206217D02*
X0098407Y0206217D01*
X0098407Y0205219D02*
X0221693Y0205219D01*
X0221693Y0204220D02*
X0098407Y0204220D01*
X0098407Y0203222D02*
X0221693Y0203222D01*
X0221693Y0202223D02*
X0098407Y0202223D01*
X0098407Y0201225D02*
X0221693Y0201225D01*
X0221693Y0200226D02*
X0098407Y0200226D01*
X0098407Y0199228D02*
X0221693Y0199228D01*
X0221693Y0198229D02*
X0098407Y0198229D01*
X0098407Y0197231D02*
X0221693Y0197231D01*
X0221693Y0196232D02*
X0098407Y0196232D01*
X0098407Y0195234D02*
X0221693Y0195234D01*
X0221693Y0194235D02*
X0098407Y0194235D01*
X0098407Y0193237D02*
X0221693Y0193237D01*
X0221693Y0192238D02*
X0098407Y0192238D01*
X0098407Y0191239D02*
X0221693Y0191239D01*
X0221693Y0190241D02*
X0098407Y0190241D01*
X0098407Y0189242D02*
X0221693Y0189242D01*
X0221693Y0188244D02*
X0098407Y0188244D01*
X0098407Y0187245D02*
X0221693Y0187245D01*
X0221693Y0186247D02*
X0098407Y0186247D01*
X0098407Y0185248D02*
X0221693Y0185248D01*
X0221693Y0184250D02*
X0098407Y0184250D01*
X0098564Y0183251D02*
X0221693Y0183251D01*
X0221693Y0182253D02*
X0099108Y0182253D01*
X0099198Y0181254D02*
X0221693Y0181254D01*
X0221693Y0180256D02*
X0098905Y0180256D01*
X0070712Y0194235D02*
X0059807Y0194235D01*
X0059807Y0195234D02*
X0069685Y0195234D01*
X0069020Y0196232D02*
X0059807Y0196232D01*
X0059807Y0197231D02*
X0068606Y0197231D01*
X0068493Y0198229D02*
X0059807Y0198229D01*
X0059807Y0199228D02*
X0068493Y0199228D01*
X0068795Y0200226D02*
X0059807Y0200226D01*
X0059807Y0201225D02*
X0069209Y0201225D01*
X0070142Y0202223D02*
X0059807Y0202223D01*
X0059807Y0203222D02*
X0071093Y0203222D01*
X0071093Y0204220D02*
X0059807Y0204220D01*
X0059807Y0205219D02*
X0071093Y0205219D01*
X0071093Y0206217D02*
X0059807Y0206217D01*
X0059807Y0207216D02*
X0071093Y0207216D01*
X0071093Y0208214D02*
X0059807Y0208214D01*
X0059784Y0209213D02*
X0071093Y0209213D01*
X0071093Y0210211D02*
X0059371Y0210211D01*
X0058467Y0211210D02*
X0071093Y0211210D01*
X0071093Y0212208D02*
X0057469Y0212208D01*
X0056470Y0213207D02*
X0071093Y0213207D01*
X0071093Y0214205D02*
X0055472Y0214205D01*
X0054473Y0215204D02*
X0071093Y0215204D01*
X0071093Y0216202D02*
X0053475Y0216202D01*
X0051110Y0209213D02*
X0022600Y0209213D01*
X0022600Y0208214D02*
X0052109Y0208214D01*
X0053107Y0207216D02*
X0022600Y0207216D01*
X0022600Y0206217D02*
X0053193Y0206217D01*
X0053193Y0205219D02*
X0022600Y0205219D01*
X0022600Y0204220D02*
X0053193Y0204220D01*
X0053193Y0203222D02*
X0022600Y0203222D01*
X0047807Y0142312D02*
X0121231Y0142312D01*
X0120246Y0141314D02*
X0047807Y0141314D01*
X0047807Y0140315D02*
X0119832Y0140315D01*
X0119493Y0139317D02*
X0047807Y0139317D01*
X0047807Y0138318D02*
X0119493Y0138318D01*
X0119569Y0137320D02*
X0047807Y0137320D01*
X0047807Y0136321D02*
X0119983Y0136321D01*
X0120596Y0135323D02*
X0047807Y0135323D01*
X0098407Y0248155D02*
X0266693Y0248155D01*
X0266693Y0249153D02*
X0098407Y0249153D01*
X0098407Y0250152D02*
X0266693Y0250152D01*
X0266693Y0251150D02*
X0098407Y0251150D01*
X0098407Y0252149D02*
X0266693Y0252149D01*
X0266693Y0253147D02*
X0098407Y0253147D01*
X0098407Y0254146D02*
X0266299Y0254146D01*
X0265300Y0255144D02*
X0098407Y0255144D01*
X0098407Y0256143D02*
X0264302Y0256143D01*
X0263303Y0257141D02*
X0098407Y0257141D01*
X0098407Y0258140D02*
X0262305Y0258140D01*
X0261306Y0259138D02*
X0098407Y0259138D01*
X0098407Y0260137D02*
X0260308Y0260137D01*
X0259309Y0261135D02*
X0098407Y0261135D01*
X0098407Y0262134D02*
X0258311Y0262134D01*
X0257312Y0263132D02*
X0098407Y0263132D01*
X0098407Y0264131D02*
X0256314Y0264131D01*
X0255315Y0265129D02*
X0098407Y0265129D01*
X0098407Y0266128D02*
X0254317Y0266128D01*
X0253318Y0267126D02*
X0098407Y0267126D01*
X0220486Y0358989D02*
X0335361Y0358989D01*
X0312103Y0368156D02*
X0312103Y0368156D01*
X0306050Y0368974D02*
X0283598Y0368974D01*
X0284166Y0369973D02*
X0303506Y0369973D01*
X0301804Y0370972D02*
X0284580Y0370972D01*
X0284646Y0371970D02*
X0300552Y0371970D01*
X0299300Y0372969D02*
X0284646Y0372969D01*
X0284318Y0373967D02*
X0298380Y0373967D01*
X0298775Y0373387D02*
X0298775Y0373387D01*
X0298775Y0373387D01*
X0297699Y0374966D02*
X0283905Y0374966D01*
X0282967Y0375964D02*
X0297018Y0375964D01*
X0302620Y0398900D02*
X0302620Y0398900D01*
X0316898Y0399970D02*
X0316898Y0399970D01*
X0254352Y0396933D02*
X0249648Y0396933D01*
X0250647Y0395934D02*
X0253353Y0395934D01*
X0252355Y0394936D02*
X0251645Y0394936D01*
X0300502Y0316053D02*
X0335361Y0316053D01*
X0335361Y0315055D02*
X0301501Y0315055D01*
X0302499Y0314056D02*
X0335361Y0314056D01*
X0335361Y0313058D02*
X0303498Y0313058D01*
X0304496Y0312059D02*
X0335361Y0312059D01*
X0335361Y0311061D02*
X0305495Y0311061D01*
X0306493Y0310062D02*
X0335361Y0310062D01*
X0335361Y0309064D02*
X0307492Y0309064D01*
X0308490Y0308065D02*
X0335361Y0308065D01*
X0335361Y0307067D02*
X0309489Y0307067D01*
X0310487Y0306068D02*
X0335361Y0306068D01*
X0335361Y0305070D02*
X0311486Y0305070D01*
X0312484Y0304071D02*
X0335361Y0304071D01*
X0335361Y0303073D02*
X0313483Y0303073D01*
X0314481Y0302074D02*
X0335361Y0302074D01*
X0335361Y0301076D02*
X0315480Y0301076D01*
X0316478Y0300077D02*
X0335361Y0300077D01*
X0335361Y0299079D02*
X0317477Y0299079D01*
X0318475Y0298080D02*
X0335361Y0298080D01*
X0335361Y0297082D02*
X0319474Y0297082D01*
X0320472Y0296083D02*
X0335361Y0296083D01*
X0335361Y0295085D02*
X0321471Y0295085D01*
X0322469Y0294086D02*
X0335361Y0294086D01*
X0335361Y0293088D02*
X0323468Y0293088D01*
X0324466Y0292089D02*
X0335361Y0292089D01*
X0335361Y0291091D02*
X0325465Y0291091D01*
X0326307Y0290092D02*
X0335361Y0290092D01*
X0335361Y0289094D02*
X0326307Y0289094D01*
X0326307Y0288095D02*
X0335361Y0288095D01*
X0335361Y0287097D02*
X0326307Y0287097D01*
X0326307Y0286098D02*
X0335361Y0286098D01*
X0335361Y0285100D02*
X0326307Y0285100D01*
X0326307Y0284101D02*
X0335361Y0284101D01*
X0335361Y0283103D02*
X0326307Y0283103D01*
X0326307Y0282104D02*
X0335361Y0282104D01*
X0335361Y0281105D02*
X0326307Y0281105D01*
X0326307Y0280107D02*
X0335361Y0280107D01*
X0335361Y0279108D02*
X0326307Y0279108D01*
X0326307Y0278110D02*
X0335361Y0278110D01*
X0335361Y0277111D02*
X0326307Y0277111D01*
X0326307Y0276113D02*
X0335361Y0276113D01*
X0335361Y0275114D02*
X0326307Y0275114D01*
X0326307Y0274116D02*
X0335361Y0274116D01*
X0335361Y0273117D02*
X0326307Y0273117D01*
X0326307Y0272119D02*
X0335361Y0272119D01*
X0335361Y0271120D02*
X0326307Y0271120D01*
X0326307Y0270122D02*
X0335361Y0270122D01*
X0335361Y0269123D02*
X0326307Y0269123D01*
X0326307Y0268125D02*
X0335361Y0268125D01*
X0335361Y0267126D02*
X0326307Y0267126D01*
X0326307Y0266128D02*
X0335361Y0266128D01*
X0335361Y0265129D02*
X0326307Y0265129D01*
X0326307Y0264131D02*
X0335361Y0264131D01*
X0335361Y0263132D02*
X0326307Y0263132D01*
X0326307Y0262134D02*
X0335361Y0262134D01*
X0335361Y0261135D02*
X0326307Y0261135D01*
X0326307Y0260137D02*
X0335361Y0260137D01*
X0335361Y0259138D02*
X0326307Y0259138D01*
X0326307Y0258140D02*
X0335361Y0258140D01*
X0335361Y0257141D02*
X0326307Y0257141D01*
X0326307Y0256143D02*
X0335361Y0256143D01*
X0335361Y0255144D02*
X0326307Y0255144D01*
X0326307Y0254146D02*
X0335361Y0254146D01*
X0335361Y0253147D02*
X0326307Y0253147D01*
X0326307Y0252149D02*
X0335361Y0252149D01*
X0335361Y0251150D02*
X0326307Y0251150D01*
X0326307Y0250152D02*
X0335361Y0250152D01*
X0335361Y0249153D02*
X0326307Y0249153D01*
X0326307Y0248155D02*
X0335361Y0248155D01*
X0335361Y0247156D02*
X0326307Y0247156D01*
X0326307Y0246158D02*
X0335361Y0246158D01*
X0335361Y0245159D02*
X0326307Y0245159D01*
X0326307Y0244161D02*
X0335361Y0244161D01*
X0335361Y0243162D02*
X0326307Y0243162D01*
X0326307Y0242164D02*
X0335361Y0242164D01*
X0335361Y0241165D02*
X0326307Y0241165D01*
X0326307Y0240167D02*
X0335361Y0240167D01*
X0335361Y0239168D02*
X0326307Y0239168D01*
X0326307Y0238170D02*
X0335361Y0238170D01*
X0335361Y0237171D02*
X0326307Y0237171D01*
X0326307Y0236172D02*
X0335361Y0236172D01*
X0335361Y0235174D02*
X0326307Y0235174D01*
X0326307Y0234175D02*
X0335361Y0234175D01*
X0335361Y0233177D02*
X0326307Y0233177D01*
X0326307Y0232178D02*
X0335361Y0232178D01*
X0335361Y0231180D02*
X0326307Y0231180D01*
X0326307Y0230181D02*
X0335361Y0230181D01*
X0335361Y0229183D02*
X0326307Y0229183D01*
X0326307Y0228184D02*
X0335361Y0228184D01*
X0335361Y0227186D02*
X0326307Y0227186D01*
X0326307Y0226187D02*
X0335361Y0226187D01*
X0335361Y0225189D02*
X0326307Y0225189D01*
X0326307Y0224190D02*
X0335361Y0224190D01*
X0335361Y0223192D02*
X0326307Y0223192D01*
X0326307Y0222193D02*
X0335361Y0222193D01*
X0335361Y0221195D02*
X0326307Y0221195D01*
X0326307Y0220196D02*
X0335361Y0220196D01*
X0335361Y0219198D02*
X0326307Y0219198D01*
X0326307Y0218199D02*
X0335361Y0218199D01*
X0335361Y0217201D02*
X0326307Y0217201D01*
X0326307Y0216202D02*
X0335361Y0216202D01*
X0335361Y0215204D02*
X0326307Y0215204D01*
X0326307Y0214205D02*
X0335361Y0214205D01*
X0335361Y0213207D02*
X0326307Y0213207D01*
X0326307Y0212208D02*
X0335361Y0212208D01*
X0335361Y0211210D02*
X0326307Y0211210D01*
X0326307Y0210211D02*
X0335361Y0210211D01*
X0335361Y0209213D02*
X0326307Y0209213D01*
X0326307Y0208214D02*
X0335361Y0208214D01*
X0335361Y0207216D02*
X0326307Y0207216D01*
X0326307Y0206217D02*
X0335361Y0206217D01*
X0335361Y0205219D02*
X0325774Y0205219D01*
X0324776Y0204220D02*
X0335361Y0204220D01*
X0335361Y0203222D02*
X0323777Y0203222D01*
X0322779Y0202223D02*
X0335361Y0202223D01*
X0335361Y0201225D02*
X0321780Y0201225D01*
X0320782Y0200226D02*
X0335361Y0200226D01*
X0335361Y0199228D02*
X0319783Y0199228D01*
X0318785Y0198229D02*
X0335361Y0198229D01*
X0335361Y0197231D02*
X0317786Y0197231D01*
X0316788Y0196232D02*
X0335361Y0196232D01*
X0335361Y0195234D02*
X0315789Y0195234D01*
X0314791Y0194235D02*
X0335361Y0194235D01*
X0335361Y0193237D02*
X0313792Y0193237D01*
X0312794Y0192238D02*
X0335361Y0192238D01*
X0335361Y0191239D02*
X0311795Y0191239D01*
X0310797Y0190241D02*
X0335361Y0190241D01*
X0321500Y0210500D02*
X0321500Y0286500D01*
X0306358Y0294086D02*
X0284596Y0294086D01*
X0284360Y0295085D02*
X0305360Y0295085D01*
X0304361Y0296083D02*
X0283907Y0296083D01*
X0283099Y0297082D02*
X0303363Y0297082D01*
X0281935Y0227186D02*
X0271376Y0227186D01*
X0270466Y0226187D02*
X0280372Y0226187D01*
X0262500Y0195500D02*
X0306500Y0195500D01*
X0321500Y0210500D01*
X0305681Y0136321D02*
X0265307Y0136321D01*
X0265307Y0135323D02*
X0303137Y0135323D01*
X0301622Y0134324D02*
X0265307Y0134324D01*
X0265307Y0133326D02*
X0300370Y0133326D01*
X0299118Y0132327D02*
X0265307Y0132327D01*
X0265307Y0131329D02*
X0298281Y0131329D01*
X0297600Y0130330D02*
X0265307Y0130330D01*
X0265307Y0129332D02*
X0296919Y0129332D01*
X0296238Y0128333D02*
X0265307Y0128333D01*
X0265307Y0127335D02*
X0295802Y0127335D01*
X0295494Y0126336D02*
X0265307Y0126336D01*
X0265307Y0125338D02*
X0295186Y0125338D01*
X0294878Y0124339D02*
X0265307Y0124339D01*
X0265307Y0123341D02*
X0294570Y0123341D01*
X0294554Y0122342D02*
X0265307Y0122342D01*
X0265307Y0121344D02*
X0294554Y0121344D01*
X0294554Y0120345D02*
X0265307Y0120345D01*
X0265307Y0119347D02*
X0294554Y0119347D01*
X0294562Y0118348D02*
X0265307Y0118348D01*
X0265307Y0117350D02*
X0294870Y0117350D01*
X0295178Y0116351D02*
X0265307Y0116351D01*
X0265307Y0115353D02*
X0295486Y0115353D01*
X0295794Y0114354D02*
X0265307Y0114354D01*
X0265307Y0113356D02*
X0296220Y0113356D01*
X0296900Y0112357D02*
X0265307Y0112357D01*
X0265307Y0111359D02*
X0297581Y0111359D01*
X0298262Y0110360D02*
X0265307Y0110360D01*
X0265307Y0109362D02*
X0299084Y0109362D01*
X0300336Y0108363D02*
X0265307Y0108363D01*
X0265307Y0107365D02*
X0301588Y0107365D01*
X0303067Y0106366D02*
X0265307Y0106366D01*
X0265307Y0105368D02*
X0305611Y0105368D01*
D15*
X0284500Y0083500D03*
X0299500Y0033500D03*
X0162500Y0068500D03*
X0075500Y0088500D03*
X0069500Y0088500D03*
X0063500Y0088500D03*
X0078500Y0157500D03*
X0077500Y0174500D03*
X0054500Y0179500D03*
X0050500Y0222500D03*
X0038500Y0247500D03*
X0165500Y0174500D03*
X0165500Y0169500D03*
X0178000Y0228500D03*
X0245500Y0296500D03*
X0271500Y0286500D03*
X0271500Y0277500D03*
X0276500Y0236500D03*
X0312500Y0234500D03*
X0238500Y0322500D03*
D16*
X0176500Y0271500D03*
X0231500Y0217000D03*
X0236500Y0217500D03*
X0241000Y0217500D03*
X0248500Y0218500D03*
X0252500Y0220000D03*
X0256500Y0217500D03*
X0269000Y0228500D03*
X0282500Y0224500D03*
X0291000Y0217500D03*
X0298000Y0214500D03*
X0306000Y0216000D03*
X0241000Y0211000D03*
X0256500Y0083000D03*
X0271500Y0082500D03*
X0276500Y0083500D03*
X0256500Y0064000D03*
X0234500Y0072000D03*
X0213000Y0063500D03*
X0213000Y0042500D03*
X0222500Y0039500D03*
X0229000Y0036000D03*
X0230500Y0032500D03*
X0238000Y0032000D03*
X0242000Y0033500D03*
X0244000Y0037000D03*
X0247500Y0034000D03*
X0249500Y0030000D03*
X0257500Y0034500D03*
X0279500Y0052500D03*
X0279500Y0057000D03*
X0297500Y0044500D03*
X0281500Y0037500D03*
X0191000Y0048500D03*
X0117000Y0106500D03*
X0083500Y0153000D03*
X0096500Y0181500D03*
D17*
X0096500Y0279500D01*
X0099500Y0282500D01*
X0127000Y0282500D01*
X0127500Y0283000D01*
X0110500Y0307500D02*
X0110500Y0316000D01*
X0127500Y0333000D01*
X0127500Y0343000D02*
X0091000Y0305000D01*
X0091000Y0189500D01*
X0083500Y0183500D01*
X0083500Y0153000D01*
X0191000Y0138500D02*
X0191000Y0048500D01*
D18*
X0045500Y0277500D03*
X0110500Y0307500D03*
D19*
X0071500Y0277500D02*
X0071500Y0274500D01*
X0073707Y0272293D01*
X0074000Y0271586D02*
X0074000Y0250500D01*
X0074000Y0198500D01*
X0074000Y0271586D02*
X0073998Y0271646D01*
X0073993Y0271707D01*
X0073984Y0271766D01*
X0073971Y0271825D01*
X0073955Y0271884D01*
X0073935Y0271941D01*
X0073912Y0271996D01*
X0073885Y0272051D01*
X0073856Y0272103D01*
X0073823Y0272154D01*
X0073787Y0272203D01*
X0073749Y0272249D01*
X0073707Y0272293D01*
X0071500Y0277500D02*
X0045500Y0277500D01*
X0071500Y0277500D02*
X0071500Y0368500D01*
X0100500Y0368500D01*
X0071500Y0368500D02*
X0071500Y0378086D01*
X0071793Y0378793D02*
X0095500Y0402500D01*
X0165500Y0402500D01*
X0175000Y0393000D01*
X0207500Y0393000D01*
X0071793Y0378793D02*
X0071751Y0378749D01*
X0071713Y0378703D01*
X0071677Y0378654D01*
X0071644Y0378603D01*
X0071615Y0378551D01*
X0071588Y0378496D01*
X0071565Y0378441D01*
X0071545Y0378384D01*
X0071529Y0378325D01*
X0071516Y0378266D01*
X0071507Y0378207D01*
X0071502Y0378146D01*
X0071500Y0378086D01*
D20*
X0100500Y0368500D02*
X0103500Y0368500D01*
X0121500Y0353500D02*
X0127000Y0353500D01*
X0127500Y0353000D01*
X0121500Y0353500D02*
X0118500Y0350500D01*
X0118500Y0346500D01*
X0083300Y0311300D01*
X0083300Y0269400D01*
X0206000Y0372500D02*
X0226500Y0372500D01*
X0236500Y0362500D01*
X0270500Y0362500D01*
X0279500Y0371500D01*
X0279500Y0372154D01*
D21*
X0083300Y0251600D02*
X0075100Y0251600D01*
X0074000Y0250500D01*
D22*
X0038500Y0247500D02*
X0038500Y0214500D01*
X0039500Y0213500D01*
X0051500Y0213500D01*
X0056500Y0208500D01*
X0056500Y0192500D01*
X0044500Y0180500D01*
X0044500Y0102004D01*
X0050567Y0095937D01*
X0070937Y0095937D01*
X0072500Y0097500D01*
M02*
