G75*
%MOIN*%
%OFA0B0*%
%FSLAX25Y25*%
%IPPOS*%
%LPD*%
%AMOC8*
5,1,8,0,0,1.08239X$1,22.5*
%
%ADD10C,0.00800*%
%ADD11C,0.02000*%
%ADD12C,0.01300*%
%ADD13C,0.01200*%
%ADD14C,0.00500*%
%ADD15C,0.00600*%
%ADD16C,0.02200*%
%ADD17R,0.01800X0.03000*%
%ADD18R,0.03000X0.01800*%
%ADD19C,0.01000*%
%ADD20R,0.01772X0.01673*%
%ADD21C,0.01000*%
%ADD22C,0.01100*%
D10*
X0040792Y0042091D02*
X0040794Y0042249D01*
X0040800Y0042407D01*
X0040810Y0042565D01*
X0040824Y0042723D01*
X0040842Y0042880D01*
X0040863Y0043037D01*
X0040889Y0043193D01*
X0040919Y0043349D01*
X0040952Y0043504D01*
X0040990Y0043657D01*
X0041031Y0043810D01*
X0041076Y0043962D01*
X0041125Y0044113D01*
X0041178Y0044262D01*
X0041234Y0044410D01*
X0041294Y0044556D01*
X0041358Y0044701D01*
X0041426Y0044844D01*
X0041497Y0044986D01*
X0041571Y0045126D01*
X0041649Y0045263D01*
X0041731Y0045399D01*
X0041815Y0045533D01*
X0041904Y0045664D01*
X0041995Y0045793D01*
X0042090Y0045920D01*
X0042187Y0046045D01*
X0042288Y0046167D01*
X0042392Y0046286D01*
X0042499Y0046403D01*
X0042609Y0046517D01*
X0042722Y0046628D01*
X0042837Y0046737D01*
X0042955Y0046842D01*
X0043076Y0046944D01*
X0043199Y0047044D01*
X0043325Y0047140D01*
X0043453Y0047233D01*
X0043583Y0047323D01*
X0043716Y0047409D01*
X0043851Y0047493D01*
X0043987Y0047572D01*
X0044126Y0047649D01*
X0044267Y0047721D01*
X0044409Y0047791D01*
X0044553Y0047856D01*
X0044699Y0047918D01*
X0044846Y0047976D01*
X0044995Y0048031D01*
X0045145Y0048082D01*
X0045296Y0048129D01*
X0045448Y0048172D01*
X0045601Y0048211D01*
X0045756Y0048247D01*
X0045911Y0048278D01*
X0046067Y0048306D01*
X0046223Y0048330D01*
X0046380Y0048350D01*
X0046538Y0048366D01*
X0046695Y0048378D01*
X0046854Y0048386D01*
X0047012Y0048390D01*
X0047170Y0048390D01*
X0047328Y0048386D01*
X0047487Y0048378D01*
X0047644Y0048366D01*
X0047802Y0048350D01*
X0047959Y0048330D01*
X0048115Y0048306D01*
X0048271Y0048278D01*
X0048426Y0048247D01*
X0048581Y0048211D01*
X0048734Y0048172D01*
X0048886Y0048129D01*
X0049037Y0048082D01*
X0049187Y0048031D01*
X0049336Y0047976D01*
X0049483Y0047918D01*
X0049629Y0047856D01*
X0049773Y0047791D01*
X0049915Y0047721D01*
X0050056Y0047649D01*
X0050195Y0047572D01*
X0050331Y0047493D01*
X0050466Y0047409D01*
X0050599Y0047323D01*
X0050729Y0047233D01*
X0050857Y0047140D01*
X0050983Y0047044D01*
X0051106Y0046944D01*
X0051227Y0046842D01*
X0051345Y0046737D01*
X0051460Y0046628D01*
X0051573Y0046517D01*
X0051683Y0046403D01*
X0051790Y0046286D01*
X0051894Y0046167D01*
X0051995Y0046045D01*
X0052092Y0045920D01*
X0052187Y0045793D01*
X0052278Y0045664D01*
X0052367Y0045533D01*
X0052451Y0045399D01*
X0052533Y0045263D01*
X0052611Y0045126D01*
X0052685Y0044986D01*
X0052756Y0044844D01*
X0052824Y0044701D01*
X0052888Y0044556D01*
X0052948Y0044410D01*
X0053004Y0044262D01*
X0053057Y0044113D01*
X0053106Y0043962D01*
X0053151Y0043810D01*
X0053192Y0043657D01*
X0053230Y0043504D01*
X0053263Y0043349D01*
X0053293Y0043193D01*
X0053319Y0043037D01*
X0053340Y0042880D01*
X0053358Y0042723D01*
X0053372Y0042565D01*
X0053382Y0042407D01*
X0053388Y0042249D01*
X0053390Y0042091D01*
X0053388Y0041933D01*
X0053382Y0041775D01*
X0053372Y0041617D01*
X0053358Y0041459D01*
X0053340Y0041302D01*
X0053319Y0041145D01*
X0053293Y0040989D01*
X0053263Y0040833D01*
X0053230Y0040678D01*
X0053192Y0040525D01*
X0053151Y0040372D01*
X0053106Y0040220D01*
X0053057Y0040069D01*
X0053004Y0039920D01*
X0052948Y0039772D01*
X0052888Y0039626D01*
X0052824Y0039481D01*
X0052756Y0039338D01*
X0052685Y0039196D01*
X0052611Y0039056D01*
X0052533Y0038919D01*
X0052451Y0038783D01*
X0052367Y0038649D01*
X0052278Y0038518D01*
X0052187Y0038389D01*
X0052092Y0038262D01*
X0051995Y0038137D01*
X0051894Y0038015D01*
X0051790Y0037896D01*
X0051683Y0037779D01*
X0051573Y0037665D01*
X0051460Y0037554D01*
X0051345Y0037445D01*
X0051227Y0037340D01*
X0051106Y0037238D01*
X0050983Y0037138D01*
X0050857Y0037042D01*
X0050729Y0036949D01*
X0050599Y0036859D01*
X0050466Y0036773D01*
X0050331Y0036689D01*
X0050195Y0036610D01*
X0050056Y0036533D01*
X0049915Y0036461D01*
X0049773Y0036391D01*
X0049629Y0036326D01*
X0049483Y0036264D01*
X0049336Y0036206D01*
X0049187Y0036151D01*
X0049037Y0036100D01*
X0048886Y0036053D01*
X0048734Y0036010D01*
X0048581Y0035971D01*
X0048426Y0035935D01*
X0048271Y0035904D01*
X0048115Y0035876D01*
X0047959Y0035852D01*
X0047802Y0035832D01*
X0047644Y0035816D01*
X0047487Y0035804D01*
X0047328Y0035796D01*
X0047170Y0035792D01*
X0047012Y0035792D01*
X0046854Y0035796D01*
X0046695Y0035804D01*
X0046538Y0035816D01*
X0046380Y0035832D01*
X0046223Y0035852D01*
X0046067Y0035876D01*
X0045911Y0035904D01*
X0045756Y0035935D01*
X0045601Y0035971D01*
X0045448Y0036010D01*
X0045296Y0036053D01*
X0045145Y0036100D01*
X0044995Y0036151D01*
X0044846Y0036206D01*
X0044699Y0036264D01*
X0044553Y0036326D01*
X0044409Y0036391D01*
X0044267Y0036461D01*
X0044126Y0036533D01*
X0043987Y0036610D01*
X0043851Y0036689D01*
X0043716Y0036773D01*
X0043583Y0036859D01*
X0043453Y0036949D01*
X0043325Y0037042D01*
X0043199Y0037138D01*
X0043076Y0037238D01*
X0042955Y0037340D01*
X0042837Y0037445D01*
X0042722Y0037554D01*
X0042609Y0037665D01*
X0042499Y0037779D01*
X0042392Y0037896D01*
X0042288Y0038015D01*
X0042187Y0038137D01*
X0042090Y0038262D01*
X0041995Y0038389D01*
X0041904Y0038518D01*
X0041815Y0038649D01*
X0041731Y0038783D01*
X0041649Y0038919D01*
X0041571Y0039056D01*
X0041497Y0039196D01*
X0041426Y0039338D01*
X0041358Y0039481D01*
X0041294Y0039626D01*
X0041234Y0039772D01*
X0041178Y0039920D01*
X0041125Y0040069D01*
X0041076Y0040220D01*
X0041031Y0040372D01*
X0040990Y0040525D01*
X0040952Y0040678D01*
X0040919Y0040833D01*
X0040889Y0040989D01*
X0040863Y0041145D01*
X0040842Y0041302D01*
X0040824Y0041459D01*
X0040810Y0041617D01*
X0040800Y0041775D01*
X0040794Y0041933D01*
X0040792Y0042091D01*
X0040468Y0071400D02*
X0041001Y0071934D01*
X0041001Y0074603D01*
X0040468Y0074603D02*
X0041535Y0074603D01*
X0043083Y0074069D02*
X0043617Y0074603D01*
X0044685Y0074603D01*
X0045218Y0074069D01*
X0043083Y0071934D01*
X0043617Y0071400D01*
X0044685Y0071400D01*
X0045218Y0071934D01*
X0045218Y0074069D01*
X0046766Y0074069D02*
X0047300Y0074603D01*
X0048368Y0074603D01*
X0048901Y0074069D01*
X0048901Y0073535D01*
X0048368Y0073001D01*
X0048901Y0072468D01*
X0048901Y0071934D01*
X0048368Y0071400D01*
X0047300Y0071400D01*
X0046766Y0071934D01*
X0047834Y0073001D02*
X0048368Y0073001D01*
X0050449Y0073001D02*
X0052051Y0073001D01*
X0052585Y0072468D01*
X0052585Y0071934D01*
X0052051Y0071400D01*
X0050449Y0071400D01*
X0050449Y0074603D01*
X0052051Y0074603D01*
X0052585Y0074069D01*
X0052585Y0073535D01*
X0052051Y0073001D01*
X0053717Y0076252D02*
X0053717Y0079402D01*
X0043874Y0079402D01*
X0043874Y0084126D01*
X0039937Y0076252D02*
X0053717Y0076252D01*
X0043083Y0074069D02*
X0043083Y0071934D01*
X0040468Y0071400D02*
X0039934Y0071400D01*
X0039400Y0071934D01*
X0024189Y0084126D02*
X0024189Y0099874D01*
X0039937Y0107748D02*
X0053717Y0107748D01*
X0053717Y0104598D01*
X0043874Y0104598D01*
X0043874Y0099874D01*
X0056397Y0107434D02*
X0056397Y0108501D01*
X0056931Y0109035D01*
X0056931Y0110583D02*
X0056397Y0111117D01*
X0056397Y0112185D01*
X0056931Y0112718D01*
X0059066Y0110583D01*
X0059600Y0111117D01*
X0059600Y0112185D01*
X0059066Y0112718D01*
X0056931Y0112718D01*
X0056931Y0114266D02*
X0056397Y0114800D01*
X0056397Y0115868D01*
X0056931Y0116401D01*
X0057465Y0116401D01*
X0059600Y0114266D01*
X0059600Y0116401D01*
X0059600Y0117949D02*
X0056397Y0117949D01*
X0056397Y0119551D01*
X0056931Y0120085D01*
X0057465Y0120085D01*
X0057999Y0119551D01*
X0057999Y0117949D01*
X0059600Y0117949D02*
X0059600Y0119551D01*
X0059066Y0120085D01*
X0058532Y0120085D01*
X0057999Y0119551D01*
X0053352Y0119569D02*
X0053352Y0119035D01*
X0052818Y0118501D01*
X0051217Y0118501D01*
X0051217Y0116900D02*
X0051217Y0120103D01*
X0052818Y0120103D01*
X0053352Y0119569D01*
X0052818Y0118501D02*
X0053352Y0117968D01*
X0053352Y0117434D01*
X0052818Y0116900D01*
X0051217Y0116900D01*
X0049669Y0117434D02*
X0049135Y0116900D01*
X0048067Y0116900D01*
X0047534Y0117434D01*
X0049669Y0119569D01*
X0049669Y0117434D01*
X0049669Y0119569D02*
X0049135Y0120103D01*
X0048067Y0120103D01*
X0047534Y0119569D01*
X0047534Y0117434D01*
X0045986Y0116900D02*
X0043851Y0116900D01*
X0044918Y0116900D02*
X0044918Y0120103D01*
X0043851Y0119035D01*
X0042303Y0118501D02*
X0041769Y0117968D01*
X0040167Y0117968D01*
X0041235Y0117968D02*
X0042303Y0116900D01*
X0042303Y0118501D02*
X0042303Y0119569D01*
X0041769Y0120103D01*
X0040167Y0120103D01*
X0040167Y0116900D01*
X0037352Y0118934D02*
X0036818Y0118400D01*
X0035217Y0118400D01*
X0035217Y0121603D01*
X0036818Y0121603D01*
X0037352Y0121069D01*
X0037352Y0120535D01*
X0036818Y0120001D01*
X0035217Y0120001D01*
X0033669Y0120001D02*
X0032067Y0120001D01*
X0031534Y0120535D01*
X0031534Y0121069D01*
X0032067Y0121603D01*
X0033135Y0121603D01*
X0033669Y0121069D01*
X0033669Y0118934D01*
X0033135Y0118400D01*
X0032067Y0118400D01*
X0031534Y0118934D01*
X0029986Y0118934D02*
X0029452Y0118400D01*
X0028384Y0118400D01*
X0027851Y0118934D01*
X0029986Y0121069D01*
X0029986Y0118934D01*
X0029986Y0121069D02*
X0029452Y0121603D01*
X0028384Y0121603D01*
X0027851Y0121069D01*
X0027851Y0118934D01*
X0026303Y0118400D02*
X0025235Y0119468D01*
X0025769Y0119468D02*
X0024167Y0119468D01*
X0024167Y0118400D02*
X0024167Y0121603D01*
X0025769Y0121603D01*
X0026303Y0121069D01*
X0026303Y0120001D01*
X0025769Y0119468D01*
X0036818Y0120001D02*
X0037352Y0119468D01*
X0037352Y0118934D01*
X0056931Y0110583D02*
X0059066Y0110583D01*
X0059066Y0109035D02*
X0059600Y0108501D01*
X0059600Y0107434D01*
X0059066Y0106900D01*
X0056931Y0106900D01*
X0056397Y0107434D01*
X0067500Y0105000D02*
X0070000Y0102500D01*
X0067500Y0100000D01*
X0067500Y0095000D01*
X0070000Y0092500D01*
X0075000Y0092500D01*
X0077500Y0095000D01*
X0077500Y0100000D01*
X0075000Y0102500D01*
X0077500Y0105000D01*
X0077500Y0110000D01*
X0075000Y0112500D01*
X0070000Y0112500D01*
X0067500Y0110000D01*
X0067500Y0105000D01*
X0078668Y0095303D02*
X0079735Y0095303D01*
X0079201Y0095303D02*
X0079201Y0092634D01*
X0078668Y0092100D01*
X0078134Y0092100D01*
X0077600Y0092634D01*
X0078900Y0090103D02*
X0080501Y0090103D01*
X0081035Y0089569D01*
X0081035Y0088501D01*
X0080501Y0087968D01*
X0078900Y0087968D01*
X0078900Y0086900D02*
X0078900Y0090103D01*
X0081283Y0092634D02*
X0083418Y0094769D01*
X0083418Y0092634D01*
X0082885Y0092100D01*
X0081817Y0092100D01*
X0081283Y0092634D01*
X0081283Y0094769D01*
X0081817Y0095303D01*
X0082885Y0095303D01*
X0083418Y0094769D01*
X0084966Y0093701D02*
X0087101Y0093701D01*
X0088649Y0093701D02*
X0090251Y0093701D01*
X0090785Y0093168D01*
X0090785Y0092634D01*
X0090251Y0092100D01*
X0088649Y0092100D01*
X0088649Y0095303D01*
X0090251Y0095303D01*
X0090785Y0094769D01*
X0090785Y0094235D01*
X0090251Y0093701D01*
X0089949Y0090103D02*
X0089949Y0086900D01*
X0091017Y0087968D01*
X0092085Y0086900D01*
X0092085Y0090103D01*
X0088401Y0089569D02*
X0087868Y0090103D01*
X0086800Y0090103D01*
X0086266Y0089569D01*
X0086266Y0089035D01*
X0086800Y0088501D01*
X0087868Y0088501D01*
X0088401Y0087968D01*
X0088401Y0087434D01*
X0087868Y0086900D01*
X0086800Y0086900D01*
X0086266Y0087434D01*
X0084718Y0086366D02*
X0082583Y0086366D01*
X0086568Y0092100D02*
X0086568Y0095303D01*
X0084966Y0093701D01*
X0091900Y0098900D02*
X0093501Y0098900D01*
X0094035Y0099434D01*
X0094035Y0099968D01*
X0093501Y0100501D01*
X0091900Y0100501D01*
X0091900Y0098900D02*
X0091900Y0102103D01*
X0093501Y0102103D01*
X0094035Y0101569D01*
X0094035Y0101035D01*
X0093501Y0100501D01*
X0095583Y0098900D02*
X0095583Y0102103D01*
X0096651Y0101035D01*
X0097718Y0102103D01*
X0097718Y0098900D01*
X0099266Y0098366D02*
X0101401Y0098366D01*
X0102949Y0098900D02*
X0104551Y0098900D01*
X0105085Y0099434D01*
X0105085Y0099968D01*
X0104551Y0100501D01*
X0102949Y0100501D01*
X0102949Y0098900D02*
X0102949Y0102103D01*
X0104551Y0102103D01*
X0105085Y0101569D01*
X0105085Y0101035D01*
X0104551Y0100501D01*
X0106633Y0100501D02*
X0108768Y0100501D01*
X0108768Y0101035D02*
X0108768Y0098900D01*
X0108768Y0101035D02*
X0107700Y0102103D01*
X0106633Y0101035D01*
X0106633Y0098900D01*
X0111383Y0098900D02*
X0111383Y0102103D01*
X0110316Y0102103D02*
X0112451Y0102103D01*
X0106785Y0105634D02*
X0106251Y0105100D01*
X0104649Y0105100D01*
X0104649Y0108303D01*
X0106251Y0108303D01*
X0106785Y0107769D01*
X0106785Y0107235D01*
X0106251Y0106701D01*
X0104649Y0106701D01*
X0103101Y0106701D02*
X0103101Y0105634D01*
X0102568Y0105100D01*
X0101500Y0105100D01*
X0100966Y0105634D01*
X0100966Y0106701D02*
X0102034Y0107235D01*
X0102568Y0107235D01*
X0103101Y0106701D01*
X0103101Y0108303D02*
X0100966Y0108303D01*
X0100966Y0106701D01*
X0099418Y0105634D02*
X0098885Y0105100D01*
X0097817Y0105100D01*
X0097283Y0105634D01*
X0099418Y0107769D01*
X0099418Y0105634D01*
X0097283Y0105634D02*
X0097283Y0107769D01*
X0097817Y0108303D01*
X0098885Y0108303D01*
X0099418Y0107769D01*
X0095735Y0108303D02*
X0094668Y0108303D01*
X0095201Y0108303D02*
X0095201Y0105634D01*
X0094668Y0105100D01*
X0094134Y0105100D01*
X0093600Y0105634D01*
X0092500Y0105000D02*
X0092500Y0110000D01*
X0090000Y0112500D01*
X0085000Y0112500D01*
X0082500Y0110000D01*
X0082500Y0105000D01*
X0085000Y0102500D01*
X0090000Y0102500D01*
X0092500Y0105000D01*
X0106251Y0106701D02*
X0106785Y0106168D01*
X0106785Y0105634D01*
X0118897Y0106201D02*
X0119431Y0105667D01*
X0121566Y0105667D01*
X0122100Y0106201D01*
X0122100Y0107269D01*
X0121566Y0107803D01*
X0122100Y0109351D02*
X0122100Y0111486D01*
X0122100Y0110418D02*
X0118897Y0110418D01*
X0119965Y0109351D01*
X0119431Y0107803D02*
X0118897Y0107269D01*
X0118897Y0106201D01*
X0119431Y0099852D02*
X0119965Y0099852D01*
X0120499Y0099318D01*
X0120499Y0097717D01*
X0122100Y0097717D02*
X0122100Y0099318D01*
X0121566Y0099852D01*
X0121032Y0099852D01*
X0120499Y0099318D01*
X0119431Y0099852D02*
X0118897Y0099318D01*
X0118897Y0097717D01*
X0122100Y0097717D01*
X0122100Y0096169D02*
X0122100Y0094034D01*
X0119965Y0096169D01*
X0119431Y0096169D01*
X0118897Y0095635D01*
X0118897Y0094567D01*
X0119431Y0094034D01*
X0118897Y0091418D02*
X0122100Y0091418D01*
X0122100Y0090351D02*
X0122100Y0092486D01*
X0119965Y0090351D02*
X0118897Y0091418D01*
X0119431Y0088803D02*
X0118897Y0088269D01*
X0118897Y0087201D01*
X0119431Y0086667D01*
X0121566Y0086667D01*
X0122100Y0087201D01*
X0122100Y0088269D01*
X0121566Y0088803D01*
X0125000Y0081500D02*
X0122500Y0079000D01*
X0122500Y0074000D01*
X0125000Y0071500D01*
X0130000Y0071500D01*
X0132500Y0074000D01*
X0132500Y0079000D01*
X0130000Y0081500D01*
X0125000Y0081500D01*
X0120785Y0079769D02*
X0120785Y0079235D01*
X0120251Y0078701D01*
X0118649Y0078701D01*
X0118649Y0077100D02*
X0118649Y0080303D01*
X0120251Y0080303D01*
X0120785Y0079769D01*
X0120251Y0078701D02*
X0120785Y0078168D01*
X0120785Y0077634D01*
X0120251Y0077100D01*
X0118649Y0077100D01*
X0117101Y0077100D02*
X0114966Y0077100D01*
X0116034Y0077100D02*
X0116034Y0080303D01*
X0114966Y0079235D01*
X0113418Y0077100D02*
X0111283Y0077100D01*
X0112351Y0077100D02*
X0112351Y0080303D01*
X0111283Y0079235D01*
X0109735Y0080303D02*
X0108668Y0080303D01*
X0109201Y0080303D02*
X0109201Y0077634D01*
X0108668Y0077100D01*
X0108134Y0077100D01*
X0107600Y0077634D01*
X0107900Y0073501D02*
X0110035Y0073501D01*
X0111583Y0074035D02*
X0112651Y0075103D01*
X0112651Y0071900D01*
X0113718Y0071900D02*
X0111583Y0071900D01*
X0115266Y0072434D02*
X0115800Y0071900D01*
X0116868Y0071900D01*
X0117401Y0072434D01*
X0117401Y0073501D01*
X0116868Y0074035D01*
X0116334Y0074035D01*
X0115266Y0073501D01*
X0115266Y0075103D01*
X0117401Y0075103D01*
X0118949Y0075103D02*
X0118949Y0072968D01*
X0120017Y0071900D01*
X0121085Y0072968D01*
X0121085Y0075103D01*
X0126357Y0060071D02*
X0126357Y0057402D01*
X0126890Y0056869D01*
X0127958Y0056869D01*
X0128492Y0057402D01*
X0128492Y0060071D01*
X0130040Y0058470D02*
X0131641Y0058470D01*
X0132175Y0057936D01*
X0132175Y0057402D01*
X0131641Y0056869D01*
X0130574Y0056869D01*
X0130040Y0057402D01*
X0130040Y0058470D01*
X0131107Y0059537D01*
X0132175Y0060071D01*
X0133723Y0060071D02*
X0135324Y0060071D01*
X0135858Y0059537D01*
X0135858Y0059004D01*
X0135324Y0058470D01*
X0133723Y0058470D01*
X0133723Y0056869D02*
X0133723Y0060071D01*
X0135324Y0058470D02*
X0135858Y0057936D01*
X0135858Y0057402D01*
X0135324Y0056869D01*
X0133723Y0056869D01*
X0138594Y0054406D02*
X0150406Y0054406D01*
X0140035Y0052450D02*
X0140037Y0052497D01*
X0140043Y0052544D01*
X0140053Y0052591D01*
X0140066Y0052636D01*
X0140084Y0052680D01*
X0140105Y0052722D01*
X0140129Y0052763D01*
X0140157Y0052801D01*
X0140188Y0052837D01*
X0140222Y0052870D01*
X0140258Y0052900D01*
X0140297Y0052927D01*
X0140338Y0052951D01*
X0140381Y0052971D01*
X0140425Y0052987D01*
X0140471Y0053000D01*
X0140517Y0053009D01*
X0140565Y0053014D01*
X0140612Y0053015D01*
X0140659Y0053012D01*
X0140706Y0053005D01*
X0140752Y0052994D01*
X0140797Y0052980D01*
X0140841Y0052961D01*
X0140882Y0052939D01*
X0140922Y0052914D01*
X0140960Y0052885D01*
X0140995Y0052854D01*
X0141028Y0052819D01*
X0141057Y0052782D01*
X0141083Y0052743D01*
X0141106Y0052701D01*
X0141125Y0052658D01*
X0141141Y0052613D01*
X0141153Y0052567D01*
X0141161Y0052521D01*
X0141165Y0052474D01*
X0141165Y0052426D01*
X0141161Y0052379D01*
X0141153Y0052333D01*
X0141141Y0052287D01*
X0141125Y0052242D01*
X0141106Y0052199D01*
X0141083Y0052157D01*
X0141057Y0052118D01*
X0141028Y0052081D01*
X0140995Y0052046D01*
X0140960Y0052015D01*
X0140922Y0051986D01*
X0140883Y0051961D01*
X0140841Y0051939D01*
X0140797Y0051920D01*
X0140752Y0051906D01*
X0140706Y0051895D01*
X0140659Y0051888D01*
X0140612Y0051885D01*
X0140565Y0051886D01*
X0140517Y0051891D01*
X0140471Y0051900D01*
X0140425Y0051913D01*
X0140381Y0051929D01*
X0140338Y0051949D01*
X0140297Y0051973D01*
X0140258Y0052000D01*
X0140222Y0052030D01*
X0140188Y0052063D01*
X0140157Y0052099D01*
X0140129Y0052137D01*
X0140105Y0052178D01*
X0140084Y0052220D01*
X0140066Y0052264D01*
X0140053Y0052309D01*
X0140043Y0052356D01*
X0140037Y0052403D01*
X0140035Y0052450D01*
X0138594Y0042594D02*
X0150406Y0042594D01*
X0150318Y0029103D02*
X0148717Y0029103D01*
X0148717Y0025900D01*
X0150318Y0025900D01*
X0150852Y0026434D01*
X0150852Y0026968D01*
X0150318Y0027501D01*
X0148717Y0027501D01*
X0150318Y0027501D02*
X0150852Y0028035D01*
X0150852Y0028569D01*
X0150318Y0029103D01*
X0147169Y0029103D02*
X0146101Y0028569D01*
X0145034Y0027501D01*
X0146635Y0027501D01*
X0147169Y0026968D01*
X0147169Y0026434D01*
X0146635Y0025900D01*
X0145567Y0025900D01*
X0145034Y0026434D01*
X0145034Y0027501D01*
X0143486Y0025900D02*
X0141351Y0025900D01*
X0142418Y0025900D02*
X0142418Y0029103D01*
X0141351Y0028035D01*
X0139803Y0028569D02*
X0139269Y0029103D01*
X0138201Y0029103D01*
X0137667Y0028569D01*
X0137667Y0026434D01*
X0138201Y0025900D01*
X0139269Y0025900D01*
X0139803Y0026434D01*
X0122100Y0034400D02*
X0118897Y0034400D01*
X0118897Y0036001D01*
X0119431Y0036535D01*
X0120499Y0036535D01*
X0121032Y0036001D01*
X0121032Y0034400D01*
X0121032Y0035468D02*
X0122100Y0036535D01*
X0122100Y0038083D02*
X0122100Y0040218D01*
X0122100Y0039151D02*
X0118897Y0039151D01*
X0119965Y0038083D01*
X0118897Y0041766D02*
X0118897Y0043901D01*
X0119431Y0043901D01*
X0121566Y0041766D01*
X0122100Y0041766D01*
X0122100Y0045449D02*
X0122100Y0047051D01*
X0121566Y0047585D01*
X0121032Y0047585D01*
X0120499Y0047051D01*
X0120499Y0045449D01*
X0122100Y0045449D02*
X0118897Y0045449D01*
X0118897Y0047051D01*
X0119431Y0047585D01*
X0119965Y0047585D01*
X0120499Y0047051D01*
X0139034Y0066900D02*
X0140101Y0066900D01*
X0140635Y0067434D01*
X0142183Y0066900D02*
X0144318Y0066900D01*
X0143251Y0066900D02*
X0143251Y0070103D01*
X0142183Y0069035D01*
X0140635Y0069569D02*
X0140101Y0070103D01*
X0139034Y0070103D01*
X0138500Y0069569D01*
X0138500Y0067434D01*
X0139034Y0066900D01*
X0145866Y0067434D02*
X0146400Y0066900D01*
X0147468Y0066900D01*
X0148001Y0067434D01*
X0148001Y0068501D01*
X0147468Y0069035D01*
X0146934Y0069035D01*
X0145866Y0068501D01*
X0145866Y0070103D01*
X0148001Y0070103D01*
X0149549Y0070103D02*
X0149549Y0066900D01*
X0151151Y0066900D01*
X0151685Y0067434D01*
X0151685Y0067968D01*
X0151151Y0068501D01*
X0149549Y0068501D01*
X0149549Y0070103D02*
X0151151Y0070103D01*
X0151685Y0069569D01*
X0151685Y0069035D01*
X0151151Y0068501D01*
X0157000Y0074000D02*
X0159500Y0071500D01*
X0164500Y0071500D01*
X0167000Y0074000D01*
X0167000Y0079000D01*
X0164500Y0081500D01*
X0159500Y0081500D01*
X0157000Y0079000D01*
X0157000Y0074000D01*
X0149868Y0083900D02*
X0148266Y0083900D01*
X0148266Y0087103D01*
X0149868Y0087103D01*
X0150401Y0086569D01*
X0150401Y0086035D01*
X0149868Y0085501D01*
X0148266Y0085501D01*
X0146718Y0085501D02*
X0144583Y0085501D01*
X0146185Y0087103D01*
X0146185Y0083900D01*
X0143035Y0084434D02*
X0143035Y0087103D01*
X0140900Y0087103D02*
X0140900Y0084434D01*
X0141434Y0083900D01*
X0142501Y0083900D01*
X0143035Y0084434D01*
X0149868Y0083900D02*
X0150401Y0084434D01*
X0150401Y0084968D01*
X0149868Y0085501D01*
X0164897Y0085269D02*
X0164897Y0084201D01*
X0165431Y0083667D01*
X0167566Y0083667D01*
X0168100Y0084201D01*
X0168100Y0085269D01*
X0167566Y0085803D01*
X0168100Y0087351D02*
X0168100Y0089486D01*
X0168100Y0088418D02*
X0164897Y0088418D01*
X0165965Y0087351D01*
X0165431Y0085803D02*
X0164897Y0085269D01*
X0168668Y0082803D02*
X0169735Y0082803D01*
X0169201Y0082803D02*
X0169201Y0080134D01*
X0168668Y0079600D01*
X0168134Y0079600D01*
X0167600Y0080134D01*
X0171283Y0079600D02*
X0173418Y0079600D01*
X0172351Y0079600D02*
X0172351Y0082803D01*
X0171283Y0081735D01*
X0174966Y0082269D02*
X0175500Y0082803D01*
X0176568Y0082803D01*
X0177101Y0082269D01*
X0177101Y0081735D01*
X0174966Y0079600D01*
X0177101Y0079600D01*
X0178649Y0079600D02*
X0180251Y0079600D01*
X0180785Y0080134D01*
X0180785Y0080668D01*
X0180251Y0081201D01*
X0178649Y0081201D01*
X0178649Y0079600D02*
X0178649Y0082803D01*
X0180251Y0082803D01*
X0180785Y0082269D01*
X0180785Y0081735D01*
X0180251Y0081201D01*
X0179949Y0077103D02*
X0179949Y0074968D01*
X0181017Y0073900D01*
X0182085Y0074968D01*
X0182085Y0077103D01*
X0178401Y0077103D02*
X0176266Y0077103D01*
X0176266Y0075501D01*
X0177334Y0076035D01*
X0177868Y0076035D01*
X0178401Y0075501D01*
X0178401Y0074434D01*
X0177868Y0073900D01*
X0176800Y0073900D01*
X0176266Y0074434D01*
X0174718Y0073900D02*
X0172583Y0073900D01*
X0173651Y0073900D02*
X0173651Y0077103D01*
X0172583Y0076035D01*
X0171035Y0075501D02*
X0168900Y0075501D01*
X0169968Y0074434D02*
X0169968Y0076569D01*
X0169566Y0063852D02*
X0170100Y0063318D01*
X0170100Y0061717D01*
X0166897Y0061717D01*
X0166897Y0063318D01*
X0167431Y0063852D01*
X0167965Y0063852D01*
X0168499Y0063318D01*
X0168499Y0061717D01*
X0168499Y0063318D02*
X0169032Y0063852D01*
X0169566Y0063852D01*
X0167431Y0060169D02*
X0169566Y0058034D01*
X0170100Y0058034D01*
X0170100Y0056486D02*
X0170100Y0054351D01*
X0170100Y0055418D02*
X0166897Y0055418D01*
X0167965Y0054351D01*
X0167431Y0052803D02*
X0166897Y0052269D01*
X0166897Y0051201D01*
X0167431Y0050667D01*
X0169566Y0050667D01*
X0170100Y0051201D01*
X0170100Y0052269D01*
X0169566Y0052803D01*
X0171500Y0055000D02*
X0171500Y0060000D01*
X0174000Y0062500D01*
X0179000Y0062500D01*
X0181500Y0060000D01*
X0181500Y0055000D01*
X0179000Y0052500D01*
X0174000Y0052500D01*
X0171500Y0055000D01*
X0166897Y0058034D02*
X0166897Y0060169D01*
X0167431Y0060169D01*
X0182600Y0061634D02*
X0183134Y0061100D01*
X0183668Y0061100D01*
X0184201Y0061634D01*
X0184201Y0064303D01*
X0183668Y0064303D02*
X0184735Y0064303D01*
X0186283Y0063235D02*
X0187351Y0064303D01*
X0187351Y0061100D01*
X0188418Y0061100D02*
X0186283Y0061100D01*
X0189966Y0061634D02*
X0190500Y0061100D01*
X0191568Y0061100D01*
X0192101Y0061634D01*
X0192101Y0062168D01*
X0191568Y0062701D01*
X0191034Y0062701D01*
X0191568Y0062701D02*
X0192101Y0063235D01*
X0192101Y0063769D01*
X0191568Y0064303D01*
X0190500Y0064303D01*
X0189966Y0063769D01*
X0193649Y0064303D02*
X0195251Y0064303D01*
X0195785Y0063769D01*
X0195785Y0063235D01*
X0195251Y0062701D01*
X0193649Y0062701D01*
X0193649Y0061100D02*
X0195251Y0061100D01*
X0195785Y0061634D01*
X0195785Y0062168D01*
X0195251Y0062701D01*
X0193649Y0061100D02*
X0193649Y0064303D01*
X0200900Y0067400D02*
X0200900Y0070603D01*
X0202501Y0070603D01*
X0203035Y0070069D01*
X0203035Y0069001D01*
X0202501Y0068468D01*
X0200900Y0068468D01*
X0201968Y0068468D02*
X0203035Y0067400D01*
X0204583Y0067934D02*
X0206718Y0070069D01*
X0206718Y0067934D01*
X0206185Y0067400D01*
X0205117Y0067400D01*
X0204583Y0067934D01*
X0204583Y0070069D01*
X0205117Y0070603D01*
X0206185Y0070603D01*
X0206718Y0070069D01*
X0208266Y0069535D02*
X0209334Y0070603D01*
X0209334Y0067400D01*
X0210401Y0067400D02*
X0208266Y0067400D01*
X0211949Y0067400D02*
X0211949Y0070603D01*
X0213551Y0070603D01*
X0214085Y0070069D01*
X0214085Y0067934D01*
X0213551Y0067400D01*
X0211949Y0067400D01*
X0211949Y0077400D02*
X0213551Y0077400D01*
X0214085Y0077934D01*
X0214085Y0080069D01*
X0213551Y0080603D01*
X0211949Y0080603D01*
X0211949Y0077400D01*
X0210401Y0077934D02*
X0209868Y0077400D01*
X0208800Y0077400D01*
X0208266Y0077934D01*
X0209334Y0079001D02*
X0209868Y0079001D01*
X0210401Y0078468D01*
X0210401Y0077934D01*
X0209868Y0079001D02*
X0210401Y0079535D01*
X0210401Y0080069D01*
X0209868Y0080603D01*
X0208800Y0080603D01*
X0208266Y0080069D01*
X0206718Y0080069D02*
X0204583Y0077934D01*
X0205117Y0077400D01*
X0206185Y0077400D01*
X0206718Y0077934D01*
X0206718Y0080069D01*
X0206185Y0080603D01*
X0205117Y0080603D01*
X0204583Y0080069D01*
X0204583Y0077934D01*
X0203035Y0077400D02*
X0201968Y0078468D01*
X0202501Y0078468D02*
X0200900Y0078468D01*
X0200900Y0077400D02*
X0200900Y0080603D01*
X0202501Y0080603D01*
X0203035Y0080069D01*
X0203035Y0079001D01*
X0202501Y0078468D01*
X0192566Y0098900D02*
X0193100Y0099434D01*
X0193100Y0100501D01*
X0192566Y0101035D01*
X0189897Y0101035D01*
X0189897Y0102583D02*
X0191499Y0102583D01*
X0190965Y0103651D01*
X0190965Y0104185D01*
X0191499Y0104718D01*
X0192566Y0104718D01*
X0193100Y0104185D01*
X0193100Y0103117D01*
X0192566Y0102583D01*
X0189897Y0102583D02*
X0189897Y0104718D01*
X0189897Y0106266D02*
X0189897Y0107868D01*
X0190431Y0108401D01*
X0190965Y0108401D01*
X0191499Y0107868D01*
X0191499Y0106266D01*
X0193100Y0106266D02*
X0189897Y0106266D01*
X0191499Y0107868D02*
X0192032Y0108401D01*
X0192566Y0108401D01*
X0193100Y0107868D01*
X0193100Y0106266D01*
X0192566Y0098900D02*
X0189897Y0098900D01*
X0169835Y0099600D02*
X0169837Y0099647D01*
X0169843Y0099694D01*
X0169853Y0099741D01*
X0169866Y0099786D01*
X0169884Y0099830D01*
X0169905Y0099872D01*
X0169929Y0099913D01*
X0169957Y0099951D01*
X0169988Y0099987D01*
X0170022Y0100020D01*
X0170058Y0100050D01*
X0170097Y0100077D01*
X0170138Y0100101D01*
X0170181Y0100121D01*
X0170225Y0100137D01*
X0170271Y0100150D01*
X0170317Y0100159D01*
X0170365Y0100164D01*
X0170412Y0100165D01*
X0170459Y0100162D01*
X0170506Y0100155D01*
X0170552Y0100144D01*
X0170597Y0100130D01*
X0170641Y0100111D01*
X0170682Y0100089D01*
X0170722Y0100064D01*
X0170760Y0100035D01*
X0170795Y0100004D01*
X0170828Y0099969D01*
X0170857Y0099932D01*
X0170883Y0099893D01*
X0170906Y0099851D01*
X0170925Y0099808D01*
X0170941Y0099763D01*
X0170953Y0099717D01*
X0170961Y0099671D01*
X0170965Y0099624D01*
X0170965Y0099576D01*
X0170961Y0099529D01*
X0170953Y0099483D01*
X0170941Y0099437D01*
X0170925Y0099392D01*
X0170906Y0099349D01*
X0170883Y0099307D01*
X0170857Y0099268D01*
X0170828Y0099231D01*
X0170795Y0099196D01*
X0170760Y0099165D01*
X0170722Y0099136D01*
X0170683Y0099111D01*
X0170641Y0099089D01*
X0170597Y0099070D01*
X0170552Y0099056D01*
X0170506Y0099045D01*
X0170459Y0099038D01*
X0170412Y0099035D01*
X0170365Y0099036D01*
X0170317Y0099041D01*
X0170271Y0099050D01*
X0170225Y0099063D01*
X0170181Y0099079D01*
X0170138Y0099099D01*
X0170097Y0099123D01*
X0170058Y0099150D01*
X0170022Y0099180D01*
X0169988Y0099213D01*
X0169957Y0099249D01*
X0169929Y0099287D01*
X0169905Y0099328D01*
X0169884Y0099370D01*
X0169866Y0099414D01*
X0169853Y0099459D01*
X0169843Y0099506D01*
X0169837Y0099553D01*
X0169835Y0099600D01*
X0167566Y0096852D02*
X0168100Y0096318D01*
X0168100Y0094717D01*
X0164897Y0094717D01*
X0164897Y0096318D01*
X0165431Y0096852D01*
X0165965Y0096852D01*
X0166499Y0096318D01*
X0166499Y0094717D01*
X0166499Y0093169D02*
X0166499Y0091034D01*
X0164897Y0092635D01*
X0168100Y0092635D01*
X0166499Y0096318D02*
X0167032Y0096852D01*
X0167566Y0096852D01*
X0166318Y0119900D02*
X0164717Y0119900D01*
X0164717Y0123103D01*
X0166318Y0123103D01*
X0166852Y0122569D01*
X0166852Y0122035D01*
X0166318Y0121501D01*
X0164717Y0121501D01*
X0166318Y0121501D02*
X0166852Y0120968D01*
X0166852Y0120434D01*
X0166318Y0119900D01*
X0163169Y0120434D02*
X0162635Y0119900D01*
X0161567Y0119900D01*
X0161034Y0120434D01*
X0162101Y0121501D02*
X0162635Y0121501D01*
X0163169Y0120968D01*
X0163169Y0120434D01*
X0162635Y0121501D02*
X0163169Y0122035D01*
X0163169Y0122569D01*
X0162635Y0123103D01*
X0161567Y0123103D01*
X0161034Y0122569D01*
X0158418Y0123103D02*
X0158418Y0119900D01*
X0157351Y0119900D02*
X0159486Y0119900D01*
X0157351Y0122035D02*
X0158418Y0123103D01*
X0155803Y0122569D02*
X0155269Y0123103D01*
X0154201Y0123103D01*
X0153667Y0122569D01*
X0153667Y0120434D01*
X0154201Y0119900D01*
X0155269Y0119900D01*
X0155803Y0120434D01*
X0151585Y0124434D02*
X0151051Y0123900D01*
X0149449Y0123900D01*
X0149449Y0127103D01*
X0151051Y0127103D01*
X0151585Y0126569D01*
X0151585Y0126035D01*
X0151051Y0125501D01*
X0149449Y0125501D01*
X0147901Y0125501D02*
X0145766Y0125501D01*
X0147368Y0127103D01*
X0147368Y0123900D01*
X0144218Y0123900D02*
X0142083Y0123900D01*
X0143151Y0123900D02*
X0143151Y0127103D01*
X0142083Y0126035D01*
X0140535Y0126569D02*
X0140535Y0125501D01*
X0140001Y0124968D01*
X0138400Y0124968D01*
X0139468Y0124968D02*
X0140535Y0123900D01*
X0138400Y0123900D02*
X0138400Y0127103D01*
X0140001Y0127103D01*
X0140535Y0126569D01*
X0132085Y0127103D02*
X0132085Y0124968D01*
X0131017Y0123900D01*
X0129949Y0124968D01*
X0129949Y0127103D01*
X0128401Y0126569D02*
X0126266Y0124434D01*
X0126800Y0123900D01*
X0127868Y0123900D01*
X0128401Y0124434D01*
X0128401Y0126569D01*
X0127868Y0127103D01*
X0126800Y0127103D01*
X0126266Y0126569D01*
X0126266Y0124434D01*
X0124718Y0123900D02*
X0122583Y0123900D01*
X0124718Y0126035D01*
X0124718Y0126569D01*
X0124185Y0127103D01*
X0123117Y0127103D01*
X0122583Y0126569D01*
X0121035Y0125501D02*
X0118900Y0125501D01*
X0119134Y0129100D02*
X0119668Y0129100D01*
X0120201Y0129634D01*
X0120201Y0132303D01*
X0119668Y0132303D02*
X0120735Y0132303D01*
X0122283Y0131769D02*
X0122817Y0132303D01*
X0123885Y0132303D01*
X0124418Y0131769D01*
X0122283Y0129634D01*
X0122817Y0129100D01*
X0123885Y0129100D01*
X0124418Y0129634D01*
X0124418Y0131769D01*
X0125966Y0131769D02*
X0125966Y0131235D01*
X0126500Y0130701D01*
X0128101Y0130701D01*
X0128101Y0129634D02*
X0128101Y0131769D01*
X0127568Y0132303D01*
X0126500Y0132303D01*
X0125966Y0131769D01*
X0127000Y0133500D02*
X0122000Y0133500D01*
X0119500Y0136000D01*
X0119500Y0141000D01*
X0122000Y0143500D01*
X0127000Y0143500D01*
X0129500Y0141000D01*
X0129500Y0136000D01*
X0127000Y0133500D01*
X0129649Y0132303D02*
X0129649Y0129100D01*
X0131251Y0129100D01*
X0131785Y0129634D01*
X0131785Y0130168D01*
X0131251Y0130701D01*
X0129649Y0130701D01*
X0129649Y0132303D02*
X0131251Y0132303D01*
X0131785Y0131769D01*
X0131785Y0131235D01*
X0131251Y0130701D01*
X0128101Y0129634D02*
X0127568Y0129100D01*
X0126500Y0129100D01*
X0125966Y0129634D01*
X0122283Y0129634D02*
X0122283Y0131769D01*
X0119134Y0129100D02*
X0118600Y0129634D01*
X0119431Y0118852D02*
X0119965Y0118852D01*
X0120499Y0118318D01*
X0120499Y0116717D01*
X0122100Y0116717D02*
X0122100Y0118318D01*
X0121566Y0118852D01*
X0121032Y0118852D01*
X0120499Y0118318D01*
X0119431Y0118852D02*
X0118897Y0118318D01*
X0118897Y0116717D01*
X0122100Y0116717D01*
X0122100Y0115169D02*
X0122100Y0113034D01*
X0122100Y0114101D02*
X0118897Y0114101D01*
X0119965Y0113034D01*
X0107051Y0127400D02*
X0105449Y0127400D01*
X0105449Y0130603D01*
X0107051Y0130603D01*
X0107585Y0130069D01*
X0107585Y0129535D01*
X0107051Y0129001D01*
X0105449Y0129001D01*
X0103901Y0129001D02*
X0101766Y0129001D01*
X0103368Y0130603D01*
X0103368Y0127400D01*
X0100218Y0127934D02*
X0100218Y0130069D01*
X0098083Y0127934D01*
X0098617Y0127400D01*
X0099685Y0127400D01*
X0100218Y0127934D01*
X0098083Y0127934D02*
X0098083Y0130069D01*
X0098617Y0130603D01*
X0099685Y0130603D01*
X0100218Y0130069D01*
X0096535Y0130069D02*
X0096535Y0129001D01*
X0096001Y0128468D01*
X0094400Y0128468D01*
X0095468Y0128468D02*
X0096535Y0127400D01*
X0094400Y0127400D02*
X0094400Y0130603D01*
X0096001Y0130603D01*
X0096535Y0130069D01*
X0096535Y0135900D02*
X0095468Y0136968D01*
X0096001Y0136968D02*
X0094400Y0136968D01*
X0094400Y0135900D02*
X0094400Y0139103D01*
X0096001Y0139103D01*
X0096535Y0138569D01*
X0096535Y0137501D01*
X0096001Y0136968D01*
X0098083Y0136434D02*
X0100218Y0138569D01*
X0100218Y0136434D01*
X0099685Y0135900D01*
X0098617Y0135900D01*
X0098083Y0136434D01*
X0098083Y0138569D01*
X0098617Y0139103D01*
X0099685Y0139103D01*
X0100218Y0138569D01*
X0101766Y0138569D02*
X0102300Y0139103D01*
X0103368Y0139103D01*
X0103901Y0138569D01*
X0103901Y0138035D01*
X0103368Y0137501D01*
X0103901Y0136968D01*
X0103901Y0136434D01*
X0103368Y0135900D01*
X0102300Y0135900D01*
X0101766Y0136434D01*
X0102834Y0137501D02*
X0103368Y0137501D01*
X0105449Y0137501D02*
X0107051Y0137501D01*
X0107585Y0136968D01*
X0107585Y0136434D01*
X0107051Y0135900D01*
X0105449Y0135900D01*
X0105449Y0139103D01*
X0107051Y0139103D01*
X0107585Y0138569D01*
X0107585Y0138035D01*
X0107051Y0137501D01*
X0106318Y0140650D02*
X0104717Y0140650D01*
X0104717Y0143853D01*
X0106318Y0143853D01*
X0106852Y0143319D01*
X0106852Y0142785D01*
X0106318Y0142251D01*
X0104717Y0142251D01*
X0106318Y0142251D02*
X0106852Y0141718D01*
X0106852Y0141184D01*
X0106318Y0140650D01*
X0103169Y0140650D02*
X0101034Y0140650D01*
X0102101Y0140650D02*
X0102101Y0143853D01*
X0101034Y0142785D01*
X0099486Y0143319D02*
X0097351Y0141184D01*
X0097884Y0140650D01*
X0098952Y0140650D01*
X0099486Y0141184D01*
X0099486Y0143319D01*
X0098952Y0143853D01*
X0097884Y0143853D01*
X0097351Y0143319D01*
X0097351Y0141184D01*
X0095803Y0141184D02*
X0095803Y0143319D01*
X0095269Y0143853D01*
X0093667Y0143853D01*
X0093667Y0140650D01*
X0095269Y0140650D01*
X0095803Y0141184D01*
X0098117Y0145900D02*
X0097583Y0146434D01*
X0098117Y0145900D02*
X0099185Y0145900D01*
X0099718Y0146434D01*
X0099718Y0147501D01*
X0099185Y0148035D01*
X0098651Y0148035D01*
X0097583Y0147501D01*
X0097583Y0149103D01*
X0099718Y0149103D01*
X0101266Y0149103D02*
X0101266Y0146968D01*
X0102334Y0145900D01*
X0103401Y0146968D01*
X0103401Y0149103D01*
X0103303Y0152400D02*
X0102235Y0153468D01*
X0102769Y0153468D02*
X0101167Y0153468D01*
X0101167Y0152400D02*
X0101167Y0155603D01*
X0102769Y0155603D01*
X0103303Y0155069D01*
X0103303Y0154001D01*
X0102769Y0153468D01*
X0104851Y0152934D02*
X0106986Y0155069D01*
X0106986Y0152934D01*
X0106452Y0152400D01*
X0105384Y0152400D01*
X0104851Y0152934D01*
X0104851Y0155069D01*
X0105384Y0155603D01*
X0106452Y0155603D01*
X0106986Y0155069D01*
X0108534Y0154535D02*
X0109601Y0155603D01*
X0109601Y0152400D01*
X0108534Y0152400D02*
X0110669Y0152400D01*
X0112217Y0152400D02*
X0113818Y0152400D01*
X0114352Y0152934D01*
X0114352Y0153468D01*
X0113818Y0154001D01*
X0112217Y0154001D01*
X0112217Y0152400D02*
X0112217Y0155603D01*
X0113818Y0155603D01*
X0114352Y0155069D01*
X0114352Y0154535D01*
X0113818Y0154001D01*
X0116791Y0161445D02*
X0116791Y0179555D01*
X0118563Y0179555D01*
X0118563Y0174437D02*
X0126437Y0174437D01*
X0126437Y0179555D02*
X0128209Y0179555D01*
X0128209Y0161445D01*
X0126437Y0161445D01*
X0130667Y0164434D02*
X0130667Y0166569D01*
X0131201Y0167103D01*
X0132269Y0167103D01*
X0132803Y0166569D01*
X0134351Y0166569D02*
X0134884Y0167103D01*
X0135952Y0167103D01*
X0136486Y0166569D01*
X0134351Y0164434D01*
X0134884Y0163900D01*
X0135952Y0163900D01*
X0136486Y0164434D01*
X0136486Y0166569D01*
X0138034Y0167103D02*
X0140169Y0167103D01*
X0140169Y0166569D01*
X0138034Y0164434D01*
X0138034Y0163900D01*
X0141717Y0163900D02*
X0141717Y0167103D01*
X0143318Y0167103D01*
X0143852Y0166569D01*
X0143852Y0166035D01*
X0143318Y0165501D01*
X0141717Y0165501D01*
X0141717Y0163900D02*
X0143318Y0163900D01*
X0143852Y0164434D01*
X0143852Y0164968D01*
X0143318Y0165501D01*
X0134351Y0164434D02*
X0134351Y0166569D01*
X0132803Y0164434D02*
X0132269Y0163900D01*
X0131201Y0163900D01*
X0130667Y0164434D01*
X0130567Y0156103D02*
X0131635Y0156103D01*
X0132169Y0155569D01*
X0132169Y0155035D01*
X0131635Y0154501D01*
X0130567Y0154501D01*
X0130034Y0155035D01*
X0130034Y0155569D01*
X0130567Y0156103D01*
X0130567Y0154501D02*
X0130034Y0153968D01*
X0130034Y0153434D01*
X0130567Y0152900D01*
X0131635Y0152900D01*
X0132169Y0153434D01*
X0132169Y0153968D01*
X0131635Y0154501D01*
X0133717Y0154501D02*
X0135318Y0154501D01*
X0135852Y0153968D01*
X0135852Y0153434D01*
X0135318Y0152900D01*
X0133717Y0152900D01*
X0133717Y0156103D01*
X0135318Y0156103D01*
X0135852Y0155569D01*
X0135852Y0155035D01*
X0135318Y0154501D01*
X0134717Y0149103D02*
X0136318Y0149103D01*
X0136852Y0148569D01*
X0136852Y0148035D01*
X0136318Y0147501D01*
X0134717Y0147501D01*
X0134717Y0145900D02*
X0134717Y0149103D01*
X0133169Y0148569D02*
X0133169Y0148035D01*
X0132635Y0147501D01*
X0133169Y0146968D01*
X0133169Y0146434D01*
X0132635Y0145900D01*
X0131567Y0145900D01*
X0131034Y0146434D01*
X0132101Y0147501D02*
X0132635Y0147501D01*
X0133169Y0148569D02*
X0132635Y0149103D01*
X0131567Y0149103D01*
X0131034Y0148569D01*
X0128418Y0149103D02*
X0128418Y0145900D01*
X0127351Y0145900D02*
X0129486Y0145900D01*
X0127351Y0148035D02*
X0128418Y0149103D01*
X0125803Y0148569D02*
X0125803Y0147501D01*
X0125269Y0146968D01*
X0123667Y0146968D01*
X0124735Y0146968D02*
X0125803Y0145900D01*
X0123667Y0145900D02*
X0123667Y0149103D01*
X0125269Y0149103D01*
X0125803Y0148569D01*
X0126884Y0152900D02*
X0126351Y0153434D01*
X0128486Y0155569D01*
X0128486Y0153434D01*
X0127952Y0152900D01*
X0126884Y0152900D01*
X0126351Y0153434D02*
X0126351Y0155569D01*
X0126884Y0156103D01*
X0127952Y0156103D01*
X0128486Y0155569D01*
X0124803Y0155569D02*
X0124269Y0156103D01*
X0123201Y0156103D01*
X0122667Y0155569D01*
X0122667Y0153434D01*
X0123201Y0152900D01*
X0124269Y0152900D01*
X0124803Y0153434D01*
X0118563Y0161445D02*
X0116791Y0161445D01*
X0115600Y0161900D02*
X0115600Y0163501D01*
X0115066Y0164035D01*
X0112931Y0164035D01*
X0112397Y0163501D01*
X0112397Y0161900D01*
X0115600Y0161900D01*
X0115066Y0165583D02*
X0112931Y0167718D01*
X0115066Y0167718D01*
X0115600Y0167185D01*
X0115600Y0166117D01*
X0115066Y0165583D01*
X0112931Y0165583D01*
X0112397Y0166117D01*
X0112397Y0167185D01*
X0112931Y0167718D01*
X0113999Y0169266D02*
X0112397Y0170868D01*
X0115600Y0170868D01*
X0113999Y0171401D02*
X0113999Y0169266D01*
X0113999Y0172949D02*
X0113999Y0174551D01*
X0114532Y0175085D01*
X0115066Y0175085D01*
X0115600Y0174551D01*
X0115600Y0172949D01*
X0112397Y0172949D01*
X0112397Y0174551D01*
X0112931Y0175085D01*
X0113465Y0175085D01*
X0113999Y0174551D01*
X0116791Y0187445D02*
X0116791Y0205555D01*
X0118563Y0205555D01*
X0118563Y0200437D02*
X0126437Y0200437D01*
X0126437Y0205555D02*
X0128209Y0205555D01*
X0128209Y0187445D01*
X0126437Y0187445D01*
X0118563Y0187445D02*
X0116791Y0187445D01*
X0115600Y0187900D02*
X0115600Y0189501D01*
X0115066Y0190035D01*
X0112931Y0190035D01*
X0112397Y0189501D01*
X0112397Y0187900D01*
X0115600Y0187900D01*
X0115066Y0191583D02*
X0112931Y0193718D01*
X0115066Y0193718D01*
X0115600Y0193185D01*
X0115600Y0192117D01*
X0115066Y0191583D01*
X0112931Y0191583D01*
X0112397Y0192117D01*
X0112397Y0193185D01*
X0112931Y0193718D01*
X0112931Y0195266D02*
X0112397Y0195800D01*
X0112397Y0196868D01*
X0112931Y0197401D01*
X0113465Y0197401D01*
X0113999Y0196868D01*
X0114532Y0197401D01*
X0115066Y0197401D01*
X0115600Y0196868D01*
X0115600Y0195800D01*
X0115066Y0195266D01*
X0113999Y0196334D02*
X0113999Y0196868D01*
X0113999Y0198949D02*
X0113999Y0200551D01*
X0114532Y0201085D01*
X0115066Y0201085D01*
X0115600Y0200551D01*
X0115600Y0198949D01*
X0112397Y0198949D01*
X0112397Y0200551D01*
X0112931Y0201085D01*
X0113465Y0201085D01*
X0113999Y0200551D01*
X0103600Y0199952D02*
X0103600Y0198884D01*
X0103066Y0198351D01*
X0100931Y0200486D01*
X0103066Y0200486D01*
X0103600Y0199952D01*
X0103066Y0198351D02*
X0100931Y0198351D01*
X0100397Y0198884D01*
X0100397Y0199952D01*
X0100931Y0200486D01*
X0100397Y0202034D02*
X0101999Y0202034D01*
X0101465Y0203101D01*
X0101465Y0203635D01*
X0101999Y0204169D01*
X0103066Y0204169D01*
X0103600Y0203635D01*
X0103600Y0202567D01*
X0103066Y0202034D01*
X0100397Y0202034D02*
X0100397Y0204169D01*
X0100397Y0205717D02*
X0100397Y0207318D01*
X0100931Y0207852D01*
X0101465Y0207852D01*
X0101999Y0207318D01*
X0101999Y0205717D01*
X0103600Y0205717D02*
X0103600Y0207318D01*
X0103066Y0207852D01*
X0102532Y0207852D01*
X0101999Y0207318D01*
X0103600Y0205717D02*
X0100397Y0205717D01*
X0100931Y0196803D02*
X0100397Y0196269D01*
X0100397Y0195201D01*
X0100931Y0194667D01*
X0103066Y0194667D01*
X0103600Y0195201D01*
X0103600Y0196269D01*
X0103066Y0196803D01*
X0094051Y0188103D02*
X0094585Y0187569D01*
X0094585Y0187035D01*
X0094051Y0186501D01*
X0092449Y0186501D01*
X0090901Y0186501D02*
X0089300Y0186501D01*
X0088766Y0187035D01*
X0088766Y0187569D01*
X0089300Y0188103D01*
X0090368Y0188103D01*
X0090901Y0187569D01*
X0090901Y0185434D01*
X0090368Y0184900D01*
X0089300Y0184900D01*
X0088766Y0185434D01*
X0087218Y0184900D02*
X0085083Y0184900D01*
X0086151Y0184900D02*
X0086151Y0188103D01*
X0085083Y0187035D01*
X0083535Y0186501D02*
X0083001Y0185968D01*
X0081400Y0185968D01*
X0082468Y0185968D02*
X0083535Y0184900D01*
X0083535Y0186501D02*
X0083535Y0187569D01*
X0083001Y0188103D01*
X0081400Y0188103D01*
X0081400Y0184900D01*
X0077251Y0189100D02*
X0075649Y0189100D01*
X0075649Y0192303D01*
X0077251Y0192303D01*
X0077785Y0191769D01*
X0077785Y0191235D01*
X0077251Y0190701D01*
X0075649Y0190701D01*
X0077251Y0190701D02*
X0077785Y0190168D01*
X0077785Y0189634D01*
X0077251Y0189100D01*
X0074101Y0189634D02*
X0074101Y0190168D01*
X0073568Y0190701D01*
X0071966Y0190701D01*
X0071966Y0189634D01*
X0072500Y0189100D01*
X0073568Y0189100D01*
X0074101Y0189634D01*
X0073034Y0191769D02*
X0071966Y0190701D01*
X0073034Y0191769D02*
X0074101Y0192303D01*
X0076000Y0193500D02*
X0071000Y0193500D01*
X0068500Y0196000D01*
X0068500Y0201000D01*
X0071000Y0203500D01*
X0076000Y0203500D01*
X0078500Y0201000D01*
X0078500Y0196000D01*
X0076000Y0193500D01*
X0070418Y0191769D02*
X0070418Y0189634D01*
X0069885Y0189100D01*
X0068817Y0189100D01*
X0068283Y0189634D01*
X0070418Y0191769D01*
X0069885Y0192303D01*
X0068817Y0192303D01*
X0068283Y0191769D01*
X0068283Y0189634D01*
X0066201Y0189634D02*
X0066201Y0192303D01*
X0065668Y0192303D02*
X0066735Y0192303D01*
X0066201Y0189634D02*
X0065668Y0189100D01*
X0065134Y0189100D01*
X0064600Y0189634D01*
X0063769Y0178603D02*
X0062701Y0178603D01*
X0062167Y0178069D01*
X0062167Y0175934D01*
X0062701Y0175400D01*
X0063769Y0175400D01*
X0064303Y0175934D01*
X0065851Y0175934D02*
X0067986Y0178069D01*
X0067986Y0175934D01*
X0067452Y0175400D01*
X0066384Y0175400D01*
X0065851Y0175934D01*
X0065851Y0178069D01*
X0066384Y0178603D01*
X0067452Y0178603D01*
X0067986Y0178069D01*
X0069534Y0178069D02*
X0070067Y0178603D01*
X0071135Y0178603D01*
X0071669Y0178069D01*
X0071669Y0177535D01*
X0071135Y0177001D01*
X0071669Y0176468D01*
X0071669Y0175934D01*
X0071135Y0175400D01*
X0070067Y0175400D01*
X0069534Y0175934D01*
X0070601Y0177001D02*
X0071135Y0177001D01*
X0073217Y0177001D02*
X0074818Y0177001D01*
X0075352Y0176468D01*
X0075352Y0175934D01*
X0074818Y0175400D01*
X0073217Y0175400D01*
X0073217Y0178603D01*
X0074818Y0178603D01*
X0075352Y0178069D01*
X0075352Y0177535D01*
X0074818Y0177001D01*
X0074635Y0164853D02*
X0073567Y0164853D01*
X0073034Y0164319D01*
X0071486Y0164319D02*
X0069351Y0162184D01*
X0069884Y0161650D01*
X0070952Y0161650D01*
X0071486Y0162184D01*
X0071486Y0164319D01*
X0070952Y0164853D01*
X0069884Y0164853D01*
X0069351Y0164319D01*
X0069351Y0162184D01*
X0067803Y0162184D02*
X0067803Y0164319D01*
X0067269Y0164853D01*
X0065667Y0164853D01*
X0065667Y0161650D01*
X0067269Y0161650D01*
X0067803Y0162184D01*
X0070943Y0160143D02*
X0073543Y0160143D01*
X0073543Y0158043D01*
X0073034Y0161650D02*
X0075169Y0163785D01*
X0075169Y0164319D01*
X0074635Y0164853D01*
X0076717Y0164853D02*
X0078318Y0164853D01*
X0078852Y0164319D01*
X0078852Y0163785D01*
X0078318Y0163251D01*
X0076717Y0163251D01*
X0076717Y0161650D02*
X0078318Y0161650D01*
X0078852Y0162184D01*
X0078852Y0162718D01*
X0078318Y0163251D01*
X0076717Y0161650D02*
X0076717Y0164853D01*
X0075169Y0161650D02*
X0073034Y0161650D01*
X0061600Y0163167D02*
X0058397Y0163167D01*
X0058397Y0164769D01*
X0058931Y0165303D01*
X0059999Y0165303D01*
X0060532Y0164769D01*
X0060532Y0163167D01*
X0060532Y0164235D02*
X0061600Y0165303D01*
X0061066Y0166851D02*
X0061600Y0167384D01*
X0061600Y0168452D01*
X0061066Y0168986D01*
X0058931Y0168986D01*
X0061066Y0166851D01*
X0058931Y0166851D01*
X0058397Y0167384D01*
X0058397Y0168452D01*
X0058931Y0168986D01*
X0058931Y0170534D02*
X0059465Y0170534D01*
X0059999Y0171067D01*
X0059999Y0172135D01*
X0060532Y0172669D01*
X0061066Y0172669D01*
X0061600Y0172135D01*
X0061600Y0171067D01*
X0061066Y0170534D01*
X0060532Y0170534D01*
X0059999Y0171067D01*
X0059999Y0172135D02*
X0059465Y0172669D01*
X0058931Y0172669D01*
X0058397Y0172135D01*
X0058397Y0171067D01*
X0058931Y0170534D01*
X0058397Y0174217D02*
X0058397Y0175818D01*
X0058931Y0176352D01*
X0059465Y0176352D01*
X0059999Y0175818D01*
X0059999Y0174217D01*
X0061600Y0174217D02*
X0058397Y0174217D01*
X0059999Y0175818D02*
X0060532Y0176352D01*
X0061066Y0176352D01*
X0061600Y0175818D01*
X0061600Y0174217D01*
X0064303Y0178069D02*
X0063769Y0178603D01*
X0048600Y0173551D02*
X0048600Y0171949D01*
X0045397Y0171949D01*
X0045397Y0173551D01*
X0045931Y0174085D01*
X0046465Y0174085D01*
X0046999Y0173551D01*
X0046999Y0171949D01*
X0046999Y0173551D02*
X0047532Y0174085D01*
X0048066Y0174085D01*
X0048600Y0173551D01*
X0048600Y0170401D02*
X0048600Y0168266D01*
X0048600Y0169334D02*
X0045397Y0169334D01*
X0046465Y0168266D01*
X0045931Y0166718D02*
X0048066Y0164583D01*
X0048600Y0165117D01*
X0048600Y0166185D01*
X0048066Y0166718D01*
X0045931Y0166718D01*
X0045397Y0166185D01*
X0045397Y0165117D01*
X0045931Y0164583D01*
X0048066Y0164583D01*
X0048066Y0163035D02*
X0048600Y0162501D01*
X0048600Y0161434D01*
X0048066Y0160900D01*
X0045931Y0160900D01*
X0045397Y0161434D01*
X0045397Y0162501D01*
X0045931Y0163035D01*
X0050557Y0160043D02*
X0053157Y0160043D01*
X0050557Y0160043D02*
X0050557Y0157943D01*
X0039327Y0163114D02*
X0033028Y0163114D01*
X0033815Y0167839D02*
X0039327Y0167839D01*
X0039327Y0163114D01*
X0033815Y0167839D02*
X0033815Y0185161D01*
X0039327Y0185161D01*
X0039327Y0189886D01*
X0033028Y0189886D01*
X0033534Y0198600D02*
X0033534Y0201803D01*
X0032466Y0200735D01*
X0030918Y0201269D02*
X0028783Y0199134D01*
X0029317Y0198600D01*
X0030385Y0198600D01*
X0030918Y0199134D01*
X0030918Y0201269D01*
X0030385Y0201803D01*
X0029317Y0201803D01*
X0028783Y0201269D01*
X0028783Y0199134D01*
X0026701Y0199134D02*
X0026701Y0201803D01*
X0026168Y0201803D02*
X0027235Y0201803D01*
X0025566Y0203400D02*
X0026100Y0203934D01*
X0026100Y0205001D01*
X0025566Y0205535D01*
X0026100Y0207083D02*
X0026100Y0209218D01*
X0026100Y0208151D02*
X0022897Y0208151D01*
X0023965Y0207083D01*
X0023431Y0205535D02*
X0022897Y0205001D01*
X0022897Y0203934D01*
X0023431Y0203400D01*
X0025566Y0203400D01*
X0027667Y0205900D02*
X0027667Y0209103D01*
X0029269Y0209103D01*
X0029803Y0208569D01*
X0029803Y0207501D01*
X0029269Y0206968D01*
X0027667Y0206968D01*
X0028735Y0206968D02*
X0029803Y0205900D01*
X0031351Y0205900D02*
X0033486Y0208035D01*
X0033486Y0208569D01*
X0032952Y0209103D01*
X0031884Y0209103D01*
X0031351Y0208569D01*
X0031351Y0205900D02*
X0033486Y0205900D01*
X0035034Y0205900D02*
X0037169Y0205900D01*
X0036101Y0205900D02*
X0036101Y0209103D01*
X0035034Y0208035D01*
X0038717Y0207501D02*
X0040318Y0207501D01*
X0040852Y0206968D01*
X0040852Y0206434D01*
X0040318Y0205900D01*
X0038717Y0205900D01*
X0038717Y0209103D01*
X0040318Y0209103D01*
X0040852Y0208569D01*
X0040852Y0208035D01*
X0040318Y0207501D01*
X0042500Y0203000D02*
X0040000Y0200500D01*
X0040000Y0195500D01*
X0042500Y0193000D01*
X0047500Y0193000D01*
X0050000Y0195500D01*
X0050000Y0200500D01*
X0047500Y0203000D01*
X0042500Y0203000D01*
X0038285Y0201269D02*
X0038285Y0200735D01*
X0037751Y0200201D01*
X0036149Y0200201D01*
X0036149Y0198600D02*
X0036149Y0201803D01*
X0037751Y0201803D01*
X0038285Y0201269D01*
X0037751Y0200201D02*
X0038285Y0199668D01*
X0038285Y0199134D01*
X0037751Y0198600D01*
X0036149Y0198600D01*
X0034601Y0198600D02*
X0032466Y0198600D01*
X0026701Y0199134D02*
X0026168Y0198600D01*
X0025634Y0198600D01*
X0025100Y0199134D01*
X0022398Y0189886D02*
X0022398Y0163114D01*
X0029795Y0168467D02*
X0030328Y0169000D01*
X0030328Y0169534D01*
X0029795Y0170068D01*
X0027126Y0170068D01*
X0027126Y0169534D02*
X0027126Y0170602D01*
X0027659Y0172150D02*
X0027126Y0172684D01*
X0027126Y0173751D01*
X0027659Y0174285D01*
X0029795Y0172150D01*
X0030328Y0172684D01*
X0030328Y0173751D01*
X0029795Y0174285D01*
X0027659Y0174285D01*
X0027126Y0175833D02*
X0027126Y0177968D01*
X0027659Y0177968D01*
X0029795Y0175833D01*
X0030328Y0175833D01*
X0030328Y0179516D02*
X0030328Y0181117D01*
X0029795Y0181651D01*
X0029261Y0181651D01*
X0028727Y0181117D01*
X0028727Y0179516D01*
X0030328Y0179516D02*
X0027126Y0179516D01*
X0027126Y0181117D01*
X0027659Y0181651D01*
X0028193Y0181651D01*
X0028727Y0181117D01*
X0029795Y0172150D02*
X0027659Y0172150D01*
X0026501Y0152603D02*
X0024900Y0152603D01*
X0024900Y0149400D01*
X0024900Y0150468D02*
X0026501Y0150468D01*
X0027035Y0151001D01*
X0027035Y0152069D01*
X0026501Y0152603D01*
X0028583Y0152069D02*
X0029117Y0152603D01*
X0030185Y0152603D01*
X0030718Y0152069D01*
X0028583Y0149934D01*
X0029117Y0149400D01*
X0030185Y0149400D01*
X0030718Y0149934D01*
X0030718Y0152069D01*
X0032266Y0151001D02*
X0033334Y0152069D01*
X0034401Y0152603D01*
X0035949Y0152603D02*
X0035949Y0149400D01*
X0037551Y0149400D01*
X0038085Y0149934D01*
X0038085Y0150468D01*
X0037551Y0151001D01*
X0035949Y0151001D01*
X0035949Y0152603D02*
X0037551Y0152603D01*
X0038085Y0152069D01*
X0038085Y0151535D01*
X0037551Y0151001D01*
X0034401Y0150468D02*
X0033868Y0151001D01*
X0032266Y0151001D01*
X0032266Y0149934D01*
X0032800Y0149400D01*
X0033868Y0149400D01*
X0034401Y0149934D01*
X0034401Y0150468D01*
X0028583Y0149934D02*
X0028583Y0152069D01*
X0025968Y0150468D02*
X0027035Y0149400D01*
X0028117Y0142603D02*
X0029185Y0142603D01*
X0029718Y0142069D01*
X0027583Y0139934D01*
X0028117Y0139400D01*
X0029185Y0139400D01*
X0029718Y0139934D01*
X0029718Y0142069D01*
X0031266Y0142603D02*
X0033401Y0142603D01*
X0033401Y0142069D01*
X0031266Y0139934D01*
X0031266Y0139400D01*
X0034949Y0139400D02*
X0036551Y0139400D01*
X0037085Y0139934D01*
X0037085Y0140468D01*
X0036551Y0141001D01*
X0034949Y0141001D01*
X0034949Y0139400D02*
X0034949Y0142603D01*
X0036551Y0142603D01*
X0037085Y0142069D01*
X0037085Y0141535D01*
X0036551Y0141001D01*
X0028117Y0142603D02*
X0027583Y0142069D01*
X0027583Y0139934D01*
X0026035Y0139400D02*
X0024968Y0140468D01*
X0025501Y0140468D02*
X0023900Y0140468D01*
X0023900Y0139400D02*
X0023900Y0142603D01*
X0025501Y0142603D01*
X0026035Y0142069D01*
X0026035Y0141001D01*
X0025501Y0140468D01*
X0050557Y0139057D02*
X0050557Y0136957D01*
X0053157Y0136957D01*
X0061405Y0133190D02*
X0061939Y0133724D01*
X0062473Y0133724D01*
X0063007Y0133190D01*
X0063007Y0131589D01*
X0064608Y0131589D02*
X0064608Y0133190D01*
X0064074Y0133724D01*
X0063540Y0133724D01*
X0063007Y0133190D01*
X0061405Y0133190D02*
X0061405Y0131589D01*
X0064608Y0131589D01*
X0064608Y0130041D02*
X0064608Y0127906D01*
X0064608Y0128974D02*
X0061405Y0128974D01*
X0062473Y0127906D01*
X0061405Y0126358D02*
X0064074Y0126358D01*
X0064608Y0125824D01*
X0064608Y0124757D01*
X0064074Y0124223D01*
X0061405Y0124223D01*
X0076900Y0122603D02*
X0076900Y0119400D01*
X0076900Y0120468D02*
X0078501Y0120468D01*
X0079035Y0121001D01*
X0079035Y0122069D01*
X0078501Y0122603D01*
X0076900Y0122603D01*
X0077968Y0120468D02*
X0079035Y0119400D01*
X0080583Y0119934D02*
X0082718Y0122069D01*
X0082718Y0119934D01*
X0082185Y0119400D01*
X0081117Y0119400D01*
X0080583Y0119934D01*
X0080583Y0122069D01*
X0081117Y0122603D01*
X0082185Y0122603D01*
X0082718Y0122069D01*
X0084266Y0122603D02*
X0084266Y0121001D01*
X0085334Y0121535D01*
X0085868Y0121535D01*
X0086401Y0121001D01*
X0086401Y0119934D01*
X0085868Y0119400D01*
X0084800Y0119400D01*
X0084266Y0119934D01*
X0084266Y0122603D02*
X0086401Y0122603D01*
X0087949Y0122603D02*
X0087949Y0119400D01*
X0089551Y0119400D01*
X0090085Y0119934D01*
X0090085Y0120468D01*
X0089551Y0121001D01*
X0087949Y0121001D01*
X0087949Y0122603D02*
X0089551Y0122603D01*
X0090085Y0122069D01*
X0090085Y0121535D01*
X0089551Y0121001D01*
X0107051Y0127400D02*
X0107585Y0127934D01*
X0107585Y0128468D01*
X0107051Y0129001D01*
X0094968Y0146434D02*
X0094968Y0148569D01*
X0096035Y0147501D02*
X0093900Y0147501D01*
X0087051Y0146920D02*
X0085831Y0146000D01*
X0085831Y0144189D01*
X0087051Y0145140D02*
X0085891Y0145900D01*
X0085831Y0146000D02*
X0085831Y0147811D01*
X0085831Y0161189D02*
X0085831Y0163000D01*
X0087051Y0163920D01*
X0085831Y0164811D02*
X0085831Y0163000D01*
X0085891Y0162900D02*
X0087051Y0162140D01*
X0093900Y0162434D02*
X0094434Y0161900D01*
X0095501Y0161900D01*
X0096035Y0162434D01*
X0097583Y0161900D02*
X0097583Y0165103D01*
X0097583Y0163501D02*
X0099718Y0163501D01*
X0099718Y0161900D02*
X0099718Y0165103D01*
X0101266Y0164569D02*
X0101266Y0162434D01*
X0101800Y0161900D01*
X0102868Y0161900D01*
X0103401Y0162434D01*
X0103401Y0163501D01*
X0102334Y0163501D01*
X0103401Y0164569D02*
X0102868Y0165103D01*
X0101800Y0165103D01*
X0101266Y0164569D01*
X0096035Y0164569D02*
X0095501Y0165103D01*
X0094434Y0165103D01*
X0093900Y0164569D01*
X0093900Y0162434D01*
X0094766Y0174400D02*
X0096901Y0176535D01*
X0096901Y0177069D01*
X0096368Y0177603D01*
X0095300Y0177603D01*
X0094766Y0177069D01*
X0093218Y0177069D02*
X0091083Y0174934D01*
X0091617Y0174400D01*
X0092685Y0174400D01*
X0093218Y0174934D01*
X0093218Y0177069D01*
X0092685Y0177603D01*
X0091617Y0177603D01*
X0091083Y0177069D01*
X0091083Y0174934D01*
X0089535Y0174400D02*
X0088468Y0175468D01*
X0089001Y0175468D02*
X0087400Y0175468D01*
X0087400Y0174400D02*
X0087400Y0177603D01*
X0089001Y0177603D01*
X0089535Y0177069D01*
X0089535Y0176001D01*
X0089001Y0175468D01*
X0094766Y0174400D02*
X0096901Y0174400D01*
X0098449Y0174400D02*
X0100051Y0174400D01*
X0100585Y0174934D01*
X0100585Y0175468D01*
X0100051Y0176001D01*
X0098449Y0176001D01*
X0098449Y0174400D02*
X0098449Y0177603D01*
X0100051Y0177603D01*
X0100585Y0177069D01*
X0100585Y0176535D01*
X0100051Y0176001D01*
X0094051Y0184900D02*
X0092449Y0184900D01*
X0092449Y0188103D01*
X0094051Y0188103D01*
X0094051Y0186501D02*
X0094585Y0185968D01*
X0094585Y0185434D01*
X0094051Y0184900D01*
X0086066Y0192400D02*
X0086600Y0192934D01*
X0086600Y0194001D01*
X0086066Y0194535D01*
X0086066Y0196083D02*
X0083931Y0198218D01*
X0086066Y0198218D01*
X0086600Y0197685D01*
X0086600Y0196617D01*
X0086066Y0196083D01*
X0083931Y0196083D01*
X0083397Y0196617D01*
X0083397Y0197685D01*
X0083931Y0198218D01*
X0084999Y0199766D02*
X0084999Y0201368D01*
X0085532Y0201901D01*
X0086066Y0201901D01*
X0086600Y0201368D01*
X0086600Y0200300D01*
X0086066Y0199766D01*
X0084999Y0199766D01*
X0083931Y0200834D01*
X0083397Y0201901D01*
X0083397Y0203449D02*
X0083397Y0205051D01*
X0083931Y0205585D01*
X0084465Y0205585D01*
X0084999Y0205051D01*
X0084999Y0203449D01*
X0086600Y0203449D02*
X0086600Y0205051D01*
X0086066Y0205585D01*
X0085532Y0205585D01*
X0084999Y0205051D01*
X0086600Y0203449D02*
X0083397Y0203449D01*
X0083931Y0194535D02*
X0083397Y0194001D01*
X0083397Y0192934D01*
X0083931Y0192400D01*
X0086066Y0192400D01*
X0061066Y0217667D02*
X0061600Y0218201D01*
X0061600Y0219269D01*
X0061066Y0219803D01*
X0061066Y0221351D02*
X0058931Y0223486D01*
X0061066Y0223486D01*
X0061600Y0222952D01*
X0061600Y0221884D01*
X0061066Y0221351D01*
X0058931Y0221351D01*
X0058397Y0221884D01*
X0058397Y0222952D01*
X0058931Y0223486D01*
X0059999Y0225034D02*
X0059999Y0227169D01*
X0059999Y0228717D02*
X0059999Y0230318D01*
X0060532Y0230852D01*
X0061066Y0230852D01*
X0061600Y0230318D01*
X0061600Y0228717D01*
X0058397Y0228717D01*
X0058397Y0230318D01*
X0058931Y0230852D01*
X0059465Y0230852D01*
X0059999Y0230318D01*
X0058000Y0233000D02*
X0060500Y0235500D01*
X0060500Y0240500D01*
X0058000Y0243000D01*
X0053000Y0243000D01*
X0050500Y0240500D01*
X0050500Y0235500D01*
X0053000Y0233000D01*
X0058000Y0233000D01*
X0052600Y0231852D02*
X0052600Y0229717D01*
X0052600Y0230784D02*
X0049397Y0230784D01*
X0050465Y0229717D01*
X0049397Y0228169D02*
X0052066Y0228169D01*
X0052600Y0227635D01*
X0052600Y0226567D01*
X0052066Y0226034D01*
X0049397Y0226034D01*
X0046500Y0225809D02*
X0046500Y0229191D01*
X0042557Y0224709D02*
X0040443Y0224709D01*
X0036500Y0225809D02*
X0036500Y0229191D01*
X0037486Y0233900D02*
X0035351Y0233900D01*
X0037486Y0236035D01*
X0037486Y0236569D01*
X0036952Y0237103D01*
X0035884Y0237103D01*
X0035351Y0236569D01*
X0033803Y0236569D02*
X0033269Y0237103D01*
X0032201Y0237103D01*
X0031667Y0236569D01*
X0031667Y0234434D01*
X0032201Y0233900D01*
X0033269Y0233900D01*
X0033803Y0234434D01*
X0039034Y0234434D02*
X0041169Y0236569D01*
X0041169Y0234434D01*
X0040635Y0233900D01*
X0039567Y0233900D01*
X0039034Y0234434D01*
X0039034Y0236569D01*
X0039567Y0237103D01*
X0040635Y0237103D01*
X0041169Y0236569D01*
X0042717Y0237103D02*
X0044318Y0237103D01*
X0044852Y0236569D01*
X0044852Y0236035D01*
X0044318Y0235501D01*
X0042717Y0235501D01*
X0042717Y0233900D02*
X0044318Y0233900D01*
X0044852Y0234434D01*
X0044852Y0234968D01*
X0044318Y0235501D01*
X0042717Y0233900D02*
X0042717Y0237103D01*
X0031311Y0240169D02*
X0029500Y0240169D01*
X0030420Y0238949D01*
X0029500Y0240169D02*
X0027689Y0240169D01*
X0028640Y0238949D02*
X0029400Y0240109D01*
X0026350Y0239001D02*
X0025816Y0239535D01*
X0023681Y0239535D01*
X0023147Y0239001D01*
X0023147Y0237400D01*
X0026350Y0237400D01*
X0026350Y0239001D01*
X0025816Y0241083D02*
X0026350Y0241617D01*
X0026350Y0242685D01*
X0025816Y0243218D01*
X0023681Y0243218D01*
X0025816Y0241083D01*
X0023681Y0241083D01*
X0023147Y0241617D01*
X0023147Y0242685D01*
X0023681Y0243218D01*
X0024749Y0244766D02*
X0024749Y0246368D01*
X0025282Y0246901D01*
X0025816Y0246901D01*
X0026350Y0246368D01*
X0026350Y0245300D01*
X0025816Y0244766D01*
X0024749Y0244766D01*
X0023681Y0245834D01*
X0023147Y0246901D01*
X0023147Y0248449D02*
X0023147Y0250051D01*
X0023681Y0250585D01*
X0024215Y0250585D01*
X0024749Y0250051D01*
X0024749Y0248449D01*
X0026350Y0248449D02*
X0023147Y0248449D01*
X0024749Y0250051D02*
X0025282Y0250585D01*
X0025816Y0250585D01*
X0026350Y0250051D01*
X0026350Y0248449D01*
X0025566Y0233585D02*
X0026100Y0233051D01*
X0026100Y0231449D01*
X0022897Y0231449D01*
X0022897Y0233051D01*
X0023431Y0233585D01*
X0023965Y0233585D01*
X0024499Y0233051D01*
X0024499Y0231449D01*
X0024499Y0233051D02*
X0025032Y0233585D01*
X0025566Y0233585D01*
X0025566Y0229901D02*
X0026100Y0229368D01*
X0026100Y0228300D01*
X0025566Y0227766D01*
X0023431Y0229901D01*
X0025566Y0229901D01*
X0025566Y0227766D02*
X0023431Y0227766D01*
X0022897Y0228300D01*
X0022897Y0229368D01*
X0023431Y0229901D01*
X0023431Y0226218D02*
X0022897Y0225685D01*
X0022897Y0224617D01*
X0023431Y0224083D01*
X0023431Y0222535D02*
X0024499Y0222535D01*
X0025032Y0222001D01*
X0025032Y0220400D01*
X0025032Y0221468D02*
X0026100Y0222535D01*
X0026100Y0224083D02*
X0023965Y0226218D01*
X0023431Y0226218D01*
X0026100Y0226218D02*
X0026100Y0224083D01*
X0023431Y0222535D02*
X0022897Y0222001D01*
X0022897Y0220400D01*
X0026100Y0220400D01*
X0025566Y0216585D02*
X0026100Y0216051D01*
X0026100Y0214449D01*
X0022897Y0214449D01*
X0022897Y0216051D01*
X0023431Y0216585D01*
X0023965Y0216585D01*
X0024499Y0216051D01*
X0024499Y0214449D01*
X0024499Y0212901D02*
X0024499Y0211300D01*
X0023965Y0210766D01*
X0023431Y0210766D01*
X0022897Y0211300D01*
X0022897Y0212368D01*
X0023431Y0212901D01*
X0025566Y0212901D01*
X0026100Y0212368D01*
X0026100Y0211300D01*
X0025566Y0210766D01*
X0024499Y0216051D02*
X0025032Y0216585D01*
X0025566Y0216585D01*
X0053134Y0244600D02*
X0053668Y0244600D01*
X0054201Y0245134D01*
X0054201Y0247803D01*
X0053668Y0247803D02*
X0054735Y0247803D01*
X0056283Y0247269D02*
X0056817Y0247803D01*
X0057885Y0247803D01*
X0058418Y0247269D01*
X0056283Y0245134D01*
X0056817Y0244600D01*
X0057885Y0244600D01*
X0058418Y0245134D01*
X0058418Y0247269D01*
X0059966Y0247269D02*
X0060500Y0247803D01*
X0061568Y0247803D01*
X0062101Y0247269D01*
X0062101Y0246735D01*
X0059966Y0244600D01*
X0062101Y0244600D01*
X0061900Y0243103D02*
X0063501Y0243103D01*
X0064035Y0242569D01*
X0064035Y0242035D01*
X0063501Y0241501D01*
X0061900Y0241501D01*
X0061900Y0239900D02*
X0063501Y0239900D01*
X0064035Y0240434D01*
X0064035Y0240968D01*
X0063501Y0241501D01*
X0061900Y0239900D02*
X0061900Y0243103D01*
X0063649Y0244600D02*
X0065251Y0244600D01*
X0065785Y0245134D01*
X0065785Y0245668D01*
X0065251Y0246201D01*
X0063649Y0246201D01*
X0063649Y0244600D02*
X0063649Y0247803D01*
X0065251Y0247803D01*
X0065785Y0247269D01*
X0065785Y0246735D01*
X0065251Y0246201D01*
X0065583Y0243103D02*
X0066651Y0242035D01*
X0067718Y0243103D01*
X0067718Y0239900D01*
X0069266Y0239366D02*
X0071401Y0239366D01*
X0072949Y0240434D02*
X0073483Y0239900D01*
X0074551Y0239900D01*
X0075085Y0240434D01*
X0075085Y0242569D01*
X0074551Y0243103D01*
X0073483Y0243103D01*
X0072949Y0242569D01*
X0072949Y0240434D01*
X0076633Y0240434D02*
X0076633Y0243103D01*
X0078768Y0243103D02*
X0078768Y0240434D01*
X0078234Y0239900D01*
X0077166Y0239900D01*
X0076633Y0240434D01*
X0080316Y0243103D02*
X0082451Y0243103D01*
X0081383Y0243103D02*
X0081383Y0239900D01*
X0079000Y0248500D02*
X0062000Y0248500D01*
X0065583Y0243103D02*
X0065583Y0239900D01*
X0056283Y0245134D02*
X0056283Y0247269D01*
X0053134Y0244600D02*
X0052600Y0245134D01*
X0058500Y0256571D02*
X0058500Y0264500D01*
X0062000Y0272500D02*
X0079000Y0272500D01*
X0082500Y0264500D02*
X0082500Y0256453D01*
X0063500Y0260500D02*
X0063502Y0260672D01*
X0063508Y0260843D01*
X0063519Y0261015D01*
X0063534Y0261186D01*
X0063553Y0261357D01*
X0063576Y0261527D01*
X0063603Y0261697D01*
X0063635Y0261866D01*
X0063670Y0262034D01*
X0063710Y0262201D01*
X0063754Y0262367D01*
X0063801Y0262532D01*
X0063853Y0262696D01*
X0063909Y0262858D01*
X0063969Y0263019D01*
X0064033Y0263179D01*
X0064101Y0263337D01*
X0064172Y0263493D01*
X0064247Y0263647D01*
X0064327Y0263800D01*
X0064409Y0263950D01*
X0064496Y0264099D01*
X0064586Y0264245D01*
X0064680Y0264389D01*
X0064777Y0264531D01*
X0064878Y0264670D01*
X0064982Y0264807D01*
X0065089Y0264941D01*
X0065200Y0265072D01*
X0065313Y0265201D01*
X0065430Y0265327D01*
X0065550Y0265450D01*
X0065673Y0265570D01*
X0065799Y0265687D01*
X0065928Y0265800D01*
X0066059Y0265911D01*
X0066193Y0266018D01*
X0066330Y0266122D01*
X0066469Y0266223D01*
X0066611Y0266320D01*
X0066755Y0266414D01*
X0066901Y0266504D01*
X0067050Y0266591D01*
X0067200Y0266673D01*
X0067353Y0266753D01*
X0067507Y0266828D01*
X0067663Y0266899D01*
X0067821Y0266967D01*
X0067981Y0267031D01*
X0068142Y0267091D01*
X0068304Y0267147D01*
X0068468Y0267199D01*
X0068633Y0267246D01*
X0068799Y0267290D01*
X0068966Y0267330D01*
X0069134Y0267365D01*
X0069303Y0267397D01*
X0069473Y0267424D01*
X0069643Y0267447D01*
X0069814Y0267466D01*
X0069985Y0267481D01*
X0070157Y0267492D01*
X0070328Y0267498D01*
X0070500Y0267500D01*
X0070672Y0267498D01*
X0070843Y0267492D01*
X0071015Y0267481D01*
X0071186Y0267466D01*
X0071357Y0267447D01*
X0071527Y0267424D01*
X0071697Y0267397D01*
X0071866Y0267365D01*
X0072034Y0267330D01*
X0072201Y0267290D01*
X0072367Y0267246D01*
X0072532Y0267199D01*
X0072696Y0267147D01*
X0072858Y0267091D01*
X0073019Y0267031D01*
X0073179Y0266967D01*
X0073337Y0266899D01*
X0073493Y0266828D01*
X0073647Y0266753D01*
X0073800Y0266673D01*
X0073950Y0266591D01*
X0074099Y0266504D01*
X0074245Y0266414D01*
X0074389Y0266320D01*
X0074531Y0266223D01*
X0074670Y0266122D01*
X0074807Y0266018D01*
X0074941Y0265911D01*
X0075072Y0265800D01*
X0075201Y0265687D01*
X0075327Y0265570D01*
X0075450Y0265450D01*
X0075570Y0265327D01*
X0075687Y0265201D01*
X0075800Y0265072D01*
X0075911Y0264941D01*
X0076018Y0264807D01*
X0076122Y0264670D01*
X0076223Y0264531D01*
X0076320Y0264389D01*
X0076414Y0264245D01*
X0076504Y0264099D01*
X0076591Y0263950D01*
X0076673Y0263800D01*
X0076753Y0263647D01*
X0076828Y0263493D01*
X0076899Y0263337D01*
X0076967Y0263179D01*
X0077031Y0263019D01*
X0077091Y0262858D01*
X0077147Y0262696D01*
X0077199Y0262532D01*
X0077246Y0262367D01*
X0077290Y0262201D01*
X0077330Y0262034D01*
X0077365Y0261866D01*
X0077397Y0261697D01*
X0077424Y0261527D01*
X0077447Y0261357D01*
X0077466Y0261186D01*
X0077481Y0261015D01*
X0077492Y0260843D01*
X0077498Y0260672D01*
X0077500Y0260500D01*
X0077498Y0260328D01*
X0077492Y0260157D01*
X0077481Y0259985D01*
X0077466Y0259814D01*
X0077447Y0259643D01*
X0077424Y0259473D01*
X0077397Y0259303D01*
X0077365Y0259134D01*
X0077330Y0258966D01*
X0077290Y0258799D01*
X0077246Y0258633D01*
X0077199Y0258468D01*
X0077147Y0258304D01*
X0077091Y0258142D01*
X0077031Y0257981D01*
X0076967Y0257821D01*
X0076899Y0257663D01*
X0076828Y0257507D01*
X0076753Y0257353D01*
X0076673Y0257200D01*
X0076591Y0257050D01*
X0076504Y0256901D01*
X0076414Y0256755D01*
X0076320Y0256611D01*
X0076223Y0256469D01*
X0076122Y0256330D01*
X0076018Y0256193D01*
X0075911Y0256059D01*
X0075800Y0255928D01*
X0075687Y0255799D01*
X0075570Y0255673D01*
X0075450Y0255550D01*
X0075327Y0255430D01*
X0075201Y0255313D01*
X0075072Y0255200D01*
X0074941Y0255089D01*
X0074807Y0254982D01*
X0074670Y0254878D01*
X0074531Y0254777D01*
X0074389Y0254680D01*
X0074245Y0254586D01*
X0074099Y0254496D01*
X0073950Y0254409D01*
X0073800Y0254327D01*
X0073647Y0254247D01*
X0073493Y0254172D01*
X0073337Y0254101D01*
X0073179Y0254033D01*
X0073019Y0253969D01*
X0072858Y0253909D01*
X0072696Y0253853D01*
X0072532Y0253801D01*
X0072367Y0253754D01*
X0072201Y0253710D01*
X0072034Y0253670D01*
X0071866Y0253635D01*
X0071697Y0253603D01*
X0071527Y0253576D01*
X0071357Y0253553D01*
X0071186Y0253534D01*
X0071015Y0253519D01*
X0070843Y0253508D01*
X0070672Y0253502D01*
X0070500Y0253500D01*
X0070328Y0253502D01*
X0070157Y0253508D01*
X0069985Y0253519D01*
X0069814Y0253534D01*
X0069643Y0253553D01*
X0069473Y0253576D01*
X0069303Y0253603D01*
X0069134Y0253635D01*
X0068966Y0253670D01*
X0068799Y0253710D01*
X0068633Y0253754D01*
X0068468Y0253801D01*
X0068304Y0253853D01*
X0068142Y0253909D01*
X0067981Y0253969D01*
X0067821Y0254033D01*
X0067663Y0254101D01*
X0067507Y0254172D01*
X0067353Y0254247D01*
X0067200Y0254327D01*
X0067050Y0254409D01*
X0066901Y0254496D01*
X0066755Y0254586D01*
X0066611Y0254680D01*
X0066469Y0254777D01*
X0066330Y0254878D01*
X0066193Y0254982D01*
X0066059Y0255089D01*
X0065928Y0255200D01*
X0065799Y0255313D01*
X0065673Y0255430D01*
X0065550Y0255550D01*
X0065430Y0255673D01*
X0065313Y0255799D01*
X0065200Y0255928D01*
X0065089Y0256059D01*
X0064982Y0256193D01*
X0064878Y0256330D01*
X0064777Y0256469D01*
X0064680Y0256611D01*
X0064586Y0256755D01*
X0064496Y0256901D01*
X0064409Y0257050D01*
X0064327Y0257200D01*
X0064247Y0257353D01*
X0064172Y0257507D01*
X0064101Y0257663D01*
X0064033Y0257821D01*
X0063969Y0257981D01*
X0063909Y0258142D01*
X0063853Y0258304D01*
X0063801Y0258468D01*
X0063754Y0258633D01*
X0063710Y0258799D01*
X0063670Y0258966D01*
X0063635Y0259134D01*
X0063603Y0259303D01*
X0063576Y0259473D01*
X0063553Y0259643D01*
X0063534Y0259814D01*
X0063519Y0259985D01*
X0063508Y0260157D01*
X0063502Y0260328D01*
X0063500Y0260500D01*
X0063834Y0287400D02*
X0063834Y0290603D01*
X0062766Y0289535D01*
X0061218Y0290069D02*
X0060685Y0290603D01*
X0059617Y0290603D01*
X0059083Y0290069D01*
X0059083Y0287934D01*
X0061218Y0290069D01*
X0061218Y0287934D01*
X0060685Y0287400D01*
X0059617Y0287400D01*
X0059083Y0287934D01*
X0057535Y0287934D02*
X0057001Y0287400D01*
X0055934Y0287400D01*
X0055400Y0287934D01*
X0055400Y0290069D01*
X0055934Y0290603D01*
X0057001Y0290603D01*
X0057535Y0290069D01*
X0062766Y0287400D02*
X0064901Y0287400D01*
X0066449Y0287934D02*
X0066983Y0287400D01*
X0068051Y0287400D01*
X0068585Y0287934D01*
X0068585Y0288468D01*
X0068051Y0289001D01*
X0066983Y0289001D01*
X0066449Y0289535D01*
X0066449Y0290069D01*
X0066983Y0290603D01*
X0068051Y0290603D01*
X0068585Y0290069D01*
X0091400Y0306150D02*
X0091400Y0309353D01*
X0093001Y0309353D01*
X0093535Y0308819D01*
X0093535Y0306684D01*
X0093001Y0306150D01*
X0091400Y0306150D01*
X0095083Y0306684D02*
X0095083Y0308819D01*
X0095617Y0309353D01*
X0096685Y0309353D01*
X0097218Y0308819D01*
X0095083Y0306684D01*
X0095617Y0306150D01*
X0096685Y0306150D01*
X0097218Y0306684D01*
X0097218Y0308819D01*
X0098766Y0308285D02*
X0099834Y0309353D01*
X0099834Y0306150D01*
X0100901Y0306150D02*
X0098766Y0306150D01*
X0102449Y0306684D02*
X0102983Y0306150D01*
X0104051Y0306150D01*
X0104585Y0306684D01*
X0104585Y0307218D01*
X0104051Y0307751D01*
X0102983Y0307751D01*
X0102449Y0308285D01*
X0102449Y0308819D01*
X0102983Y0309353D01*
X0104051Y0309353D01*
X0104585Y0308819D01*
X0099169Y0311189D02*
X0099169Y0313000D01*
X0097949Y0312080D01*
X0099169Y0313000D02*
X0099169Y0314811D01*
X0097949Y0313860D02*
X0099109Y0313100D01*
X0098766Y0326400D02*
X0100901Y0326400D01*
X0099834Y0326400D02*
X0099834Y0329603D01*
X0098766Y0328535D01*
X0097218Y0329069D02*
X0095083Y0326934D01*
X0095617Y0326400D01*
X0096685Y0326400D01*
X0097218Y0326934D01*
X0097218Y0329069D01*
X0096685Y0329603D01*
X0095617Y0329603D01*
X0095083Y0329069D01*
X0095083Y0326934D01*
X0093535Y0326400D02*
X0092468Y0327468D01*
X0093001Y0327468D02*
X0091400Y0327468D01*
X0091400Y0326400D02*
X0091400Y0329603D01*
X0093001Y0329603D01*
X0093535Y0329069D01*
X0093535Y0328001D01*
X0093001Y0327468D01*
X0102449Y0326934D02*
X0102983Y0326400D01*
X0104051Y0326400D01*
X0104585Y0326934D01*
X0104585Y0327468D01*
X0104051Y0328001D01*
X0102983Y0328001D01*
X0102449Y0328535D01*
X0102449Y0329069D01*
X0102983Y0329603D01*
X0104051Y0329603D01*
X0104585Y0329069D01*
X0106000Y0343500D02*
X0101000Y0343500D01*
X0098500Y0346000D01*
X0098500Y0351000D01*
X0101000Y0353500D01*
X0098500Y0356000D01*
X0098500Y0361000D01*
X0101000Y0363500D01*
X0098500Y0366000D01*
X0098500Y0371000D01*
X0101000Y0373500D01*
X0098500Y0376000D01*
X0098500Y0381000D01*
X0101000Y0383500D01*
X0098500Y0386000D01*
X0098500Y0391000D01*
X0101000Y0393500D01*
X0106000Y0393500D01*
X0108500Y0391000D01*
X0108500Y0386000D01*
X0106000Y0383500D01*
X0108500Y0381000D01*
X0108500Y0376000D01*
X0106000Y0373500D01*
X0108500Y0371000D01*
X0108500Y0366000D01*
X0106000Y0363500D01*
X0108500Y0361000D01*
X0108500Y0356000D01*
X0106000Y0353500D01*
X0108500Y0351000D01*
X0108500Y0346000D01*
X0106000Y0343500D01*
X0095818Y0362900D02*
X0096352Y0363434D01*
X0096352Y0365569D01*
X0095818Y0366103D01*
X0094217Y0366103D01*
X0094217Y0362900D01*
X0095818Y0362900D01*
X0092669Y0362900D02*
X0092669Y0366103D01*
X0090534Y0366103D02*
X0090534Y0362900D01*
X0088986Y0363434D02*
X0088986Y0364501D01*
X0087918Y0364501D01*
X0086851Y0363434D02*
X0087384Y0362900D01*
X0088452Y0362900D01*
X0088986Y0363434D01*
X0088986Y0365569D02*
X0088452Y0366103D01*
X0087384Y0366103D01*
X0086851Y0365569D01*
X0086851Y0363434D01*
X0090534Y0366103D02*
X0092669Y0362900D01*
X0092829Y0368900D02*
X0091761Y0368900D01*
X0092295Y0368900D02*
X0092295Y0372103D01*
X0091761Y0372103D02*
X0092829Y0372103D01*
X0094217Y0372103D02*
X0094217Y0368900D01*
X0096352Y0368900D01*
X0095818Y0374900D02*
X0094751Y0374900D01*
X0094217Y0375434D01*
X0095284Y0376501D02*
X0095818Y0376501D01*
X0096352Y0375968D01*
X0096352Y0375434D01*
X0095818Y0374900D01*
X0095818Y0376501D02*
X0096352Y0377035D01*
X0096352Y0377569D01*
X0095818Y0378103D01*
X0094751Y0378103D01*
X0094217Y0377569D01*
X0092669Y0378103D02*
X0092669Y0375968D01*
X0091601Y0374900D01*
X0090534Y0375968D01*
X0090534Y0378103D01*
X0088986Y0377569D02*
X0088986Y0377035D01*
X0088452Y0376501D01*
X0088986Y0375968D01*
X0088986Y0375434D01*
X0088452Y0374900D01*
X0087384Y0374900D01*
X0086851Y0375434D01*
X0087918Y0376501D02*
X0088452Y0376501D01*
X0088986Y0377569D02*
X0088452Y0378103D01*
X0087384Y0378103D01*
X0086851Y0377569D01*
X0085303Y0376501D02*
X0083167Y0376501D01*
X0084235Y0375434D02*
X0084235Y0377569D01*
X0084769Y0380900D02*
X0085303Y0381434D01*
X0085303Y0384103D01*
X0083167Y0384103D02*
X0083167Y0381434D01*
X0083701Y0380900D01*
X0084769Y0380900D01*
X0086851Y0380366D02*
X0088986Y0380366D01*
X0090534Y0380900D02*
X0090534Y0384103D01*
X0092135Y0384103D01*
X0092669Y0383569D01*
X0092669Y0382501D01*
X0092135Y0381968D01*
X0090534Y0381968D01*
X0091601Y0381968D02*
X0092669Y0380900D01*
X0094217Y0380900D02*
X0096352Y0384103D01*
X0094217Y0384103D02*
X0096352Y0380900D01*
X0096352Y0386900D02*
X0094217Y0390103D01*
X0092669Y0390103D02*
X0090534Y0390103D01*
X0091601Y0390103D02*
X0091601Y0386900D01*
X0094217Y0386900D02*
X0096352Y0390103D01*
X0088986Y0386366D02*
X0086851Y0386366D01*
X0085303Y0387434D02*
X0085303Y0390103D01*
X0083167Y0390103D02*
X0083167Y0387434D01*
X0083701Y0386900D01*
X0084769Y0386900D01*
X0085303Y0387434D01*
X0081619Y0387434D02*
X0081086Y0386900D01*
X0080018Y0386900D01*
X0079484Y0387434D01*
X0079484Y0389569D01*
X0080018Y0390103D01*
X0081086Y0390103D01*
X0081619Y0389569D01*
X0077936Y0390103D02*
X0077936Y0386900D01*
X0075801Y0386900D02*
X0075801Y0390103D01*
X0076869Y0389035D01*
X0077936Y0390103D01*
X0077936Y0384103D02*
X0077936Y0380900D01*
X0079484Y0381434D02*
X0080018Y0380900D01*
X0081086Y0380900D01*
X0081619Y0381434D01*
X0079484Y0381434D02*
X0079484Y0383569D01*
X0080018Y0384103D01*
X0081086Y0384103D01*
X0081619Y0383569D01*
X0077936Y0384103D02*
X0076869Y0383035D01*
X0075801Y0384103D01*
X0075801Y0380900D01*
X0088078Y0372103D02*
X0090213Y0368900D01*
X0090213Y0372103D01*
X0088078Y0372103D02*
X0088078Y0368900D01*
X0074718Y0364569D02*
X0074718Y0362434D01*
X0074185Y0361900D01*
X0072583Y0361900D01*
X0072583Y0365103D01*
X0074185Y0365103D01*
X0074718Y0364569D01*
X0071035Y0364569D02*
X0070501Y0365103D01*
X0069434Y0365103D01*
X0068900Y0364569D01*
X0068900Y0362434D01*
X0069434Y0361900D01*
X0070501Y0361900D01*
X0071035Y0362434D01*
X0040792Y0384610D02*
X0040794Y0384768D01*
X0040800Y0384926D01*
X0040810Y0385084D01*
X0040824Y0385242D01*
X0040842Y0385399D01*
X0040863Y0385556D01*
X0040889Y0385712D01*
X0040919Y0385868D01*
X0040952Y0386023D01*
X0040990Y0386176D01*
X0041031Y0386329D01*
X0041076Y0386481D01*
X0041125Y0386632D01*
X0041178Y0386781D01*
X0041234Y0386929D01*
X0041294Y0387075D01*
X0041358Y0387220D01*
X0041426Y0387363D01*
X0041497Y0387505D01*
X0041571Y0387645D01*
X0041649Y0387782D01*
X0041731Y0387918D01*
X0041815Y0388052D01*
X0041904Y0388183D01*
X0041995Y0388312D01*
X0042090Y0388439D01*
X0042187Y0388564D01*
X0042288Y0388686D01*
X0042392Y0388805D01*
X0042499Y0388922D01*
X0042609Y0389036D01*
X0042722Y0389147D01*
X0042837Y0389256D01*
X0042955Y0389361D01*
X0043076Y0389463D01*
X0043199Y0389563D01*
X0043325Y0389659D01*
X0043453Y0389752D01*
X0043583Y0389842D01*
X0043716Y0389928D01*
X0043851Y0390012D01*
X0043987Y0390091D01*
X0044126Y0390168D01*
X0044267Y0390240D01*
X0044409Y0390310D01*
X0044553Y0390375D01*
X0044699Y0390437D01*
X0044846Y0390495D01*
X0044995Y0390550D01*
X0045145Y0390601D01*
X0045296Y0390648D01*
X0045448Y0390691D01*
X0045601Y0390730D01*
X0045756Y0390766D01*
X0045911Y0390797D01*
X0046067Y0390825D01*
X0046223Y0390849D01*
X0046380Y0390869D01*
X0046538Y0390885D01*
X0046695Y0390897D01*
X0046854Y0390905D01*
X0047012Y0390909D01*
X0047170Y0390909D01*
X0047328Y0390905D01*
X0047487Y0390897D01*
X0047644Y0390885D01*
X0047802Y0390869D01*
X0047959Y0390849D01*
X0048115Y0390825D01*
X0048271Y0390797D01*
X0048426Y0390766D01*
X0048581Y0390730D01*
X0048734Y0390691D01*
X0048886Y0390648D01*
X0049037Y0390601D01*
X0049187Y0390550D01*
X0049336Y0390495D01*
X0049483Y0390437D01*
X0049629Y0390375D01*
X0049773Y0390310D01*
X0049915Y0390240D01*
X0050056Y0390168D01*
X0050195Y0390091D01*
X0050331Y0390012D01*
X0050466Y0389928D01*
X0050599Y0389842D01*
X0050729Y0389752D01*
X0050857Y0389659D01*
X0050983Y0389563D01*
X0051106Y0389463D01*
X0051227Y0389361D01*
X0051345Y0389256D01*
X0051460Y0389147D01*
X0051573Y0389036D01*
X0051683Y0388922D01*
X0051790Y0388805D01*
X0051894Y0388686D01*
X0051995Y0388564D01*
X0052092Y0388439D01*
X0052187Y0388312D01*
X0052278Y0388183D01*
X0052367Y0388052D01*
X0052451Y0387918D01*
X0052533Y0387782D01*
X0052611Y0387645D01*
X0052685Y0387505D01*
X0052756Y0387363D01*
X0052824Y0387220D01*
X0052888Y0387075D01*
X0052948Y0386929D01*
X0053004Y0386781D01*
X0053057Y0386632D01*
X0053106Y0386481D01*
X0053151Y0386329D01*
X0053192Y0386176D01*
X0053230Y0386023D01*
X0053263Y0385868D01*
X0053293Y0385712D01*
X0053319Y0385556D01*
X0053340Y0385399D01*
X0053358Y0385242D01*
X0053372Y0385084D01*
X0053382Y0384926D01*
X0053388Y0384768D01*
X0053390Y0384610D01*
X0053388Y0384452D01*
X0053382Y0384294D01*
X0053372Y0384136D01*
X0053358Y0383978D01*
X0053340Y0383821D01*
X0053319Y0383664D01*
X0053293Y0383508D01*
X0053263Y0383352D01*
X0053230Y0383197D01*
X0053192Y0383044D01*
X0053151Y0382891D01*
X0053106Y0382739D01*
X0053057Y0382588D01*
X0053004Y0382439D01*
X0052948Y0382291D01*
X0052888Y0382145D01*
X0052824Y0382000D01*
X0052756Y0381857D01*
X0052685Y0381715D01*
X0052611Y0381575D01*
X0052533Y0381438D01*
X0052451Y0381302D01*
X0052367Y0381168D01*
X0052278Y0381037D01*
X0052187Y0380908D01*
X0052092Y0380781D01*
X0051995Y0380656D01*
X0051894Y0380534D01*
X0051790Y0380415D01*
X0051683Y0380298D01*
X0051573Y0380184D01*
X0051460Y0380073D01*
X0051345Y0379964D01*
X0051227Y0379859D01*
X0051106Y0379757D01*
X0050983Y0379657D01*
X0050857Y0379561D01*
X0050729Y0379468D01*
X0050599Y0379378D01*
X0050466Y0379292D01*
X0050331Y0379208D01*
X0050195Y0379129D01*
X0050056Y0379052D01*
X0049915Y0378980D01*
X0049773Y0378910D01*
X0049629Y0378845D01*
X0049483Y0378783D01*
X0049336Y0378725D01*
X0049187Y0378670D01*
X0049037Y0378619D01*
X0048886Y0378572D01*
X0048734Y0378529D01*
X0048581Y0378490D01*
X0048426Y0378454D01*
X0048271Y0378423D01*
X0048115Y0378395D01*
X0047959Y0378371D01*
X0047802Y0378351D01*
X0047644Y0378335D01*
X0047487Y0378323D01*
X0047328Y0378315D01*
X0047170Y0378311D01*
X0047012Y0378311D01*
X0046854Y0378315D01*
X0046695Y0378323D01*
X0046538Y0378335D01*
X0046380Y0378351D01*
X0046223Y0378371D01*
X0046067Y0378395D01*
X0045911Y0378423D01*
X0045756Y0378454D01*
X0045601Y0378490D01*
X0045448Y0378529D01*
X0045296Y0378572D01*
X0045145Y0378619D01*
X0044995Y0378670D01*
X0044846Y0378725D01*
X0044699Y0378783D01*
X0044553Y0378845D01*
X0044409Y0378910D01*
X0044267Y0378980D01*
X0044126Y0379052D01*
X0043987Y0379129D01*
X0043851Y0379208D01*
X0043716Y0379292D01*
X0043583Y0379378D01*
X0043453Y0379468D01*
X0043325Y0379561D01*
X0043199Y0379657D01*
X0043076Y0379757D01*
X0042955Y0379859D01*
X0042837Y0379964D01*
X0042722Y0380073D01*
X0042609Y0380184D01*
X0042499Y0380298D01*
X0042392Y0380415D01*
X0042288Y0380534D01*
X0042187Y0380656D01*
X0042090Y0380781D01*
X0041995Y0380908D01*
X0041904Y0381037D01*
X0041815Y0381168D01*
X0041731Y0381302D01*
X0041649Y0381438D01*
X0041571Y0381575D01*
X0041497Y0381715D01*
X0041426Y0381857D01*
X0041358Y0382000D01*
X0041294Y0382145D01*
X0041234Y0382291D01*
X0041178Y0382439D01*
X0041125Y0382588D01*
X0041076Y0382739D01*
X0041031Y0382891D01*
X0040990Y0383044D01*
X0040952Y0383197D01*
X0040919Y0383352D01*
X0040889Y0383508D01*
X0040863Y0383664D01*
X0040842Y0383821D01*
X0040824Y0383978D01*
X0040810Y0384136D01*
X0040800Y0384294D01*
X0040794Y0384452D01*
X0040792Y0384610D01*
X0173900Y0311103D02*
X0175501Y0311103D01*
X0176035Y0310569D01*
X0176035Y0309501D01*
X0175501Y0308968D01*
X0173900Y0308968D01*
X0174968Y0308968D02*
X0176035Y0307900D01*
X0177583Y0308434D02*
X0179718Y0310569D01*
X0179718Y0308434D01*
X0179185Y0307900D01*
X0178117Y0307900D01*
X0177583Y0308434D01*
X0177583Y0310569D01*
X0178117Y0311103D01*
X0179185Y0311103D01*
X0179718Y0310569D01*
X0181266Y0310569D02*
X0181266Y0310035D01*
X0181800Y0309501D01*
X0182868Y0309501D01*
X0183401Y0308968D01*
X0183401Y0308434D01*
X0182868Y0307900D01*
X0181800Y0307900D01*
X0181266Y0308434D01*
X0181266Y0308968D01*
X0181800Y0309501D01*
X0182868Y0309501D02*
X0183401Y0310035D01*
X0183401Y0310569D01*
X0182868Y0311103D01*
X0181800Y0311103D01*
X0181266Y0310569D01*
X0184949Y0311103D02*
X0186017Y0310035D01*
X0187085Y0311103D01*
X0187085Y0307900D01*
X0184949Y0307900D02*
X0184949Y0311103D01*
X0173900Y0311103D02*
X0173900Y0307900D01*
X0173900Y0289103D02*
X0175501Y0289103D01*
X0176035Y0288569D01*
X0176035Y0287501D01*
X0175501Y0286968D01*
X0173900Y0286968D01*
X0174968Y0286968D02*
X0176035Y0285900D01*
X0177583Y0286434D02*
X0179718Y0288569D01*
X0179718Y0286434D01*
X0179185Y0285900D01*
X0178117Y0285900D01*
X0177583Y0286434D01*
X0177583Y0288569D01*
X0178117Y0289103D01*
X0179185Y0289103D01*
X0179718Y0288569D01*
X0181266Y0288569D02*
X0181266Y0288035D01*
X0181800Y0287501D01*
X0183401Y0287501D01*
X0183401Y0286434D02*
X0183401Y0288569D01*
X0182868Y0289103D01*
X0181800Y0289103D01*
X0181266Y0288569D01*
X0181266Y0286434D02*
X0181800Y0285900D01*
X0182868Y0285900D01*
X0183401Y0286434D01*
X0184949Y0285900D02*
X0184949Y0289103D01*
X0186017Y0288035D01*
X0187085Y0289103D01*
X0187085Y0285900D01*
X0173900Y0285900D02*
X0173900Y0289103D01*
X0174717Y0242603D02*
X0176318Y0242603D01*
X0176852Y0242069D01*
X0176852Y0241535D01*
X0176318Y0241001D01*
X0174717Y0241001D01*
X0174717Y0239400D02*
X0176318Y0239400D01*
X0176852Y0239934D01*
X0176852Y0240468D01*
X0176318Y0241001D01*
X0174717Y0239400D02*
X0174717Y0242603D01*
X0173169Y0242069D02*
X0172635Y0242603D01*
X0171567Y0242603D01*
X0171034Y0242069D01*
X0173169Y0242069D02*
X0173169Y0241535D01*
X0171034Y0239400D01*
X0173169Y0239400D01*
X0169486Y0239400D02*
X0167351Y0239400D01*
X0168418Y0239400D02*
X0168418Y0242603D01*
X0167351Y0241535D01*
X0165803Y0241001D02*
X0165269Y0240468D01*
X0163667Y0240468D01*
X0164735Y0240468D02*
X0165803Y0239400D01*
X0165803Y0241001D02*
X0165803Y0242069D01*
X0165269Y0242603D01*
X0163667Y0242603D01*
X0163667Y0239400D01*
X0160602Y0239934D02*
X0160068Y0239400D01*
X0158467Y0239400D01*
X0158467Y0242603D01*
X0160068Y0242603D01*
X0160602Y0242069D01*
X0160602Y0241535D01*
X0160068Y0241001D01*
X0158467Y0241001D01*
X0160068Y0241001D02*
X0160602Y0240468D01*
X0160602Y0239934D01*
X0158394Y0237012D02*
X0155244Y0237012D01*
X0155244Y0234650D01*
X0154784Y0239400D02*
X0156919Y0239400D01*
X0155851Y0239400D02*
X0155851Y0242603D01*
X0154784Y0241535D01*
X0153236Y0242069D02*
X0152702Y0242603D01*
X0151634Y0242603D01*
X0151101Y0242069D01*
X0151101Y0239934D01*
X0153236Y0242069D01*
X0153236Y0239934D01*
X0152702Y0239400D01*
X0151634Y0239400D01*
X0151101Y0239934D01*
X0149553Y0239934D02*
X0149019Y0239400D01*
X0147951Y0239400D01*
X0147417Y0239934D01*
X0147417Y0242069D01*
X0147951Y0242603D01*
X0149019Y0242603D01*
X0149553Y0242069D01*
X0149553Y0239934D01*
X0149553Y0239400D02*
X0148485Y0240468D01*
X0143500Y0236500D02*
X0138500Y0236500D01*
X0136000Y0234000D01*
X0136000Y0229000D01*
X0138500Y0226500D01*
X0143500Y0226500D01*
X0146000Y0229000D01*
X0146000Y0234000D01*
X0143500Y0236500D01*
X0134785Y0236269D02*
X0134785Y0235735D01*
X0134251Y0235201D01*
X0132649Y0235201D01*
X0132649Y0233600D02*
X0132649Y0236803D01*
X0134251Y0236803D01*
X0134785Y0236269D01*
X0134251Y0235201D02*
X0134785Y0234668D01*
X0134785Y0234134D01*
X0134251Y0233600D01*
X0132649Y0233600D01*
X0131101Y0234134D02*
X0130568Y0233600D01*
X0129500Y0233600D01*
X0128966Y0234134D01*
X0128966Y0234668D01*
X0129500Y0235201D01*
X0130568Y0235201D01*
X0131101Y0234668D01*
X0131101Y0234134D01*
X0130568Y0235201D02*
X0131101Y0235735D01*
X0131101Y0236269D01*
X0130568Y0236803D01*
X0129500Y0236803D01*
X0128966Y0236269D01*
X0128966Y0235735D01*
X0129500Y0235201D01*
X0127418Y0234134D02*
X0126885Y0233600D01*
X0125817Y0233600D01*
X0125283Y0234134D01*
X0127418Y0236269D01*
X0127418Y0234134D01*
X0125283Y0234134D02*
X0125283Y0236269D01*
X0125817Y0236803D01*
X0126885Y0236803D01*
X0127418Y0236269D01*
X0123735Y0236803D02*
X0122668Y0236803D01*
X0123201Y0236803D02*
X0123201Y0234134D01*
X0122668Y0233600D01*
X0122134Y0233600D01*
X0121600Y0234134D01*
X0125900Y0231103D02*
X0125900Y0228968D01*
X0126968Y0227900D01*
X0128035Y0228968D01*
X0128035Y0231103D01*
X0129583Y0231103D02*
X0130651Y0231103D01*
X0130117Y0231103D02*
X0130117Y0227900D01*
X0129583Y0227900D02*
X0130651Y0227900D01*
X0132039Y0227900D02*
X0132039Y0231103D01*
X0134174Y0227900D01*
X0134174Y0231103D01*
X0132089Y0219445D02*
X0132089Y0216243D01*
X0134224Y0216243D01*
X0135772Y0216776D02*
X0137907Y0218911D01*
X0137907Y0216776D01*
X0137373Y0216243D01*
X0136306Y0216243D01*
X0135772Y0216776D01*
X0135772Y0218911D01*
X0136306Y0219445D01*
X0137373Y0219445D01*
X0137907Y0218911D01*
X0139455Y0218911D02*
X0139989Y0219445D01*
X0141057Y0219445D01*
X0141590Y0218911D01*
X0141590Y0218378D01*
X0139455Y0216243D01*
X0141590Y0216243D01*
X0143138Y0216243D02*
X0144740Y0216243D01*
X0145274Y0216776D01*
X0145274Y0217310D01*
X0144740Y0217844D01*
X0143138Y0217844D01*
X0143138Y0219445D02*
X0144740Y0219445D01*
X0145274Y0218911D01*
X0145274Y0218378D01*
X0144740Y0217844D01*
X0143138Y0216243D02*
X0143138Y0219445D01*
X0155244Y0225988D02*
X0158394Y0225988D01*
X0155244Y0225988D02*
X0155244Y0228350D01*
X0162978Y0219760D02*
X0162978Y0216557D01*
X0165114Y0216557D01*
X0166662Y0217091D02*
X0168797Y0219226D01*
X0168797Y0217091D01*
X0168263Y0216557D01*
X0167195Y0216557D01*
X0166662Y0217091D01*
X0166662Y0219226D01*
X0167195Y0219760D01*
X0168263Y0219760D01*
X0168797Y0219226D01*
X0170345Y0219226D02*
X0170879Y0219760D01*
X0171946Y0219760D01*
X0172480Y0219226D01*
X0172480Y0218693D01*
X0171946Y0218159D01*
X0172480Y0217625D01*
X0172480Y0217091D01*
X0171946Y0216557D01*
X0170879Y0216557D01*
X0170345Y0217091D01*
X0171412Y0218159D02*
X0171946Y0218159D01*
X0174028Y0218159D02*
X0175629Y0218159D01*
X0176163Y0217625D01*
X0176163Y0217091D01*
X0175629Y0216557D01*
X0174028Y0216557D01*
X0174028Y0219760D01*
X0175629Y0219760D01*
X0176163Y0219226D01*
X0176163Y0218693D01*
X0175629Y0218159D01*
X0175217Y0191103D02*
X0176818Y0191103D01*
X0177352Y0190569D01*
X0177352Y0190035D01*
X0176818Y0189501D01*
X0175217Y0189501D01*
X0173669Y0189501D02*
X0172067Y0189501D01*
X0171534Y0190035D01*
X0171534Y0190569D01*
X0172067Y0191103D01*
X0173135Y0191103D01*
X0173669Y0190569D01*
X0173669Y0188434D01*
X0173135Y0187900D01*
X0172067Y0187900D01*
X0171534Y0188434D01*
X0169986Y0188434D02*
X0169986Y0190569D01*
X0167851Y0188434D01*
X0168384Y0187900D01*
X0169452Y0187900D01*
X0169986Y0188434D01*
X0169986Y0190569D02*
X0169452Y0191103D01*
X0168384Y0191103D01*
X0167851Y0190569D01*
X0167851Y0188434D01*
X0166303Y0188434D02*
X0165769Y0187900D01*
X0164701Y0187900D01*
X0164167Y0188434D01*
X0164167Y0190569D01*
X0164701Y0191103D01*
X0165769Y0191103D01*
X0166303Y0190569D01*
X0175217Y0191103D02*
X0175217Y0187900D01*
X0176818Y0187900D01*
X0177352Y0188434D01*
X0177352Y0188968D01*
X0176818Y0189501D01*
X0177563Y0179555D02*
X0175791Y0179555D01*
X0175791Y0161445D01*
X0177563Y0161445D01*
X0177563Y0166563D02*
X0185437Y0166563D01*
X0188397Y0166769D02*
X0188397Y0165167D01*
X0191600Y0165167D01*
X0191600Y0166769D01*
X0191066Y0167303D01*
X0188931Y0167303D01*
X0188397Y0166769D01*
X0188931Y0168851D02*
X0188397Y0169384D01*
X0188397Y0170452D01*
X0188931Y0170986D01*
X0191066Y0168851D01*
X0191600Y0169384D01*
X0191600Y0170452D01*
X0191066Y0170986D01*
X0188931Y0170986D01*
X0188397Y0172534D02*
X0189999Y0172534D01*
X0189465Y0173601D01*
X0189465Y0174135D01*
X0189999Y0174669D01*
X0191066Y0174669D01*
X0191600Y0174135D01*
X0191600Y0173067D01*
X0191066Y0172534D01*
X0188397Y0172534D02*
X0188397Y0174669D01*
X0188397Y0176217D02*
X0188397Y0177818D01*
X0188931Y0178352D01*
X0189465Y0178352D01*
X0189999Y0177818D01*
X0189999Y0176217D01*
X0191600Y0176217D02*
X0191600Y0177818D01*
X0191066Y0178352D01*
X0190532Y0178352D01*
X0189999Y0177818D01*
X0191600Y0176217D02*
X0188397Y0176217D01*
X0187209Y0179555D02*
X0187209Y0161445D01*
X0185437Y0161445D01*
X0184051Y0156103D02*
X0182449Y0156103D01*
X0182449Y0152900D01*
X0184051Y0152900D01*
X0184585Y0153434D01*
X0184585Y0153968D01*
X0184051Y0154501D01*
X0182449Y0154501D01*
X0184051Y0154501D02*
X0184585Y0155035D01*
X0184585Y0155569D01*
X0184051Y0156103D01*
X0180901Y0155569D02*
X0178766Y0153434D01*
X0179300Y0152900D01*
X0180368Y0152900D01*
X0180901Y0153434D01*
X0180901Y0155569D01*
X0180368Y0156103D01*
X0179300Y0156103D01*
X0178766Y0155569D01*
X0178766Y0153434D01*
X0177218Y0152900D02*
X0175083Y0152900D01*
X0176151Y0152900D02*
X0176151Y0156103D01*
X0175083Y0155035D01*
X0173535Y0155569D02*
X0173001Y0156103D01*
X0171934Y0156103D01*
X0171400Y0155569D01*
X0171400Y0153434D01*
X0171934Y0152900D01*
X0173001Y0152900D01*
X0173535Y0153434D01*
X0172001Y0145103D02*
X0170400Y0145103D01*
X0170400Y0141900D01*
X0170400Y0142968D02*
X0172001Y0142968D01*
X0172535Y0143501D01*
X0172535Y0144569D01*
X0172001Y0145103D01*
X0171468Y0142968D02*
X0172535Y0141900D01*
X0174083Y0141900D02*
X0176218Y0141900D01*
X0175151Y0141900D02*
X0175151Y0145103D01*
X0174083Y0144035D01*
X0177766Y0143501D02*
X0178834Y0144035D01*
X0179368Y0144035D01*
X0179901Y0143501D01*
X0179901Y0142434D01*
X0179368Y0141900D01*
X0178300Y0141900D01*
X0177766Y0142434D01*
X0177766Y0143501D02*
X0177766Y0145103D01*
X0179901Y0145103D01*
X0181449Y0145103D02*
X0183051Y0145103D01*
X0183585Y0144569D01*
X0183585Y0144035D01*
X0183051Y0143501D01*
X0181449Y0143501D01*
X0181449Y0141900D02*
X0181449Y0145103D01*
X0183051Y0143501D02*
X0183585Y0142968D01*
X0183585Y0142434D01*
X0183051Y0141900D01*
X0181449Y0141900D01*
X0186000Y0141000D02*
X0186000Y0136000D01*
X0188500Y0133500D01*
X0193500Y0133500D01*
X0196000Y0136000D01*
X0196000Y0141000D01*
X0193500Y0143500D01*
X0188500Y0143500D01*
X0186000Y0141000D01*
X0183318Y0134103D02*
X0183852Y0133569D01*
X0183852Y0133035D01*
X0183318Y0132501D01*
X0181717Y0132501D01*
X0181717Y0130900D02*
X0183318Y0130900D01*
X0183852Y0131434D01*
X0183852Y0131968D01*
X0183318Y0132501D01*
X0183318Y0134103D02*
X0181717Y0134103D01*
X0181717Y0130900D01*
X0180169Y0131434D02*
X0180169Y0131968D01*
X0179635Y0132501D01*
X0178034Y0132501D01*
X0178034Y0131434D01*
X0178567Y0130900D01*
X0179635Y0130900D01*
X0180169Y0131434D01*
X0179101Y0133569D02*
X0180169Y0134103D01*
X0179101Y0133569D02*
X0178034Y0132501D01*
X0176486Y0130900D02*
X0174351Y0130900D01*
X0175418Y0130900D02*
X0175418Y0134103D01*
X0174351Y0133035D01*
X0172803Y0132501D02*
X0172269Y0131968D01*
X0170667Y0131968D01*
X0171735Y0131968D02*
X0172803Y0130900D01*
X0172803Y0132501D02*
X0172803Y0133569D01*
X0172269Y0134103D01*
X0170667Y0134103D01*
X0170667Y0130900D01*
X0151585Y0124968D02*
X0151585Y0124434D01*
X0151585Y0124968D02*
X0151051Y0125501D01*
X0136318Y0145900D02*
X0134717Y0145900D01*
X0136318Y0145900D02*
X0136852Y0146434D01*
X0136852Y0146968D01*
X0136318Y0147501D01*
X0161585Y0163190D02*
X0162119Y0162656D01*
X0163186Y0162656D01*
X0163720Y0163190D01*
X0163720Y0165859D01*
X0165268Y0165325D02*
X0165802Y0165859D01*
X0166870Y0165859D01*
X0167403Y0165325D01*
X0167403Y0164791D01*
X0166870Y0164257D01*
X0167403Y0163723D01*
X0167403Y0163190D01*
X0166870Y0162656D01*
X0165802Y0162656D01*
X0165268Y0163190D01*
X0166336Y0164257D02*
X0166870Y0164257D01*
X0168951Y0164257D02*
X0170553Y0164257D01*
X0171086Y0163723D01*
X0171086Y0163190D01*
X0170553Y0162656D01*
X0168951Y0162656D01*
X0168951Y0165859D01*
X0170553Y0165859D01*
X0171086Y0165325D01*
X0171086Y0164791D01*
X0170553Y0164257D01*
X0161585Y0163190D02*
X0161585Y0165859D01*
X0185437Y0179555D02*
X0187209Y0179555D01*
X0188931Y0168851D02*
X0191066Y0168851D01*
X0198668Y0144803D02*
X0199735Y0144803D01*
X0199201Y0144803D02*
X0199201Y0142134D01*
X0198668Y0141600D01*
X0198134Y0141600D01*
X0197600Y0142134D01*
X0201283Y0141600D02*
X0203418Y0141600D01*
X0202351Y0141600D02*
X0202351Y0144803D01*
X0201283Y0143735D01*
X0204966Y0144269D02*
X0204966Y0142134D01*
X0207101Y0144269D01*
X0207101Y0142134D01*
X0206568Y0141600D01*
X0205500Y0141600D01*
X0204966Y0142134D01*
X0204966Y0144269D02*
X0205500Y0144803D01*
X0206568Y0144803D01*
X0207101Y0144269D01*
X0208649Y0144803D02*
X0210251Y0144803D01*
X0210785Y0144269D01*
X0210785Y0143735D01*
X0210251Y0143201D01*
X0208649Y0143201D01*
X0208649Y0141600D02*
X0208649Y0144803D01*
X0210251Y0143201D02*
X0210785Y0142668D01*
X0210785Y0142134D01*
X0210251Y0141600D01*
X0208649Y0141600D01*
X0208949Y0139103D02*
X0208949Y0136968D01*
X0210017Y0135900D01*
X0211085Y0136968D01*
X0211085Y0139103D01*
X0207401Y0138569D02*
X0207401Y0138035D01*
X0205266Y0135900D01*
X0207401Y0135900D01*
X0207401Y0138569D02*
X0206868Y0139103D01*
X0205800Y0139103D01*
X0205266Y0138569D01*
X0203718Y0138569D02*
X0203185Y0139103D01*
X0202117Y0139103D01*
X0201583Y0138569D01*
X0200035Y0137501D02*
X0197900Y0137501D01*
X0198968Y0136434D02*
X0198968Y0138569D01*
X0201583Y0135900D02*
X0203718Y0138035D01*
X0203718Y0138569D01*
X0203718Y0135900D02*
X0201583Y0135900D01*
X0258897Y0094318D02*
X0258897Y0092717D01*
X0262100Y0092717D01*
X0262100Y0094318D01*
X0261566Y0094852D01*
X0259431Y0094852D01*
X0258897Y0094318D01*
X0260499Y0091169D02*
X0260499Y0089034D01*
X0258897Y0090635D01*
X0262100Y0090635D01*
X0264897Y0091169D02*
X0264897Y0089034D01*
X0266499Y0089034D01*
X0265965Y0090101D01*
X0265965Y0090635D01*
X0266499Y0091169D01*
X0267566Y0091169D01*
X0268100Y0090635D01*
X0268100Y0089567D01*
X0267566Y0089034D01*
X0267566Y0087486D02*
X0268100Y0086952D01*
X0268100Y0085884D01*
X0267566Y0085351D01*
X0265431Y0087486D01*
X0267566Y0087486D01*
X0265431Y0087486D02*
X0264897Y0086952D01*
X0264897Y0085884D01*
X0265431Y0085351D01*
X0267566Y0085351D01*
X0268100Y0083803D02*
X0267032Y0082735D01*
X0267032Y0083269D02*
X0267032Y0081667D01*
X0268100Y0081667D02*
X0264897Y0081667D01*
X0264897Y0083269D01*
X0265431Y0083803D01*
X0266499Y0083803D01*
X0267032Y0083269D01*
X0262100Y0083803D02*
X0261032Y0082735D01*
X0261032Y0083269D02*
X0261032Y0081667D01*
X0262100Y0081667D02*
X0258897Y0081667D01*
X0258897Y0083269D01*
X0259431Y0083803D01*
X0260499Y0083803D01*
X0261032Y0083269D01*
X0261566Y0085351D02*
X0259431Y0087486D01*
X0261566Y0087486D01*
X0262100Y0086952D01*
X0262100Y0085884D01*
X0261566Y0085351D01*
X0259431Y0085351D01*
X0258897Y0085884D01*
X0258897Y0086952D01*
X0259431Y0087486D01*
X0264897Y0092717D02*
X0264897Y0094318D01*
X0265431Y0094852D01*
X0267566Y0094852D01*
X0268100Y0094318D01*
X0268100Y0092717D01*
X0264897Y0092717D01*
X0278897Y0093318D02*
X0278897Y0091717D01*
X0282100Y0091717D01*
X0282100Y0093318D01*
X0281566Y0093852D01*
X0279431Y0093852D01*
X0278897Y0093318D01*
X0278897Y0089101D02*
X0282100Y0089101D01*
X0282100Y0088034D02*
X0282100Y0090169D01*
X0279965Y0088034D02*
X0278897Y0089101D01*
X0278897Y0085418D02*
X0282100Y0085418D01*
X0282100Y0084351D02*
X0282100Y0086486D01*
X0279965Y0084351D02*
X0278897Y0085418D01*
X0279431Y0082803D02*
X0280499Y0082803D01*
X0281032Y0082269D01*
X0281032Y0080667D01*
X0281032Y0081735D02*
X0282100Y0082803D01*
X0282100Y0080667D02*
X0278897Y0080667D01*
X0278897Y0082269D01*
X0279431Y0082803D01*
X0291897Y0082051D02*
X0291897Y0080449D01*
X0295100Y0080449D01*
X0295100Y0082051D01*
X0294566Y0082585D01*
X0292431Y0082585D01*
X0291897Y0082051D01*
X0291897Y0078901D02*
X0292431Y0078901D01*
X0294566Y0076766D01*
X0295100Y0076766D01*
X0294566Y0075218D02*
X0295100Y0074685D01*
X0295100Y0073617D01*
X0294566Y0073083D01*
X0292431Y0075218D01*
X0294566Y0075218D01*
X0294566Y0073083D02*
X0292431Y0073083D01*
X0291897Y0073617D01*
X0291897Y0074685D01*
X0292431Y0075218D01*
X0291897Y0076766D02*
X0291897Y0078901D01*
X0292431Y0071535D02*
X0293499Y0071535D01*
X0294032Y0071001D01*
X0294032Y0069400D01*
X0294032Y0070468D02*
X0295100Y0071535D01*
X0295100Y0069400D02*
X0291897Y0069400D01*
X0291897Y0071001D01*
X0292431Y0071535D01*
X0297167Y0062603D02*
X0298769Y0062603D01*
X0299303Y0062069D01*
X0299303Y0061001D01*
X0298769Y0060468D01*
X0297167Y0060468D01*
X0298235Y0060468D02*
X0299303Y0059400D01*
X0300851Y0059934D02*
X0302986Y0062069D01*
X0302986Y0059934D01*
X0302452Y0059400D01*
X0301384Y0059400D01*
X0300851Y0059934D01*
X0300851Y0062069D01*
X0301384Y0062603D01*
X0302452Y0062603D01*
X0302986Y0062069D01*
X0304534Y0062069D02*
X0304534Y0061535D01*
X0305067Y0061001D01*
X0306669Y0061001D01*
X0306669Y0059934D02*
X0306669Y0062069D01*
X0306135Y0062603D01*
X0305067Y0062603D01*
X0304534Y0062069D01*
X0304534Y0059934D02*
X0305067Y0059400D01*
X0306135Y0059400D01*
X0306669Y0059934D01*
X0308217Y0059400D02*
X0309818Y0059400D01*
X0310352Y0059934D01*
X0310352Y0062069D01*
X0309818Y0062603D01*
X0308217Y0062603D01*
X0308217Y0059400D01*
X0308217Y0053603D02*
X0309818Y0053603D01*
X0310352Y0053069D01*
X0310352Y0050934D01*
X0309818Y0050400D01*
X0308217Y0050400D01*
X0308217Y0053603D01*
X0306669Y0053069D02*
X0306669Y0052535D01*
X0306135Y0052001D01*
X0305067Y0052001D01*
X0304534Y0052535D01*
X0304534Y0053069D01*
X0305067Y0053603D01*
X0306135Y0053603D01*
X0306669Y0053069D01*
X0306135Y0052001D02*
X0306669Y0051468D01*
X0306669Y0050934D01*
X0306135Y0050400D01*
X0305067Y0050400D01*
X0304534Y0050934D01*
X0304534Y0051468D01*
X0305067Y0052001D01*
X0302986Y0050934D02*
X0302986Y0053069D01*
X0300851Y0050934D01*
X0301384Y0050400D01*
X0302452Y0050400D01*
X0302986Y0050934D01*
X0302986Y0053069D02*
X0302452Y0053603D01*
X0301384Y0053603D01*
X0300851Y0053069D01*
X0300851Y0050934D01*
X0299303Y0050400D02*
X0298235Y0051468D01*
X0298769Y0051468D02*
X0297167Y0051468D01*
X0297167Y0050400D02*
X0297167Y0053603D01*
X0298769Y0053603D01*
X0299303Y0053069D01*
X0299303Y0052001D01*
X0298769Y0051468D01*
X0297769Y0045603D02*
X0298303Y0045069D01*
X0298303Y0044001D01*
X0297769Y0043468D01*
X0296167Y0043468D01*
X0297235Y0043468D02*
X0298303Y0042400D01*
X0299851Y0042400D02*
X0301986Y0042400D01*
X0300918Y0042400D02*
X0300918Y0045603D01*
X0299851Y0044535D01*
X0297769Y0045603D02*
X0296167Y0045603D01*
X0296167Y0042400D01*
X0303534Y0042934D02*
X0305669Y0045069D01*
X0305669Y0042934D01*
X0305135Y0042400D01*
X0304067Y0042400D01*
X0303534Y0042934D01*
X0303534Y0045069D01*
X0304067Y0045603D01*
X0305135Y0045603D01*
X0305669Y0045069D01*
X0307217Y0045603D02*
X0307217Y0042400D01*
X0308818Y0042400D01*
X0309352Y0042934D01*
X0309352Y0045069D01*
X0308818Y0045603D01*
X0307217Y0045603D01*
X0312397Y0035784D02*
X0315600Y0035784D01*
X0315600Y0034717D02*
X0315600Y0036852D01*
X0313465Y0034717D02*
X0312397Y0035784D01*
X0312397Y0033169D02*
X0312397Y0032101D01*
X0312397Y0032635D02*
X0315066Y0032635D01*
X0315600Y0032101D01*
X0315600Y0031567D01*
X0315066Y0031034D01*
X0315066Y0029486D02*
X0315600Y0028952D01*
X0315600Y0027884D01*
X0315066Y0027351D01*
X0313999Y0027884D02*
X0313999Y0028952D01*
X0314532Y0029486D01*
X0315066Y0029486D01*
X0313999Y0027884D02*
X0313465Y0027351D01*
X0312931Y0027351D01*
X0312397Y0027884D01*
X0312397Y0028952D01*
X0312931Y0029486D01*
X0295352Y0028069D02*
X0295352Y0025934D01*
X0294818Y0025400D01*
X0293217Y0025400D01*
X0293217Y0028603D01*
X0294818Y0028603D01*
X0295352Y0028069D01*
X0291669Y0028603D02*
X0290601Y0028069D01*
X0289534Y0027001D01*
X0291135Y0027001D01*
X0291669Y0026468D01*
X0291669Y0025934D01*
X0291135Y0025400D01*
X0290067Y0025400D01*
X0289534Y0025934D01*
X0289534Y0027001D01*
X0287986Y0025934D02*
X0287452Y0025400D01*
X0286384Y0025400D01*
X0285851Y0025934D01*
X0287986Y0028069D01*
X0287986Y0025934D01*
X0287986Y0028069D02*
X0287452Y0028603D01*
X0286384Y0028603D01*
X0285851Y0028069D01*
X0285851Y0025934D01*
X0284303Y0025400D02*
X0283235Y0026468D01*
X0283769Y0026468D02*
X0282167Y0026468D01*
X0282167Y0025400D02*
X0282167Y0028603D01*
X0283769Y0028603D01*
X0284303Y0028069D01*
X0284303Y0027001D01*
X0283769Y0026468D01*
X0297167Y0059400D02*
X0297167Y0062603D01*
X0304571Y0120831D02*
X0304573Y0120989D01*
X0304579Y0121147D01*
X0304589Y0121305D01*
X0304603Y0121463D01*
X0304621Y0121620D01*
X0304642Y0121777D01*
X0304668Y0121933D01*
X0304698Y0122089D01*
X0304731Y0122244D01*
X0304769Y0122397D01*
X0304810Y0122550D01*
X0304855Y0122702D01*
X0304904Y0122853D01*
X0304957Y0123002D01*
X0305013Y0123150D01*
X0305073Y0123296D01*
X0305137Y0123441D01*
X0305205Y0123584D01*
X0305276Y0123726D01*
X0305350Y0123866D01*
X0305428Y0124003D01*
X0305510Y0124139D01*
X0305594Y0124273D01*
X0305683Y0124404D01*
X0305774Y0124533D01*
X0305869Y0124660D01*
X0305966Y0124785D01*
X0306067Y0124907D01*
X0306171Y0125026D01*
X0306278Y0125143D01*
X0306388Y0125257D01*
X0306501Y0125368D01*
X0306616Y0125477D01*
X0306734Y0125582D01*
X0306855Y0125684D01*
X0306978Y0125784D01*
X0307104Y0125880D01*
X0307232Y0125973D01*
X0307362Y0126063D01*
X0307495Y0126149D01*
X0307630Y0126233D01*
X0307766Y0126312D01*
X0307905Y0126389D01*
X0308046Y0126461D01*
X0308188Y0126531D01*
X0308332Y0126596D01*
X0308478Y0126658D01*
X0308625Y0126716D01*
X0308774Y0126771D01*
X0308924Y0126822D01*
X0309075Y0126869D01*
X0309227Y0126912D01*
X0309380Y0126951D01*
X0309535Y0126987D01*
X0309690Y0127018D01*
X0309846Y0127046D01*
X0310002Y0127070D01*
X0310159Y0127090D01*
X0310317Y0127106D01*
X0310474Y0127118D01*
X0310633Y0127126D01*
X0310791Y0127130D01*
X0310949Y0127130D01*
X0311107Y0127126D01*
X0311266Y0127118D01*
X0311423Y0127106D01*
X0311581Y0127090D01*
X0311738Y0127070D01*
X0311894Y0127046D01*
X0312050Y0127018D01*
X0312205Y0126987D01*
X0312360Y0126951D01*
X0312513Y0126912D01*
X0312665Y0126869D01*
X0312816Y0126822D01*
X0312966Y0126771D01*
X0313115Y0126716D01*
X0313262Y0126658D01*
X0313408Y0126596D01*
X0313552Y0126531D01*
X0313694Y0126461D01*
X0313835Y0126389D01*
X0313974Y0126312D01*
X0314110Y0126233D01*
X0314245Y0126149D01*
X0314378Y0126063D01*
X0314508Y0125973D01*
X0314636Y0125880D01*
X0314762Y0125784D01*
X0314885Y0125684D01*
X0315006Y0125582D01*
X0315124Y0125477D01*
X0315239Y0125368D01*
X0315352Y0125257D01*
X0315462Y0125143D01*
X0315569Y0125026D01*
X0315673Y0124907D01*
X0315774Y0124785D01*
X0315871Y0124660D01*
X0315966Y0124533D01*
X0316057Y0124404D01*
X0316146Y0124273D01*
X0316230Y0124139D01*
X0316312Y0124003D01*
X0316390Y0123866D01*
X0316464Y0123726D01*
X0316535Y0123584D01*
X0316603Y0123441D01*
X0316667Y0123296D01*
X0316727Y0123150D01*
X0316783Y0123002D01*
X0316836Y0122853D01*
X0316885Y0122702D01*
X0316930Y0122550D01*
X0316971Y0122397D01*
X0317009Y0122244D01*
X0317042Y0122089D01*
X0317072Y0121933D01*
X0317098Y0121777D01*
X0317119Y0121620D01*
X0317137Y0121463D01*
X0317151Y0121305D01*
X0317161Y0121147D01*
X0317167Y0120989D01*
X0317169Y0120831D01*
X0317167Y0120673D01*
X0317161Y0120515D01*
X0317151Y0120357D01*
X0317137Y0120199D01*
X0317119Y0120042D01*
X0317098Y0119885D01*
X0317072Y0119729D01*
X0317042Y0119573D01*
X0317009Y0119418D01*
X0316971Y0119265D01*
X0316930Y0119112D01*
X0316885Y0118960D01*
X0316836Y0118809D01*
X0316783Y0118660D01*
X0316727Y0118512D01*
X0316667Y0118366D01*
X0316603Y0118221D01*
X0316535Y0118078D01*
X0316464Y0117936D01*
X0316390Y0117796D01*
X0316312Y0117659D01*
X0316230Y0117523D01*
X0316146Y0117389D01*
X0316057Y0117258D01*
X0315966Y0117129D01*
X0315871Y0117002D01*
X0315774Y0116877D01*
X0315673Y0116755D01*
X0315569Y0116636D01*
X0315462Y0116519D01*
X0315352Y0116405D01*
X0315239Y0116294D01*
X0315124Y0116185D01*
X0315006Y0116080D01*
X0314885Y0115978D01*
X0314762Y0115878D01*
X0314636Y0115782D01*
X0314508Y0115689D01*
X0314378Y0115599D01*
X0314245Y0115513D01*
X0314110Y0115429D01*
X0313974Y0115350D01*
X0313835Y0115273D01*
X0313694Y0115201D01*
X0313552Y0115131D01*
X0313408Y0115066D01*
X0313262Y0115004D01*
X0313115Y0114946D01*
X0312966Y0114891D01*
X0312816Y0114840D01*
X0312665Y0114793D01*
X0312513Y0114750D01*
X0312360Y0114711D01*
X0312205Y0114675D01*
X0312050Y0114644D01*
X0311894Y0114616D01*
X0311738Y0114592D01*
X0311581Y0114572D01*
X0311423Y0114556D01*
X0311266Y0114544D01*
X0311107Y0114536D01*
X0310949Y0114532D01*
X0310791Y0114532D01*
X0310633Y0114536D01*
X0310474Y0114544D01*
X0310317Y0114556D01*
X0310159Y0114572D01*
X0310002Y0114592D01*
X0309846Y0114616D01*
X0309690Y0114644D01*
X0309535Y0114675D01*
X0309380Y0114711D01*
X0309227Y0114750D01*
X0309075Y0114793D01*
X0308924Y0114840D01*
X0308774Y0114891D01*
X0308625Y0114946D01*
X0308478Y0115004D01*
X0308332Y0115066D01*
X0308188Y0115131D01*
X0308046Y0115201D01*
X0307905Y0115273D01*
X0307766Y0115350D01*
X0307630Y0115429D01*
X0307495Y0115513D01*
X0307362Y0115599D01*
X0307232Y0115689D01*
X0307104Y0115782D01*
X0306978Y0115878D01*
X0306855Y0115978D01*
X0306734Y0116080D01*
X0306616Y0116185D01*
X0306501Y0116294D01*
X0306388Y0116405D01*
X0306278Y0116519D01*
X0306171Y0116636D01*
X0306067Y0116755D01*
X0305966Y0116877D01*
X0305869Y0117002D01*
X0305774Y0117129D01*
X0305683Y0117258D01*
X0305594Y0117389D01*
X0305510Y0117523D01*
X0305428Y0117659D01*
X0305350Y0117796D01*
X0305276Y0117936D01*
X0305205Y0118078D01*
X0305137Y0118221D01*
X0305073Y0118366D01*
X0305013Y0118512D01*
X0304957Y0118660D01*
X0304904Y0118809D01*
X0304855Y0118960D01*
X0304810Y0119112D01*
X0304769Y0119265D01*
X0304731Y0119418D01*
X0304698Y0119573D01*
X0304668Y0119729D01*
X0304642Y0119885D01*
X0304621Y0120042D01*
X0304603Y0120199D01*
X0304589Y0120357D01*
X0304579Y0120515D01*
X0304573Y0120673D01*
X0304571Y0120831D01*
X0219336Y0056787D02*
X0219336Y0055719D01*
X0218802Y0055186D01*
X0217735Y0055719D02*
X0217735Y0056787D01*
X0218269Y0057321D01*
X0218802Y0057321D01*
X0219336Y0056787D01*
X0217735Y0055719D02*
X0217201Y0055186D01*
X0216667Y0055186D01*
X0216133Y0055719D01*
X0216133Y0056787D01*
X0216667Y0057321D01*
X0216667Y0053638D02*
X0216133Y0053104D01*
X0216133Y0052036D01*
X0216667Y0051503D01*
X0216667Y0049955D02*
X0218802Y0047819D01*
X0219336Y0048353D01*
X0219336Y0049421D01*
X0218802Y0049955D01*
X0216667Y0049955D01*
X0216133Y0049421D01*
X0216133Y0048353D01*
X0216667Y0047819D01*
X0218802Y0047819D01*
X0218802Y0045738D02*
X0216133Y0045738D01*
X0216133Y0046271D02*
X0216133Y0045204D01*
X0218802Y0045738D02*
X0219336Y0045204D01*
X0219336Y0044670D01*
X0218802Y0044136D01*
X0219336Y0051503D02*
X0217201Y0053638D01*
X0216667Y0053638D01*
X0219336Y0053638D02*
X0219336Y0051503D01*
X0219717Y0027103D02*
X0221318Y0027103D01*
X0221852Y0026569D01*
X0221852Y0024434D01*
X0221318Y0023900D01*
X0219717Y0023900D01*
X0219717Y0027103D01*
X0218169Y0026569D02*
X0217635Y0027103D01*
X0216567Y0027103D01*
X0216034Y0026569D01*
X0214486Y0026569D02*
X0212351Y0024434D01*
X0212884Y0023900D01*
X0213952Y0023900D01*
X0214486Y0024434D01*
X0214486Y0026569D01*
X0213952Y0027103D01*
X0212884Y0027103D01*
X0212351Y0026569D01*
X0212351Y0024434D01*
X0210803Y0023900D02*
X0209735Y0024968D01*
X0210269Y0024968D02*
X0208667Y0024968D01*
X0208667Y0023900D02*
X0208667Y0027103D01*
X0210269Y0027103D01*
X0210803Y0026569D01*
X0210803Y0025501D01*
X0210269Y0024968D01*
X0216034Y0023900D02*
X0218169Y0026035D01*
X0218169Y0026569D01*
X0218169Y0023900D02*
X0216034Y0023900D01*
X0177600Y0028400D02*
X0174397Y0028400D01*
X0174397Y0030001D01*
X0174931Y0030535D01*
X0175999Y0030535D01*
X0176532Y0030001D01*
X0176532Y0028400D01*
X0176532Y0029468D02*
X0177600Y0030535D01*
X0177600Y0032083D02*
X0177600Y0034218D01*
X0177600Y0033151D02*
X0174397Y0033151D01*
X0175465Y0032083D01*
X0175465Y0035766D02*
X0174931Y0035766D01*
X0174397Y0036300D01*
X0174397Y0037368D01*
X0174931Y0037901D01*
X0175465Y0037901D01*
X0175999Y0037368D01*
X0175999Y0036300D01*
X0175465Y0035766D01*
X0175999Y0036300D02*
X0176532Y0035766D01*
X0177066Y0035766D01*
X0177600Y0036300D01*
X0177600Y0037368D01*
X0177066Y0037901D01*
X0176532Y0037901D01*
X0175999Y0037368D01*
X0175999Y0039449D02*
X0175999Y0041051D01*
X0176532Y0041585D01*
X0177066Y0041585D01*
X0177600Y0041051D01*
X0177600Y0039449D01*
X0174397Y0039449D01*
X0174397Y0041051D01*
X0174931Y0041585D01*
X0175465Y0041585D01*
X0175999Y0041051D01*
X0134835Y0099600D02*
X0134837Y0099647D01*
X0134843Y0099694D01*
X0134853Y0099741D01*
X0134866Y0099786D01*
X0134884Y0099830D01*
X0134905Y0099872D01*
X0134929Y0099913D01*
X0134957Y0099951D01*
X0134988Y0099987D01*
X0135022Y0100020D01*
X0135058Y0100050D01*
X0135097Y0100077D01*
X0135138Y0100101D01*
X0135181Y0100121D01*
X0135225Y0100137D01*
X0135271Y0100150D01*
X0135317Y0100159D01*
X0135365Y0100164D01*
X0135412Y0100165D01*
X0135459Y0100162D01*
X0135506Y0100155D01*
X0135552Y0100144D01*
X0135597Y0100130D01*
X0135641Y0100111D01*
X0135682Y0100089D01*
X0135722Y0100064D01*
X0135760Y0100035D01*
X0135795Y0100004D01*
X0135828Y0099969D01*
X0135857Y0099932D01*
X0135883Y0099893D01*
X0135906Y0099851D01*
X0135925Y0099808D01*
X0135941Y0099763D01*
X0135953Y0099717D01*
X0135961Y0099671D01*
X0135965Y0099624D01*
X0135965Y0099576D01*
X0135961Y0099529D01*
X0135953Y0099483D01*
X0135941Y0099437D01*
X0135925Y0099392D01*
X0135906Y0099349D01*
X0135883Y0099307D01*
X0135857Y0099268D01*
X0135828Y0099231D01*
X0135795Y0099196D01*
X0135760Y0099165D01*
X0135722Y0099136D01*
X0135683Y0099111D01*
X0135641Y0099089D01*
X0135597Y0099070D01*
X0135552Y0099056D01*
X0135506Y0099045D01*
X0135459Y0099038D01*
X0135412Y0099035D01*
X0135365Y0099036D01*
X0135317Y0099041D01*
X0135271Y0099050D01*
X0135225Y0099063D01*
X0135181Y0099079D01*
X0135138Y0099099D01*
X0135097Y0099123D01*
X0135058Y0099150D01*
X0135022Y0099180D01*
X0134988Y0099213D01*
X0134957Y0099249D01*
X0134929Y0099287D01*
X0134905Y0099328D01*
X0134884Y0099370D01*
X0134866Y0099414D01*
X0134853Y0099459D01*
X0134843Y0099506D01*
X0134837Y0099553D01*
X0134835Y0099600D01*
X0073543Y0136857D02*
X0070943Y0136857D01*
X0073543Y0136857D02*
X0073543Y0138957D01*
X0061066Y0217667D02*
X0058931Y0217667D01*
X0058397Y0218201D01*
X0058397Y0219269D01*
X0058931Y0219803D01*
X0059999Y0225034D02*
X0058397Y0226635D01*
X0061600Y0226635D01*
X0090667Y0231400D02*
X0090667Y0234603D01*
X0092269Y0234603D01*
X0092803Y0234069D01*
X0092803Y0233001D01*
X0092269Y0232468D01*
X0090667Y0232468D01*
X0091735Y0232468D02*
X0092803Y0231400D01*
X0094351Y0231400D02*
X0096486Y0231400D01*
X0095418Y0231400D02*
X0095418Y0234603D01*
X0094351Y0233535D01*
X0098034Y0233535D02*
X0099101Y0234603D01*
X0099101Y0231400D01*
X0098034Y0231400D02*
X0100169Y0231400D01*
X0101717Y0231400D02*
X0101717Y0234603D01*
X0103318Y0234603D01*
X0103852Y0234069D01*
X0103852Y0233535D01*
X0103318Y0233001D01*
X0101717Y0233001D01*
X0101717Y0231400D02*
X0103318Y0231400D01*
X0103852Y0231934D01*
X0103852Y0232468D01*
X0103318Y0233001D01*
X0232167Y0253400D02*
X0232167Y0256603D01*
X0233769Y0256603D01*
X0234303Y0256069D01*
X0234303Y0255001D01*
X0233769Y0254468D01*
X0232167Y0254468D01*
X0233235Y0254468D02*
X0234303Y0253400D01*
X0235851Y0253934D02*
X0237986Y0256069D01*
X0237986Y0253934D01*
X0237452Y0253400D01*
X0236384Y0253400D01*
X0235851Y0253934D01*
X0235851Y0256069D01*
X0236384Y0256603D01*
X0237452Y0256603D01*
X0237986Y0256069D01*
X0239534Y0255001D02*
X0241669Y0255001D01*
X0241135Y0253400D02*
X0241135Y0256603D01*
X0239534Y0255001D01*
X0243217Y0253400D02*
X0243217Y0256603D01*
X0244284Y0255535D01*
X0245352Y0256603D01*
X0245352Y0253400D01*
X0251900Y0260400D02*
X0251900Y0263603D01*
X0253501Y0263603D01*
X0254035Y0263069D01*
X0254035Y0262001D01*
X0253501Y0261468D01*
X0251900Y0261468D01*
X0252968Y0261468D02*
X0254035Y0260400D01*
X0255583Y0260934D02*
X0257718Y0263069D01*
X0257718Y0260934D01*
X0257185Y0260400D01*
X0256117Y0260400D01*
X0255583Y0260934D01*
X0255583Y0263069D01*
X0256117Y0263603D01*
X0257185Y0263603D01*
X0257718Y0263069D01*
X0259266Y0263603D02*
X0259266Y0262001D01*
X0260334Y0262535D01*
X0260868Y0262535D01*
X0261401Y0262001D01*
X0261401Y0260934D01*
X0260868Y0260400D01*
X0259800Y0260400D01*
X0259266Y0260934D01*
X0259266Y0263603D02*
X0261401Y0263603D01*
X0262949Y0263603D02*
X0264017Y0262535D01*
X0265085Y0263603D01*
X0265085Y0260400D01*
X0262949Y0260400D02*
X0262949Y0263603D01*
X0265397Y0256085D02*
X0268600Y0256085D01*
X0268600Y0253949D02*
X0265397Y0253949D01*
X0266465Y0255017D01*
X0265397Y0256085D01*
X0265397Y0252401D02*
X0265931Y0251334D01*
X0266999Y0250266D01*
X0266999Y0251868D01*
X0267532Y0252401D01*
X0268066Y0252401D01*
X0268600Y0251868D01*
X0268600Y0250800D01*
X0268066Y0250266D01*
X0266999Y0250266D01*
X0265931Y0248718D02*
X0268066Y0248718D01*
X0268600Y0248185D01*
X0268600Y0247117D01*
X0268066Y0246583D01*
X0265931Y0248718D01*
X0265397Y0248185D01*
X0265397Y0247117D01*
X0265931Y0246583D01*
X0268066Y0246583D01*
X0268600Y0245035D02*
X0267532Y0243968D01*
X0267532Y0244501D02*
X0267532Y0242900D01*
X0268600Y0242900D02*
X0265397Y0242900D01*
X0265397Y0244501D01*
X0265931Y0245035D01*
X0266999Y0245035D01*
X0267532Y0244501D01*
X0254975Y0240075D02*
X0254975Y0237975D01*
X0254975Y0240075D02*
X0252375Y0240075D01*
X0238525Y0240175D02*
X0235925Y0240175D01*
X0235925Y0238075D01*
X0235925Y0222925D02*
X0235925Y0220825D01*
X0238525Y0220825D01*
X0252375Y0220925D02*
X0254975Y0220925D01*
X0254975Y0223025D01*
X0267397Y0223217D02*
X0268465Y0224284D01*
X0267397Y0225352D01*
X0270600Y0225352D01*
X0270600Y0223217D02*
X0267397Y0223217D01*
X0267931Y0221669D02*
X0267397Y0221135D01*
X0267397Y0220067D01*
X0267931Y0219534D01*
X0267931Y0217986D02*
X0270066Y0215851D01*
X0270600Y0216384D01*
X0270600Y0217452D01*
X0270066Y0217986D01*
X0267931Y0217986D01*
X0267397Y0217452D01*
X0267397Y0216384D01*
X0267931Y0215851D01*
X0270066Y0215851D01*
X0270066Y0214303D02*
X0270600Y0213769D01*
X0270600Y0212701D01*
X0270066Y0212167D01*
X0267931Y0212167D01*
X0267397Y0212701D01*
X0267397Y0213769D01*
X0267931Y0214303D01*
X0270600Y0219534D02*
X0268465Y0221669D01*
X0267931Y0221669D01*
X0270600Y0221669D02*
X0270600Y0219534D01*
X0285925Y0220825D02*
X0288525Y0220825D01*
X0285925Y0220825D02*
X0285925Y0222925D01*
X0285925Y0238075D02*
X0285925Y0240175D01*
X0288525Y0240175D01*
X0302375Y0240075D02*
X0304975Y0240075D01*
X0304975Y0237975D01*
X0317397Y0230852D02*
X0320600Y0230852D01*
X0320600Y0228717D02*
X0317397Y0228717D01*
X0318465Y0229784D01*
X0317397Y0230852D01*
X0317397Y0226101D02*
X0320600Y0226101D01*
X0320600Y0225034D02*
X0320600Y0227169D01*
X0318465Y0225034D02*
X0317397Y0226101D01*
X0317931Y0223486D02*
X0320066Y0221351D01*
X0320600Y0221884D01*
X0320600Y0222952D01*
X0320066Y0223486D01*
X0317931Y0223486D01*
X0317397Y0222952D01*
X0317397Y0221884D01*
X0317931Y0221351D01*
X0320066Y0221351D01*
X0320066Y0219803D02*
X0320600Y0219269D01*
X0320600Y0218201D01*
X0320066Y0217667D01*
X0317931Y0217667D01*
X0317397Y0218201D01*
X0317397Y0219269D01*
X0317931Y0219803D01*
X0304975Y0220925D02*
X0302375Y0220925D01*
X0304975Y0220925D02*
X0304975Y0223025D01*
X0301100Y0262900D02*
X0297897Y0262900D01*
X0297897Y0264501D01*
X0298431Y0265035D01*
X0299499Y0265035D01*
X0300032Y0264501D01*
X0300032Y0262900D01*
X0300032Y0263968D02*
X0301100Y0265035D01*
X0300566Y0266583D02*
X0298431Y0268718D01*
X0300566Y0268718D01*
X0301100Y0268185D01*
X0301100Y0267117D01*
X0300566Y0266583D01*
X0298431Y0266583D01*
X0297897Y0267117D01*
X0297897Y0268185D01*
X0298431Y0268718D01*
X0298431Y0270266D02*
X0297897Y0270800D01*
X0297897Y0271868D01*
X0298431Y0272401D01*
X0298965Y0272401D01*
X0299499Y0271868D01*
X0300032Y0272401D01*
X0300566Y0272401D01*
X0301100Y0271868D01*
X0301100Y0270800D01*
X0300566Y0270266D01*
X0299499Y0271334D02*
X0299499Y0271868D01*
X0301100Y0273949D02*
X0297897Y0273949D01*
X0298965Y0275017D01*
X0297897Y0276085D01*
X0301100Y0276085D01*
X0292100Y0276085D02*
X0288897Y0276085D01*
X0289965Y0275017D01*
X0288897Y0273949D01*
X0292100Y0273949D01*
X0292100Y0272401D02*
X0292100Y0270266D01*
X0289965Y0272401D01*
X0289431Y0272401D01*
X0288897Y0271868D01*
X0288897Y0270800D01*
X0289431Y0270266D01*
X0289431Y0268718D02*
X0291566Y0266583D01*
X0292100Y0267117D01*
X0292100Y0268185D01*
X0291566Y0268718D01*
X0289431Y0268718D01*
X0288897Y0268185D01*
X0288897Y0267117D01*
X0289431Y0266583D01*
X0291566Y0266583D01*
X0292100Y0265035D02*
X0291032Y0263968D01*
X0291032Y0264501D02*
X0291032Y0262900D01*
X0292100Y0262900D02*
X0288897Y0262900D01*
X0288897Y0264501D01*
X0289431Y0265035D01*
X0290499Y0265035D01*
X0291032Y0264501D01*
X0283100Y0264035D02*
X0282032Y0262968D01*
X0282032Y0263501D02*
X0282032Y0261900D01*
X0283100Y0261900D02*
X0279897Y0261900D01*
X0279897Y0263501D01*
X0280431Y0264035D01*
X0281499Y0264035D01*
X0282032Y0263501D01*
X0282566Y0265583D02*
X0280431Y0267718D01*
X0282566Y0267718D01*
X0283100Y0267185D01*
X0283100Y0266117D01*
X0282566Y0265583D01*
X0280431Y0265583D01*
X0279897Y0266117D01*
X0279897Y0267185D01*
X0280431Y0267718D01*
X0280965Y0269266D02*
X0279897Y0270334D01*
X0283100Y0270334D01*
X0283100Y0271401D02*
X0283100Y0269266D01*
X0283100Y0272949D02*
X0279897Y0272949D01*
X0280965Y0274017D01*
X0279897Y0275085D01*
X0283100Y0275085D01*
X0282868Y0298400D02*
X0281800Y0298400D01*
X0281266Y0298934D01*
X0282334Y0300001D02*
X0282868Y0300001D01*
X0283401Y0299468D01*
X0283401Y0298934D01*
X0282868Y0298400D01*
X0282868Y0300001D02*
X0283401Y0300535D01*
X0283401Y0301069D01*
X0282868Y0301603D01*
X0281800Y0301603D01*
X0281266Y0301069D01*
X0279718Y0301069D02*
X0277583Y0298934D01*
X0278117Y0298400D01*
X0279185Y0298400D01*
X0279718Y0298934D01*
X0279718Y0301069D01*
X0279185Y0301603D01*
X0278117Y0301603D01*
X0277583Y0301069D01*
X0277583Y0298934D01*
X0276035Y0298934D02*
X0275501Y0298400D01*
X0274434Y0298400D01*
X0273900Y0298934D01*
X0273900Y0301069D01*
X0274434Y0301603D01*
X0275501Y0301603D01*
X0276035Y0301069D01*
X0275501Y0308400D02*
X0276035Y0308934D01*
X0275501Y0308400D02*
X0274434Y0308400D01*
X0273900Y0308934D01*
X0273900Y0311069D01*
X0274434Y0311603D01*
X0275501Y0311603D01*
X0276035Y0311069D01*
X0277583Y0311069D02*
X0278117Y0311603D01*
X0279185Y0311603D01*
X0279718Y0311069D01*
X0277583Y0308934D01*
X0278117Y0308400D01*
X0279185Y0308400D01*
X0279718Y0308934D01*
X0279718Y0311069D01*
X0281266Y0311069D02*
X0281800Y0311603D01*
X0282868Y0311603D01*
X0283401Y0311069D01*
X0283401Y0310535D01*
X0281266Y0308400D01*
X0283401Y0308400D01*
X0284949Y0308934D02*
X0285483Y0308400D01*
X0286551Y0308400D01*
X0287085Y0308934D01*
X0287085Y0309468D01*
X0286551Y0310001D01*
X0285483Y0310001D01*
X0284949Y0310535D01*
X0284949Y0311069D01*
X0285483Y0311603D01*
X0286551Y0311603D01*
X0287085Y0311069D01*
X0286551Y0318400D02*
X0285483Y0318400D01*
X0284949Y0318934D01*
X0285483Y0320001D02*
X0286551Y0320001D01*
X0287085Y0319468D01*
X0287085Y0318934D01*
X0286551Y0318400D01*
X0285483Y0320001D02*
X0284949Y0320535D01*
X0284949Y0321069D01*
X0285483Y0321603D01*
X0286551Y0321603D01*
X0287085Y0321069D01*
X0283401Y0320001D02*
X0281266Y0320001D01*
X0282868Y0321603D01*
X0282868Y0318400D01*
X0279718Y0318934D02*
X0279718Y0321069D01*
X0277583Y0318934D01*
X0278117Y0318400D01*
X0279185Y0318400D01*
X0279718Y0318934D01*
X0277583Y0318934D02*
X0277583Y0321069D01*
X0278117Y0321603D01*
X0279185Y0321603D01*
X0279718Y0321069D01*
X0276035Y0321069D02*
X0275501Y0321603D01*
X0274434Y0321603D01*
X0273900Y0321069D01*
X0273900Y0318934D01*
X0274434Y0318400D01*
X0275501Y0318400D01*
X0276035Y0318934D01*
X0277583Y0311069D02*
X0277583Y0308934D01*
X0284949Y0301069D02*
X0284949Y0300535D01*
X0285483Y0300001D01*
X0286551Y0300001D01*
X0287085Y0299468D01*
X0287085Y0298934D01*
X0286551Y0298400D01*
X0285483Y0298400D01*
X0284949Y0298934D01*
X0284949Y0301069D02*
X0285483Y0301603D01*
X0286551Y0301603D01*
X0287085Y0301069D01*
X0268818Y0325900D02*
X0267751Y0325900D01*
X0267217Y0326434D01*
X0267751Y0327501D02*
X0268818Y0327501D01*
X0269352Y0326968D01*
X0269352Y0326434D01*
X0268818Y0325900D01*
X0267751Y0327501D02*
X0267217Y0328035D01*
X0267217Y0328569D01*
X0267751Y0329103D01*
X0268818Y0329103D01*
X0269352Y0328569D01*
X0265669Y0328569D02*
X0265135Y0329103D01*
X0264067Y0329103D01*
X0263534Y0328569D01*
X0261986Y0328569D02*
X0261452Y0329103D01*
X0260384Y0329103D01*
X0259851Y0328569D01*
X0259851Y0326434D01*
X0261986Y0328569D01*
X0261986Y0326434D01*
X0261452Y0325900D01*
X0260384Y0325900D01*
X0259851Y0326434D01*
X0258303Y0325900D02*
X0257235Y0326968D01*
X0257769Y0326968D02*
X0256167Y0326968D01*
X0256167Y0325900D02*
X0256167Y0329103D01*
X0257769Y0329103D01*
X0258303Y0328569D01*
X0258303Y0327501D01*
X0257769Y0326968D01*
X0263534Y0325900D02*
X0265669Y0328035D01*
X0265669Y0328569D01*
X0265669Y0325900D02*
X0263534Y0325900D01*
X0255906Y0319843D02*
X0252756Y0319843D01*
X0247244Y0319843D02*
X0244094Y0319843D01*
X0241100Y0316318D02*
X0241100Y0315251D01*
X0240566Y0314717D01*
X0239499Y0315251D02*
X0239499Y0316318D01*
X0240032Y0316852D01*
X0240566Y0316852D01*
X0241100Y0316318D01*
X0239499Y0315251D02*
X0238965Y0314717D01*
X0238431Y0314717D01*
X0237897Y0315251D01*
X0237897Y0316318D01*
X0238431Y0316852D01*
X0241100Y0313169D02*
X0241100Y0311034D01*
X0241100Y0312101D02*
X0237897Y0312101D01*
X0238965Y0311034D01*
X0238431Y0309486D02*
X0240566Y0307351D01*
X0241100Y0307884D01*
X0241100Y0308952D01*
X0240566Y0309486D01*
X0238431Y0309486D01*
X0237897Y0308952D01*
X0237897Y0307884D01*
X0238431Y0307351D01*
X0240566Y0307351D01*
X0240566Y0305803D02*
X0237897Y0305803D01*
X0237897Y0303667D02*
X0240566Y0303667D01*
X0241100Y0304201D01*
X0241100Y0305269D01*
X0240566Y0305803D01*
X0244094Y0300157D02*
X0247244Y0300157D01*
X0252756Y0300157D02*
X0255906Y0300157D01*
X0249606Y0306063D02*
X0249608Y0306102D01*
X0249614Y0306141D01*
X0249624Y0306179D01*
X0249637Y0306216D01*
X0249654Y0306251D01*
X0249674Y0306285D01*
X0249698Y0306316D01*
X0249725Y0306345D01*
X0249754Y0306371D01*
X0249786Y0306394D01*
X0249820Y0306414D01*
X0249856Y0306430D01*
X0249893Y0306442D01*
X0249932Y0306451D01*
X0249971Y0306456D01*
X0250010Y0306457D01*
X0250049Y0306454D01*
X0250088Y0306447D01*
X0250125Y0306436D01*
X0250162Y0306422D01*
X0250197Y0306404D01*
X0250230Y0306383D01*
X0250261Y0306358D01*
X0250289Y0306331D01*
X0250314Y0306301D01*
X0250336Y0306268D01*
X0250355Y0306234D01*
X0250370Y0306198D01*
X0250382Y0306160D01*
X0250390Y0306122D01*
X0250394Y0306083D01*
X0250394Y0306043D01*
X0250390Y0306004D01*
X0250382Y0305966D01*
X0250370Y0305928D01*
X0250355Y0305892D01*
X0250336Y0305858D01*
X0250314Y0305825D01*
X0250289Y0305795D01*
X0250261Y0305768D01*
X0250230Y0305743D01*
X0250197Y0305722D01*
X0250162Y0305704D01*
X0250125Y0305690D01*
X0250088Y0305679D01*
X0250049Y0305672D01*
X0250010Y0305669D01*
X0249971Y0305670D01*
X0249932Y0305675D01*
X0249893Y0305684D01*
X0249856Y0305696D01*
X0249820Y0305712D01*
X0249786Y0305732D01*
X0249754Y0305755D01*
X0249725Y0305781D01*
X0249698Y0305810D01*
X0249674Y0305841D01*
X0249654Y0305875D01*
X0249637Y0305910D01*
X0249624Y0305947D01*
X0249614Y0305985D01*
X0249608Y0306024D01*
X0249606Y0306063D01*
X0248718Y0349900D02*
X0247651Y0350968D01*
X0248185Y0350968D02*
X0246583Y0350968D01*
X0246583Y0349900D02*
X0246583Y0353103D01*
X0248185Y0353103D01*
X0248718Y0352569D01*
X0248718Y0351501D01*
X0248185Y0350968D01*
X0250266Y0350434D02*
X0250800Y0349900D01*
X0251868Y0349900D01*
X0252401Y0350434D01*
X0252401Y0350968D01*
X0251868Y0351501D01*
X0250800Y0351501D01*
X0250266Y0352035D01*
X0250266Y0352569D01*
X0250800Y0353103D01*
X0251868Y0353103D01*
X0252401Y0352569D01*
X0253949Y0353103D02*
X0256085Y0353103D01*
X0255017Y0353103D02*
X0255017Y0349900D01*
X0261316Y0351501D02*
X0263451Y0351501D01*
X0262383Y0350434D02*
X0262383Y0352569D01*
X0264999Y0352569D02*
X0265533Y0353103D01*
X0266600Y0353103D01*
X0267134Y0352569D01*
X0267134Y0352035D01*
X0266600Y0351501D01*
X0267134Y0350968D01*
X0267134Y0350434D01*
X0266600Y0349900D01*
X0265533Y0349900D01*
X0264999Y0350434D01*
X0266066Y0351501D02*
X0266600Y0351501D01*
X0268682Y0350968D02*
X0269750Y0349900D01*
X0270817Y0350968D01*
X0270817Y0353103D01*
X0272365Y0352569D02*
X0272899Y0353103D01*
X0273967Y0353103D01*
X0274500Y0352569D01*
X0274500Y0352035D01*
X0273967Y0351501D01*
X0274500Y0350968D01*
X0274500Y0350434D01*
X0273967Y0349900D01*
X0272899Y0349900D01*
X0272365Y0350434D01*
X0273433Y0351501D02*
X0273967Y0351501D01*
X0273433Y0355900D02*
X0273433Y0359103D01*
X0274500Y0359103D02*
X0272365Y0359103D01*
X0270817Y0358569D02*
X0270283Y0359103D01*
X0269216Y0359103D01*
X0268682Y0358569D01*
X0268682Y0358035D01*
X0269216Y0357501D01*
X0270283Y0357501D01*
X0270817Y0356968D01*
X0270817Y0356434D01*
X0270283Y0355900D01*
X0269216Y0355900D01*
X0268682Y0356434D01*
X0267134Y0355900D02*
X0266066Y0356968D01*
X0266600Y0356968D02*
X0264999Y0356968D01*
X0264999Y0355900D02*
X0264999Y0359103D01*
X0266600Y0359103D01*
X0267134Y0358569D01*
X0267134Y0357501D01*
X0266600Y0356968D01*
X0263451Y0355900D02*
X0263451Y0359103D01*
X0262383Y0358035D01*
X0261316Y0359103D01*
X0261316Y0355900D01*
X0261850Y0361900D02*
X0262917Y0361900D01*
X0263451Y0362434D01*
X0263451Y0363501D01*
X0262383Y0363501D01*
X0261316Y0362434D02*
X0261850Y0361900D01*
X0261316Y0362434D02*
X0261316Y0364569D01*
X0261850Y0365103D01*
X0262917Y0365103D01*
X0263451Y0364569D01*
X0264999Y0365103D02*
X0267134Y0361900D01*
X0267134Y0365103D01*
X0268682Y0365103D02*
X0268682Y0361900D01*
X0270283Y0361900D01*
X0270817Y0362434D01*
X0270817Y0364569D01*
X0270283Y0365103D01*
X0268682Y0365103D01*
X0264999Y0365103D02*
X0264999Y0361900D01*
X0259500Y0367500D02*
X0244500Y0367500D01*
X0242000Y0370000D01*
X0242000Y0375000D01*
X0244500Y0377500D01*
X0259500Y0377500D01*
X0262000Y0380000D01*
X0262000Y0385000D01*
X0259500Y0387500D01*
X0244500Y0387500D01*
X0242000Y0390000D01*
X0242000Y0395000D01*
X0244500Y0397500D01*
X0259500Y0397500D01*
X0262000Y0395000D01*
X0262000Y0390000D01*
X0259500Y0387500D01*
X0259500Y0377500D02*
X0262000Y0375000D01*
X0262000Y0370000D01*
X0259500Y0367500D01*
X0263319Y0370000D02*
X0263319Y0375000D01*
X0252401Y0364569D02*
X0251868Y0365103D01*
X0250800Y0365103D01*
X0250266Y0364569D01*
X0250266Y0364035D01*
X0250800Y0363501D01*
X0251868Y0363501D01*
X0252401Y0362968D01*
X0252401Y0362434D01*
X0251868Y0361900D01*
X0250800Y0361900D01*
X0250266Y0362434D01*
X0248718Y0361900D02*
X0248718Y0365103D01*
X0247651Y0364035D01*
X0246583Y0365103D01*
X0246583Y0361900D01*
X0243968Y0361900D02*
X0243968Y0365103D01*
X0245035Y0365103D02*
X0242900Y0365103D01*
X0242900Y0359103D02*
X0245035Y0359103D01*
X0243968Y0359103D02*
X0243968Y0355900D01*
X0246583Y0356434D02*
X0247117Y0355900D01*
X0248185Y0355900D01*
X0248718Y0356434D01*
X0250266Y0356968D02*
X0252401Y0359103D01*
X0250266Y0359103D02*
X0250266Y0355900D01*
X0250800Y0357501D02*
X0252401Y0355900D01*
X0248718Y0358569D02*
X0248185Y0359103D01*
X0247117Y0359103D01*
X0246583Y0358569D01*
X0246583Y0356434D01*
X0245035Y0353103D02*
X0242900Y0353103D01*
X0243968Y0353103D02*
X0243968Y0349900D01*
X0268682Y0350968D02*
X0268682Y0353103D01*
X0244500Y0377500D02*
X0242000Y0380000D01*
X0242000Y0385000D01*
X0244500Y0387500D01*
X0304571Y0384610D02*
X0304573Y0384768D01*
X0304579Y0384926D01*
X0304589Y0385084D01*
X0304603Y0385242D01*
X0304621Y0385399D01*
X0304642Y0385556D01*
X0304668Y0385712D01*
X0304698Y0385868D01*
X0304731Y0386023D01*
X0304769Y0386176D01*
X0304810Y0386329D01*
X0304855Y0386481D01*
X0304904Y0386632D01*
X0304957Y0386781D01*
X0305013Y0386929D01*
X0305073Y0387075D01*
X0305137Y0387220D01*
X0305205Y0387363D01*
X0305276Y0387505D01*
X0305350Y0387645D01*
X0305428Y0387782D01*
X0305510Y0387918D01*
X0305594Y0388052D01*
X0305683Y0388183D01*
X0305774Y0388312D01*
X0305869Y0388439D01*
X0305966Y0388564D01*
X0306067Y0388686D01*
X0306171Y0388805D01*
X0306278Y0388922D01*
X0306388Y0389036D01*
X0306501Y0389147D01*
X0306616Y0389256D01*
X0306734Y0389361D01*
X0306855Y0389463D01*
X0306978Y0389563D01*
X0307104Y0389659D01*
X0307232Y0389752D01*
X0307362Y0389842D01*
X0307495Y0389928D01*
X0307630Y0390012D01*
X0307766Y0390091D01*
X0307905Y0390168D01*
X0308046Y0390240D01*
X0308188Y0390310D01*
X0308332Y0390375D01*
X0308478Y0390437D01*
X0308625Y0390495D01*
X0308774Y0390550D01*
X0308924Y0390601D01*
X0309075Y0390648D01*
X0309227Y0390691D01*
X0309380Y0390730D01*
X0309535Y0390766D01*
X0309690Y0390797D01*
X0309846Y0390825D01*
X0310002Y0390849D01*
X0310159Y0390869D01*
X0310317Y0390885D01*
X0310474Y0390897D01*
X0310633Y0390905D01*
X0310791Y0390909D01*
X0310949Y0390909D01*
X0311107Y0390905D01*
X0311266Y0390897D01*
X0311423Y0390885D01*
X0311581Y0390869D01*
X0311738Y0390849D01*
X0311894Y0390825D01*
X0312050Y0390797D01*
X0312205Y0390766D01*
X0312360Y0390730D01*
X0312513Y0390691D01*
X0312665Y0390648D01*
X0312816Y0390601D01*
X0312966Y0390550D01*
X0313115Y0390495D01*
X0313262Y0390437D01*
X0313408Y0390375D01*
X0313552Y0390310D01*
X0313694Y0390240D01*
X0313835Y0390168D01*
X0313974Y0390091D01*
X0314110Y0390012D01*
X0314245Y0389928D01*
X0314378Y0389842D01*
X0314508Y0389752D01*
X0314636Y0389659D01*
X0314762Y0389563D01*
X0314885Y0389463D01*
X0315006Y0389361D01*
X0315124Y0389256D01*
X0315239Y0389147D01*
X0315352Y0389036D01*
X0315462Y0388922D01*
X0315569Y0388805D01*
X0315673Y0388686D01*
X0315774Y0388564D01*
X0315871Y0388439D01*
X0315966Y0388312D01*
X0316057Y0388183D01*
X0316146Y0388052D01*
X0316230Y0387918D01*
X0316312Y0387782D01*
X0316390Y0387645D01*
X0316464Y0387505D01*
X0316535Y0387363D01*
X0316603Y0387220D01*
X0316667Y0387075D01*
X0316727Y0386929D01*
X0316783Y0386781D01*
X0316836Y0386632D01*
X0316885Y0386481D01*
X0316930Y0386329D01*
X0316971Y0386176D01*
X0317009Y0386023D01*
X0317042Y0385868D01*
X0317072Y0385712D01*
X0317098Y0385556D01*
X0317119Y0385399D01*
X0317137Y0385242D01*
X0317151Y0385084D01*
X0317161Y0384926D01*
X0317167Y0384768D01*
X0317169Y0384610D01*
X0317167Y0384452D01*
X0317161Y0384294D01*
X0317151Y0384136D01*
X0317137Y0383978D01*
X0317119Y0383821D01*
X0317098Y0383664D01*
X0317072Y0383508D01*
X0317042Y0383352D01*
X0317009Y0383197D01*
X0316971Y0383044D01*
X0316930Y0382891D01*
X0316885Y0382739D01*
X0316836Y0382588D01*
X0316783Y0382439D01*
X0316727Y0382291D01*
X0316667Y0382145D01*
X0316603Y0382000D01*
X0316535Y0381857D01*
X0316464Y0381715D01*
X0316390Y0381575D01*
X0316312Y0381438D01*
X0316230Y0381302D01*
X0316146Y0381168D01*
X0316057Y0381037D01*
X0315966Y0380908D01*
X0315871Y0380781D01*
X0315774Y0380656D01*
X0315673Y0380534D01*
X0315569Y0380415D01*
X0315462Y0380298D01*
X0315352Y0380184D01*
X0315239Y0380073D01*
X0315124Y0379964D01*
X0315006Y0379859D01*
X0314885Y0379757D01*
X0314762Y0379657D01*
X0314636Y0379561D01*
X0314508Y0379468D01*
X0314378Y0379378D01*
X0314245Y0379292D01*
X0314110Y0379208D01*
X0313974Y0379129D01*
X0313835Y0379052D01*
X0313694Y0378980D01*
X0313552Y0378910D01*
X0313408Y0378845D01*
X0313262Y0378783D01*
X0313115Y0378725D01*
X0312966Y0378670D01*
X0312816Y0378619D01*
X0312665Y0378572D01*
X0312513Y0378529D01*
X0312360Y0378490D01*
X0312205Y0378454D01*
X0312050Y0378423D01*
X0311894Y0378395D01*
X0311738Y0378371D01*
X0311581Y0378351D01*
X0311423Y0378335D01*
X0311266Y0378323D01*
X0311107Y0378315D01*
X0310949Y0378311D01*
X0310791Y0378311D01*
X0310633Y0378315D01*
X0310474Y0378323D01*
X0310317Y0378335D01*
X0310159Y0378351D01*
X0310002Y0378371D01*
X0309846Y0378395D01*
X0309690Y0378423D01*
X0309535Y0378454D01*
X0309380Y0378490D01*
X0309227Y0378529D01*
X0309075Y0378572D01*
X0308924Y0378619D01*
X0308774Y0378670D01*
X0308625Y0378725D01*
X0308478Y0378783D01*
X0308332Y0378845D01*
X0308188Y0378910D01*
X0308046Y0378980D01*
X0307905Y0379052D01*
X0307766Y0379129D01*
X0307630Y0379208D01*
X0307495Y0379292D01*
X0307362Y0379378D01*
X0307232Y0379468D01*
X0307104Y0379561D01*
X0306978Y0379657D01*
X0306855Y0379757D01*
X0306734Y0379859D01*
X0306616Y0379964D01*
X0306501Y0380073D01*
X0306388Y0380184D01*
X0306278Y0380298D01*
X0306171Y0380415D01*
X0306067Y0380534D01*
X0305966Y0380656D01*
X0305869Y0380781D01*
X0305774Y0380908D01*
X0305683Y0381037D01*
X0305594Y0381168D01*
X0305510Y0381302D01*
X0305428Y0381438D01*
X0305350Y0381575D01*
X0305276Y0381715D01*
X0305205Y0381857D01*
X0305137Y0382000D01*
X0305073Y0382145D01*
X0305013Y0382291D01*
X0304957Y0382439D01*
X0304904Y0382588D01*
X0304855Y0382739D01*
X0304810Y0382891D01*
X0304769Y0383044D01*
X0304731Y0383197D01*
X0304698Y0383352D01*
X0304668Y0383508D01*
X0304642Y0383664D01*
X0304621Y0383821D01*
X0304603Y0383978D01*
X0304589Y0384136D01*
X0304579Y0384294D01*
X0304573Y0384452D01*
X0304571Y0384610D01*
D11*
X0059169Y0100172D02*
X0059169Y0094834D01*
X0056500Y0097503D02*
X0061838Y0097503D01*
D12*
X0089150Y0258150D02*
X0089150Y0263455D01*
X0090918Y0261686D01*
X0092686Y0263455D01*
X0092686Y0258150D01*
X0095227Y0259034D02*
X0096111Y0258150D01*
X0097879Y0258150D01*
X0098764Y0259034D01*
X0101304Y0259034D02*
X0101304Y0263455D01*
X0098764Y0262570D02*
X0097879Y0263455D01*
X0096111Y0263455D01*
X0095227Y0262570D01*
X0095227Y0259034D01*
X0101304Y0259034D02*
X0102188Y0258150D01*
X0103957Y0258150D01*
X0104841Y0259034D01*
X0104841Y0263455D01*
X0107382Y0257266D02*
X0110918Y0257266D01*
X0113459Y0258150D02*
X0115227Y0259918D01*
X0116995Y0258150D01*
X0116995Y0263455D01*
X0119536Y0263455D02*
X0119536Y0258150D01*
X0119536Y0259918D02*
X0123072Y0263455D01*
X0125613Y0263455D02*
X0128265Y0263455D01*
X0129149Y0262570D01*
X0129149Y0260802D01*
X0128265Y0259918D01*
X0125613Y0259918D01*
X0125613Y0258150D02*
X0125613Y0263455D01*
X0120420Y0260802D02*
X0123072Y0258150D01*
X0113459Y0258150D02*
X0113459Y0263455D01*
D13*
X0122500Y0278000D02*
X0122500Y0398000D01*
X0132500Y0398000D01*
X0152500Y0398000D01*
X0152500Y0278000D01*
X0132500Y0278000D01*
X0122500Y0278000D01*
X0132500Y0278000D02*
X0138500Y0266000D01*
X0206500Y0266000D01*
X0212500Y0278000D01*
X0222500Y0278000D01*
X0222500Y0398000D01*
X0212500Y0398000D01*
X0192500Y0398000D01*
X0192500Y0278000D01*
X0212500Y0278000D01*
X0293402Y0179912D02*
X0291100Y0177610D01*
X0291100Y0175308D01*
X0293402Y0173006D01*
X0298006Y0173006D01*
X0300308Y0170704D01*
X0300308Y0168402D01*
X0298006Y0166100D01*
X0293402Y0166100D01*
X0291100Y0168402D01*
X0291100Y0161912D02*
X0291100Y0155006D01*
X0295704Y0157308D01*
X0298006Y0157308D01*
X0300308Y0155006D01*
X0300308Y0150402D01*
X0298006Y0148100D01*
X0293402Y0148100D01*
X0291100Y0150402D01*
X0291100Y0161912D02*
X0300308Y0161912D01*
X0304912Y0159610D02*
X0307214Y0161912D01*
X0311818Y0161912D01*
X0314120Y0159610D01*
X0304912Y0150402D01*
X0307214Y0148100D01*
X0311818Y0148100D01*
X0314120Y0150402D01*
X0314120Y0159610D01*
X0311818Y0166100D02*
X0307214Y0166100D01*
X0304912Y0168402D01*
X0304912Y0177610D01*
X0307214Y0179912D01*
X0311818Y0179912D01*
X0314120Y0177610D01*
X0314120Y0173006D02*
X0309516Y0173006D01*
X0314120Y0173006D02*
X0314120Y0168402D01*
X0311818Y0166100D01*
X0304912Y0159610D02*
X0304912Y0150402D01*
X0300308Y0177610D02*
X0298006Y0179912D01*
X0293402Y0179912D01*
X0212500Y0398000D02*
X0212500Y0410000D01*
X0188500Y0410000D01*
X0188500Y0417500D01*
X0156500Y0417500D01*
X0156500Y0410000D01*
X0132500Y0410000D01*
X0132500Y0398000D01*
D14*
X0085843Y0350500D02*
X0029150Y0350500D01*
X0029150Y0346563D01*
X0028126Y0348925D02*
X0027991Y0348923D01*
X0027856Y0348917D01*
X0027722Y0348908D01*
X0027588Y0348894D01*
X0027454Y0348877D01*
X0027320Y0348856D01*
X0027188Y0348831D01*
X0027056Y0348802D01*
X0026925Y0348770D01*
X0026795Y0348734D01*
X0026666Y0348694D01*
X0026539Y0348650D01*
X0026412Y0348603D01*
X0026287Y0348552D01*
X0026164Y0348498D01*
X0026042Y0348440D01*
X0025921Y0348379D01*
X0025803Y0348314D01*
X0025687Y0348246D01*
X0025572Y0348175D01*
X0025460Y0348101D01*
X0025349Y0348023D01*
X0025241Y0347942D01*
X0025136Y0347858D01*
X0025032Y0347771D01*
X0024932Y0347681D01*
X0024834Y0347589D01*
X0024738Y0347493D01*
X0024646Y0347395D01*
X0024556Y0347295D01*
X0024469Y0347191D01*
X0024385Y0347086D01*
X0024304Y0346978D01*
X0024226Y0346867D01*
X0024152Y0346755D01*
X0024081Y0346640D01*
X0024013Y0346524D01*
X0023948Y0346406D01*
X0023887Y0346285D01*
X0023829Y0346163D01*
X0023775Y0346040D01*
X0023724Y0345915D01*
X0023677Y0345788D01*
X0023633Y0345661D01*
X0023593Y0345532D01*
X0023557Y0345402D01*
X0023525Y0345271D01*
X0023496Y0345139D01*
X0023471Y0345007D01*
X0023450Y0344873D01*
X0023433Y0344739D01*
X0023419Y0344605D01*
X0023410Y0344471D01*
X0023404Y0344336D01*
X0023402Y0344201D01*
X0023402Y0307980D01*
X0019858Y0307981D02*
X0019849Y0307846D01*
X0019844Y0307710D01*
X0019842Y0307575D01*
X0019844Y0307440D01*
X0019850Y0307304D01*
X0019860Y0307169D01*
X0019874Y0307035D01*
X0019892Y0306900D01*
X0019914Y0306767D01*
X0019939Y0306634D01*
X0019968Y0306501D01*
X0020001Y0306370D01*
X0020037Y0306240D01*
X0020078Y0306111D01*
X0020122Y0305982D01*
X0020169Y0305856D01*
X0020221Y0305730D01*
X0020275Y0305607D01*
X0020334Y0305484D01*
X0020396Y0305364D01*
X0020461Y0305245D01*
X0020529Y0305128D01*
X0020601Y0305014D01*
X0020676Y0304901D01*
X0020755Y0304791D01*
X0020836Y0304682D01*
X0020920Y0304577D01*
X0021008Y0304473D01*
X0021098Y0304372D01*
X0021191Y0304274D01*
X0021287Y0304179D01*
X0021386Y0304086D01*
X0021487Y0303996D01*
X0021591Y0303909D01*
X0021697Y0303825D01*
X0021806Y0303744D01*
X0021917Y0303667D01*
X0022030Y0303592D01*
X0022145Y0303521D01*
X0022262Y0303453D01*
X0022381Y0303388D01*
X0022502Y0303327D01*
X0022624Y0303269D01*
X0022749Y0303215D01*
X0022874Y0303165D01*
X0023001Y0303118D01*
X0023129Y0303074D01*
X0023259Y0303035D01*
X0023389Y0302999D01*
X0023521Y0302966D01*
X0023653Y0302938D01*
X0023786Y0302913D01*
X0023920Y0302893D01*
X0024055Y0302876D01*
X0024189Y0302862D01*
X0026394Y0299319D02*
X0026551Y0299321D01*
X0026708Y0299327D01*
X0026865Y0299337D01*
X0027021Y0299350D01*
X0027177Y0299368D01*
X0027333Y0299389D01*
X0027488Y0299415D01*
X0027642Y0299444D01*
X0027796Y0299477D01*
X0027948Y0299514D01*
X0028100Y0299554D01*
X0028251Y0299599D01*
X0028400Y0299647D01*
X0028548Y0299699D01*
X0028695Y0299754D01*
X0028841Y0299814D01*
X0028985Y0299876D01*
X0029127Y0299943D01*
X0029268Y0300013D01*
X0029407Y0300086D01*
X0029544Y0300163D01*
X0029679Y0300243D01*
X0029811Y0300327D01*
X0029942Y0300414D01*
X0030071Y0300504D01*
X0030197Y0300597D01*
X0030321Y0300693D01*
X0030443Y0300793D01*
X0030562Y0300895D01*
X0030678Y0301001D01*
X0030792Y0301109D01*
X0030903Y0301220D01*
X0031011Y0301334D01*
X0031117Y0301450D01*
X0031219Y0301569D01*
X0031319Y0301691D01*
X0031415Y0301815D01*
X0031508Y0301941D01*
X0031598Y0302070D01*
X0031685Y0302201D01*
X0031769Y0302333D01*
X0031849Y0302469D01*
X0031926Y0302605D01*
X0031999Y0302744D01*
X0032069Y0302885D01*
X0032136Y0303027D01*
X0032198Y0303171D01*
X0032258Y0303317D01*
X0032313Y0303464D01*
X0032365Y0303612D01*
X0032413Y0303761D01*
X0032458Y0303912D01*
X0032498Y0304064D01*
X0032535Y0304216D01*
X0032568Y0304370D01*
X0032597Y0304524D01*
X0032623Y0304679D01*
X0032644Y0304835D01*
X0032662Y0304991D01*
X0032675Y0305147D01*
X0032685Y0305304D01*
X0032691Y0305461D01*
X0032693Y0305618D01*
X0032693Y0343807D01*
X0032692Y0343807D02*
X0032677Y0343916D01*
X0032657Y0344025D01*
X0032634Y0344134D01*
X0032607Y0344241D01*
X0032576Y0344348D01*
X0032542Y0344453D01*
X0032504Y0344557D01*
X0032462Y0344660D01*
X0032417Y0344761D01*
X0032368Y0344860D01*
X0032316Y0344958D01*
X0032260Y0345054D01*
X0032201Y0345147D01*
X0032139Y0345239D01*
X0032074Y0345329D01*
X0032005Y0345416D01*
X0031934Y0345501D01*
X0031860Y0345583D01*
X0031782Y0345662D01*
X0031703Y0345739D01*
X0031620Y0345813D01*
X0031535Y0345884D01*
X0031448Y0345952D01*
X0031358Y0346017D01*
X0031266Y0346079D01*
X0031172Y0346137D01*
X0031076Y0346192D01*
X0030978Y0346244D01*
X0030878Y0346293D01*
X0030777Y0346337D01*
X0030674Y0346379D01*
X0030570Y0346416D01*
X0030464Y0346450D01*
X0030358Y0346481D01*
X0030250Y0346507D01*
X0030142Y0346530D01*
X0030033Y0346549D01*
X0029923Y0346564D01*
X0029813Y0346576D01*
X0029702Y0346583D01*
X0029591Y0346587D01*
X0029481Y0346586D01*
X0029370Y0346582D01*
X0029259Y0346574D01*
X0029149Y0346562D01*
X0024583Y0348925D02*
X0024448Y0348923D01*
X0024313Y0348917D01*
X0024179Y0348908D01*
X0024045Y0348894D01*
X0023911Y0348877D01*
X0023777Y0348856D01*
X0023645Y0348831D01*
X0023513Y0348802D01*
X0023382Y0348770D01*
X0023252Y0348734D01*
X0023123Y0348694D01*
X0022996Y0348650D01*
X0022869Y0348603D01*
X0022744Y0348552D01*
X0022621Y0348498D01*
X0022499Y0348440D01*
X0022378Y0348379D01*
X0022260Y0348314D01*
X0022144Y0348246D01*
X0022029Y0348175D01*
X0021917Y0348101D01*
X0021806Y0348023D01*
X0021698Y0347942D01*
X0021593Y0347858D01*
X0021489Y0347771D01*
X0021389Y0347681D01*
X0021291Y0347589D01*
X0021195Y0347493D01*
X0021103Y0347395D01*
X0021013Y0347295D01*
X0020926Y0347191D01*
X0020842Y0347086D01*
X0020761Y0346978D01*
X0020683Y0346867D01*
X0020609Y0346755D01*
X0020538Y0346640D01*
X0020470Y0346524D01*
X0020405Y0346406D01*
X0020344Y0346285D01*
X0020286Y0346163D01*
X0020232Y0346040D01*
X0020181Y0345915D01*
X0020134Y0345788D01*
X0020090Y0345661D01*
X0020050Y0345532D01*
X0020014Y0345402D01*
X0019982Y0345271D01*
X0019953Y0345139D01*
X0019928Y0345007D01*
X0019907Y0344873D01*
X0019890Y0344739D01*
X0019876Y0344605D01*
X0019867Y0344471D01*
X0019861Y0344336D01*
X0019859Y0344201D01*
X0019858Y0344201D02*
X0019858Y0307980D01*
X0023401Y0307981D02*
X0023392Y0307846D01*
X0023387Y0307710D01*
X0023385Y0307575D01*
X0023387Y0307440D01*
X0023393Y0307304D01*
X0023403Y0307169D01*
X0023417Y0307035D01*
X0023435Y0306900D01*
X0023457Y0306767D01*
X0023482Y0306634D01*
X0023511Y0306501D01*
X0023544Y0306370D01*
X0023580Y0306240D01*
X0023621Y0306111D01*
X0023665Y0305982D01*
X0023712Y0305856D01*
X0023764Y0305730D01*
X0023818Y0305607D01*
X0023877Y0305484D01*
X0023939Y0305364D01*
X0024004Y0305245D01*
X0024072Y0305128D01*
X0024144Y0305014D01*
X0024219Y0304901D01*
X0024298Y0304791D01*
X0024379Y0304682D01*
X0024463Y0304577D01*
X0024551Y0304473D01*
X0024641Y0304372D01*
X0024734Y0304274D01*
X0024830Y0304179D01*
X0024929Y0304086D01*
X0025030Y0303996D01*
X0025134Y0303909D01*
X0025240Y0303825D01*
X0025349Y0303744D01*
X0025460Y0303667D01*
X0025573Y0303592D01*
X0025688Y0303521D01*
X0025805Y0303453D01*
X0025924Y0303388D01*
X0026045Y0303327D01*
X0026167Y0303269D01*
X0026292Y0303215D01*
X0026417Y0303165D01*
X0026544Y0303118D01*
X0026672Y0303074D01*
X0026802Y0303035D01*
X0026932Y0302999D01*
X0027064Y0302966D01*
X0027196Y0302938D01*
X0027329Y0302913D01*
X0027463Y0302893D01*
X0027598Y0302876D01*
X0027732Y0302862D01*
X0026394Y0299319D02*
X0026394Y0295382D01*
X0085843Y0295382D01*
X0085843Y0350500D01*
X0009622Y0348925D02*
X0009487Y0348923D01*
X0009352Y0348917D01*
X0009218Y0348908D01*
X0009084Y0348894D01*
X0008950Y0348877D01*
X0008816Y0348856D01*
X0008684Y0348831D01*
X0008552Y0348802D01*
X0008421Y0348770D01*
X0008291Y0348734D01*
X0008162Y0348694D01*
X0008035Y0348650D01*
X0007908Y0348603D01*
X0007783Y0348552D01*
X0007660Y0348498D01*
X0007538Y0348440D01*
X0007417Y0348379D01*
X0007299Y0348314D01*
X0007183Y0348246D01*
X0007068Y0348175D01*
X0006956Y0348101D01*
X0006845Y0348023D01*
X0006737Y0347942D01*
X0006632Y0347858D01*
X0006528Y0347771D01*
X0006428Y0347681D01*
X0006330Y0347589D01*
X0006234Y0347493D01*
X0006142Y0347395D01*
X0006052Y0347295D01*
X0005965Y0347191D01*
X0005881Y0347086D01*
X0005800Y0346978D01*
X0005722Y0346867D01*
X0005648Y0346755D01*
X0005577Y0346640D01*
X0005509Y0346524D01*
X0005444Y0346406D01*
X0005383Y0346285D01*
X0005325Y0346163D01*
X0005271Y0346040D01*
X0005220Y0345915D01*
X0005173Y0345788D01*
X0005129Y0345661D01*
X0005089Y0345532D01*
X0005053Y0345402D01*
X0005021Y0345271D01*
X0004992Y0345139D01*
X0004967Y0345007D01*
X0004946Y0344873D01*
X0004929Y0344739D01*
X0004915Y0344605D01*
X0004906Y0344471D01*
X0004900Y0344336D01*
X0004898Y0344201D01*
X0004898Y0307980D01*
X0004897Y0307981D02*
X0004888Y0307846D01*
X0004883Y0307710D01*
X0004881Y0307575D01*
X0004883Y0307440D01*
X0004889Y0307304D01*
X0004899Y0307169D01*
X0004913Y0307035D01*
X0004931Y0306900D01*
X0004953Y0306767D01*
X0004978Y0306634D01*
X0005007Y0306501D01*
X0005040Y0306370D01*
X0005076Y0306240D01*
X0005117Y0306111D01*
X0005161Y0305982D01*
X0005208Y0305856D01*
X0005260Y0305730D01*
X0005314Y0305607D01*
X0005373Y0305484D01*
X0005435Y0305364D01*
X0005500Y0305245D01*
X0005568Y0305128D01*
X0005640Y0305014D01*
X0005715Y0304901D01*
X0005794Y0304791D01*
X0005875Y0304682D01*
X0005959Y0304577D01*
X0006047Y0304473D01*
X0006137Y0304372D01*
X0006230Y0304274D01*
X0006326Y0304179D01*
X0006425Y0304086D01*
X0006526Y0303996D01*
X0006630Y0303909D01*
X0006736Y0303825D01*
X0006845Y0303744D01*
X0006956Y0303667D01*
X0007069Y0303592D01*
X0007184Y0303521D01*
X0007301Y0303453D01*
X0007420Y0303388D01*
X0007541Y0303327D01*
X0007663Y0303269D01*
X0007788Y0303215D01*
X0007913Y0303165D01*
X0008040Y0303118D01*
X0008168Y0303074D01*
X0008298Y0303035D01*
X0008428Y0302999D01*
X0008560Y0302966D01*
X0008692Y0302938D01*
X0008825Y0302913D01*
X0008959Y0302893D01*
X0009094Y0302876D01*
X0009228Y0302862D01*
X0093594Y0220406D02*
X0093594Y0216594D01*
X0105406Y0216594D02*
X0105406Y0220406D01*
X0129642Y0213874D02*
X0129642Y0198126D01*
X0147358Y0198126D01*
X0147358Y0213874D01*
X0129642Y0213874D01*
X0159642Y0213874D02*
X0159642Y0198126D01*
X0177358Y0198126D01*
X0177358Y0213874D01*
X0159642Y0213874D01*
X0159999Y0177406D02*
X0159999Y0165594D01*
X0150208Y0168306D02*
X0150210Y0168336D01*
X0150216Y0168365D01*
X0150226Y0168393D01*
X0150239Y0168420D01*
X0150256Y0168444D01*
X0150276Y0168466D01*
X0150299Y0168486D01*
X0150324Y0168502D01*
X0150351Y0168514D01*
X0150379Y0168523D01*
X0150409Y0168528D01*
X0150438Y0168529D01*
X0150468Y0168526D01*
X0150497Y0168519D01*
X0150525Y0168508D01*
X0150551Y0168494D01*
X0150575Y0168476D01*
X0150596Y0168456D01*
X0150615Y0168432D01*
X0150630Y0168407D01*
X0150642Y0168379D01*
X0150650Y0168350D01*
X0150654Y0168321D01*
X0150654Y0168291D01*
X0150650Y0168262D01*
X0150642Y0168233D01*
X0150630Y0168205D01*
X0150615Y0168180D01*
X0150596Y0168156D01*
X0150575Y0168136D01*
X0150551Y0168118D01*
X0150525Y0168104D01*
X0150497Y0168093D01*
X0150468Y0168086D01*
X0150438Y0168083D01*
X0150409Y0168084D01*
X0150379Y0168089D01*
X0150351Y0168098D01*
X0150324Y0168110D01*
X0150299Y0168126D01*
X0150276Y0168146D01*
X0150256Y0168168D01*
X0150239Y0168192D01*
X0150226Y0168219D01*
X0150216Y0168247D01*
X0150210Y0168276D01*
X0150208Y0168306D01*
X0147001Y0165594D02*
X0147001Y0177406D01*
X0222051Y0058768D02*
X0276382Y0058768D01*
X0276382Y0042626D01*
X0222051Y0042626D01*
X0222051Y0058768D01*
X0225594Y0054437D02*
X0225594Y0047744D01*
X0272839Y0047744D01*
X0272839Y0054437D01*
X0225594Y0054437D01*
D15*
X0225692Y0055064D02*
X0223957Y0055064D01*
X0225692Y0056799D01*
X0225692Y0057232D01*
X0225259Y0057666D01*
X0224391Y0057666D01*
X0223957Y0057232D01*
X0228431Y0041166D02*
X0227564Y0040299D01*
X0228431Y0041166D02*
X0228431Y0038564D01*
X0227564Y0038564D02*
X0229299Y0038564D01*
X0270957Y0038997D02*
X0271391Y0038564D01*
X0272259Y0038564D01*
X0272692Y0038997D01*
X0272692Y0039431D01*
X0272259Y0039865D01*
X0271825Y0039865D01*
X0272259Y0039865D02*
X0272692Y0040299D01*
X0272692Y0040732D01*
X0272259Y0041166D01*
X0271391Y0041166D01*
X0270957Y0040732D01*
X0273904Y0040732D02*
X0273904Y0040299D01*
X0274338Y0039865D01*
X0275639Y0039865D01*
X0275639Y0040732D02*
X0275205Y0041166D01*
X0274338Y0041166D01*
X0273904Y0040732D01*
X0273904Y0038997D02*
X0274338Y0038564D01*
X0275205Y0038564D01*
X0275639Y0038997D01*
X0275639Y0040732D01*
X0274205Y0060064D02*
X0273338Y0060064D01*
X0272904Y0060497D01*
X0272904Y0060931D01*
X0273338Y0061365D01*
X0274205Y0061365D01*
X0274639Y0060931D01*
X0274639Y0060497D01*
X0274205Y0060064D01*
X0274205Y0061365D02*
X0274639Y0061799D01*
X0274639Y0062232D01*
X0274205Y0062666D01*
X0273338Y0062666D01*
X0272904Y0062232D01*
X0272904Y0061799D01*
X0273338Y0061365D01*
X0271692Y0061799D02*
X0271259Y0061365D01*
X0271692Y0060931D01*
X0271692Y0060497D01*
X0271259Y0060064D01*
X0270391Y0060064D01*
X0269957Y0060497D01*
X0270825Y0061365D02*
X0271259Y0061365D01*
X0271692Y0061799D02*
X0271692Y0062232D01*
X0271259Y0062666D01*
X0270391Y0062666D01*
X0269957Y0062232D01*
X0303000Y0037000D02*
X0303000Y0020000D01*
X0303002Y0019940D01*
X0303007Y0019879D01*
X0303016Y0019820D01*
X0303029Y0019761D01*
X0303045Y0019702D01*
X0303065Y0019645D01*
X0303088Y0019590D01*
X0303115Y0019535D01*
X0303144Y0019483D01*
X0303177Y0019432D01*
X0303213Y0019383D01*
X0303251Y0019337D01*
X0303293Y0019293D01*
X0303337Y0019251D01*
X0303383Y0019213D01*
X0303432Y0019177D01*
X0303483Y0019144D01*
X0303535Y0019115D01*
X0303590Y0019088D01*
X0303645Y0019065D01*
X0303702Y0019045D01*
X0303761Y0019029D01*
X0303820Y0019016D01*
X0303879Y0019007D01*
X0303940Y0019002D01*
X0304000Y0019000D01*
X0310000Y0019000D01*
X0310060Y0019002D01*
X0310121Y0019007D01*
X0310180Y0019016D01*
X0310239Y0019029D01*
X0310298Y0019045D01*
X0310355Y0019065D01*
X0310410Y0019088D01*
X0310465Y0019115D01*
X0310517Y0019144D01*
X0310568Y0019177D01*
X0310617Y0019213D01*
X0310663Y0019251D01*
X0310707Y0019293D01*
X0310749Y0019337D01*
X0310787Y0019383D01*
X0310823Y0019432D01*
X0310856Y0019483D01*
X0310885Y0019535D01*
X0310912Y0019590D01*
X0310935Y0019645D01*
X0310955Y0019702D01*
X0310971Y0019761D01*
X0310984Y0019820D01*
X0310993Y0019879D01*
X0310998Y0019940D01*
X0311000Y0020000D01*
X0311000Y0037000D01*
X0310998Y0037060D01*
X0310993Y0037121D01*
X0310984Y0037180D01*
X0310971Y0037239D01*
X0310955Y0037298D01*
X0310935Y0037355D01*
X0310912Y0037410D01*
X0310885Y0037465D01*
X0310856Y0037517D01*
X0310823Y0037568D01*
X0310787Y0037617D01*
X0310749Y0037663D01*
X0310707Y0037707D01*
X0310663Y0037749D01*
X0310617Y0037787D01*
X0310568Y0037823D01*
X0310517Y0037856D01*
X0310465Y0037885D01*
X0310410Y0037912D01*
X0310355Y0037935D01*
X0310298Y0037955D01*
X0310239Y0037971D01*
X0310180Y0037984D01*
X0310121Y0037993D01*
X0310060Y0037998D01*
X0310000Y0038000D01*
X0304000Y0038000D01*
X0303940Y0037998D01*
X0303879Y0037993D01*
X0303820Y0037984D01*
X0303761Y0037971D01*
X0303702Y0037955D01*
X0303645Y0037935D01*
X0303590Y0037912D01*
X0303535Y0037885D01*
X0303483Y0037856D01*
X0303432Y0037823D01*
X0303383Y0037787D01*
X0303337Y0037749D01*
X0303293Y0037707D01*
X0303251Y0037663D01*
X0303213Y0037617D01*
X0303177Y0037568D01*
X0303144Y0037517D01*
X0303115Y0037465D01*
X0303088Y0037410D01*
X0303065Y0037355D01*
X0303045Y0037298D01*
X0303029Y0037239D01*
X0303016Y0037180D01*
X0303007Y0037121D01*
X0303002Y0037060D01*
X0303000Y0037000D01*
X0297370Y0120831D02*
X0297374Y0121162D01*
X0297386Y0121493D01*
X0297407Y0121824D01*
X0297435Y0122154D01*
X0297472Y0122484D01*
X0297516Y0122812D01*
X0297569Y0123139D01*
X0297629Y0123465D01*
X0297698Y0123789D01*
X0297775Y0124111D01*
X0297859Y0124432D01*
X0297951Y0124750D01*
X0298051Y0125066D01*
X0298159Y0125379D01*
X0298275Y0125690D01*
X0298398Y0125997D01*
X0298528Y0126302D01*
X0298666Y0126603D01*
X0298811Y0126901D01*
X0298964Y0127195D01*
X0299124Y0127485D01*
X0299291Y0127771D01*
X0299464Y0128053D01*
X0299645Y0128331D01*
X0299833Y0128604D01*
X0300027Y0128873D01*
X0300227Y0129137D01*
X0300434Y0129395D01*
X0300648Y0129649D01*
X0300867Y0129897D01*
X0301093Y0130140D01*
X0301324Y0130377D01*
X0301561Y0130608D01*
X0301804Y0130834D01*
X0302052Y0131053D01*
X0302306Y0131267D01*
X0302564Y0131474D01*
X0302828Y0131674D01*
X0303097Y0131868D01*
X0303370Y0132056D01*
X0303648Y0132237D01*
X0303930Y0132410D01*
X0304216Y0132577D01*
X0304506Y0132737D01*
X0304800Y0132890D01*
X0305098Y0133035D01*
X0305399Y0133173D01*
X0305704Y0133303D01*
X0306011Y0133426D01*
X0306322Y0133542D01*
X0306635Y0133650D01*
X0306951Y0133750D01*
X0307269Y0133842D01*
X0307590Y0133926D01*
X0307912Y0134003D01*
X0308236Y0134072D01*
X0308562Y0134132D01*
X0308889Y0134185D01*
X0309217Y0134229D01*
X0309547Y0134266D01*
X0309877Y0134294D01*
X0310208Y0134315D01*
X0310539Y0134327D01*
X0310870Y0134331D01*
X0311201Y0134327D01*
X0311532Y0134315D01*
X0311863Y0134294D01*
X0312193Y0134266D01*
X0312523Y0134229D01*
X0312851Y0134185D01*
X0313178Y0134132D01*
X0313504Y0134072D01*
X0313828Y0134003D01*
X0314150Y0133926D01*
X0314471Y0133842D01*
X0314789Y0133750D01*
X0315105Y0133650D01*
X0315418Y0133542D01*
X0315729Y0133426D01*
X0316036Y0133303D01*
X0316341Y0133173D01*
X0316642Y0133035D01*
X0316940Y0132890D01*
X0317234Y0132737D01*
X0317524Y0132577D01*
X0317810Y0132410D01*
X0318092Y0132237D01*
X0318370Y0132056D01*
X0318643Y0131868D01*
X0318912Y0131674D01*
X0319176Y0131474D01*
X0319434Y0131267D01*
X0319688Y0131053D01*
X0319936Y0130834D01*
X0320179Y0130608D01*
X0320416Y0130377D01*
X0320647Y0130140D01*
X0320873Y0129897D01*
X0321092Y0129649D01*
X0321306Y0129395D01*
X0321513Y0129137D01*
X0321713Y0128873D01*
X0321907Y0128604D01*
X0322095Y0128331D01*
X0322276Y0128053D01*
X0322449Y0127771D01*
X0322616Y0127485D01*
X0322776Y0127195D01*
X0322929Y0126901D01*
X0323074Y0126603D01*
X0323212Y0126302D01*
X0323342Y0125997D01*
X0323465Y0125690D01*
X0323581Y0125379D01*
X0323689Y0125066D01*
X0323789Y0124750D01*
X0323881Y0124432D01*
X0323965Y0124111D01*
X0324042Y0123789D01*
X0324111Y0123465D01*
X0324171Y0123139D01*
X0324224Y0122812D01*
X0324268Y0122484D01*
X0324305Y0122154D01*
X0324333Y0121824D01*
X0324354Y0121493D01*
X0324366Y0121162D01*
X0324370Y0120831D01*
X0324366Y0120500D01*
X0324354Y0120169D01*
X0324333Y0119838D01*
X0324305Y0119508D01*
X0324268Y0119178D01*
X0324224Y0118850D01*
X0324171Y0118523D01*
X0324111Y0118197D01*
X0324042Y0117873D01*
X0323965Y0117551D01*
X0323881Y0117230D01*
X0323789Y0116912D01*
X0323689Y0116596D01*
X0323581Y0116283D01*
X0323465Y0115972D01*
X0323342Y0115665D01*
X0323212Y0115360D01*
X0323074Y0115059D01*
X0322929Y0114761D01*
X0322776Y0114467D01*
X0322616Y0114177D01*
X0322449Y0113891D01*
X0322276Y0113609D01*
X0322095Y0113331D01*
X0321907Y0113058D01*
X0321713Y0112789D01*
X0321513Y0112525D01*
X0321306Y0112267D01*
X0321092Y0112013D01*
X0320873Y0111765D01*
X0320647Y0111522D01*
X0320416Y0111285D01*
X0320179Y0111054D01*
X0319936Y0110828D01*
X0319688Y0110609D01*
X0319434Y0110395D01*
X0319176Y0110188D01*
X0318912Y0109988D01*
X0318643Y0109794D01*
X0318370Y0109606D01*
X0318092Y0109425D01*
X0317810Y0109252D01*
X0317524Y0109085D01*
X0317234Y0108925D01*
X0316940Y0108772D01*
X0316642Y0108627D01*
X0316341Y0108489D01*
X0316036Y0108359D01*
X0315729Y0108236D01*
X0315418Y0108120D01*
X0315105Y0108012D01*
X0314789Y0107912D01*
X0314471Y0107820D01*
X0314150Y0107736D01*
X0313828Y0107659D01*
X0313504Y0107590D01*
X0313178Y0107530D01*
X0312851Y0107477D01*
X0312523Y0107433D01*
X0312193Y0107396D01*
X0311863Y0107368D01*
X0311532Y0107347D01*
X0311201Y0107335D01*
X0310870Y0107331D01*
X0310539Y0107335D01*
X0310208Y0107347D01*
X0309877Y0107368D01*
X0309547Y0107396D01*
X0309217Y0107433D01*
X0308889Y0107477D01*
X0308562Y0107530D01*
X0308236Y0107590D01*
X0307912Y0107659D01*
X0307590Y0107736D01*
X0307269Y0107820D01*
X0306951Y0107912D01*
X0306635Y0108012D01*
X0306322Y0108120D01*
X0306011Y0108236D01*
X0305704Y0108359D01*
X0305399Y0108489D01*
X0305098Y0108627D01*
X0304800Y0108772D01*
X0304506Y0108925D01*
X0304216Y0109085D01*
X0303930Y0109252D01*
X0303648Y0109425D01*
X0303370Y0109606D01*
X0303097Y0109794D01*
X0302828Y0109988D01*
X0302564Y0110188D01*
X0302306Y0110395D01*
X0302052Y0110609D01*
X0301804Y0110828D01*
X0301561Y0111054D01*
X0301324Y0111285D01*
X0301093Y0111522D01*
X0300867Y0111765D01*
X0300648Y0112013D01*
X0300434Y0112267D01*
X0300227Y0112525D01*
X0300027Y0112789D01*
X0299833Y0113058D01*
X0299645Y0113331D01*
X0299464Y0113609D01*
X0299291Y0113891D01*
X0299124Y0114177D01*
X0298964Y0114467D01*
X0298811Y0114761D01*
X0298666Y0115059D01*
X0298528Y0115360D01*
X0298398Y0115665D01*
X0298275Y0115972D01*
X0298159Y0116283D01*
X0298051Y0116596D01*
X0297951Y0116912D01*
X0297859Y0117230D01*
X0297775Y0117551D01*
X0297698Y0117873D01*
X0297629Y0118197D01*
X0297569Y0118523D01*
X0297516Y0118850D01*
X0297472Y0119178D01*
X0297435Y0119508D01*
X0297407Y0119838D01*
X0297386Y0120169D01*
X0297374Y0120500D01*
X0297370Y0120831D01*
X0186799Y0110598D02*
X0186799Y0096402D01*
X0168201Y0096402D02*
X0168201Y0110598D01*
X0151799Y0110598D02*
X0151799Y0096402D01*
X0133201Y0096402D02*
X0133201Y0110598D01*
X0033591Y0042091D02*
X0033595Y0042422D01*
X0033607Y0042753D01*
X0033628Y0043084D01*
X0033656Y0043414D01*
X0033693Y0043744D01*
X0033737Y0044072D01*
X0033790Y0044399D01*
X0033850Y0044725D01*
X0033919Y0045049D01*
X0033996Y0045371D01*
X0034080Y0045692D01*
X0034172Y0046010D01*
X0034272Y0046326D01*
X0034380Y0046639D01*
X0034496Y0046950D01*
X0034619Y0047257D01*
X0034749Y0047562D01*
X0034887Y0047863D01*
X0035032Y0048161D01*
X0035185Y0048455D01*
X0035345Y0048745D01*
X0035512Y0049031D01*
X0035685Y0049313D01*
X0035866Y0049591D01*
X0036054Y0049864D01*
X0036248Y0050133D01*
X0036448Y0050397D01*
X0036655Y0050655D01*
X0036869Y0050909D01*
X0037088Y0051157D01*
X0037314Y0051400D01*
X0037545Y0051637D01*
X0037782Y0051868D01*
X0038025Y0052094D01*
X0038273Y0052313D01*
X0038527Y0052527D01*
X0038785Y0052734D01*
X0039049Y0052934D01*
X0039318Y0053128D01*
X0039591Y0053316D01*
X0039869Y0053497D01*
X0040151Y0053670D01*
X0040437Y0053837D01*
X0040727Y0053997D01*
X0041021Y0054150D01*
X0041319Y0054295D01*
X0041620Y0054433D01*
X0041925Y0054563D01*
X0042232Y0054686D01*
X0042543Y0054802D01*
X0042856Y0054910D01*
X0043172Y0055010D01*
X0043490Y0055102D01*
X0043811Y0055186D01*
X0044133Y0055263D01*
X0044457Y0055332D01*
X0044783Y0055392D01*
X0045110Y0055445D01*
X0045438Y0055489D01*
X0045768Y0055526D01*
X0046098Y0055554D01*
X0046429Y0055575D01*
X0046760Y0055587D01*
X0047091Y0055591D01*
X0047422Y0055587D01*
X0047753Y0055575D01*
X0048084Y0055554D01*
X0048414Y0055526D01*
X0048744Y0055489D01*
X0049072Y0055445D01*
X0049399Y0055392D01*
X0049725Y0055332D01*
X0050049Y0055263D01*
X0050371Y0055186D01*
X0050692Y0055102D01*
X0051010Y0055010D01*
X0051326Y0054910D01*
X0051639Y0054802D01*
X0051950Y0054686D01*
X0052257Y0054563D01*
X0052562Y0054433D01*
X0052863Y0054295D01*
X0053161Y0054150D01*
X0053455Y0053997D01*
X0053745Y0053837D01*
X0054031Y0053670D01*
X0054313Y0053497D01*
X0054591Y0053316D01*
X0054864Y0053128D01*
X0055133Y0052934D01*
X0055397Y0052734D01*
X0055655Y0052527D01*
X0055909Y0052313D01*
X0056157Y0052094D01*
X0056400Y0051868D01*
X0056637Y0051637D01*
X0056868Y0051400D01*
X0057094Y0051157D01*
X0057313Y0050909D01*
X0057527Y0050655D01*
X0057734Y0050397D01*
X0057934Y0050133D01*
X0058128Y0049864D01*
X0058316Y0049591D01*
X0058497Y0049313D01*
X0058670Y0049031D01*
X0058837Y0048745D01*
X0058997Y0048455D01*
X0059150Y0048161D01*
X0059295Y0047863D01*
X0059433Y0047562D01*
X0059563Y0047257D01*
X0059686Y0046950D01*
X0059802Y0046639D01*
X0059910Y0046326D01*
X0060010Y0046010D01*
X0060102Y0045692D01*
X0060186Y0045371D01*
X0060263Y0045049D01*
X0060332Y0044725D01*
X0060392Y0044399D01*
X0060445Y0044072D01*
X0060489Y0043744D01*
X0060526Y0043414D01*
X0060554Y0043084D01*
X0060575Y0042753D01*
X0060587Y0042422D01*
X0060591Y0042091D01*
X0060587Y0041760D01*
X0060575Y0041429D01*
X0060554Y0041098D01*
X0060526Y0040768D01*
X0060489Y0040438D01*
X0060445Y0040110D01*
X0060392Y0039783D01*
X0060332Y0039457D01*
X0060263Y0039133D01*
X0060186Y0038811D01*
X0060102Y0038490D01*
X0060010Y0038172D01*
X0059910Y0037856D01*
X0059802Y0037543D01*
X0059686Y0037232D01*
X0059563Y0036925D01*
X0059433Y0036620D01*
X0059295Y0036319D01*
X0059150Y0036021D01*
X0058997Y0035727D01*
X0058837Y0035437D01*
X0058670Y0035151D01*
X0058497Y0034869D01*
X0058316Y0034591D01*
X0058128Y0034318D01*
X0057934Y0034049D01*
X0057734Y0033785D01*
X0057527Y0033527D01*
X0057313Y0033273D01*
X0057094Y0033025D01*
X0056868Y0032782D01*
X0056637Y0032545D01*
X0056400Y0032314D01*
X0056157Y0032088D01*
X0055909Y0031869D01*
X0055655Y0031655D01*
X0055397Y0031448D01*
X0055133Y0031248D01*
X0054864Y0031054D01*
X0054591Y0030866D01*
X0054313Y0030685D01*
X0054031Y0030512D01*
X0053745Y0030345D01*
X0053455Y0030185D01*
X0053161Y0030032D01*
X0052863Y0029887D01*
X0052562Y0029749D01*
X0052257Y0029619D01*
X0051950Y0029496D01*
X0051639Y0029380D01*
X0051326Y0029272D01*
X0051010Y0029172D01*
X0050692Y0029080D01*
X0050371Y0028996D01*
X0050049Y0028919D01*
X0049725Y0028850D01*
X0049399Y0028790D01*
X0049072Y0028737D01*
X0048744Y0028693D01*
X0048414Y0028656D01*
X0048084Y0028628D01*
X0047753Y0028607D01*
X0047422Y0028595D01*
X0047091Y0028591D01*
X0046760Y0028595D01*
X0046429Y0028607D01*
X0046098Y0028628D01*
X0045768Y0028656D01*
X0045438Y0028693D01*
X0045110Y0028737D01*
X0044783Y0028790D01*
X0044457Y0028850D01*
X0044133Y0028919D01*
X0043811Y0028996D01*
X0043490Y0029080D01*
X0043172Y0029172D01*
X0042856Y0029272D01*
X0042543Y0029380D01*
X0042232Y0029496D01*
X0041925Y0029619D01*
X0041620Y0029749D01*
X0041319Y0029887D01*
X0041021Y0030032D01*
X0040727Y0030185D01*
X0040437Y0030345D01*
X0040151Y0030512D01*
X0039869Y0030685D01*
X0039591Y0030866D01*
X0039318Y0031054D01*
X0039049Y0031248D01*
X0038785Y0031448D01*
X0038527Y0031655D01*
X0038273Y0031869D01*
X0038025Y0032088D01*
X0037782Y0032314D01*
X0037545Y0032545D01*
X0037314Y0032782D01*
X0037088Y0033025D01*
X0036869Y0033273D01*
X0036655Y0033527D01*
X0036448Y0033785D01*
X0036248Y0034049D01*
X0036054Y0034318D01*
X0035866Y0034591D01*
X0035685Y0034869D01*
X0035512Y0035151D01*
X0035345Y0035437D01*
X0035185Y0035727D01*
X0035032Y0036021D01*
X0034887Y0036319D01*
X0034749Y0036620D01*
X0034619Y0036925D01*
X0034496Y0037232D01*
X0034380Y0037543D01*
X0034272Y0037856D01*
X0034172Y0038172D01*
X0034080Y0038490D01*
X0033996Y0038811D01*
X0033919Y0039133D01*
X0033850Y0039457D01*
X0033790Y0039783D01*
X0033737Y0040110D01*
X0033693Y0040438D01*
X0033656Y0040768D01*
X0033628Y0041098D01*
X0033607Y0041429D01*
X0033595Y0041760D01*
X0033591Y0042091D01*
X0076809Y0213400D02*
X0076809Y0213773D01*
X0076809Y0213400D02*
X0083191Y0213400D01*
X0083191Y0213773D01*
X0083191Y0216943D02*
X0083191Y0217317D01*
X0083191Y0220683D02*
X0083191Y0221057D01*
X0083191Y0224227D02*
X0083191Y0224600D01*
X0076809Y0224600D01*
X0076809Y0224227D01*
X0076809Y0221057D02*
X0076809Y0216943D01*
X0033591Y0384610D02*
X0033595Y0384941D01*
X0033607Y0385272D01*
X0033628Y0385603D01*
X0033656Y0385933D01*
X0033693Y0386263D01*
X0033737Y0386591D01*
X0033790Y0386918D01*
X0033850Y0387244D01*
X0033919Y0387568D01*
X0033996Y0387890D01*
X0034080Y0388211D01*
X0034172Y0388529D01*
X0034272Y0388845D01*
X0034380Y0389158D01*
X0034496Y0389469D01*
X0034619Y0389776D01*
X0034749Y0390081D01*
X0034887Y0390382D01*
X0035032Y0390680D01*
X0035185Y0390974D01*
X0035345Y0391264D01*
X0035512Y0391550D01*
X0035685Y0391832D01*
X0035866Y0392110D01*
X0036054Y0392383D01*
X0036248Y0392652D01*
X0036448Y0392916D01*
X0036655Y0393174D01*
X0036869Y0393428D01*
X0037088Y0393676D01*
X0037314Y0393919D01*
X0037545Y0394156D01*
X0037782Y0394387D01*
X0038025Y0394613D01*
X0038273Y0394832D01*
X0038527Y0395046D01*
X0038785Y0395253D01*
X0039049Y0395453D01*
X0039318Y0395647D01*
X0039591Y0395835D01*
X0039869Y0396016D01*
X0040151Y0396189D01*
X0040437Y0396356D01*
X0040727Y0396516D01*
X0041021Y0396669D01*
X0041319Y0396814D01*
X0041620Y0396952D01*
X0041925Y0397082D01*
X0042232Y0397205D01*
X0042543Y0397321D01*
X0042856Y0397429D01*
X0043172Y0397529D01*
X0043490Y0397621D01*
X0043811Y0397705D01*
X0044133Y0397782D01*
X0044457Y0397851D01*
X0044783Y0397911D01*
X0045110Y0397964D01*
X0045438Y0398008D01*
X0045768Y0398045D01*
X0046098Y0398073D01*
X0046429Y0398094D01*
X0046760Y0398106D01*
X0047091Y0398110D01*
X0047422Y0398106D01*
X0047753Y0398094D01*
X0048084Y0398073D01*
X0048414Y0398045D01*
X0048744Y0398008D01*
X0049072Y0397964D01*
X0049399Y0397911D01*
X0049725Y0397851D01*
X0050049Y0397782D01*
X0050371Y0397705D01*
X0050692Y0397621D01*
X0051010Y0397529D01*
X0051326Y0397429D01*
X0051639Y0397321D01*
X0051950Y0397205D01*
X0052257Y0397082D01*
X0052562Y0396952D01*
X0052863Y0396814D01*
X0053161Y0396669D01*
X0053455Y0396516D01*
X0053745Y0396356D01*
X0054031Y0396189D01*
X0054313Y0396016D01*
X0054591Y0395835D01*
X0054864Y0395647D01*
X0055133Y0395453D01*
X0055397Y0395253D01*
X0055655Y0395046D01*
X0055909Y0394832D01*
X0056157Y0394613D01*
X0056400Y0394387D01*
X0056637Y0394156D01*
X0056868Y0393919D01*
X0057094Y0393676D01*
X0057313Y0393428D01*
X0057527Y0393174D01*
X0057734Y0392916D01*
X0057934Y0392652D01*
X0058128Y0392383D01*
X0058316Y0392110D01*
X0058497Y0391832D01*
X0058670Y0391550D01*
X0058837Y0391264D01*
X0058997Y0390974D01*
X0059150Y0390680D01*
X0059295Y0390382D01*
X0059433Y0390081D01*
X0059563Y0389776D01*
X0059686Y0389469D01*
X0059802Y0389158D01*
X0059910Y0388845D01*
X0060010Y0388529D01*
X0060102Y0388211D01*
X0060186Y0387890D01*
X0060263Y0387568D01*
X0060332Y0387244D01*
X0060392Y0386918D01*
X0060445Y0386591D01*
X0060489Y0386263D01*
X0060526Y0385933D01*
X0060554Y0385603D01*
X0060575Y0385272D01*
X0060587Y0384941D01*
X0060591Y0384610D01*
X0060587Y0384279D01*
X0060575Y0383948D01*
X0060554Y0383617D01*
X0060526Y0383287D01*
X0060489Y0382957D01*
X0060445Y0382629D01*
X0060392Y0382302D01*
X0060332Y0381976D01*
X0060263Y0381652D01*
X0060186Y0381330D01*
X0060102Y0381009D01*
X0060010Y0380691D01*
X0059910Y0380375D01*
X0059802Y0380062D01*
X0059686Y0379751D01*
X0059563Y0379444D01*
X0059433Y0379139D01*
X0059295Y0378838D01*
X0059150Y0378540D01*
X0058997Y0378246D01*
X0058837Y0377956D01*
X0058670Y0377670D01*
X0058497Y0377388D01*
X0058316Y0377110D01*
X0058128Y0376837D01*
X0057934Y0376568D01*
X0057734Y0376304D01*
X0057527Y0376046D01*
X0057313Y0375792D01*
X0057094Y0375544D01*
X0056868Y0375301D01*
X0056637Y0375064D01*
X0056400Y0374833D01*
X0056157Y0374607D01*
X0055909Y0374388D01*
X0055655Y0374174D01*
X0055397Y0373967D01*
X0055133Y0373767D01*
X0054864Y0373573D01*
X0054591Y0373385D01*
X0054313Y0373204D01*
X0054031Y0373031D01*
X0053745Y0372864D01*
X0053455Y0372704D01*
X0053161Y0372551D01*
X0052863Y0372406D01*
X0052562Y0372268D01*
X0052257Y0372138D01*
X0051950Y0372015D01*
X0051639Y0371899D01*
X0051326Y0371791D01*
X0051010Y0371691D01*
X0050692Y0371599D01*
X0050371Y0371515D01*
X0050049Y0371438D01*
X0049725Y0371369D01*
X0049399Y0371309D01*
X0049072Y0371256D01*
X0048744Y0371212D01*
X0048414Y0371175D01*
X0048084Y0371147D01*
X0047753Y0371126D01*
X0047422Y0371114D01*
X0047091Y0371110D01*
X0046760Y0371114D01*
X0046429Y0371126D01*
X0046098Y0371147D01*
X0045768Y0371175D01*
X0045438Y0371212D01*
X0045110Y0371256D01*
X0044783Y0371309D01*
X0044457Y0371369D01*
X0044133Y0371438D01*
X0043811Y0371515D01*
X0043490Y0371599D01*
X0043172Y0371691D01*
X0042856Y0371791D01*
X0042543Y0371899D01*
X0042232Y0372015D01*
X0041925Y0372138D01*
X0041620Y0372268D01*
X0041319Y0372406D01*
X0041021Y0372551D01*
X0040727Y0372704D01*
X0040437Y0372864D01*
X0040151Y0373031D01*
X0039869Y0373204D01*
X0039591Y0373385D01*
X0039318Y0373573D01*
X0039049Y0373767D01*
X0038785Y0373967D01*
X0038527Y0374174D01*
X0038273Y0374388D01*
X0038025Y0374607D01*
X0037782Y0374833D01*
X0037545Y0375064D01*
X0037314Y0375301D01*
X0037088Y0375544D01*
X0036869Y0375792D01*
X0036655Y0376046D01*
X0036448Y0376304D01*
X0036248Y0376568D01*
X0036054Y0376837D01*
X0035866Y0377110D01*
X0035685Y0377388D01*
X0035512Y0377670D01*
X0035345Y0377956D01*
X0035185Y0378246D01*
X0035032Y0378540D01*
X0034887Y0378838D01*
X0034749Y0379139D01*
X0034619Y0379444D01*
X0034496Y0379751D01*
X0034380Y0380062D01*
X0034272Y0380375D01*
X0034172Y0380691D01*
X0034080Y0381009D01*
X0033996Y0381330D01*
X0033919Y0381652D01*
X0033850Y0381976D01*
X0033790Y0382302D01*
X0033737Y0382629D01*
X0033693Y0382957D01*
X0033656Y0383287D01*
X0033628Y0383617D01*
X0033607Y0383948D01*
X0033595Y0384279D01*
X0033591Y0384610D01*
X0297370Y0384610D02*
X0297374Y0384941D01*
X0297386Y0385272D01*
X0297407Y0385603D01*
X0297435Y0385933D01*
X0297472Y0386263D01*
X0297516Y0386591D01*
X0297569Y0386918D01*
X0297629Y0387244D01*
X0297698Y0387568D01*
X0297775Y0387890D01*
X0297859Y0388211D01*
X0297951Y0388529D01*
X0298051Y0388845D01*
X0298159Y0389158D01*
X0298275Y0389469D01*
X0298398Y0389776D01*
X0298528Y0390081D01*
X0298666Y0390382D01*
X0298811Y0390680D01*
X0298964Y0390974D01*
X0299124Y0391264D01*
X0299291Y0391550D01*
X0299464Y0391832D01*
X0299645Y0392110D01*
X0299833Y0392383D01*
X0300027Y0392652D01*
X0300227Y0392916D01*
X0300434Y0393174D01*
X0300648Y0393428D01*
X0300867Y0393676D01*
X0301093Y0393919D01*
X0301324Y0394156D01*
X0301561Y0394387D01*
X0301804Y0394613D01*
X0302052Y0394832D01*
X0302306Y0395046D01*
X0302564Y0395253D01*
X0302828Y0395453D01*
X0303097Y0395647D01*
X0303370Y0395835D01*
X0303648Y0396016D01*
X0303930Y0396189D01*
X0304216Y0396356D01*
X0304506Y0396516D01*
X0304800Y0396669D01*
X0305098Y0396814D01*
X0305399Y0396952D01*
X0305704Y0397082D01*
X0306011Y0397205D01*
X0306322Y0397321D01*
X0306635Y0397429D01*
X0306951Y0397529D01*
X0307269Y0397621D01*
X0307590Y0397705D01*
X0307912Y0397782D01*
X0308236Y0397851D01*
X0308562Y0397911D01*
X0308889Y0397964D01*
X0309217Y0398008D01*
X0309547Y0398045D01*
X0309877Y0398073D01*
X0310208Y0398094D01*
X0310539Y0398106D01*
X0310870Y0398110D01*
X0311201Y0398106D01*
X0311532Y0398094D01*
X0311863Y0398073D01*
X0312193Y0398045D01*
X0312523Y0398008D01*
X0312851Y0397964D01*
X0313178Y0397911D01*
X0313504Y0397851D01*
X0313828Y0397782D01*
X0314150Y0397705D01*
X0314471Y0397621D01*
X0314789Y0397529D01*
X0315105Y0397429D01*
X0315418Y0397321D01*
X0315729Y0397205D01*
X0316036Y0397082D01*
X0316341Y0396952D01*
X0316642Y0396814D01*
X0316940Y0396669D01*
X0317234Y0396516D01*
X0317524Y0396356D01*
X0317810Y0396189D01*
X0318092Y0396016D01*
X0318370Y0395835D01*
X0318643Y0395647D01*
X0318912Y0395453D01*
X0319176Y0395253D01*
X0319434Y0395046D01*
X0319688Y0394832D01*
X0319936Y0394613D01*
X0320179Y0394387D01*
X0320416Y0394156D01*
X0320647Y0393919D01*
X0320873Y0393676D01*
X0321092Y0393428D01*
X0321306Y0393174D01*
X0321513Y0392916D01*
X0321713Y0392652D01*
X0321907Y0392383D01*
X0322095Y0392110D01*
X0322276Y0391832D01*
X0322449Y0391550D01*
X0322616Y0391264D01*
X0322776Y0390974D01*
X0322929Y0390680D01*
X0323074Y0390382D01*
X0323212Y0390081D01*
X0323342Y0389776D01*
X0323465Y0389469D01*
X0323581Y0389158D01*
X0323689Y0388845D01*
X0323789Y0388529D01*
X0323881Y0388211D01*
X0323965Y0387890D01*
X0324042Y0387568D01*
X0324111Y0387244D01*
X0324171Y0386918D01*
X0324224Y0386591D01*
X0324268Y0386263D01*
X0324305Y0385933D01*
X0324333Y0385603D01*
X0324354Y0385272D01*
X0324366Y0384941D01*
X0324370Y0384610D01*
X0324366Y0384279D01*
X0324354Y0383948D01*
X0324333Y0383617D01*
X0324305Y0383287D01*
X0324268Y0382957D01*
X0324224Y0382629D01*
X0324171Y0382302D01*
X0324111Y0381976D01*
X0324042Y0381652D01*
X0323965Y0381330D01*
X0323881Y0381009D01*
X0323789Y0380691D01*
X0323689Y0380375D01*
X0323581Y0380062D01*
X0323465Y0379751D01*
X0323342Y0379444D01*
X0323212Y0379139D01*
X0323074Y0378838D01*
X0322929Y0378540D01*
X0322776Y0378246D01*
X0322616Y0377956D01*
X0322449Y0377670D01*
X0322276Y0377388D01*
X0322095Y0377110D01*
X0321907Y0376837D01*
X0321713Y0376568D01*
X0321513Y0376304D01*
X0321306Y0376046D01*
X0321092Y0375792D01*
X0320873Y0375544D01*
X0320647Y0375301D01*
X0320416Y0375064D01*
X0320179Y0374833D01*
X0319936Y0374607D01*
X0319688Y0374388D01*
X0319434Y0374174D01*
X0319176Y0373967D01*
X0318912Y0373767D01*
X0318643Y0373573D01*
X0318370Y0373385D01*
X0318092Y0373204D01*
X0317810Y0373031D01*
X0317524Y0372864D01*
X0317234Y0372704D01*
X0316940Y0372551D01*
X0316642Y0372406D01*
X0316341Y0372268D01*
X0316036Y0372138D01*
X0315729Y0372015D01*
X0315418Y0371899D01*
X0315105Y0371791D01*
X0314789Y0371691D01*
X0314471Y0371599D01*
X0314150Y0371515D01*
X0313828Y0371438D01*
X0313504Y0371369D01*
X0313178Y0371309D01*
X0312851Y0371256D01*
X0312523Y0371212D01*
X0312193Y0371175D01*
X0311863Y0371147D01*
X0311532Y0371126D01*
X0311201Y0371114D01*
X0310870Y0371110D01*
X0310539Y0371114D01*
X0310208Y0371126D01*
X0309877Y0371147D01*
X0309547Y0371175D01*
X0309217Y0371212D01*
X0308889Y0371256D01*
X0308562Y0371309D01*
X0308236Y0371369D01*
X0307912Y0371438D01*
X0307590Y0371515D01*
X0307269Y0371599D01*
X0306951Y0371691D01*
X0306635Y0371791D01*
X0306322Y0371899D01*
X0306011Y0372015D01*
X0305704Y0372138D01*
X0305399Y0372268D01*
X0305098Y0372406D01*
X0304800Y0372551D01*
X0304506Y0372704D01*
X0304216Y0372864D01*
X0303930Y0373031D01*
X0303648Y0373204D01*
X0303370Y0373385D01*
X0303097Y0373573D01*
X0302828Y0373767D01*
X0302564Y0373967D01*
X0302306Y0374174D01*
X0302052Y0374388D01*
X0301804Y0374607D01*
X0301561Y0374833D01*
X0301324Y0375064D01*
X0301093Y0375301D01*
X0300867Y0375544D01*
X0300648Y0375792D01*
X0300434Y0376046D01*
X0300227Y0376304D01*
X0300027Y0376568D01*
X0299833Y0376837D01*
X0299645Y0377110D01*
X0299464Y0377388D01*
X0299291Y0377670D01*
X0299124Y0377956D01*
X0298964Y0378246D01*
X0298811Y0378540D01*
X0298666Y0378838D01*
X0298528Y0379139D01*
X0298398Y0379444D01*
X0298275Y0379751D01*
X0298159Y0380062D01*
X0298051Y0380375D01*
X0297951Y0380691D01*
X0297859Y0381009D01*
X0297775Y0381330D01*
X0297698Y0381652D01*
X0297629Y0381976D01*
X0297569Y0382302D01*
X0297516Y0382629D01*
X0297472Y0382957D01*
X0297435Y0383287D01*
X0297407Y0383617D01*
X0297386Y0383948D01*
X0297374Y0384279D01*
X0297370Y0384610D01*
D16*
X0266000Y0320120D02*
X0266000Y0319880D01*
X0266000Y0310120D02*
X0266000Y0309880D01*
X0266000Y0300120D02*
X0266000Y0299880D01*
X0311880Y0225500D02*
X0312120Y0225500D01*
X0262120Y0225000D02*
X0261880Y0225000D01*
X0163500Y0154620D02*
X0163500Y0154380D01*
X0143500Y0154380D02*
X0143500Y0154620D01*
X0136500Y0171380D02*
X0136500Y0171620D01*
X0157000Y0189380D02*
X0157000Y0189620D01*
X0093500Y0193880D02*
X0093500Y0194120D01*
X0093500Y0203880D02*
X0093500Y0204120D01*
X0066120Y0227500D02*
X0065880Y0227500D01*
X0042500Y0240380D02*
X0042500Y0240620D01*
X0033500Y0214620D02*
X0033500Y0214380D01*
X0069000Y0169120D02*
X0069000Y0168880D01*
X0041000Y0156120D02*
X0041000Y0155880D01*
X0054880Y0127000D02*
X0055120Y0127000D01*
X0126380Y0112500D02*
X0126620Y0112500D01*
X0126620Y0094500D02*
X0126380Y0094500D01*
X0144600Y0061620D02*
X0144600Y0061380D01*
X0162380Y0057500D02*
X0162620Y0057500D01*
X0144500Y0034620D02*
X0144500Y0034380D01*
X0161380Y0094500D02*
X0161620Y0094500D01*
X0161620Y0110500D02*
X0161380Y0110500D01*
X0048500Y0288880D02*
X0048500Y0289120D01*
D17*
X0098500Y0321000D03*
X0180000Y0303500D03*
X0180000Y0293500D03*
X0239000Y0249000D03*
X0258000Y0246000D03*
X0258000Y0256000D03*
X0249000Y0327500D03*
X0093500Y0171000D03*
X0086500Y0181500D03*
X0094000Y0154000D03*
X0086500Y0137500D03*
X0086500Y0128000D03*
X0032000Y0126000D03*
X0032000Y0136000D03*
X0032000Y0146000D03*
X0078500Y0232000D03*
X0143500Y0143500D03*
X0143500Y0132500D03*
X0163500Y0132500D03*
X0163500Y0143500D03*
X0221000Y0079000D03*
X0221000Y0069000D03*
X0214500Y0032500D03*
X0289000Y0034000D03*
X0289000Y0043000D03*
X0289000Y0052000D03*
X0289000Y0061000D03*
D18*
X0286500Y0074500D03*
X0276500Y0074500D03*
X0266500Y0074500D03*
X0256500Y0074500D03*
X0126500Y0040500D03*
X0072000Y0127000D03*
X0045500Y0127000D03*
X0055000Y0168000D03*
X0045500Y0212500D03*
X0029500Y0225500D03*
X0170000Y0231500D03*
X0281500Y0254000D03*
X0290500Y0255000D03*
X0299500Y0255000D03*
D19*
X0307323Y0243027D02*
X0307323Y0239691D01*
X0307990Y0239024D01*
X0309325Y0239024D01*
X0309992Y0239691D01*
X0309992Y0243027D01*
X0311927Y0242360D02*
X0312594Y0243027D01*
X0313928Y0243027D01*
X0314596Y0242360D01*
X0311927Y0239691D01*
X0312594Y0239024D01*
X0313928Y0239024D01*
X0314596Y0239691D01*
X0314596Y0242360D01*
X0316531Y0241693D02*
X0317865Y0243027D01*
X0317865Y0239024D01*
X0316531Y0239024D02*
X0319200Y0239024D01*
X0321135Y0239024D02*
X0321135Y0243027D01*
X0322469Y0241693D01*
X0323804Y0243027D01*
X0323804Y0239024D01*
X0311927Y0239691D02*
X0311927Y0242360D01*
X0232024Y0239742D02*
X0228020Y0239742D01*
X0229355Y0238408D01*
X0228020Y0237073D01*
X0232024Y0237073D01*
X0232024Y0235138D02*
X0232024Y0232469D01*
X0229355Y0235138D01*
X0228687Y0235138D01*
X0228020Y0234471D01*
X0228020Y0233137D01*
X0228687Y0232469D01*
X0228687Y0230534D02*
X0231356Y0227865D01*
X0232024Y0228533D01*
X0232024Y0229867D01*
X0231356Y0230534D01*
X0228687Y0230534D01*
X0228020Y0229867D01*
X0228020Y0228533D01*
X0228687Y0227865D01*
X0231356Y0227865D01*
X0231356Y0225930D02*
X0228020Y0225930D01*
X0228020Y0223261D02*
X0231356Y0223261D01*
X0232024Y0223929D01*
X0232024Y0225263D01*
X0231356Y0225930D01*
X0119500Y0280667D02*
X0119500Y0282002D01*
X0118833Y0282669D01*
X0115497Y0282669D01*
X0116164Y0284604D02*
X0115497Y0285271D01*
X0115497Y0286606D01*
X0116164Y0287273D01*
X0118833Y0284604D01*
X0119500Y0285271D01*
X0119500Y0286606D01*
X0118833Y0287273D01*
X0116164Y0287273D01*
X0116164Y0289208D02*
X0115497Y0289875D01*
X0115497Y0291210D01*
X0116164Y0291877D01*
X0116831Y0291877D01*
X0117498Y0291210D01*
X0118166Y0291877D01*
X0118833Y0291877D01*
X0119500Y0291210D01*
X0119500Y0289875D01*
X0118833Y0289208D01*
X0117498Y0290542D02*
X0117498Y0291210D01*
X0115497Y0293812D02*
X0116831Y0295146D01*
X0115497Y0296481D01*
X0119500Y0296481D01*
X0119500Y0293812D02*
X0115497Y0293812D01*
X0116164Y0284604D02*
X0118833Y0284604D01*
X0119500Y0280667D02*
X0118833Y0280000D01*
X0115497Y0280000D01*
X0070333Y0219877D02*
X0069666Y0219877D01*
X0068998Y0219210D01*
X0068998Y0217208D01*
X0066997Y0217208D02*
X0066997Y0219210D01*
X0067664Y0219877D01*
X0068331Y0219877D01*
X0068998Y0219210D01*
X0070333Y0219877D02*
X0071000Y0219210D01*
X0071000Y0217208D01*
X0066997Y0217208D01*
X0067664Y0215273D02*
X0066997Y0214606D01*
X0066997Y0213271D01*
X0067664Y0212604D01*
X0066997Y0210669D02*
X0070333Y0210669D01*
X0071000Y0210002D01*
X0071000Y0208667D01*
X0070333Y0208000D01*
X0066997Y0208000D01*
X0071000Y0212604D02*
X0068331Y0215273D01*
X0067664Y0215273D01*
X0071000Y0215273D02*
X0071000Y0212604D01*
X0069901Y0352988D02*
X0070569Y0353655D01*
X0070569Y0356992D01*
X0071236Y0356992D02*
X0069901Y0356992D01*
X0073171Y0356324D02*
X0073171Y0353655D01*
X0075840Y0356324D01*
X0075840Y0353655D01*
X0075173Y0352988D01*
X0073838Y0352988D01*
X0073171Y0353655D01*
X0073171Y0356324D02*
X0073838Y0356992D01*
X0075173Y0356992D01*
X0075840Y0356324D01*
X0077775Y0355657D02*
X0079109Y0356992D01*
X0079109Y0352988D01*
X0077775Y0352988D02*
X0080444Y0352988D01*
X0082379Y0353655D02*
X0083046Y0352988D01*
X0084380Y0352988D01*
X0085048Y0353655D01*
X0085048Y0354323D01*
X0084380Y0354990D01*
X0083046Y0354990D01*
X0082379Y0355657D01*
X0082379Y0356324D01*
X0083046Y0356992D01*
X0084380Y0356992D01*
X0085048Y0356324D01*
X0069901Y0352988D02*
X0069234Y0352988D01*
X0068567Y0353655D01*
X0094552Y0395800D02*
X0095219Y0395800D01*
X0095886Y0396467D01*
X0095886Y0399803D01*
X0095219Y0399803D02*
X0096553Y0399803D01*
X0098488Y0399136D02*
X0099155Y0399803D01*
X0100490Y0399803D01*
X0101157Y0399136D01*
X0098488Y0396467D01*
X0099155Y0395800D01*
X0100490Y0395800D01*
X0101157Y0396467D01*
X0101157Y0399136D01*
X0103092Y0398469D02*
X0104427Y0399803D01*
X0104427Y0395800D01*
X0105761Y0395800D02*
X0103092Y0395800D01*
X0107696Y0395800D02*
X0107696Y0399803D01*
X0109031Y0398469D01*
X0110365Y0399803D01*
X0110365Y0395800D01*
X0098488Y0396467D02*
X0098488Y0399136D01*
X0094552Y0395800D02*
X0093884Y0396467D01*
X0243584Y0399667D02*
X0244252Y0399000D01*
X0244919Y0399000D01*
X0245586Y0399667D01*
X0245586Y0403003D01*
X0244919Y0403003D02*
X0246253Y0403003D01*
X0248188Y0402336D02*
X0248855Y0403003D01*
X0250190Y0403003D01*
X0250857Y0402336D01*
X0248188Y0399667D01*
X0248855Y0399000D01*
X0250190Y0399000D01*
X0250857Y0399667D01*
X0250857Y0402336D01*
X0252792Y0402336D02*
X0253459Y0403003D01*
X0254794Y0403003D01*
X0255461Y0402336D01*
X0255461Y0401669D01*
X0252792Y0399000D01*
X0255461Y0399000D01*
X0257396Y0399000D02*
X0257396Y0403003D01*
X0258731Y0401669D01*
X0260065Y0403003D01*
X0260065Y0399000D01*
X0248188Y0399667D02*
X0248188Y0402336D01*
X0172209Y0043390D02*
X0169846Y0043390D01*
X0172209Y0043390D02*
X0172209Y0034925D01*
X0163154Y0043390D02*
X0160791Y0043390D01*
X0160791Y0034925D01*
D20*
X0051764Y0138116D03*
X0253768Y0238915D03*
X0303768Y0238915D03*
D21*
X0047800Y0231500D03*
D22*
X0089268Y0268201D02*
X0090019Y0267450D01*
X0091520Y0267450D01*
X0092271Y0268201D01*
X0092271Y0268951D01*
X0091520Y0269702D01*
X0090019Y0269702D01*
X0089268Y0270453D01*
X0089268Y0271203D01*
X0090019Y0271954D01*
X0091520Y0271954D01*
X0092271Y0271203D01*
X0094424Y0271954D02*
X0094424Y0267450D01*
X0095926Y0268951D01*
X0097427Y0267450D01*
X0097427Y0271954D01*
X0099581Y0271203D02*
X0100331Y0271954D01*
X0101833Y0271954D01*
X0102583Y0271203D01*
X0099581Y0268201D01*
X0100331Y0267450D01*
X0101833Y0267450D01*
X0102583Y0268201D01*
X0102583Y0271203D01*
X0104737Y0270453D02*
X0106238Y0271954D01*
X0106238Y0267450D01*
X0104737Y0267450D02*
X0107740Y0267450D01*
X0109894Y0267450D02*
X0109894Y0271954D01*
X0111395Y0270453D01*
X0112896Y0271954D01*
X0112896Y0267450D01*
X0099581Y0268201D02*
X0099581Y0271203D01*
M02*
