G04 start of page 10 for group -3984 idx -3984 *
G04 Title: (unknown), fab *
G04 Creator: pcb 20140316 *
G04 CreationDate: Sun 15 Feb 2015 03:48:22 PM GMT UTC *
G04 For: jeroen *
G04 Format: Gerber/RS-274X *
G04 PCB-Dimensions (mil): 6000.00 5000.00 *
G04 PCB-Coordinate-Origin: lower left *
%MOIN*%
%FSLAX25Y25*%
%LNFAB*%
%ADD90C,0.0100*%
%ADD89C,0.0075*%
%ADD88C,0.0060*%
%ADD87C,0.0001*%
G54D87*G36*
X317934Y19876D02*X320900Y16910D01*
X320334Y16345D01*
X317368Y19310D01*
X317934Y19876D01*
G37*
G36*
X317368Y16910D02*X320334Y19876D01*
X320900Y19310D01*
X317934Y16345D01*
X317368Y16910D01*
G37*
G36*
X327934Y19876D02*X330900Y16910D01*
X330334Y16345D01*
X327368Y19310D01*
X327934Y19876D01*
G37*
G36*
X327368Y16910D02*X330334Y19876D01*
X330900Y19310D01*
X327934Y16345D01*
X327368Y16910D01*
G37*
G36*
X194076Y81451D02*X197041Y78485D01*
X196476Y77919D01*
X193510Y80885D01*
X194076Y81451D01*
G37*
G36*
X193510Y78485D02*X196476Y81451D01*
X197041Y80885D01*
X194076Y77919D01*
X193510Y78485D01*
G37*
G36*
X194076Y91451D02*X197041Y88485D01*
X196476Y87919D01*
X193510Y90885D01*
X194076Y91451D01*
G37*
G36*
X193510Y88485D02*X196476Y91451D01*
X197041Y90885D01*
X194076Y87919D01*
X193510Y88485D01*
G37*
G36*
X194076Y101451D02*X197041Y98485D01*
X196476Y97919D01*
X193510Y100885D01*
X194076Y101451D01*
G37*
G36*
X193510Y98485D02*X196476Y101451D01*
X197041Y100885D01*
X194076Y97919D01*
X193510Y98485D01*
G37*
G36*
X194076Y111451D02*X197041Y108485D01*
X196476Y107919D01*
X193510Y110885D01*
X194076Y111451D01*
G37*
G36*
X193510Y108485D02*X196476Y111451D01*
X197041Y110885D01*
X194076Y107919D01*
X193510Y108485D01*
G37*
G36*
X194076Y121451D02*X197041Y118485D01*
X196476Y117919D01*
X193510Y120885D01*
X194076Y121451D01*
G37*
G36*
X193510Y118485D02*X196476Y121451D01*
X197041Y120885D01*
X194076Y117919D01*
X193510Y118485D01*
G37*
G36*
X13800Y528016D02*X16766Y525050D01*
X16200Y524484D01*
X13234Y527450D01*
X13800Y528016D01*
G37*
G36*
X13234Y525050D02*X16200Y528016D01*
X16766Y527450D01*
X13800Y524484D01*
X13234Y525050D01*
G37*
G54D88*X135000Y528500D02*X136500Y525500D01*
X138000Y528500D01*
X136500Y525500D02*Y522500D01*
X139800Y525800D02*X142050D01*
X139800Y522500D02*X142800D01*
X139800Y528500D02*Y522500D01*
Y528500D02*X142800D01*
X147600D02*X148350Y527750D01*
X145350Y528500D02*X147600D01*
X144600Y527750D02*X145350Y528500D01*
X144600Y527750D02*Y526250D01*
X145350Y525500D01*
X147600D01*
X148350Y524750D01*
Y523250D01*
X147600Y522500D02*X148350Y523250D01*
X145350Y522500D02*X147600D01*
X144600Y523250D02*X145350Y522500D01*
X98750D02*X101750Y528500D01*
X98000D02*X101750D01*
X45000Y523250D02*X45750Y522500D01*
X45000Y527750D02*Y523250D01*
Y527750D02*X45750Y528500D01*
X47250D01*
X48000Y527750D01*
Y523250D01*
X47250Y522500D02*X48000Y523250D01*
X45750Y522500D02*X47250D01*
X45000Y524000D02*X48000Y527000D01*
X49800Y522500D02*X50550D01*
X52350Y523250D02*X53100Y522500D01*
X52350Y527750D02*Y523250D01*
Y527750D02*X53100Y528500D01*
X54600D01*
X55350Y527750D01*
Y523250D01*
X54600Y522500D02*X55350Y523250D01*
X53100Y522500D02*X54600D01*
X52350Y524000D02*X55350Y527000D01*
X57150Y527750D02*X57900Y528500D01*
X59400D01*
X60150Y527750D01*
X59400Y522500D02*X60150Y523250D01*
X57900Y522500D02*X59400D01*
X57150Y523250D02*X57900Y522500D01*
Y525800D02*X59400D01*
X60150Y527750D02*Y526550D01*
Y525050D02*Y523250D01*
Y525050D02*X59400Y525800D01*
X60150Y526550D02*X59400Y525800D01*
X61950Y523250D02*X62700Y522500D01*
X61950Y524450D02*Y523250D01*
Y524450D02*X63000Y525500D01*
X63900D01*
X64950Y524450D01*
Y523250D01*
X64200Y522500D02*X64950Y523250D01*
X62700Y522500D02*X64200D01*
X61950Y526550D02*X63000Y525500D01*
X61950Y527750D02*Y526550D01*
Y527750D02*X62700Y528500D01*
X64200D01*
X64950Y527750D01*
Y526550D01*
X63900Y525500D02*X64950Y526550D01*
X320276Y29553D02*Y26353D01*
X318676Y27953D02*X321876D01*
X253150Y56718D02*Y53518D01*
X251550Y55118D02*X254750D01*
X357087Y32702D02*Y29502D01*
X355487Y31102D02*X358687D01*
X370866Y115183D02*Y111983D01*
X369266Y113583D02*X372466D01*
X307480Y176009D02*Y172809D01*
X305880Y174409D02*X309080D01*
X246654Y124631D02*Y121431D01*
X245054Y123031D02*X248254D01*
X316535Y111049D02*Y107849D01*
X314935Y109449D02*X318135D01*
X332874Y111246D02*Y108046D01*
X331274Y109646D02*X334474D01*
X252165Y197663D02*Y194463D01*
X250565Y196063D02*X253765D01*
X204331Y27191D02*Y23991D01*
X202731Y25591D02*X205931D01*
X204331Y44513D02*Y41313D01*
X202731Y42913D02*X205931D01*
X15000Y542850D02*Y539650D01*
X13400Y541250D02*X16600D01*
X135000Y543500D02*X136500Y540500D01*
X138000Y543500D01*
X136500Y540500D02*Y537500D01*
X139800Y540800D02*X142050D01*
X139800Y537500D02*X142800D01*
X139800Y543500D02*Y537500D01*
Y543500D02*X142800D01*
X147600D02*X148350Y542750D01*
X145350Y543500D02*X147600D01*
X144600Y542750D02*X145350Y543500D01*
X144600Y542750D02*Y541250D01*
X145350Y540500D01*
X147600D01*
X148350Y539750D01*
Y538250D01*
X147600Y537500D02*X148350Y538250D01*
X145350Y537500D02*X147600D01*
X144600Y538250D02*X145350Y537500D01*
X98000Y542300D02*X99200Y543500D01*
Y537500D01*
X98000D02*X100250D01*
X102050Y542300D02*X103250Y543500D01*
Y537500D01*
X102050D02*X104300D01*
X45000Y538250D02*X45750Y537500D01*
X45000Y542750D02*Y538250D01*
Y542750D02*X45750Y543500D01*
X47250D01*
X48000Y542750D01*
Y538250D01*
X47250Y537500D02*X48000Y538250D01*
X45750Y537500D02*X47250D01*
X45000Y539000D02*X48000Y542000D01*
X49800Y537500D02*X50550D01*
X52350Y538250D02*X53100Y537500D01*
X52350Y542750D02*Y538250D01*
Y542750D02*X53100Y543500D01*
X54600D01*
X55350Y542750D01*
Y538250D01*
X54600Y537500D02*X55350Y538250D01*
X53100Y537500D02*X54600D01*
X52350Y539000D02*X55350Y542000D01*
X57150Y542750D02*X57900Y543500D01*
X59400D01*
X60150Y542750D01*
X59400Y537500D02*X60150Y538250D01*
X57900Y537500D02*X59400D01*
X57150Y538250D02*X57900Y537500D01*
Y540800D02*X59400D01*
X60150Y542750D02*Y541550D01*
Y540050D02*Y538250D01*
Y540050D02*X59400Y540800D01*
X60150Y541550D02*X59400Y540800D01*
X61950Y543500D02*X64950D01*
X61950D02*Y540500D01*
X62700Y541250D01*
X64200D01*
X64950Y540500D01*
Y538250D01*
X64200Y537500D02*X64950Y538250D01*
X62700Y537500D02*X64200D01*
X61950Y538250D02*X62700Y537500D01*
X322638Y34055D02*Y32455D01*
Y34055D02*X324024Y34855D01*
X322638Y34055D02*X321251Y34855D01*
X348819Y51181D02*Y49581D01*
Y51181D02*X350206Y51981D01*
X348819Y51181D02*X347432Y51981D01*
X236614Y71260D02*Y69660D01*
Y71260D02*X238001Y72060D01*
X236614Y71260D02*X235228Y72060D01*
X235433Y53150D02*Y51550D01*
Y53150D02*X236820Y53950D01*
X235433Y53150D02*X234046Y53950D01*
X371260Y59449D02*Y57849D01*
Y59449D02*X372647Y60249D01*
X371260Y59449D02*X369873Y60249D01*
X237402Y64173D02*Y62573D01*
Y64173D02*X238788Y64973D01*
X237402Y64173D02*X236015Y64973D01*
X312205Y73228D02*Y71628D01*
Y73228D02*X313591Y74028D01*
X312205Y73228D02*X310818Y74028D01*
X312205Y42520D02*Y40920D01*
Y42520D02*X313591Y43320D01*
X312205Y42520D02*X310818Y43320D01*
X379134Y203346D02*Y201746D01*
Y203346D02*X380521Y204146D01*
X379134Y203346D02*X377747Y204146D01*
X363583Y141732D02*Y140132D01*
Y141732D02*X364969Y142532D01*
X363583Y141732D02*X362196Y142532D01*
X363780Y185039D02*Y183439D01*
Y185039D02*X365166Y185839D01*
X363780Y185039D02*X362393Y185839D01*
X357283Y193307D02*Y191707D01*
Y193307D02*X358670Y194107D01*
X357283Y193307D02*X355897Y194107D01*
X281299Y141339D02*Y139739D01*
Y141339D02*X282686Y142139D01*
X281299Y141339D02*X279913Y142139D01*
X286417Y141339D02*Y139739D01*
Y141339D02*X287804Y142139D01*
X286417Y141339D02*X285031Y142139D01*
X291339Y141339D02*Y139739D01*
Y141339D02*X292725Y142139D01*
X291339Y141339D02*X289952Y142139D01*
X276378Y147441D02*Y145841D01*
Y147441D02*X277765Y148241D01*
X276378Y147441D02*X274991Y148241D01*
X271457Y147441D02*Y145841D01*
Y147441D02*X272843Y148241D01*
X271457Y147441D02*X270070Y148241D01*
X361417Y190354D02*Y188754D01*
Y190354D02*X362804Y191154D01*
X361417Y190354D02*X360031Y191154D01*
X276378Y141339D02*Y139739D01*
Y141339D02*X277765Y142139D01*
X276378Y141339D02*X274991Y142139D01*
X372244Y143898D02*Y142298D01*
Y143898D02*X373631Y144698D01*
X372244Y143898D02*X370857Y144698D01*
X363189Y135236D02*Y133636D01*
Y135236D02*X364576Y136036D01*
X363189Y135236D02*X361802Y136036D01*
X281496Y161220D02*Y159620D01*
Y161220D02*X282883Y162020D01*
X281496Y161220D02*X280109Y162020D01*
X286417Y161220D02*Y159620D01*
Y161220D02*X287804Y162020D01*
X286417Y161220D02*X285031Y162020D01*
X371654Y78937D02*Y77337D01*
Y78937D02*X373040Y79737D01*
X371654Y78937D02*X370267Y79737D01*
X376772Y79134D02*Y77534D01*
Y79134D02*X378158Y79934D01*
X376772Y79134D02*X375385Y79934D01*
X355906Y108661D02*Y107061D01*
Y108661D02*X357292Y109461D01*
X355906Y108661D02*X354519Y109461D01*
X366732Y151181D02*Y149581D01*
Y151181D02*X368119Y151981D01*
X366732Y151181D02*X365346Y151981D01*
X364567Y155315D02*Y153715D01*
Y155315D02*X365954Y156115D01*
X364567Y155315D02*X363180Y156115D01*
X353150Y181496D02*Y179896D01*
Y181496D02*X354536Y182296D01*
X353150Y181496D02*X351763Y182296D01*
X355906Y153346D02*Y151746D01*
Y153346D02*X357292Y154146D01*
X355906Y153346D02*X354519Y154146D01*
X346063Y182283D02*Y180683D01*
Y182283D02*X347450Y183083D01*
X346063Y182283D02*X344676Y183083D01*
X343504Y186417D02*Y184817D01*
Y186417D02*X344891Y187217D01*
X343504Y186417D02*X342117Y187217D01*
X341535Y156496D02*Y154896D01*
Y156496D02*X342922Y157296D01*
X341535Y156496D02*X340149Y157296D01*
X334252Y155709D02*Y154109D01*
Y155709D02*X335639Y156509D01*
X334252Y155709D02*X332865Y156509D01*
X336024Y182677D02*Y181077D01*
Y182677D02*X337410Y183477D01*
X336024Y182677D02*X334637Y183477D01*
X273819Y180315D02*Y178715D01*
Y180315D02*X275206Y181115D01*
X273819Y180315D02*X272432Y181115D01*
X268701Y180315D02*Y178715D01*
Y180315D02*X270087Y181115D01*
X268701Y180315D02*X267314Y181115D01*
X271457Y125591D02*Y123991D01*
Y125591D02*X272843Y126391D01*
X271457Y125591D02*X270070Y126391D01*
X266535Y125591D02*Y123991D01*
Y125591D02*X267922Y126391D01*
X266535Y125591D02*X265149Y126391D01*
X328150Y143898D02*Y142298D01*
Y143898D02*X329536Y144698D01*
X328150Y143898D02*X326763Y144698D01*
X255906Y171850D02*Y170250D01*
Y171850D02*X257292Y172650D01*
X255906Y171850D02*X254519Y172650D01*
X257283Y123031D02*Y121431D01*
Y123031D02*X258670Y123831D01*
X257283Y123031D02*X255897Y123831D01*
X295079Y125787D02*Y124187D01*
Y125787D02*X296465Y126587D01*
X295079Y125787D02*X293692Y126587D01*
X278543Y180512D02*Y178912D01*
Y180512D02*X279930Y181312D01*
X278543Y180512D02*X277157Y181312D01*
X283661Y180512D02*Y178912D01*
Y180512D02*X285048Y181312D01*
X283661Y180512D02*X282275Y181312D01*
X362795Y125984D02*Y124384D01*
Y125984D02*X364182Y126784D01*
X362795Y125984D02*X361409Y126784D01*
X284449Y116929D02*Y115329D01*
Y116929D02*X285835Y117729D01*
X284449Y116929D02*X283062Y117729D01*
X197638Y174409D02*Y172809D01*
Y174409D02*X199024Y175209D01*
X197638Y174409D02*X196251Y175209D01*
X198031Y184449D02*Y182849D01*
Y184449D02*X199418Y185249D01*
X198031Y184449D02*X196645Y185249D01*
X226181Y122835D02*Y121235D01*
Y122835D02*X227568Y123635D01*
X226181Y122835D02*X224794Y123635D01*
X216339Y99606D02*Y98006D01*
Y99606D02*X217725Y100406D01*
X216339Y99606D02*X214952Y100406D01*
X221654Y185039D02*Y183439D01*
Y185039D02*X223040Y185839D01*
X221654Y185039D02*X220267Y185839D01*
X229528Y185236D02*Y183636D01*
Y185236D02*X230914Y186036D01*
X229528Y185236D02*X228141Y186036D01*
X272047Y39370D02*Y37770D01*
Y39370D02*X273434Y40170D01*
X272047Y39370D02*X270661Y40170D01*
X244685Y144882D02*Y143282D01*
Y144882D02*X246072Y145682D01*
X244685Y144882D02*X243298Y145682D01*
X244685Y151772D02*Y150172D01*
Y151772D02*X246072Y152572D01*
X244685Y151772D02*X243298Y152572D01*
X225787Y146457D02*Y144857D01*
Y146457D02*X227174Y147257D01*
X225787Y146457D02*X224401Y147257D01*
X225787Y162795D02*Y161195D01*
Y162795D02*X227174Y163595D01*
X225787Y162795D02*X224401Y163595D01*
X253740Y157874D02*Y156274D01*
Y157874D02*X255127Y158674D01*
X253740Y157874D02*X252353Y158674D01*
X265748Y162795D02*Y161195D01*
Y162795D02*X267135Y163595D01*
X265748Y162795D02*X264361Y163595D01*
X211220Y147244D02*Y145644D01*
Y147244D02*X212607Y148044D01*
X211220Y147244D02*X209834Y148044D01*
X213189Y159449D02*Y157849D01*
Y159449D02*X214576Y160249D01*
X213189Y159449D02*X211802Y160249D01*
X216535Y124606D02*Y123006D01*
Y124606D02*X217922Y125406D01*
X216535Y124606D02*X215149Y125406D01*
X370866Y203543D02*Y201943D01*
Y203543D02*X372253Y204343D01*
X370866Y203543D02*X369479Y204343D01*
X378346Y151969D02*Y150369D01*
Y151969D02*X379733Y152769D01*
X378346Y151969D02*X376960Y152769D01*
X191339Y73622D02*Y72022D01*
Y73622D02*X192725Y74422D01*
X191339Y73622D02*X189952Y74422D01*
X225394Y31496D02*Y29896D01*
Y31496D02*X226780Y32296D01*
X225394Y31496D02*X224007Y32296D01*
X268504Y27559D02*Y25959D01*
Y27559D02*X269891Y28359D01*
X268504Y27559D02*X267117Y28359D01*
X253543Y46063D02*Y44463D01*
Y46063D02*X254930Y46863D01*
X253543Y46063D02*X252157Y46863D01*
X237795Y48819D02*Y47219D01*
Y48819D02*X239182Y49619D01*
X237795Y48819D02*X236409Y49619D01*
X353937Y196850D02*Y195250D01*
Y196850D02*X355324Y197650D01*
X353937Y196850D02*X352550Y197650D01*
X335433Y148622D02*Y147022D01*
Y148622D02*X336820Y149422D01*
X335433Y148622D02*X334046Y149422D01*
X366929Y193701D02*Y192101D01*
Y193701D02*X368316Y194501D01*
X366929Y193701D02*X365542Y194501D01*
X362795Y197441D02*Y195841D01*
Y197441D02*X364182Y198241D01*
X362795Y197441D02*X361409Y198241D01*
X272047Y62598D02*Y60998D01*
Y62598D02*X273434Y63398D01*
X272047Y62598D02*X270661Y63398D01*
X238976Y108071D02*Y106471D01*
Y108071D02*X240363Y108871D01*
X238976Y108071D02*X237590Y108871D01*
X225787Y82874D02*Y81274D01*
Y82874D02*X227174Y83674D01*
X225787Y82874D02*X224401Y83674D01*
X207087Y71260D02*Y69660D01*
Y71260D02*X208473Y72060D01*
X207087Y71260D02*X205700Y72060D01*
X207087Y61811D02*Y60211D01*
Y61811D02*X208473Y62611D01*
X207087Y61811D02*X205700Y62611D01*
X228346Y87205D02*Y85605D01*
Y87205D02*X229733Y88005D01*
X228346Y87205D02*X226960Y88005D01*
X226969Y104134D02*Y102534D01*
Y104134D02*X228355Y104934D01*
X226969Y104134D02*X225582Y104934D01*
X15000Y556250D02*Y554650D01*
Y556250D02*X16387Y557050D01*
X15000Y556250D02*X13613Y557050D01*
X135000Y558500D02*X136500Y555500D01*
X138000Y558500D01*
X136500Y555500D02*Y552500D01*
X139800Y555800D02*X142050D01*
X139800Y552500D02*X142800D01*
X139800Y558500D02*Y552500D01*
Y558500D02*X142800D01*
X147600D02*X148350Y557750D01*
X145350Y558500D02*X147600D01*
X144600Y557750D02*X145350Y558500D01*
X144600Y557750D02*Y556250D01*
X145350Y555500D01*
X147600D01*
X148350Y554750D01*
Y553250D01*
X147600Y552500D02*X148350Y553250D01*
X145350Y552500D02*X147600D01*
X144600Y553250D02*X145350Y552500D01*
X98000Y553250D02*X98750Y552500D01*
X98000Y554450D02*Y553250D01*
Y554450D02*X99050Y555500D01*
X99950D01*
X101000Y554450D01*
Y553250D01*
X100250Y552500D02*X101000Y553250D01*
X98750Y552500D02*X100250D01*
X98000Y556550D02*X99050Y555500D01*
X98000Y557750D02*Y556550D01*
Y557750D02*X98750Y558500D01*
X100250D01*
X101000Y557750D01*
Y556550D01*
X99950Y555500D02*X101000Y556550D01*
X102800Y557300D02*X104000Y558500D01*
Y552500D01*
X102800D02*X105050D01*
X45000Y553250D02*X45750Y552500D01*
X45000Y557750D02*Y553250D01*
Y557750D02*X45750Y558500D01*
X47250D01*
X48000Y557750D01*
Y553250D01*
X47250Y552500D02*X48000Y553250D01*
X45750Y552500D02*X47250D01*
X45000Y554000D02*X48000Y557000D01*
X49800Y552500D02*X50550D01*
X52350Y553250D02*X53100Y552500D01*
X52350Y557750D02*Y553250D01*
Y557750D02*X53100Y558500D01*
X54600D01*
X55350Y557750D01*
Y553250D01*
X54600Y552500D02*X55350Y553250D01*
X53100Y552500D02*X54600D01*
X52350Y554000D02*X55350Y557000D01*
X57150Y557750D02*X57900Y558500D01*
X60150D01*
X60900Y557750D01*
Y556250D01*
X57150Y552500D02*X60900Y556250D01*
X57150Y552500D02*X60900D01*
X62700Y553250D02*X63450Y552500D01*
X62700Y557750D02*Y553250D01*
Y557750D02*X63450Y558500D01*
X64950D01*
X65700Y557750D01*
Y553250D01*
X64950Y552500D02*X65700Y553250D01*
X63450Y552500D02*X64950D01*
X62700Y554000D02*X65700Y557000D01*
X3000Y573500D02*X3750Y572750D01*
X750Y573500D02*X3000D01*
X0Y572750D02*X750Y573500D01*
X0Y572750D02*Y571250D01*
X750Y570500D01*
X3000D01*
X3750Y569750D01*
Y568250D01*
X3000Y567500D02*X3750Y568250D01*
X750Y567500D02*X3000D01*
X0Y568250D02*X750Y567500D01*
X5550Y570500D02*Y568250D01*
X6300Y567500D01*
X8550Y570500D02*Y566000D01*
X7800Y565250D02*X8550Y566000D01*
X6300Y565250D02*X7800D01*
X5550Y566000D02*X6300Y565250D01*
Y567500D02*X7800D01*
X8550Y568250D01*
X11100Y569750D02*Y567500D01*
Y569750D02*X11850Y570500D01*
X12600D01*
X13350Y569750D01*
Y567500D01*
Y569750D02*X14100Y570500D01*
X14850D01*
X15600Y569750D01*
Y567500D01*
X10350Y570500D02*X11100Y569750D01*
X17400Y573500D02*Y567500D01*
Y568250D02*X18150Y567500D01*
X19650D01*
X20400Y568250D01*
Y569750D02*Y568250D01*
X19650Y570500D02*X20400Y569750D01*
X18150Y570500D02*X19650D01*
X17400Y569750D02*X18150Y570500D01*
X22200Y569750D02*Y568250D01*
Y569750D02*X22950Y570500D01*
X24450D01*
X25200Y569750D01*
Y568250D01*
X24450Y567500D02*X25200Y568250D01*
X22950Y567500D02*X24450D01*
X22200Y568250D02*X22950Y567500D01*
X27000Y573500D02*Y568250D01*
X27750Y567500D01*
X0Y564250D02*X29250D01*
X41750Y573500D02*Y567500D01*
X43700Y573500D02*X44750Y572450D01*
Y568550D01*
X43700Y567500D02*X44750Y568550D01*
X41000Y567500D02*X43700D01*
X41000Y573500D02*X43700D01*
G54D89*X46550Y572000D02*Y571850D01*
G54D88*Y569750D02*Y567500D01*
X50300Y570500D02*X51050Y569750D01*
X48800Y570500D02*X50300D01*
X48050Y569750D02*X48800Y570500D01*
X48050Y569750D02*Y568250D01*
X48800Y567500D01*
X51050Y570500D02*Y568250D01*
X51800Y567500D01*
X48800D02*X50300D01*
X51050Y568250D01*
X54350Y569750D02*Y567500D01*
Y569750D02*X55100Y570500D01*
X55850D01*
X56600Y569750D01*
Y567500D01*
Y569750D02*X57350Y570500D01*
X58100D01*
X58850Y569750D01*
Y567500D01*
X53600Y570500D02*X54350Y569750D01*
X60650Y567500D02*X61400D01*
X65900Y568250D02*X66650Y567500D01*
X65900Y572750D02*X66650Y573500D01*
X65900Y572750D02*Y568250D01*
X68450Y573500D02*X69950D01*
X69200D02*Y567500D01*
X68450D02*X69950D01*
X72500Y569750D02*Y567500D01*
Y569750D02*X73250Y570500D01*
X74000D01*
X74750Y569750D01*
Y567500D01*
X71750Y570500D02*X72500Y569750D01*
X77300Y570500D02*X79550D01*
X76550Y569750D02*X77300Y570500D01*
X76550Y569750D02*Y568250D01*
X77300Y567500D01*
X79550D01*
X81350Y573500D02*Y567500D01*
Y569750D02*X82100Y570500D01*
X83600D01*
X84350Y569750D01*
Y567500D01*
X86150Y573500D02*X86900Y572750D01*
Y568250D01*
X86150Y567500D02*X86900Y568250D01*
X41000Y564250D02*X88700D01*
X96050Y567500D02*X98000D01*
X95000Y568550D02*X96050Y567500D01*
X95000Y572450D02*Y568550D01*
Y572450D02*X96050Y573500D01*
X98000D01*
X99800Y569750D02*Y568250D01*
Y569750D02*X100550Y570500D01*
X102050D01*
X102800Y569750D01*
Y568250D01*
X102050Y567500D02*X102800Y568250D01*
X100550Y567500D02*X102050D01*
X99800Y568250D02*X100550Y567500D01*
X104600Y570500D02*Y568250D01*
X105350Y567500D01*
X106850D01*
X107600Y568250D01*
Y570500D02*Y568250D01*
X110150Y569750D02*Y567500D01*
Y569750D02*X110900Y570500D01*
X111650D01*
X112400Y569750D01*
Y567500D01*
X109400Y570500D02*X110150Y569750D01*
X114950Y573500D02*Y568250D01*
X115700Y567500D01*
X114200Y571250D02*X115700D01*
X95000Y564250D02*X117200D01*
X130750Y573500D02*Y567500D01*
X130000Y573500D02*X133000D01*
X133750Y572750D01*
Y571250D01*
X133000Y570500D02*X133750Y571250D01*
X130750Y570500D02*X133000D01*
X135550Y573500D02*Y568250D01*
X136300Y567500D01*
X140050Y570500D02*X140800Y569750D01*
X138550Y570500D02*X140050D01*
X137800Y569750D02*X138550Y570500D01*
X137800Y569750D02*Y568250D01*
X138550Y567500D01*
X140800Y570500D02*Y568250D01*
X141550Y567500D01*
X138550D02*X140050D01*
X140800Y568250D01*
X144100Y573500D02*Y568250D01*
X144850Y567500D01*
X143350Y571250D02*X144850D01*
X147100Y567500D02*X149350D01*
X146350Y568250D02*X147100Y567500D01*
X146350Y569750D02*Y568250D01*
Y569750D02*X147100Y570500D01*
X148600D01*
X149350Y569750D01*
X146350Y569000D02*X149350D01*
Y569750D02*Y569000D01*
X154150Y573500D02*Y567500D01*
X153400D02*X154150Y568250D01*
X151900Y567500D02*X153400D01*
X151150Y568250D02*X151900Y567500D01*
X151150Y569750D02*Y568250D01*
Y569750D02*X151900Y570500D01*
X153400D01*
X154150Y569750D01*
X157450Y570500D02*Y569750D01*
Y568250D02*Y567500D01*
X155950Y572750D02*Y572000D01*
Y572750D02*X156700Y573500D01*
X158200D01*
X158950Y572750D01*
Y572000D01*
X157450Y570500D02*X158950Y572000D01*
X130000Y564250D02*X160750D01*
X0Y588500D02*X3000D01*
X1500D02*Y582500D01*
X4800Y588500D02*Y582500D01*
Y584750D02*X5550Y585500D01*
X7050D01*
X7800Y584750D01*
Y582500D01*
X10350D02*X12600D01*
X9600Y583250D02*X10350Y582500D01*
X9600Y584750D02*Y583250D01*
Y584750D02*X10350Y585500D01*
X11850D01*
X12600Y584750D01*
X9600Y584000D02*X12600D01*
Y584750D02*Y584000D01*
X15150Y584750D02*Y582500D01*
Y584750D02*X15900Y585500D01*
X17400D01*
X14400D02*X15150Y584750D01*
X19950Y582500D02*X22200D01*
X19200Y583250D02*X19950Y582500D01*
X19200Y584750D02*Y583250D01*
Y584750D02*X19950Y585500D01*
X21450D01*
X22200Y584750D01*
X19200Y584000D02*X22200D01*
Y584750D02*Y584000D01*
X28950Y585500D02*X29700Y584750D01*
X27450Y585500D02*X28950D01*
X26700Y584750D02*X27450Y585500D01*
X26700Y584750D02*Y583250D01*
X27450Y582500D01*
X29700Y585500D02*Y583250D01*
X30450Y582500D01*
X27450D02*X28950D01*
X29700Y583250D01*
X33000Y584750D02*Y582500D01*
Y584750D02*X33750Y585500D01*
X35250D01*
X32250D02*X33000Y584750D01*
X37800Y582500D02*X40050D01*
X37050Y583250D02*X37800Y582500D01*
X37050Y584750D02*Y583250D01*
Y584750D02*X37800Y585500D01*
X39300D01*
X40050Y584750D01*
X37050Y584000D02*X40050D01*
Y584750D02*Y584000D01*
X44550Y587750D02*X45300Y588500D01*
X46800D01*
X47550Y587750D01*
X46800Y582500D02*X47550Y583250D01*
X45300Y582500D02*X46800D01*
X44550Y583250D02*X45300Y582500D01*
Y585800D02*X46800D01*
X47550Y587750D02*Y586550D01*
Y585050D02*Y583250D01*
Y585050D02*X46800Y585800D01*
X47550Y586550D02*X46800Y585800D01*
X55050Y588500D02*Y582500D01*
X54300D02*X55050Y583250D01*
X52800Y582500D02*X54300D01*
X52050Y583250D02*X52800Y582500D01*
X52050Y584750D02*Y583250D01*
Y584750D02*X52800Y585500D01*
X54300D01*
X55050Y584750D01*
G54D89*X56850Y587000D02*Y586850D01*
G54D88*Y584750D02*Y582500D01*
X59100Y587750D02*Y582500D01*
Y587750D02*X59850Y588500D01*
X60600D01*
X58350Y585500D02*X59850D01*
X62850Y587750D02*Y582500D01*
Y587750D02*X63600Y588500D01*
X64350D01*
X62100Y585500D02*X63600D01*
X66600Y582500D02*X68850D01*
X65850Y583250D02*X66600Y582500D01*
X65850Y584750D02*Y583250D01*
Y584750D02*X66600Y585500D01*
X68100D01*
X68850Y584750D01*
X65850Y584000D02*X68850D01*
Y584750D02*Y584000D01*
X71400Y584750D02*Y582500D01*
Y584750D02*X72150Y585500D01*
X73650D01*
X70650D02*X71400Y584750D01*
X76200Y582500D02*X78450D01*
X75450Y583250D02*X76200Y582500D01*
X75450Y584750D02*Y583250D01*
Y584750D02*X76200Y585500D01*
X77700D01*
X78450Y584750D01*
X75450Y584000D02*X78450D01*
Y584750D02*Y584000D01*
X81000Y584750D02*Y582500D01*
Y584750D02*X81750Y585500D01*
X82500D01*
X83250Y584750D01*
Y582500D01*
X80250Y585500D02*X81000Y584750D01*
X85800Y588500D02*Y583250D01*
X86550Y582500D01*
X85050Y586250D02*X86550D01*
X93750Y588500D02*Y582500D01*
X93000D02*X93750Y583250D01*
X91500Y582500D02*X93000D01*
X90750Y583250D02*X91500Y582500D01*
X90750Y584750D02*Y583250D01*
Y584750D02*X91500Y585500D01*
X93000D01*
X93750Y584750D01*
X96300D02*Y582500D01*
Y584750D02*X97050Y585500D01*
X98550D01*
X95550D02*X96300Y584750D01*
G54D89*X100350Y587000D02*Y586850D01*
G54D88*Y584750D02*Y582500D01*
X101850Y588500D02*Y583250D01*
X102600Y582500D01*
X104100Y588500D02*Y583250D01*
X104850Y582500D01*
X109800D02*X112050D01*
X112800Y583250D01*
X112050Y584000D02*X112800Y583250D01*
X109800Y584000D02*X112050D01*
X109050Y584750D02*X109800Y584000D01*
X109050Y584750D02*X109800Y585500D01*
X112050D01*
X112800Y584750D01*
X109050Y583250D02*X109800Y582500D01*
G54D89*X114600Y587000D02*Y586850D01*
G54D88*Y584750D02*Y582500D01*
X116100Y585500D02*X119100D01*
X116100Y582500D02*X119100Y585500D01*
X116100Y582500D02*X119100D01*
X121650D02*X123900D01*
X120900Y583250D02*X121650Y582500D01*
X120900Y584750D02*Y583250D01*
Y584750D02*X121650Y585500D01*
X123150D01*
X123900Y584750D01*
X120900Y584000D02*X123900D01*
Y584750D02*Y584000D01*
X126450Y582500D02*X128700D01*
X129450Y583250D01*
X128700Y584000D02*X129450Y583250D01*
X126450Y584000D02*X128700D01*
X125700Y584750D02*X126450Y584000D01*
X125700Y584750D02*X126450Y585500D01*
X128700D01*
X129450Y584750D01*
X125700Y583250D02*X126450Y582500D01*
X133950Y585500D02*Y583250D01*
X134700Y582500D01*
X136200D01*
X136950Y583250D01*
Y585500D02*Y583250D01*
X139500Y582500D02*X141750D01*
X142500Y583250D01*
X141750Y584000D02*X142500Y583250D01*
X139500Y584000D02*X141750D01*
X138750Y584750D02*X139500Y584000D01*
X138750Y584750D02*X139500Y585500D01*
X141750D01*
X142500Y584750D01*
X138750Y583250D02*X139500Y582500D01*
X145050D02*X147300D01*
X144300Y583250D02*X145050Y582500D01*
X144300Y584750D02*Y583250D01*
Y584750D02*X145050Y585500D01*
X146550D01*
X147300Y584750D01*
X144300Y584000D02*X147300D01*
Y584750D02*Y584000D01*
X152100Y588500D02*Y582500D01*
X151350D02*X152100Y583250D01*
X149850Y582500D02*X151350D01*
X149100Y583250D02*X149850Y582500D01*
X149100Y584750D02*Y583250D01*
Y584750D02*X149850Y585500D01*
X151350D01*
X152100Y584750D01*
G54D89*X156600Y587000D02*Y586850D01*
G54D88*Y584750D02*Y582500D01*
X158850Y584750D02*Y582500D01*
Y584750D02*X159600Y585500D01*
X160350D01*
X161100Y584750D01*
Y582500D01*
X158100Y585500D02*X158850Y584750D01*
X166350Y588500D02*Y583250D01*
X167100Y582500D01*
X165600Y586250D02*X167100D01*
X168600Y588500D02*Y582500D01*
Y584750D02*X169350Y585500D01*
X170850D01*
X171600Y584750D01*
Y582500D01*
G54D89*X173400Y587000D02*Y586850D01*
G54D88*Y584750D02*Y582500D01*
X175650D02*X177900D01*
X178650Y583250D01*
X177900Y584000D02*X178650Y583250D01*
X175650Y584000D02*X177900D01*
X174900Y584750D02*X175650Y584000D01*
X174900Y584750D02*X175650Y585500D01*
X177900D01*
X178650Y584750D01*
X174900Y583250D02*X175650Y582500D01*
X183150Y588500D02*Y583250D01*
X183900Y582500D01*
X187650Y585500D02*X188400Y584750D01*
X186150Y585500D02*X187650D01*
X185400Y584750D02*X186150Y585500D01*
X185400Y584750D02*Y583250D01*
X186150Y582500D01*
X188400Y585500D02*Y583250D01*
X189150Y582500D01*
X186150D02*X187650D01*
X188400Y583250D01*
X190950Y585500D02*Y583250D01*
X191700Y582500D01*
X193950Y585500D02*Y581000D01*
X193200Y580250D02*X193950Y581000D01*
X191700Y580250D02*X193200D01*
X190950Y581000D02*X191700Y580250D01*
Y582500D02*X193200D01*
X193950Y583250D01*
X195750Y584750D02*Y583250D01*
Y584750D02*X196500Y585500D01*
X198000D01*
X198750Y584750D01*
Y583250D01*
X198000Y582500D02*X198750Y583250D01*
X196500Y582500D02*X198000D01*
X195750Y583250D02*X196500Y582500D01*
X200550Y585500D02*Y583250D01*
X201300Y582500D01*
X202800D01*
X203550Y583250D01*
Y585500D02*Y583250D01*
X206100Y588500D02*Y583250D01*
X206850Y582500D01*
X205350Y586250D02*X206850D01*
X208350Y581000D02*X209850Y582500D01*
X215100D02*X217350Y585500D01*
Y587750D02*Y585500D01*
X216600Y588500D02*X217350Y587750D01*
X215100Y588500D02*X216600D01*
X214350Y587750D02*X215100Y588500D01*
X214350Y587750D02*Y586250D01*
X215100Y585500D01*
X217350D01*
X219900Y582500D02*X222150Y585500D01*
Y587750D02*Y585500D01*
X221400Y588500D02*X222150Y587750D01*
X219900Y588500D02*X221400D01*
X219150Y587750D02*X219900Y588500D01*
X219150Y587750D02*Y586250D01*
X219900Y585500D01*
X222150D01*
X226650Y588500D02*Y582500D01*
Y584750D02*X227400Y585500D01*
X228900D01*
X229650Y584750D01*
Y582500D01*
X231450Y584750D02*Y583250D01*
Y584750D02*X232200Y585500D01*
X233700D01*
X234450Y584750D01*
Y583250D01*
X233700Y582500D02*X234450Y583250D01*
X232200Y582500D02*X233700D01*
X231450Y583250D02*X232200Y582500D01*
X236250Y588500D02*Y583250D01*
X237000Y582500D01*
X239250D02*X241500D01*
X238500Y583250D02*X239250Y582500D01*
X238500Y584750D02*Y583250D01*
Y584750D02*X239250Y585500D01*
X240750D01*
X241500Y584750D01*
X238500Y584000D02*X241500D01*
Y584750D02*Y584000D01*
X244050Y582500D02*X246300D01*
X247050Y583250D01*
X246300Y584000D02*X247050Y583250D01*
X244050Y584000D02*X246300D01*
X243300Y584750D02*X244050Y584000D01*
X243300Y584750D02*X244050Y585500D01*
X246300D01*
X247050Y584750D01*
X243300Y583250D02*X244050Y582500D01*
X252300Y588500D02*Y583250D01*
X253050Y582500D01*
X251550Y586250D02*X253050D01*
X254550Y584750D02*Y583250D01*
Y584750D02*X255300Y585500D01*
X256800D01*
X257550Y584750D01*
Y583250D01*
X256800Y582500D02*X257550Y583250D01*
X255300Y582500D02*X256800D01*
X254550Y583250D02*X255300Y582500D01*
X260100Y588500D02*Y583250D01*
X260850Y582500D01*
X259350Y586250D02*X260850D01*
X264600Y585500D02*X265350Y584750D01*
X263100Y585500D02*X264600D01*
X262350Y584750D02*X263100Y585500D01*
X262350Y584750D02*Y583250D01*
X263100Y582500D01*
X265350Y585500D02*Y583250D01*
X266100Y582500D01*
X263100D02*X264600D01*
X265350Y583250D01*
X267900Y588500D02*Y583250D01*
X268650Y582500D01*
G54D90*X383465Y207874D02*X186614D01*
X383465Y11024D02*Y207874D01*
X186614D02*Y11024D01*
X383465D01*
G54D88*X213675Y-9500D02*X216675D01*
X217425Y-8750D01*
Y-6950D02*Y-8750D01*
X216675Y-6200D02*X217425Y-6950D01*
X214425Y-6200D02*X216675D01*
X214425Y-3500D02*Y-9500D01*
X213675Y-3500D02*X216675D01*
X217425Y-4250D01*
Y-5450D01*
X216675Y-6200D02*X217425Y-5450D01*
X219225Y-7250D02*Y-8750D01*
Y-7250D02*X219975Y-6500D01*
X221475D01*
X222225Y-7250D01*
Y-8750D01*
X221475Y-9500D02*X222225Y-8750D01*
X219975Y-9500D02*X221475D01*
X219225Y-8750D02*X219975Y-9500D01*
X226275Y-6500D02*X227025Y-7250D01*
X224775Y-6500D02*X226275D01*
X224025Y-7250D02*X224775Y-6500D01*
X224025Y-7250D02*Y-8750D01*
X224775Y-9500D01*
X227025Y-6500D02*Y-8750D01*
X227775Y-9500D01*
X224775D02*X226275D01*
X227025Y-8750D01*
X230325Y-7250D02*Y-9500D01*
Y-7250D02*X231075Y-6500D01*
X232575D01*
X229575D02*X230325Y-7250D01*
X237375Y-3500D02*Y-9500D01*
X236625D02*X237375Y-8750D01*
X235125Y-9500D02*X236625D01*
X234375Y-8750D02*X235125Y-9500D01*
X234375Y-7250D02*Y-8750D01*
Y-7250D02*X235125Y-6500D01*
X236625D01*
X237375Y-7250D01*
X241875D02*Y-8750D01*
Y-7250D02*X242625Y-6500D01*
X244125D01*
X244875Y-7250D01*
Y-8750D01*
X244125Y-9500D02*X244875Y-8750D01*
X242625Y-9500D02*X244125D01*
X241875Y-8750D02*X242625Y-9500D01*
X246675Y-6500D02*Y-8750D01*
X247425Y-9500D01*
X248925D01*
X249675Y-8750D01*
Y-6500D02*Y-8750D01*
X252225Y-3500D02*Y-8750D01*
X252975Y-9500D01*
X251475Y-5750D02*X252975D01*
X254475Y-3500D02*Y-8750D01*
X255225Y-9500D01*
G54D89*X256725Y-5000D02*Y-5150D01*
G54D88*Y-7250D02*Y-9500D01*
X258975Y-7250D02*Y-9500D01*
Y-7250D02*X259725Y-6500D01*
X260475D01*
X261225Y-7250D01*
Y-9500D01*
X258225Y-6500D02*X258975Y-7250D01*
X263775Y-9500D02*X266025D01*
X263025Y-8750D02*X263775Y-9500D01*
X263025Y-7250D02*Y-8750D01*
Y-7250D02*X263775Y-6500D01*
X265275D01*
X266025Y-7250D01*
X263025Y-8000D02*X266025D01*
Y-7250D02*Y-8000D01*
G54D89*X270525Y-5000D02*Y-5150D01*
G54D88*Y-7250D02*Y-9500D01*
X272775D02*X275025D01*
X275775Y-8750D01*
X275025Y-8000D02*X275775Y-8750D01*
X272775Y-8000D02*X275025D01*
X272025Y-7250D02*X272775Y-8000D01*
X272025Y-7250D02*X272775Y-6500D01*
X275025D01*
X275775Y-7250D01*
X272025Y-8750D02*X272775Y-9500D01*
X281025Y-3500D02*Y-8750D01*
X281775Y-9500D01*
X280275Y-5750D02*X281775D01*
X283275Y-3500D02*Y-9500D01*
Y-7250D02*X284025Y-6500D01*
X285525D01*
X286275Y-7250D01*
Y-9500D01*
X288825D02*X291075D01*
X288075Y-8750D02*X288825Y-9500D01*
X288075Y-7250D02*Y-8750D01*
Y-7250D02*X288825Y-6500D01*
X290325D01*
X291075Y-7250D01*
X288075Y-8000D02*X291075D01*
Y-7250D02*Y-8000D01*
X296325Y-6500D02*X298575D01*
X295575Y-7250D02*X296325Y-6500D01*
X295575Y-7250D02*Y-8750D01*
X296325Y-9500D01*
X298575D01*
X301125D02*X303375D01*
X300375Y-8750D02*X301125Y-9500D01*
X300375Y-7250D02*Y-8750D01*
Y-7250D02*X301125Y-6500D01*
X302625D01*
X303375Y-7250D01*
X300375Y-8000D02*X303375D01*
Y-7250D02*Y-8000D01*
X305925Y-7250D02*Y-9500D01*
Y-7250D02*X306675Y-6500D01*
X307425D01*
X308175Y-7250D01*
Y-9500D01*
X305175Y-6500D02*X305925Y-7250D01*
X310725Y-3500D02*Y-8750D01*
X311475Y-9500D01*
X309975Y-5750D02*X311475D01*
X313725Y-9500D02*X315975D01*
X312975Y-8750D02*X313725Y-9500D01*
X312975Y-7250D02*Y-8750D01*
Y-7250D02*X313725Y-6500D01*
X315225D01*
X315975Y-7250D01*
X312975Y-8000D02*X315975D01*
Y-7250D02*Y-8000D01*
X318525Y-7250D02*Y-9500D01*
Y-7250D02*X319275Y-6500D01*
X320775D01*
X317775D02*X318525Y-7250D01*
X322575Y-3500D02*Y-8750D01*
X323325Y-9500D01*
G54D89*X324825Y-5000D02*Y-5150D01*
G54D88*Y-7250D02*Y-9500D01*
X327075Y-7250D02*Y-9500D01*
Y-7250D02*X327825Y-6500D01*
X328575D01*
X329325Y-7250D01*
Y-9500D01*
X326325Y-6500D02*X327075Y-7250D01*
X331875Y-9500D02*X334125D01*
X331125Y-8750D02*X331875Y-9500D01*
X331125Y-7250D02*Y-8750D01*
Y-7250D02*X331875Y-6500D01*
X333375D01*
X334125Y-7250D01*
X331125Y-8000D02*X334125D01*
Y-7250D02*Y-8000D01*
X338625Y-7250D02*Y-8750D01*
Y-7250D02*X339375Y-6500D01*
X340875D01*
X341625Y-7250D01*
Y-8750D01*
X340875Y-9500D02*X341625Y-8750D01*
X339375Y-9500D02*X340875D01*
X338625Y-8750D02*X339375Y-9500D01*
X344175Y-4250D02*Y-9500D01*
Y-4250D02*X344925Y-3500D01*
X345675D01*
X343425Y-6500D02*X344925D01*
X350625Y-3500D02*Y-8750D01*
X351375Y-9500D01*
X349875Y-5750D02*X351375D01*
X352875Y-3500D02*Y-9500D01*
Y-7250D02*X353625Y-6500D01*
X355125D01*
X355875Y-7250D01*
Y-9500D01*
G54D89*X357675Y-5000D02*Y-5150D01*
G54D88*Y-7250D02*Y-9500D01*
X359925D02*X362175D01*
X362925Y-8750D01*
X362175Y-8000D02*X362925Y-8750D01*
X359925Y-8000D02*X362175D01*
X359175Y-7250D02*X359925Y-8000D01*
X359175Y-7250D02*X359925Y-6500D01*
X362175D01*
X362925Y-7250D01*
X359175Y-8750D02*X359925Y-9500D01*
X368175Y-7250D02*Y-11750D01*
X367425Y-6500D02*X368175Y-7250D01*
X368925Y-6500D01*
X370425D01*
X371175Y-7250D01*
Y-8750D01*
X370425Y-9500D02*X371175Y-8750D01*
X368925Y-9500D02*X370425D01*
X368175Y-8750D02*X368925Y-9500D01*
X375225Y-6500D02*X375975Y-7250D01*
X373725Y-6500D02*X375225D01*
X372975Y-7250D02*X373725Y-6500D01*
X372975Y-7250D02*Y-8750D01*
X373725Y-9500D01*
X375975Y-6500D02*Y-8750D01*
X376725Y-9500D01*
X373725D02*X375225D01*
X375975Y-8750D01*
X379275Y-3500D02*Y-8750D01*
X380025Y-9500D01*
X378525Y-5750D02*X380025D01*
X381525Y-3500D02*Y-9500D01*
Y-7250D02*X382275Y-6500D01*
X383775D01*
X384525Y-7250D01*
Y-9500D01*
X200750Y528500D02*Y522500D01*
X202700Y528500D02*X203750Y527450D01*
Y523550D01*
X202700Y522500D02*X203750Y523550D01*
X200000Y522500D02*X202700D01*
X200000Y528500D02*X202700D01*
X207800Y525500D02*X208550Y524750D01*
X206300Y525500D02*X207800D01*
X205550Y524750D02*X206300Y525500D01*
X205550Y524750D02*Y523250D01*
X206300Y522500D01*
X208550Y525500D02*Y523250D01*
X209300Y522500D01*
X206300D02*X207800D01*
X208550Y523250D01*
X211850Y528500D02*Y523250D01*
X212600Y522500D01*
X211100Y526250D02*X212600D01*
X214850Y522500D02*X217100D01*
X214100Y523250D02*X214850Y522500D01*
X214100Y524750D02*Y523250D01*
Y524750D02*X214850Y525500D01*
X216350D01*
X217100Y524750D01*
X214100Y524000D02*X217100D01*
Y524750D02*Y524000D01*
X218900Y526250D02*X219650D01*
X218900Y524750D02*X219650D01*
X227150Y528500D02*X227900Y527750D01*
X224900Y528500D02*X227150D01*
X224150Y527750D02*X224900Y528500D01*
X224150Y527750D02*Y526250D01*
X224900Y525500D01*
X227150D01*
X227900Y524750D01*
Y523250D01*
X227150Y522500D02*X227900Y523250D01*
X224900Y522500D02*X227150D01*
X224150Y523250D02*X224900Y522500D01*
X229700Y525500D02*Y523250D01*
X230450Y522500D01*
X231950D01*
X232700Y523250D01*
Y525500D02*Y523250D01*
X235250Y524750D02*Y522500D01*
Y524750D02*X236000Y525500D01*
X236750D01*
X237500Y524750D01*
Y522500D01*
X234500Y525500D02*X235250Y524750D01*
X242000Y527300D02*X243200Y528500D01*
Y522500D01*
X242000D02*X244250D01*
X246050Y528500D02*X249050D01*
X246050D02*Y525500D01*
X246800Y526250D01*
X248300D01*
X249050Y525500D01*
Y523250D01*
X248300Y522500D02*X249050Y523250D01*
X246800Y522500D02*X248300D01*
X246050Y523250D02*X246800Y522500D01*
X253550Y528500D02*Y522500D01*
Y528500D02*X256550D01*
X253550Y525800D02*X255800D01*
X259100Y522500D02*X261350D01*
X258350Y523250D02*X259100Y522500D01*
X258350Y524750D02*Y523250D01*
Y524750D02*X259100Y525500D01*
X260600D01*
X261350Y524750D01*
X258350Y524000D02*X261350D01*
Y524750D02*Y524000D01*
X263150Y528500D02*Y522500D01*
Y523250D02*X263900Y522500D01*
X265400D01*
X266150Y523250D01*
Y524750D02*Y523250D01*
X265400Y525500D02*X266150Y524750D01*
X263900Y525500D02*X265400D01*
X263150Y524750D02*X263900Y525500D01*
X270650Y527750D02*X271400Y528500D01*
X273650D01*
X274400Y527750D01*
Y526250D01*
X270650Y522500D02*X274400Y526250D01*
X270650Y522500D02*X274400D01*
X276200Y523250D02*X276950Y522500D01*
X276200Y527750D02*Y523250D01*
Y527750D02*X276950Y528500D01*
X278450D01*
X279200Y527750D01*
Y523250D01*
X278450Y522500D02*X279200Y523250D01*
X276950Y522500D02*X278450D01*
X276200Y524000D02*X279200Y527000D01*
X281000Y527300D02*X282200Y528500D01*
Y522500D01*
X281000D02*X283250D01*
X285050Y528500D02*X288050D01*
X285050D02*Y525500D01*
X285800Y526250D01*
X287300D01*
X288050Y525500D01*
Y523250D01*
X287300Y522500D02*X288050Y523250D01*
X285800Y522500D02*X287300D01*
X285050Y523250D02*X285800Y522500D01*
X292550Y523250D02*X293300Y522500D01*
X292550Y527750D02*Y523250D01*
Y527750D02*X293300Y528500D01*
X294800D01*
X295550Y527750D01*
Y523250D01*
X294800Y522500D02*X295550Y523250D01*
X293300Y522500D02*X294800D01*
X292550Y524000D02*X295550Y527000D01*
X297350Y527750D02*X298100Y528500D01*
X299600D01*
X300350Y527750D01*
X299600Y522500D02*X300350Y523250D01*
X298100Y522500D02*X299600D01*
X297350Y523250D02*X298100Y522500D01*
Y525800D02*X299600D01*
X300350Y527750D02*Y526550D01*
Y525050D02*Y523250D01*
Y525050D02*X299600Y525800D01*
X300350Y526550D02*X299600Y525800D01*
X302150Y526250D02*X302900D01*
X302150Y524750D02*X302900D01*
X304700D02*X307700Y528500D01*
X304700Y524750D02*X308450D01*
X307700Y528500D02*Y522500D01*
X310250Y523250D02*X311000Y522500D01*
X310250Y524450D02*Y523250D01*
Y524450D02*X311300Y525500D01*
X312200D01*
X313250Y524450D01*
Y523250D01*
X312500Y522500D02*X313250Y523250D01*
X311000Y522500D02*X312500D01*
X310250Y526550D02*X311300Y525500D01*
X310250Y527750D02*Y526550D01*
Y527750D02*X311000Y528500D01*
X312500D01*
X313250Y527750D01*
Y526550D01*
X312200Y525500D02*X313250Y526550D01*
X315050Y526250D02*X315800D01*
X315050Y524750D02*X315800D01*
X317600Y527750D02*X318350Y528500D01*
X320600D01*
X321350Y527750D01*
Y526250D01*
X317600Y522500D02*X321350Y526250D01*
X317600Y522500D02*X321350D01*
X323150Y527750D02*X323900Y528500D01*
X326150D01*
X326900Y527750D01*
Y526250D01*
X323150Y522500D02*X326900Y526250D01*
X323150Y522500D02*X326900D01*
X332150Y528500D02*Y522500D01*
X331400Y528500D02*X334400D01*
X335150Y527750D01*
Y526250D01*
X334400Y525500D02*X335150Y526250D01*
X332150Y525500D02*X334400D01*
X336950Y528500D02*Y522500D01*
Y528500D02*X339200Y525500D01*
X341450Y528500D01*
Y522500D01*
X348950Y528500D02*X349700Y527750D01*
X346700Y528500D02*X348950D01*
X345950Y527750D02*X346700Y528500D01*
X345950Y527750D02*Y523250D01*
X346700Y522500D01*
X348950D01*
X349700Y523250D01*
Y524750D02*Y523250D01*
X348950Y525500D02*X349700Y524750D01*
X347450Y525500D02*X348950D01*
X351500Y528500D02*Y522500D01*
Y528500D02*X353750Y525500D01*
X356000Y528500D01*
Y522500D01*
X357800Y528500D02*X360800D01*
X359300D02*Y522500D01*
X365300Y528500D02*Y523250D01*
X366050Y522500D01*
X367550D01*
X368300Y523250D01*
Y528500D02*Y523250D01*
X370100Y528500D02*X373100D01*
X371600D02*Y522500D01*
X375950D02*X377900D01*
X374900Y523550D02*X375950Y522500D01*
X374900Y527450D02*Y523550D01*
Y527450D02*X375950Y528500D01*
X377900D01*
X200000Y542000D02*Y537500D01*
Y542000D02*X201050Y543500D01*
X202700D01*
X203750Y542000D01*
Y537500D01*
X200000Y540500D02*X203750D01*
X205550D02*Y538250D01*
X206300Y537500D01*
X207800D01*
X208550Y538250D01*
Y540500D02*Y538250D01*
X211100Y543500D02*Y538250D01*
X211850Y537500D01*
X210350Y541250D02*X211850D01*
X213350Y543500D02*Y537500D01*
Y539750D02*X214100Y540500D01*
X215600D01*
X216350Y539750D01*
Y537500D01*
X218150Y539750D02*Y538250D01*
Y539750D02*X218900Y540500D01*
X220400D01*
X221150Y539750D01*
Y538250D01*
X220400Y537500D02*X221150Y538250D01*
X218900Y537500D02*X220400D01*
X218150Y538250D02*X218900Y537500D01*
X223700Y539750D02*Y537500D01*
Y539750D02*X224450Y540500D01*
X225950D01*
X222950D02*X223700Y539750D01*
X227750Y541250D02*X228500D01*
X227750Y539750D02*X228500D01*
X234050Y543500D02*X235250D01*
Y538250D01*
X234500Y537500D02*X235250Y538250D01*
X233750Y537500D02*X234500D01*
X233000Y538250D02*X233750Y537500D01*
X233000Y539000D02*Y538250D01*
X237800Y537500D02*X240050D01*
X237050Y538250D02*X237800Y537500D01*
X237050Y539750D02*Y538250D01*
Y539750D02*X237800Y540500D01*
X239300D01*
X240050Y539750D01*
X237050Y539000D02*X240050D01*
Y539750D02*Y539000D01*
X242600Y539750D02*Y537500D01*
Y539750D02*X243350Y540500D01*
X244850D01*
X241850D02*X242600Y539750D01*
X246650D02*Y538250D01*
Y539750D02*X247400Y540500D01*
X248900D01*
X249650Y539750D01*
Y538250D01*
X248900Y537500D02*X249650Y538250D01*
X247400Y537500D02*X248900D01*
X246650Y538250D02*X247400Y537500D01*
X252200D02*X254450D01*
X251450Y538250D02*X252200Y537500D01*
X251450Y539750D02*Y538250D01*
Y539750D02*X252200Y540500D01*
X253700D01*
X254450Y539750D01*
X251450Y539000D02*X254450D01*
Y539750D02*Y539000D01*
X257000Y539750D02*Y537500D01*
Y539750D02*X257750Y540500D01*
X258500D01*
X259250Y539750D01*
Y537500D01*
X256250Y540500D02*X257000Y539750D01*
X264500Y543500D02*Y537500D01*
X266450Y543500D02*X267500Y542450D01*
Y538550D01*
X266450Y537500D02*X267500Y538550D01*
X263750Y537500D02*X266450D01*
X263750Y543500D02*X266450D01*
X269300Y539750D02*Y538250D01*
Y539750D02*X270050Y540500D01*
X271550D01*
X272300Y539750D01*
Y538250D01*
X271550Y537500D02*X272300Y538250D01*
X270050Y537500D02*X271550D01*
X269300Y538250D02*X270050Y537500D01*
X274850Y539750D02*Y537500D01*
Y539750D02*X275600Y540500D01*
X276350D01*
X277100Y539750D01*
Y537500D01*
Y539750D02*X277850Y540500D01*
X278600D01*
X279350Y539750D01*
Y537500D01*
X274100Y540500D02*X274850Y539750D01*
X281150Y543500D02*Y537500D01*
Y538250D02*X281900Y537500D01*
X283400D01*
X284150Y538250D01*
Y539750D02*Y538250D01*
X283400Y540500D02*X284150Y539750D01*
X281900Y540500D02*X283400D01*
X281150Y539750D02*X281900Y540500D01*
X285950D02*Y538250D01*
X286700Y537500D01*
X288200D01*
X288950Y538250D01*
Y540500D02*Y538250D01*
X291500Y539750D02*Y537500D01*
Y539750D02*X292250Y540500D01*
X293750D01*
X290750D02*X291500Y539750D01*
X297800Y540500D02*X298550Y539750D01*
X296300Y540500D02*X297800D01*
X295550Y539750D02*X296300Y540500D01*
X295550Y539750D02*Y538250D01*
X296300Y537500D01*
X297800D01*
X298550Y538250D01*
X295550Y536000D02*X296300Y535250D01*
X297800D01*
X298550Y536000D01*
Y540500D02*Y536000D01*
X200000Y558500D02*X203000D01*
X201500D02*Y552500D01*
G54D89*X204800Y557000D02*Y556850D01*
G54D88*Y554750D02*Y552500D01*
X207050Y558500D02*Y553250D01*
X207800Y552500D01*
X206300Y556250D02*X207800D01*
X209300Y558500D02*Y553250D01*
X210050Y552500D01*
X212300D02*X214550D01*
X211550Y553250D02*X212300Y552500D01*
X211550Y554750D02*Y553250D01*
Y554750D02*X212300Y555500D01*
X213800D01*
X214550Y554750D01*
X211550Y554000D02*X214550D01*
Y554750D02*Y554000D01*
X216350Y556250D02*X217100D01*
X216350Y554750D02*X217100D01*
X221600Y553250D02*X222350Y552500D01*
X221600Y557750D02*X222350Y558500D01*
X221600Y557750D02*Y553250D01*
X224150Y555500D02*Y553250D01*
X224900Y552500D01*
X226400D01*
X227150Y553250D01*
Y555500D02*Y553250D01*
X229700Y554750D02*Y552500D01*
Y554750D02*X230450Y555500D01*
X231200D01*
X231950Y554750D01*
Y552500D01*
X228950Y555500D02*X229700Y554750D01*
X233750Y558500D02*Y552500D01*
Y554750D02*X236000Y552500D01*
X233750Y554750D02*X235250Y556250D01*
X238550Y554750D02*Y552500D01*
Y554750D02*X239300Y555500D01*
X240050D01*
X240800Y554750D01*
Y552500D01*
X237800Y555500D02*X238550Y554750D01*
X242600D02*Y553250D01*
Y554750D02*X243350Y555500D01*
X244850D01*
X245600Y554750D01*
Y553250D01*
X244850Y552500D02*X245600Y553250D01*
X243350Y552500D02*X244850D01*
X242600Y553250D02*X243350Y552500D01*
X247400Y555500D02*Y553250D01*
X248150Y552500D01*
X248900D01*
X249650Y553250D01*
Y555500D02*Y553250D01*
X250400Y552500D01*
X251150D01*
X251900Y553250D01*
Y555500D02*Y553250D01*
X254450Y554750D02*Y552500D01*
Y554750D02*X255200Y555500D01*
X255950D01*
X256700Y554750D01*
Y552500D01*
X253700Y555500D02*X254450Y554750D01*
X258500Y558500D02*X259250Y557750D01*
Y553250D01*
X258500Y552500D02*X259250Y553250D01*
X263750Y555500D02*X266750D01*
X271250Y558500D02*Y552500D01*
Y558500D02*X274250D01*
X271250Y555800D02*X273500D01*
X278300Y555500D02*X279050Y554750D01*
X276800Y555500D02*X278300D01*
X276050Y554750D02*X276800Y555500D01*
X276050Y554750D02*Y553250D01*
X276800Y552500D01*
X279050Y555500D02*Y553250D01*
X279800Y552500D01*
X276800D02*X278300D01*
X279050Y553250D01*
X281600Y558500D02*Y552500D01*
Y553250D02*X282350Y552500D01*
X283850D01*
X284600Y553250D01*
Y554750D02*Y553250D01*
X283850Y555500D02*X284600Y554750D01*
X282350Y555500D02*X283850D01*
X281600Y554750D02*X282350Y555500D01*
X287150Y554750D02*Y552500D01*
Y554750D02*X287900Y555500D01*
X289400D01*
X286400D02*X287150Y554750D01*
G54D89*X291200Y557000D02*Y556850D01*
G54D88*Y554750D02*Y552500D01*
X293450Y555500D02*X295700D01*
X292700Y554750D02*X293450Y555500D01*
X292700Y554750D02*Y553250D01*
X293450Y552500D01*
X295700D01*
X299750Y555500D02*X300500Y554750D01*
X298250Y555500D02*X299750D01*
X297500Y554750D02*X298250Y555500D01*
X297500Y554750D02*Y553250D01*
X298250Y552500D01*
X300500Y555500D02*Y553250D01*
X301250Y552500D01*
X298250D02*X299750D01*
X300500Y553250D01*
X303800Y558500D02*Y553250D01*
X304550Y552500D01*
X303050Y556250D02*X304550D01*
G54D89*X306050Y557000D02*Y556850D01*
G54D88*Y554750D02*Y552500D01*
X307550Y554750D02*Y553250D01*
Y554750D02*X308300Y555500D01*
X309800D01*
X310550Y554750D01*
Y553250D01*
X309800Y552500D02*X310550Y553250D01*
X308300Y552500D02*X309800D01*
X307550Y553250D02*X308300Y552500D01*
X313100Y554750D02*Y552500D01*
Y554750D02*X313850Y555500D01*
X314600D01*
X315350Y554750D01*
Y552500D01*
X312350Y555500D02*X313100Y554750D01*
X320600Y558500D02*Y552500D01*
X322550Y558500D02*X323600Y557450D01*
Y553550D01*
X322550Y552500D02*X323600Y553550D01*
X319850Y552500D02*X322550D01*
X319850Y558500D02*X322550D01*
X326150Y554750D02*Y552500D01*
Y554750D02*X326900Y555500D01*
X328400D01*
X325400D02*X326150Y554750D01*
X332450Y555500D02*X333200Y554750D01*
X330950Y555500D02*X332450D01*
X330200Y554750D02*X330950Y555500D01*
X330200Y554750D02*Y553250D01*
X330950Y552500D01*
X333200Y555500D02*Y553250D01*
X333950Y552500D01*
X330950D02*X332450D01*
X333200Y553250D01*
X335750Y555500D02*Y553250D01*
X336500Y552500D01*
X337250D01*
X338000Y553250D01*
Y555500D02*Y553250D01*
X338750Y552500D01*
X339500D01*
X340250Y553250D01*
Y555500D02*Y553250D01*
G54D89*X342050Y557000D02*Y556850D01*
G54D88*Y554750D02*Y552500D01*
X344300Y554750D02*Y552500D01*
Y554750D02*X345050Y555500D01*
X345800D01*
X346550Y554750D01*
Y552500D01*
X343550Y555500D02*X344300Y554750D01*
X350600Y555500D02*X351350Y554750D01*
X349100Y555500D02*X350600D01*
X348350Y554750D02*X349100Y555500D01*
X348350Y554750D02*Y553250D01*
X349100Y552500D01*
X350600D01*
X351350Y553250D01*
X348350Y551000D02*X349100Y550250D01*
X350600D01*
X351350Y551000D01*
Y555500D02*Y551000D01*
M02*
