G04 start of page 9 for group -4015 idx -4015 *
G04 Title: (unknown), toppaste *
G04 Creator: pcb 20140316 *
G04 CreationDate: Sun 15 Feb 2015 03:48:22 PM GMT UTC *
G04 For: jeroen *
G04 Format: Gerber/RS-274X *
G04 PCB-Dimensions (mil): 6000.00 5000.00 *
G04 PCB-Coordinate-Origin: lower left *
%MOIN*%
%FSLAX25Y25*%
%LNTOPPASTE*%
%ADD86R,0.0197X0.0197*%
%ADD85R,0.0120X0.0120*%
%ADD84C,0.0120*%
%ADD83R,0.0787X0.0787*%
%ADD82R,0.0866X0.0866*%
%ADD81R,0.0394X0.0394*%
%ADD80R,0.0118X0.0118*%
%ADD79R,0.0157X0.0157*%
%ADD78R,0.0472X0.0472*%
%ADD77R,0.0200X0.0200*%
%ADD76R,0.0240X0.0240*%
%ADD75R,0.0512X0.0512*%
%ADD74R,0.0340X0.0340*%
G54D74*X369488Y122347D02*Y121747D01*
X377288Y122347D02*Y121747D01*
X373388Y130547D02*Y129947D01*
G54D75*X220473Y77558D02*Y76772D01*
X227559Y77558D02*Y76772D01*
G54D76*X221247Y62205D02*X222847D01*
X221247Y70005D02*X222847D01*
X213047D02*X214647D01*
X213047Y66105D02*X214647D01*
X213047Y62205D02*X214647D01*
G54D77*X333350Y96870D02*X339850D01*
X333350Y91870D02*X339850D01*
X333350Y86870D02*X339850D01*
X333350Y81870D02*X339850D01*
X353850D02*X360350D01*
X353850Y86870D02*X360350D01*
X353850Y91870D02*X360350D01*
X353850Y96870D02*X360350D01*
G54D78*X371850Y105512D02*X372638D01*
X368307Y93701D02*X368701D01*
X375787D02*X376181D01*
G54D75*X368504Y86220D02*Y85434D01*
X375590Y86220D02*Y85434D01*
G54D79*X381890Y175000D02*Y172638D01*
G54D80*X379134Y177756D02*Y174213D01*
X376772Y177756D02*Y174213D01*
X374409Y177756D02*Y174213D01*
X372047Y177756D02*Y174213D01*
X369685Y177756D02*Y174213D01*
X377953Y165157D02*Y161614D01*
X367323Y177756D02*Y174213D01*
X364961Y177756D02*Y174213D01*
X362598Y177756D02*Y174213D01*
X360236Y177756D02*Y174213D01*
X357874Y177756D02*Y174213D01*
X355512Y177756D02*Y174213D01*
X353150Y177756D02*Y174213D01*
X350787Y177756D02*Y174213D01*
X348425Y177756D02*Y174213D01*
X346063Y177756D02*Y174213D01*
X343701Y177756D02*Y174213D01*
X341339Y177756D02*Y174213D01*
X338976Y177756D02*Y174213D01*
X336614Y177756D02*Y174213D01*
X334252Y177756D02*Y174213D01*
X375591Y165157D02*Y161614D01*
X373228Y165157D02*Y161614D01*
X370866Y165157D02*Y161614D01*
X368504Y165157D02*Y161614D01*
X366142Y165157D02*Y161614D01*
X363780Y165157D02*Y161614D01*
X361417Y165157D02*Y161614D01*
X359055Y165157D02*Y161614D01*
X356693Y165157D02*Y161614D01*
X354331Y165157D02*Y161614D01*
X351969Y165157D02*Y161614D01*
X349606Y165157D02*Y161614D01*
X347244Y165157D02*Y161614D01*
X344882Y165157D02*Y161614D01*
X342520Y165157D02*Y161614D01*
X340157Y165157D02*Y161614D01*
X337795Y165157D02*Y161614D01*
X335433Y165157D02*Y161614D01*
G54D79*X331496Y175000D02*Y172638D01*
G54D81*X245275Y136811D02*Y132086D01*
X237401Y136811D02*Y132086D01*
X229527Y136417D02*Y131693D01*
X221653Y136417D02*Y131693D01*
X213779Y136417D02*Y131693D01*
X205905Y136417D02*Y131693D01*
X198031Y136417D02*Y131693D01*
X190157Y136417D02*Y131693D01*
X245275Y198622D02*Y193897D01*
X237401Y198622D02*Y193897D01*
X229527Y198228D02*Y193504D01*
X221653Y198228D02*Y193504D01*
X213779Y198228D02*Y193504D01*
X205905Y198228D02*Y193504D01*
X198031Y198228D02*Y193504D01*
X190157Y198228D02*Y193504D01*
G54D75*X311812Y37401D02*X312598D01*
X311812Y30315D02*X312598D01*
X311812Y68504D02*X312598D01*
X311812Y61418D02*X312598D01*
X358663Y17716D02*X359449D01*
X358663Y24802D02*X359449D01*
X329331Y31889D02*Y31103D01*
X336417Y31889D02*Y31103D01*
X368898Y72834D02*X369684D01*
X368898Y65748D02*X369684D01*
G54D82*X274016Y80315D02*Y77953D01*
X291339Y80315D02*Y77953D01*
G54D75*X311812Y85433D02*X312598D01*
X311812Y78347D02*X312598D01*
X368505Y50000D02*X369291D01*
X368505Y42914D02*X369291D01*
X375985Y50000D02*X376771D01*
X375985Y42914D02*X376771D01*
G54D77*X333350Y52776D02*X339850D01*
X333350Y47776D02*X339850D01*
X333350Y42776D02*X339850D01*
X333350Y37776D02*X339850D01*
X353850D02*X360350D01*
X353850Y42776D02*X360350D01*
X353850Y47776D02*X360350D01*
X353850Y52776D02*X360350D01*
G54D76*X349200Y16929D02*X350800D01*
X349200Y24729D02*X350800D01*
X341000D02*X342600D01*
X341000Y20829D02*X342600D01*
X341000Y16929D02*X342600D01*
G54D74*X271654Y46757D02*Y46157D01*
X279454Y46757D02*Y46157D01*
X275554Y54957D02*Y54357D01*
G54D82*X275591Y29528D02*Y27165D01*
X292913Y29528D02*Y27165D01*
G54D75*X375985Y72834D02*X376771D01*
X375985Y65748D02*X376771D01*
G54D77*X333350Y75610D02*X339850D01*
X333350Y70610D02*X339850D01*
X333350Y65610D02*X339850D01*
X333350Y60610D02*X339850D01*
X353850D02*X360350D01*
X353850Y65610D02*X360350D01*
X353850Y70610D02*X360350D01*
X353850Y75610D02*X360350D01*
G54D75*X311812Y54724D02*X312598D01*
X311812Y47638D02*X312598D01*
X302757Y38976D02*X303543D01*
X302757Y31890D02*X303543D01*
X301953Y92905D02*X302739D01*
X301953Y85819D02*X302739D01*
X277953Y62991D02*Y62205D01*
X285039Y62991D02*Y62205D01*
G54D82*X291339Y96063D02*Y93701D01*
X274016Y96063D02*Y93701D01*
G54D83*X245669Y86614D02*Y71654D01*
X262598Y86614D02*Y71654D01*
G54D75*X254331Y96456D02*Y95670D01*
X261417Y96456D02*Y95670D01*
G54D84*X244416Y58858D02*X247016D01*
G54D85*X244416Y56858D02*X247016D01*
X244416Y54858D02*X247016D01*
X244416Y52958D02*X247016D01*
X244416Y50958D02*X247016D01*
X260916Y50858D02*X263516D01*
X260916Y52858D02*X263516D01*
X260916Y54858D02*X263516D01*
X260916Y56758D02*X263516D01*
X260916Y58758D02*X263516D01*
G54D75*X231497Y92913D02*X232283D01*
X231497Y99999D02*X232283D01*
G54D77*X261437Y137488D02*Y130988D01*
X266437Y137488D02*Y130988D01*
X271437Y137488D02*Y130988D01*
X276437Y137488D02*Y130988D01*
X281437Y137488D02*Y130988D01*
X286437Y137488D02*Y130988D01*
X291437Y137488D02*Y130988D01*
X296437Y137488D02*Y130988D01*
Y157988D02*Y151488D01*
X291437Y157988D02*Y151488D01*
X286437Y157988D02*Y151488D01*
X281437Y157988D02*Y151488D01*
X276437Y157988D02*Y151488D01*
X271437Y157988D02*Y151488D01*
X266437Y157988D02*Y151488D01*
X261437Y157988D02*Y151488D01*
G54D75*X355119Y113583D02*X355905D01*
X355119Y120669D02*X355905D01*
X348427Y113583D02*X349213D01*
X348427Y120669D02*X349213D01*
X255513Y177953D02*X256299D01*
X255513Y185039D02*X256299D01*
X255316Y140749D02*X256102D01*
X255316Y147835D02*X256102D01*
G54D77*X263799Y174496D02*Y167996D01*
X268799Y174496D02*Y167996D01*
X273799Y174496D02*Y167996D01*
X278799Y174496D02*Y167996D01*
X283799Y174496D02*Y167996D01*
X288799Y174496D02*Y167996D01*
X293799Y174496D02*Y167996D01*
X298799Y174496D02*Y167996D01*
Y194996D02*Y188496D01*
X293799Y194996D02*Y188496D01*
X288799Y194996D02*Y188496D01*
X283799Y194996D02*Y188496D01*
X278799Y194996D02*Y188496D01*
X273799Y194996D02*Y188496D01*
X268799Y194996D02*Y188496D01*
X263799Y194996D02*Y188496D01*
G54D75*X203938Y99606D02*Y98820D01*
X211024Y99606D02*Y98820D01*
X204331Y90747D02*Y89961D01*
X211417Y90747D02*Y89961D01*
X209450Y111615D02*X210236D01*
X209450Y118701D02*X210236D01*
X216537Y111615D02*X217323D01*
X216537Y118701D02*X217323D01*
X206694Y76575D02*X207480D01*
X206694Y83661D02*X207480D01*
X317717Y131693D02*Y129331D01*
X329527Y131693D02*Y129331D01*
X317717Y123031D02*Y120669D01*
X329527Y123031D02*Y120669D01*
X224607Y47637D02*Y46851D01*
X231693Y47637D02*Y46851D01*
G54D83*X244882Y38583D02*Y23622D01*
X261811Y38583D02*Y23622D01*
G54D75*X190553Y61812D02*X191339D01*
X190553Y68898D02*X191339D01*
X197638Y68898D02*X198424D01*
X197638Y61812D02*X198424D01*
G54D86*X211417Y40551D02*X221063D01*
X211417Y37402D02*X221063D01*
X211417Y27953D02*X221063D01*
X211417Y31102D02*X221063D01*
X211417Y34252D02*X221063D01*
G54D83*X192126Y16732D02*X194094D01*
X192126Y51772D02*X194094D01*
X213386Y16732D02*X215354D01*
X213583Y51772D02*X215551D01*
G54D75*X276772Y39566D02*Y38780D01*
X283858Y39566D02*Y38780D01*
M02*
