G04 start of page 3 for group 1 idx 1 *
G04 Title: (unknown), solder *
G04 Creator: pcb 20140316 *
G04 CreationDate: Sun 15 Feb 2015 03:48:22 PM GMT UTC *
G04 For: jeroen *
G04 Format: Gerber/RS-274X *
G04 PCB-Dimensions (mil): 6000.00 5000.00 *
G04 PCB-Coordinate-Origin: lower left *
%MOIN*%
%FSLAX25Y25*%
%LNTOP*%
%ADD44C,0.0354*%
%ADD43C,0.0380*%
%ADD42C,0.0350*%
%ADD41C,0.0200*%
%ADD40C,0.0360*%
%ADD39R,0.0394X0.0394*%
%ADD38R,0.0118X0.0118*%
%ADD37R,0.0157X0.0157*%
%ADD36R,0.0472X0.0472*%
%ADD35R,0.0200X0.0200*%
%ADD34R,0.0120X0.0120*%
%ADD33C,0.0120*%
%ADD32R,0.0340X0.0340*%
%ADD31R,0.0866X0.0866*%
%ADD30R,0.0787X0.0787*%
%ADD29R,0.0197X0.0197*%
%ADD28R,0.0240X0.0240*%
%ADD27R,0.0512X0.0512*%
%ADD26C,0.0551*%
%ADD25C,0.0600*%
%ADD24C,0.0001*%
%ADD23C,0.0250*%
%ADD22C,0.0100*%
G54D22*X379134Y203346D02*Y175984D01*
X374409D02*Y192913D01*
X376772Y175984D02*Y197638D01*
X374409Y193701D02*Y175984D01*
X370866Y203543D02*X376772Y197638D01*
X372047Y175984D02*Y193110D01*
X369685Y175984D02*Y190945D01*
X366929Y193701D01*
X367323Y175984D02*Y188976D01*
X364961Y175984D02*Y183858D01*
X363780Y185039D01*
X361220Y190157D02*X361417Y190354D01*
X360630Y183661D02*Y189567D01*
X361417Y190354D01*
X362598Y175984D02*Y181693D01*
X360236Y175984D02*Y180709D01*
X359252Y181693D01*
X357874Y175984D02*Y179724D01*
X362598Y181693D02*X360630Y183661D01*
X353937Y185236D02*X356299Y182874D01*
X357283Y184449D02*X359154Y182579D01*
Y181791D01*
X357874Y179724D02*X356299Y181299D01*
X350984Y187402D02*Y195276D01*
X349803Y181102D02*Y186220D01*
X350984Y187402D01*
X348425Y179724D02*X349803Y181102D01*
X348425Y175984D02*Y179724D01*
X350984Y195276D02*X348228Y198031D01*
X348425Y170472D02*Y175787D01*
X346063Y182283D02*Y171457D01*
X344882Y170276D01*
X353150Y175984D02*Y181496D01*
X353937Y197244D02*Y185236D01*
X343701Y175984D02*Y179921D01*
X342717Y180906D01*
X343307Y186417D02*X342717Y185827D01*
Y180906D01*
X352953Y155906D02*X354331Y157283D01*
X352756Y151969D02*Y155709D01*
X352854Y155807D01*
X351969Y158268D02*X350591Y156890D01*
X356299Y182874D02*Y181299D01*
X357283Y193110D02*Y184449D01*
X355315Y200000D02*X361811Y193504D01*
X358465Y201772D02*X362795Y197441D01*
X367323Y188976D02*X362795Y193504D01*
X361811D01*
X372047Y193110D02*X361614Y203543D01*
X362795Y205315D02*X374409Y193701D01*
X366142Y163386D02*Y158268D01*
X367717Y156693D01*
Y152165D01*
X377953Y151772D02*Y163386D01*
X375591D02*Y155709D01*
X374409Y154528D01*
Y150000D01*
Y150197D02*Y147441D01*
X376181Y145669D01*
X372244Y155709D02*Y143898D01*
X373388Y130247D02*Y139407D01*
X373228Y139567D01*
X373351Y130709D02*X373388Y130672D01*
X376181Y145669D02*Y142520D01*
X373031Y139370D01*
X371457D01*
X368898Y141929D01*
Y146654D01*
X369882Y147638D01*
Y157480D01*
G54D23*X370866Y113583D02*X375984D01*
X377362Y114961D01*
Y121850D01*
G54D22*X370669Y113583D03*
X366732Y105315D02*X372047D01*
X372244Y105512D01*
X362795Y101378D02*X366732Y105315D01*
X361024Y130709D02*X373351D01*
X369488Y122047D02*X366732D01*
X362795Y125984D01*
X355512Y120669D02*Y125197D01*
X348820Y113583D02*X355511D01*
X355512Y113583D01*
Y109055D01*
X355906Y108661D01*
X355512Y125197D02*X361024Y130709D01*
X348820Y123820D02*X354331Y129331D01*
X351969Y130709D02*X348819Y127559D01*
X346850D01*
X341339Y122047D01*
X358465Y128150D02*X356693Y129921D01*
X343898Y104758D02*Y119685D01*
X345079Y120866D01*
X348623D01*
X348820Y120669D01*
Y123820D01*
X341339Y122047D02*Y108858D01*
X333268Y100787D01*
G54D23*X332874Y109646D02*X316732D01*
X316535Y109449D01*
X317717Y130512D02*Y110630D01*
X316535Y109449D01*
G54D22*X286437Y134238D02*Y140925D01*
X286220Y141142D01*
X291437Y134238D02*Y140846D01*
X291339Y140945D01*
G54D23*X296437Y134238D02*X303333D01*
X307480Y138386D01*
G54D22*X311220Y142520D02*Y135039D01*
X298425Y122244D01*
G54D23*X329528Y134646D02*Y121260D01*
G54D22*X328150Y143898D02*X312598D01*
X311220Y142520D01*
G54D23*X307480Y150394D02*X331496D01*
G54D22*X351969Y149803D02*Y130709D01*
X356693Y129921D02*Y152559D01*
X354331Y150394D02*X352756Y151969D01*
X337795Y152165D02*X334252Y155709D01*
X333858Y156102D02*X329921D01*
G54D23*X331496Y150394D02*X336024Y145866D01*
Y141142D01*
X329528Y134646D01*
G54D22*X351969Y149803D02*X350591Y151181D01*
Y156890D01*
X354331Y129331D02*Y150394D01*
X373228Y163386D02*Y156693D01*
X370866Y163386D02*Y158071D01*
X369882Y157087D01*
X368504Y158465D01*
Y163583D01*
X363583Y141732D02*X361417Y143898D01*
X359055Y139370D02*X363189Y135236D01*
X373228Y156693D02*X372244Y155709D01*
X361417Y143898D02*Y163386D01*
X359055D02*Y139370D01*
X363780Y163386D02*Y156102D01*
X364567Y155315D01*
X367717Y152165D02*X366732Y151181D01*
X348425Y170472D02*X347244Y169291D01*
X348327Y170374D02*X348425Y170472D01*
X347244Y169291D02*Y163583D01*
X344882Y170276D02*Y163386D01*
X345079Y158465D02*Y154528D01*
X342717Y152165D01*
X354331Y157283D02*Y163386D01*
X351969D02*Y158268D01*
X356693Y152559D02*X355906Y153346D01*
X341339Y175984D02*Y179528D01*
X338976Y175984D02*Y171260D01*
X337795Y170079D01*
Y163583D01*
X337992Y170276D02*X344882D01*
X341339Y179528D02*X340748Y180118D01*
Y183858D01*
X338780Y185827D01*
X330906D01*
X336024Y182677D02*X336614Y182087D01*
X330906Y185827D02*X325984Y180906D01*
Y165748D01*
X330709Y161024D01*
X327756Y184252D02*X328543Y183465D01*
X336614Y182087D02*Y175984D01*
X330709Y161024D02*X333071D01*
X335433Y163386D01*
X340157D02*Y157874D01*
X341535Y156496D01*
X342520Y163386D02*Y160236D01*
X343307Y159449D01*
X344094D01*
X345079Y158465D01*
X342717Y152165D02*X337795D01*
X329921Y156102D02*X321260Y164764D01*
G54D23*X307480Y138386D02*Y174409D01*
G54D22*X321260Y164764D02*Y171063D01*
X312992Y179331D01*
X290354Y184252D02*X327756D01*
X348228Y198031D02*X286220D01*
X355315Y200000D02*X280512D01*
X276378Y201772D02*X358465D01*
X361614Y203543D02*X215748D01*
X208858Y205315D02*X362795D01*
X312992Y179331D02*X291732D01*
X288780Y176378D01*
Y171266D01*
X288799Y171246D01*
G54D23*X298799D02*X304317D01*
X307579Y174508D01*
G54D22*X283799Y171246D02*Y180374D01*
X283661Y180512D01*
X288799Y185807D02*X290354Y184252D01*
X286220Y198031D02*X283661Y195472D01*
Y191732D01*
X280512Y200000D02*X278740Y198228D01*
Y191805D01*
X278799Y191746D01*
X271457Y147441D02*Y154719D01*
X271437Y154738D01*
X276437Y147500D02*X276378Y147441D01*
X276437Y154738D02*Y147500D01*
X281496Y154679D02*X281437Y154738D01*
X281496Y161220D02*Y154797D01*
X281437Y154738D01*
X286417Y161220D02*Y154567D01*
X286437Y154547D01*
X261437Y154738D02*X266437D01*
X261437Y134238D02*Y161988D01*
X260236Y163189D01*
X268701Y180315D02*Y171344D01*
X268799Y171246D01*
X273819Y180315D02*Y171266D01*
X273799Y171246D01*
X278543Y180512D02*Y171502D01*
X278799Y171246D01*
X263799Y191746D02*X268799D01*
X260236Y163189D02*Y188183D01*
X263799Y191746D01*
X265748Y162795D02*X263780Y164764D01*
Y171457D01*
X255906Y185039D02*X260039D01*
G54D23*X245275Y196260D02*X250787D01*
G54D22*X245472Y196654D02*X245079Y196260D01*
X245472D02*X237401D01*
D03*
X260039Y185039D02*X260236Y185236D01*
X288799Y191746D02*Y185807D01*
X273799Y191746D02*Y199193D01*
X276378Y201772D01*
X255906Y177954D02*Y171851D01*
X255906Y171850D01*
X198031Y184449D02*Y195866D01*
X198031Y195867D01*
X190157D02*Y181890D01*
X197638Y174409D01*
X221653Y195867D02*Y185040D01*
X221654Y185039D01*
X229527Y195867D02*Y185237D01*
X229528Y185236D01*
X213779Y195867D02*Y201574D01*
X205905Y195867D02*Y202362D01*
X208858Y205315D01*
X213779Y201575D02*X215748Y203543D01*
X255709Y147835D02*Y149424D01*
X261024Y154738D01*
X225787Y162795D02*X248819D01*
X253740Y157874D01*
X229527Y142717D02*X225787Y146457D01*
X190157Y134056D02*X189370Y133268D01*
X205905Y134056D02*Y141929D01*
X198031Y134056D02*Y144291D01*
X190157Y134056D02*X189370Y133268D01*
X205905Y141929D02*X211220Y147244D01*
X198031Y144291D02*X213189Y159449D01*
X276437Y134238D02*Y141083D01*
X276378Y141142D01*
X281437Y134238D02*Y141004D01*
X281299Y141142D01*
X266535Y125591D02*Y134646D01*
X271437Y134238D02*Y125610D01*
X271457Y125591D01*
X298425Y122244D02*X263780D01*
X295079Y125787D02*X296654Y127362D01*
Y134055D01*
X260433Y116929D02*X284449D01*
X263780Y122244D02*X261417Y124606D01*
X246850Y122835D02*X226181D01*
X212008Y125984D02*X189370D01*
X216535Y124606D02*Y119095D01*
X209843Y118701D02*X216535D01*
X209843Y111614D02*X209843Y111615D01*
X261417Y124606D02*Y134219D01*
X255709Y140749D02*Y124606D01*
X257283Y123031D01*
G54D23*X245275Y134449D02*Y124410D01*
X246654Y123031D01*
G54D22*X261417Y134219D02*X261437Y134238D01*
X244685Y151772D02*X237402Y144488D01*
Y133858D01*
X244685Y144882D02*X248622Y148819D01*
Y154331D01*
X246654Y156299D01*
X228740D01*
X221654Y149213D01*
Y133071D01*
X213779Y134056D02*Y127756D01*
X212008Y125984D01*
X229527Y134056D02*Y142717D01*
X216339Y99606D02*X212598D01*
X195276Y89685D02*X203662D01*
X203938Y89961D01*
X195276Y99685D02*X203465D01*
X203938Y99213D01*
X211024D02*Y89961D01*
X216535Y119095D02*X216930Y118701D01*
X216535D03*
X222244Y105709D02*X211614D01*
X209843Y107480D01*
Y111220D01*
X189370Y133268D02*Y105591D01*
X195276Y99685D01*
X247638Y104134D02*X260433Y116929D01*
X257087Y123228D02*X245472Y111614D01*
X226969Y104134D02*X247638D01*
X245472Y111614D02*X217323D01*
X238976Y108071D02*X224606D01*
X222244Y105709D01*
X231890Y99999D02*Y103937D01*
X231693Y104134D01*
G54D23*X275591Y60236D02*Y54724D01*
G54D22*X272047Y45276D02*Y39370D01*
X268504Y27559D02*X274803D01*
X275591Y28346D01*
X272244Y39173D02*X272047Y39370D01*
G54D23*X266008Y54858D02*X274565D01*
G54D22*X265551Y54921D02*X267323Y53150D01*
X265488Y54858D02*X262216D01*
X266929Y56299D02*X265488Y54858D01*
X258769Y62205D02*X251181D01*
X262216Y58758D02*X258769Y62205D01*
X266929Y63780D02*Y56299D01*
X262598Y68110D02*X266929Y63780D01*
X262216Y56758D02*X253869D01*
X233465Y68110D02*X236614Y71260D01*
X233465Y61024D02*Y68110D01*
X237630Y56858D02*X233465Y61024D01*
X245716Y56858D02*X237630D01*
X242717Y58858D02*X245716D01*
X237402Y64173D02*X242717Y58858D01*
X251181Y62205D02*X246063Y67323D01*
X235624Y52958D02*X245716D01*
X235433Y53150D02*X235624Y52958D01*
X253869Y56758D02*X251969Y54858D01*
X251835D02*X253835Y52858D01*
X245716Y54858D02*X251835D01*
X230118Y45079D02*Y63780D01*
X227559Y66339D01*
X222047Y62205D02*X225394Y58858D01*
X190946Y61812D02*X198031D01*
X190946Y68898D02*Y73230D01*
X198031Y68898D02*X198228Y68701D01*
X198031Y68897D02*X198031Y68898D01*
X190946Y73230D02*X191339Y73622D01*
X198228Y69094D02*X204134D01*
X205315Y67913D01*
X208858D01*
X211024Y70079D01*
X207087Y61811D02*X213454D01*
X213847Y62205D01*
X219291Y84646D02*X207874D01*
X207087Y76575D02*Y71260D01*
X211024Y70079D02*X214173D01*
X227559Y81299D02*X224213Y84646D01*
X219488D01*
X220276Y76968D02*X220473Y77165D01*
X222047Y70079D02*X220276Y71850D01*
Y76968D01*
X227559Y81299D02*Y66339D01*
X228346Y87205D02*Y89370D01*
X231890Y92913D01*
X213847Y66105D02*X227128D01*
X227461Y66437D01*
X239935Y50958D02*X237795Y48819D01*
X214960Y40355D02*X225394Y40354D01*
X224802Y40355D02*X224803Y40354D01*
X229331Y27756D02*X214961D01*
X244980Y38681D02*Y31201D01*
X244882Y31102D01*
X245716Y50958D02*X239935D01*
X257420Y46063D02*X252362D01*
X244882Y38583D01*
X262216Y50858D02*X257420Y46063D01*
X267323Y36614D02*X261811Y31102D01*
X267323Y53150D02*Y36614D01*
X253835Y52858D02*X262216D01*
X232185Y39469D02*Y30610D01*
X229331Y27756D01*
X232185Y39665D02*Y43012D01*
X230118Y45079D01*
X225394Y58858D02*Y31496D01*
X215157Y27756D02*Y17717D01*
X213976Y16535D01*
X192717D01*
X293315Y92905D02*X291339Y94882D01*
X274016D02*Y79134D01*
X272835Y96063D02*X274016Y94882D01*
X261417Y96063D02*X272835D01*
X246063Y87795D02*X254331Y96063D01*
X246063Y67323D02*Y87795D01*
X262598Y79134D02*Y68110D01*
G54D23*X329232Y55217D02*X329331Y55315D01*
X277953Y62598D02*X275591Y60236D01*
G54D22*X272047Y62598D02*X277953D01*
G54D23*X290945Y73228D02*Y78740D01*
X296457Y67717D02*X290945Y73228D01*
X296457Y61811D02*Y67717D01*
X285827Y73622D02*Y62205D01*
X291339Y79134D02*X285827Y73622D01*
G54D22*X291339Y79134D02*Y75984D01*
X312205Y78347D02*Y68504D01*
X303150Y85016D02*Y38976D01*
G54D23*X303248Y55217D02*X329232D01*
G54D22*X312205Y61418D02*Y54724D01*
G54D23*X303150Y55118D02*X296457Y61811D01*
G54D22*X313012Y60610D02*X312205Y61417D01*
X303544Y54724D02*X303150Y55118D01*
X302756Y54724D02*X303150Y55118D01*
G54D23*X284646Y41265D02*X279454Y46457D01*
G54D22*X276772Y39173D02*X272244D01*
X312205Y86614D02*X305906Y92913D01*
X302355D02*X302346Y92905D01*
X305906Y92913D02*X302355D01*
X303150Y85016D02*X302346Y85819D01*
X312205Y85433D02*Y86614D01*
X302346Y92905D02*X293315D01*
X312205Y85433D02*X327362D01*
X327362Y85433D01*
G54D23*X329331Y31496D02*Y55295D01*
G54D22*X315748Y31299D02*X313189D01*
X322638Y34055D02*X318504D01*
G54D23*X329331Y31496D02*X327756D01*
G54D22*X312205Y40945D02*Y37401D01*
Y40944D02*Y47638D01*
X318504Y34055D02*X315748Y31299D01*
G54D23*X322638Y28937D02*X321850Y28150D01*
X325197Y28937D02*X322638D01*
X327756Y31496D02*X325197Y28937D01*
X331890Y20866D02*X329134Y18110D01*
X335235Y24925D02*X335039Y24729D01*
X335235Y31890D02*Y24925D01*
X341800Y24729D02*X325753D01*
G54D22*X334449Y29331D02*X334645Y29528D01*
G54D23*X346063Y20866D02*X331890D01*
X325753Y24729D02*X319134Y18110D01*
G54D22*X323858Y13386D02*X319134Y18110D01*
G54D23*X319213Y18189D02*X318937Y17913D01*
G54D22*X333465Y13386D02*X323858D01*
X337008Y16929D02*X333465Y13386D01*
G54D23*X350000Y16929D02*X346063Y20866D01*
X358268Y16929D02*X350000D01*
X359056Y17717D02*X358268Y16929D01*
G54D22*X357406Y24729D02*X357480Y24803D01*
X341800Y16929D02*X337008D01*
G54D23*X350000Y24729D02*X358982D01*
X359056Y24802D01*
Y29133D01*
X357087Y31102D01*
G54D22*X310236Y28346D02*X292913D01*
X303150Y31890D02*Y28346D01*
X313189Y31299D02*X310236Y28346D01*
G54D23*X319016Y17992D02*X287323D01*
X284646Y20669D01*
Y41265D01*
G54D22*X371063Y52165D02*X368898Y50000D01*
X368366Y42776D02*X368505Y42914D01*
X376378Y50000D02*X368898D01*
Y42914D02*X376378D01*
X371063Y59252D02*Y52165D01*
X371260Y59449D02*X368110Y56299D01*
X369291Y65748D02*X364154Y60610D01*
X376378Y65748D02*X369291D01*
X376378D02*X380315D01*
X381693Y67126D01*
X357100Y47776D02*X329980D01*
X336600Y42776D02*X368366D01*
X366535Y42914D02*X368897D01*
X346850Y47776D02*Y42776D01*
X350394Y52756D02*X356693D01*
X348819Y51181D02*X350394Y52756D01*
X342933Y52776D02*X346457Y56299D01*
X336600Y52776D02*X342933D01*
X341732Y56693D02*X330709D01*
X329232Y55217D01*
X346457Y56299D02*X368110D01*
X364154Y60610D02*X357067D01*
X346850Y65610D02*Y70610D01*
X345649Y60610D02*X341732Y56693D01*
X357100Y65610D02*X336600D01*
X357100Y70610D02*X330177D01*
X357480Y60610D02*X345649D01*
X376772Y73228D02*X376378Y72834D01*
X369291D02*X376378D01*
X366535Y78937D02*X371654D01*
Y79724D01*
X371850Y78937D02*Y79528D01*
X368701Y73228D02*X369095Y72834D01*
X376772Y79134D02*Y73228D01*
X381693Y67126D02*Y87992D01*
X375984Y93701D01*
X376772Y78937D02*Y84645D01*
X375590Y85827D01*
X356707Y92067D02*Y87067D01*
X363780Y81693D02*X366535Y78937D01*
X356707Y82067D02*X351398D01*
X356707Y97067D02*X362972D01*
X349803Y101378D02*X362795D01*
X363780Y96260D02*Y81693D01*
X362972Y97067D02*X363780Y96260D01*
X368504Y85827D02*Y93701D01*
D03*
X347047Y73228D02*X368701D01*
X346457Y87008D02*X335630D01*
X351398Y82067D02*X346457Y87008D01*
X327362Y73425D02*Y97835D01*
X336207Y97067D02*Y92067D01*
X346457Y87008D02*Y98031D01*
X349803Y101378D01*
X336207Y97067D02*X343898Y104758D01*
X333268Y100787D02*X330315D01*
X327362Y97835D02*X330315Y100787D01*
X336207Y82067D02*Y75616D01*
X336201Y75610D01*
X330177Y70610D02*X327362Y73425D01*
X336207Y75577D02*X344699D01*
X347047Y73228D01*
G54D24*G36*
X192276Y82685D02*Y76685D01*
X198276D01*
Y82685D01*
X192276D01*
G37*
G54D25*X195276Y89685D03*
Y99685D03*
Y109685D03*
Y119685D03*
G54D24*G36*
X316134Y21110D02*Y15110D01*
X322134D01*
Y21110D01*
X316134D01*
G37*
G54D25*X329134Y18110D03*
G54D26*X204331Y25591D03*
Y42913D03*
G54D27*X220473Y77558D02*Y76772D01*
X227559Y77558D02*Y76772D01*
G54D28*X221247Y62205D02*X222847D01*
X221247Y70005D02*X222847D01*
G54D27*X224607Y47637D02*Y46851D01*
X231693Y47637D02*Y46851D01*
G54D28*X213047Y70005D02*X214647D01*
G54D27*X190553Y68898D02*X191339D01*
X197638Y68898D02*X198424D01*
G54D28*X213047Y66105D02*X214647D01*
G54D29*X211417Y40551D02*X221063D01*
X211417Y37402D02*X221063D01*
X211417Y27953D02*X221063D01*
X211417Y31102D02*X221063D01*
X211417Y34252D02*X221063D01*
G54D28*X213047Y62205D02*X214647D01*
G54D27*X190553Y61812D02*X191339D01*
X197638Y61812D02*X198424D01*
G54D30*X192126Y51772D02*X194094D01*
X213583D02*X215551D01*
G54D27*X206694Y76575D02*X207480D01*
X206694Y83661D02*X207480D01*
G54D31*X274016Y80315D02*Y77953D01*
G54D27*X277953Y62991D02*Y62205D01*
G54D31*X274016Y96063D02*Y93701D01*
X291339Y80315D02*Y77953D01*
X292913Y29528D02*Y27165D01*
G54D27*X285039Y62991D02*Y62205D01*
G54D31*X291339Y96063D02*Y93701D01*
G54D32*X271654Y46757D02*Y46157D01*
X279454Y46757D02*Y46157D01*
X275554Y54957D02*Y54357D01*
G54D31*X275591Y29528D02*Y27165D01*
G54D27*X276772Y39566D02*Y38780D01*
X283858Y39566D02*Y38780D01*
G54D30*X245669Y86614D02*Y71654D01*
G54D33*X244416Y58858D02*X247016D01*
G54D34*X244416Y56858D02*X247016D01*
X244416Y54858D02*X247016D01*
X244416Y52958D02*X247016D01*
X244416Y50958D02*X247016D01*
G54D30*X262598Y86614D02*Y71654D01*
G54D27*X254331Y96456D02*Y95670D01*
X261417Y96456D02*Y95670D01*
G54D34*X260916Y50858D02*X263516D01*
X260916Y52858D02*X263516D01*
X260916Y54858D02*X263516D01*
X260916Y56758D02*X263516D01*
X260916Y58758D02*X263516D01*
G54D30*X244882Y38583D02*Y23622D01*
X261811Y38583D02*Y23622D01*
X192126Y16732D02*X194094D01*
X213386D02*X215354D01*
G54D32*X369488Y122347D02*Y121747D01*
X377288Y122347D02*Y121747D01*
X373388Y130547D02*Y129947D01*
G54D35*X353850Y96870D02*X360350D01*
G54D36*X371850Y105512D02*X372638D01*
G54D27*X355119Y113583D02*X355905D01*
X355119Y120669D02*X355905D01*
X348427Y120669D02*X349213D01*
X317717Y131693D02*Y129331D01*
X329527Y131693D02*Y129331D01*
X317717Y123031D02*Y120669D01*
X329527Y123031D02*Y120669D01*
X348427Y113583D02*X349213D01*
G54D37*X381890Y175000D02*Y172638D01*
G54D38*X379134Y177756D02*Y174213D01*
X376772Y177756D02*Y174213D01*
X374409Y177756D02*Y174213D01*
X372047Y177756D02*Y174213D01*
X369685Y177756D02*Y174213D01*
X367323Y177756D02*Y174213D01*
X364961Y177756D02*Y174213D01*
X362598Y177756D02*Y174213D01*
X360236Y177756D02*Y174213D01*
X357874Y177756D02*Y174213D01*
X355512Y177756D02*Y174213D01*
X353150Y177756D02*Y174213D01*
X350787Y177756D02*Y174213D01*
X348425Y177756D02*Y174213D01*
X346063Y177756D02*Y174213D01*
X343701Y177756D02*Y174213D01*
X341339Y177756D02*Y174213D01*
X338976Y177756D02*Y174213D01*
X336614Y177756D02*Y174213D01*
X334252Y177756D02*Y174213D01*
G54D37*X331496Y175000D02*Y172638D01*
G54D38*X377953Y165157D02*Y161614D01*
X375591Y165157D02*Y161614D01*
X373228Y165157D02*Y161614D01*
X370866Y165157D02*Y161614D01*
X368504Y165157D02*Y161614D01*
X366142Y165157D02*Y161614D01*
X363780Y165157D02*Y161614D01*
X361417Y165157D02*Y161614D01*
X359055Y165157D02*Y161614D01*
X356693Y165157D02*Y161614D01*
X354331Y165157D02*Y161614D01*
X351969Y165157D02*Y161614D01*
X349606Y165157D02*Y161614D01*
X347244Y165157D02*Y161614D01*
X344882Y165157D02*Y161614D01*
X342520Y165157D02*Y161614D01*
X340157Y165157D02*Y161614D01*
X337795Y165157D02*Y161614D01*
X335433Y165157D02*Y161614D01*
G54D35*X333350Y96870D02*X339850D01*
X333350Y91870D02*X339850D01*
X333350Y86870D02*X339850D01*
X333350Y81870D02*X339850D01*
G54D27*X311812Y85433D02*X312598D01*
X311812Y78347D02*X312598D01*
G54D35*X333350Y75610D02*X339850D01*
G54D27*X301953Y92905D02*X302739D01*
X301953Y85819D02*X302739D01*
G54D35*X353850Y81870D02*X360350D01*
X353850Y86870D02*X360350D01*
X353850Y91870D02*X360350D01*
G54D36*X368307Y93701D02*X368701D01*
X375787D02*X376181D01*
G54D27*X368504Y86220D02*Y85434D01*
X375590Y86220D02*Y85434D01*
X358663Y17716D02*X359449D01*
X358663Y24802D02*X359449D01*
G54D28*X349200Y16929D02*X350800D01*
X349200Y24729D02*X350800D01*
G54D35*X353850Y37776D02*X360350D01*
X353850Y42776D02*X360350D01*
X353850Y47776D02*X360350D01*
G54D27*X311812Y37401D02*X312598D01*
X311812Y30315D02*X312598D01*
X311812Y47638D02*X312598D01*
X302757Y38976D02*X303543D01*
X302757Y31890D02*X303543D01*
X311812Y68504D02*X312598D01*
X311812Y61418D02*X312598D01*
X311812Y54724D02*X312598D01*
X368898Y72834D02*X369684D01*
X368898Y65748D02*X369684D01*
X368505Y50000D02*X369291D01*
X368505Y42914D02*X369291D01*
X375985D02*X376771D01*
X375985Y50000D02*X376771D01*
X375985Y72834D02*X376771D01*
X375985Y65748D02*X376771D01*
G54D35*X353850Y52776D02*X360350D01*
X353850Y60610D02*X360350D01*
X353850Y65610D02*X360350D01*
X353850Y70610D02*X360350D01*
X353850Y75610D02*X360350D01*
G54D27*X329331Y31889D02*Y31103D01*
X336417Y31889D02*Y31103D01*
G54D35*X333350Y52776D02*X339850D01*
X333350Y47776D02*X339850D01*
X333350Y42776D02*X339850D01*
X333350Y37776D02*X339850D01*
G54D28*X341000Y24729D02*X342600D01*
X341000Y20829D02*X342600D01*
X341000Y16929D02*X342600D01*
G54D35*X333350Y70610D02*X339850D01*
X333350Y65610D02*X339850D01*
X333350Y60610D02*X339850D01*
G54D39*X245275Y136811D02*Y132086D01*
G54D27*X255316Y140749D02*X256102D01*
X255316Y147835D02*X256102D01*
G54D39*X237401Y136811D02*Y132086D01*
X229527Y136417D02*Y131693D01*
X221653Y136417D02*Y131693D01*
X213779Y136417D02*Y131693D01*
X205905Y136417D02*Y131693D01*
X198031Y136417D02*Y131693D01*
X190157Y136417D02*Y131693D01*
G54D35*X261437Y137488D02*Y130988D01*
X266437Y137488D02*Y130988D01*
X271437Y137488D02*Y130988D01*
X276437Y137488D02*Y130988D01*
X281437Y137488D02*Y130988D01*
X286437Y137488D02*Y130988D01*
X291437Y137488D02*Y130988D01*
X296437Y137488D02*Y130988D01*
Y157988D02*Y151488D01*
X291437Y157988D02*Y151488D01*
X286437Y157988D02*Y151488D01*
X281437Y157988D02*Y151488D01*
X276437Y157988D02*Y151488D01*
X271437Y157988D02*Y151488D01*
X266437Y157988D02*Y151488D01*
X261437Y157988D02*Y151488D01*
G54D39*X245275Y198622D02*Y193897D01*
G54D27*X255513Y185039D02*X256299D01*
G54D35*X263799Y194996D02*Y188496D01*
G54D39*X237401Y198622D02*Y193897D01*
X229527Y198228D02*Y193504D01*
X221653Y198228D02*Y193504D01*
X213779Y198228D02*Y193504D01*
X205905Y198228D02*Y193504D01*
X198031Y198228D02*Y193504D01*
X190157Y198228D02*Y193504D01*
G54D27*X255513Y177953D02*X256299D01*
G54D35*X263799Y174496D02*Y167996D01*
X268799Y174496D02*Y167996D01*
X273799Y174496D02*Y167996D01*
X278799Y174496D02*Y167996D01*
X283799Y174496D02*Y167996D01*
Y194996D02*Y188496D01*
X278799Y194996D02*Y188496D01*
X273799Y194996D02*Y188496D01*
X268799Y194996D02*Y188496D01*
X288799Y174496D02*Y167996D01*
X293799Y174496D02*Y167996D01*
X298799Y174496D02*Y167996D01*
Y194996D02*Y188496D01*
X293799Y194996D02*Y188496D01*
X288799Y194996D02*Y188496D01*
G54D27*X231497Y92913D02*X232283D01*
X204331Y90747D02*Y89961D01*
X211417Y90747D02*Y89961D01*
X231497Y99999D02*X232283D01*
X203938Y99606D02*Y98820D01*
X211024Y99606D02*Y98820D01*
X209450Y111615D02*X210236D01*
X209450Y118701D02*X210236D01*
X216537Y111615D02*X217323D01*
X216537Y118701D02*X217323D01*
G54D40*X379134Y203346D03*
X370866Y203543D03*
X281299Y141339D03*
X286417D03*
X291339D03*
X276378D03*
X328150Y143898D03*
G54D25*X370866Y113583D03*
G54D40*X355906Y108661D03*
G54D25*X316535Y109449D03*
X332874Y109646D03*
G54D40*X363189Y135236D03*
X362795Y125984D03*
X363583Y141732D03*
X372244Y143898D03*
X366732Y151181D03*
X364567Y155315D03*
X355906Y153346D03*
X335433Y148622D03*
X276378Y147441D03*
X271457D03*
X281496Y161220D03*
X253740Y157874D03*
X265748Y162795D03*
X286417Y161220D03*
G54D25*X307480Y174409D03*
G54D40*X273819Y180315D03*
X268701D03*
X255906Y171850D03*
X278543Y180512D03*
G54D25*X252165Y196063D03*
G54D40*X283661Y180512D03*
X197638Y174409D03*
X225787Y162795D03*
X211220Y147244D03*
X213189Y159449D03*
X198031Y184449D03*
X221654Y185039D03*
X229528Y185236D03*
X346063Y182283D03*
X336024Y182677D03*
X343504Y186417D03*
X341535Y156496D03*
X334252Y155709D03*
X378346Y151969D03*
X363780Y185039D03*
X357283Y193307D03*
X361417Y190354D03*
X353150Y181496D03*
X353937Y196850D03*
X366929Y193701D03*
X362795Y197441D03*
G54D25*X320276Y27953D03*
G54D40*X322638Y34055D03*
X348819Y51181D03*
X371260Y59449D03*
G54D25*X357087Y31102D03*
G54D40*X312205Y73228D03*
X371654Y78937D03*
X376772Y79134D03*
X236614Y71260D03*
X235433Y53150D03*
X237402Y64173D03*
X237795Y48819D03*
X312205Y42520D03*
G54D25*X253150Y55118D03*
G54D40*X253543Y46063D03*
X272047Y39370D03*
X268504Y27559D03*
X272047Y62598D03*
X191339Y73622D03*
X207087Y71260D03*
Y61811D03*
X225394Y31496D03*
X225787Y82874D03*
X228346Y87205D03*
X271457Y125591D03*
X295079Y125787D03*
X284449Y116929D03*
X266535Y125591D03*
X257283Y123031D03*
X244685Y144882D03*
Y151772D03*
X225787Y146457D03*
G54D25*X246654Y123031D03*
G54D40*X226181Y122835D03*
X216339Y99606D03*
X216535Y124606D03*
X238976Y108071D03*
X226969Y104134D03*
G54D41*G54D42*G54D41*G54D42*G54D41*G54D42*G54D41*G54D42*G54D41*G54D42*G54D41*G54D42*G54D41*G54D42*G54D41*G54D42*G54D41*G54D43*G54D44*M02*
