M48
INCH
T49C0.035
T48C0.020
T47C0.035
T46C0.038
%
T48
X019134Y007362
X019764Y017441
X019803Y018445
X020709Y007126
X020709Y006181
X021122Y014724
X021319Y015945
X021634Y009961
X021654Y012461
X022165Y018504
X022539Y003150
X022579Y016280
X022579Y014646
X022579Y008287
X022618Y012283
X022697Y010413
X022835Y008720
X022953Y018524
X023543Y005315
X023661Y007126
X023740Y006417
X023780Y004882
X023898Y010807
X024469Y015177
X024469Y014488
X025354Y004606
X025374Y015787
X025591Y017185
X025728Y012303
X026575Y016280
X026654Y012559
X026850Y002756
X026870Y018031
X027146Y014744
X027146Y012559
X027205Y006260
X027205Y003937
X027382Y018031
X027638Y014744
X027638Y014134
X027854Y018051
X028130Y014134
X028150Y016122
X028366Y018051
X028445Y011693
X028642Y016122
X028642Y014134
X029134Y014134
X029508Y012579
X031220Y007323
X031220Y004252
X032264Y003406
X032815Y014390
X033425Y015571
X033543Y014862
X033602Y018268
X034154Y015650
X034350Y018642
X034606Y018228
X034882Y005118
X035315Y018150
X035394Y019685
X035591Y015335
X035591Y010866
X035728Y019331
X036142Y019035
X036280Y019744
X036280Y012598
X036319Y013524
X036358Y014173
X036378Y018504
X036457Y015531
X036673Y015118
X036693Y019370
X037087Y020354
X037126Y005945
X037165Y007894
X037224Y014390
X037677Y007913
X037835Y015197
X037913Y020335
T49
X024665Y012303
X025217Y019606
X025315Y005512
X030748Y017441
X031654Y010945
X032028Y002795
X033287Y010965
X035709Y003110
X037087Y011358
T47
X020433Y004291
X020433Y002559
T46
X019528Y011969
X019528Y010969
X019528Y009969
X019528Y008969
X019528Y007969
X031913Y001811
X032913Y001811
M30
