G04 start of page 8 for group -4079 idx -4079 *
G04 Title: (unknown), topsilk *
G04 Creator: pcb 20140316 *
G04 CreationDate: Sun 15 Feb 2015 03:48:22 PM GMT UTC *
G04 For: jeroen *
G04 Format: Gerber/RS-274X *
G04 PCB-Dimensions (mil): 6000.00 5000.00 *
G04 PCB-Coordinate-Origin: lower left *
%MOIN*%
%FSLAX25Y25*%
%LNTOPSILK*%
%ADD73C,0.0150*%
%ADD72C,0.0080*%
%ADD71C,0.0118*%
%ADD70C,0.0100*%
%ADD69C,0.0060*%
G54D69*X260433Y121019D02*X261933D01*
X260433Y118819D02*X262433D01*
X260433Y122819D02*Y118819D01*
Y122819D02*X262433D01*
X263633Y120819D02*X265633D01*
X266833Y121819D02*Y121719D01*
Y120319D02*Y118819D01*
X268333Y120319D02*Y118819D01*
Y120319D02*X268833Y120819D01*
X269333D01*
X269833Y120319D01*
Y118819D01*
X267833Y120819D02*X268333Y120319D01*
X271033Y122819D02*Y118819D01*
Y120319D02*X272533Y118819D01*
X271033Y120319D02*X272033Y121319D01*
X276033Y120819D02*X277533D01*
X275533Y120319D02*X276033Y120819D01*
X275533Y120319D02*Y119319D01*
X276033Y118819D01*
X277533D01*
X278733Y120319D02*Y119319D01*
Y120319D02*X279233Y120819D01*
X280233D01*
X280733Y120319D01*
Y119319D01*
X280233Y118819D02*X280733Y119319D01*
X279233Y118819D02*X280233D01*
X278733Y119319D02*X279233Y118819D01*
X282433Y120319D02*Y118819D01*
Y120319D02*X282933Y120819D01*
X283433D01*
X283933Y120319D01*
Y118819D01*
X281933Y120819D02*X282433Y120319D01*
X285633Y122819D02*Y119319D01*
X286133Y118819D01*
X285133Y121319D02*X286133D01*
X287633Y120319D02*Y118819D01*
Y120319D02*X288133Y120819D01*
X289133D01*
X287133D02*X287633Y120319D01*
X290333D02*Y119319D01*
Y120319D02*X290833Y120819D01*
X291833D01*
X292333Y120319D01*
Y119319D01*
X291833Y118819D02*X292333Y119319D01*
X290833Y118819D02*X291833D01*
X290333Y119319D02*X290833Y118819D01*
X293533Y122819D02*Y119319D01*
X294033Y118819D01*
X295033Y122819D02*Y119319D01*
X295533Y118819D01*
X297033D02*X298533D01*
X296533Y119319D02*X297033Y118819D01*
X296533Y120319D02*Y119319D01*
Y120319D02*X297033Y120819D01*
X298033D01*
X298533Y120319D01*
X296533Y119819D02*X298533D01*
Y120319D02*Y119819D01*
X300233Y120319D02*Y118819D01*
Y120319D02*X300733Y120819D01*
X301733D01*
X299733D02*X300233Y120319D01*
X250228Y115535D02*X250728Y115035D01*
X248728Y115535D02*X250228D01*
X248228Y115035D02*X248728Y115535D01*
X248228Y115035D02*Y114035D01*
X248728Y113535D01*
X250228D01*
X250728Y113035D01*
Y112035D01*
X250228Y111535D02*X250728Y112035D01*
X248728Y111535D02*X250228D01*
X248228Y112035D02*X248728Y111535D01*
X252428Y113035D02*Y110035D01*
X251928Y113535D02*X252428Y113035D01*
X252928Y113535D01*
X253928D01*
X254428Y113035D01*
Y112035D01*
X253928Y111535D02*X254428Y112035D01*
X252928Y111535D02*X253928D01*
X252428Y112035D02*X252928Y111535D01*
X256128Y113035D02*Y111535D01*
Y113035D02*X256628Y113535D01*
X257628D01*
X255628D02*X256128Y113035D01*
X258828Y114535D02*Y114435D01*
Y113035D02*Y111535D01*
X260328Y115535D02*Y112035D01*
X260828Y111535D01*
X259828Y114035D02*X260828D01*
X262328Y111535D02*X263828D01*
X261828Y112035D02*X262328Y111535D01*
X261828Y113035D02*Y112035D01*
Y113035D02*X262328Y113535D01*
X263328D01*
X263828Y113035D01*
X261828Y112535D02*X263828D01*
Y113035D02*Y112535D01*
X265528Y111535D02*X267028D01*
X267528Y112035D01*
X267028Y112535D02*X267528Y112035D01*
X265528Y112535D02*X267028D01*
X265028Y113035D02*X265528Y112535D01*
X265028Y113035D02*X265528Y113535D01*
X267028D01*
X267528Y113035D01*
X265028Y112035D02*X265528Y111535D01*
X268728Y115535D02*Y111535D01*
Y115535D02*X270228Y113535D01*
X271728Y115535D01*
Y111535D01*
X272928Y113035D02*Y112035D01*
Y113035D02*X273428Y113535D01*
X274428D01*
X274928Y113035D01*
Y112035D01*
X274428Y111535D02*X274928Y112035D01*
X273428Y111535D02*X274428D01*
X272928Y112035D02*X273428Y111535D01*
X278128Y115535D02*Y111535D01*
X277628D02*X278128Y112035D01*
X276628Y111535D02*X277628D01*
X276128Y112035D02*X276628Y111535D01*
X276128Y113035D02*Y112035D01*
Y113035D02*X276628Y113535D01*
X277628D01*
X278128Y113035D01*
X279828Y111535D02*X281328D01*
X281828Y112035D01*
X281328Y112535D02*X281828Y112035D01*
X279828Y112535D02*X281328D01*
X279328Y113035D02*X279828Y112535D01*
X279328Y113035D02*X279828Y113535D01*
X281328D01*
X281828Y113035D01*
X279328Y112035D02*X279828Y111535D01*
X283028D02*X283528D01*
X285228Y113535D02*X286728D01*
X284728Y113035D02*X285228Y113535D01*
X284728Y113035D02*Y112035D01*
X285228Y111535D01*
X286728D01*
X287928Y113035D02*Y112035D01*
Y113035D02*X288428Y113535D01*
X289428D01*
X289928Y113035D01*
Y112035D01*
X289428Y111535D02*X289928Y112035D01*
X288428Y111535D02*X289428D01*
X287928Y112035D02*X288428Y111535D01*
X291628Y113035D02*Y111535D01*
Y113035D02*X292128Y113535D01*
X292628D01*
X293128Y113035D01*
Y111535D01*
Y113035D02*X293628Y113535D01*
X294128D01*
X294628Y113035D01*
Y111535D01*
X291128Y113535D02*X291628Y113035D01*
X297628Y115035D02*X298128Y115535D01*
X299628D01*
X300128Y115035D01*
Y114035D01*
X297628Y111535D02*X300128Y114035D01*
X297628Y111535D02*X300128D01*
X301328Y112035D02*X301828Y111535D01*
X301328Y115035D02*Y112035D01*
Y115035D02*X301828Y115535D01*
X302828D01*
X303328Y115035D01*
Y112035D01*
X302828Y111535D02*X303328Y112035D01*
X301828Y111535D02*X302828D01*
X301328Y112535D02*X303328Y114535D01*
X304528Y114735D02*X305328Y115535D01*
Y111535D01*
X304528D02*X306028D01*
X307228Y115535D02*X309228D01*
X307228D02*Y113535D01*
X307728Y114035D01*
X308728D01*
X309228Y113535D01*
Y112035D01*
X308728Y111535D02*X309228Y112035D01*
X307728Y111535D02*X308728D01*
X307228Y112035D02*X307728Y111535D01*
X316339Y24953D02*X318339D01*
X317339Y25953D02*Y23953D01*
X328150Y24953D02*X330150D01*
G54D70*X366988Y133047D02*Y119147D01*
X379788D01*
Y133047D01*
X366988D01*
G54D71*X382677Y165945D02*Y171850D01*
X380709Y165945D02*X382677D01*
X380709Y163189D02*Y165945D01*
X379134Y163189D02*X380709D01*
X330709Y165945D02*Y171850D01*
Y165945D02*X332677D01*
Y163189D02*Y165945D01*
Y163189D02*X334252D01*
G54D72*X356301Y21652D02*Y20866D01*
X361811Y21652D02*Y20866D01*
X371653Y46850D02*Y46064D01*
X366143Y46850D02*Y46064D01*
X379133Y46850D02*Y46064D01*
X373623Y46850D02*Y46064D01*
G54D70*X331350Y54776D02*Y35776D01*
X362350D01*
Y54776D01*
X331350D02*X344350D01*
X362350D02*X349350D01*
X344350D02*G75*G03X349350Y54776I2500J0D01*G01*
X339000Y14929D02*X352900D01*
Y26729D02*Y14929D01*
X339000Y26729D02*X352900D01*
X339000D02*Y14929D01*
X331350Y98870D02*Y79870D01*
X362350D01*
Y98870D01*
X331350D02*X344350D01*
X362350D02*X349350D01*
X344350D02*G75*G03X349350Y98870I2500J0D01*G01*
X366142Y105906D02*X378346D01*
Y93307D01*
X366142D01*
Y105906D01*
X372244Y102165D02*G75*G03X369685Y99606I0J-2559D01*G01*
G75*G03X372244Y97047I2559J0D01*G01*
G75*G03X374803Y99606I0J2559D01*G01*
G75*G03X372244Y102165I-2559J0D01*G01*
G54D72*X371654Y88582D02*X372440D01*
X371654Y83072D02*X372440D01*
X372046Y69684D02*Y68898D01*
X366536Y69684D02*Y68898D01*
X379133Y69684D02*Y68898D01*
X373623Y69684D02*Y68898D01*
G54D70*X331350Y77610D02*Y58610D01*
X362350D01*
Y77610D01*
X331350D02*X344350D01*
X362350D02*X349350D01*
X344350D02*G75*G03X349350Y77610I2500J0D01*G01*
G54D72*X352757Y117519D02*Y116733D01*
X358267Y117519D02*Y116733D01*
X346065Y117519D02*Y116733D01*
X351575Y117519D02*Y116733D01*
X321260Y134252D02*X325984D01*
X321260Y126772D02*X325984D01*
X321260Y125590D02*X325984D01*
X321260Y118110D02*X325984D01*
G54D70*X156693Y133267D02*X251181D01*
Y197047D02*Y133267D01*
X156693Y197047D02*Y133267D01*
Y197047D02*X251181D01*
X179134D02*Y133267D01*
X200276Y124685D02*Y74685D01*
X190276Y124685D02*X200276D01*
X190276D02*Y74685D01*
X200276D01*
X190276Y84685D02*X200276D01*
X190276D02*Y74685D01*
G54D72*X229135Y96849D02*Y96063D01*
X234645Y96849D02*Y96063D01*
X207088Y101968D02*X207874D01*
X207088Y96458D02*X207874D01*
X207481Y93109D02*X208267D01*
X207481Y87599D02*X208267D01*
X207088Y115551D02*Y114765D01*
X212598Y115551D02*Y114765D01*
X214175Y115551D02*Y114765D01*
X219685Y115551D02*Y114765D01*
X204332Y80511D02*Y79725D01*
X209842Y80511D02*Y79725D01*
G54D70*X259437Y128988D02*X298437D01*
Y159988D02*Y128988D01*
X259437Y159988D02*X298437D01*
X259437Y141988D02*Y128988D01*
Y159988D02*Y146988D01*
Y141988D02*G75*G03X259437Y146988I0J2500D01*G01*
G54D72*X253151Y181889D02*Y181103D01*
X258661Y181889D02*Y181103D01*
G54D70*X261799Y165996D02*X300799D01*
Y196996D02*Y165996D01*
X261799Y196996D02*X300799D01*
X261799Y178996D02*Y165996D01*
Y196996D02*Y183996D01*
Y178996D02*G75*G03X261799Y183996I0J2500D01*G01*
G54D72*X252954Y144685D02*Y143899D01*
X258464Y144685D02*Y143899D01*
X223623Y79920D02*X224409D01*
X223623Y74410D02*X224409D01*
G54D70*X211047Y60205D02*X224947D01*
Y72005D02*Y60205D01*
X211047Y72005D02*X224947D01*
X211047D02*Y60205D01*
G54D72*X188191Y65747D02*Y64961D01*
Y64960D02*X193700D01*
X193701Y65747D02*Y64961D01*
X200786Y65748D02*Y64962D01*
X195276Y65748D02*Y64962D01*
X227757Y49999D02*X228543D01*
X227757Y44489D02*X228543D01*
G54D70*X219291Y47047D02*Y42717D01*
Y25984D02*Y22441D01*
X198819Y19094D02*X208465D01*
X181299Y49409D02*X187205D01*
X181299Y19094D02*X187205D01*
X198819Y49409D02*X208858D01*
X181299D02*Y19094D01*
G54D72*X314960Y34251D02*Y33465D01*
X309450Y34251D02*Y33465D01*
X332481Y34251D02*X333267D01*
X332481Y28741D02*X333267D01*
G54D70*X314134Y13110D02*X334134D01*
Y23110D01*
X314134D02*X334134D01*
X314134Y13110D02*Y23110D01*
X324134Y13110D02*Y23110D01*
X314134D02*X324134D01*
G54D72*X305905Y35826D02*Y35040D01*
X300395Y35826D02*Y35040D01*
X314960Y65354D02*Y64568D01*
X309450Y65354D02*Y64568D01*
X314960Y82283D02*Y81497D01*
X309450Y82283D02*Y81497D01*
X314960Y51574D02*Y50788D01*
X309450Y51574D02*Y50788D01*
X305101Y89755D02*Y88969D01*
X299591Y89755D02*Y88969D01*
G54D70*X269685Y85827D02*Y72835D01*
Y85827D02*X295669D01*
X285039D02*Y72835D01*
X295669Y85827D02*Y72835D01*
X269685D01*
G54D72*X281103Y65353D02*X281889D01*
X281103Y59843D02*X281889D01*
G54D70*X295669Y101181D02*Y88189D01*
X269685D02*X295669D01*
X280315Y101181D02*Y88189D01*
X269685Y101181D02*Y88189D01*
Y101181D02*X295669D01*
G54D72*X257481Y98818D02*X258267D01*
X257481Y93308D02*X258267D01*
G54D70*X269154Y57457D02*Y43557D01*
X281954D01*
Y57457D01*
X269154D01*
G54D73*X242126Y90945D02*X265748D01*
Y67323D01*
X242126D01*
Y90945D02*Y67323D01*
G54D70*X242816Y60758D02*X252016D01*
X255816D02*X265116D01*
Y48958D01*
X242816D01*
Y60758D01*
X252016D02*G75*G03X255816Y60758I1900J0D01*G01*
X271260Y35039D02*Y22047D01*
Y35039D02*X297244D01*
X286614D02*Y22047D01*
X297244Y35039D02*Y22047D01*
X271260D01*
G54D73*X241339Y42913D02*X264961D01*
Y19291D01*
X241339D01*
Y42913D02*Y19291D01*
G54D72*X279922Y41928D02*X280708D01*
X279922Y36418D02*X280708D01*
G54D69*X365772Y138950D02*Y135950D01*
Y138950D02*X366272Y139450D01*
X367272D01*
X367772Y138950D01*
Y136450D01*
X366772Y135450D02*X367772Y136450D01*
X366272Y135450D02*X366772D01*
X365772Y135950D02*X366272Y135450D01*
X366772Y136950D02*X367772Y135450D01*
X368972Y138950D02*X369472Y139450D01*
X370972D01*
X371472Y138950D01*
Y137950D01*
X368972Y135450D02*X371472Y137950D01*
X368972Y135450D02*X371472D01*
X374016Y112189D02*X375016Y108189D01*
X376016Y112189D01*
X377216D02*X379216D01*
X379716Y111689D01*
Y110689D01*
X379216Y110189D02*X379716Y110689D01*
X377716Y110189D02*X379216D01*
X377716Y112189D02*Y108189D01*
X378516Y110189D02*X379716Y108189D01*
X380916Y111389D02*X381716Y112189D01*
Y108189D01*
X380916D02*X382416D01*
X317039Y168228D02*X318339D01*
X316339Y168928D02*X317039Y168228D01*
X316339Y171528D02*Y168928D01*
Y171528D02*X317039Y172228D01*
X318339D01*
X319539Y171728D02*Y168728D01*
Y171728D02*X320039Y172228D01*
X321039D01*
X321539Y171728D01*
Y168728D01*
X321039Y168228D02*X321539Y168728D01*
X320039Y168228D02*X321039D01*
X319539Y168728D02*X320039Y168228D01*
X322739Y172228D02*Y168228D01*
Y172228D02*X325239Y168228D01*
Y172228D02*Y168228D01*
X326439Y171428D02*X327239Y172228D01*
Y168228D01*
X326439D02*X327939D01*
X301543Y148504D02*X302543D01*
X302043D02*Y144504D01*
X301543D02*X302543D01*
X304443D02*X305743D01*
X303743Y145204D02*X304443Y144504D01*
X303743Y147804D02*Y145204D01*
Y147804D02*X304443Y148504D01*
X305743D01*
X306943Y145004D02*X307443Y144504D01*
X306943Y145804D02*Y145004D01*
Y145804D02*X307643Y146504D01*
X308243D01*
X308943Y145804D01*
Y145004D01*
X308443Y144504D02*X308943Y145004D01*
X307443Y144504D02*X308443D01*
X306943Y147204D02*X307643Y146504D01*
X306943Y148004D02*Y147204D01*
Y148004D02*X307443Y148504D01*
X308443D01*
X308943Y148004D01*
Y147204D01*
X308243Y146504D02*X308943Y147204D01*
X304102Y186496D02*X305102D01*
X304602D02*Y182496D01*
X304102D02*X305102D01*
X307002D02*X308302D01*
X306302Y183196D02*X307002Y182496D01*
X306302Y185796D02*Y183196D01*
Y185796D02*X307002Y186496D01*
X308302D01*
X310002Y182496D02*X312002Y186496D01*
X309502D02*X312002D01*
X334558Y120000D02*X335858D01*
X333858Y120700D02*X334558Y120000D01*
X333858Y123300D02*Y120700D01*
Y123300D02*X334558Y124000D01*
X335858D01*
X337058Y123200D02*X337858Y124000D01*
Y120000D01*
X337058D02*X338558D01*
X341258Y124000D02*X341758Y123500D01*
X340258Y124000D02*X341258D01*
X339758Y123500D02*X340258Y124000D01*
X339758Y123500D02*Y120500D01*
X340258Y120000D01*
X341258Y122200D02*X341758Y121700D01*
X339758Y122200D02*X341258D01*
X340258Y120000D02*X341258D01*
X341758Y120500D01*
Y121700D02*Y120500D01*
X231102Y79512D02*X233102D01*
X233602Y79012D01*
Y78012D01*
X233102Y77512D02*X233602Y78012D01*
X231602Y77512D02*X233102D01*
X231602Y79512D02*Y75512D01*
X232402Y77512D02*X233602Y75512D01*
X234802Y78712D02*X235602Y79512D01*
Y75512D01*
X234802D02*X236302D01*
X237502Y76012D02*X238002Y75512D01*
X237502Y79012D02*Y76012D01*
Y79012D02*X238002Y79512D01*
X239002D01*
X239502Y79012D01*
Y76012D01*
X239002Y75512D02*X239502Y76012D01*
X238002Y75512D02*X239002D01*
X237502Y76512D02*X239502Y78512D01*
X226102Y66040D02*X226992D01*
X226547D02*Y62480D01*
X226102D02*X226992D01*
X228683D02*X229840D01*
X228060Y63103D02*X228683Y62480D01*
X228060Y65417D02*Y63103D01*
Y65417D02*X228683Y66040D01*
X229840D01*
X232243D02*X232688Y65595D01*
X231353Y66040D02*X232243D01*
X230908Y65595D02*X231353Y66040D01*
X230908Y65595D02*Y62925D01*
X231353Y62480D01*
X232243Y64438D02*X232688Y63993D01*
X230908Y64438D02*X232243D01*
X231353Y62480D02*X232243D01*
X232688Y62925D01*
Y63993D02*Y62925D01*
X227756Y126334D02*X229256D01*
X227756Y124134D02*X229756D01*
X227756Y128134D02*Y124134D01*
Y128134D02*X229756D01*
X232956D02*X233456Y127634D01*
X231456Y128134D02*X232956D01*
X230956Y127634D02*X231456Y128134D01*
X230956Y127634D02*Y126634D01*
X231456Y126134D01*
X232956D01*
X233456Y125634D01*
Y124634D01*
X232956Y124134D02*X233456Y124634D01*
X231456Y124134D02*X232956D01*
X230956Y124634D02*X231456Y124134D01*
X235156Y128134D02*Y124134D01*
X234656Y128134D02*X236656D01*
X237156Y127634D01*
Y126634D01*
X236656Y126134D02*X237156Y126634D01*
X235156Y126134D02*X236656D01*
X238356Y127334D02*X239156Y128134D01*
Y124134D01*
X238356D02*X239856D01*
X241056Y127634D02*X241556Y128134D01*
X243056D01*
X243556Y127634D01*
Y126634D01*
X241056Y124134D02*X243556Y126634D01*
X241056Y124134D02*X243556D01*
X227362Y89355D02*X229362D01*
X229862Y88855D01*
Y87855D01*
X229362Y87355D02*X229862Y87855D01*
X227862Y87355D02*X229362D01*
X227862Y89355D02*Y85355D01*
X228662Y87355D02*X229862Y85355D01*
X231062Y88555D02*X231862Y89355D01*
Y85355D01*
X231062D02*X232562D01*
X233762Y88555D02*X234562Y89355D01*
Y85355D01*
X233762D02*X235262D01*
X221960Y14291D02*X223260D01*
X221260Y14991D02*X221960Y14291D01*
X221260Y17591D02*Y14991D01*
Y17591D02*X221960Y18291D01*
X223260D01*
X224460Y17791D02*Y14791D01*
Y17791D02*X224960Y18291D01*
X225960D01*
X226460Y17791D01*
Y14791D01*
X225960Y14291D02*X226460Y14791D01*
X224960Y14291D02*X225960D01*
X224460Y14791D02*X224960Y14291D01*
X227660Y18291D02*Y14291D01*
Y18291D02*X230160Y14291D01*
Y18291D02*Y14291D01*
X231360Y17491D02*X232160Y18291D01*
Y14291D01*
X231360D02*X232860D01*
X243701Y97031D02*Y93031D01*
X245701D01*
X246901Y96231D02*X247701Y97031D01*
Y93031D01*
X246901D02*X248401D01*
X215354Y95063D02*X217354D01*
X217854Y94563D01*
Y93563D01*
X217354Y93063D02*X217854Y93563D01*
X215854Y93063D02*X217354D01*
X215854Y95063D02*Y91063D01*
X216654Y93063D02*X217854Y91063D01*
X219054Y94263D02*X219854Y95063D01*
Y91063D01*
X219054D02*X220554D01*
X221754Y94563D02*X222254Y95063D01*
X223754D01*
X224254Y94563D01*
Y93563D01*
X221754Y91063D02*X224254Y93563D01*
X221754Y91063D02*X224254D01*
X211920Y81615D02*X213220D01*
X211220Y82315D02*X211920Y81615D01*
X211220Y84915D02*Y82315D01*
Y84915D02*X211920Y85615D01*
X213220D01*
X214420Y84815D02*X215220Y85615D01*
Y81615D01*
X214420D02*X215920D01*
X217120Y85115D02*X217620Y85615D01*
X219120D01*
X219620Y85115D01*
Y84115D01*
X217120Y81615D02*X219620Y84115D01*
X217120Y81615D02*X219620D01*
X255424Y100906D02*X256724D01*
X254724Y101606D02*X255424Y100906D01*
X254724Y104206D02*Y101606D01*
Y104206D02*X255424Y104906D01*
X256724D01*
X257924Y104106D02*X258724Y104906D01*
Y100906D01*
X257924D02*X259424D01*
X243667Y65939D02*X244667D01*
X244167D02*Y61939D01*
X243667D02*X244667D01*
X246567D02*X247867D01*
X245867Y62639D02*X246567Y61939D01*
X245867Y65239D02*Y62639D01*
Y65239D02*X246567Y65939D01*
X247867D01*
X249067Y65139D02*X249867Y65939D01*
Y61939D01*
X249067D02*X250567D01*
X224125Y52284D02*X225425D01*
X223425Y52984D02*X224125Y52284D01*
X223425Y55584D02*Y52984D01*
Y55584D02*X224125Y56284D01*
X225425D01*
X226625Y55484D02*X227425Y56284D01*
Y52284D01*
X226625D02*X228125D01*
X229325Y55484D02*X230125Y56284D01*
Y52284D01*
X229325D02*X230825D01*
X200303Y55497D02*Y51497D01*
X201603Y55497D02*X202303Y54797D01*
Y52197D01*
X201603Y51497D02*X202303Y52197D01*
X199803Y51497D02*X201603D01*
X199803Y55497D02*X201603D01*
X203503Y52997D02*X205503Y55497D01*
X203503Y52997D02*X206003D01*
X205503Y55497D02*Y51497D01*
X201968Y59631D02*X203968D01*
X204468Y59131D01*
Y58131D01*
X203968Y57631D02*X204468Y58131D01*
X202468Y57631D02*X203968D01*
X202468Y59631D02*Y55631D01*
X203268Y57631D02*X204468Y55631D01*
X206168D02*X207668Y57631D01*
Y59131D02*Y57631D01*
X207168Y59631D02*X207668Y59131D01*
X206168Y59631D02*X207168D01*
X205668Y59131D02*X206168Y59631D01*
X205668Y59131D02*Y58131D01*
X206168Y57631D01*
X207668D01*
X202157Y104031D02*X203457D01*
X201457Y104731D02*X202157Y104031D01*
X201457Y107331D02*Y104731D01*
Y107331D02*X202157Y108031D01*
X203457D01*
X204657Y107531D02*Y104531D01*
Y107531D02*X205157Y108031D01*
X206157D01*
X206657Y107531D01*
Y104531D01*
X206157Y104031D02*X206657Y104531D01*
X205157Y104031D02*X206157D01*
X204657Y104531D02*X205157Y104031D01*
X207857Y108031D02*Y104031D01*
Y108031D02*X210357Y104031D01*
Y108031D02*Y104031D01*
X211557Y107531D02*X212057Y108031D01*
X213057D01*
X213557Y107531D01*
X213057Y104031D02*X213557Y104531D01*
X212057Y104031D02*X213057D01*
X211557Y104531D02*X212057Y104031D01*
Y106231D02*X213057D01*
X213557Y107531D02*Y106731D01*
Y105731D02*Y104531D01*
Y105731D02*X213057Y106231D01*
X213557Y106731D02*X213057Y106231D01*
X215551Y107071D02*X217551D01*
X218051Y106571D01*
Y105571D01*
X217551Y105071D02*X218051Y105571D01*
X216051Y105071D02*X217551D01*
X216051Y107071D02*Y103071D01*
X216851Y105071D02*X218051Y103071D01*
X219251Y106271D02*X220051Y107071D01*
Y103071D01*
X219251D02*X220751D01*
X221951Y106571D02*X222451Y107071D01*
X223451D01*
X223951Y106571D01*
X223451Y103071D02*X223951Y103571D01*
X222451Y103071D02*X223451D01*
X221951Y103571D02*X222451Y103071D01*
Y105271D02*X223451D01*
X223951Y106571D02*Y105771D01*
Y104771D02*Y103571D01*
Y104771D02*X223451Y105271D01*
X223951Y105771D02*X223451Y105271D01*
X203936Y126953D02*X205936D01*
X206436Y126453D01*
Y125453D01*
X205936Y124953D02*X206436Y125453D01*
X204436Y124953D02*X205936D01*
X204436Y126953D02*Y122953D01*
X205236Y124953D02*X206436Y122953D01*
X207636Y126153D02*X208436Y126953D01*
Y122953D01*
X207636D02*X209136D01*
X210336Y124453D02*X212336Y126953D01*
X210336Y124453D02*X212836D01*
X212336Y126953D02*Y122953D01*
X221849Y119276D02*X223849D01*
X224349Y118776D01*
Y117776D01*
X223849Y117276D02*X224349Y117776D01*
X222349Y117276D02*X223849D01*
X222349Y119276D02*Y115276D01*
X223149Y117276D02*X224349Y115276D01*
X225549Y118476D02*X226349Y119276D01*
Y115276D01*
X225549D02*X227049D01*
X228249Y119276D02*X230249D01*
X228249D02*Y117276D01*
X228749Y117776D01*
X229749D01*
X230249Y117276D01*
Y115776D01*
X229749Y115276D02*X230249Y115776D01*
X228749Y115276D02*X229749D01*
X228249Y115776D02*X228749Y115276D01*
X253061Y189882D02*X254361D01*
X252361Y190582D02*X253061Y189882D01*
X252361Y193182D02*Y190582D01*
Y193182D02*X253061Y193882D01*
X254361D01*
X255561Y193082D02*X256361Y193882D01*
Y189882D01*
X255561D02*X257061D01*
X258261Y193382D02*X258761Y193882D01*
X259761D01*
X260261Y193382D01*
X259761Y189882D02*X260261Y190382D01*
X258761Y189882D02*X259761D01*
X258261Y190382D02*X258761Y189882D01*
Y192082D02*X259761D01*
X260261Y193382D02*Y192582D01*
Y191582D02*Y190382D01*
Y191582D02*X259761Y192082D01*
X260261Y192582D02*X259761Y192082D01*
X253455Y161339D02*X254755D01*
X252755Y162039D02*X253455Y161339D01*
X252755Y164639D02*Y162039D01*
Y164639D02*X253455Y165339D01*
X254755D01*
X255955Y164539D02*X256755Y165339D01*
Y161339D01*
X255955D02*X257455D01*
X258655Y162839D02*X260655Y165339D01*
X258655Y162839D02*X261155D01*
X260655Y165339D02*Y161339D01*
X315551Y40339D02*X317551D01*
X318051Y39839D01*
Y38839D01*
X317551Y38339D02*X318051Y38839D01*
X316051Y38339D02*X317551D01*
X316051Y40339D02*Y36339D01*
X316851Y38339D02*X318051Y36339D01*
X319251Y37839D02*X321251Y40339D01*
X319251Y37839D02*X321751D01*
X321251Y40339D02*Y36339D01*
X279240Y20260D02*Y16260D01*
X280540Y20260D02*X281240Y19560D01*
Y16960D01*
X280540Y16260D02*X281240Y16960D01*
X278740Y16260D02*X280540D01*
X278740Y20260D02*X280540D01*
X282440Y19760D02*X282940Y20260D01*
X283940D01*
X284440Y19760D01*
X283940Y16260D02*X284440Y16760D01*
X282940Y16260D02*X283940D01*
X282440Y16760D02*X282940Y16260D01*
Y18460D02*X283940D01*
X284440Y19760D02*Y18960D01*
Y17960D02*Y16760D01*
Y17960D02*X283940Y18460D01*
X284440Y18960D02*X283940Y18460D01*
X298976Y14071D02*X300976D01*
X301476Y14571D01*
Y15771D02*Y14571D01*
X300976Y16271D02*X301476Y15771D01*
X299476Y16271D02*X300976D01*
X299476Y18071D02*Y14071D01*
X298976Y18071D02*X300976D01*
X301476Y17571D01*
Y16771D01*
X300976Y16271D02*X301476Y16771D01*
X302676Y17071D02*Y14071D01*
Y17071D02*X303376Y18071D01*
X304476D01*
X305176Y17071D01*
Y14071D01*
X302676Y16071D02*X305176D01*
X306376Y18071D02*X308376D01*
X307376D02*Y14071D01*
X309576Y17271D02*X310376Y18071D01*
Y14071D01*
X309576D02*X311076D01*
X301487Y24134D02*X302787D01*
X300787Y24834D02*X301487Y24134D01*
X300787Y27434D02*Y24834D01*
Y27434D02*X301487Y28134D01*
X302787D01*
X303987Y25634D02*X305987Y28134D01*
X303987Y25634D02*X306487D01*
X305987Y28134D02*Y24134D01*
X287401Y41520D02*X289401D01*
X289901Y41020D01*
Y40020D01*
X289401Y39520D02*X289901Y40020D01*
X287901Y39520D02*X289401D01*
X287901Y41520D02*Y37520D01*
X288701Y39520D02*X289901Y37520D01*
X291601D02*X293601Y41520D01*
X291101D02*X293601D01*
X324322Y36339D02*X325622D01*
X323622Y37039D02*X324322Y36339D01*
X323622Y39639D02*Y37039D01*
Y39639D02*X324322Y40339D01*
X325622D01*
X326822Y36839D02*X327322Y36339D01*
X326822Y37639D02*Y36839D01*
Y37639D02*X327522Y38339D01*
X328122D01*
X328822Y37639D01*
Y36839D01*
X328322Y36339D02*X328822Y36839D01*
X327322Y36339D02*X328322D01*
X326822Y39039D02*X327522Y38339D01*
X326822Y39839D02*Y39039D01*
Y39839D02*X327322Y40339D01*
X328322D01*
X328822Y39839D01*
Y39039D01*
X328122Y38339D02*X328822Y39039D01*
X319063Y51063D02*X320063D01*
X319563D02*Y47063D01*
X319063D02*X320063D01*
X321963D02*X323263D01*
X321263Y47763D02*X321963Y47063D01*
X321263Y50363D02*Y47763D01*
Y50363D02*X321963Y51063D01*
X323263D01*
X324463Y50563D02*X324963Y51063D01*
X325963D01*
X326463Y50563D01*
X325963Y47063D02*X326463Y47563D01*
X324963Y47063D02*X325963D01*
X324463Y47563D02*X324963Y47063D01*
Y49263D02*X325963D01*
X326463Y50563D02*Y49763D01*
Y48763D02*Y47563D01*
Y48763D02*X325963Y49263D01*
X326463Y49763D02*X325963Y49263D01*
X302362Y50181D02*X304362D01*
X304862Y49681D01*
Y48681D01*
X304362Y48181D02*X304862Y48681D01*
X302862Y48181D02*X304362D01*
X302862Y50181D02*Y46181D01*
X303662Y48181D02*X304862Y46181D01*
X306062Y49681D02*X306562Y50181D01*
X307562D01*
X308062Y49681D01*
X307562Y46181D02*X308062Y46681D01*
X306562Y46181D02*X307562D01*
X306062Y46681D02*X306562Y46181D01*
Y48381D02*X307562D01*
X308062Y49681D02*Y48881D01*
Y47881D02*Y46681D01*
Y47881D02*X307562Y48381D01*
X308062Y48881D02*X307562Y48381D01*
X301574Y66717D02*X303574D01*
X304074Y66217D01*
Y65217D01*
X303574Y64717D02*X304074Y65217D01*
X302074Y64717D02*X303574D01*
X302074Y66717D02*Y62717D01*
X302874Y64717D02*X304074Y62717D01*
X305274Y66217D02*X305774Y66717D01*
X307274D01*
X307774Y66217D01*
Y65217D01*
X305274Y62717D02*X307774Y65217D01*
X305274Y62717D02*X307774D01*
X302362Y80890D02*X304362D01*
X304862Y80390D01*
Y79390D01*
X304362Y78890D02*X304862Y79390D01*
X302862Y78890D02*X304362D01*
X302862Y80890D02*Y76890D01*
X303662Y78890D02*X304862Y76890D01*
X306062Y80090D02*X306862Y80890D01*
Y76890D01*
X306062D02*X307562D01*
X320638Y68583D02*X321638D01*
X321138D02*Y64583D01*
X320638D02*X321638D01*
X323538D02*X324838D01*
X322838Y65283D02*X323538Y64583D01*
X322838Y67883D02*Y65283D01*
Y67883D02*X323538Y68583D01*
X324838D01*
X326038Y68083D02*X326538Y68583D01*
X328038D01*
X328538Y68083D01*
Y67083D01*
X326038Y64583D02*X328538Y67083D01*
X326038Y64583D02*X328538D01*
X269398Y71441D02*Y67441D01*
X270698Y71441D02*X271398Y70741D01*
Y68141D01*
X270698Y67441D02*X271398Y68141D01*
X268898Y67441D02*X270698D01*
X268898Y71441D02*X270698D01*
X272598Y70941D02*X273098Y71441D01*
X274598D01*
X275098Y70941D01*
Y69941D01*
X272598Y67441D02*X275098Y69941D01*
X272598Y67441D02*X275098D01*
X283882Y56469D02*Y53469D01*
Y56469D02*X284382Y56969D01*
X285382D01*
X285882Y56469D01*
Y53969D01*
X284882Y52969D02*X285882Y53969D01*
X284382Y52969D02*X284882D01*
X283882Y53469D02*X284382Y52969D01*
X284882Y54469D02*X285882Y52969D01*
X287082Y56169D02*X287882Y56969D01*
Y52969D01*
X287082D02*X288582D01*
X299920Y97347D02*X301220D01*
X299220Y98047D02*X299920Y97347D01*
X299220Y100647D02*Y98047D01*
Y100647D02*X299920Y101347D01*
X301220D01*
X302420Y100847D02*X302920Y101347D01*
X304420D01*
X304920Y100847D01*
Y99847D01*
X302420Y97347D02*X304920Y99847D01*
X302420Y97347D02*X304920D01*
X278259Y66654D02*X279559D01*
X277559Y67354D02*X278259Y66654D01*
X277559Y69954D02*Y67354D01*
Y69954D02*X278259Y70654D01*
X279559D01*
X280759Y70154D02*X281259Y70654D01*
X282259D01*
X282759Y70154D01*
X282259Y66654D02*X282759Y67154D01*
X281259Y66654D02*X282259D01*
X280759Y67154D02*X281259Y66654D01*
Y68854D02*X282259D01*
X282759Y70154D02*Y69354D01*
Y68354D02*Y67154D01*
Y68354D02*X282259Y68854D01*
X282759Y69354D02*X282259Y68854D01*
X271366Y107661D02*Y103661D01*
X272666Y107661D02*X273366Y106961D01*
Y104361D01*
X272666Y103661D02*X273366Y104361D01*
X270866Y103661D02*X272666D01*
X270866Y107661D02*X272666D01*
X274566Y106861D02*X275366Y107661D01*
Y103661D01*
X274566D02*X276066D01*
X254921Y17504D02*Y13504D01*
X256921D01*
X258121Y17004D02*X258621Y17504D01*
X260121D01*
X260621Y17004D01*
Y16004D01*
X258121Y13504D02*X260621Y16004D01*
X258121Y13504D02*X260621D01*
X364282Y21969D02*X365582D01*
X363582Y22669D02*X364282Y21969D01*
X363582Y25269D02*Y22669D01*
Y25269D02*X364282Y25969D01*
X365582D01*
X367282Y21969D02*X369282Y25969D01*
X366782D02*X369282D01*
X367629Y34765D02*X368929D01*
X366929Y35465D02*X367629Y34765D01*
X366929Y38065D02*Y35465D01*
Y38065D02*X367629Y38765D01*
X368929D01*
X371629D02*X372129Y38265D01*
X370629Y38765D02*X371629D01*
X370129Y38265D02*X370629Y38765D01*
X370129Y38265D02*Y35265D01*
X370629Y34765D01*
X371629Y36965D02*X372129Y36465D01*
X370129Y36965D02*X371629D01*
X370629Y34765D02*X371629D01*
X372129Y35265D01*
Y36465D02*Y35265D01*
X374212Y38765D02*X376212D01*
X376712Y38265D01*
Y37265D01*
X376212Y36765D02*X376712Y37265D01*
X374712Y36765D02*X376212D01*
X374712Y38765D02*Y34765D01*
X375512Y36765D02*X376712Y34765D01*
X379412Y38765D02*X379912Y38265D01*
X378412Y38765D02*X379412D01*
X377912Y38265D02*X378412Y38765D01*
X377912Y38265D02*Y35265D01*
X378412Y34765D01*
X379412Y36965D02*X379912Y36465D01*
X377912Y36965D02*X379412D01*
X378412Y34765D02*X379412D01*
X379912Y35265D01*
Y36465D02*Y35265D01*
X346575Y31985D02*X347465D01*
X347020D02*Y28425D01*
X346575D02*X347465D01*
X349156D02*X350313D01*
X348533Y29048D02*X349156Y28425D01*
X348533Y31362D02*Y29048D01*
Y31362D02*X349156Y31985D01*
X350313D01*
X351381Y29760D02*X353161Y31985D01*
X351381Y29760D02*X353606D01*
X353161Y31985D02*Y28425D01*
X365070Y55827D02*X366370D01*
X364370Y56527D02*X365070Y55827D01*
X364370Y59127D02*Y56527D01*
Y59127D02*X365070Y59827D01*
X366370D01*
X367570D02*X369570D01*
X367570D02*Y57827D01*
X368070Y58327D01*
X369070D01*
X369570Y57827D01*
Y56327D01*
X369070Y55827D02*X369570Y56327D01*
X368070Y55827D02*X369070D01*
X367570Y56327D02*X368070Y55827D01*
X374015Y59827D02*X376015D01*
X376515Y59327D01*
Y58327D01*
X376015Y57827D02*X376515Y58327D01*
X374515Y57827D02*X376015D01*
X374515Y59827D02*Y55827D01*
X375315Y57827D02*X376515Y55827D01*
X377715Y59827D02*X379715D01*
X377715D02*Y57827D01*
X378215Y58327D01*
X379215D01*
X379715Y57827D01*
Y56327D01*
X379215Y55827D02*X379715Y56327D01*
X378215Y55827D02*X379215D01*
X377715Y56327D02*X378215Y55827D01*
X332055Y104803D02*X333055D01*
X332555D02*Y100803D01*
X332055D02*X333055D01*
X334955D02*X336255D01*
X334255Y101503D02*X334955Y100803D01*
X334255Y104103D02*Y101503D01*
Y104103D02*X334955Y104803D01*
X336255D01*
X337455D02*X339455D01*
X337455D02*Y102803D01*
X337955Y103303D01*
X338955D01*
X339455Y102803D01*
Y101303D01*
X338955Y100803D02*X339455Y101303D01*
X337955Y100803D02*X338955D01*
X337455Y101303D02*X337955Y100803D01*
X363582Y81284D02*X365582D01*
X366082Y80784D01*
Y79784D01*
X365582Y79284D02*X366082Y79784D01*
X364082Y79284D02*X365582D01*
X364082Y81284D02*Y77284D01*
X364882Y79284D02*X366082Y77284D01*
X367282Y77784D02*X367782Y77284D01*
X367282Y78584D02*Y77784D01*
Y78584D02*X367982Y79284D01*
X368582D01*
X369282Y78584D01*
Y77784D01*
X368782Y77284D02*X369282Y77784D01*
X367782Y77284D02*X368782D01*
X367282Y79984D02*X367982Y79284D01*
X367282Y80784D02*Y79984D01*
Y80784D02*X367782Y81284D01*
X368782D01*
X369282Y80784D01*
Y79984D01*
X368582Y79284D02*X369282Y79984D01*
X348534Y102678D02*X349834D01*
X347834Y103378D02*X348534Y102678D01*
X347834Y105978D02*Y103378D01*
Y105978D02*X348534Y106678D01*
X349834D01*
X351034Y105878D02*X351834Y106678D01*
Y102678D01*
X351034D02*X352534D01*
X353734Y103178D02*X354234Y102678D01*
X353734Y106178D02*Y103178D01*
Y106178D02*X354234Y106678D01*
X355234D01*
X355734Y106178D01*
Y103178D01*
X355234Y102678D02*X355734Y103178D01*
X354234Y102678D02*X355234D01*
X353734Y103678D02*X355734Y105678D01*
X341447Y105630D02*X342747D01*
X340747Y106330D02*X341447Y105630D01*
X340747Y108930D02*Y106330D01*
Y108930D02*X341447Y109630D01*
X342747D01*
X344447Y105630D02*X345947Y107630D01*
Y109130D02*Y107630D01*
X345447Y109630D02*X345947Y109130D01*
X344447Y109630D02*X345447D01*
X343947Y109130D02*X344447Y109630D01*
X343947Y109130D02*Y108130D01*
X344447Y107630D01*
X345947D01*
X334361Y128662D02*X335661D01*
X333661Y129362D02*X334361Y128662D01*
X333661Y131962D02*Y129362D01*
Y131962D02*X334361Y132662D01*
X335661D01*
X336861Y131862D02*X337661Y132662D01*
Y128662D01*
X336861D02*X338361D01*
X339561Y132662D02*X341561D01*
X339561D02*Y130662D01*
X340061Y131162D01*
X341061D01*
X341561Y130662D01*
Y129162D01*
X341061Y128662D02*X341561Y129162D01*
X340061Y128662D02*X341061D01*
X339561Y129162D02*X340061Y128662D01*
M02*
