G75*
G70*
%OFA0B0*%
%FSLAX24Y24*%
%IPPOS*%
%LPD*%
%AMOC8*
5,1,8,0,0,1.08239X$1,22.5*
%
%ADD10OC8,0.0540*%
%ADD11C,0.0740*%
%ADD12C,0.0400*%
%ADD13C,0.0120*%
%ADD14C,0.0600*%
D10*
X010460Y002410D03*
X011460Y002410D03*
X011460Y003410D03*
X010460Y003410D03*
X010460Y004410D03*
X011460Y004410D03*
X011460Y005410D03*
X010460Y005410D03*
X010460Y006410D03*
X011460Y006410D03*
X011460Y007410D03*
X010460Y007410D03*
X010460Y008410D03*
X011460Y008410D03*
X011460Y009410D03*
X010460Y009410D03*
X010460Y010410D03*
X011460Y010410D03*
X011460Y011410D03*
X010460Y011410D03*
D11*
X006167Y010917D03*
X005460Y010210D03*
X004460Y008910D03*
X007460Y008910D03*
X007460Y007410D03*
X004460Y007410D03*
X004460Y005910D03*
X007460Y005910D03*
X007460Y004410D03*
X004460Y004410D03*
D12*
X001960Y005760D03*
X001460Y005760D03*
X001460Y006260D03*
X001960Y006260D03*
X001960Y006760D03*
X001460Y006760D03*
X001460Y007260D03*
X001960Y007260D03*
D13*
X009040Y002335D02*
X009040Y000390D01*
X013772Y000390D01*
X013772Y013416D01*
X007821Y013416D01*
X002790Y008322D01*
X002790Y008321D01*
X002738Y008269D01*
X002709Y008240D01*
X005485Y008240D01*
X006835Y006890D01*
X009335Y006890D01*
X009440Y006785D01*
X010135Y006090D01*
X010200Y006090D01*
X010050Y006240D01*
X010050Y006380D01*
X010430Y006380D01*
X010430Y006440D01*
X010430Y006820D01*
X010290Y006820D01*
X010050Y006580D01*
X010050Y006440D01*
X010430Y006440D01*
X010490Y006440D01*
X010490Y006820D01*
X010630Y006820D01*
X010870Y006580D01*
X010870Y006440D01*
X010490Y006440D01*
X010490Y006380D01*
X010870Y006380D01*
X010870Y006240D01*
X010720Y006090D01*
X010935Y006090D01*
X011040Y005985D01*
X011262Y005763D01*
X011298Y005800D01*
X011622Y005800D01*
X011850Y005572D01*
X011850Y005248D01*
X011692Y005090D01*
X011835Y005090D01*
X011880Y005135D01*
X011880Y006230D01*
X011832Y006230D01*
X011622Y006020D01*
X011298Y006020D01*
X011070Y006248D01*
X011070Y006572D01*
X011298Y006800D01*
X011622Y006800D01*
X011832Y006590D01*
X012085Y006590D01*
X012135Y006540D01*
X012240Y006435D01*
X012240Y004985D01*
X012090Y004835D01*
X011985Y004730D01*
X011692Y004730D01*
X011850Y004572D01*
X011850Y004248D01*
X011692Y004090D01*
X012035Y004090D01*
X012085Y004040D01*
X012190Y003935D01*
X012190Y002885D01*
X012085Y002780D01*
X012085Y002780D01*
X011850Y002545D01*
X011850Y002248D01*
X011622Y002020D01*
X011298Y002020D01*
X011070Y002248D01*
X011070Y002572D01*
X011298Y002800D01*
X011595Y002800D01*
X011830Y003035D01*
X011830Y003228D01*
X011622Y003020D01*
X011298Y003020D01*
X011287Y003032D01*
X011090Y002835D01*
X011090Y002835D01*
X010985Y002730D01*
X010692Y002730D01*
X010850Y002572D01*
X010850Y002248D01*
X010622Y002020D01*
X010298Y002020D01*
X010070Y002248D01*
X010070Y002572D01*
X010228Y002730D01*
X008645Y002730D01*
X008740Y002635D01*
X008740Y002635D01*
X009040Y002335D01*
X009032Y002343D02*
X010070Y002343D01*
X010070Y002462D02*
X008913Y002462D01*
X008795Y002580D02*
X010078Y002580D01*
X010197Y002699D02*
X008676Y002699D01*
X009040Y002225D02*
X010094Y002225D01*
X010212Y002106D02*
X009040Y002106D01*
X009040Y001988D02*
X013772Y001988D01*
X013772Y002106D02*
X011708Y002106D01*
X011826Y002225D02*
X013772Y002225D01*
X013772Y002343D02*
X011850Y002343D01*
X011850Y002462D02*
X013772Y002462D01*
X013772Y002580D02*
X011885Y002580D01*
X012003Y002699D02*
X013772Y002699D01*
X013772Y002817D02*
X012122Y002817D01*
X012190Y002936D02*
X013772Y002936D01*
X013772Y003054D02*
X012190Y003054D01*
X012190Y003173D02*
X013772Y003173D01*
X013772Y003291D02*
X012190Y003291D01*
X012190Y003410D02*
X013772Y003410D01*
X013772Y003528D02*
X012190Y003528D01*
X012190Y003647D02*
X013772Y003647D01*
X013772Y003765D02*
X012190Y003765D01*
X012190Y003884D02*
X013772Y003884D01*
X013772Y004002D02*
X012123Y004002D01*
X012010Y003860D02*
X011960Y003910D01*
X009760Y003910D01*
X009310Y003460D01*
X006560Y003460D01*
X004460Y005560D01*
X004460Y005910D01*
X004950Y005898D02*
X005539Y005898D01*
X005661Y005780D02*
X004936Y005780D01*
X004950Y005813D02*
X004875Y005632D01*
X004759Y005516D01*
X006635Y003640D01*
X009235Y003640D01*
X009580Y003985D01*
X009580Y003985D01*
X009685Y004090D01*
X010200Y004090D01*
X010050Y004240D01*
X010050Y004380D01*
X010430Y004380D01*
X010430Y004440D01*
X010050Y004440D01*
X010050Y004580D01*
X010200Y004730D01*
X008185Y004730D01*
X007935Y004980D01*
X006561Y004980D01*
X006488Y004979D01*
X006487Y004980D01*
X006485Y004980D01*
X006434Y005032D01*
X004937Y006480D01*
X003135Y006480D01*
X002690Y006035D01*
X002690Y005735D01*
X002585Y005630D01*
X002485Y005530D01*
X002183Y005530D01*
X002141Y005489D01*
X002024Y005440D01*
X001896Y005440D01*
X001779Y005489D01*
X001710Y005557D01*
X001641Y005489D01*
X001524Y005440D01*
X001396Y005440D01*
X001279Y005489D01*
X001189Y005579D01*
X001140Y005696D01*
X001140Y005824D01*
X001189Y005941D01*
X001257Y006010D01*
X001189Y006079D01*
X001188Y006080D01*
X000985Y006080D01*
X000890Y005985D01*
X000890Y005585D01*
X001085Y005390D01*
X002535Y005390D01*
X004135Y003790D01*
X005685Y003790D01*
X006385Y003090D01*
X010200Y003090D01*
X010050Y003240D01*
X010050Y003380D01*
X010430Y003380D01*
X010430Y003440D01*
X010050Y003440D01*
X010050Y003580D01*
X010200Y003730D01*
X009835Y003730D01*
X009385Y003280D01*
X006485Y003280D01*
X006380Y003385D01*
X006380Y003385D01*
X004385Y005380D01*
X004385Y005380D01*
X004333Y005432D01*
X004182Y005495D01*
X004045Y005632D01*
X003970Y005813D01*
X003970Y006007D01*
X004045Y006188D01*
X004182Y006325D01*
X004363Y006400D01*
X004557Y006400D01*
X004738Y006325D01*
X004875Y006188D01*
X004950Y006007D01*
X004950Y005813D01*
X004887Y005661D02*
X005783Y005661D01*
X005906Y005543D02*
X004785Y005543D01*
X004851Y005424D02*
X006028Y005424D01*
X006151Y005306D02*
X004969Y005306D01*
X005088Y005187D02*
X006273Y005187D01*
X006396Y005069D02*
X005206Y005069D01*
X005325Y004950D02*
X007965Y004950D01*
X008084Y004832D02*
X007723Y004832D01*
X007738Y004825D02*
X007557Y004900D01*
X007363Y004900D01*
X007182Y004825D01*
X007045Y004688D01*
X006970Y004507D01*
X006970Y004313D01*
X007045Y004132D01*
X007182Y003995D01*
X007363Y003920D01*
X007557Y003920D01*
X007738Y003995D01*
X007875Y004132D01*
X007950Y004313D01*
X007950Y004507D01*
X007875Y004688D01*
X007738Y004825D01*
X007850Y004713D02*
X010183Y004713D01*
X010065Y004595D02*
X007914Y004595D01*
X007950Y004476D02*
X010050Y004476D01*
X010050Y004358D02*
X007950Y004358D01*
X007920Y004239D02*
X010051Y004239D01*
X010170Y004121D02*
X007863Y004121D01*
X007745Y004002D02*
X009597Y004002D01*
X009479Y003884D02*
X006391Y003884D01*
X006273Y004002D02*
X007175Y004002D01*
X007057Y004121D02*
X006154Y004121D01*
X006036Y004239D02*
X007000Y004239D01*
X006970Y004358D02*
X005917Y004358D01*
X005799Y004476D02*
X006970Y004476D01*
X007006Y004595D02*
X005680Y004595D01*
X005562Y004713D02*
X007070Y004713D01*
X007197Y004832D02*
X005443Y004832D01*
X005052Y004713D02*
X004870Y004713D01*
X004849Y004742D02*
X004792Y004799D01*
X004727Y004846D01*
X004656Y004883D01*
X004579Y004907D01*
X004500Y004920D01*
X004489Y004920D01*
X004489Y004439D01*
X004970Y004439D01*
X004970Y004450D01*
X004957Y004529D01*
X004933Y004606D01*
X004896Y004677D01*
X004849Y004742D01*
X004934Y004832D02*
X004748Y004832D01*
X004815Y004950D02*
X002975Y004950D01*
X003093Y004832D02*
X004172Y004832D01*
X004193Y004846D02*
X004128Y004799D01*
X004071Y004742D01*
X004024Y004677D01*
X003987Y004606D01*
X003963Y004529D01*
X003950Y004450D01*
X003950Y004439D01*
X004431Y004439D01*
X004431Y004920D01*
X004420Y004920D01*
X004341Y004907D01*
X004264Y004883D01*
X004193Y004846D01*
X004050Y004713D02*
X003212Y004713D01*
X003330Y004595D02*
X003984Y004595D01*
X003954Y004476D02*
X003449Y004476D01*
X003567Y004358D02*
X003952Y004358D01*
X003950Y004370D02*
X003963Y004291D01*
X003987Y004214D01*
X004024Y004143D01*
X004071Y004078D01*
X004128Y004021D01*
X004193Y003974D01*
X004264Y003937D01*
X004341Y003913D01*
X004420Y003900D01*
X004431Y003900D01*
X004431Y004381D01*
X004489Y004381D01*
X004489Y004439D01*
X004431Y004439D01*
X004431Y004381D01*
X003950Y004381D01*
X003950Y004370D01*
X003979Y004239D02*
X003686Y004239D01*
X003804Y004121D02*
X004040Y004121D01*
X004154Y004002D02*
X003923Y004002D01*
X004041Y003884D02*
X005882Y003884D01*
X005763Y004002D02*
X004766Y004002D01*
X004792Y004021D02*
X004849Y004078D01*
X004896Y004143D01*
X004933Y004214D01*
X004957Y004291D01*
X004970Y004370D01*
X004970Y004381D01*
X004489Y004381D01*
X004489Y003900D01*
X004500Y003900D01*
X004579Y003913D01*
X004656Y003937D01*
X004727Y003974D01*
X004792Y004021D01*
X004880Y004121D02*
X005645Y004121D01*
X005526Y004239D02*
X004941Y004239D01*
X004968Y004358D02*
X005408Y004358D01*
X005289Y004476D02*
X004966Y004476D01*
X004936Y004595D02*
X005171Y004595D01*
X004489Y004595D02*
X004431Y004595D01*
X004431Y004713D02*
X004489Y004713D01*
X004489Y004832D02*
X004431Y004832D01*
X004697Y005069D02*
X002856Y005069D01*
X002738Y005187D02*
X004578Y005187D01*
X004460Y005306D02*
X002619Y005306D01*
X002460Y005210D02*
X004060Y003610D01*
X005610Y003610D01*
X006310Y002910D01*
X010910Y002910D01*
X011410Y003410D01*
X011460Y003410D01*
X011070Y003410D02*
X010490Y003410D01*
X010490Y003440D02*
X010870Y003440D01*
X010870Y003580D01*
X010720Y003730D01*
X011228Y003730D01*
X011070Y003572D01*
X011070Y003325D01*
X010835Y003090D01*
X010720Y003090D01*
X010870Y003240D01*
X010870Y003380D01*
X010490Y003380D01*
X010490Y003440D01*
X010430Y003410D02*
X009514Y003410D01*
X009633Y003528D02*
X010050Y003528D01*
X010117Y003647D02*
X009751Y003647D01*
X009360Y003765D02*
X006510Y003765D01*
X006628Y003647D02*
X009242Y003647D01*
X009396Y003291D02*
X010050Y003291D01*
X010118Y003173D02*
X006302Y003173D01*
X006184Y003291D02*
X006474Y003291D01*
X006356Y003410D02*
X006065Y003410D01*
X005947Y003528D02*
X006237Y003528D01*
X006119Y003647D02*
X005828Y003647D01*
X005710Y003765D02*
X006000Y003765D01*
X004489Y004002D02*
X004431Y004002D01*
X004431Y004121D02*
X004489Y004121D01*
X004489Y004239D02*
X004431Y004239D01*
X004431Y004358D02*
X004489Y004358D01*
X004489Y004476D02*
X004431Y004476D01*
X002460Y005210D02*
X001010Y005210D01*
X000710Y005510D01*
X000710Y006060D01*
X000910Y006260D01*
X001460Y006260D01*
X002163Y006010D02*
X002231Y006079D01*
X002280Y006196D01*
X002280Y006324D01*
X002231Y006441D01*
X002177Y006496D01*
X002224Y006543D01*
X002261Y006599D01*
X002287Y006661D01*
X002300Y006727D01*
X002300Y006755D01*
X001965Y006755D01*
X001965Y006765D01*
X002300Y006765D01*
X002300Y006793D01*
X002287Y006859D01*
X002261Y006921D01*
X002224Y006977D01*
X002177Y007024D01*
X002177Y007024D01*
X002231Y007079D01*
X002280Y007196D01*
X002280Y007324D01*
X002231Y007441D01*
X002141Y007531D01*
X002024Y007580D01*
X001896Y007580D01*
X001779Y007531D01*
X001710Y007463D01*
X001641Y007531D01*
X001640Y007532D01*
X001640Y007635D01*
X001885Y007880D01*
X004259Y007880D01*
X004193Y007846D01*
X004128Y007799D01*
X004071Y007742D01*
X004024Y007677D01*
X003987Y007606D01*
X003963Y007529D01*
X003950Y007450D01*
X003950Y007439D01*
X004431Y007439D01*
X004431Y007381D01*
X004489Y007381D01*
X004489Y007439D01*
X004970Y007439D01*
X004970Y007450D01*
X004957Y007529D01*
X004933Y007606D01*
X004896Y007677D01*
X004849Y007742D01*
X004792Y007799D01*
X004727Y007846D01*
X004661Y007880D01*
X005335Y007880D01*
X006580Y006635D01*
X006685Y006530D01*
X009185Y006530D01*
X009880Y005835D01*
X009985Y005730D01*
X010200Y005730D01*
X010050Y005580D01*
X010050Y005440D01*
X010430Y005440D01*
X010430Y005380D01*
X010050Y005380D01*
X010050Y005240D01*
X010200Y005090D01*
X008335Y005090D01*
X008190Y005235D01*
X008085Y005340D01*
X006633Y005340D01*
X005136Y006788D01*
X005085Y006840D01*
X005083Y006840D01*
X005082Y006841D01*
X005009Y006840D01*
X002985Y006840D01*
X002330Y006185D01*
X002330Y005890D01*
X002253Y005890D01*
X002231Y005941D01*
X002163Y006010D01*
X002169Y006017D02*
X002330Y006017D01*
X002330Y006135D02*
X002255Y006135D01*
X002280Y006254D02*
X002399Y006254D01*
X002517Y006372D02*
X002260Y006372D01*
X002182Y006491D02*
X002636Y006491D01*
X002754Y006609D02*
X002265Y006609D01*
X002300Y006728D02*
X002873Y006728D01*
X003060Y006660D02*
X005010Y006660D01*
X006560Y005160D01*
X008010Y005160D01*
X008260Y004910D01*
X011910Y004910D01*
X012060Y005060D01*
X012060Y006360D01*
X012010Y006410D01*
X011460Y006410D01*
X011070Y006372D02*
X010870Y006372D01*
X010870Y006254D02*
X011070Y006254D01*
X011183Y006135D02*
X010765Y006135D01*
X011008Y006017D02*
X011880Y006017D01*
X011880Y006135D02*
X011737Y006135D01*
X011880Y005898D02*
X011127Y005898D01*
X011245Y005780D02*
X011278Y005780D01*
X011642Y005780D02*
X011880Y005780D01*
X011880Y005661D02*
X011761Y005661D01*
X011850Y005543D02*
X011880Y005543D01*
X011880Y005424D02*
X011850Y005424D01*
X011850Y005306D02*
X011880Y005306D01*
X011880Y005187D02*
X011789Y005187D01*
X012240Y005187D02*
X013772Y005187D01*
X013772Y005069D02*
X012240Y005069D01*
X012205Y004950D02*
X013772Y004950D01*
X013772Y004832D02*
X012086Y004832D01*
X011709Y004713D02*
X013772Y004713D01*
X013772Y004595D02*
X011827Y004595D01*
X011850Y004476D02*
X013772Y004476D01*
X013772Y004358D02*
X011850Y004358D01*
X011841Y004239D02*
X013772Y004239D01*
X013772Y004121D02*
X011722Y004121D01*
X011228Y004090D02*
X011070Y004248D01*
X011070Y004572D01*
X011228Y004730D01*
X010720Y004730D01*
X010870Y004580D01*
X010870Y004440D01*
X010490Y004440D01*
X010490Y004380D01*
X010870Y004380D01*
X010870Y004240D01*
X010720Y004090D01*
X011228Y004090D01*
X011198Y004121D02*
X010750Y004121D01*
X010869Y004239D02*
X011079Y004239D01*
X011070Y004358D02*
X010870Y004358D01*
X010870Y004476D02*
X011070Y004476D01*
X011093Y004595D02*
X010855Y004595D01*
X010737Y004713D02*
X011211Y004713D01*
X011228Y005090D02*
X010720Y005090D01*
X010870Y005240D01*
X010870Y005380D01*
X010490Y005380D01*
X010490Y005440D01*
X010870Y005440D01*
X010870Y005580D01*
X010720Y005730D01*
X010785Y005730D01*
X011070Y005445D01*
X011070Y005248D01*
X011228Y005090D01*
X011131Y005187D02*
X010817Y005187D01*
X010870Y005306D02*
X011070Y005306D01*
X011070Y005424D02*
X010490Y005424D01*
X010430Y005424D02*
X007567Y005424D01*
X007557Y005420D02*
X007738Y005495D01*
X007875Y005632D01*
X007950Y005813D01*
X007950Y006007D01*
X007875Y006188D01*
X007738Y006325D01*
X007557Y006400D01*
X007363Y006400D01*
X007182Y006325D01*
X007045Y006188D01*
X006970Y006007D01*
X006970Y005813D01*
X007045Y005632D01*
X007182Y005495D01*
X007363Y005420D01*
X007557Y005420D01*
X007353Y005424D02*
X006546Y005424D01*
X006424Y005543D02*
X007135Y005543D01*
X007033Y005661D02*
X006301Y005661D01*
X006179Y005780D02*
X006984Y005780D01*
X006970Y005898D02*
X006056Y005898D01*
X005934Y006017D02*
X006974Y006017D01*
X007023Y006135D02*
X005811Y006135D01*
X005689Y006254D02*
X007111Y006254D01*
X007295Y006372D02*
X005566Y006372D01*
X005444Y006491D02*
X009225Y006491D01*
X009343Y006372D02*
X007625Y006372D01*
X007809Y006254D02*
X009462Y006254D01*
X009580Y006135D02*
X007897Y006135D01*
X007946Y006017D02*
X009699Y006017D01*
X009817Y005898D02*
X007950Y005898D01*
X007936Y005780D02*
X009936Y005780D01*
X010060Y005910D02*
X010860Y005910D01*
X011360Y005410D01*
X011460Y005410D01*
X010973Y005543D02*
X010870Y005543D01*
X010854Y005661D02*
X010789Y005661D01*
X010131Y005661D02*
X007887Y005661D01*
X007785Y005543D02*
X010050Y005543D01*
X010050Y005306D02*
X008119Y005306D01*
X008238Y005187D02*
X010103Y005187D01*
X010060Y005910D02*
X009260Y006710D01*
X006760Y006710D01*
X005410Y008060D01*
X001810Y008060D01*
X001460Y007710D01*
X001460Y007260D01*
X002232Y007439D02*
X002879Y007439D01*
X002904Y007498D02*
X002840Y007344D01*
X002840Y007176D01*
X002904Y007022D01*
X003022Y006904D01*
X003176Y006840D01*
X003344Y006840D01*
X003498Y006904D01*
X003616Y007022D01*
X003680Y007176D01*
X003680Y007344D01*
X003616Y007498D01*
X003498Y007616D01*
X003344Y007680D01*
X003176Y007680D01*
X003022Y007616D01*
X002904Y007498D01*
X002963Y007557D02*
X002079Y007557D01*
X001841Y007557D02*
X001640Y007557D01*
X001680Y007676D02*
X003166Y007676D01*
X003354Y007676D02*
X004023Y007676D01*
X003972Y007557D02*
X003557Y007557D01*
X003641Y007439D02*
X004431Y007439D01*
X004431Y007381D02*
X003950Y007381D01*
X003950Y007370D01*
X003963Y007291D01*
X003987Y007214D01*
X004024Y007143D01*
X004071Y007078D01*
X004128Y007021D01*
X004193Y006974D01*
X004264Y006937D01*
X004341Y006913D01*
X004420Y006900D01*
X004431Y006900D01*
X004431Y007381D01*
X004489Y007381D02*
X004489Y006900D01*
X004500Y006900D01*
X004579Y006913D01*
X004656Y006937D01*
X004727Y006974D01*
X004792Y007021D01*
X004849Y007078D01*
X004896Y007143D01*
X004933Y007214D01*
X004957Y007291D01*
X004970Y007370D01*
X004970Y007381D01*
X004489Y007381D01*
X004489Y007439D02*
X005777Y007439D01*
X005658Y007557D02*
X004948Y007557D01*
X004897Y007676D02*
X005540Y007676D01*
X005421Y007794D02*
X004797Y007794D01*
X004123Y007794D02*
X001799Y007794D01*
X002280Y007320D02*
X002840Y007320D01*
X002840Y007202D02*
X002280Y007202D01*
X002233Y007083D02*
X002879Y007083D01*
X002962Y006965D02*
X002232Y006965D01*
X002290Y006846D02*
X003162Y006846D01*
X003358Y006846D02*
X006369Y006846D01*
X006251Y006965D02*
X004709Y006965D01*
X004853Y007083D02*
X006132Y007083D01*
X006014Y007202D02*
X004926Y007202D01*
X004962Y007320D02*
X005895Y007320D01*
X006168Y007557D02*
X006991Y007557D01*
X006970Y007507D02*
X006970Y007313D01*
X007045Y007132D01*
X007182Y006995D01*
X007363Y006920D01*
X007557Y006920D01*
X007738Y006995D01*
X007875Y007132D01*
X007950Y007313D01*
X007950Y007507D01*
X007875Y007688D01*
X007738Y007825D01*
X007557Y007900D01*
X007363Y007900D01*
X007182Y007825D01*
X007045Y007688D01*
X006970Y007507D01*
X006970Y007439D02*
X006286Y007439D01*
X006405Y007320D02*
X006970Y007320D01*
X007016Y007202D02*
X006523Y007202D01*
X006642Y007083D02*
X007094Y007083D01*
X007255Y006965D02*
X006760Y006965D01*
X006488Y006728D02*
X005199Y006728D01*
X005322Y006609D02*
X006606Y006609D01*
X007665Y006965D02*
X013772Y006965D01*
X013772Y007083D02*
X011685Y007083D01*
X011622Y007020D02*
X011298Y007020D01*
X011070Y007248D01*
X011070Y007572D01*
X011298Y007800D01*
X011622Y007800D01*
X011850Y007572D01*
X011850Y007248D01*
X011622Y007020D01*
X011235Y007083D02*
X010713Y007083D01*
X010630Y007000D02*
X010870Y007240D01*
X010870Y007380D01*
X010490Y007380D01*
X010490Y007440D01*
X010430Y007440D01*
X010430Y007820D01*
X010290Y007820D01*
X010050Y007580D01*
X010050Y007440D01*
X010430Y007440D01*
X010430Y007380D01*
X010050Y007380D01*
X010050Y007240D01*
X010290Y007000D01*
X010430Y007000D01*
X010430Y007380D01*
X010490Y007380D01*
X010490Y007000D01*
X010630Y007000D01*
X010490Y007083D02*
X010430Y007083D01*
X010430Y007202D02*
X010490Y007202D01*
X010490Y007320D02*
X010430Y007320D01*
X010430Y007439D02*
X007950Y007439D01*
X007950Y007320D02*
X010050Y007320D01*
X010089Y007202D02*
X007904Y007202D01*
X007826Y007083D02*
X010207Y007083D01*
X010831Y007202D02*
X011117Y007202D01*
X011070Y007320D02*
X010870Y007320D01*
X010870Y007440D02*
X010870Y007580D01*
X010630Y007820D01*
X010490Y007820D01*
X010490Y007440D01*
X010870Y007440D01*
X010870Y007557D02*
X011070Y007557D01*
X011070Y007439D02*
X010490Y007439D01*
X010490Y007557D02*
X010430Y007557D01*
X010430Y007676D02*
X010490Y007676D01*
X010490Y007794D02*
X010430Y007794D01*
X010264Y007794D02*
X007769Y007794D01*
X007880Y007676D02*
X010146Y007676D01*
X010050Y007557D02*
X007929Y007557D01*
X007151Y007794D02*
X005931Y007794D01*
X006049Y007676D02*
X007040Y007676D01*
X005812Y007913D02*
X013772Y007913D01*
X013772Y008031D02*
X011633Y008031D01*
X011622Y008020D02*
X011850Y008248D01*
X011850Y008572D01*
X011622Y008800D01*
X011298Y008800D01*
X011070Y008572D01*
X011070Y008248D01*
X011298Y008020D01*
X011622Y008020D01*
X011751Y008150D02*
X013772Y008150D01*
X013772Y008268D02*
X011850Y008268D01*
X011850Y008387D02*
X013772Y008387D01*
X013772Y008505D02*
X011850Y008505D01*
X011798Y008624D02*
X013772Y008624D01*
X013772Y008742D02*
X011680Y008742D01*
X011240Y008742D02*
X010708Y008742D01*
X010630Y008820D02*
X010490Y008820D01*
X010490Y008440D01*
X010430Y008440D01*
X010430Y008820D01*
X010290Y008820D01*
X010050Y008580D01*
X010050Y008440D01*
X010430Y008440D01*
X010430Y008380D01*
X010050Y008380D01*
X010050Y008240D01*
X010290Y008000D01*
X010430Y008000D01*
X010430Y008380D01*
X010490Y008380D01*
X010490Y008440D01*
X010870Y008440D01*
X010870Y008580D01*
X010630Y008820D01*
X010490Y008742D02*
X010430Y008742D01*
X010430Y008624D02*
X010490Y008624D01*
X010490Y008505D02*
X010430Y008505D01*
X010430Y008387D02*
X002854Y008387D01*
X002971Y008505D02*
X004150Y008505D01*
X004128Y008521D02*
X004193Y008474D01*
X004264Y008437D01*
X004341Y008413D01*
X004420Y008400D01*
X004431Y008400D01*
X004431Y008881D01*
X004489Y008881D01*
X004489Y008939D01*
X004970Y008939D01*
X004970Y008950D01*
X004957Y009029D01*
X004933Y009106D01*
X004896Y009177D01*
X004849Y009242D01*
X004792Y009299D01*
X004727Y009346D01*
X004656Y009383D01*
X004579Y009407D01*
X004500Y009420D01*
X004489Y009420D01*
X004489Y008939D01*
X004431Y008939D01*
X004431Y009420D01*
X004420Y009420D01*
X004341Y009407D01*
X004264Y009383D01*
X004193Y009346D01*
X004128Y009299D01*
X004071Y009242D01*
X004024Y009177D01*
X003987Y009106D01*
X003963Y009029D01*
X003950Y008950D01*
X003950Y008939D01*
X004431Y008939D01*
X004431Y008881D01*
X003950Y008881D01*
X003950Y008870D01*
X003963Y008791D01*
X003987Y008714D01*
X004024Y008643D01*
X004071Y008578D01*
X004128Y008521D01*
X004038Y008624D02*
X003088Y008624D01*
X003205Y008742D02*
X003978Y008742D01*
X003951Y008861D02*
X003322Y008861D01*
X003439Y008979D02*
X003955Y008979D01*
X003985Y009098D02*
X003556Y009098D01*
X003673Y009216D02*
X004052Y009216D01*
X004177Y009335D02*
X003790Y009335D01*
X003907Y009453D02*
X010050Y009453D01*
X010050Y009440D02*
X010430Y009440D01*
X010430Y009820D01*
X010290Y009820D01*
X010050Y009580D01*
X010050Y009440D01*
X010050Y009380D02*
X010050Y009240D01*
X010290Y009000D01*
X010430Y009000D01*
X010430Y009380D01*
X010050Y009380D01*
X010050Y009335D02*
X007716Y009335D01*
X007738Y009325D02*
X007557Y009400D01*
X007363Y009400D01*
X007182Y009325D01*
X007045Y009188D01*
X006970Y009007D01*
X006970Y008813D01*
X007045Y008632D01*
X007182Y008495D01*
X007363Y008420D01*
X007557Y008420D01*
X007738Y008495D01*
X007875Y008632D01*
X007950Y008813D01*
X007950Y009007D01*
X007875Y009188D01*
X007738Y009325D01*
X007847Y009216D02*
X010074Y009216D01*
X010193Y009098D02*
X007913Y009098D01*
X007950Y008979D02*
X013772Y008979D01*
X013772Y008861D02*
X007950Y008861D01*
X007921Y008742D02*
X010212Y008742D01*
X010094Y008624D02*
X007866Y008624D01*
X007748Y008505D02*
X010050Y008505D01*
X010490Y008387D02*
X011070Y008387D01*
X011070Y008505D02*
X010870Y008505D01*
X010870Y008380D02*
X010490Y008380D01*
X010490Y008000D01*
X010630Y008000D01*
X010870Y008240D01*
X010870Y008380D01*
X010870Y008268D02*
X011070Y008268D01*
X011169Y008150D02*
X010779Y008150D01*
X010661Y008031D02*
X011287Y008031D01*
X010490Y008031D02*
X010430Y008031D01*
X010430Y008150D02*
X010490Y008150D01*
X010490Y008268D02*
X010430Y008268D01*
X010259Y008031D02*
X005694Y008031D01*
X005575Y008150D02*
X010141Y008150D01*
X010050Y008268D02*
X002737Y008268D01*
X004431Y008505D02*
X004489Y008505D01*
X004489Y008400D02*
X004500Y008400D01*
X004579Y008413D01*
X004656Y008437D01*
X004727Y008474D01*
X004792Y008521D01*
X004849Y008578D01*
X004896Y008643D01*
X004933Y008714D01*
X004957Y008791D01*
X004970Y008870D01*
X004970Y008881D01*
X004489Y008881D01*
X004489Y008400D01*
X004770Y008505D02*
X007172Y008505D01*
X007054Y008624D02*
X004882Y008624D01*
X004942Y008742D02*
X006999Y008742D01*
X006970Y008861D02*
X004969Y008861D01*
X004965Y008979D02*
X006970Y008979D01*
X007007Y009098D02*
X004935Y009098D01*
X004868Y009216D02*
X007073Y009216D01*
X007204Y009335D02*
X004743Y009335D01*
X004489Y009335D02*
X004431Y009335D01*
X004431Y009216D02*
X004489Y009216D01*
X004489Y009098D02*
X004431Y009098D01*
X004431Y008979D02*
X004489Y008979D01*
X004489Y008861D02*
X004431Y008861D01*
X004431Y008742D02*
X004489Y008742D01*
X004489Y008624D02*
X004431Y008624D01*
X004024Y009572D02*
X010050Y009572D01*
X010160Y009690D02*
X004141Y009690D01*
X004258Y009809D02*
X005145Y009809D01*
X005128Y009821D02*
X005193Y009774D01*
X005264Y009737D01*
X005341Y009713D01*
X005420Y009700D01*
X005500Y009700D01*
X005579Y009713D01*
X005656Y009737D01*
X005727Y009774D01*
X005792Y009821D01*
X005792Y009821D01*
X005460Y010153D01*
X005517Y010210D01*
X005460Y010267D01*
X005403Y010210D01*
X005071Y010542D01*
X005024Y010477D01*
X004987Y010406D01*
X004963Y010329D01*
X004950Y010250D01*
X004950Y010170D01*
X004963Y010091D01*
X004987Y010014D01*
X005024Y009943D01*
X005071Y009878D01*
X005071Y009878D01*
X005403Y010210D01*
X005460Y010153D01*
X005128Y009821D01*
X005128Y009821D01*
X005120Y009927D02*
X005234Y009927D01*
X005239Y010046D02*
X005352Y010046D01*
X005357Y010164D02*
X005449Y010164D01*
X005471Y010164D02*
X005563Y010164D01*
X005517Y010210D02*
X005849Y009878D01*
X005896Y009943D01*
X005933Y010014D01*
X005957Y010091D01*
X005970Y010170D01*
X005970Y010250D01*
X005957Y010329D01*
X005933Y010406D01*
X005896Y010477D01*
X005849Y010542D01*
X005849Y010542D01*
X005517Y010210D01*
X005460Y010267D02*
X005792Y010599D01*
X005727Y010646D01*
X005656Y010683D01*
X005579Y010707D01*
X005500Y010720D01*
X005420Y010720D01*
X005341Y010707D01*
X005264Y010683D01*
X005193Y010646D01*
X005128Y010599D01*
X005128Y010599D01*
X005460Y010267D01*
X005476Y010283D02*
X005589Y010283D01*
X005594Y010401D02*
X005708Y010401D01*
X005713Y010520D02*
X005826Y010520D01*
X005866Y010520D02*
X005872Y010520D01*
X005890Y010502D02*
X005752Y010640D01*
X005677Y010820D01*
X005677Y011015D01*
X005752Y011195D01*
X005890Y011333D01*
X006070Y011407D01*
X006265Y011407D01*
X006445Y011333D01*
X006583Y011195D01*
X006657Y011015D01*
X006657Y010820D01*
X006583Y010640D01*
X006445Y010502D01*
X006265Y010427D01*
X006070Y010427D01*
X005890Y010502D01*
X005934Y010401D02*
X010430Y010401D01*
X010430Y010380D02*
X010050Y010380D01*
X010050Y010240D01*
X010290Y010000D01*
X010430Y010000D01*
X010430Y010380D01*
X010430Y010440D01*
X010430Y010820D01*
X010290Y010820D01*
X010050Y010580D01*
X010050Y010440D01*
X010430Y010440D01*
X010490Y010440D01*
X010490Y010820D01*
X010630Y010820D01*
X010870Y010580D01*
X010870Y010440D01*
X010490Y010440D01*
X010490Y010380D01*
X010870Y010380D01*
X010870Y010240D01*
X010630Y010000D01*
X010490Y010000D01*
X010490Y010380D01*
X010430Y010380D01*
X010490Y010401D02*
X011070Y010401D01*
X011070Y010283D02*
X010870Y010283D01*
X010794Y010164D02*
X011154Y010164D01*
X011070Y010248D02*
X011298Y010020D01*
X011622Y010020D01*
X011850Y010248D01*
X011850Y010572D01*
X011622Y010800D01*
X011298Y010800D01*
X011070Y010572D01*
X011070Y010248D01*
X010490Y010283D02*
X010430Y010283D01*
X010430Y010164D02*
X010490Y010164D01*
X010490Y010046D02*
X010430Y010046D01*
X010245Y010046D02*
X005943Y010046D01*
X005969Y010164D02*
X010126Y010164D01*
X010050Y010283D02*
X005965Y010283D01*
X005444Y010283D02*
X005331Y010283D01*
X005326Y010401D02*
X005212Y010401D01*
X005207Y010520D02*
X005094Y010520D01*
X005071Y010542D02*
X005071Y010542D01*
X005054Y010520D02*
X004960Y010520D01*
X004986Y010401D02*
X004843Y010401D01*
X004955Y010283D02*
X004726Y010283D01*
X004609Y010164D02*
X004951Y010164D01*
X004977Y010046D02*
X004492Y010046D01*
X004375Y009927D02*
X005035Y009927D01*
X005568Y010046D02*
X005681Y010046D01*
X005686Y009927D02*
X005800Y009927D01*
X005849Y009878D02*
X005849Y009878D01*
X005885Y009927D02*
X013772Y009927D01*
X013772Y009809D02*
X010641Y009809D01*
X010630Y009820D02*
X010490Y009820D01*
X010490Y009440D01*
X010430Y009440D01*
X010430Y009380D01*
X010490Y009380D01*
X010490Y009440D01*
X010870Y009440D01*
X010870Y009580D01*
X010630Y009820D01*
X010490Y009809D02*
X010430Y009809D01*
X010430Y009690D02*
X010490Y009690D01*
X010490Y009572D02*
X010430Y009572D01*
X010430Y009453D02*
X010490Y009453D01*
X010490Y009380D02*
X010870Y009380D01*
X010870Y009240D01*
X010630Y009000D01*
X010490Y009000D01*
X010490Y009380D01*
X010490Y009335D02*
X010430Y009335D01*
X010430Y009216D02*
X010490Y009216D01*
X010490Y009098D02*
X010430Y009098D01*
X010727Y009098D02*
X011221Y009098D01*
X011298Y009020D02*
X011622Y009020D01*
X011850Y009248D01*
X011850Y009572D01*
X011622Y009800D01*
X011298Y009800D01*
X011070Y009572D01*
X011070Y009248D01*
X011298Y009020D01*
X011102Y009216D02*
X010846Y009216D01*
X010870Y009335D02*
X011070Y009335D01*
X011070Y009453D02*
X010870Y009453D01*
X010870Y009572D02*
X011070Y009572D01*
X011188Y009690D02*
X010760Y009690D01*
X010279Y009809D02*
X005775Y009809D01*
X005792Y010599D02*
X005792Y010599D01*
X005753Y010638D02*
X005739Y010638D01*
X005703Y010757D02*
X005195Y010757D01*
X005181Y010638D02*
X005078Y010638D01*
X005312Y010875D02*
X005677Y010875D01*
X005677Y010994D02*
X005429Y010994D01*
X005546Y011112D02*
X005717Y011112D01*
X005663Y011231D02*
X005788Y011231D01*
X005780Y011349D02*
X005929Y011349D01*
X005897Y011468D02*
X010050Y011468D01*
X010050Y011440D02*
X010050Y011580D01*
X010290Y011820D01*
X010430Y011820D01*
X010430Y011440D01*
X010490Y011440D01*
X010490Y011820D01*
X010630Y011820D01*
X010870Y011580D01*
X010870Y011440D01*
X010490Y011440D01*
X010490Y011380D01*
X010870Y011380D01*
X010870Y011240D01*
X010630Y011000D01*
X010490Y011000D01*
X010490Y011380D01*
X010430Y011380D01*
X010050Y011380D01*
X010050Y011240D01*
X010290Y011000D01*
X010430Y011000D01*
X010430Y011380D01*
X010430Y011440D01*
X010050Y011440D01*
X010050Y011349D02*
X006405Y011349D01*
X006547Y011231D02*
X010060Y011231D01*
X010178Y011112D02*
X006617Y011112D01*
X006657Y010994D02*
X013772Y010994D01*
X013772Y011112D02*
X011714Y011112D01*
X011622Y011020D02*
X011298Y011020D01*
X011070Y011248D01*
X011070Y011572D01*
X011298Y011800D01*
X011622Y011800D01*
X011850Y011572D01*
X011850Y011248D01*
X011622Y011020D01*
X011206Y011112D02*
X010742Y011112D01*
X010860Y011231D02*
X011088Y011231D01*
X011070Y011349D02*
X010870Y011349D01*
X010870Y011468D02*
X011070Y011468D01*
X011084Y011586D02*
X010864Y011586D01*
X010745Y011705D02*
X011203Y011705D01*
X011717Y011705D02*
X013772Y011705D01*
X013772Y011823D02*
X006248Y011823D01*
X006365Y011942D02*
X013772Y011942D01*
X013772Y012060D02*
X006482Y012060D01*
X006599Y012179D02*
X013772Y012179D01*
X013772Y012297D02*
X006716Y012297D01*
X006833Y012416D02*
X013772Y012416D01*
X013772Y012534D02*
X006950Y012534D01*
X007067Y012653D02*
X013772Y012653D01*
X013772Y012771D02*
X007184Y012771D01*
X007301Y012890D02*
X013772Y012890D01*
X013772Y013008D02*
X007418Y013008D01*
X007535Y013127D02*
X013772Y013127D01*
X013772Y013245D02*
X007652Y013245D01*
X007769Y013364D02*
X013772Y013364D01*
X010490Y011705D02*
X010430Y011705D01*
X010430Y011586D02*
X010490Y011586D01*
X010490Y011468D02*
X010430Y011468D01*
X010430Y011349D02*
X010490Y011349D01*
X010490Y011231D02*
X010430Y011231D01*
X010430Y011112D02*
X010490Y011112D01*
X010490Y010757D02*
X010430Y010757D01*
X010430Y010638D02*
X010490Y010638D01*
X010490Y010520D02*
X010430Y010520D01*
X010227Y010757D02*
X006631Y010757D01*
X006657Y010875D02*
X013772Y010875D01*
X013772Y010757D02*
X011665Y010757D01*
X011784Y010638D02*
X013772Y010638D01*
X013772Y010520D02*
X011850Y010520D01*
X011850Y010401D02*
X013772Y010401D01*
X013772Y010283D02*
X011850Y010283D01*
X011766Y010164D02*
X013772Y010164D01*
X013772Y010046D02*
X011647Y010046D01*
X011273Y010046D02*
X010675Y010046D01*
X011732Y009690D02*
X013772Y009690D01*
X013772Y009572D02*
X011850Y009572D01*
X011850Y009453D02*
X013772Y009453D01*
X013772Y009335D02*
X011850Y009335D01*
X011818Y009216D02*
X013772Y009216D01*
X013772Y009098D02*
X011699Y009098D01*
X011122Y008624D02*
X010826Y008624D01*
X010656Y007794D02*
X011292Y007794D01*
X011174Y007676D02*
X010774Y007676D01*
X011628Y007794D02*
X013772Y007794D01*
X013772Y007676D02*
X011746Y007676D01*
X011850Y007557D02*
X013772Y007557D01*
X013772Y007439D02*
X011850Y007439D01*
X011850Y007320D02*
X013772Y007320D01*
X013772Y007202D02*
X011803Y007202D01*
X011694Y006728D02*
X013772Y006728D01*
X013772Y006846D02*
X009379Y006846D01*
X009497Y006728D02*
X010198Y006728D01*
X010079Y006609D02*
X009616Y006609D01*
X009734Y006491D02*
X010050Y006491D01*
X010050Y006372D02*
X009853Y006372D01*
X009971Y006254D02*
X010050Y006254D01*
X010090Y006135D02*
X010155Y006135D01*
X010430Y006491D02*
X010490Y006491D01*
X010490Y006609D02*
X010430Y006609D01*
X010430Y006728D02*
X010490Y006728D01*
X010722Y006728D02*
X011226Y006728D01*
X011107Y006609D02*
X010841Y006609D01*
X010870Y006491D02*
X011070Y006491D01*
X011813Y006609D02*
X013772Y006609D01*
X013772Y006491D02*
X012184Y006491D01*
X012240Y006372D02*
X013772Y006372D01*
X013772Y006254D02*
X012240Y006254D01*
X012240Y006135D02*
X013772Y006135D01*
X013772Y006017D02*
X012240Y006017D01*
X012240Y005898D02*
X013772Y005898D01*
X013772Y005780D02*
X012240Y005780D01*
X012240Y005661D02*
X013772Y005661D01*
X013772Y005543D02*
X012240Y005543D01*
X012240Y005424D02*
X013772Y005424D01*
X013772Y005306D02*
X012240Y005306D01*
X012010Y003860D02*
X012010Y002960D01*
X011460Y002410D01*
X011070Y002462D02*
X010850Y002462D01*
X010842Y002580D02*
X011078Y002580D01*
X011197Y002699D02*
X010723Y002699D01*
X011072Y002817D02*
X011612Y002817D01*
X011731Y002936D02*
X011190Y002936D01*
X011656Y003054D02*
X011830Y003054D01*
X011830Y003173D02*
X011774Y003173D01*
X011036Y003291D02*
X010870Y003291D01*
X010918Y003173D02*
X010802Y003173D01*
X010870Y003528D02*
X011070Y003528D01*
X011145Y003647D02*
X010803Y003647D01*
X010850Y002343D02*
X011070Y002343D01*
X011094Y002225D02*
X010826Y002225D01*
X010708Y002106D02*
X011212Y002106D01*
X009040Y001869D02*
X013772Y001869D01*
X013772Y001751D02*
X009040Y001751D01*
X009040Y001632D02*
X013772Y001632D01*
X013772Y001514D02*
X009040Y001514D01*
X009040Y001395D02*
X013772Y001395D01*
X013772Y001277D02*
X009040Y001277D01*
X009040Y001158D02*
X013772Y001158D01*
X013772Y001040D02*
X009040Y001040D01*
X009040Y000921D02*
X013772Y000921D01*
X013772Y000803D02*
X009040Y000803D01*
X009040Y000684D02*
X013772Y000684D01*
X013772Y000566D02*
X009040Y000566D01*
X009040Y000447D02*
X013772Y000447D01*
X004341Y005424D02*
X003426Y005424D01*
X003498Y005454D02*
X003616Y005572D01*
X003680Y005726D01*
X003680Y005894D01*
X003616Y006048D01*
X003498Y006166D01*
X003344Y006230D01*
X003176Y006230D01*
X003022Y006166D01*
X002904Y006048D01*
X002840Y005894D01*
X002840Y005726D01*
X002904Y005572D01*
X003022Y005454D01*
X003176Y005390D01*
X003344Y005390D01*
X003498Y005454D01*
X003586Y005543D02*
X004135Y005543D01*
X004033Y005661D02*
X003653Y005661D01*
X003680Y005780D02*
X003984Y005780D01*
X003970Y005898D02*
X003678Y005898D01*
X003629Y006017D02*
X003974Y006017D01*
X004023Y006135D02*
X003529Y006135D01*
X002991Y006135D02*
X002790Y006135D01*
X002690Y006017D02*
X002891Y006017D01*
X002842Y005898D02*
X002690Y005898D01*
X002690Y005780D02*
X002840Y005780D01*
X002867Y005661D02*
X002616Y005661D01*
X002497Y005543D02*
X002934Y005543D01*
X003094Y005424D02*
X001051Y005424D01*
X000932Y005543D02*
X001225Y005543D01*
X001155Y005661D02*
X000890Y005661D01*
X000890Y005780D02*
X001140Y005780D01*
X001171Y005898D02*
X000890Y005898D01*
X000921Y006017D02*
X001251Y006017D01*
X001960Y005760D02*
X002010Y005710D01*
X002410Y005710D01*
X002510Y005810D01*
X002510Y006110D01*
X003060Y006660D01*
X003027Y006372D02*
X004295Y006372D01*
X004111Y006254D02*
X002908Y006254D01*
X002177Y006496D02*
X002177Y006496D01*
X003558Y006965D02*
X004211Y006965D01*
X004067Y007083D02*
X003641Y007083D01*
X003680Y007202D02*
X003994Y007202D01*
X003958Y007320D02*
X003680Y007320D01*
X004431Y007320D02*
X004489Y007320D01*
X004489Y007202D02*
X004431Y007202D01*
X004431Y007083D02*
X004489Y007083D01*
X004489Y006965D02*
X004431Y006965D01*
X004625Y006372D02*
X005049Y006372D01*
X005171Y006254D02*
X004809Y006254D01*
X004897Y006135D02*
X005294Y006135D01*
X005416Y006017D02*
X004946Y006017D01*
X002330Y005898D02*
X002249Y005898D01*
X001725Y005543D02*
X001695Y005543D01*
X006462Y010520D02*
X010050Y010520D01*
X010108Y010638D02*
X006581Y010638D01*
X006014Y011586D02*
X010056Y011586D01*
X010175Y011705D02*
X006131Y011705D01*
X010693Y010757D02*
X011255Y010757D01*
X011136Y010638D02*
X010812Y010638D01*
X010870Y010520D02*
X011070Y010520D01*
X011832Y011231D02*
X013772Y011231D01*
X013772Y011349D02*
X011850Y011349D01*
X011850Y011468D02*
X013772Y011468D01*
X013772Y011586D02*
X011836Y011586D01*
D14*
X003260Y007260D03*
X003260Y005810D03*
M02*
