G75*
G70*
%OFA0B0*%
%FSLAX24Y24*%
%IPPOS*%
%LPD*%
%AMOC8*
5,1,8,0,0,1.08239X$1,22.5*
%
%ADD10OC8,0.0620*%
%ADD11C,0.0820*%
%ADD12C,0.0480*%
%ADD13C,0.0059*%
%ADD14C,0.0380*%
%ADD15C,0.0680*%
D10*
X010460Y002410D03*
X011460Y002410D03*
X011460Y003410D03*
X010460Y003410D03*
X010460Y004410D03*
X011460Y004410D03*
X011460Y005410D03*
X010460Y005410D03*
X010460Y006410D03*
X011460Y006410D03*
X011460Y007410D03*
X010460Y007410D03*
X010460Y008410D03*
X011460Y008410D03*
X011460Y009410D03*
X010460Y009410D03*
X010460Y010410D03*
X011460Y010410D03*
X011460Y011410D03*
X010460Y011410D03*
D11*
X006167Y010917D03*
X005460Y010210D03*
X004460Y008910D03*
X007460Y008910D03*
X007460Y007410D03*
X004460Y007410D03*
X004460Y005910D03*
X007460Y005910D03*
X007460Y004410D03*
X004460Y004410D03*
D12*
X001960Y005760D03*
X001460Y005760D03*
X001460Y006260D03*
X001960Y006260D03*
X001960Y006760D03*
X001460Y006760D03*
X001460Y007260D03*
X001960Y007260D03*
D13*
X007790Y010283D02*
X008030Y010283D01*
X008062Y010601D01*
X008169Y010635D01*
X008028Y010976D01*
X007970Y010958D01*
X007910Y010952D01*
X007850Y010958D01*
X007792Y010976D01*
X007739Y011004D01*
X007692Y011042D01*
X007653Y011092D01*
X007624Y011148D01*
X007607Y011208D01*
X007603Y011271D01*
X007611Y011334D01*
X007633Y011393D01*
X007666Y011447D01*
X007709Y011493D01*
X007761Y011529D01*
X007819Y011554D01*
X007881Y011566D01*
X007944Y011566D01*
X008006Y011552D01*
X008064Y011526D01*
X008115Y011489D01*
X008157Y011443D01*
X008190Y011388D01*
X008210Y011328D01*
X008218Y011266D01*
X008212Y011203D01*
X008887Y011203D01*
X008887Y011146D02*
X008195Y011146D01*
X008194Y011142D02*
X008535Y011001D01*
X008569Y011108D01*
X008887Y011140D01*
X008887Y011380D01*
X008569Y011412D01*
X008535Y011519D01*
X008484Y011619D01*
X008686Y011866D01*
X008516Y012036D01*
X008269Y011834D01*
X008169Y011885D01*
X008062Y011919D01*
X008030Y012237D01*
X007790Y012237D01*
X007758Y011919D01*
X007651Y011885D01*
X007551Y011834D01*
X007304Y012036D01*
X007134Y011866D01*
X007336Y011619D01*
X007285Y011519D01*
X007251Y011412D01*
X006933Y011380D01*
X006933Y011140D01*
X007251Y011108D01*
X007285Y011001D01*
X007336Y010901D01*
X007134Y010654D01*
X007304Y010484D01*
X007551Y010686D01*
X007651Y010635D01*
X007758Y010601D01*
X007790Y010283D01*
X007784Y010340D02*
X008036Y010340D01*
X008042Y010397D02*
X007778Y010397D01*
X007773Y010455D02*
X008047Y010455D01*
X008053Y010512D02*
X007767Y010512D01*
X007761Y010570D02*
X008059Y010570D01*
X008146Y010628D02*
X007674Y010628D01*
X007554Y010685D02*
X008148Y010685D01*
X008124Y010743D02*
X007207Y010743D01*
X007254Y010800D02*
X008100Y010800D01*
X008077Y010858D02*
X007301Y010858D01*
X007329Y010915D02*
X008053Y010915D01*
X008029Y010973D02*
X008018Y010973D01*
X007802Y010973D02*
X007299Y010973D01*
X007275Y011030D02*
X007707Y011030D01*
X007656Y011088D02*
X007257Y011088D01*
X006933Y011146D02*
X007625Y011146D01*
X007608Y011203D02*
X006933Y011203D01*
X006933Y011261D02*
X007603Y011261D01*
X007609Y011318D02*
X006933Y011318D01*
X006933Y011376D02*
X007626Y011376D01*
X007657Y011433D02*
X007257Y011433D01*
X007276Y011491D02*
X007707Y011491D01*
X007806Y011548D02*
X007300Y011548D01*
X007330Y011606D02*
X008490Y011606D01*
X008520Y011548D02*
X008015Y011548D01*
X008113Y011491D02*
X008544Y011491D01*
X008563Y011433D02*
X008163Y011433D01*
X008194Y011376D02*
X008887Y011376D01*
X008887Y011318D02*
X008211Y011318D01*
X008217Y011261D02*
X008887Y011261D01*
X008563Y011088D02*
X008325Y011088D01*
X008194Y011142D02*
X008212Y011203D01*
X008464Y011030D02*
X008545Y011030D01*
X007550Y010685D02*
X007160Y010685D01*
X007161Y010628D02*
X007480Y010628D01*
X007409Y010570D02*
X007218Y010570D01*
X007276Y010512D02*
X007338Y010512D01*
X007300Y011664D02*
X008520Y011664D01*
X008567Y011721D02*
X007253Y011721D01*
X007206Y011779D02*
X008614Y011779D01*
X008661Y011836D02*
X008271Y011836D01*
X008264Y011836D02*
X007556Y011836D01*
X007549Y011836D02*
X007159Y011836D01*
X007162Y011894D02*
X007478Y011894D01*
X007407Y011951D02*
X007220Y011951D01*
X007277Y012009D02*
X007337Y012009D01*
X007678Y011894D02*
X008142Y011894D01*
X008059Y011951D02*
X007761Y011951D01*
X007767Y012009D02*
X008053Y012009D01*
X008047Y012066D02*
X007773Y012066D01*
X007779Y012124D02*
X008041Y012124D01*
X008036Y012182D02*
X007784Y012182D01*
X008483Y012009D02*
X008543Y012009D01*
X008600Y011951D02*
X008413Y011951D01*
X008342Y011894D02*
X008658Y011894D01*
D14*
X002610Y007260D03*
X002610Y006760D03*
X002610Y006260D03*
X002610Y005760D03*
X000860Y005760D03*
X000860Y006260D03*
X000860Y006760D03*
X000860Y007260D03*
D15*
X003260Y007260D03*
X003260Y005810D03*
M02*
