G75*
G70*
%OFA0B0*%
%FSLAX24Y24*%
%IPPOS*%
%LPD*%
%AMOC8*
5,1,8,0,0,1.08239X$1,22.5*
%
%ADD10OC8,0.0620*%
%ADD11C,0.0820*%
%ADD12C,0.0480*%
%ADD13C,0.0680*%
D10*
X010460Y002410D03*
X011460Y002410D03*
X011460Y003410D03*
X010460Y003410D03*
X010460Y004410D03*
X011460Y004410D03*
X011460Y005410D03*
X010460Y005410D03*
X010460Y006410D03*
X011460Y006410D03*
X011460Y007410D03*
X010460Y007410D03*
X010460Y008410D03*
X011460Y008410D03*
X011460Y009410D03*
X010460Y009410D03*
X010460Y010410D03*
X011460Y010410D03*
X011460Y011410D03*
X010460Y011410D03*
D11*
X006167Y010917D03*
X005460Y010210D03*
X004460Y008910D03*
X007460Y008910D03*
X007460Y007410D03*
X004460Y007410D03*
X004460Y005910D03*
X007460Y005910D03*
X007460Y004410D03*
X004460Y004410D03*
D12*
X001960Y005760D03*
X001460Y005760D03*
X001460Y006260D03*
X001960Y006260D03*
X001960Y006760D03*
X001460Y006760D03*
X001460Y007260D03*
X001960Y007260D03*
D13*
X003260Y007260D03*
X003260Y005810D03*
M02*
