G75*
G70*
%OFA0B0*%
%FSLAX24Y24*%
%IPPOS*%
%LPD*%
%AMOC8*
5,1,8,0,0,1.08239X$1,22.5*
%
%ADD10OC8,0.0540*%
%ADD11C,0.0740*%
%ADD12C,0.0400*%
%ADD13C,0.0059*%
%ADD14C,0.0300*%
%ADD15C,0.0120*%
%ADD16C,0.0600*%
D10*
X010460Y002410D03*
X011460Y002410D03*
X011460Y003410D03*
X010460Y003410D03*
X010460Y004410D03*
X011460Y004410D03*
X011460Y005410D03*
X010460Y005410D03*
X010460Y006410D03*
X011460Y006410D03*
X011460Y007410D03*
X010460Y007410D03*
X010460Y008410D03*
X011460Y008410D03*
X011460Y009410D03*
X010460Y009410D03*
X010460Y010410D03*
X011460Y010410D03*
X011460Y011410D03*
X010460Y011410D03*
D11*
X006167Y010917D03*
X005460Y010210D03*
X004460Y008910D03*
X007460Y008910D03*
X007460Y007410D03*
X004460Y007410D03*
X004460Y005910D03*
X007460Y005910D03*
X007460Y004410D03*
X004460Y004410D03*
D12*
X001960Y005760D03*
X001460Y005760D03*
X001460Y006260D03*
X001960Y006260D03*
X001960Y006760D03*
X001460Y006760D03*
X001460Y007260D03*
X001960Y007260D03*
D13*
X007790Y010283D02*
X008030Y010283D01*
X008062Y010601D01*
X008169Y010635D01*
X008028Y010976D01*
X007970Y010958D01*
X007910Y010952D01*
X007850Y010958D01*
X007792Y010976D01*
X007739Y011004D01*
X007692Y011042D01*
X007653Y011092D01*
X007624Y011148D01*
X007607Y011208D01*
X007603Y011271D01*
X007611Y011334D01*
X007633Y011393D01*
X007666Y011447D01*
X007709Y011493D01*
X007761Y011529D01*
X007819Y011554D01*
X007881Y011566D01*
X007944Y011566D01*
X008006Y011552D01*
X008064Y011526D01*
X008115Y011489D01*
X008157Y011443D01*
X008190Y011388D01*
X008210Y011328D01*
X008218Y011266D01*
X008212Y011203D01*
X008887Y011203D01*
X008887Y011146D02*
X008195Y011146D01*
X008194Y011142D02*
X008535Y011001D01*
X008569Y011108D01*
X008887Y011140D01*
X008887Y011380D01*
X008569Y011412D01*
X008535Y011519D01*
X008484Y011619D01*
X008686Y011866D01*
X008516Y012036D01*
X008269Y011834D01*
X008169Y011885D01*
X008062Y011919D01*
X008030Y012237D01*
X007790Y012237D01*
X007758Y011919D01*
X007651Y011885D01*
X007551Y011834D01*
X007304Y012036D01*
X007134Y011866D01*
X007336Y011619D01*
X007285Y011519D01*
X007251Y011412D01*
X006933Y011380D01*
X006933Y011140D01*
X007251Y011108D01*
X007285Y011001D01*
X007336Y010901D01*
X007134Y010654D01*
X007304Y010484D01*
X007551Y010686D01*
X007651Y010635D01*
X007758Y010601D01*
X007790Y010283D01*
X007784Y010340D02*
X008036Y010340D01*
X008042Y010397D02*
X007778Y010397D01*
X007773Y010455D02*
X008047Y010455D01*
X008053Y010512D02*
X007767Y010512D01*
X007761Y010570D02*
X008059Y010570D01*
X008146Y010628D02*
X007674Y010628D01*
X007554Y010685D02*
X008148Y010685D01*
X008124Y010743D02*
X007207Y010743D01*
X007254Y010800D02*
X008100Y010800D01*
X008077Y010858D02*
X007301Y010858D01*
X007329Y010915D02*
X008053Y010915D01*
X008029Y010973D02*
X008018Y010973D01*
X007802Y010973D02*
X007299Y010973D01*
X007275Y011030D02*
X007707Y011030D01*
X007656Y011088D02*
X007257Y011088D01*
X006933Y011146D02*
X007625Y011146D01*
X007608Y011203D02*
X006933Y011203D01*
X006933Y011261D02*
X007603Y011261D01*
X007609Y011318D02*
X006933Y011318D01*
X006933Y011376D02*
X007626Y011376D01*
X007657Y011433D02*
X007257Y011433D01*
X007276Y011491D02*
X007707Y011491D01*
X007806Y011548D02*
X007300Y011548D01*
X007330Y011606D02*
X008490Y011606D01*
X008520Y011548D02*
X008015Y011548D01*
X008113Y011491D02*
X008544Y011491D01*
X008563Y011433D02*
X008163Y011433D01*
X008194Y011376D02*
X008887Y011376D01*
X008887Y011318D02*
X008211Y011318D01*
X008217Y011261D02*
X008887Y011261D01*
X008563Y011088D02*
X008325Y011088D01*
X008194Y011142D02*
X008212Y011203D01*
X008464Y011030D02*
X008545Y011030D01*
X007550Y010685D02*
X007160Y010685D01*
X007161Y010628D02*
X007480Y010628D01*
X007409Y010570D02*
X007218Y010570D01*
X007276Y010512D02*
X007338Y010512D01*
X007300Y011664D02*
X008520Y011664D01*
X008567Y011721D02*
X007253Y011721D01*
X007206Y011779D02*
X008614Y011779D01*
X008661Y011836D02*
X008271Y011836D01*
X008264Y011836D02*
X007556Y011836D01*
X007549Y011836D02*
X007159Y011836D01*
X007162Y011894D02*
X007478Y011894D01*
X007407Y011951D02*
X007220Y011951D01*
X007277Y012009D02*
X007337Y012009D01*
X007678Y011894D02*
X008142Y011894D01*
X008059Y011951D02*
X007761Y011951D01*
X007767Y012009D02*
X008053Y012009D01*
X008047Y012066D02*
X007773Y012066D01*
X007779Y012124D02*
X008041Y012124D01*
X008036Y012182D02*
X007784Y012182D01*
X008483Y012009D02*
X008543Y012009D01*
X008600Y011951D02*
X008413Y011951D01*
X008342Y011894D02*
X008658Y011894D01*
D14*
X002610Y007260D03*
X002610Y006760D03*
X002610Y006260D03*
X002610Y005760D03*
X000860Y005760D03*
X000860Y006260D03*
X000860Y006760D03*
X000860Y007260D03*
D15*
X002440Y004833D02*
X004486Y002740D01*
X008635Y002740D01*
X008740Y002635D01*
X008740Y002635D01*
X009040Y002335D01*
X009040Y000390D01*
X013772Y000390D01*
X013772Y013416D01*
X007821Y013416D01*
X002790Y008322D01*
X002790Y008321D01*
X002738Y008269D01*
X002686Y008216D01*
X002685Y008216D01*
X002685Y008216D01*
X002611Y008216D01*
X002537Y008215D01*
X002536Y008216D01*
X000490Y008216D01*
X000490Y006645D01*
X000590Y006745D01*
X000590Y006814D01*
X000631Y006913D01*
X000707Y006989D01*
X000758Y007010D01*
X000707Y007031D01*
X000631Y007107D01*
X000590Y007206D01*
X000590Y007314D01*
X000631Y007413D01*
X000707Y007489D01*
X000806Y007530D01*
X000914Y007530D01*
X001013Y007489D01*
X001062Y007440D01*
X001188Y007440D01*
X001189Y007441D01*
X001279Y007531D01*
X001396Y007580D01*
X001524Y007580D01*
X001641Y007531D01*
X001696Y007477D01*
X001696Y007477D01*
X001743Y007524D01*
X001799Y007561D01*
X001861Y007587D01*
X001927Y007600D01*
X001955Y007600D01*
X001955Y007265D01*
X001965Y007265D01*
X001965Y007600D01*
X001993Y007600D01*
X002059Y007587D01*
X002121Y007561D01*
X002177Y007524D01*
X002224Y007477D01*
X002261Y007421D01*
X002287Y007359D01*
X002300Y007293D01*
X002300Y007265D01*
X001965Y007265D01*
X001965Y007255D01*
X002300Y007255D01*
X002300Y007227D01*
X002287Y007161D01*
X002261Y007099D01*
X002224Y007043D01*
X002177Y006996D01*
X002177Y006996D01*
X002231Y006941D01*
X002232Y006940D01*
X002408Y006940D01*
X002457Y006989D01*
X002482Y006999D01*
X002473Y007003D01*
X002425Y007035D01*
X002385Y007075D01*
X002353Y007123D01*
X002331Y007175D01*
X002320Y007231D01*
X002320Y007245D01*
X002595Y007245D01*
X002595Y007275D01*
X002595Y007550D01*
X002581Y007550D01*
X002525Y007539D01*
X002473Y007517D01*
X002425Y007485D01*
X002385Y007445D01*
X002353Y007397D01*
X002331Y007345D01*
X002320Y007289D01*
X002320Y007275D01*
X002595Y007275D01*
X002625Y007275D01*
X002625Y007550D01*
X002639Y007550D01*
X002695Y007539D01*
X002747Y007517D01*
X002795Y007485D01*
X002835Y007445D01*
X002864Y007402D01*
X002904Y007498D01*
X003022Y007616D01*
X003176Y007680D01*
X003344Y007680D01*
X003498Y007616D01*
X003616Y007498D01*
X003680Y007344D01*
X003680Y007176D01*
X003616Y007022D01*
X003498Y006904D01*
X003344Y006840D01*
X003176Y006840D01*
X003022Y006904D01*
X002904Y007022D01*
X002864Y007118D01*
X002835Y007075D01*
X002795Y007035D01*
X002747Y007003D01*
X002738Y006999D01*
X002763Y006989D01*
X002839Y006913D01*
X002880Y006814D01*
X002880Y006735D01*
X002935Y006790D01*
X007785Y006790D01*
X010085Y009090D01*
X010228Y009090D01*
X010070Y009248D01*
X010070Y009572D01*
X010228Y009730D01*
X010035Y009730D01*
X007910Y007605D01*
X007950Y007507D01*
X007950Y007313D01*
X007875Y007132D01*
X007738Y006995D01*
X007557Y006920D01*
X007363Y006920D01*
X007182Y006995D01*
X007045Y007132D01*
X006970Y007313D01*
X006970Y007507D01*
X007045Y007688D01*
X007182Y007825D01*
X007363Y007900D01*
X007557Y007900D01*
X007655Y007860D01*
X009780Y009985D01*
X009885Y010090D01*
X010228Y010090D01*
X010070Y010248D01*
X010070Y010572D01*
X010228Y010730D01*
X009835Y010730D01*
X007950Y008845D01*
X007950Y008813D01*
X007875Y008632D01*
X007738Y008495D01*
X007557Y008420D01*
X007363Y008420D01*
X007182Y008495D01*
X007045Y008632D01*
X006970Y008813D01*
X006970Y009007D01*
X007045Y009188D01*
X007182Y009325D01*
X007363Y009400D01*
X007557Y009400D01*
X007738Y009325D01*
X007829Y009234D01*
X009685Y011090D01*
X010228Y011090D01*
X010070Y011248D01*
X010070Y011572D01*
X010298Y011800D01*
X010622Y011800D01*
X010850Y011572D01*
X010850Y011248D01*
X010692Y011090D01*
X010735Y011090D01*
X011070Y011425D01*
X011070Y011572D01*
X011298Y011800D01*
X011622Y011800D01*
X011850Y011572D01*
X011850Y011248D01*
X011622Y011020D01*
X011298Y011020D01*
X011237Y011082D01*
X010990Y010835D01*
X010885Y010730D01*
X010692Y010730D01*
X010850Y010572D01*
X010850Y010255D01*
X011070Y010475D01*
X011070Y010572D01*
X011298Y010800D01*
X011622Y010800D01*
X011850Y010572D01*
X011850Y010248D01*
X011622Y010020D01*
X011298Y010020D01*
X011212Y010107D01*
X010940Y009835D01*
X010835Y009730D01*
X010692Y009730D01*
X010850Y009572D01*
X010850Y009248D01*
X010692Y009090D01*
X010835Y009090D01*
X011070Y009325D01*
X011070Y009572D01*
X011298Y009800D01*
X011622Y009800D01*
X011850Y009572D01*
X011850Y009248D01*
X011622Y009020D01*
X011298Y009020D01*
X011287Y009032D01*
X011090Y008835D01*
X011090Y008835D01*
X010985Y008730D01*
X010692Y008730D01*
X010850Y008572D01*
X010850Y008248D01*
X010692Y008090D01*
X010885Y008090D01*
X011070Y008275D01*
X011070Y008572D01*
X011298Y008800D01*
X011622Y008800D01*
X011850Y008572D01*
X011850Y008248D01*
X011622Y008020D01*
X011325Y008020D01*
X011035Y007730D01*
X010692Y007730D01*
X010850Y007572D01*
X010850Y007248D01*
X010692Y007090D01*
X010835Y007090D01*
X011070Y007325D01*
X011070Y007572D01*
X011298Y007800D01*
X011622Y007800D01*
X011850Y007572D01*
X011850Y007248D01*
X011622Y007020D01*
X011298Y007020D01*
X011287Y007032D01*
X011090Y006835D01*
X010985Y006730D01*
X010692Y006730D01*
X010850Y006572D01*
X010850Y006248D01*
X010640Y006038D01*
X010640Y005782D01*
X010850Y005572D01*
X010850Y005248D01*
X010640Y005038D01*
X010640Y004782D01*
X010850Y004572D01*
X010850Y004248D01*
X010692Y004090D01*
X011228Y004090D01*
X011070Y004248D01*
X011070Y004572D01*
X011298Y004800D01*
X011622Y004800D01*
X011850Y004572D01*
X011850Y004248D01*
X011640Y004038D01*
X011640Y003935D01*
X011540Y003835D01*
X011505Y003800D01*
X011622Y003800D01*
X011850Y003572D01*
X011850Y003248D01*
X011622Y003020D01*
X011298Y003020D01*
X011070Y003248D01*
X011070Y003572D01*
X011228Y003730D01*
X010692Y003730D01*
X010850Y003572D01*
X010850Y003248D01*
X010622Y003020D01*
X010298Y003020D01*
X010070Y003248D01*
X010070Y003572D01*
X010228Y003730D01*
X006277Y003730D01*
X006272Y003725D01*
X006204Y003730D01*
X006135Y003730D01*
X006130Y003735D01*
X006123Y003736D01*
X006078Y003787D01*
X006030Y003835D01*
X006030Y003843D01*
X005128Y004880D01*
X004606Y004880D01*
X004738Y004825D01*
X004875Y004688D01*
X004950Y004507D01*
X004950Y004313D01*
X004875Y004132D01*
X004738Y003995D01*
X004557Y003920D01*
X004363Y003920D01*
X004182Y003995D01*
X004045Y004132D01*
X003970Y004313D01*
X003970Y004507D01*
X004045Y004688D01*
X004182Y004825D01*
X004314Y004880D01*
X002395Y004880D01*
X002440Y004835D01*
X002440Y004833D01*
X002442Y004832D02*
X004197Y004832D01*
X004070Y004713D02*
X002558Y004713D01*
X002673Y004595D02*
X004006Y004595D01*
X003970Y004476D02*
X002789Y004476D01*
X002905Y004358D02*
X003970Y004358D01*
X004000Y004239D02*
X003021Y004239D01*
X003137Y004121D02*
X004057Y004121D01*
X004175Y004002D02*
X003252Y004002D01*
X003368Y003884D02*
X005995Y003884D01*
X005891Y004002D02*
X004745Y004002D01*
X004863Y004121D02*
X005788Y004121D01*
X005685Y004239D02*
X004920Y004239D01*
X004950Y004358D02*
X005582Y004358D01*
X005479Y004476D02*
X004950Y004476D01*
X004914Y004595D02*
X005376Y004595D01*
X005273Y004713D02*
X004850Y004713D01*
X004723Y004832D02*
X005170Y004832D01*
X005210Y005060D02*
X000760Y005060D01*
X000560Y005310D01*
X000560Y006460D01*
X000860Y006760D01*
X001010Y006760D02*
X001460Y006760D01*
X001960Y006760D02*
X002610Y006760D01*
X002867Y006846D02*
X003162Y006846D01*
X003358Y006846D02*
X007841Y006846D01*
X007960Y006965D02*
X007665Y006965D01*
X007826Y007083D02*
X008078Y007083D01*
X008197Y007202D02*
X007904Y007202D01*
X007950Y007320D02*
X008315Y007320D01*
X008434Y007439D02*
X007950Y007439D01*
X007929Y007557D02*
X008552Y007557D01*
X008671Y007676D02*
X007980Y007676D01*
X008099Y007794D02*
X008789Y007794D01*
X008908Y007913D02*
X008217Y007913D01*
X008336Y008031D02*
X009026Y008031D01*
X009145Y008150D02*
X008454Y008150D01*
X008573Y008268D02*
X009263Y008268D01*
X009382Y008387D02*
X008691Y008387D01*
X008810Y008505D02*
X009500Y008505D01*
X009619Y008624D02*
X008928Y008624D01*
X009047Y008742D02*
X009737Y008742D01*
X009856Y008861D02*
X009165Y008861D01*
X009284Y008979D02*
X009974Y008979D01*
X010160Y008910D02*
X007860Y006610D01*
X003010Y006610D01*
X002660Y006260D01*
X001960Y006260D01*
X001460Y006260D02*
X000860Y006260D01*
X000573Y006728D02*
X000490Y006728D01*
X000490Y006846D02*
X000603Y006846D01*
X000683Y006965D02*
X000490Y006965D01*
X000490Y007083D02*
X000655Y007083D01*
X000592Y007202D02*
X000490Y007202D01*
X000490Y007320D02*
X000593Y007320D01*
X000657Y007439D02*
X000490Y007439D01*
X000490Y007557D02*
X001341Y007557D01*
X001579Y007557D02*
X001793Y007557D01*
X001955Y007557D02*
X001965Y007557D01*
X001955Y007439D02*
X001965Y007439D01*
X001955Y007320D02*
X001965Y007320D01*
X001960Y007260D02*
X002410Y007260D01*
X002326Y007202D02*
X002295Y007202D01*
X002295Y007320D02*
X002326Y007320D01*
X002381Y007439D02*
X002250Y007439D01*
X002127Y007557D02*
X002963Y007557D01*
X002879Y007439D02*
X002839Y007439D01*
X002625Y007439D02*
X002595Y007439D01*
X002595Y007320D02*
X002625Y007320D01*
X002841Y007083D02*
X002879Y007083D01*
X002962Y006965D02*
X002787Y006965D01*
X002433Y006965D02*
X002208Y006965D01*
X002251Y007083D02*
X002379Y007083D01*
X001460Y007260D02*
X000860Y007260D01*
X000490Y007676D02*
X003166Y007676D01*
X003354Y007676D02*
X004040Y007676D01*
X004045Y007688D02*
X003970Y007507D01*
X003970Y007313D01*
X004045Y007132D01*
X004182Y006995D01*
X004363Y006920D01*
X004557Y006920D01*
X004738Y006995D01*
X004875Y007132D01*
X004950Y007313D01*
X004950Y007507D01*
X004875Y007688D01*
X004738Y007825D01*
X004557Y007900D01*
X004363Y007900D01*
X004182Y007825D01*
X004045Y007688D01*
X003991Y007557D02*
X003557Y007557D01*
X003641Y007439D02*
X003970Y007439D01*
X003970Y007320D02*
X003680Y007320D01*
X003680Y007202D02*
X004016Y007202D01*
X004094Y007083D02*
X003641Y007083D01*
X003558Y006965D02*
X004255Y006965D01*
X004665Y006965D02*
X007255Y006965D01*
X007094Y007083D02*
X004826Y007083D01*
X004904Y007202D02*
X007016Y007202D01*
X006970Y007320D02*
X004950Y007320D01*
X004950Y007439D02*
X006970Y007439D01*
X006991Y007557D02*
X004929Y007557D01*
X004880Y007676D02*
X007040Y007676D01*
X007151Y007794D02*
X004769Y007794D01*
X004151Y007794D02*
X000490Y007794D01*
X000490Y007913D02*
X007708Y007913D01*
X007826Y008031D02*
X000490Y008031D01*
X000490Y008150D02*
X007945Y008150D01*
X008063Y008268D02*
X002737Y008268D01*
X002854Y008387D02*
X008182Y008387D01*
X008300Y008505D02*
X007748Y008505D01*
X007866Y008624D02*
X008419Y008624D01*
X008537Y008742D02*
X007921Y008742D01*
X007965Y008861D02*
X008656Y008861D01*
X008774Y008979D02*
X008084Y008979D01*
X008202Y009098D02*
X008893Y009098D01*
X009011Y009216D02*
X008321Y009216D01*
X008439Y009335D02*
X009130Y009335D01*
X009248Y009453D02*
X008558Y009453D01*
X008676Y009572D02*
X009367Y009572D01*
X009485Y009690D02*
X008795Y009690D01*
X008913Y009809D02*
X009604Y009809D01*
X009722Y009927D02*
X009032Y009927D01*
X009150Y010046D02*
X009841Y010046D01*
X009960Y009910D02*
X010760Y009910D01*
X011260Y010410D01*
X011460Y010410D01*
X011850Y010401D02*
X013772Y010401D01*
X013772Y010283D02*
X011850Y010283D01*
X011766Y010164D02*
X013772Y010164D01*
X013772Y010046D02*
X011647Y010046D01*
X011273Y010046D02*
X011150Y010046D01*
X011032Y009927D02*
X013772Y009927D01*
X013772Y009809D02*
X010913Y009809D01*
X010732Y009690D02*
X011188Y009690D01*
X011070Y009572D02*
X010850Y009572D01*
X010850Y009453D02*
X011070Y009453D01*
X011070Y009335D02*
X010850Y009335D01*
X010818Y009216D02*
X010961Y009216D01*
X010843Y009098D02*
X010699Y009098D01*
X010910Y008910D02*
X010160Y008910D01*
X010221Y009098D02*
X009402Y009098D01*
X009521Y009216D02*
X010102Y009216D01*
X010070Y009335D02*
X009639Y009335D01*
X009758Y009453D02*
X010070Y009453D01*
X010070Y009572D02*
X009876Y009572D01*
X009995Y009690D02*
X010188Y009690D01*
X009960Y009910D02*
X007460Y007410D01*
X008588Y007083D02*
X008928Y007083D01*
X008810Y006965D02*
X008469Y006965D01*
X008351Y006846D02*
X008691Y006846D01*
X008573Y006728D02*
X008232Y006728D01*
X008114Y006609D02*
X008454Y006609D01*
X008336Y006491D02*
X007995Y006491D01*
X008040Y006535D02*
X010070Y008565D01*
X010070Y008248D01*
X010228Y008090D01*
X009935Y008090D01*
X009830Y007985D01*
X007935Y006090D01*
X007916Y006090D01*
X007875Y006188D01*
X007738Y006325D01*
X007557Y006400D01*
X007363Y006400D01*
X007182Y006325D01*
X007045Y006188D01*
X007004Y006090D01*
X005880Y006090D01*
X005877Y006093D01*
X005806Y006090D01*
X005735Y006090D01*
X005732Y006087D01*
X005728Y006087D01*
X005680Y006035D01*
X005630Y005985D01*
X005630Y005980D01*
X005181Y005490D01*
X004750Y005490D01*
X004792Y005521D01*
X004849Y005578D01*
X004896Y005643D01*
X004933Y005714D01*
X004957Y005791D01*
X004970Y005870D01*
X004970Y005881D01*
X004489Y005881D01*
X004489Y005939D01*
X004970Y005939D01*
X004970Y005950D01*
X004957Y006029D01*
X004933Y006106D01*
X004896Y006177D01*
X004849Y006242D01*
X004792Y006299D01*
X004727Y006346D01*
X004656Y006383D01*
X004579Y006407D01*
X004500Y006420D01*
X004489Y006420D01*
X004489Y005939D01*
X004431Y005939D01*
X004431Y006420D01*
X004420Y006420D01*
X004341Y006407D01*
X004264Y006383D01*
X004193Y006346D01*
X004128Y006299D01*
X004071Y006242D01*
X004024Y006177D01*
X003987Y006106D01*
X003963Y006029D01*
X003950Y005950D01*
X003950Y005939D01*
X004431Y005939D01*
X004431Y005881D01*
X003950Y005881D01*
X003950Y005870D01*
X003963Y005791D01*
X003987Y005714D01*
X004024Y005643D01*
X004071Y005578D01*
X004128Y005521D01*
X004170Y005490D01*
X003534Y005490D01*
X003616Y005572D01*
X003680Y005726D01*
X003680Y005894D01*
X003616Y006048D01*
X003498Y006166D01*
X003344Y006230D01*
X003176Y006230D01*
X003022Y006166D01*
X002904Y006048D01*
X002843Y005902D01*
X002839Y005913D01*
X002763Y005989D01*
X002712Y006010D01*
X002763Y006031D01*
X002839Y006107D01*
X002880Y006206D01*
X002880Y006225D01*
X003085Y006430D01*
X007935Y006430D01*
X008040Y006535D01*
X008217Y006372D02*
X007625Y006372D01*
X007809Y006254D02*
X008099Y006254D01*
X007980Y006135D02*
X007897Y006135D01*
X008010Y005910D02*
X007460Y005910D01*
X005810Y005910D01*
X005260Y005310D01*
X001460Y005310D01*
X001460Y005760D01*
X000860Y005760D01*
X001960Y005760D02*
X002610Y005760D01*
X002728Y006017D02*
X002891Y006017D01*
X002850Y006135D02*
X002991Y006135D01*
X002908Y006254D02*
X004082Y006254D01*
X004002Y006135D02*
X003529Y006135D01*
X003629Y006017D02*
X003961Y006017D01*
X003678Y005898D02*
X004431Y005898D01*
X004489Y005898D02*
X005555Y005898D01*
X005662Y006017D02*
X004959Y006017D01*
X004918Y006135D02*
X007023Y006135D01*
X007111Y006254D02*
X004838Y006254D01*
X004677Y006372D02*
X007295Y006372D01*
X008010Y005910D02*
X010010Y007910D01*
X010960Y007910D01*
X011460Y008410D01*
X011751Y008150D02*
X013772Y008150D01*
X013772Y008268D02*
X011850Y008268D01*
X011850Y008387D02*
X013772Y008387D01*
X013772Y008505D02*
X011850Y008505D01*
X011798Y008624D02*
X013772Y008624D01*
X013772Y008742D02*
X011680Y008742D01*
X011240Y008742D02*
X010997Y008742D01*
X011115Y008861D02*
X013772Y008861D01*
X013772Y008979D02*
X011234Y008979D01*
X010910Y008910D02*
X011410Y009410D01*
X011850Y009453D02*
X013772Y009453D01*
X013772Y009335D02*
X011850Y009335D01*
X011818Y009216D02*
X013772Y009216D01*
X013772Y009098D02*
X011699Y009098D01*
X011122Y008624D02*
X010798Y008624D01*
X010850Y008505D02*
X011070Y008505D01*
X011070Y008387D02*
X010850Y008387D01*
X010850Y008268D02*
X011063Y008268D01*
X010945Y008150D02*
X010751Y008150D01*
X010169Y008150D02*
X009654Y008150D01*
X009773Y008268D02*
X010070Y008268D01*
X010070Y008387D02*
X009891Y008387D01*
X010010Y008505D02*
X010070Y008505D01*
X009876Y008031D02*
X009536Y008031D01*
X009417Y007913D02*
X009758Y007913D01*
X009639Y007794D02*
X009299Y007794D01*
X009180Y007676D02*
X009521Y007676D01*
X009402Y007557D02*
X009062Y007557D01*
X008943Y007439D02*
X009284Y007439D01*
X009165Y007320D02*
X008825Y007320D01*
X008706Y007202D02*
X009047Y007202D01*
X009960Y006910D02*
X007460Y004410D01*
X006210Y003910D02*
X005210Y005060D01*
X005229Y005543D02*
X004814Y005543D01*
X004906Y005661D02*
X005338Y005661D01*
X005446Y005780D02*
X004954Y005780D01*
X004106Y005543D02*
X003586Y005543D01*
X003653Y005661D02*
X004014Y005661D01*
X003966Y005780D02*
X003680Y005780D01*
X004431Y006017D02*
X004489Y006017D01*
X004489Y006135D02*
X004431Y006135D01*
X004431Y006254D02*
X004489Y006254D01*
X004489Y006372D02*
X004431Y006372D01*
X004243Y006372D02*
X003027Y006372D01*
X002971Y008505D02*
X004172Y008505D01*
X004182Y008495D02*
X004363Y008420D01*
X004557Y008420D01*
X004738Y008495D01*
X004875Y008632D01*
X004950Y008813D01*
X004950Y009007D01*
X004875Y009188D01*
X004738Y009325D01*
X004557Y009400D01*
X004363Y009400D01*
X004182Y009325D01*
X004045Y009188D01*
X003970Y009007D01*
X003970Y008813D01*
X004045Y008632D01*
X004182Y008495D01*
X004054Y008624D02*
X003088Y008624D01*
X003205Y008742D02*
X003999Y008742D01*
X003970Y008861D02*
X003322Y008861D01*
X003439Y008979D02*
X003970Y008979D01*
X004007Y009098D02*
X003556Y009098D01*
X003673Y009216D02*
X004073Y009216D01*
X004204Y009335D02*
X003790Y009335D01*
X003907Y009453D02*
X008048Y009453D01*
X007930Y009335D02*
X007716Y009335D01*
X008167Y009572D02*
X004024Y009572D01*
X004141Y009690D02*
X008285Y009690D01*
X008404Y009809D02*
X005751Y009809D01*
X005738Y009795D02*
X005875Y009932D01*
X005950Y010113D01*
X005950Y010307D01*
X005875Y010488D01*
X005738Y010625D01*
X005557Y010700D01*
X005363Y010700D01*
X005182Y010625D01*
X005045Y010488D01*
X004970Y010307D01*
X004970Y010113D01*
X005045Y009932D01*
X005182Y009795D01*
X005363Y009720D01*
X005557Y009720D01*
X005738Y009795D01*
X005870Y009927D02*
X008522Y009927D01*
X008641Y010046D02*
X005922Y010046D01*
X005950Y010164D02*
X007698Y010164D01*
X007690Y010172D02*
X007728Y010134D01*
X007737Y010134D01*
X007744Y010128D01*
X007798Y010134D01*
X008022Y010134D01*
X008076Y010128D01*
X008083Y010134D01*
X008092Y010134D01*
X008130Y010172D01*
X008172Y010206D01*
X008173Y010215D01*
X008179Y010221D01*
X008179Y010275D01*
X008201Y010486D01*
X008220Y010494D01*
X008273Y010511D01*
X008277Y010518D01*
X008283Y010520D01*
X008305Y010572D01*
X008330Y010621D01*
X008328Y010628D01*
X008331Y010635D01*
X008309Y010686D01*
X008293Y010739D01*
X008286Y010743D01*
X008186Y010984D01*
X008427Y010884D01*
X008431Y010877D01*
X008484Y010861D01*
X008535Y010839D01*
X008542Y010842D01*
X008549Y010840D01*
X008598Y010865D01*
X008650Y010887D01*
X008652Y010893D01*
X008659Y010897D01*
X008676Y010950D01*
X008684Y010969D01*
X008895Y010991D01*
X008949Y010991D01*
X008955Y010997D01*
X008964Y010998D01*
X008998Y011040D01*
X009036Y011078D01*
X009036Y011087D01*
X009042Y011094D01*
X009036Y011148D01*
X009036Y011372D01*
X009042Y011426D01*
X009036Y011433D01*
X009036Y011442D01*
X008998Y011480D01*
X008964Y011522D01*
X008955Y011523D01*
X008949Y011529D01*
X008895Y011529D01*
X008687Y011551D01*
X008674Y011576D01*
X008665Y011604D01*
X008797Y011766D01*
X008835Y011804D01*
X008835Y011813D01*
X008841Y011819D01*
X008835Y011874D01*
X008835Y011928D01*
X008829Y011934D01*
X008828Y011943D01*
X008786Y011977D01*
X008627Y012136D01*
X008593Y012178D01*
X008584Y012179D01*
X008578Y012185D01*
X008524Y012185D01*
X008469Y012191D01*
X008463Y012185D01*
X008454Y012185D01*
X008416Y012147D01*
X008254Y012015D01*
X008226Y012024D01*
X008201Y012037D01*
X008179Y012245D01*
X008179Y012299D01*
X008173Y012305D01*
X008172Y012314D01*
X008130Y012348D01*
X008092Y012386D01*
X008083Y012386D01*
X008076Y012392D01*
X008022Y012386D01*
X007798Y012386D01*
X007744Y012392D01*
X007737Y012386D01*
X007728Y012386D01*
X007690Y012348D01*
X007648Y012314D01*
X007647Y012305D01*
X007641Y012299D01*
X007641Y012245D01*
X007619Y012037D01*
X007594Y012024D01*
X007566Y012015D01*
X007404Y012147D01*
X007366Y012185D01*
X007357Y012185D01*
X007351Y012191D01*
X007296Y012185D01*
X007242Y012185D01*
X007236Y012179D01*
X007227Y012178D01*
X007193Y012136D01*
X007034Y011977D01*
X006992Y011943D01*
X006991Y011934D01*
X006985Y011928D01*
X006985Y011874D01*
X006979Y011819D01*
X006985Y011813D01*
X006985Y011804D01*
X007023Y011766D01*
X007155Y011604D01*
X007146Y011576D01*
X007133Y011551D01*
X006925Y011529D01*
X006871Y011529D01*
X006865Y011523D01*
X006856Y011522D01*
X006822Y011480D01*
X006784Y011442D01*
X006784Y011433D01*
X006778Y011426D01*
X006784Y011372D01*
X006784Y011148D01*
X006778Y011094D01*
X006784Y011087D01*
X006784Y011078D01*
X006822Y011040D01*
X006856Y010998D01*
X006865Y010997D01*
X006871Y010991D01*
X006925Y010991D01*
X007133Y010969D01*
X007146Y010944D01*
X007155Y010916D01*
X007023Y010754D01*
X006985Y010716D01*
X006985Y010707D01*
X006979Y010701D01*
X006985Y010646D01*
X006985Y010592D01*
X006991Y010586D01*
X006992Y010577D01*
X007034Y010543D01*
X007193Y010384D01*
X007227Y010342D01*
X007236Y010341D01*
X007242Y010335D01*
X007296Y010335D01*
X007351Y010329D01*
X007357Y010335D01*
X007366Y010335D01*
X007404Y010373D01*
X007566Y010505D01*
X007594Y010496D01*
X007619Y010483D01*
X007641Y010275D01*
X007641Y010221D01*
X007647Y010215D01*
X007648Y010206D01*
X007690Y010172D01*
X007640Y010283D02*
X005950Y010283D01*
X005911Y010401D02*
X007176Y010401D01*
X007057Y010520D02*
X006488Y010520D01*
X006499Y010528D02*
X006434Y010481D01*
X006363Y010444D01*
X006287Y010420D01*
X006207Y010407D01*
X006127Y010407D01*
X006048Y010420D01*
X005971Y010444D01*
X005900Y010481D01*
X005835Y010528D01*
X005835Y010528D01*
X006167Y010861D01*
X006111Y010917D01*
X005778Y010585D01*
X005778Y010585D01*
X005731Y010650D01*
X005694Y010721D01*
X005670Y010798D01*
X005657Y010877D01*
X005657Y010957D01*
X005670Y011037D01*
X005694Y011113D01*
X005731Y011184D01*
X005778Y011249D01*
X005778Y011249D01*
X006111Y010917D01*
X006167Y010974D01*
X005835Y011306D01*
X005835Y011306D01*
X005900Y011353D01*
X005971Y011390D01*
X006048Y011415D01*
X006127Y011427D01*
X006207Y011427D01*
X006287Y011415D01*
X006363Y011390D01*
X006434Y011353D01*
X006499Y011306D01*
X006499Y011306D01*
X006167Y010974D01*
X006224Y010917D01*
X006556Y010585D01*
X006603Y010650D01*
X006640Y010721D01*
X006665Y010798D01*
X006677Y010877D01*
X006677Y010957D01*
X006665Y011037D01*
X006640Y011113D01*
X006603Y011184D01*
X006556Y011249D01*
X006556Y011249D01*
X006224Y010917D01*
X006167Y010861D01*
X006499Y010528D01*
X006499Y010528D01*
X006556Y010585D02*
X006556Y010585D01*
X006595Y010638D02*
X006985Y010638D01*
X007025Y010757D02*
X006651Y010757D01*
X006677Y010875D02*
X007122Y010875D01*
X006868Y010994D02*
X006671Y010994D01*
X006640Y011112D02*
X006780Y011112D01*
X006784Y011231D02*
X006570Y011231D01*
X006537Y011231D02*
X006424Y011231D01*
X006419Y011112D02*
X006305Y011112D01*
X006300Y010994D02*
X006187Y010994D01*
X006147Y010994D02*
X006034Y010994D01*
X006029Y011112D02*
X005916Y011112D01*
X005910Y011231D02*
X005797Y011231D01*
X005764Y011231D02*
X005663Y011231D01*
X005694Y011112D02*
X005546Y011112D01*
X005429Y010994D02*
X005663Y010994D01*
X005657Y010875D02*
X005312Y010875D01*
X005195Y010757D02*
X005683Y010757D01*
X005707Y010638D02*
X005739Y010638D01*
X005831Y010638D02*
X005945Y010638D01*
X005950Y010757D02*
X006063Y010757D01*
X006068Y010875D02*
X006153Y010875D01*
X006182Y010875D02*
X006266Y010875D01*
X006271Y010757D02*
X006384Y010757D01*
X006390Y010638D02*
X006503Y010638D01*
X005847Y010520D02*
X005843Y010520D01*
X005213Y010638D02*
X005078Y010638D01*
X005077Y010520D02*
X004960Y010520D01*
X005009Y010401D02*
X004843Y010401D01*
X004726Y010283D02*
X004970Y010283D01*
X004970Y010164D02*
X004609Y010164D01*
X004492Y010046D02*
X004998Y010046D01*
X005050Y009927D02*
X004375Y009927D01*
X004258Y009809D02*
X005169Y009809D01*
X004716Y009335D02*
X007204Y009335D01*
X007073Y009216D02*
X004847Y009216D01*
X004913Y009098D02*
X007007Y009098D01*
X006970Y008979D02*
X004950Y008979D01*
X004950Y008861D02*
X006970Y008861D01*
X006999Y008742D02*
X004921Y008742D01*
X004866Y008624D02*
X007054Y008624D01*
X007172Y008505D02*
X004748Y008505D01*
X007460Y008910D02*
X007760Y008910D01*
X009760Y010910D01*
X010810Y010910D01*
X011310Y011410D01*
X011460Y011410D01*
X011850Y011468D02*
X013772Y011468D01*
X013772Y011586D02*
X011836Y011586D01*
X011717Y011705D02*
X013772Y011705D01*
X013772Y011823D02*
X008840Y011823D01*
X008828Y011942D02*
X013772Y011942D01*
X013772Y012060D02*
X008703Y012060D01*
X008589Y012179D02*
X013772Y012179D01*
X013772Y012297D02*
X008179Y012297D01*
X008186Y012179D02*
X008447Y012179D01*
X008309Y012060D02*
X008198Y012060D01*
X007622Y012060D02*
X007511Y012060D01*
X007634Y012179D02*
X007373Y012179D01*
X007231Y012179D02*
X006599Y012179D01*
X006716Y012297D02*
X007641Y012297D01*
X006950Y012534D02*
X013772Y012534D01*
X013772Y012416D02*
X006833Y012416D01*
X007067Y012653D02*
X013772Y012653D01*
X013772Y012771D02*
X007184Y012771D01*
X007301Y012890D02*
X013772Y012890D01*
X013772Y013008D02*
X007418Y013008D01*
X007535Y013127D02*
X013772Y013127D01*
X013772Y013245D02*
X007652Y013245D01*
X007769Y013364D02*
X013772Y013364D01*
X011203Y011705D02*
X010717Y011705D01*
X010836Y011586D02*
X011084Y011586D01*
X011070Y011468D02*
X010850Y011468D01*
X010850Y011349D02*
X010994Y011349D01*
X010876Y011231D02*
X010832Y011231D01*
X010757Y011112D02*
X010714Y011112D01*
X011148Y010994D02*
X013772Y010994D01*
X013772Y011112D02*
X011714Y011112D01*
X011832Y011231D02*
X013772Y011231D01*
X013772Y011349D02*
X011850Y011349D01*
X011030Y010875D02*
X013772Y010875D01*
X013772Y010757D02*
X011665Y010757D01*
X011784Y010638D02*
X013772Y010638D01*
X013772Y010520D02*
X011850Y010520D01*
X011255Y010757D02*
X010911Y010757D01*
X010784Y010638D02*
X011136Y010638D01*
X011070Y010520D02*
X010850Y010520D01*
X010850Y010401D02*
X010996Y010401D01*
X010878Y010283D02*
X010850Y010283D01*
X010154Y010164D02*
X009269Y010164D01*
X009387Y010283D02*
X010070Y010283D01*
X010070Y010401D02*
X009506Y010401D01*
X009624Y010520D02*
X010070Y010520D01*
X010136Y010638D02*
X009743Y010638D01*
X009470Y010875D02*
X008622Y010875D01*
X008438Y010875D02*
X008231Y010875D01*
X008280Y010757D02*
X009352Y010757D01*
X009233Y010638D02*
X008329Y010638D01*
X008281Y010520D02*
X009115Y010520D01*
X008996Y010401D02*
X008192Y010401D01*
X008180Y010283D02*
X008878Y010283D01*
X008759Y010164D02*
X008122Y010164D01*
X007628Y010401D02*
X007438Y010401D01*
X008952Y010994D02*
X009589Y010994D01*
X009040Y011112D02*
X010206Y011112D01*
X010088Y011231D02*
X009036Y011231D01*
X009036Y011349D02*
X010070Y011349D01*
X010070Y011468D02*
X009011Y011468D01*
X008747Y011705D02*
X010203Y011705D01*
X010084Y011586D02*
X008671Y011586D01*
X007149Y011586D02*
X006014Y011586D01*
X006131Y011705D02*
X007073Y011705D01*
X006980Y011823D02*
X006248Y011823D01*
X006365Y011942D02*
X006992Y011942D01*
X007117Y012060D02*
X006482Y012060D01*
X006809Y011468D02*
X005897Y011468D01*
X005894Y011349D02*
X005780Y011349D01*
X006440Y011349D02*
X006784Y011349D01*
X011732Y009690D02*
X013772Y009690D01*
X013772Y009572D02*
X011850Y009572D01*
X011633Y008031D02*
X013772Y008031D01*
X013772Y007913D02*
X011217Y007913D01*
X011292Y007794D02*
X011099Y007794D01*
X011174Y007676D02*
X010746Y007676D01*
X010850Y007557D02*
X011070Y007557D01*
X011070Y007439D02*
X010850Y007439D01*
X010850Y007320D02*
X011065Y007320D01*
X010947Y007202D02*
X010803Y007202D01*
X010910Y006910D02*
X009960Y006910D01*
X010694Y006728D02*
X011226Y006728D01*
X011298Y006800D02*
X011070Y006572D01*
X011070Y006248D01*
X011298Y006020D01*
X011622Y006020D01*
X011850Y006248D01*
X011850Y006572D01*
X011622Y006800D01*
X011298Y006800D01*
X011219Y006965D02*
X013772Y006965D01*
X013772Y007083D02*
X011685Y007083D01*
X011803Y007202D02*
X013772Y007202D01*
X013772Y007320D02*
X011850Y007320D01*
X011850Y007439D02*
X013772Y007439D01*
X013772Y007557D02*
X011850Y007557D01*
X011746Y007676D02*
X013772Y007676D01*
X013772Y007794D02*
X011628Y007794D01*
X011460Y007410D02*
X011410Y007410D01*
X010910Y006910D01*
X011101Y006846D02*
X013772Y006846D01*
X013772Y006728D02*
X011694Y006728D01*
X011813Y006609D02*
X013772Y006609D01*
X013772Y006491D02*
X011850Y006491D01*
X011850Y006372D02*
X013772Y006372D01*
X013772Y006254D02*
X011850Y006254D01*
X011737Y006135D02*
X013772Y006135D01*
X013772Y006017D02*
X010640Y006017D01*
X010640Y005898D02*
X013772Y005898D01*
X013772Y005780D02*
X011642Y005780D01*
X011622Y005800D02*
X011298Y005800D01*
X011070Y005572D01*
X011070Y005248D01*
X011298Y005020D01*
X011622Y005020D01*
X011850Y005248D01*
X011850Y005572D01*
X011622Y005800D01*
X011761Y005661D02*
X013772Y005661D01*
X013772Y005543D02*
X011850Y005543D01*
X011850Y005424D02*
X013772Y005424D01*
X013772Y005306D02*
X011850Y005306D01*
X011789Y005187D02*
X013772Y005187D01*
X013772Y005069D02*
X011670Y005069D01*
X011250Y005069D02*
X010670Y005069D01*
X010640Y004950D02*
X013772Y004950D01*
X013772Y004832D02*
X010640Y004832D01*
X010709Y004713D02*
X011211Y004713D01*
X011093Y004595D02*
X010827Y004595D01*
X010850Y004476D02*
X011070Y004476D01*
X011070Y004358D02*
X010850Y004358D01*
X010841Y004239D02*
X011079Y004239D01*
X011198Y004121D02*
X010722Y004121D01*
X010460Y004410D02*
X010460Y005410D01*
X010460Y006410D01*
X010850Y006372D02*
X011070Y006372D01*
X011070Y006254D02*
X010850Y006254D01*
X010737Y006135D02*
X011183Y006135D01*
X011278Y005780D02*
X010642Y005780D01*
X010761Y005661D02*
X011159Y005661D01*
X011070Y005543D02*
X010850Y005543D01*
X010850Y005424D02*
X011070Y005424D01*
X011070Y005306D02*
X010850Y005306D01*
X010789Y005187D02*
X011131Y005187D01*
X011709Y004713D02*
X013772Y004713D01*
X013772Y004595D02*
X011827Y004595D01*
X011850Y004476D02*
X013772Y004476D01*
X013772Y004358D02*
X011850Y004358D01*
X011841Y004239D02*
X013772Y004239D01*
X013772Y004121D02*
X011722Y004121D01*
X011640Y004002D02*
X013772Y004002D01*
X013772Y003884D02*
X011588Y003884D01*
X011657Y003765D02*
X013772Y003765D01*
X013772Y003647D02*
X011775Y003647D01*
X011850Y003528D02*
X013772Y003528D01*
X013772Y003410D02*
X011850Y003410D01*
X011850Y003291D02*
X013772Y003291D01*
X013772Y003173D02*
X011774Y003173D01*
X011656Y003054D02*
X013772Y003054D01*
X013772Y002936D02*
X004295Y002936D01*
X004179Y003054D02*
X010264Y003054D01*
X010146Y003173D02*
X004063Y003173D01*
X003947Y003291D02*
X010070Y003291D01*
X010070Y003410D02*
X003831Y003410D01*
X003716Y003528D02*
X010070Y003528D01*
X010145Y003647D02*
X003600Y003647D01*
X003484Y003765D02*
X006098Y003765D01*
X006210Y003910D02*
X011360Y003910D01*
X011460Y004010D01*
X011460Y004410D01*
X011145Y003647D02*
X010775Y003647D01*
X010850Y003528D02*
X011070Y003528D01*
X011070Y003410D02*
X010850Y003410D01*
X010850Y003291D02*
X011070Y003291D01*
X011146Y003173D02*
X010774Y003173D01*
X010656Y003054D02*
X011264Y003054D01*
X011290Y002820D02*
X011050Y002580D01*
X011050Y002440D01*
X011430Y002440D01*
X011430Y002820D01*
X011290Y002820D01*
X011287Y002817D02*
X010633Y002817D01*
X010630Y002820D02*
X010490Y002820D01*
X010490Y002440D01*
X010430Y002440D01*
X010430Y002820D01*
X010290Y002820D01*
X010050Y002580D01*
X010050Y002440D01*
X010430Y002440D01*
X010430Y002380D01*
X010050Y002380D01*
X010050Y002240D01*
X010290Y002000D01*
X010430Y002000D01*
X010430Y002380D01*
X010490Y002380D01*
X010490Y002440D01*
X010870Y002440D01*
X010870Y002580D01*
X010630Y002820D01*
X010490Y002817D02*
X010430Y002817D01*
X010430Y002699D02*
X010490Y002699D01*
X010490Y002580D02*
X010430Y002580D01*
X010430Y002462D02*
X010490Y002462D01*
X010490Y002380D02*
X010870Y002380D01*
X010870Y002240D01*
X010630Y002000D01*
X010490Y002000D01*
X010490Y002380D01*
X010490Y002343D02*
X010430Y002343D01*
X010430Y002225D02*
X010490Y002225D01*
X010490Y002106D02*
X010430Y002106D01*
X010184Y002106D02*
X009040Y002106D01*
X009040Y001988D02*
X013772Y001988D01*
X013772Y002106D02*
X011736Y002106D01*
X011630Y002000D02*
X011870Y002240D01*
X011870Y002380D01*
X011490Y002380D01*
X011490Y002440D01*
X011430Y002440D01*
X011430Y002380D01*
X011050Y002380D01*
X011050Y002240D01*
X011290Y002000D01*
X011430Y002000D01*
X011430Y002380D01*
X011490Y002380D01*
X011490Y002000D01*
X011630Y002000D01*
X011490Y002106D02*
X011430Y002106D01*
X011430Y002225D02*
X011490Y002225D01*
X011490Y002343D02*
X011430Y002343D01*
X011490Y002440D02*
X011870Y002440D01*
X011870Y002580D01*
X011630Y002820D01*
X011490Y002820D01*
X011490Y002440D01*
X011490Y002462D02*
X011430Y002462D01*
X011430Y002580D02*
X011490Y002580D01*
X011490Y002699D02*
X011430Y002699D01*
X011430Y002817D02*
X011490Y002817D01*
X011633Y002817D02*
X013772Y002817D01*
X013772Y002699D02*
X011751Y002699D01*
X011870Y002580D02*
X013772Y002580D01*
X013772Y002462D02*
X011870Y002462D01*
X011870Y002343D02*
X013772Y002343D01*
X013772Y002225D02*
X011854Y002225D01*
X011184Y002106D02*
X010736Y002106D01*
X010854Y002225D02*
X011066Y002225D01*
X011050Y002343D02*
X010870Y002343D01*
X010870Y002462D02*
X011050Y002462D01*
X011050Y002580D02*
X010870Y002580D01*
X010751Y002699D02*
X011169Y002699D01*
X010287Y002817D02*
X004411Y002817D01*
X008676Y002699D02*
X010169Y002699D01*
X010050Y002580D02*
X008795Y002580D01*
X008913Y002462D02*
X010050Y002462D01*
X010050Y002343D02*
X009032Y002343D01*
X009040Y002225D02*
X010066Y002225D01*
X009040Y001869D02*
X013772Y001869D01*
X013772Y001751D02*
X009040Y001751D01*
X009040Y001632D02*
X013772Y001632D01*
X013772Y001514D02*
X009040Y001514D01*
X009040Y001395D02*
X013772Y001395D01*
X013772Y001277D02*
X009040Y001277D01*
X009040Y001158D02*
X013772Y001158D01*
X013772Y001040D02*
X009040Y001040D01*
X009040Y000921D02*
X013772Y000921D01*
X013772Y000803D02*
X009040Y000803D01*
X009040Y000684D02*
X013772Y000684D01*
X013772Y000566D02*
X009040Y000566D01*
X009040Y000447D02*
X013772Y000447D01*
X011070Y006491D02*
X010850Y006491D01*
X010813Y006609D02*
X011107Y006609D01*
D16*
X003260Y007260D03*
X003260Y005810D03*
M02*
