G75*
G70*
%OFA0B0*%
%FSLAX24Y24*%
%IPPOS*%
%LPD*%
%AMOC8*
5,1,8,0,0,1.08239X$1,22.5*
%
%ADD10C,0.0080*%
%ADD11C,0.0060*%
%ADD12C,0.0020*%
%ADD13C,0.0050*%
%ADD14C,0.0070*%
%ADD15C,0.0010*%
%ADD16C,0.0100*%
%ADD17C,0.0090*%
D10*
X013040Y000980D02*
X013120Y000900D01*
X013200Y000900D01*
X013280Y000980D01*
X013280Y001140D01*
X013360Y001220D01*
X013440Y001220D01*
X013520Y001140D01*
X013520Y000980D01*
X013440Y000900D01*
X013040Y000980D02*
X013040Y001140D01*
X013120Y001220D01*
X013280Y001416D02*
X013200Y001496D01*
X013200Y001656D01*
X013280Y001736D01*
X013360Y001736D01*
X013360Y001416D01*
X013440Y001416D02*
X013280Y001416D01*
X013440Y001416D02*
X013520Y001496D01*
X013520Y001656D01*
X013520Y001931D02*
X013200Y001931D01*
X013200Y002171D01*
X013280Y002252D01*
X013520Y002252D01*
X013520Y002447D02*
X013520Y002687D01*
X013440Y002767D01*
X013360Y002687D01*
X013360Y002527D01*
X013280Y002447D01*
X013200Y002527D01*
X013200Y002767D01*
X013280Y002963D02*
X013200Y003043D01*
X013200Y003203D01*
X013280Y003283D01*
X013360Y003283D01*
X013360Y002963D01*
X013440Y002963D02*
X013280Y002963D01*
X013440Y002963D02*
X013520Y003043D01*
X013520Y003203D01*
X013440Y003478D02*
X013520Y003558D01*
X013520Y003718D01*
X013440Y003798D01*
X013360Y003798D01*
X013280Y003718D01*
X013280Y003558D01*
X013200Y003478D01*
X013120Y003478D01*
X013040Y003558D01*
X013040Y003718D01*
X013120Y003798D01*
X013200Y003994D02*
X013200Y004074D01*
X013520Y004074D01*
X013520Y003994D02*
X013520Y004154D01*
X013520Y004338D02*
X013200Y004338D01*
X013200Y004578D01*
X013280Y004658D01*
X013520Y004658D01*
X013440Y004853D02*
X013520Y004933D01*
X013520Y005174D01*
X013600Y005174D02*
X013200Y005174D01*
X013200Y004933D01*
X013280Y004853D01*
X013440Y004853D01*
X013680Y005013D02*
X013680Y005093D01*
X013600Y005174D01*
X013520Y005885D02*
X013520Y006125D01*
X013440Y006205D01*
X013280Y006205D01*
X013200Y006125D01*
X013200Y005885D01*
X013680Y005885D01*
X013520Y006400D02*
X013200Y006400D01*
X013360Y006400D02*
X013200Y006560D01*
X013200Y006640D01*
X013280Y006830D02*
X013440Y006830D01*
X013520Y006910D01*
X013520Y007070D01*
X013440Y007150D01*
X013280Y007150D01*
X013200Y007070D01*
X013200Y006910D01*
X013280Y006830D01*
X013280Y007345D02*
X013440Y007345D01*
X013520Y007426D01*
X013520Y007666D01*
X013600Y007666D02*
X013200Y007666D01*
X013200Y007426D01*
X013280Y007345D01*
X013680Y007506D02*
X013680Y007586D01*
X013600Y007666D01*
X013520Y007861D02*
X013200Y007861D01*
X013360Y007861D02*
X013200Y008021D01*
X013200Y008101D01*
X013200Y008371D02*
X013200Y008531D01*
X013280Y008611D01*
X013520Y008611D01*
X013520Y008371D01*
X013440Y008291D01*
X013360Y008371D01*
X013360Y008611D01*
X013520Y008806D02*
X013200Y008806D01*
X013200Y008887D01*
X013280Y008967D01*
X013200Y009047D01*
X013280Y009127D01*
X013520Y009127D01*
X013520Y008967D02*
X013280Y008967D01*
X013200Y009322D02*
X013200Y009402D01*
X013280Y009482D01*
X013200Y009562D01*
X013280Y009642D01*
X013520Y009642D01*
X013520Y009482D02*
X013280Y009482D01*
X013200Y009322D02*
X013520Y009322D01*
X013440Y009838D02*
X013280Y009838D01*
X013200Y009918D01*
X013200Y010078D01*
X013280Y010158D01*
X013360Y010158D01*
X013360Y009838D01*
X013440Y009838D02*
X013520Y009918D01*
X013520Y010078D01*
X013520Y010353D02*
X013200Y010353D01*
X013360Y010353D02*
X013200Y010514D01*
X013200Y010594D01*
X013040Y011299D02*
X013360Y011299D01*
X013520Y011459D01*
X013360Y011619D01*
X013040Y011619D01*
X013120Y011814D02*
X013040Y011894D01*
X013040Y012055D01*
X013120Y012135D01*
X013440Y011814D01*
X013520Y011894D01*
X013520Y012055D01*
X013440Y012135D01*
X013120Y012135D01*
X013120Y011814D02*
X013440Y011814D01*
X013440Y012330D02*
X013440Y012410D01*
X013520Y012410D01*
X013520Y012330D01*
X013440Y012330D01*
X013520Y012588D02*
X013200Y012908D01*
X013120Y012908D01*
X013040Y012828D01*
X013040Y012668D01*
X013120Y012588D01*
X013520Y012588D02*
X013520Y012908D01*
X006697Y011094D02*
X006344Y011447D01*
X005990Y011447D01*
X005637Y011094D01*
X005637Y010740D01*
X005283Y010740D01*
X004930Y010387D01*
X004930Y010033D01*
X005283Y009680D01*
X005637Y009680D01*
X005990Y010033D01*
X005990Y010387D01*
X006344Y010387D01*
X006697Y010740D01*
X006697Y011094D01*
X006960Y009210D02*
X004960Y009210D01*
X004960Y008910D01*
X004860Y008910D01*
X004960Y008910D02*
X004960Y008610D01*
X006960Y008610D01*
X006960Y008910D01*
X007060Y008910D01*
X006960Y008910D02*
X006960Y009210D01*
X006960Y007710D02*
X004960Y007710D01*
X004960Y007410D01*
X004860Y007410D01*
X004960Y007410D02*
X004960Y007110D01*
X006960Y007110D01*
X006960Y007410D01*
X007060Y007410D01*
X006960Y007410D02*
X006960Y007710D01*
X006960Y006210D02*
X004960Y006210D01*
X004960Y005910D01*
X004860Y005910D01*
X004960Y005910D02*
X004960Y005610D01*
X006960Y005610D01*
X006960Y005910D01*
X007060Y005910D01*
X006960Y005910D02*
X006960Y006210D01*
X006960Y004710D02*
X004960Y004710D01*
X004960Y004410D01*
X004860Y004410D01*
X004960Y004410D02*
X004960Y004110D01*
X006960Y004110D01*
X006960Y004410D01*
X007060Y004410D01*
X006960Y004410D02*
X006960Y004710D01*
X012960Y004074D02*
X013040Y004074D01*
D11*
X009210Y000910D02*
X009110Y000910D01*
X009110Y001410D01*
X009210Y001410D01*
X009210Y006660D01*
X009110Y006660D01*
X009110Y007160D01*
X009210Y007160D01*
X009210Y012410D01*
X009110Y012410D01*
X009110Y012910D01*
X009210Y012910D01*
X009210Y013410D01*
X012710Y013410D01*
X012710Y011560D01*
X012510Y011410D01*
X012510Y011210D01*
X012510Y010610D01*
X012510Y010410D01*
X012710Y010260D01*
X012710Y007710D01*
X012310Y007710D01*
X012210Y007710D01*
X012210Y010610D01*
X012210Y011210D01*
X012310Y011210D01*
X012510Y011210D01*
X012210Y011210D02*
X012210Y012910D01*
X009710Y012910D01*
X009710Y000910D01*
X012210Y000910D01*
X012210Y003610D01*
X012210Y004210D01*
X012310Y004210D01*
X012510Y004210D01*
X012510Y004410D01*
X012710Y004560D01*
X012710Y006110D01*
X012310Y006110D01*
X012210Y006110D01*
X012210Y004210D01*
X012510Y004210D02*
X012510Y003610D01*
X012510Y003410D01*
X012710Y003260D01*
X012710Y002710D01*
X012660Y002710D01*
X012660Y002110D01*
X012710Y002110D01*
X012710Y000410D01*
X009210Y000410D01*
X009210Y000910D01*
X012210Y003610D02*
X012310Y003610D01*
X012510Y003610D01*
X006649Y004190D02*
X006478Y004360D01*
X006422Y004303D02*
X006649Y004530D01*
X006422Y004530D02*
X006422Y004190D01*
X006280Y004247D02*
X006224Y004190D01*
X006110Y004190D01*
X006053Y004247D01*
X006280Y004474D01*
X006280Y004247D01*
X006053Y004247D02*
X006053Y004474D01*
X006110Y004530D01*
X006224Y004530D01*
X006280Y004474D01*
X005798Y004530D02*
X005798Y004190D01*
X005685Y004190D02*
X005912Y004190D01*
X005685Y004417D02*
X005798Y004530D01*
X005798Y005690D02*
X005798Y006030D01*
X005685Y005917D01*
X005685Y005690D02*
X005912Y005690D01*
X006053Y005747D02*
X006280Y005974D01*
X006280Y005747D01*
X006224Y005690D01*
X006110Y005690D01*
X006053Y005747D01*
X006053Y005974D01*
X006110Y006030D01*
X006224Y006030D01*
X006280Y005974D01*
X006422Y006030D02*
X006422Y005690D01*
X006422Y005803D02*
X006649Y006030D01*
X006478Y005860D02*
X006649Y005690D01*
X006649Y007190D02*
X006478Y007360D01*
X006422Y007303D02*
X006649Y007530D01*
X006422Y007530D02*
X006422Y007190D01*
X006280Y007247D02*
X006224Y007190D01*
X006110Y007190D01*
X006053Y007247D01*
X006280Y007474D01*
X006280Y007247D01*
X006053Y007247D02*
X006053Y007474D01*
X006110Y007530D01*
X006224Y007530D01*
X006280Y007474D01*
X005798Y007530D02*
X005685Y007417D01*
X005798Y007530D02*
X005798Y007190D01*
X005685Y007190D02*
X005912Y007190D01*
X005912Y008690D02*
X005685Y008690D01*
X005798Y008690D02*
X005798Y009030D01*
X005685Y008917D01*
X006053Y008974D02*
X006053Y008747D01*
X006280Y008974D01*
X006280Y008747D01*
X006224Y008690D01*
X006110Y008690D01*
X006053Y008747D01*
X006422Y008803D02*
X006649Y009030D01*
X006422Y009030D02*
X006422Y008690D01*
X006478Y008860D02*
X006649Y008690D01*
X006280Y008974D02*
X006224Y009030D01*
X006110Y009030D01*
X006053Y008974D01*
X004917Y009760D02*
X004490Y009760D01*
X006654Y011497D02*
X006654Y011924D01*
X006867Y011710D02*
X006440Y011710D01*
X012210Y010610D02*
X012310Y010610D01*
X012510Y010610D01*
X012710Y007710D02*
X012710Y006110D01*
X012210Y006110D02*
X011910Y006110D01*
X011910Y007710D01*
X012210Y007710D01*
D12*
X012310Y007710D02*
X012310Y010610D01*
X012310Y011210D02*
X012310Y013010D01*
X009610Y013010D01*
X009610Y000810D01*
X012310Y000810D01*
X012310Y003610D01*
X012310Y004210D02*
X012310Y006110D01*
D13*
X012160Y006535D02*
X012085Y006610D01*
X012085Y006760D01*
X012160Y006835D01*
X012235Y006835D01*
X012535Y006535D01*
X012535Y006835D01*
X012460Y006995D02*
X012160Y006995D01*
X012085Y007070D01*
X012085Y007221D01*
X012160Y007296D01*
X012460Y006995D01*
X012535Y007070D01*
X012535Y007221D01*
X012460Y007296D01*
X012160Y007296D01*
X006382Y009636D02*
X006329Y009583D01*
X006223Y009583D01*
X006382Y009636D02*
X006382Y009742D01*
X006117Y010007D01*
X006064Y009954D02*
X006170Y010060D01*
X006336Y010121D02*
X006336Y010227D01*
X006442Y010333D01*
X006549Y010333D01*
X006602Y010280D01*
X006602Y010174D01*
X006708Y010174D01*
X006761Y010121D01*
X006761Y010014D01*
X006655Y009908D01*
X006549Y009908D01*
X006549Y010121D02*
X006602Y010174D01*
X010310Y001735D02*
X010235Y001660D01*
X010235Y001510D01*
X010310Y001435D01*
X010385Y001735D02*
X010685Y001435D01*
X010685Y001735D01*
X010385Y001735D02*
X010310Y001735D01*
X011235Y001585D02*
X011685Y001585D01*
X011685Y001435D02*
X011685Y001735D01*
X011385Y001435D02*
X011235Y001585D01*
D14*
X008971Y002995D02*
X008550Y002995D01*
X008761Y002995D02*
X008761Y003626D01*
X008550Y003415D01*
X008326Y003626D02*
X008116Y003626D01*
X008221Y003626D02*
X008221Y003100D01*
X008116Y002995D01*
X008011Y002995D01*
X007906Y003100D01*
X001984Y007895D02*
X001763Y007895D01*
X001984Y008115D01*
X001984Y008170D01*
X001928Y008225D01*
X001818Y008225D01*
X001763Y008170D01*
X001615Y008225D02*
X001505Y008225D01*
X001560Y008225D02*
X001560Y007950D01*
X001505Y007895D01*
X001450Y007895D01*
X001395Y007950D01*
D15*
X006670Y008255D02*
X006670Y008405D01*
X006745Y008405D01*
X006770Y008380D01*
X006770Y008330D01*
X006745Y008305D01*
X006670Y008305D01*
X006720Y008305D02*
X006770Y008255D01*
X006818Y008330D02*
X006918Y008330D01*
X006893Y008255D02*
X006893Y008405D01*
X006818Y008330D01*
X006843Y006905D02*
X006893Y006905D01*
X006918Y006880D01*
X006918Y006855D01*
X006893Y006830D01*
X006918Y006805D01*
X006918Y006780D01*
X006893Y006755D01*
X006843Y006755D01*
X006818Y006780D01*
X006770Y006755D02*
X006720Y006805D01*
X006745Y006805D02*
X006670Y006805D01*
X006670Y006755D02*
X006670Y006905D01*
X006745Y006905D01*
X006770Y006880D01*
X006770Y006830D01*
X006745Y006805D01*
X006818Y006880D02*
X006843Y006905D01*
X006868Y006830D02*
X006893Y006830D01*
X006868Y005405D02*
X006868Y005255D01*
X006818Y005255D02*
X006918Y005255D01*
X006818Y005355D02*
X006868Y005405D01*
X006770Y005380D02*
X006770Y005330D01*
X006745Y005305D01*
X006670Y005305D01*
X006670Y005255D02*
X006670Y005405D01*
X006745Y005405D01*
X006770Y005380D01*
X006720Y005305D02*
X006770Y005255D01*
X006745Y003905D02*
X006770Y003880D01*
X006770Y003830D01*
X006745Y003805D01*
X006670Y003805D01*
X006670Y003755D02*
X006670Y003905D01*
X006745Y003905D01*
X006818Y003880D02*
X006843Y003905D01*
X006893Y003905D01*
X006918Y003880D01*
X006918Y003855D01*
X006818Y003755D01*
X006918Y003755D01*
X006770Y003755D02*
X006720Y003805D01*
D16*
X002360Y005360D02*
X001060Y005360D01*
X001060Y007660D01*
X002360Y007660D01*
X002360Y005360D01*
D17*
X002605Y005347D02*
X002605Y005279D01*
X002673Y005210D01*
X002810Y005210D01*
X002879Y005142D01*
X002879Y005073D01*
X002810Y005005D01*
X002673Y005005D01*
X002605Y005073D01*
X002605Y005142D01*
X002673Y005210D01*
X002810Y005210D02*
X002879Y005279D01*
X002879Y005347D01*
X002810Y005415D01*
X002673Y005415D01*
X002605Y005347D01*
X000879Y005347D02*
X000605Y005073D01*
X000605Y005005D01*
X000879Y005347D02*
X000879Y005415D01*
X000605Y005415D01*
X000605Y007605D02*
X000879Y007605D01*
X000742Y007605D02*
X000742Y008015D01*
X000605Y007879D01*
X002605Y007947D02*
X002673Y008015D01*
X002810Y008015D01*
X002879Y007947D01*
X002879Y007879D01*
X002605Y007605D01*
X002879Y007605D01*
M02*
