%
M48
M72
T01C0.0260
T02C0.0354
T03C0.0360
T04C0.0400
%
T01
X1460Y5760
X1960Y5760
X1960Y6260
X1460Y6260
X1460Y6760
X1960Y6760
X1960Y7260
X1460Y7260
T02
X3260Y7260
X4460Y7410
X7460Y7410
X7460Y5910
X4460Y5910
X3260Y5810
X4460Y4410
X7460Y4410
X7460Y8910
X4460Y8910
T03
X10460Y2410
X11460Y2410
X11460Y3410
X10460Y3410
X10460Y4410
X11460Y4410
X11460Y5410
X10460Y5410
X10460Y6410
X11460Y6410
X11460Y7410
X10460Y7410
X10460Y8410
X11460Y8410
X11460Y9410
X10460Y9410
X10460Y10410
X11460Y10410
X11460Y11410
X10460Y11410
T04
X6167Y10917
X5460Y10210
M30
