%
M48
M72
T01C0.01181
T02C0.01969
T03C0.02362
T04C0.04000
T05C0.05118
T06C0.11811
%
T01
X117000Y106500
X83500Y153000
X96500Y181500
X176500Y271500
X231500Y217000
X236500Y217500
X241000Y217500
X248500Y218500
X252500Y220000
X256500Y217500
X269000Y228500
X282500Y224500
X291000Y217500
X298000Y214500
X306000Y216000
X241000Y211000
X256500Y83000
X271500Y82500
X276500Y83500
X256500Y64000
X234500Y72000
X213000Y63500
X213000Y42500
X222500Y39500
X229000Y36000
X230500Y32500
X238000Y32000
X242000Y33500
X244000Y37000
X247500Y34000
X249500Y30000
X257500Y34500
X279500Y52500
X279500Y57000
X297500Y44500
X281500Y37500
X191000Y48500
T02
X162500Y68500
X75500Y88500
X69500Y88500
X63500Y88500
X78500Y157500
X77500Y174500
X54500Y179500
X28500Y187425
X28500Y165575
X50500Y222500
X38500Y247500
X45500Y277500
X110500Y307500
X178000Y228500
X165500Y174500
X165500Y169500
X271500Y277500
X271500Y286500
X245500Y296500
X238500Y322500
X276500Y236500
X312500Y234500
X284500Y83500
X299500Y33500
T03
X36768Y168823
X36768Y184177
T04
X45000Y198000
X73500Y198500
X55500Y238000
X57700Y251600
X57700Y269400
X83300Y269400
X83300Y251600
X127500Y283000
X127500Y293000
X127500Y303000
X137500Y303000
X137500Y293000
X137500Y283000
X147500Y283000
X147500Y293000
X147500Y303000
X147500Y313000
X147500Y323000
X147500Y333000
X137500Y333000
X137500Y323000
X137500Y313000
X127500Y313000
X127500Y323000
X127500Y333000
X127500Y343000
X127500Y353000
X127500Y363000
X137500Y363000
X137500Y353000
X137500Y343000
X147500Y343000
X147500Y353000
X147500Y363000
X147500Y373000
X147500Y383000
X147500Y393000
X137500Y393000
X137500Y383000
X137500Y373000
X127500Y373000
X127500Y383000
X127500Y393000
X103500Y388500
X103500Y378500
X103500Y368500
X103500Y358500
X103500Y348500
X197500Y353000
X197500Y343000
X207500Y343000
X207500Y353000
X207500Y363000
X197500Y363000
X197500Y373000
X197500Y383000
X197500Y393000
X207500Y393000
X207500Y383000
X207500Y373000
X217500Y373000
X217500Y383000
X217500Y393000
X247000Y392500
X247000Y382500
X247000Y372500
X257000Y372500
X257000Y382500
X257000Y392500
X217500Y363000
X217500Y353000
X217500Y343000
X217500Y333000
X217500Y323000
X217500Y313000
X207500Y313000
X207500Y323000
X207500Y333000
X197500Y333000
X197500Y323000
X197500Y313000
X197500Y303000
X197500Y293000
X197500Y283000
X207500Y283000
X207500Y293000
X207500Y303000
X217500Y303000
X217500Y293000
X217500Y283000
X141000Y231500
X124500Y138500
X87500Y107500
X72500Y107500
X72500Y97500
X127500Y76500
X162000Y76500
X176500Y57500
X191000Y138500
T05
X279500Y293413
X279500Y372154
T06
X47091Y42091
X310870Y120831
X310870Y384610
X47091Y384610
M30
