G75*
G70*
%OFA0B0*%
%FSLAX24Y24*%
%IPPOS*%
%LPD*%
%AMOC8*
5,1,8,0,0,1.08239X$1,22.5*
%
%ADD10C,0.0110*%
%ADD11C,0.0040*%
%ADD12C,0.0020*%
%ADD13C,0.0060*%
%ADD14C,0.0050*%
%ADD15C,0.0080*%
%ADD16C,0.0010*%
%ADD17C,0.0004*%
%ADD18C,0.0030*%
%ADD19C,0.0220*%
%ADD20R,0.0160X0.0280*%
D10*
X008155Y001325D02*
X008549Y001325D01*
X008352Y001325D02*
X008352Y001916D01*
X008155Y001719D01*
X014755Y001817D02*
X014853Y001916D01*
X015050Y001916D01*
X015149Y001817D01*
X015149Y001719D01*
X014755Y001325D01*
X015149Y001325D01*
X021555Y001423D02*
X021653Y001325D01*
X021850Y001325D01*
X021949Y001423D01*
X021949Y001522D01*
X021850Y001620D01*
X021752Y001620D01*
X021850Y001620D02*
X021949Y001719D01*
X021949Y001817D01*
X021850Y001916D01*
X021653Y001916D01*
X021555Y001817D01*
X028255Y001620D02*
X028649Y001620D01*
X028550Y001916D02*
X028255Y001620D01*
X028550Y001325D02*
X028550Y001916D01*
D11*
X035650Y003827D02*
X035683Y003794D01*
X035817Y003794D01*
X035683Y003928D01*
X035650Y003894D01*
X035650Y003827D01*
X035683Y003928D02*
X035817Y003928D01*
X035850Y003894D01*
X035850Y003827D01*
X035817Y003794D01*
X035683Y004005D02*
X035650Y004005D01*
X035650Y004038D01*
X035683Y004038D01*
X035683Y004005D01*
X035650Y004126D02*
X035650Y004259D01*
X035650Y004192D02*
X035850Y004192D01*
X035783Y004259D01*
X035783Y004347D02*
X035650Y004413D01*
X035783Y004480D01*
X035490Y004527D02*
X035490Y004594D01*
X035457Y004627D01*
X035323Y004627D01*
X035457Y004494D01*
X035323Y004494D01*
X035290Y004527D01*
X035290Y004594D01*
X035323Y004627D01*
X035323Y004704D02*
X035290Y004704D01*
X035290Y004738D01*
X035323Y004738D01*
X035323Y004704D01*
X035290Y004825D02*
X035290Y004959D01*
X035423Y004825D01*
X035457Y004825D01*
X035490Y004859D01*
X035490Y004925D01*
X035457Y004959D01*
X035650Y005010D02*
X035783Y005143D01*
X035650Y005143D02*
X035783Y005010D01*
X035750Y004922D02*
X035750Y004789D01*
X035650Y004822D02*
X035850Y004822D01*
X035750Y004922D01*
X035490Y004527D02*
X035457Y004494D01*
X035390Y005267D02*
X035357Y005267D01*
X035357Y005401D01*
X035390Y005401D02*
X035423Y005367D01*
X035423Y005301D01*
X035390Y005267D01*
X035290Y005301D02*
X035290Y005367D01*
X035323Y005401D01*
X035390Y005401D01*
X035423Y005488D02*
X035423Y005588D01*
X035390Y005622D01*
X035357Y005588D01*
X035357Y005522D01*
X035323Y005488D01*
X035290Y005522D01*
X035290Y005622D01*
X035290Y005709D02*
X035390Y005709D01*
X035423Y005743D01*
X035423Y005843D01*
X035290Y005843D01*
X035357Y005930D02*
X035357Y006064D01*
X035390Y006064D02*
X035423Y006030D01*
X035423Y005964D01*
X035390Y005930D01*
X035357Y005930D01*
X035290Y005964D02*
X035290Y006030D01*
X035323Y006064D01*
X035390Y006064D01*
X035423Y006151D02*
X035423Y006251D01*
X035390Y006285D01*
X035323Y006285D01*
X035290Y006251D01*
X035290Y006151D01*
X035290Y006365D02*
X035290Y006432D01*
X035290Y006399D02*
X035423Y006399D01*
X035423Y006432D01*
X035490Y006399D02*
X035524Y006399D01*
X035650Y006432D02*
X035783Y006432D01*
X035717Y006432D02*
X035783Y006365D01*
X035783Y006332D01*
X035750Y006520D02*
X035717Y006520D01*
X035717Y006653D01*
X035750Y006653D02*
X035683Y006653D01*
X035650Y006620D01*
X035650Y006553D01*
X035750Y006520D02*
X035783Y006553D01*
X035783Y006620D01*
X035750Y006653D01*
X035783Y006741D02*
X035683Y006741D01*
X035650Y006774D01*
X035683Y006807D01*
X035650Y006841D01*
X035683Y006874D01*
X035783Y006874D01*
X035750Y006962D02*
X035683Y006962D01*
X035650Y006995D01*
X035650Y007062D01*
X035683Y007095D01*
X035750Y007095D01*
X035783Y007062D01*
X035783Y006995D01*
X035750Y006962D01*
X035750Y007183D02*
X035683Y007183D01*
X035650Y007216D01*
X035650Y007316D01*
X035583Y007316D02*
X035783Y007316D01*
X035783Y007216D01*
X035750Y007183D01*
X035490Y007316D02*
X035290Y007316D01*
X035290Y007404D02*
X035290Y007504D01*
X035323Y007537D01*
X035390Y007537D01*
X035423Y007504D01*
X035423Y007404D01*
X035390Y007316D02*
X035423Y007283D01*
X035423Y007216D01*
X035390Y007183D01*
X035290Y007183D01*
X035323Y007095D02*
X035390Y007095D01*
X035423Y007062D01*
X035423Y006995D01*
X035390Y006962D01*
X035357Y006962D01*
X035357Y007095D01*
X035323Y007095D02*
X035290Y007062D01*
X035290Y006995D01*
X035097Y006878D02*
X034963Y006878D01*
X034930Y006844D01*
X034930Y006764D02*
X035130Y006764D01*
X035063Y006730D02*
X035063Y006663D01*
X035030Y006630D01*
X034930Y006630D01*
X034930Y006543D02*
X034930Y006476D01*
X034930Y006509D02*
X035130Y006509D01*
X035130Y006543D01*
X035290Y006520D02*
X035290Y006653D01*
X035490Y006653D01*
X035063Y006730D02*
X035030Y006764D01*
X035063Y006844D02*
X035063Y006911D01*
X035030Y006998D02*
X034997Y006998D01*
X034997Y007132D01*
X035030Y007132D02*
X035063Y007099D01*
X035063Y007032D01*
X035030Y006998D01*
X034930Y007032D02*
X034930Y007099D01*
X034963Y007132D01*
X035030Y007132D01*
X035030Y007219D02*
X034930Y007219D01*
X035030Y007219D02*
X035063Y007253D01*
X035063Y007353D01*
X034930Y007353D01*
X034930Y007440D02*
X035030Y007440D01*
X035063Y007474D01*
X035063Y007574D01*
X034930Y007574D01*
X034997Y007661D02*
X034997Y007795D01*
X035030Y007795D02*
X035063Y007761D01*
X035063Y007695D01*
X035030Y007661D01*
X034997Y007661D01*
X034930Y007695D02*
X034930Y007761D01*
X034963Y007795D01*
X035030Y007795D01*
X035063Y007879D02*
X034997Y007979D01*
X034930Y007879D01*
X034930Y007979D02*
X035130Y007979D01*
X035223Y007979D02*
X035423Y007979D01*
X035423Y007879D01*
X035390Y007846D01*
X035323Y007846D01*
X035290Y007879D01*
X035290Y007979D01*
X035290Y008067D02*
X035423Y008067D01*
X035490Y008133D01*
X035423Y008200D01*
X035290Y008200D01*
X035390Y008200D02*
X035390Y008067D01*
X035130Y008100D02*
X035097Y008067D01*
X035030Y008067D01*
X034997Y008100D01*
X035063Y008100D01*
X035063Y008167D01*
X034997Y008167D01*
X034997Y008100D01*
X034963Y008067D02*
X034930Y008100D01*
X034930Y008167D01*
X034963Y008200D01*
X035097Y008200D01*
X035130Y008167D01*
X035130Y008100D01*
X035650Y008100D02*
X035683Y008067D01*
X035850Y008067D01*
X035817Y007979D02*
X035783Y007979D01*
X035750Y007946D01*
X035750Y007879D01*
X035717Y007846D01*
X035683Y007846D01*
X035650Y007879D01*
X035650Y007946D01*
X035683Y007979D01*
X035650Y008100D02*
X035650Y008167D01*
X035683Y008200D01*
X035850Y008200D01*
X035817Y007979D02*
X035850Y007946D01*
X035850Y007879D01*
X035817Y007846D01*
X035850Y007758D02*
X035650Y007758D01*
X035650Y007658D01*
X035683Y007625D01*
X035717Y007625D01*
X035750Y007658D01*
X035750Y007758D01*
X035750Y007658D02*
X035783Y007625D01*
X035817Y007625D01*
X035850Y007658D01*
X035850Y007758D01*
X035423Y007725D02*
X035423Y007658D01*
X035390Y007625D01*
X035290Y007625D01*
X035290Y007725D01*
X035323Y007758D01*
X035357Y007725D01*
X035357Y007625D01*
X032730Y008090D02*
X030840Y008090D01*
X030170Y008760D01*
X030170Y008996D01*
X030289Y009744D02*
X030311Y009808D01*
X030338Y009871D01*
X030368Y009933D01*
X030401Y009992D01*
X030437Y010050D01*
X030477Y010106D01*
X030520Y010159D01*
X030565Y010210D01*
X030613Y010258D01*
X030664Y010303D01*
X030718Y010346D01*
X030774Y010385D01*
X030831Y010422D01*
X030891Y010455D01*
X030953Y010484D01*
X031016Y010510D01*
X031080Y010533D01*
X031146Y010552D01*
X031213Y010567D01*
X031280Y010578D01*
X031348Y010586D01*
X031416Y010590D01*
X031484Y010590D01*
X031552Y010586D01*
X031620Y010578D01*
X031687Y010567D01*
X031754Y010552D01*
X031820Y010533D01*
X031884Y010510D01*
X031947Y010484D01*
X032009Y010455D01*
X032069Y010422D01*
X032126Y010385D01*
X032182Y010346D01*
X032236Y010303D01*
X032287Y010258D01*
X032335Y010210D01*
X032380Y010159D01*
X032423Y010106D01*
X032463Y010050D01*
X032499Y009992D01*
X032532Y009933D01*
X032562Y009871D01*
X032589Y009808D01*
X032611Y009744D01*
X032730Y009744D02*
X032730Y010650D01*
X030840Y010650D01*
X030170Y009980D01*
X030170Y009744D01*
X030289Y008996D02*
X030311Y008932D01*
X030338Y008869D01*
X030368Y008807D01*
X030401Y008748D01*
X030437Y008690D01*
X030477Y008634D01*
X030520Y008581D01*
X030565Y008530D01*
X030613Y008482D01*
X030664Y008437D01*
X030718Y008394D01*
X030774Y008355D01*
X030831Y008318D01*
X030891Y008285D01*
X030953Y008256D01*
X031016Y008230D01*
X031080Y008207D01*
X031146Y008188D01*
X031213Y008173D01*
X031280Y008162D01*
X031348Y008154D01*
X031416Y008150D01*
X031484Y008150D01*
X031552Y008154D01*
X031620Y008162D01*
X031687Y008173D01*
X031754Y008188D01*
X031820Y008207D01*
X031884Y008230D01*
X031947Y008256D01*
X032009Y008285D01*
X032069Y008318D01*
X032126Y008355D01*
X032182Y008394D01*
X032236Y008437D01*
X032287Y008482D01*
X032335Y008530D01*
X032380Y008581D01*
X032423Y008634D01*
X032463Y008690D01*
X032499Y008748D01*
X032532Y008807D01*
X032562Y008869D01*
X032589Y008932D01*
X032611Y008996D01*
X032730Y008996D02*
X032730Y008090D01*
X034930Y006395D02*
X034930Y006329D01*
X034930Y006362D02*
X035063Y006362D01*
X035063Y006395D01*
X035130Y006362D02*
X035164Y006362D01*
X035063Y006248D02*
X035063Y006215D01*
X035030Y006181D01*
X035063Y006148D01*
X035030Y006114D01*
X034930Y006114D01*
X034930Y006181D02*
X035030Y006181D01*
X035063Y006248D02*
X034930Y006248D01*
X034963Y006027D02*
X034930Y005994D01*
X034930Y005894D01*
X034930Y005806D02*
X034930Y005706D01*
X034963Y005673D01*
X035030Y005673D01*
X035063Y005706D01*
X035063Y005806D01*
X034863Y005806D01*
X035063Y005894D02*
X035063Y005994D01*
X035030Y006027D01*
X034963Y006027D01*
X035650Y006027D02*
X035850Y006027D01*
X035783Y005994D02*
X035783Y005927D01*
X035750Y005894D01*
X035650Y005894D01*
X035683Y005806D02*
X035650Y005773D01*
X035650Y005673D01*
X035783Y005673D01*
X035783Y005585D02*
X035783Y005485D01*
X035750Y005452D01*
X035683Y005452D01*
X035650Y005485D01*
X035650Y005585D01*
X035850Y005585D01*
X035783Y005806D02*
X035683Y005806D01*
X035783Y005994D02*
X035750Y006027D01*
X026030Y008090D02*
X024140Y008090D01*
X023470Y008760D01*
X023470Y008996D01*
X023589Y009744D02*
X023611Y009808D01*
X023638Y009871D01*
X023668Y009933D01*
X023701Y009992D01*
X023737Y010050D01*
X023777Y010106D01*
X023820Y010159D01*
X023865Y010210D01*
X023913Y010258D01*
X023964Y010303D01*
X024018Y010346D01*
X024074Y010385D01*
X024131Y010422D01*
X024191Y010455D01*
X024253Y010484D01*
X024316Y010510D01*
X024380Y010533D01*
X024446Y010552D01*
X024513Y010567D01*
X024580Y010578D01*
X024648Y010586D01*
X024716Y010590D01*
X024784Y010590D01*
X024852Y010586D01*
X024920Y010578D01*
X024987Y010567D01*
X025054Y010552D01*
X025120Y010533D01*
X025184Y010510D01*
X025247Y010484D01*
X025309Y010455D01*
X025369Y010422D01*
X025426Y010385D01*
X025482Y010346D01*
X025536Y010303D01*
X025587Y010258D01*
X025635Y010210D01*
X025680Y010159D01*
X025723Y010106D01*
X025763Y010050D01*
X025799Y009992D01*
X025832Y009933D01*
X025862Y009871D01*
X025889Y009808D01*
X025911Y009744D01*
X026030Y009744D02*
X026030Y010650D01*
X024140Y010650D01*
X023470Y009980D01*
X023470Y009744D01*
X023589Y008996D02*
X023611Y008932D01*
X023638Y008869D01*
X023668Y008807D01*
X023701Y008748D01*
X023737Y008690D01*
X023777Y008634D01*
X023820Y008581D01*
X023865Y008530D01*
X023913Y008482D01*
X023964Y008437D01*
X024018Y008394D01*
X024074Y008355D01*
X024131Y008318D01*
X024191Y008285D01*
X024253Y008256D01*
X024316Y008230D01*
X024380Y008207D01*
X024446Y008188D01*
X024513Y008173D01*
X024580Y008162D01*
X024648Y008154D01*
X024716Y008150D01*
X024784Y008150D01*
X024852Y008154D01*
X024920Y008162D01*
X024987Y008173D01*
X025054Y008188D01*
X025120Y008207D01*
X025184Y008230D01*
X025247Y008256D01*
X025309Y008285D01*
X025369Y008318D01*
X025426Y008355D01*
X025482Y008394D01*
X025536Y008437D01*
X025587Y008482D01*
X025635Y008530D01*
X025680Y008581D01*
X025723Y008634D01*
X025763Y008690D01*
X025799Y008748D01*
X025832Y008807D01*
X025862Y008869D01*
X025889Y008932D01*
X025911Y008996D01*
X026030Y008996D02*
X026030Y008090D01*
X026917Y010410D02*
X026943Y010410D01*
X026970Y010437D01*
X026970Y010570D01*
X026943Y010570D02*
X026997Y010570D01*
X027074Y010570D02*
X027154Y010570D01*
X027181Y010543D01*
X027181Y010490D01*
X027154Y010463D01*
X027074Y010463D01*
X027074Y010410D02*
X027074Y010570D01*
X027258Y010517D02*
X027312Y010570D01*
X027312Y010410D01*
X027365Y010410D02*
X027258Y010410D01*
X027442Y010410D02*
X027549Y010410D01*
X027496Y010410D02*
X027496Y010570D01*
X027442Y010517D01*
X026917Y010410D02*
X026890Y010437D01*
X020849Y010437D02*
X020823Y010410D01*
X020769Y010410D01*
X020742Y010437D01*
X020849Y010543D01*
X020849Y010437D01*
X020849Y010543D02*
X020823Y010570D01*
X020769Y010570D01*
X020742Y010543D01*
X020742Y010437D01*
X020665Y010410D02*
X020558Y010410D01*
X020612Y010410D02*
X020612Y010570D01*
X020558Y010517D01*
X020481Y010543D02*
X020481Y010490D01*
X020454Y010463D01*
X020374Y010463D01*
X020374Y010410D02*
X020374Y010570D01*
X020454Y010570D01*
X020481Y010543D01*
X020297Y010570D02*
X020243Y010570D01*
X020270Y010570D02*
X020270Y010437D01*
X020243Y010410D01*
X020217Y010410D01*
X020190Y010437D01*
X019230Y010650D02*
X019230Y009744D01*
X019111Y009744D02*
X019089Y009808D01*
X019062Y009871D01*
X019032Y009933D01*
X018999Y009992D01*
X018963Y010050D01*
X018923Y010106D01*
X018880Y010159D01*
X018835Y010210D01*
X018787Y010258D01*
X018736Y010303D01*
X018682Y010346D01*
X018626Y010385D01*
X018569Y010422D01*
X018509Y010455D01*
X018447Y010484D01*
X018384Y010510D01*
X018320Y010533D01*
X018254Y010552D01*
X018187Y010567D01*
X018120Y010578D01*
X018052Y010586D01*
X017984Y010590D01*
X017916Y010590D01*
X017848Y010586D01*
X017780Y010578D01*
X017713Y010567D01*
X017646Y010552D01*
X017580Y010533D01*
X017516Y010510D01*
X017453Y010484D01*
X017391Y010455D01*
X017331Y010422D01*
X017274Y010385D01*
X017218Y010346D01*
X017164Y010303D01*
X017113Y010258D01*
X017065Y010210D01*
X017020Y010159D01*
X016977Y010106D01*
X016937Y010050D01*
X016901Y009992D01*
X016868Y009933D01*
X016838Y009871D01*
X016811Y009808D01*
X016789Y009744D01*
X016670Y009744D02*
X016670Y009980D01*
X017340Y010650D01*
X019230Y010650D01*
X019111Y008996D02*
X019089Y008932D01*
X019062Y008869D01*
X019032Y008807D01*
X018999Y008748D01*
X018963Y008690D01*
X018923Y008634D01*
X018880Y008581D01*
X018835Y008530D01*
X018787Y008482D01*
X018736Y008437D01*
X018682Y008394D01*
X018626Y008355D01*
X018569Y008318D01*
X018509Y008285D01*
X018447Y008256D01*
X018384Y008230D01*
X018320Y008207D01*
X018254Y008188D01*
X018187Y008173D01*
X018120Y008162D01*
X018052Y008154D01*
X017984Y008150D01*
X017916Y008150D01*
X017848Y008154D01*
X017780Y008162D01*
X017713Y008173D01*
X017646Y008188D01*
X017580Y008207D01*
X017516Y008230D01*
X017453Y008256D01*
X017391Y008285D01*
X017331Y008318D01*
X017274Y008355D01*
X017218Y008394D01*
X017164Y008437D01*
X017113Y008482D01*
X017065Y008530D01*
X017020Y008581D01*
X016977Y008634D01*
X016937Y008690D01*
X016901Y008748D01*
X016868Y008807D01*
X016838Y008869D01*
X016811Y008932D01*
X016789Y008996D01*
X016670Y008996D02*
X016670Y008760D01*
X017340Y008090D01*
X019230Y008090D01*
X019230Y008996D01*
X014065Y010437D02*
X014065Y010543D01*
X014038Y010570D01*
X013985Y010570D01*
X013958Y010543D01*
X013958Y010517D01*
X013985Y010490D01*
X014065Y010490D01*
X014065Y010437D02*
X014038Y010410D01*
X013985Y010410D01*
X013958Y010437D01*
X013881Y010490D02*
X013854Y010463D01*
X013774Y010463D01*
X013774Y010410D02*
X013774Y010570D01*
X013854Y010570D01*
X013881Y010543D01*
X013881Y010490D01*
X013697Y010570D02*
X013643Y010570D01*
X013670Y010570D02*
X013670Y010437D01*
X013643Y010410D01*
X013617Y010410D01*
X013590Y010437D01*
X012530Y010650D02*
X012530Y009744D01*
X012411Y009744D02*
X012389Y009808D01*
X012362Y009871D01*
X012332Y009933D01*
X012299Y009992D01*
X012263Y010050D01*
X012223Y010106D01*
X012180Y010159D01*
X012135Y010210D01*
X012087Y010258D01*
X012036Y010303D01*
X011982Y010346D01*
X011926Y010385D01*
X011869Y010422D01*
X011809Y010455D01*
X011747Y010484D01*
X011684Y010510D01*
X011620Y010533D01*
X011554Y010552D01*
X011487Y010567D01*
X011420Y010578D01*
X011352Y010586D01*
X011284Y010590D01*
X011216Y010590D01*
X011148Y010586D01*
X011080Y010578D01*
X011013Y010567D01*
X010946Y010552D01*
X010880Y010533D01*
X010816Y010510D01*
X010753Y010484D01*
X010691Y010455D01*
X010631Y010422D01*
X010574Y010385D01*
X010518Y010346D01*
X010464Y010303D01*
X010413Y010258D01*
X010365Y010210D01*
X010320Y010159D01*
X010277Y010106D01*
X010237Y010050D01*
X010201Y009992D01*
X010168Y009933D01*
X010138Y009871D01*
X010111Y009808D01*
X010089Y009744D01*
X009970Y009744D02*
X009970Y009980D01*
X010640Y010650D01*
X012530Y010650D01*
X012411Y008996D02*
X012389Y008932D01*
X012362Y008869D01*
X012332Y008807D01*
X012299Y008748D01*
X012263Y008690D01*
X012223Y008634D01*
X012180Y008581D01*
X012135Y008530D01*
X012087Y008482D01*
X012036Y008437D01*
X011982Y008394D01*
X011926Y008355D01*
X011869Y008318D01*
X011809Y008285D01*
X011747Y008256D01*
X011684Y008230D01*
X011620Y008207D01*
X011554Y008188D01*
X011487Y008173D01*
X011420Y008162D01*
X011352Y008154D01*
X011284Y008150D01*
X011216Y008150D01*
X011148Y008154D01*
X011080Y008162D01*
X011013Y008173D01*
X010946Y008188D01*
X010880Y008207D01*
X010816Y008230D01*
X010753Y008256D01*
X010691Y008285D01*
X010631Y008318D01*
X010574Y008355D01*
X010518Y008394D01*
X010464Y008437D01*
X010413Y008482D01*
X010365Y008530D01*
X010320Y008581D01*
X010277Y008634D01*
X010237Y008690D01*
X010201Y008748D01*
X010168Y008807D01*
X010138Y008869D01*
X010111Y008932D01*
X010089Y008996D01*
X009970Y008996D02*
X009970Y008760D01*
X010640Y008090D01*
X012530Y008090D01*
X012530Y008996D01*
X007365Y010437D02*
X007338Y010410D01*
X007285Y010410D01*
X007258Y010437D01*
X007258Y010463D01*
X007285Y010490D01*
X007338Y010490D01*
X007365Y010463D01*
X007365Y010437D01*
X007338Y010490D02*
X007365Y010517D01*
X007365Y010543D01*
X007338Y010570D01*
X007285Y010570D01*
X007258Y010543D01*
X007258Y010517D01*
X007285Y010490D01*
X007181Y010490D02*
X007154Y010463D01*
X007074Y010463D01*
X007074Y010410D02*
X007074Y010570D01*
X007154Y010570D01*
X007181Y010543D01*
X007181Y010490D01*
X006997Y010570D02*
X006943Y010570D01*
X006970Y010570D02*
X006970Y010437D01*
X006943Y010410D01*
X006917Y010410D01*
X006890Y010437D01*
X003643Y010533D02*
X003536Y010427D01*
X003536Y010400D01*
X003458Y010480D02*
X003432Y010453D01*
X003352Y010453D01*
X003352Y010400D02*
X003352Y010560D01*
X003432Y010560D01*
X003458Y010533D01*
X003458Y010480D01*
X003536Y010560D02*
X003643Y010560D01*
X003643Y010533D01*
X003274Y010560D02*
X003221Y010560D01*
X003248Y010560D02*
X003248Y010427D01*
X003221Y010400D01*
X003194Y010400D01*
X003168Y010427D01*
X002657Y010203D02*
X002631Y010230D01*
X002577Y010230D01*
X002551Y010203D01*
X002473Y010203D02*
X002473Y010150D01*
X002446Y010123D01*
X002366Y010123D01*
X002366Y010070D02*
X002366Y010230D01*
X002446Y010230D01*
X002473Y010203D01*
X002551Y010070D02*
X002657Y010177D01*
X002657Y010203D01*
X002657Y010070D02*
X002551Y010070D01*
X002262Y010097D02*
X002262Y010230D01*
X002236Y010230D02*
X002289Y010230D01*
X002262Y010097D02*
X002236Y010070D01*
X002209Y010070D01*
X002182Y010097D01*
X001823Y002780D02*
X001769Y002780D01*
X001742Y002753D01*
X001823Y002780D02*
X001849Y002753D01*
X001849Y002727D01*
X001742Y002620D01*
X001849Y002620D01*
X001665Y002620D02*
X001558Y002620D01*
X001612Y002620D02*
X001612Y002780D01*
X001558Y002727D01*
X001481Y002753D02*
X001481Y002700D01*
X001454Y002673D01*
X001374Y002673D01*
X001374Y002620D02*
X001374Y002780D01*
X001454Y002780D01*
X001481Y002753D01*
X001297Y002780D02*
X001243Y002780D01*
X001270Y002780D02*
X001270Y002647D01*
X001243Y002620D01*
X001217Y002620D01*
X001190Y002647D01*
D12*
X006810Y005734D02*
X006810Y005781D01*
X006833Y005804D01*
X006880Y005804D02*
X006903Y005758D01*
X006903Y005734D01*
X006880Y005711D01*
X006833Y005711D01*
X006810Y005734D01*
X006880Y005804D02*
X006950Y005804D01*
X006950Y005711D01*
X006950Y005905D02*
X006810Y005905D01*
X006810Y005952D02*
X006810Y005858D01*
X006903Y005952D02*
X006950Y005905D01*
X006950Y006006D02*
X006810Y006099D01*
X006833Y006153D02*
X006810Y006176D01*
X006810Y006223D01*
X006833Y006246D01*
X006833Y006300D02*
X006810Y006324D01*
X006810Y006370D01*
X006833Y006394D01*
X006927Y006300D01*
X006833Y006300D01*
X006833Y006394D02*
X006927Y006394D01*
X006950Y006370D01*
X006950Y006324D01*
X006927Y006300D01*
X006927Y006246D02*
X006950Y006223D01*
X006950Y006176D01*
X006927Y006153D01*
X006903Y006153D01*
X006880Y006176D01*
X006857Y006153D01*
X006833Y006153D01*
X006880Y006176D02*
X006880Y006200D01*
X006880Y006595D02*
X006857Y006595D01*
X006857Y006688D01*
X006880Y006688D02*
X006903Y006665D01*
X006903Y006618D01*
X006880Y006595D01*
X006810Y006618D02*
X006810Y006665D01*
X006833Y006688D01*
X006880Y006688D01*
X006903Y006741D02*
X006903Y006764D01*
X006857Y006811D01*
X006903Y006811D02*
X006810Y006811D01*
X006833Y006865D02*
X006880Y006865D01*
X006903Y006888D01*
X006903Y006935D01*
X006880Y006958D01*
X006833Y006958D01*
X006810Y006935D01*
X006810Y006888D01*
X006833Y006865D01*
X006833Y007012D02*
X006810Y007036D01*
X006810Y007106D01*
X006763Y007106D02*
X006903Y007106D01*
X006903Y007036D01*
X006880Y007012D01*
X006833Y007012D01*
X006810Y007160D02*
X006810Y007230D01*
X006833Y007253D01*
X006857Y007230D01*
X006857Y007160D01*
X006880Y007160D02*
X006810Y007160D01*
X006880Y007160D02*
X006903Y007183D01*
X006903Y007230D01*
X006903Y007307D02*
X006903Y007377D01*
X006880Y007400D01*
X006833Y007400D01*
X006810Y007377D01*
X006810Y007307D01*
X006787Y007307D02*
X006903Y007307D01*
X006787Y007307D02*
X006763Y007330D01*
X006763Y007354D01*
X006810Y007454D02*
X006880Y007454D01*
X006903Y007478D01*
X006903Y007548D01*
X006810Y007548D01*
X006810Y007599D02*
X006810Y007646D01*
X006810Y007623D02*
X006903Y007623D01*
X006903Y007646D01*
X006950Y007623D02*
X006973Y007623D01*
X006927Y007700D02*
X006950Y007723D01*
X006950Y007770D01*
X006927Y007793D01*
X006903Y007793D01*
X006880Y007770D01*
X006880Y007723D01*
X006857Y007700D01*
X006833Y007700D01*
X006810Y007723D01*
X006810Y007770D01*
X006833Y007793D01*
X006810Y007995D02*
X006880Y007995D01*
X006903Y008018D01*
X006903Y008088D01*
X006810Y008088D01*
X006810Y008139D02*
X006810Y008186D01*
X006810Y008163D02*
X006903Y008163D01*
X006903Y008186D01*
X006950Y008163D02*
X006973Y008163D01*
X006950Y008387D02*
X006810Y008387D01*
X006810Y008457D01*
X006833Y008481D01*
X006880Y008481D01*
X006903Y008457D01*
X006903Y008387D01*
X006880Y008535D02*
X006857Y008535D01*
X006857Y008628D01*
X006880Y008628D02*
X006903Y008605D01*
X006903Y008558D01*
X006880Y008535D01*
X006810Y008558D02*
X006810Y008605D01*
X006833Y008628D01*
X006880Y008628D01*
X006880Y008682D02*
X006810Y008682D01*
X006880Y008682D02*
X006903Y008705D01*
X006903Y008775D01*
X006810Y008775D01*
X006810Y008829D02*
X006810Y008899D01*
X006833Y008923D01*
X006880Y008923D01*
X006903Y008899D01*
X006903Y008829D01*
X006787Y008829D01*
X006763Y008853D01*
X006763Y008876D01*
X006810Y008974D02*
X006810Y009021D01*
X006810Y008998D02*
X006903Y008998D01*
X006903Y009021D01*
X006950Y008998D02*
X006973Y008998D01*
X006903Y009075D02*
X006903Y009145D01*
X006880Y009168D01*
X006857Y009145D01*
X006857Y009098D01*
X006833Y009075D01*
X006810Y009098D01*
X006810Y009168D01*
X006857Y009222D02*
X006857Y009316D01*
X006880Y009316D02*
X006903Y009292D01*
X006903Y009246D01*
X006880Y009222D01*
X006857Y009222D01*
X006810Y009246D02*
X006810Y009292D01*
X006833Y009316D01*
X006880Y009316D01*
X006833Y009370D02*
X006927Y009370D01*
X006950Y009393D01*
X006950Y009463D01*
X006810Y009463D01*
X006810Y009393D01*
X006833Y009370D01*
D13*
X005907Y009957D02*
X005907Y010184D01*
X006020Y010070D02*
X005793Y010070D01*
X001557Y005334D02*
X001557Y005107D01*
X001670Y005220D02*
X001443Y005220D01*
D14*
X006550Y003070D02*
X007350Y003070D01*
X009300Y003770D02*
X009550Y001270D01*
X010800Y001270D01*
X011050Y003770D01*
X011550Y003770D02*
X011800Y001270D01*
X013050Y001270D01*
X013300Y003770D01*
X016050Y003770D02*
X016300Y001270D01*
X017550Y001270D01*
X017800Y003770D01*
X018300Y003770D02*
X018550Y001270D01*
X019800Y001270D01*
X020050Y003770D01*
X022800Y003770D02*
X023050Y001270D01*
X024300Y001270D01*
X024550Y003770D01*
X025050Y003770D02*
X025300Y001270D01*
X026550Y001270D01*
X026800Y003770D01*
X029550Y003770D02*
X029800Y001270D01*
X031050Y001270D01*
X031300Y003770D01*
X031800Y003770D02*
X032050Y001270D01*
X033300Y001270D01*
X033550Y003770D01*
X034135Y006225D02*
X034135Y000720D01*
X034100Y000720D02*
X029000Y000720D01*
X028965Y000720D02*
X028965Y006225D01*
X028990Y006230D02*
X034110Y006230D01*
X031450Y007020D02*
X031450Y007820D01*
X029359Y007705D02*
X029359Y008335D01*
X028241Y008335D02*
X028241Y007705D01*
X027999Y007905D02*
X027999Y008095D01*
X027904Y008000D01*
X028031Y008000D01*
X027810Y007937D02*
X027778Y007905D01*
X027715Y007905D01*
X027683Y007937D01*
X027683Y008095D01*
X027810Y008095D02*
X027810Y007937D01*
X024650Y007820D02*
X024650Y007020D01*
X022659Y007705D02*
X022659Y008335D01*
X021541Y008335D02*
X021541Y007705D01*
X021299Y007955D02*
X021236Y007955D01*
X021204Y007987D01*
X021267Y008050D02*
X021299Y008050D01*
X021331Y008018D01*
X021331Y007987D01*
X021299Y007955D01*
X021299Y008050D02*
X021331Y008082D01*
X021331Y008113D01*
X021299Y008145D01*
X021236Y008145D01*
X021204Y008113D01*
X021110Y008145D02*
X021110Y007987D01*
X021078Y007955D01*
X021015Y007955D01*
X020983Y007987D01*
X020983Y008145D01*
X017850Y007820D02*
X017850Y007020D01*
X015859Y007705D02*
X015859Y008335D01*
X014741Y008335D02*
X014741Y007705D01*
X014531Y007905D02*
X014404Y007905D01*
X014531Y008032D01*
X014531Y008063D01*
X014499Y008095D01*
X014436Y008095D01*
X014404Y008063D01*
X014310Y008095D02*
X014310Y007937D01*
X014278Y007905D01*
X014215Y007905D01*
X014183Y007937D01*
X014183Y008095D01*
X011150Y007820D02*
X011150Y007020D01*
X009159Y007705D02*
X009159Y008335D01*
X008041Y008335D02*
X008041Y007705D01*
X007831Y007905D02*
X007704Y007905D01*
X007767Y007905D02*
X007767Y008095D01*
X007704Y008032D01*
X007610Y008095D02*
X007610Y007937D01*
X007578Y007905D01*
X007515Y007905D01*
X007483Y007937D01*
X007483Y008095D01*
X008740Y006230D02*
X013860Y006230D01*
X013885Y006225D02*
X013885Y000720D01*
X013850Y000720D02*
X008750Y000720D01*
X008715Y000720D02*
X008715Y006225D01*
X015465Y006225D02*
X015465Y000720D01*
X015500Y000720D02*
X020600Y000720D01*
X020635Y000720D02*
X020635Y006225D01*
X020610Y006230D02*
X015490Y006230D01*
X022215Y006225D02*
X022215Y000720D01*
X022250Y000720D02*
X027350Y000720D01*
X027385Y000720D02*
X027385Y006225D01*
X027360Y006230D02*
X022240Y006230D01*
X023283Y010411D02*
X023346Y010411D01*
X023378Y010443D01*
X023472Y010411D02*
X023599Y010411D01*
X023535Y010411D02*
X023535Y010601D01*
X023472Y010538D01*
X023378Y010570D02*
X023346Y010601D01*
X023283Y010601D01*
X023251Y010570D01*
X023251Y010443D01*
X023283Y010411D01*
X023693Y010443D02*
X023820Y010570D01*
X023820Y010443D01*
X023788Y010411D01*
X023725Y010411D01*
X023693Y010443D01*
X023693Y010570D01*
X023725Y010601D01*
X023788Y010601D01*
X023820Y010570D01*
X029951Y010570D02*
X029951Y010443D01*
X029983Y010411D01*
X030046Y010411D01*
X030078Y010443D01*
X030172Y010411D02*
X030299Y010411D01*
X030235Y010411D02*
X030235Y010601D01*
X030172Y010538D01*
X030078Y010570D02*
X030046Y010601D01*
X029983Y010601D01*
X029951Y010570D01*
X030393Y010570D02*
X030425Y010601D01*
X030488Y010601D01*
X030520Y010570D01*
X030520Y010538D01*
X030393Y010411D01*
X030520Y010411D01*
X017020Y010443D02*
X016988Y010411D01*
X016925Y010411D01*
X016893Y010443D01*
X016893Y010475D01*
X016925Y010506D01*
X016988Y010506D01*
X017020Y010475D01*
X017020Y010443D01*
X016988Y010506D02*
X017020Y010538D01*
X017020Y010570D01*
X016988Y010601D01*
X016925Y010601D01*
X016893Y010570D01*
X016893Y010538D01*
X016925Y010506D01*
X016799Y010443D02*
X016767Y010411D01*
X016704Y010411D01*
X016672Y010443D01*
X016672Y010570D01*
X016704Y010601D01*
X016767Y010601D01*
X016799Y010570D01*
X010220Y010601D02*
X010156Y010570D01*
X010093Y010506D01*
X010188Y010506D01*
X010220Y010475D01*
X010220Y010443D01*
X010188Y010411D01*
X010125Y010411D01*
X010093Y010443D01*
X010093Y010506D01*
X009999Y010443D02*
X009967Y010411D01*
X009904Y010411D01*
X009872Y010443D01*
X009872Y010570D01*
X009904Y010601D01*
X009967Y010601D01*
X009999Y010570D01*
D15*
X005862Y001951D02*
X002438Y001951D01*
X002438Y006284D01*
X003205Y006284D01*
X005095Y006284D02*
X005862Y006284D01*
X005862Y005788D01*
X002050Y004720D02*
X001800Y004970D01*
X001300Y004970D01*
X001050Y004720D01*
X001050Y004220D01*
X001300Y003970D01*
X001050Y003720D01*
X001050Y003220D01*
X001300Y002970D01*
X001800Y002970D01*
X002050Y003220D01*
X002050Y003720D01*
X001800Y003970D01*
X002050Y004220D01*
X002050Y004720D01*
X005862Y003938D02*
X005862Y001951D01*
X006478Y001936D02*
X006478Y002526D01*
X007422Y002526D02*
X007422Y001936D01*
X006478Y001936D01*
X006478Y003314D02*
X006478Y003747D01*
X006635Y003904D01*
X007265Y003904D01*
X007422Y003747D01*
X007422Y003314D01*
X007638Y003610D02*
X007692Y003610D01*
X007745Y003663D01*
X007745Y003930D01*
X007692Y003930D02*
X007799Y003930D01*
X007953Y003930D02*
X008114Y003930D01*
X008167Y003877D01*
X008167Y003770D01*
X008114Y003717D01*
X007953Y003717D01*
X007953Y003610D02*
X007953Y003930D01*
X008322Y003877D02*
X008375Y003930D01*
X008482Y003930D01*
X008535Y003877D01*
X008535Y003824D01*
X008482Y003770D01*
X008535Y003717D01*
X008535Y003663D01*
X008482Y003610D01*
X008375Y003610D01*
X008322Y003663D01*
X008428Y003770D02*
X008482Y003770D01*
X007638Y003610D02*
X007585Y003663D01*
X014135Y003563D02*
X014188Y003510D01*
X014242Y003510D01*
X014295Y003563D01*
X014295Y003830D01*
X014242Y003830D02*
X014349Y003830D01*
X014503Y003830D02*
X014664Y003830D01*
X014717Y003777D01*
X014717Y003670D01*
X014664Y003617D01*
X014503Y003617D01*
X014503Y003510D02*
X014503Y003830D01*
X014872Y003670D02*
X015085Y003670D01*
X015032Y003510D02*
X015032Y003830D01*
X014872Y003670D01*
X020885Y003563D02*
X020938Y003510D01*
X020992Y003510D01*
X021045Y003563D01*
X021045Y003830D01*
X020992Y003830D02*
X021099Y003830D01*
X021253Y003830D02*
X021414Y003830D01*
X021467Y003777D01*
X021467Y003670D01*
X021414Y003617D01*
X021253Y003617D01*
X021253Y003510D02*
X021253Y003830D01*
X021622Y003830D02*
X021622Y003670D01*
X021728Y003724D01*
X021782Y003724D01*
X021835Y003670D01*
X021835Y003563D01*
X021782Y003510D01*
X021675Y003510D01*
X021622Y003563D01*
X021622Y003830D02*
X021835Y003830D01*
X027635Y003513D02*
X027688Y003460D01*
X027742Y003460D01*
X027795Y003513D01*
X027795Y003780D01*
X027742Y003780D02*
X027849Y003780D01*
X028003Y003780D02*
X028164Y003780D01*
X028217Y003727D01*
X028217Y003620D01*
X028164Y003567D01*
X028003Y003567D01*
X028003Y003460D02*
X028003Y003780D01*
X028372Y003620D02*
X028532Y003620D01*
X028585Y003567D01*
X028585Y003513D01*
X028532Y003460D01*
X028425Y003460D01*
X028372Y003513D01*
X028372Y003620D01*
X028478Y003727D01*
X028585Y003780D01*
X030773Y006948D02*
X031206Y006948D01*
X030773Y006948D02*
X030616Y007105D01*
X030616Y007735D01*
X030773Y007892D01*
X031206Y007892D01*
X031994Y007892D02*
X032584Y007892D01*
X032584Y006948D01*
X031994Y006948D01*
X025784Y006948D02*
X025194Y006948D01*
X025784Y006948D02*
X025784Y007892D01*
X025194Y007892D01*
X024406Y007892D02*
X023973Y007892D01*
X023816Y007735D01*
X023816Y007105D01*
X023973Y006948D01*
X024406Y006948D01*
X018984Y006948D02*
X018394Y006948D01*
X018984Y006948D02*
X018984Y007892D01*
X018394Y007892D01*
X017606Y007892D02*
X017173Y007892D01*
X017016Y007735D01*
X017016Y007105D01*
X017173Y006948D01*
X017606Y006948D01*
X012284Y006948D02*
X011694Y006948D01*
X012284Y006948D02*
X012284Y007892D01*
X011694Y007892D01*
X010906Y007892D02*
X010473Y007892D01*
X010316Y007735D01*
X010316Y007105D01*
X010473Y006948D01*
X010906Y006948D01*
X005781Y008187D02*
X005600Y008187D01*
X005692Y008065D01*
X005600Y008187D02*
X005419Y008187D01*
X005514Y008065D02*
X005590Y008181D01*
X002672Y007704D02*
X002672Y007231D01*
X002042Y007231D01*
X002121Y007704D02*
X002672Y007704D01*
X002121Y007704D02*
X002121Y009436D01*
X002672Y009436D01*
X002672Y009909D01*
X002042Y009909D01*
X000979Y009909D02*
X000979Y007231D01*
X003670Y009800D02*
X003920Y009550D01*
X004420Y009550D01*
X004670Y009800D01*
X004920Y009550D01*
X005420Y009550D01*
X005670Y009800D01*
X005670Y010300D01*
X005420Y010550D01*
X004920Y010550D01*
X004670Y010300D01*
X004420Y010550D01*
X003920Y010550D01*
X003670Y010300D01*
X003670Y009800D01*
X007400Y009820D02*
X007650Y009570D01*
X008150Y009570D01*
X008400Y009820D01*
X008650Y009570D01*
X009150Y009570D01*
X009400Y009820D01*
X009400Y010320D01*
X009150Y010570D01*
X008650Y010570D01*
X008400Y010320D01*
X008150Y010570D01*
X007650Y010570D01*
X007400Y010320D01*
X007400Y009820D01*
X014100Y009820D02*
X014350Y009570D01*
X014850Y009570D01*
X015100Y009820D01*
X015350Y009570D01*
X015850Y009570D01*
X016100Y009820D01*
X016100Y010320D01*
X015850Y010570D01*
X015350Y010570D01*
X015100Y010320D01*
X014850Y010570D01*
X014350Y010570D01*
X014100Y010320D01*
X014100Y009820D01*
X020900Y009820D02*
X021150Y009570D01*
X021650Y009570D01*
X021900Y009820D01*
X022150Y009570D01*
X022650Y009570D01*
X022900Y009820D01*
X022900Y010320D01*
X022650Y010570D01*
X022150Y010570D01*
X021900Y010320D01*
X021650Y010570D01*
X021150Y010570D01*
X020900Y010320D01*
X020900Y009820D01*
X027600Y009820D02*
X027850Y009570D01*
X028350Y009570D01*
X028600Y009820D01*
X028850Y009570D01*
X029350Y009570D01*
X029600Y009820D01*
X029600Y010320D01*
X029350Y010570D01*
X028850Y010570D01*
X028600Y010320D01*
X028350Y010570D01*
X027850Y010570D01*
X027600Y010320D01*
X027600Y009820D01*
D16*
X028610Y008890D02*
X028685Y008890D01*
X028710Y008865D01*
X028710Y008815D01*
X028685Y008790D01*
X028610Y008790D01*
X028610Y008740D02*
X028610Y008890D01*
X028660Y008790D02*
X028710Y008740D01*
X028758Y008815D02*
X028858Y008815D01*
X028833Y008740D02*
X028833Y008890D01*
X028758Y008815D01*
X028702Y007225D02*
X028602Y007225D01*
X028602Y007150D01*
X028652Y007175D01*
X028677Y007175D01*
X028702Y007150D01*
X028702Y007100D01*
X028677Y007075D01*
X028627Y007075D01*
X028602Y007100D01*
X028555Y007100D02*
X028530Y007075D01*
X028480Y007075D01*
X028455Y007100D01*
X028455Y007200D01*
X028480Y007225D01*
X028530Y007225D01*
X028555Y007200D01*
X025758Y006721D02*
X025658Y006721D01*
X025610Y006721D02*
X025510Y006721D01*
X025560Y006721D02*
X025560Y006871D01*
X025510Y006821D01*
X025463Y006846D02*
X025438Y006871D01*
X025388Y006871D01*
X025363Y006846D01*
X025363Y006746D01*
X025388Y006721D01*
X025438Y006721D01*
X025463Y006746D01*
X025658Y006821D02*
X025708Y006871D01*
X025708Y006721D01*
X022002Y007150D02*
X021902Y007150D01*
X021977Y007225D01*
X021977Y007075D01*
X021855Y007100D02*
X021830Y007075D01*
X021780Y007075D01*
X021755Y007100D01*
X021755Y007200D01*
X021780Y007225D01*
X021830Y007225D01*
X021855Y007200D01*
X018958Y006846D02*
X018958Y006746D01*
X018933Y006721D01*
X018883Y006721D01*
X018858Y006746D01*
X018810Y006746D02*
X018785Y006721D01*
X018735Y006721D01*
X018710Y006746D01*
X018710Y006846D01*
X018735Y006871D01*
X018785Y006871D01*
X018810Y006846D01*
X018858Y006846D02*
X018858Y006821D01*
X018883Y006796D01*
X018958Y006796D01*
X018958Y006846D02*
X018933Y006871D01*
X018883Y006871D01*
X018858Y006846D01*
X015252Y007100D02*
X015227Y007075D01*
X015177Y007075D01*
X015152Y007100D01*
X015105Y007100D02*
X015080Y007075D01*
X015030Y007075D01*
X015005Y007100D01*
X015005Y007200D01*
X015030Y007225D01*
X015080Y007225D01*
X015105Y007200D01*
X015152Y007200D02*
X015177Y007225D01*
X015227Y007225D01*
X015252Y007200D01*
X015252Y007175D01*
X015227Y007150D01*
X015252Y007125D01*
X015252Y007100D01*
X015227Y007150D02*
X015202Y007150D01*
X012258Y006871D02*
X012258Y006846D01*
X012158Y006746D01*
X012158Y006721D01*
X012110Y006746D02*
X012085Y006721D01*
X012035Y006721D01*
X012010Y006746D01*
X012010Y006846D01*
X012035Y006871D01*
X012085Y006871D01*
X012110Y006846D01*
X012158Y006871D02*
X012258Y006871D01*
X008502Y007075D02*
X008402Y007075D01*
X008502Y007175D01*
X008502Y007200D01*
X008477Y007225D01*
X008427Y007225D01*
X008402Y007200D01*
X008355Y007200D02*
X008330Y007225D01*
X008280Y007225D01*
X008255Y007200D01*
X008255Y007100D01*
X008280Y007075D01*
X008330Y007075D01*
X008355Y007100D01*
X005320Y007775D02*
X005320Y007850D01*
X005295Y007875D01*
X005195Y007875D01*
X005170Y007850D01*
X005170Y007775D01*
X005320Y007775D01*
X005320Y007922D02*
X005320Y008022D01*
X005320Y007972D02*
X005170Y007972D01*
X005220Y007922D01*
X004402Y008025D02*
X004302Y008025D01*
X004352Y008025D02*
X004352Y008175D01*
X004302Y008125D01*
X004255Y008175D02*
X004155Y008175D01*
X004155Y008025D01*
X004155Y008100D02*
X004205Y008100D01*
X005055Y009350D02*
X005055Y009500D01*
X005130Y009500D01*
X005155Y009475D01*
X005155Y009425D01*
X005130Y009400D01*
X005055Y009400D01*
X005105Y009400D02*
X005155Y009350D01*
X005202Y009375D02*
X005227Y009350D01*
X005277Y009350D01*
X005302Y009375D01*
X005302Y009425D01*
X005277Y009450D01*
X005252Y009450D01*
X005202Y009425D01*
X005202Y009500D01*
X005302Y009500D01*
X008410Y008890D02*
X008410Y008740D01*
X008410Y008790D02*
X008485Y008790D01*
X008510Y008815D01*
X008510Y008865D01*
X008485Y008890D01*
X008410Y008890D01*
X008460Y008790D02*
X008510Y008740D01*
X008558Y008740D02*
X008658Y008840D01*
X008658Y008865D01*
X008633Y008890D01*
X008583Y008890D01*
X008558Y008865D01*
X008558Y008740D02*
X008658Y008740D01*
X015110Y008740D02*
X015110Y008890D01*
X015185Y008890D01*
X015210Y008865D01*
X015210Y008815D01*
X015185Y008790D01*
X015110Y008790D01*
X015160Y008790D02*
X015210Y008740D01*
X015258Y008740D02*
X015358Y008740D01*
X015308Y008740D02*
X015308Y008890D01*
X015258Y008840D01*
X021910Y008790D02*
X021985Y008790D01*
X022010Y008815D01*
X022010Y008865D01*
X021985Y008890D01*
X021910Y008890D01*
X021910Y008740D01*
X021960Y008790D02*
X022010Y008740D01*
X022058Y008765D02*
X022083Y008740D01*
X022133Y008740D01*
X022158Y008765D01*
X022158Y008790D01*
X022133Y008815D01*
X022108Y008815D01*
X022133Y008815D02*
X022158Y008840D01*
X022158Y008865D01*
X022133Y008890D01*
X022083Y008890D01*
X022058Y008865D01*
X032163Y006846D02*
X032163Y006746D01*
X032188Y006721D01*
X032238Y006721D01*
X032263Y006746D01*
X032310Y006721D02*
X032410Y006721D01*
X032360Y006721D02*
X032360Y006871D01*
X032310Y006821D01*
X032263Y006846D02*
X032238Y006871D01*
X032188Y006871D01*
X032163Y006846D01*
X032458Y006846D02*
X032483Y006871D01*
X032533Y006871D01*
X032558Y006846D01*
X032558Y006821D01*
X032533Y006796D01*
X032558Y006771D01*
X032558Y006746D01*
X032533Y006721D01*
X032483Y006721D01*
X032458Y006746D01*
X032508Y006796D02*
X032533Y006796D01*
X006401Y002172D02*
X006401Y002072D01*
X006401Y002122D02*
X006251Y002122D01*
X006301Y002072D01*
X006276Y002025D02*
X006251Y002000D01*
X006251Y001950D01*
X006276Y001925D01*
X006376Y001925D01*
X006401Y001950D01*
X006401Y002000D01*
X006376Y002025D01*
X003050Y002675D02*
X002950Y002675D01*
X003000Y002675D02*
X003000Y002825D01*
X002950Y002775D01*
X002902Y002750D02*
X002877Y002725D01*
X002802Y002725D01*
X002802Y002675D02*
X002802Y002825D01*
X002877Y002825D01*
X002902Y002800D01*
X002902Y002750D01*
X002755Y002825D02*
X002705Y002825D01*
X002730Y002825D02*
X002730Y002700D01*
X002705Y002675D01*
X002680Y002675D01*
X002655Y002700D01*
D17*
X008600Y008528D02*
X008600Y008532D01*
X015300Y008528D02*
X015300Y008532D01*
X022100Y008528D02*
X022100Y008532D01*
X028800Y008528D02*
X028800Y008532D01*
D18*
X029300Y008280D02*
X028296Y008280D01*
X028296Y007764D01*
X029300Y007764D01*
X029300Y008280D01*
X022600Y008280D02*
X022600Y007764D01*
X021596Y007764D01*
X021596Y008280D01*
X022600Y008280D01*
X015800Y008280D02*
X015800Y007764D01*
X014796Y007764D01*
X014796Y008280D01*
X015800Y008280D01*
X009100Y008280D02*
X009100Y007764D01*
X008096Y007764D01*
X008096Y008280D01*
X009100Y008280D01*
D19*
X008600Y006782D02*
X008600Y006758D01*
X015350Y006782D02*
X015350Y006758D01*
X022100Y006782D02*
X022100Y006758D01*
X028800Y006782D02*
X028800Y006758D01*
D20*
X028550Y009170D03*
X021850Y009170D03*
X015050Y009170D03*
X008350Y009170D03*
X005400Y009070D03*
M02*
