G75*
G70*
%OFA0B0*%
%FSLAX24Y24*%
%IPPOS*%
%LPD*%
%AMOC8*
5,1,8,0,0,1.08239X$1,22.5*
%
%ADD10R,0.0350X0.1180*%
%ADD11C,0.1310*%
%ADD12C,0.1660*%
%ADD13C,0.1620*%
%ADD14C,0.0059*%
%ADD15C,0.0740*%
%ADD16C,0.0240*%
%ADD17C,0.0560*%
%ADD18C,0.0591*%
%ADD19C,0.0500*%
%ADD20C,0.0400*%
D10*
X010125Y005960D03*
X010905Y005960D03*
X011695Y005960D03*
X017775Y005960D03*
X018555Y005960D03*
X019345Y005960D03*
X025325Y005960D03*
X026105Y005960D03*
X026895Y005960D03*
X032975Y005960D03*
X033755Y005960D03*
X034545Y005960D03*
D11*
X036735Y004600D03*
X031565Y004600D03*
X029085Y004600D03*
X023915Y004600D03*
X021535Y004600D03*
X016365Y004600D03*
X013885Y004600D03*
X008715Y004600D03*
D12*
X004150Y005964D03*
D13*
X005631Y004713D03*
X004160Y003081D03*
D14*
X035783Y009001D02*
X035783Y009241D01*
X036100Y009273D01*
X036134Y009380D01*
X036186Y009480D01*
X035984Y009727D01*
X036153Y009897D01*
X036401Y009695D01*
X036501Y009746D01*
X036607Y009781D01*
X036639Y010098D01*
X036879Y010098D01*
X036912Y009781D01*
X037018Y009746D01*
X037118Y009695D01*
X037365Y009897D01*
X037535Y009727D01*
X037333Y009480D01*
X037385Y009380D01*
X037419Y009273D01*
X037736Y009241D01*
X037736Y009001D01*
X037419Y008969D01*
X037385Y008862D01*
X037333Y008763D01*
X037535Y008515D01*
X037365Y008346D01*
X037118Y008547D01*
X037018Y008496D01*
X036877Y008837D01*
X036930Y008866D01*
X036977Y008904D01*
X037015Y008950D01*
X037044Y009004D01*
X037061Y009061D01*
X037067Y009121D01*
X037061Y009184D01*
X037041Y009244D01*
X037010Y009299D01*
X036969Y009347D01*
X036918Y009385D01*
X036861Y009412D01*
X036800Y009426D01*
X036736Y009428D01*
X036674Y009417D01*
X036616Y009393D01*
X036563Y009358D01*
X036519Y009313D01*
X036485Y009260D01*
X036462Y009201D01*
X036452Y009139D01*
X036455Y009075D01*
X036471Y009014D01*
X036499Y008958D01*
X036538Y008908D01*
X036586Y008867D01*
X036642Y008837D01*
X036500Y008496D01*
X036401Y008547D01*
X036153Y008346D01*
X035984Y008515D01*
X036186Y008763D01*
X036134Y008862D01*
X036100Y008969D01*
X035783Y009001D01*
X035783Y009030D02*
X036467Y009030D01*
X036455Y009088D02*
X035783Y009088D01*
X035783Y009146D02*
X036453Y009146D01*
X036463Y009203D02*
X035783Y009203D01*
X035974Y009261D02*
X036485Y009261D01*
X036524Y009318D02*
X036114Y009318D01*
X036133Y009376D02*
X036590Y009376D01*
X036930Y009376D02*
X037386Y009376D01*
X037404Y009318D02*
X036994Y009318D01*
X037032Y009261D02*
X037545Y009261D01*
X037736Y009203D02*
X037055Y009203D01*
X037065Y009146D02*
X037736Y009146D01*
X037736Y009088D02*
X037064Y009088D01*
X037052Y009030D02*
X037736Y009030D01*
X037456Y008973D02*
X037027Y008973D01*
X036986Y008915D02*
X037402Y008915D01*
X037382Y008858D02*
X036916Y008858D01*
X036892Y008800D02*
X037353Y008800D01*
X037350Y008743D02*
X036916Y008743D01*
X036940Y008685D02*
X037397Y008685D01*
X037444Y008628D02*
X036964Y008628D01*
X036988Y008570D02*
X037490Y008570D01*
X037532Y008512D02*
X037161Y008512D01*
X037232Y008455D02*
X037475Y008455D01*
X037417Y008397D02*
X037302Y008397D01*
X037050Y008512D02*
X037012Y008512D01*
X036531Y008570D02*
X036028Y008570D01*
X035987Y008512D02*
X036358Y008512D01*
X036287Y008455D02*
X036044Y008455D01*
X036102Y008397D02*
X036217Y008397D01*
X036469Y008512D02*
X036507Y008512D01*
X036555Y008628D02*
X036075Y008628D01*
X036122Y008685D02*
X036579Y008685D01*
X036603Y008743D02*
X036169Y008743D01*
X036166Y008800D02*
X036626Y008800D01*
X036604Y008858D02*
X036137Y008858D01*
X036117Y008915D02*
X036532Y008915D01*
X036491Y008973D02*
X036063Y008973D01*
X036162Y009433D02*
X037357Y009433D01*
X037342Y009491D02*
X036177Y009491D01*
X036130Y009548D02*
X037389Y009548D01*
X037436Y009606D02*
X036083Y009606D01*
X036036Y009664D02*
X037483Y009664D01*
X037530Y009721D02*
X037150Y009721D01*
X037068Y009721D02*
X036451Y009721D01*
X036369Y009721D02*
X035989Y009721D01*
X036035Y009779D02*
X036298Y009779D01*
X036228Y009836D02*
X036093Y009836D01*
X036150Y009894D02*
X036157Y009894D01*
X036601Y009779D02*
X036918Y009779D01*
X036906Y009836D02*
X036613Y009836D01*
X036619Y009894D02*
X036900Y009894D01*
X036894Y009951D02*
X036625Y009951D01*
X036630Y010009D02*
X036888Y010009D01*
X036883Y010066D02*
X036636Y010066D01*
X037291Y009836D02*
X037426Y009836D01*
X037484Y009779D02*
X037220Y009779D01*
X037362Y009894D02*
X037369Y009894D01*
D15*
X031700Y009900D03*
X030700Y009900D03*
X024100Y009900D03*
X023100Y009900D03*
X016500Y009900D03*
X015500Y009900D03*
X008900Y009900D03*
X007900Y009900D03*
X005170Y009880D03*
X004170Y009880D03*
X001550Y004300D03*
X001550Y003300D03*
D16*
X001000Y003148D02*
X001000Y001087D01*
X037938Y001087D01*
X037938Y008906D01*
X037892Y008861D01*
X037844Y008802D01*
X037832Y008800D01*
X037823Y008792D01*
X037747Y008792D01*
X037593Y008776D01*
X037691Y008656D01*
X037745Y008602D01*
X037745Y008590D01*
X037752Y008580D01*
X037745Y008505D01*
X037745Y008428D01*
X037736Y008420D01*
X037735Y008408D01*
X037676Y008360D01*
X037521Y008205D01*
X037473Y008146D01*
X037461Y008145D01*
X037452Y008136D01*
X037376Y008136D01*
X037300Y008128D01*
X037291Y008136D01*
X037279Y008136D01*
X037225Y008190D01*
X037092Y008298D01*
X037037Y008270D01*
X037028Y008273D01*
X037018Y008269D01*
X036946Y008299D01*
X036872Y008323D01*
X036867Y008332D01*
X036858Y008336D01*
X036828Y008408D01*
X036792Y008477D01*
X036795Y008487D01*
X036759Y008574D01*
X036723Y008487D01*
X036726Y008477D01*
X036691Y008408D01*
X036661Y008336D01*
X036652Y008332D01*
X036647Y008323D01*
X036573Y008299D01*
X036500Y008269D01*
X036491Y008273D01*
X036482Y008270D01*
X036427Y008298D01*
X036294Y008190D01*
X036240Y008136D01*
X036228Y008136D01*
X036219Y008128D01*
X036143Y008136D01*
X036067Y008136D01*
X036058Y008145D01*
X036046Y008146D01*
X035998Y008205D01*
X035843Y008360D01*
X035784Y008408D01*
X035783Y008420D01*
X035774Y008428D01*
X035774Y008505D01*
X035767Y008580D01*
X035774Y008590D01*
X035774Y008602D01*
X035828Y008656D01*
X035926Y008776D01*
X035772Y008792D01*
X035696Y008792D01*
X035687Y008800D01*
X035675Y008802D01*
X035627Y008861D01*
X035573Y008915D01*
X035573Y008927D01*
X035565Y008936D01*
X035573Y009012D01*
X035573Y009231D01*
X035565Y009306D01*
X035573Y009316D01*
X035573Y009328D01*
X035627Y009382D01*
X035675Y009441D01*
X035687Y009442D01*
X035696Y009451D01*
X035772Y009451D01*
X035926Y009466D01*
X035828Y009587D01*
X035774Y009640D01*
X035774Y009653D01*
X035767Y009662D01*
X035774Y009738D01*
X035774Y009814D01*
X035783Y009823D01*
X035784Y009835D01*
X035843Y009883D01*
X035998Y010037D01*
X036046Y010097D01*
X036058Y010098D01*
X036067Y010106D01*
X036143Y010106D01*
X036219Y010114D01*
X036228Y010106D01*
X036240Y010106D01*
X036294Y010053D01*
X036414Y009955D01*
X036430Y010109D01*
X036430Y010185D01*
X036439Y010194D01*
X036440Y010206D01*
X036499Y010254D01*
X036553Y010308D01*
X036565Y010308D01*
X036574Y010315D01*
X036650Y010308D01*
X036869Y010308D01*
X036945Y010315D01*
X036954Y010308D01*
X036966Y010308D01*
X037020Y010254D01*
X037079Y010206D01*
X037080Y010194D01*
X037089Y010185D01*
X037089Y010109D01*
X037105Y009955D01*
X037225Y010053D01*
X037279Y010106D01*
X037291Y010106D01*
X037300Y010114D01*
X037376Y010106D01*
X037452Y010106D01*
X037461Y010098D01*
X037473Y010097D01*
X037521Y010037D01*
X037676Y009883D01*
X037735Y009835D01*
X037736Y009823D01*
X037745Y009814D01*
X037745Y009738D01*
X037752Y009662D01*
X037745Y009653D01*
X037745Y009640D01*
X037691Y009587D01*
X037593Y009466D01*
X037747Y009451D01*
X037823Y009451D01*
X037832Y009442D01*
X037844Y009441D01*
X037892Y009382D01*
X037938Y009336D01*
X037938Y010363D01*
X032015Y010363D01*
X032166Y010212D01*
X032250Y010009D01*
X032250Y009791D01*
X032166Y009588D01*
X032012Y009434D01*
X031809Y009350D01*
X031591Y009350D01*
X031388Y009434D01*
X031234Y009588D01*
X031200Y009670D01*
X031166Y009588D01*
X031012Y009434D01*
X030809Y009350D01*
X030591Y009350D01*
X030388Y009434D01*
X030234Y009588D01*
X030150Y009791D01*
X030150Y010009D01*
X030234Y010212D01*
X030385Y010363D01*
X024415Y010363D01*
X024566Y010212D01*
X024650Y010009D01*
X024650Y009791D01*
X024566Y009588D01*
X024412Y009434D01*
X024209Y009350D01*
X023991Y009350D01*
X023788Y009434D01*
X023634Y009588D01*
X023600Y009670D01*
X023566Y009588D01*
X023412Y009434D01*
X023209Y009350D01*
X022991Y009350D01*
X022788Y009434D01*
X022634Y009588D01*
X022550Y009791D01*
X022550Y010009D01*
X022634Y010212D01*
X022785Y010363D01*
X016815Y010363D01*
X016966Y010212D01*
X017050Y010009D01*
X017050Y009791D01*
X016966Y009588D01*
X016812Y009434D01*
X016609Y009350D01*
X016391Y009350D01*
X016188Y009434D01*
X016034Y009588D01*
X016000Y009670D01*
X015966Y009588D01*
X015812Y009434D01*
X015609Y009350D01*
X015391Y009350D01*
X015188Y009434D01*
X015034Y009588D01*
X014950Y009791D01*
X014950Y010009D01*
X015034Y010212D01*
X015185Y010363D01*
X009215Y010363D01*
X009366Y010212D01*
X009450Y010009D01*
X009450Y009791D01*
X009366Y009588D01*
X009212Y009434D01*
X009009Y009350D01*
X008791Y009350D01*
X008588Y009434D01*
X008434Y009588D01*
X008400Y009670D01*
X008366Y009588D01*
X008212Y009434D01*
X008009Y009350D01*
X007791Y009350D01*
X007588Y009434D01*
X007434Y009588D01*
X007350Y009791D01*
X007350Y010009D01*
X007434Y010212D01*
X007585Y010363D01*
X005442Y010363D01*
X005482Y010346D01*
X005636Y010192D01*
X005720Y009989D01*
X005720Y009771D01*
X005636Y009568D01*
X005482Y009414D01*
X005279Y009330D01*
X005061Y009330D01*
X004858Y009414D01*
X004704Y009568D01*
X004680Y009626D01*
X004658Y009581D01*
X004605Y009509D01*
X004541Y009445D01*
X004469Y009392D01*
X004389Y009352D01*
X004303Y009324D01*
X004215Y009310D01*
X004170Y009310D01*
X004170Y009880D01*
X004170Y009880D01*
X003600Y009880D01*
X003600Y009925D01*
X003614Y010013D01*
X003642Y010099D01*
X003682Y010179D01*
X003735Y010251D01*
X003799Y010315D01*
X003864Y010363D01*
X001000Y010363D01*
X001000Y003452D01*
X001022Y003519D01*
X001062Y003599D01*
X001115Y003671D01*
X001179Y003735D01*
X001251Y003788D01*
X001296Y003810D01*
X001238Y003834D01*
X001084Y003988D01*
X001000Y004191D01*
X001000Y004409D01*
X001084Y004612D01*
X001120Y004648D01*
X001120Y005836D01*
X001185Y005994D01*
X001306Y006115D01*
X001306Y006115D01*
X001491Y006299D01*
X001562Y006328D01*
X001562Y006328D01*
X001720Y006394D01*
X003232Y006394D01*
X003342Y006584D01*
X003530Y006772D01*
X003760Y006905D01*
X004017Y006974D01*
X004283Y006974D01*
X004540Y006905D01*
X004770Y006772D01*
X004958Y006584D01*
X005091Y006354D01*
X005160Y006097D01*
X005160Y005831D01*
X005091Y005574D01*
X005081Y005556D01*
X005434Y005703D01*
X005828Y005703D01*
X006192Y005552D01*
X006470Y005273D01*
X006621Y004910D01*
X006621Y004516D01*
X006470Y004152D01*
X006192Y003873D01*
X005828Y003723D01*
X005434Y003723D01*
X005070Y003873D01*
X004792Y004152D01*
X004641Y004516D01*
X004641Y004910D01*
X004734Y005135D01*
X004540Y005023D01*
X004283Y004954D01*
X004017Y004954D01*
X003760Y005023D01*
X003530Y005156D01*
X003342Y005344D01*
X003232Y005534D01*
X001980Y005534D01*
X001980Y004648D01*
X002016Y004612D01*
X002100Y004409D01*
X002100Y004191D01*
X002016Y003988D01*
X001862Y003834D01*
X001804Y003810D01*
X001849Y003788D01*
X001921Y003735D01*
X001985Y003671D01*
X002038Y003599D01*
X002078Y003519D01*
X002106Y003433D01*
X002120Y003345D01*
X002120Y003300D01*
X001550Y003300D01*
X001550Y003300D01*
X002120Y003300D01*
X002120Y003255D01*
X002106Y003167D01*
X002078Y003081D01*
X002038Y003001D01*
X001985Y002929D01*
X001921Y002865D01*
X001849Y002812D01*
X001769Y002772D01*
X001683Y002744D01*
X001595Y002730D01*
X001550Y002730D01*
X001550Y003300D01*
X001550Y003300D01*
X001550Y002730D01*
X001505Y002730D01*
X001417Y002744D01*
X001331Y002772D01*
X001251Y002812D01*
X001179Y002865D01*
X001115Y002929D01*
X001062Y003001D01*
X001022Y003081D01*
X001000Y003148D01*
X001000Y002947D02*
X001102Y002947D01*
X001000Y002708D02*
X003221Y002708D01*
X003225Y002694D02*
X003188Y002801D01*
X003163Y002912D01*
X003157Y002961D01*
X004040Y002961D01*
X004280Y002961D01*
X004280Y002079D01*
X004329Y002084D01*
X004440Y002109D01*
X004547Y002147D01*
X004649Y002196D01*
X004745Y002256D01*
X004834Y002327D01*
X004914Y002407D01*
X004985Y002496D01*
X005045Y002592D01*
X005095Y002694D01*
X005132Y002801D01*
X005157Y002912D01*
X005163Y002961D01*
X004280Y002961D01*
X004280Y003201D01*
X005163Y003201D01*
X005157Y003251D01*
X005132Y003362D01*
X005095Y003469D01*
X005045Y003571D01*
X004985Y003667D01*
X004914Y003756D01*
X004834Y003836D01*
X004745Y003907D01*
X004649Y003967D01*
X004547Y004016D01*
X004440Y004054D01*
X004329Y004079D01*
X004280Y004084D01*
X004280Y003202D01*
X004040Y003202D01*
X004040Y004084D01*
X003991Y004079D01*
X003880Y004054D01*
X003773Y004016D01*
X003671Y003967D01*
X003575Y003907D01*
X003486Y003836D01*
X003406Y003756D01*
X003335Y003667D01*
X003275Y003571D01*
X003225Y003469D01*
X003188Y003362D01*
X003163Y003251D01*
X003157Y003201D01*
X004040Y003201D01*
X004040Y002961D01*
X004040Y002079D01*
X003991Y002084D01*
X003880Y002109D01*
X003773Y002147D01*
X003671Y002196D01*
X003575Y002256D01*
X003486Y002327D01*
X003406Y002407D01*
X003335Y002496D01*
X003275Y002592D01*
X003225Y002694D01*
X003356Y002470D02*
X001000Y002470D01*
X001000Y002231D02*
X003615Y002231D01*
X004040Y002231D02*
X004280Y002231D01*
X004705Y002231D02*
X037938Y002231D01*
X037938Y001993D02*
X001000Y001993D01*
X001000Y001754D02*
X037938Y001754D01*
X037938Y001516D02*
X001000Y001516D01*
X001000Y001277D02*
X037938Y001277D01*
X037938Y002470D02*
X004964Y002470D01*
X004280Y002470D02*
X004040Y002470D01*
X004040Y002708D02*
X004280Y002708D01*
X004280Y002947D02*
X004040Y002947D01*
X004040Y003185D02*
X002109Y003185D01*
X001550Y003185D02*
X001550Y003185D01*
X001550Y002947D02*
X001550Y002947D01*
X001998Y002947D02*
X003159Y002947D01*
X004280Y003185D02*
X037938Y003185D01*
X037938Y002947D02*
X005161Y002947D01*
X005099Y002708D02*
X037938Y002708D01*
X037938Y003424D02*
X005110Y003424D01*
X004988Y003662D02*
X037938Y003662D01*
X037208Y003892D02*
X036901Y003765D01*
X036569Y003765D01*
X036262Y003892D01*
X036027Y004127D01*
X035900Y004434D01*
X035900Y004766D01*
X036027Y005073D01*
X036262Y005308D01*
X036569Y005435D01*
X036901Y005435D01*
X037208Y005308D01*
X037443Y005073D01*
X037570Y004766D01*
X037570Y004434D01*
X037443Y004127D01*
X037208Y003892D01*
X037216Y003901D02*
X037938Y003901D01*
X037938Y004139D02*
X037448Y004139D01*
X037547Y004378D02*
X037938Y004378D01*
X037938Y004616D02*
X037570Y004616D01*
X037533Y004855D02*
X037938Y004855D01*
X037938Y005093D02*
X037423Y005093D01*
X037151Y005332D02*
X037938Y005332D01*
X037938Y005570D02*
X034986Y005570D01*
X034953Y005491D02*
X035025Y005665D01*
X035025Y005855D01*
X034953Y006029D01*
X034900Y006082D01*
X034900Y006625D01*
X034795Y006730D01*
X034295Y006730D01*
X034190Y006625D01*
X034190Y006072D01*
X034150Y006032D01*
X034110Y006072D01*
X034110Y006625D01*
X034005Y006730D01*
X033505Y006730D01*
X033400Y006625D01*
X033400Y006082D01*
X033360Y006042D01*
X033330Y006072D01*
X033330Y006625D01*
X033225Y006730D01*
X032725Y006730D01*
X032620Y006625D01*
X032620Y006082D01*
X032567Y006029D01*
X032495Y005855D01*
X032495Y005665D01*
X032567Y005491D01*
X032620Y005438D01*
X032620Y005295D01*
X032725Y005190D01*
X033225Y005190D01*
X033330Y005295D01*
X033330Y005448D01*
X033360Y005478D01*
X033400Y005438D01*
X033400Y005295D01*
X033505Y005190D01*
X034005Y005190D01*
X034110Y005295D01*
X034110Y005448D01*
X034150Y005488D01*
X034190Y005448D01*
X034190Y005295D01*
X034295Y005190D01*
X034795Y005190D01*
X034900Y005295D01*
X034900Y005438D01*
X034953Y005491D01*
X034900Y005332D02*
X036319Y005332D01*
X036047Y005093D02*
X032253Y005093D01*
X032273Y005073D02*
X032038Y005308D01*
X031731Y005435D01*
X031399Y005435D01*
X031092Y005308D01*
X030857Y005073D01*
X030730Y004766D01*
X030730Y004434D01*
X030857Y004127D01*
X031092Y003892D01*
X031399Y003765D01*
X031731Y003765D01*
X032038Y003892D01*
X032273Y004127D01*
X032400Y004434D01*
X032400Y004766D01*
X032273Y005073D01*
X032363Y004855D02*
X035937Y004855D01*
X035900Y004616D02*
X032400Y004616D01*
X032377Y004378D02*
X035923Y004378D01*
X036022Y004139D02*
X032278Y004139D01*
X032046Y003901D02*
X036254Y003901D01*
X034190Y005332D02*
X034110Y005332D01*
X033400Y005332D02*
X033330Y005332D01*
X032620Y005332D02*
X031981Y005332D01*
X032534Y005570D02*
X027336Y005570D01*
X027303Y005491D02*
X027375Y005665D01*
X027375Y005855D01*
X027303Y006029D01*
X027250Y006082D01*
X027250Y006625D01*
X027145Y006730D01*
X026645Y006730D01*
X026540Y006625D01*
X026540Y006072D01*
X026500Y006032D01*
X026460Y006072D01*
X026460Y006625D01*
X026355Y006730D01*
X025855Y006730D01*
X025750Y006625D01*
X025750Y006082D01*
X025710Y006042D01*
X025680Y006072D01*
X025680Y006625D01*
X025575Y006730D01*
X025075Y006730D01*
X024970Y006625D01*
X024970Y006082D01*
X024917Y006029D01*
X024845Y005855D01*
X024845Y005665D01*
X024917Y005491D01*
X024970Y005438D01*
X024970Y005295D01*
X025075Y005190D01*
X025575Y005190D01*
X025680Y005295D01*
X025680Y005448D01*
X025710Y005478D01*
X025750Y005438D01*
X025750Y005295D01*
X025855Y005190D01*
X026355Y005190D01*
X026460Y005295D01*
X026460Y005448D01*
X026500Y005488D01*
X026540Y005448D01*
X026540Y005295D01*
X026645Y005190D01*
X027145Y005190D01*
X027250Y005295D01*
X027250Y005438D01*
X027303Y005491D01*
X027250Y005332D02*
X028669Y005332D01*
X028612Y005308D02*
X028377Y005073D01*
X028250Y004766D01*
X028250Y004434D01*
X028377Y004127D01*
X028612Y003892D01*
X028919Y003765D01*
X029251Y003765D01*
X029558Y003892D01*
X029793Y004127D01*
X029920Y004434D01*
X029920Y004766D01*
X029793Y005073D01*
X029558Y005308D01*
X029251Y005435D01*
X028919Y005435D01*
X028612Y005308D01*
X028397Y005093D02*
X024603Y005093D01*
X024623Y005073D02*
X024388Y005308D01*
X024081Y005435D01*
X023749Y005435D01*
X023442Y005308D01*
X023207Y005073D01*
X023080Y004766D01*
X023080Y004434D01*
X023207Y004127D01*
X023442Y003892D01*
X023749Y003765D01*
X024081Y003765D01*
X024388Y003892D01*
X024623Y004127D01*
X024750Y004434D01*
X024750Y004766D01*
X024623Y005073D01*
X024713Y004855D02*
X028287Y004855D01*
X028250Y004616D02*
X024750Y004616D01*
X024727Y004378D02*
X028273Y004378D01*
X028372Y004139D02*
X024628Y004139D01*
X024396Y003901D02*
X028604Y003901D01*
X029566Y003901D02*
X031084Y003901D01*
X030852Y004139D02*
X029798Y004139D01*
X029897Y004378D02*
X030753Y004378D01*
X030730Y004616D02*
X029920Y004616D01*
X029883Y004855D02*
X030767Y004855D01*
X030877Y005093D02*
X029773Y005093D01*
X029501Y005332D02*
X031149Y005332D01*
X032495Y005809D02*
X027375Y005809D01*
X027285Y006047D02*
X032585Y006047D01*
X032620Y006286D02*
X027250Y006286D01*
X027250Y006524D02*
X032620Y006524D01*
X033330Y006524D02*
X033400Y006524D01*
X034110Y006524D02*
X034190Y006524D01*
X034190Y006286D02*
X034110Y006286D01*
X033400Y006286D02*
X033330Y006286D01*
X033355Y006047D02*
X033365Y006047D01*
X034135Y006047D02*
X034165Y006047D01*
X034935Y006047D02*
X037938Y006047D01*
X037938Y006286D02*
X034900Y006286D01*
X034900Y006524D02*
X037938Y006524D01*
X037938Y006763D02*
X004779Y006763D01*
X004993Y006524D02*
X009770Y006524D01*
X009770Y006625D02*
X009770Y006082D01*
X009717Y006029D01*
X009645Y005855D01*
X009645Y005665D01*
X009717Y005491D01*
X009770Y005438D01*
X009770Y005295D01*
X009875Y005190D01*
X010375Y005190D01*
X010480Y005295D01*
X010480Y005448D01*
X010510Y005478D01*
X010550Y005438D01*
X010550Y005295D01*
X010655Y005190D01*
X011155Y005190D01*
X011260Y005295D01*
X011260Y005448D01*
X011300Y005488D01*
X011340Y005448D01*
X011340Y005295D01*
X011445Y005190D01*
X011945Y005190D01*
X012050Y005295D01*
X012050Y005438D01*
X012103Y005491D01*
X012175Y005665D01*
X012175Y005855D01*
X012103Y006029D01*
X012050Y006082D01*
X012050Y006625D01*
X011945Y006730D01*
X011445Y006730D01*
X011340Y006625D01*
X011340Y006072D01*
X011300Y006032D01*
X011260Y006072D01*
X011260Y006625D01*
X011155Y006730D01*
X010655Y006730D01*
X010550Y006625D01*
X010550Y006082D01*
X010510Y006042D01*
X010480Y006072D01*
X010480Y006625D01*
X010375Y006730D01*
X009875Y006730D01*
X009770Y006625D01*
X010480Y006524D02*
X010550Y006524D01*
X010550Y006286D02*
X010480Y006286D01*
X010505Y006047D02*
X010515Y006047D01*
X011285Y006047D02*
X011315Y006047D01*
X011340Y006286D02*
X011260Y006286D01*
X011260Y006524D02*
X011340Y006524D01*
X012050Y006524D02*
X017420Y006524D01*
X017420Y006625D02*
X017420Y006082D01*
X017367Y006029D01*
X017295Y005855D01*
X017295Y005665D01*
X017367Y005491D01*
X017420Y005438D01*
X017420Y005295D01*
X017525Y005190D01*
X018025Y005190D01*
X018130Y005295D01*
X018130Y005448D01*
X018160Y005478D01*
X018200Y005438D01*
X018200Y005295D01*
X018305Y005190D01*
X018805Y005190D01*
X018910Y005295D01*
X018910Y005448D01*
X018950Y005488D01*
X018990Y005448D01*
X018990Y005295D01*
X019095Y005190D01*
X019595Y005190D01*
X019700Y005295D01*
X019700Y005438D01*
X019753Y005491D01*
X019825Y005665D01*
X019825Y005855D01*
X019753Y006029D01*
X019700Y006082D01*
X019700Y006625D01*
X019595Y006730D01*
X019095Y006730D01*
X018990Y006625D01*
X018990Y006072D01*
X018950Y006032D01*
X018910Y006072D01*
X018910Y006625D01*
X018805Y006730D01*
X018305Y006730D01*
X018200Y006625D01*
X018200Y006082D01*
X018160Y006042D01*
X018130Y006072D01*
X018130Y006625D01*
X018025Y006730D01*
X017525Y006730D01*
X017420Y006625D01*
X018130Y006524D02*
X018200Y006524D01*
X018200Y006286D02*
X018130Y006286D01*
X018155Y006047D02*
X018165Y006047D01*
X018935Y006047D02*
X018965Y006047D01*
X018990Y006286D02*
X018910Y006286D01*
X018910Y006524D02*
X018990Y006524D01*
X019700Y006524D02*
X024970Y006524D01*
X025680Y006524D02*
X025750Y006524D01*
X025750Y006286D02*
X025680Y006286D01*
X024970Y006286D02*
X019700Y006286D01*
X019735Y006047D02*
X024935Y006047D01*
X025705Y006047D02*
X025715Y006047D01*
X026485Y006047D02*
X026515Y006047D01*
X026540Y006286D02*
X026460Y006286D01*
X026460Y006524D02*
X026540Y006524D01*
X024845Y005809D02*
X019825Y005809D01*
X019786Y005570D02*
X024884Y005570D01*
X024970Y005332D02*
X024331Y005332D01*
X023499Y005332D02*
X021951Y005332D01*
X022008Y005308D02*
X021701Y005435D01*
X021369Y005435D01*
X021062Y005308D01*
X020827Y005073D01*
X020700Y004766D01*
X020700Y004434D01*
X020827Y004127D01*
X021062Y003892D01*
X021369Y003765D01*
X021701Y003765D01*
X022008Y003892D01*
X022243Y004127D01*
X022370Y004434D01*
X022370Y004766D01*
X022243Y005073D01*
X022008Y005308D01*
X022223Y005093D02*
X023227Y005093D01*
X023117Y004855D02*
X022333Y004855D01*
X022370Y004616D02*
X023080Y004616D01*
X023103Y004378D02*
X022347Y004378D01*
X022248Y004139D02*
X023202Y004139D01*
X023434Y003901D02*
X022016Y003901D01*
X021054Y003901D02*
X016846Y003901D01*
X016838Y003892D02*
X017073Y004127D01*
X017200Y004434D01*
X017200Y004766D01*
X017073Y005073D01*
X016838Y005308D01*
X016531Y005435D01*
X016199Y005435D01*
X015892Y005308D01*
X015657Y005073D01*
X015530Y004766D01*
X015530Y004434D01*
X015657Y004127D01*
X015892Y003892D01*
X016199Y003765D01*
X016531Y003765D01*
X016838Y003892D01*
X017078Y004139D02*
X020822Y004139D01*
X020723Y004378D02*
X017177Y004378D01*
X017200Y004616D02*
X020700Y004616D01*
X020737Y004855D02*
X017163Y004855D01*
X017053Y005093D02*
X020847Y005093D01*
X021119Y005332D02*
X019700Y005332D01*
X018990Y005332D02*
X018910Y005332D01*
X018200Y005332D02*
X018130Y005332D01*
X017420Y005332D02*
X016781Y005332D01*
X017334Y005570D02*
X012136Y005570D01*
X012175Y005809D02*
X017295Y005809D01*
X017385Y006047D02*
X012085Y006047D01*
X012050Y006286D02*
X017420Y006286D01*
X015949Y005332D02*
X014301Y005332D01*
X014358Y005308D02*
X014051Y005435D01*
X013719Y005435D01*
X013412Y005308D01*
X013177Y005073D01*
X013050Y004766D01*
X013050Y004434D01*
X013177Y004127D01*
X013412Y003892D01*
X013719Y003765D01*
X014051Y003765D01*
X014358Y003892D01*
X014593Y004127D01*
X014720Y004434D01*
X014720Y004766D01*
X014593Y005073D01*
X014358Y005308D01*
X014573Y005093D02*
X015677Y005093D01*
X015567Y004855D02*
X014683Y004855D01*
X014720Y004616D02*
X015530Y004616D01*
X015553Y004378D02*
X014697Y004378D01*
X014598Y004139D02*
X015652Y004139D01*
X015884Y003901D02*
X014366Y003901D01*
X013404Y003901D02*
X009196Y003901D01*
X009188Y003892D02*
X009423Y004127D01*
X009550Y004434D01*
X009550Y004766D01*
X009423Y005073D01*
X009188Y005308D01*
X008881Y005435D01*
X008549Y005435D01*
X008242Y005308D01*
X008007Y005073D01*
X007880Y004766D01*
X007880Y004434D01*
X008007Y004127D01*
X008242Y003892D01*
X008549Y003765D01*
X008881Y003765D01*
X009188Y003892D01*
X009428Y004139D02*
X013172Y004139D01*
X013073Y004378D02*
X009527Y004378D01*
X009550Y004616D02*
X013050Y004616D01*
X013087Y004855D02*
X009513Y004855D01*
X009403Y005093D02*
X013197Y005093D01*
X013469Y005332D02*
X012050Y005332D01*
X011340Y005332D02*
X011260Y005332D01*
X010550Y005332D02*
X010480Y005332D01*
X009770Y005332D02*
X009131Y005332D01*
X009684Y005570D02*
X006148Y005570D01*
X006412Y005332D02*
X008299Y005332D01*
X008027Y005093D02*
X006545Y005093D01*
X006621Y004855D02*
X007917Y004855D01*
X007880Y004616D02*
X006621Y004616D01*
X006564Y004378D02*
X007903Y004378D01*
X008002Y004139D02*
X006457Y004139D01*
X006219Y003901D02*
X008234Y003901D01*
X005043Y003901D02*
X004753Y003901D01*
X004280Y003901D02*
X004040Y003901D01*
X003567Y003901D02*
X001928Y003901D01*
X002079Y004139D02*
X004804Y004139D01*
X004698Y004378D02*
X002100Y004378D01*
X002012Y004616D02*
X004641Y004616D01*
X004641Y004855D02*
X001980Y004855D01*
X001980Y005093D02*
X003638Y005093D01*
X003354Y005332D02*
X001980Y005332D01*
X001120Y005332D02*
X001000Y005332D01*
X001000Y005570D02*
X001120Y005570D01*
X001120Y005809D02*
X001000Y005809D01*
X001000Y006047D02*
X001239Y006047D01*
X001000Y006286D02*
X001477Y006286D01*
X001000Y006524D02*
X003307Y006524D01*
X003521Y006763D02*
X001000Y006763D01*
X001000Y007001D02*
X037938Y007001D01*
X037938Y007240D02*
X001000Y007240D01*
X001000Y007478D02*
X037938Y007478D01*
X037938Y007717D02*
X001000Y007717D01*
X001000Y007955D02*
X037938Y007955D01*
X037938Y008194D02*
X037512Y008194D01*
X037220Y008194D02*
X036298Y008194D01*
X036007Y008194D02*
X001000Y008194D01*
X001000Y008432D02*
X035774Y008432D01*
X035840Y008671D02*
X001000Y008671D01*
X001000Y008909D02*
X035578Y008909D01*
X035573Y009148D02*
X001000Y009148D01*
X001000Y009386D02*
X003884Y009386D01*
X003871Y009392D02*
X003951Y009352D01*
X004037Y009324D01*
X004125Y009310D01*
X004170Y009310D01*
X004170Y009880D01*
X004170Y009880D01*
X003600Y009880D01*
X003600Y009835D01*
X003614Y009747D01*
X003642Y009661D01*
X003682Y009581D01*
X003735Y009509D01*
X003799Y009445D01*
X003871Y009392D01*
X004170Y009386D02*
X004170Y009386D01*
X004456Y009386D02*
X004925Y009386D01*
X004681Y009625D02*
X004680Y009625D01*
X004170Y009625D02*
X004170Y009625D01*
X003660Y009625D02*
X001000Y009625D01*
X001000Y009863D02*
X003600Y009863D01*
X004170Y009863D02*
X004170Y009863D01*
X003643Y010102D02*
X001000Y010102D01*
X001000Y010340D02*
X003833Y010340D01*
X005488Y010340D02*
X007562Y010340D01*
X007388Y010102D02*
X005674Y010102D01*
X005720Y009863D02*
X007350Y009863D01*
X007419Y009625D02*
X005659Y009625D01*
X005415Y009386D02*
X007704Y009386D01*
X008096Y009386D02*
X008704Y009386D01*
X009096Y009386D02*
X015304Y009386D01*
X015696Y009386D02*
X016304Y009386D01*
X016696Y009386D02*
X022904Y009386D01*
X023296Y009386D02*
X023904Y009386D01*
X024296Y009386D02*
X030504Y009386D01*
X030896Y009386D02*
X031504Y009386D01*
X031896Y009386D02*
X035630Y009386D01*
X035790Y009625D02*
X032181Y009625D01*
X032250Y009863D02*
X035819Y009863D01*
X036062Y010102D02*
X032212Y010102D01*
X032038Y010340D02*
X037938Y010340D01*
X037938Y010102D02*
X037457Y010102D01*
X037274Y010102D02*
X037090Y010102D01*
X036429Y010102D02*
X036245Y010102D01*
X037700Y009863D02*
X037938Y009863D01*
X037938Y009625D02*
X037729Y009625D01*
X037889Y009386D02*
X037938Y009386D01*
X037938Y008671D02*
X037679Y008671D01*
X037745Y008432D02*
X037938Y008432D01*
X036816Y008432D02*
X036703Y008432D01*
X031219Y009625D02*
X031181Y009625D01*
X030219Y009625D02*
X024581Y009625D01*
X024650Y009863D02*
X030150Y009863D01*
X030188Y010102D02*
X024612Y010102D01*
X024438Y010340D02*
X030362Y010340D01*
X023619Y009625D02*
X023581Y009625D01*
X022619Y009625D02*
X016981Y009625D01*
X017050Y009863D02*
X022550Y009863D01*
X022588Y010102D02*
X017012Y010102D01*
X016838Y010340D02*
X022762Y010340D01*
X016019Y009625D02*
X015981Y009625D01*
X015019Y009625D02*
X009381Y009625D01*
X009450Y009863D02*
X014950Y009863D01*
X014988Y010102D02*
X009412Y010102D01*
X009238Y010340D02*
X015162Y010340D01*
X008419Y009625D02*
X008381Y009625D01*
X009770Y006286D02*
X005109Y006286D01*
X005160Y006047D02*
X009735Y006047D01*
X009645Y005809D02*
X005154Y005809D01*
X005114Y005570D02*
X005089Y005570D01*
X004717Y005093D02*
X004662Y005093D01*
X001120Y005093D02*
X001000Y005093D01*
X001000Y004855D02*
X001120Y004855D01*
X001088Y004616D02*
X001000Y004616D01*
X001000Y004139D02*
X001021Y004139D01*
X001000Y003901D02*
X001172Y003901D01*
X001108Y003662D02*
X001000Y003662D01*
X001992Y003662D02*
X003332Y003662D01*
X003210Y003424D02*
X002108Y003424D01*
X004040Y003424D02*
X004280Y003424D01*
X004280Y003662D02*
X004040Y003662D01*
X025680Y005332D02*
X025750Y005332D01*
X026460Y005332D02*
X026540Y005332D01*
X035025Y005809D02*
X037938Y005809D01*
D17*
X035850Y007300D03*
X032300Y006600D03*
X028200Y007250D03*
X024700Y006600D03*
X020650Y007250D03*
X017150Y006600D03*
X013000Y007250D03*
X009500Y006600D03*
D18*
X010120Y005760D03*
X010900Y005760D03*
X011700Y005760D03*
X012480Y005760D03*
X017770Y005760D03*
X018550Y005760D03*
X019350Y005760D03*
X020130Y005760D03*
X025320Y005760D03*
X026100Y005760D03*
X026900Y005760D03*
X027680Y005760D03*
X032970Y005760D03*
X033750Y005760D03*
X034550Y005760D03*
X035330Y005760D03*
D19*
X004150Y005964D02*
X001805Y005964D01*
X001734Y005934D02*
X001550Y005750D01*
X001550Y004300D01*
D20*
X001734Y005935D02*
X001749Y005947D01*
X001767Y005956D01*
X001785Y005962D01*
X001805Y005964D01*
M02*
