%
M48
M72
T01C0.0236
T02C0.0394
T03C0.0400
T04C0.0910
T05C0.1180
T06C0.1260
%
T01
X9500Y6770
X13000Y7420
X16250Y6770
X19750Y7420
X23000Y6770
X26500Y7420
X29700Y6770
X33250Y7470
T02
X32730Y5930
X31950Y5930
X31150Y5930
X30370Y5930
X25980Y5930
X25200Y5930
X24400Y5930
X23620Y5930
X19230Y5930
X18450Y5930
X17650Y5930
X16870Y5930
X12480Y5930
X11700Y5930
X10900Y5930
X10120Y5930
T03
X1550Y4470
X1550Y3470
X4170Y10050
X5170Y10050
X7900Y10070
X8900Y10070
X14600Y10070
X15600Y10070
X21400Y10070
X22400Y10070
X28100Y10070
X29100Y10070
T04
X28965Y4770
X27385Y4770
X22215Y4770
X20635Y4770
X15465Y4770
X13885Y4770
X8715Y4770
X34135Y4770
T05
X4160Y3251
X5631Y4883
T06
X4150Y6134
M30
