G75*
G70*
%OFA0B0*%
%FSLAX24Y24*%
%IPPOS*%
%LPD*%
%AMOC8*
5,1,8,0,0,1.08239X$1,22.5*
%
%ADD10R,0.0450X0.1300*%
%ADD11C,0.1390*%
%ADD12C,0.1740*%
%ADD13C,0.1700*%
%ADD14C,0.0059*%
%ADD15C,0.0820*%
%ADD16C,0.0640*%
%ADD17C,0.0671*%
D10*
X010125Y005960D03*
X010905Y005960D03*
X011695Y005960D03*
X012475Y005970D03*
X017775Y005960D03*
X018555Y005960D03*
X019345Y005960D03*
X020135Y005960D03*
X025325Y005960D03*
X026105Y005960D03*
X026895Y005960D03*
X027685Y005960D03*
X032975Y005960D03*
X033755Y005960D03*
X034545Y005960D03*
X035335Y005960D03*
D11*
X036735Y004600D03*
X031565Y004600D03*
X029085Y004600D03*
X023915Y004600D03*
X021535Y004600D03*
X016365Y004600D03*
X013885Y004600D03*
X008715Y004600D03*
D12*
X004150Y005964D03*
D13*
X004160Y003081D03*
X005631Y004713D03*
D14*
X035783Y009001D02*
X035783Y009241D01*
X036100Y009273D01*
X036134Y009380D01*
X036186Y009480D01*
X035984Y009727D01*
X036153Y009897D01*
X036401Y009695D01*
X036501Y009746D01*
X036607Y009781D01*
X036639Y010098D01*
X036879Y010098D01*
X036912Y009781D01*
X037018Y009746D01*
X037118Y009695D01*
X037365Y009897D01*
X037535Y009727D01*
X037333Y009480D01*
X037385Y009380D01*
X037419Y009273D01*
X037736Y009241D01*
X037736Y009001D01*
X037419Y008969D01*
X037385Y008862D01*
X037333Y008763D01*
X037535Y008515D01*
X037365Y008346D01*
X037118Y008547D01*
X037018Y008496D01*
X036877Y008837D01*
X036930Y008866D01*
X036977Y008904D01*
X037015Y008950D01*
X037044Y009004D01*
X037061Y009061D01*
X037067Y009121D01*
X037061Y009184D01*
X037041Y009244D01*
X037010Y009299D01*
X036969Y009347D01*
X036918Y009385D01*
X036861Y009412D01*
X036800Y009426D01*
X036736Y009428D01*
X036674Y009417D01*
X036616Y009393D01*
X036563Y009358D01*
X036519Y009313D01*
X036485Y009260D01*
X036462Y009201D01*
X036452Y009139D01*
X036455Y009075D01*
X036471Y009014D01*
X036499Y008958D01*
X036538Y008908D01*
X036586Y008867D01*
X036642Y008837D01*
X036500Y008496D01*
X036401Y008547D01*
X036153Y008346D01*
X035984Y008515D01*
X036186Y008763D01*
X036134Y008862D01*
X036100Y008969D01*
X035783Y009001D01*
X035783Y009030D02*
X036467Y009030D01*
X036455Y009088D02*
X035783Y009088D01*
X035783Y009146D02*
X036453Y009146D01*
X036463Y009203D02*
X035783Y009203D01*
X035974Y009261D02*
X036485Y009261D01*
X036524Y009318D02*
X036114Y009318D01*
X036133Y009376D02*
X036590Y009376D01*
X036930Y009376D02*
X037386Y009376D01*
X037404Y009318D02*
X036994Y009318D01*
X037032Y009261D02*
X037545Y009261D01*
X037736Y009203D02*
X037055Y009203D01*
X037065Y009146D02*
X037736Y009146D01*
X037736Y009088D02*
X037064Y009088D01*
X037052Y009030D02*
X037736Y009030D01*
X037456Y008973D02*
X037027Y008973D01*
X036986Y008915D02*
X037402Y008915D01*
X037382Y008858D02*
X036916Y008858D01*
X036892Y008800D02*
X037353Y008800D01*
X037350Y008743D02*
X036916Y008743D01*
X036940Y008685D02*
X037397Y008685D01*
X037444Y008628D02*
X036964Y008628D01*
X036988Y008570D02*
X037490Y008570D01*
X037532Y008512D02*
X037161Y008512D01*
X037232Y008455D02*
X037475Y008455D01*
X037417Y008397D02*
X037302Y008397D01*
X037050Y008512D02*
X037012Y008512D01*
X036531Y008570D02*
X036028Y008570D01*
X035987Y008512D02*
X036358Y008512D01*
X036287Y008455D02*
X036044Y008455D01*
X036102Y008397D02*
X036217Y008397D01*
X036469Y008512D02*
X036507Y008512D01*
X036555Y008628D02*
X036075Y008628D01*
X036122Y008685D02*
X036579Y008685D01*
X036603Y008743D02*
X036169Y008743D01*
X036166Y008800D02*
X036626Y008800D01*
X036604Y008858D02*
X036137Y008858D01*
X036117Y008915D02*
X036532Y008915D01*
X036491Y008973D02*
X036063Y008973D01*
X036162Y009433D02*
X037357Y009433D01*
X037342Y009491D02*
X036177Y009491D01*
X036130Y009548D02*
X037389Y009548D01*
X037436Y009606D02*
X036083Y009606D01*
X036036Y009664D02*
X037483Y009664D01*
X037530Y009721D02*
X037150Y009721D01*
X037068Y009721D02*
X036451Y009721D01*
X036369Y009721D02*
X035989Y009721D01*
X036035Y009779D02*
X036298Y009779D01*
X036228Y009836D02*
X036093Y009836D01*
X036150Y009894D02*
X036157Y009894D01*
X036601Y009779D02*
X036918Y009779D01*
X036906Y009836D02*
X036613Y009836D01*
X036619Y009894D02*
X036900Y009894D01*
X036894Y009951D02*
X036625Y009951D01*
X036630Y010009D02*
X036888Y010009D01*
X036883Y010066D02*
X036636Y010066D01*
X037291Y009836D02*
X037426Y009836D01*
X037484Y009779D02*
X037220Y009779D01*
X037362Y009894D02*
X037369Y009894D01*
D15*
X031700Y009900D03*
X030700Y009900D03*
X024100Y009900D03*
X023100Y009900D03*
X016500Y009900D03*
X015500Y009900D03*
X008900Y009900D03*
X007900Y009900D03*
X005170Y009880D03*
X004170Y009880D03*
X001550Y004300D03*
X001550Y003300D03*
D16*
X009500Y006600D03*
X013000Y007250D03*
X017150Y006600D03*
X020650Y007250D03*
X024700Y006600D03*
X028200Y007250D03*
X032300Y006600D03*
X035850Y007300D03*
D17*
X035330Y005760D03*
X034550Y005760D03*
X033750Y005760D03*
X032970Y005760D03*
X027680Y005760D03*
X026900Y005760D03*
X026100Y005760D03*
X025320Y005760D03*
X020130Y005760D03*
X019350Y005760D03*
X018550Y005760D03*
X017770Y005760D03*
X012480Y005760D03*
X011700Y005760D03*
X010900Y005760D03*
X010120Y005760D03*
M02*
