G75*
G70*
%OFA0B0*%
%FSLAX24Y24*%
%IPPOS*%
%LPD*%
%AMOC8*
5,1,8,0,0,1.08239X$1,22.5*
%
%ADD10C,0.0000*%
D10*
X001050Y000970D02*
X035983Y000970D01*
X036013Y000972D01*
X036043Y000977D01*
X036072Y000986D01*
X036099Y000999D01*
X036125Y001014D01*
X036149Y001033D01*
X036170Y001054D01*
X036189Y001078D01*
X036204Y001104D01*
X036217Y001131D01*
X036226Y001160D01*
X036231Y001190D01*
X036233Y001220D01*
X036233Y010563D01*
X036231Y010593D01*
X036226Y010623D01*
X036217Y010652D01*
X036204Y010679D01*
X036189Y010705D01*
X036170Y010729D01*
X036149Y010750D01*
X036125Y010769D01*
X036099Y010784D01*
X036072Y010797D01*
X036043Y010806D01*
X036013Y010811D01*
X035983Y010813D01*
X001050Y010813D01*
X001020Y010811D01*
X000990Y010806D01*
X000961Y010797D01*
X000934Y010784D01*
X000908Y010769D01*
X000884Y010750D01*
X000863Y010729D01*
X000844Y010705D01*
X000829Y010679D01*
X000816Y010652D01*
X000807Y010623D01*
X000802Y010593D01*
X000800Y010563D01*
X000800Y001220D01*
X000802Y001190D01*
X000807Y001160D01*
X000816Y001131D01*
X000829Y001104D01*
X000844Y001078D01*
X000863Y001054D01*
X000884Y001033D01*
X000908Y001014D01*
X000934Y000999D01*
X000961Y000986D01*
X000990Y000977D01*
X001020Y000972D01*
X001050Y000970D01*
M02*
