G75*
G70*
%OFA0B0*%
%FSLAX24Y24*%
%IPPOS*%
%LPD*%
%AMOC8*
5,1,8,0,0,1.08239X$1,22.5*
%
%ADD10C,0.0140*%
%ADD11C,0.0040*%
%ADD12C,0.0030*%
%ADD13C,0.0060*%
%ADD14C,0.0020*%
%ADD15C,0.0050*%
%ADD16C,0.0080*%
%ADD17C,0.0010*%
%ADD18C,0.0004*%
%ADD19C,0.0030*%
%ADD20C,0.0220*%
%ADD21R,0.0160X0.0280*%
D10*
X007970Y001170D02*
X008477Y001170D01*
X008224Y001170D02*
X008224Y001931D01*
X007970Y001677D01*
X015420Y001854D02*
X015547Y001981D01*
X015800Y001981D01*
X015927Y001854D01*
X015927Y001727D01*
X015420Y001220D01*
X015927Y001220D01*
X023020Y001347D02*
X023147Y001220D01*
X023400Y001220D01*
X023527Y001347D01*
X023527Y001474D01*
X023400Y001600D01*
X023274Y001600D01*
X023400Y001600D02*
X023527Y001727D01*
X023527Y001854D01*
X023400Y001981D01*
X023147Y001981D01*
X023020Y001854D01*
X030670Y001550D02*
X031177Y001550D01*
X031050Y001931D02*
X030670Y001550D01*
X031050Y001170D02*
X031050Y001931D01*
D11*
X030952Y003470D02*
X030952Y003630D01*
X031032Y003630D01*
X031058Y003603D01*
X031058Y003550D01*
X031032Y003523D01*
X030952Y003523D01*
X030848Y003497D02*
X030848Y003630D01*
X030874Y003630D02*
X030821Y003630D01*
X030848Y003497D02*
X030821Y003470D01*
X030794Y003470D01*
X030768Y003497D01*
X031136Y003497D02*
X031163Y003470D01*
X031216Y003470D01*
X031243Y003497D01*
X031243Y003523D01*
X031216Y003550D01*
X031136Y003550D01*
X031136Y003497D01*
X031136Y003550D02*
X031189Y003603D01*
X031243Y003630D01*
X037320Y005750D02*
X037320Y005884D01*
X037454Y005750D01*
X037487Y005750D01*
X037520Y005783D01*
X037520Y005850D01*
X037487Y005884D01*
X037353Y005961D02*
X037320Y005961D01*
X037320Y005994D01*
X037353Y005994D01*
X037353Y005961D01*
X037353Y006082D02*
X037320Y006115D01*
X037320Y006182D01*
X037353Y006215D01*
X037487Y006082D01*
X037353Y006082D01*
X037353Y006215D02*
X037487Y006215D01*
X037520Y006182D01*
X037520Y006115D01*
X037487Y006082D01*
X037454Y006303D02*
X037320Y006369D01*
X037454Y006436D01*
X037160Y006483D02*
X037127Y006450D01*
X036993Y006583D01*
X036960Y006550D01*
X036960Y006483D01*
X036993Y006450D01*
X037127Y006450D01*
X037160Y006483D02*
X037160Y006550D01*
X037127Y006583D01*
X036993Y006583D01*
X036993Y006660D02*
X036960Y006660D01*
X036960Y006694D01*
X036993Y006694D01*
X036993Y006660D01*
X036960Y006781D02*
X036960Y006915D01*
X037094Y006781D01*
X037127Y006781D01*
X037160Y006815D01*
X037160Y006881D01*
X037127Y006915D01*
X037320Y006966D02*
X037454Y007099D01*
X037454Y006966D02*
X037320Y007099D01*
X037420Y006878D02*
X037420Y006745D01*
X037320Y006778D02*
X037520Y006778D01*
X037420Y006878D01*
X037060Y007223D02*
X037027Y007223D01*
X037027Y007357D01*
X037060Y007357D02*
X037094Y007323D01*
X037094Y007257D01*
X037060Y007223D01*
X036960Y007257D02*
X036960Y007323D01*
X036993Y007357D01*
X037060Y007357D01*
X037094Y007444D02*
X037094Y007544D01*
X037060Y007578D01*
X037027Y007544D01*
X037027Y007478D01*
X036993Y007444D01*
X036960Y007478D01*
X036960Y007578D01*
X036960Y007665D02*
X037060Y007665D01*
X037094Y007699D01*
X037094Y007799D01*
X036960Y007799D01*
X037027Y007886D02*
X037027Y008020D01*
X037060Y008020D02*
X037094Y007986D01*
X037094Y007920D01*
X037060Y007886D01*
X037027Y007886D01*
X036960Y007920D02*
X036960Y007986D01*
X036993Y008020D01*
X037060Y008020D01*
X037094Y008107D02*
X037094Y008207D01*
X037060Y008241D01*
X036993Y008241D01*
X036960Y008207D01*
X036960Y008107D01*
X036734Y008104D02*
X036700Y008070D01*
X036600Y008070D01*
X036600Y008137D02*
X036700Y008137D01*
X036734Y008104D01*
X036700Y008137D02*
X036734Y008171D01*
X036734Y008204D01*
X036600Y008204D01*
X036600Y008285D02*
X036600Y008351D01*
X036600Y008318D02*
X036734Y008318D01*
X036734Y008351D01*
X036800Y008318D02*
X036834Y008318D01*
X036960Y008321D02*
X036960Y008388D01*
X036960Y008355D02*
X037094Y008355D01*
X037094Y008388D01*
X037160Y008355D02*
X037194Y008355D01*
X037320Y008388D02*
X037454Y008388D01*
X037454Y008321D02*
X037454Y008288D01*
X037454Y008321D02*
X037387Y008388D01*
X037387Y008476D02*
X037387Y008609D01*
X037420Y008609D02*
X037454Y008576D01*
X037454Y008509D01*
X037420Y008476D01*
X037387Y008476D01*
X037320Y008509D02*
X037320Y008576D01*
X037353Y008609D01*
X037420Y008609D01*
X037454Y008697D02*
X037353Y008697D01*
X037320Y008730D01*
X037353Y008763D01*
X037320Y008797D01*
X037353Y008830D01*
X037454Y008830D01*
X037420Y008918D02*
X037454Y008951D01*
X037454Y009018D01*
X037420Y009051D01*
X037353Y009051D01*
X037320Y009018D01*
X037320Y008951D01*
X037353Y008918D01*
X037420Y008918D01*
X037094Y008951D02*
X037060Y008918D01*
X037027Y008918D01*
X037027Y009051D01*
X037060Y009051D02*
X037094Y009018D01*
X037094Y008951D01*
X037060Y009051D02*
X036993Y009051D01*
X036960Y009018D01*
X036960Y008951D01*
X036960Y009139D02*
X037060Y009139D01*
X037094Y009172D01*
X037094Y009239D01*
X037060Y009272D01*
X037094Y009360D02*
X037094Y009460D01*
X037060Y009493D01*
X036993Y009493D01*
X036960Y009460D01*
X036960Y009360D01*
X036960Y009272D02*
X037160Y009272D01*
X037253Y009272D02*
X037454Y009272D01*
X037454Y009172D01*
X037420Y009139D01*
X037353Y009139D01*
X037320Y009172D01*
X037320Y009272D01*
X037353Y009581D02*
X037320Y009614D01*
X037320Y009714D01*
X037520Y009714D01*
X037520Y009614D01*
X037487Y009581D01*
X037454Y009581D01*
X037420Y009614D01*
X037420Y009714D01*
X037387Y009802D02*
X037353Y009802D01*
X037320Y009835D01*
X037320Y009902D01*
X037353Y009935D01*
X037420Y009902D02*
X037454Y009935D01*
X037487Y009935D01*
X037520Y009902D01*
X037520Y009835D01*
X037487Y009802D01*
X037420Y009835D02*
X037387Y009802D01*
X037420Y009835D02*
X037420Y009902D01*
X037353Y010023D02*
X037520Y010023D01*
X037353Y010023D02*
X037320Y010056D01*
X037320Y010123D01*
X037353Y010156D01*
X037520Y010156D01*
X037160Y010089D02*
X037094Y010023D01*
X036960Y010023D01*
X036960Y009935D02*
X036960Y009835D01*
X036993Y009802D01*
X037060Y009802D01*
X037094Y009835D01*
X037094Y009935D01*
X036893Y009935D01*
X036800Y009935D02*
X036600Y009935D01*
X036667Y009935D02*
X036734Y009835D01*
X036700Y009751D02*
X036734Y009717D01*
X036734Y009651D01*
X036700Y009617D01*
X036667Y009617D01*
X036667Y009751D01*
X036700Y009751D02*
X036633Y009751D01*
X036600Y009717D01*
X036600Y009651D01*
X036600Y009530D02*
X036734Y009530D01*
X036734Y009430D01*
X036700Y009396D01*
X036600Y009396D01*
X036600Y009309D02*
X036734Y009309D01*
X036734Y009209D01*
X036700Y009175D01*
X036600Y009175D01*
X036633Y009088D02*
X036700Y009088D01*
X036734Y009055D01*
X036734Y008988D01*
X036700Y008954D01*
X036667Y008954D01*
X036667Y009088D01*
X036633Y009088D02*
X036600Y009055D01*
X036600Y008988D01*
X036734Y008867D02*
X036734Y008800D01*
X036767Y008834D02*
X036633Y008834D01*
X036600Y008800D01*
X036600Y008720D02*
X036800Y008720D01*
X036734Y008686D02*
X036734Y008619D01*
X036700Y008586D01*
X036600Y008586D01*
X036600Y008499D02*
X036600Y008432D01*
X036600Y008465D02*
X036800Y008465D01*
X036800Y008499D01*
X036960Y008476D02*
X036960Y008609D01*
X037160Y008609D01*
X036734Y008686D02*
X036700Y008720D01*
X035330Y008826D02*
X035330Y007920D01*
X033440Y007920D01*
X032770Y008590D01*
X032770Y008826D01*
X032889Y009574D02*
X032911Y009638D01*
X032938Y009701D01*
X032968Y009763D01*
X033001Y009822D01*
X033037Y009880D01*
X033077Y009936D01*
X033120Y009989D01*
X033165Y010040D01*
X033213Y010088D01*
X033264Y010133D01*
X033318Y010176D01*
X033374Y010215D01*
X033431Y010252D01*
X033491Y010285D01*
X033553Y010314D01*
X033616Y010340D01*
X033680Y010363D01*
X033746Y010382D01*
X033813Y010397D01*
X033880Y010408D01*
X033948Y010416D01*
X034016Y010420D01*
X034084Y010420D01*
X034152Y010416D01*
X034220Y010408D01*
X034287Y010397D01*
X034354Y010382D01*
X034420Y010363D01*
X034484Y010340D01*
X034547Y010314D01*
X034609Y010285D01*
X034669Y010252D01*
X034726Y010215D01*
X034782Y010176D01*
X034836Y010133D01*
X034887Y010088D01*
X034935Y010040D01*
X034980Y009989D01*
X035023Y009936D01*
X035063Y009880D01*
X035099Y009822D01*
X035132Y009763D01*
X035162Y009701D01*
X035189Y009638D01*
X035211Y009574D01*
X035330Y009574D02*
X035330Y010480D01*
X033440Y010480D01*
X032770Y009810D01*
X032770Y009574D01*
X032889Y008826D02*
X032911Y008762D01*
X032938Y008699D01*
X032968Y008637D01*
X033001Y008578D01*
X033037Y008520D01*
X033077Y008464D01*
X033120Y008411D01*
X033165Y008360D01*
X033213Y008312D01*
X033264Y008267D01*
X033318Y008224D01*
X033374Y008185D01*
X033431Y008148D01*
X033491Y008115D01*
X033553Y008086D01*
X033616Y008060D01*
X033680Y008037D01*
X033746Y008018D01*
X033813Y008003D01*
X033880Y007992D01*
X033948Y007984D01*
X034016Y007980D01*
X034084Y007980D01*
X034152Y007984D01*
X034220Y007992D01*
X034287Y008003D01*
X034354Y008018D01*
X034420Y008037D01*
X034484Y008060D01*
X034547Y008086D01*
X034609Y008115D01*
X034669Y008148D01*
X034726Y008185D01*
X034782Y008224D01*
X034836Y008267D01*
X034887Y008312D01*
X034935Y008360D01*
X034980Y008411D01*
X035023Y008464D01*
X035063Y008520D01*
X035099Y008578D01*
X035132Y008637D01*
X035162Y008699D01*
X035189Y008762D01*
X035211Y008826D01*
X036600Y007950D02*
X036633Y007983D01*
X036700Y007983D01*
X036734Y007950D01*
X036734Y007849D01*
X036734Y007762D02*
X036734Y007662D01*
X036700Y007629D01*
X036633Y007629D01*
X036600Y007662D01*
X036600Y007762D01*
X036533Y007762D02*
X036734Y007762D01*
X036600Y007849D02*
X036600Y007950D01*
X037320Y007983D02*
X037520Y007983D01*
X037454Y007950D02*
X037420Y007983D01*
X037454Y007950D02*
X037454Y007883D01*
X037420Y007849D01*
X037320Y007849D01*
X037353Y007762D02*
X037320Y007729D01*
X037320Y007629D01*
X037454Y007629D01*
X037454Y007541D02*
X037454Y007441D01*
X037420Y007408D01*
X037353Y007408D01*
X037320Y007441D01*
X037320Y007541D01*
X037520Y007541D01*
X037454Y007762D02*
X037353Y007762D01*
X037387Y009581D02*
X037353Y009581D01*
X037387Y009581D02*
X037420Y009614D01*
X037094Y009614D02*
X037060Y009581D01*
X036960Y009581D01*
X036960Y009681D01*
X036993Y009714D01*
X037027Y009681D01*
X037027Y009581D01*
X037094Y009614D02*
X037094Y009681D01*
X036667Y009935D02*
X036600Y009835D01*
X036633Y010023D02*
X036600Y010056D01*
X036600Y010123D01*
X036633Y010156D01*
X036767Y010156D01*
X036800Y010123D01*
X036800Y010056D01*
X036767Y010023D01*
X036700Y010023D01*
X036667Y010056D01*
X036734Y010056D01*
X036734Y010123D01*
X036667Y010123D01*
X036667Y010056D01*
X036960Y010156D02*
X037094Y010156D01*
X037160Y010089D01*
X037060Y010023D02*
X037060Y010156D01*
X033132Y010276D02*
X033025Y010276D01*
X033132Y010383D01*
X033132Y010410D01*
X033105Y010436D01*
X033052Y010436D01*
X033025Y010410D01*
X032894Y010436D02*
X032894Y010276D01*
X032841Y010276D02*
X032947Y010276D01*
X032841Y010383D02*
X032894Y010436D01*
X032763Y010410D02*
X032737Y010436D01*
X032683Y010436D01*
X032657Y010410D01*
X032657Y010303D01*
X032683Y010276D01*
X032737Y010276D01*
X032763Y010303D01*
X030149Y010240D02*
X030042Y010240D01*
X030096Y010240D02*
X030096Y010400D01*
X030042Y010347D01*
X029965Y010240D02*
X029858Y010240D01*
X029912Y010240D02*
X029912Y010400D01*
X029858Y010347D01*
X029781Y010373D02*
X029781Y010320D01*
X029754Y010293D01*
X029674Y010293D01*
X029674Y010240D02*
X029674Y010400D01*
X029754Y010400D01*
X029781Y010373D01*
X029597Y010400D02*
X029543Y010400D01*
X029570Y010400D02*
X029570Y010267D01*
X029543Y010240D01*
X029517Y010240D01*
X029490Y010267D01*
X027730Y010480D02*
X027730Y009574D01*
X027611Y009574D02*
X027589Y009638D01*
X027562Y009701D01*
X027532Y009763D01*
X027499Y009822D01*
X027463Y009880D01*
X027423Y009936D01*
X027380Y009989D01*
X027335Y010040D01*
X027287Y010088D01*
X027236Y010133D01*
X027182Y010176D01*
X027126Y010215D01*
X027069Y010252D01*
X027009Y010285D01*
X026947Y010314D01*
X026884Y010340D01*
X026820Y010363D01*
X026754Y010382D01*
X026687Y010397D01*
X026620Y010408D01*
X026552Y010416D01*
X026484Y010420D01*
X026416Y010420D01*
X026348Y010416D01*
X026280Y010408D01*
X026213Y010397D01*
X026146Y010382D01*
X026080Y010363D01*
X026016Y010340D01*
X025953Y010314D01*
X025891Y010285D01*
X025831Y010252D01*
X025774Y010215D01*
X025718Y010176D01*
X025664Y010133D01*
X025613Y010088D01*
X025565Y010040D01*
X025520Y009989D01*
X025477Y009936D01*
X025437Y009880D01*
X025401Y009822D01*
X025368Y009763D01*
X025338Y009701D01*
X025311Y009638D01*
X025289Y009574D01*
X025170Y009574D02*
X025170Y009810D01*
X025840Y010480D01*
X027730Y010480D01*
X025532Y010410D02*
X025425Y010303D01*
X025452Y010276D01*
X025505Y010276D01*
X025532Y010303D01*
X025532Y010410D01*
X025505Y010436D01*
X025452Y010436D01*
X025425Y010410D01*
X025425Y010303D01*
X025347Y010276D02*
X025241Y010276D01*
X025294Y010276D02*
X025294Y010436D01*
X025241Y010383D01*
X025163Y010410D02*
X025137Y010436D01*
X025083Y010436D01*
X025057Y010410D01*
X025057Y010303D01*
X025083Y010276D01*
X025137Y010276D01*
X025163Y010303D01*
X022549Y010267D02*
X022523Y010240D01*
X022469Y010240D01*
X022442Y010267D01*
X022549Y010373D01*
X022549Y010267D01*
X022549Y010373D02*
X022523Y010400D01*
X022469Y010400D01*
X022442Y010373D01*
X022442Y010267D01*
X022365Y010240D02*
X022258Y010240D01*
X022312Y010240D02*
X022312Y010400D01*
X022258Y010347D01*
X022181Y010373D02*
X022181Y010320D01*
X022154Y010293D01*
X022074Y010293D01*
X022074Y010240D02*
X022074Y010400D01*
X022154Y010400D01*
X022181Y010373D01*
X021997Y010400D02*
X021943Y010400D01*
X021970Y010400D02*
X021970Y010267D01*
X021943Y010240D01*
X021917Y010240D01*
X021890Y010267D01*
X020130Y010480D02*
X020130Y009574D01*
X020011Y009574D02*
X019989Y009638D01*
X019962Y009701D01*
X019932Y009763D01*
X019899Y009822D01*
X019863Y009880D01*
X019823Y009936D01*
X019780Y009989D01*
X019735Y010040D01*
X019687Y010088D01*
X019636Y010133D01*
X019582Y010176D01*
X019526Y010215D01*
X019469Y010252D01*
X019409Y010285D01*
X019347Y010314D01*
X019284Y010340D01*
X019220Y010363D01*
X019154Y010382D01*
X019087Y010397D01*
X019020Y010408D01*
X018952Y010416D01*
X018884Y010420D01*
X018816Y010420D01*
X018748Y010416D01*
X018680Y010408D01*
X018613Y010397D01*
X018546Y010382D01*
X018480Y010363D01*
X018416Y010340D01*
X018353Y010314D01*
X018291Y010285D01*
X018231Y010252D01*
X018174Y010215D01*
X018118Y010176D01*
X018064Y010133D01*
X018013Y010088D01*
X017965Y010040D01*
X017920Y009989D01*
X017877Y009936D01*
X017837Y009880D01*
X017801Y009822D01*
X017768Y009763D01*
X017738Y009701D01*
X017711Y009638D01*
X017689Y009574D01*
X017570Y009574D02*
X017570Y009810D01*
X018240Y010480D01*
X020130Y010480D01*
X017932Y010410D02*
X017932Y010383D01*
X017905Y010356D01*
X017852Y010356D01*
X017825Y010383D01*
X017825Y010410D01*
X017852Y010436D01*
X017905Y010436D01*
X017932Y010410D01*
X017905Y010356D02*
X017932Y010330D01*
X017932Y010303D01*
X017905Y010276D01*
X017852Y010276D01*
X017825Y010303D01*
X017825Y010330D01*
X017852Y010356D01*
X017747Y010303D02*
X017721Y010276D01*
X017667Y010276D01*
X017641Y010303D01*
X017641Y010410D01*
X017667Y010436D01*
X017721Y010436D01*
X017747Y010410D01*
X014965Y010373D02*
X014965Y010267D01*
X014938Y010240D01*
X014885Y010240D01*
X014858Y010267D01*
X014885Y010320D02*
X014965Y010320D01*
X014965Y010373D02*
X014938Y010400D01*
X014885Y010400D01*
X014858Y010373D01*
X014858Y010347D01*
X014885Y010320D01*
X014781Y010320D02*
X014754Y010293D01*
X014674Y010293D01*
X014674Y010240D02*
X014674Y010400D01*
X014754Y010400D01*
X014781Y010373D01*
X014781Y010320D01*
X014597Y010400D02*
X014543Y010400D01*
X014570Y010400D02*
X014570Y010267D01*
X014543Y010240D01*
X014517Y010240D01*
X014490Y010267D01*
X012530Y010480D02*
X012530Y009574D01*
X012411Y009574D02*
X012389Y009638D01*
X012362Y009701D01*
X012332Y009763D01*
X012299Y009822D01*
X012263Y009880D01*
X012223Y009936D01*
X012180Y009989D01*
X012135Y010040D01*
X012087Y010088D01*
X012036Y010133D01*
X011982Y010176D01*
X011926Y010215D01*
X011869Y010252D01*
X011809Y010285D01*
X011747Y010314D01*
X011684Y010340D01*
X011620Y010363D01*
X011554Y010382D01*
X011487Y010397D01*
X011420Y010408D01*
X011352Y010416D01*
X011284Y010420D01*
X011216Y010420D01*
X011148Y010416D01*
X011080Y010408D01*
X011013Y010397D01*
X010946Y010382D01*
X010880Y010363D01*
X010816Y010340D01*
X010753Y010314D01*
X010691Y010285D01*
X010631Y010252D01*
X010574Y010215D01*
X010518Y010176D01*
X010464Y010133D01*
X010413Y010088D01*
X010365Y010040D01*
X010320Y009989D01*
X010277Y009936D01*
X010237Y009880D01*
X010201Y009822D01*
X010168Y009763D01*
X010138Y009701D01*
X010111Y009638D01*
X010089Y009574D01*
X009970Y009574D02*
X009970Y009810D01*
X010640Y010480D01*
X012530Y010480D01*
X010232Y010436D02*
X010178Y010410D01*
X010125Y010356D01*
X010205Y010356D01*
X010232Y010330D01*
X010232Y010303D01*
X010205Y010276D01*
X010152Y010276D01*
X010125Y010303D01*
X010125Y010356D01*
X010047Y010303D02*
X010021Y010276D01*
X009967Y010276D01*
X009941Y010303D01*
X009941Y010410D01*
X009967Y010436D01*
X010021Y010436D01*
X010047Y010410D01*
X007365Y010373D02*
X007365Y010347D01*
X007338Y010320D01*
X007285Y010320D01*
X007258Y010347D01*
X007258Y010373D01*
X007285Y010400D01*
X007338Y010400D01*
X007365Y010373D01*
X007338Y010320D02*
X007365Y010293D01*
X007365Y010267D01*
X007338Y010240D01*
X007285Y010240D01*
X007258Y010267D01*
X007258Y010293D01*
X007285Y010320D01*
X007181Y010320D02*
X007181Y010373D01*
X007154Y010400D01*
X007074Y010400D01*
X007074Y010240D01*
X007074Y010293D02*
X007154Y010293D01*
X007181Y010320D01*
X006997Y010400D02*
X006943Y010400D01*
X006970Y010400D02*
X006970Y010267D01*
X006943Y010240D01*
X006917Y010240D01*
X006890Y010267D01*
X003643Y010363D02*
X003536Y010257D01*
X003536Y010230D01*
X003458Y010310D02*
X003432Y010283D01*
X003352Y010283D01*
X003352Y010230D02*
X003352Y010390D01*
X003432Y010390D01*
X003458Y010363D01*
X003458Y010310D01*
X003536Y010390D02*
X003643Y010390D01*
X003643Y010363D01*
X003274Y010390D02*
X003221Y010390D01*
X003248Y010390D02*
X003248Y010257D01*
X003221Y010230D01*
X003194Y010230D01*
X003168Y010257D01*
X002657Y010033D02*
X002631Y010060D01*
X002577Y010060D01*
X002551Y010033D01*
X002473Y010033D02*
X002473Y009980D01*
X002446Y009953D01*
X002366Y009953D01*
X002366Y009900D02*
X002366Y010060D01*
X002446Y010060D01*
X002473Y010033D01*
X002551Y009900D02*
X002657Y010007D01*
X002657Y010033D01*
X002289Y010060D02*
X002236Y010060D01*
X002262Y010060D02*
X002262Y009927D01*
X002236Y009900D01*
X002209Y009900D01*
X002182Y009927D01*
X002551Y009900D02*
X002657Y009900D01*
X009970Y008826D02*
X009970Y008590D01*
X010640Y007920D01*
X012530Y007920D01*
X012530Y008826D01*
X012411Y008826D02*
X012389Y008762D01*
X012362Y008699D01*
X012332Y008637D01*
X012299Y008578D01*
X012263Y008520D01*
X012223Y008464D01*
X012180Y008411D01*
X012135Y008360D01*
X012087Y008312D01*
X012036Y008267D01*
X011982Y008224D01*
X011926Y008185D01*
X011869Y008148D01*
X011809Y008115D01*
X011747Y008086D01*
X011684Y008060D01*
X011620Y008037D01*
X011554Y008018D01*
X011487Y008003D01*
X011420Y007992D01*
X011352Y007984D01*
X011284Y007980D01*
X011216Y007980D01*
X011148Y007984D01*
X011080Y007992D01*
X011013Y008003D01*
X010946Y008018D01*
X010880Y008037D01*
X010816Y008060D01*
X010753Y008086D01*
X010691Y008115D01*
X010631Y008148D01*
X010574Y008185D01*
X010518Y008224D01*
X010464Y008267D01*
X010413Y008312D01*
X010365Y008360D01*
X010320Y008411D01*
X010277Y008464D01*
X010237Y008520D01*
X010201Y008578D01*
X010168Y008637D01*
X010138Y008699D01*
X010111Y008762D01*
X010089Y008826D01*
X015152Y007930D02*
X015152Y007797D01*
X015178Y007770D01*
X015232Y007770D01*
X015258Y007797D01*
X015258Y007930D01*
X015336Y007903D02*
X015363Y007930D01*
X015416Y007930D01*
X015443Y007903D01*
X015443Y007877D01*
X015336Y007770D01*
X015443Y007770D01*
X017570Y008590D02*
X017570Y008826D01*
X017570Y008590D02*
X018240Y007920D01*
X020130Y007920D01*
X020130Y008826D01*
X020011Y008826D02*
X019989Y008762D01*
X019962Y008699D01*
X019932Y008637D01*
X019899Y008578D01*
X019863Y008520D01*
X019823Y008464D01*
X019780Y008411D01*
X019735Y008360D01*
X019687Y008312D01*
X019636Y008267D01*
X019582Y008224D01*
X019526Y008185D01*
X019469Y008148D01*
X019409Y008115D01*
X019347Y008086D01*
X019284Y008060D01*
X019220Y008037D01*
X019154Y008018D01*
X019087Y008003D01*
X019020Y007992D01*
X018952Y007984D01*
X018884Y007980D01*
X018816Y007980D01*
X018748Y007984D01*
X018680Y007992D01*
X018613Y008003D01*
X018546Y008018D01*
X018480Y008037D01*
X018416Y008060D01*
X018353Y008086D01*
X018291Y008115D01*
X018231Y008148D01*
X018174Y008185D01*
X018118Y008224D01*
X018064Y008267D01*
X018013Y008312D01*
X017965Y008360D01*
X017920Y008411D01*
X017877Y008464D01*
X017837Y008520D01*
X017801Y008578D01*
X017768Y008637D01*
X017738Y008699D01*
X017711Y008762D01*
X017689Y008826D01*
X022752Y007980D02*
X022752Y007847D01*
X022778Y007820D01*
X022832Y007820D01*
X022858Y007847D01*
X022858Y007980D01*
X022936Y007953D02*
X022963Y007980D01*
X023016Y007980D01*
X023043Y007953D01*
X023043Y007927D01*
X023016Y007900D01*
X023043Y007873D01*
X023043Y007847D01*
X023016Y007820D01*
X022963Y007820D01*
X022936Y007847D01*
X022989Y007900D02*
X023016Y007900D01*
X025170Y008590D02*
X025170Y008826D01*
X025170Y008590D02*
X025840Y007920D01*
X027730Y007920D01*
X027730Y008826D01*
X027611Y008826D02*
X027589Y008762D01*
X027562Y008699D01*
X027532Y008637D01*
X027499Y008578D01*
X027463Y008520D01*
X027423Y008464D01*
X027380Y008411D01*
X027335Y008360D01*
X027287Y008312D01*
X027236Y008267D01*
X027182Y008224D01*
X027126Y008185D01*
X027069Y008148D01*
X027009Y008115D01*
X026947Y008086D01*
X026884Y008060D01*
X026820Y008037D01*
X026754Y008018D01*
X026687Y008003D01*
X026620Y007992D01*
X026552Y007984D01*
X026484Y007980D01*
X026416Y007980D01*
X026348Y007984D01*
X026280Y007992D01*
X026213Y008003D01*
X026146Y008018D01*
X026080Y008037D01*
X026016Y008060D01*
X025953Y008086D01*
X025891Y008115D01*
X025831Y008148D01*
X025774Y008185D01*
X025718Y008224D01*
X025664Y008267D01*
X025613Y008312D01*
X025565Y008360D01*
X025520Y008411D01*
X025477Y008464D01*
X025437Y008520D01*
X025401Y008578D01*
X025368Y008637D01*
X025338Y008699D01*
X025311Y008762D01*
X025289Y008826D01*
X030352Y007930D02*
X030352Y007797D01*
X030378Y007770D01*
X030432Y007770D01*
X030458Y007797D01*
X030458Y007930D01*
X030536Y007850D02*
X030616Y007930D01*
X030616Y007770D01*
X030643Y007850D02*
X030536Y007850D01*
X023593Y003680D02*
X023486Y003680D01*
X023486Y003600D01*
X023539Y003627D01*
X023566Y003627D01*
X023593Y003600D01*
X023593Y003547D01*
X023566Y003520D01*
X023513Y003520D01*
X023486Y003547D01*
X023408Y003600D02*
X023382Y003573D01*
X023302Y003573D01*
X023302Y003520D02*
X023302Y003680D01*
X023382Y003680D01*
X023408Y003653D01*
X023408Y003600D01*
X023224Y003680D02*
X023171Y003680D01*
X023198Y003680D02*
X023198Y003547D01*
X023171Y003520D01*
X023144Y003520D01*
X023118Y003547D01*
X016043Y003600D02*
X015936Y003600D01*
X016016Y003680D01*
X016016Y003520D01*
X015858Y003600D02*
X015832Y003573D01*
X015752Y003573D01*
X015752Y003520D02*
X015752Y003680D01*
X015832Y003680D01*
X015858Y003653D01*
X015858Y003600D01*
X015674Y003680D02*
X015621Y003680D01*
X015648Y003680D02*
X015648Y003547D01*
X015621Y003520D01*
X015594Y003520D01*
X015568Y003547D01*
X008443Y003547D02*
X008416Y003520D01*
X008363Y003520D01*
X008336Y003547D01*
X008389Y003600D02*
X008416Y003600D01*
X008443Y003573D01*
X008443Y003547D01*
X008416Y003600D02*
X008443Y003627D01*
X008443Y003653D01*
X008416Y003680D01*
X008363Y003680D01*
X008336Y003653D01*
X008258Y003653D02*
X008258Y003600D01*
X008232Y003573D01*
X008152Y003573D01*
X008152Y003520D02*
X008152Y003680D01*
X008232Y003680D01*
X008258Y003653D01*
X008074Y003680D02*
X008021Y003680D01*
X008048Y003680D02*
X008048Y003547D01*
X008021Y003520D01*
X007994Y003520D01*
X007968Y003547D01*
X001849Y002583D02*
X001823Y002610D01*
X001769Y002610D01*
X001742Y002583D01*
X001849Y002583D02*
X001849Y002557D01*
X001742Y002450D01*
X001849Y002450D01*
X001665Y002450D02*
X001558Y002450D01*
X001612Y002450D02*
X001612Y002610D01*
X001558Y002557D01*
X001481Y002583D02*
X001454Y002610D01*
X001374Y002610D01*
X001374Y002450D01*
X001374Y002503D02*
X001454Y002503D01*
X001481Y002530D01*
X001481Y002583D01*
X001297Y002610D02*
X001243Y002610D01*
X001270Y002610D02*
X001270Y002477D01*
X001243Y002450D01*
X001217Y002450D01*
X001190Y002477D01*
D12*
X001474Y002173D02*
X001531Y002173D01*
X001502Y002173D02*
X001502Y002003D01*
X001474Y002003D02*
X001531Y002003D01*
X001597Y002003D02*
X001597Y002173D01*
X001710Y002003D01*
X001710Y002173D01*
X001781Y002173D02*
X001866Y002173D01*
X001894Y002145D01*
X001894Y002088D01*
X001866Y002060D01*
X001781Y002060D01*
X001781Y002003D02*
X001781Y002173D01*
X001965Y002173D02*
X001965Y002031D01*
X001993Y002003D01*
X002050Y002003D01*
X002078Y002031D01*
X002078Y002173D01*
X002149Y002173D02*
X002263Y002173D01*
X002206Y002173D02*
X002206Y002003D01*
X006865Y004255D02*
X006865Y004312D01*
X006893Y004340D01*
X006950Y004340D02*
X006978Y004284D01*
X006978Y004255D01*
X006950Y004227D01*
X006893Y004227D01*
X006865Y004255D01*
X006950Y004340D02*
X007035Y004340D01*
X007035Y004227D01*
X006865Y004411D02*
X006865Y004525D01*
X006865Y004468D02*
X007035Y004468D01*
X006978Y004525D01*
X007035Y004595D02*
X006865Y004709D01*
X006893Y004780D02*
X006865Y004808D01*
X006865Y004865D01*
X006893Y004893D01*
X006893Y004964D02*
X006865Y004992D01*
X006865Y005049D01*
X006893Y005077D01*
X007007Y004964D01*
X006893Y004964D01*
X006893Y005077D02*
X007007Y005077D01*
X007035Y005049D01*
X007035Y004992D01*
X007007Y004964D01*
X007007Y004893D02*
X007035Y004865D01*
X007035Y004808D01*
X007007Y004780D01*
X006978Y004780D01*
X006950Y004808D01*
X006922Y004780D01*
X006893Y004780D01*
X006950Y004808D02*
X006950Y004836D01*
X006950Y005332D02*
X006922Y005332D01*
X006922Y005445D01*
X006950Y005445D02*
X006978Y005417D01*
X006978Y005360D01*
X006950Y005332D01*
X006865Y005360D02*
X006865Y005417D01*
X006893Y005445D01*
X006950Y005445D01*
X006978Y005514D02*
X006978Y005542D01*
X006922Y005599D01*
X006978Y005599D02*
X006865Y005599D01*
X006893Y005670D02*
X006950Y005670D01*
X006978Y005698D01*
X006978Y005755D01*
X006950Y005783D01*
X006893Y005783D01*
X006865Y005755D01*
X006865Y005698D01*
X006893Y005670D01*
X006893Y005854D02*
X006865Y005882D01*
X006865Y005967D01*
X006808Y005967D02*
X006978Y005967D01*
X006978Y005882D01*
X006950Y005854D01*
X006893Y005854D01*
X006865Y006038D02*
X006865Y006123D01*
X006893Y006151D01*
X006922Y006123D01*
X006922Y006038D01*
X006950Y006038D02*
X006865Y006038D01*
X006950Y006038D02*
X006978Y006066D01*
X006978Y006123D01*
X006978Y006222D02*
X006837Y006222D01*
X006808Y006250D01*
X006808Y006279D01*
X006865Y006307D02*
X006865Y006222D01*
X006865Y006307D02*
X006893Y006336D01*
X006950Y006336D01*
X006978Y006307D01*
X006978Y006222D01*
X006950Y006406D02*
X006865Y006406D01*
X006950Y006406D02*
X006978Y006435D01*
X006978Y006520D01*
X006865Y006520D01*
X006865Y006586D02*
X006865Y006642D01*
X006865Y006614D02*
X006978Y006614D01*
X006978Y006642D01*
X007035Y006614D02*
X007064Y006614D01*
X007007Y006713D02*
X007035Y006742D01*
X007035Y006798D01*
X007007Y006827D01*
X006978Y006827D01*
X006950Y006798D01*
X006950Y006742D01*
X006922Y006713D01*
X006893Y006713D01*
X006865Y006742D01*
X006865Y006798D01*
X006893Y006827D01*
X006865Y007081D02*
X006950Y007081D01*
X006978Y007110D01*
X006978Y007195D01*
X006865Y007195D01*
X006865Y007261D02*
X006865Y007318D01*
X006865Y007289D02*
X006978Y007289D01*
X006978Y007318D01*
X007035Y007289D02*
X007064Y007289D01*
X007035Y007573D02*
X006865Y007573D01*
X006865Y007658D01*
X006893Y007686D01*
X006950Y007686D01*
X006978Y007658D01*
X006978Y007573D01*
X006950Y007757D02*
X006922Y007757D01*
X006922Y007870D01*
X006950Y007870D02*
X006978Y007842D01*
X006978Y007785D01*
X006950Y007757D01*
X006865Y007785D02*
X006865Y007842D01*
X006893Y007870D01*
X006950Y007870D01*
X006950Y007941D02*
X006865Y007941D01*
X006950Y007941D02*
X006978Y007969D01*
X006978Y008054D01*
X006865Y008054D01*
X006865Y008125D02*
X006865Y008210D01*
X006893Y008238D01*
X006950Y008238D01*
X006978Y008210D01*
X006978Y008125D01*
X006837Y008125D01*
X006808Y008153D01*
X006808Y008182D01*
X006865Y008305D02*
X006865Y008361D01*
X006865Y008333D02*
X006978Y008333D01*
X006978Y008361D01*
X007035Y008333D02*
X007064Y008333D01*
X006978Y008432D02*
X006978Y008517D01*
X006950Y008545D01*
X006922Y008517D01*
X006922Y008460D01*
X006893Y008432D01*
X006865Y008460D01*
X006865Y008545D01*
X006922Y008616D02*
X006922Y008730D01*
X006950Y008730D02*
X006978Y008701D01*
X006978Y008644D01*
X006950Y008616D01*
X006922Y008616D01*
X006865Y008644D02*
X006865Y008701D01*
X006893Y008730D01*
X006950Y008730D01*
X006893Y008800D02*
X007007Y008800D01*
X007035Y008829D01*
X007035Y008914D01*
X006865Y008914D01*
X006865Y008829D01*
X006893Y008800D01*
X004535Y009123D02*
X004422Y009123D01*
X004479Y009123D02*
X004479Y008953D01*
X004351Y008981D02*
X004351Y009123D01*
X004238Y009123D02*
X004238Y008981D01*
X004266Y008953D01*
X004323Y008953D01*
X004351Y008981D01*
X004167Y009038D02*
X004167Y009095D01*
X004139Y009123D01*
X004054Y009123D01*
X004054Y008953D01*
X004054Y009010D02*
X004139Y009010D01*
X004167Y009038D01*
X003983Y009123D02*
X003869Y009123D01*
X003926Y009123D02*
X003926Y008953D01*
X003799Y008981D02*
X003799Y009123D01*
X003685Y009123D02*
X003685Y008981D01*
X003714Y008953D01*
X003770Y008953D01*
X003799Y008981D01*
X003615Y008981D02*
X003615Y009095D01*
X003586Y009123D01*
X003529Y009123D01*
X003501Y009095D01*
X003501Y008981D01*
X003529Y008953D01*
X003586Y008953D01*
X003615Y008981D01*
X001763Y006173D02*
X001649Y006173D01*
X001706Y006173D02*
X001706Y006003D01*
X001578Y006031D02*
X001578Y006173D01*
X001465Y006173D02*
X001465Y006031D01*
X001493Y006003D01*
X001550Y006003D01*
X001578Y006031D01*
X001394Y006088D02*
X001366Y006060D01*
X001281Y006060D01*
X001281Y006003D02*
X001281Y006173D01*
X001366Y006173D01*
X001394Y006145D01*
X001394Y006088D01*
X001210Y006003D02*
X001210Y006173D01*
X001097Y006173D02*
X001210Y006003D01*
X001097Y006003D02*
X001097Y006173D01*
X001031Y006173D02*
X000974Y006173D01*
X001002Y006173D02*
X001002Y006003D01*
X000974Y006003D02*
X001031Y006003D01*
D13*
X001557Y005164D02*
X001557Y004937D01*
X001670Y005050D02*
X001443Y005050D01*
X005907Y009787D02*
X005907Y010014D01*
X006020Y009900D02*
X005793Y009900D01*
D14*
X007010Y009800D02*
X007010Y009660D01*
X007103Y009660D01*
X007157Y009660D02*
X007251Y009660D01*
X007204Y009660D02*
X007204Y009800D01*
X007157Y009753D01*
X007103Y009800D02*
X007010Y009800D01*
X007010Y009730D02*
X007057Y009730D01*
X009510Y009730D02*
X009557Y009730D01*
X009603Y009800D02*
X009510Y009800D01*
X009510Y009660D01*
X009657Y009660D02*
X009751Y009660D01*
X009704Y009660D02*
X009704Y009800D01*
X009657Y009753D01*
X014610Y009730D02*
X014657Y009730D01*
X014703Y009660D02*
X014610Y009660D01*
X014610Y009800D01*
X014703Y009800D01*
X014757Y009777D02*
X014781Y009800D01*
X014827Y009800D01*
X014851Y009777D01*
X014851Y009753D01*
X014757Y009660D01*
X014851Y009660D01*
X017110Y009660D02*
X017110Y009800D01*
X017203Y009800D01*
X017257Y009777D02*
X017281Y009800D01*
X017327Y009800D01*
X017351Y009777D01*
X017351Y009753D01*
X017257Y009660D01*
X017351Y009660D01*
X017157Y009730D02*
X017110Y009730D01*
X022210Y009730D02*
X022257Y009730D01*
X022303Y009660D02*
X022210Y009660D01*
X022210Y009800D01*
X022303Y009800D01*
X022357Y009777D02*
X022381Y009800D01*
X022427Y009800D01*
X022451Y009777D01*
X022451Y009753D01*
X022427Y009730D01*
X022451Y009707D01*
X022451Y009683D01*
X022427Y009660D01*
X022381Y009660D01*
X022357Y009683D01*
X022404Y009730D02*
X022427Y009730D01*
X024710Y009730D02*
X024757Y009730D01*
X024803Y009800D02*
X024710Y009800D01*
X024710Y009660D01*
X024857Y009683D02*
X024881Y009660D01*
X024927Y009660D01*
X024951Y009683D01*
X024951Y009707D01*
X024927Y009730D01*
X024904Y009730D01*
X024927Y009730D02*
X024951Y009753D01*
X024951Y009777D01*
X024927Y009800D01*
X024881Y009800D01*
X024857Y009777D01*
X029810Y009800D02*
X029810Y009660D01*
X029903Y009660D01*
X029857Y009730D02*
X029810Y009730D01*
X029810Y009800D02*
X029903Y009800D01*
X029957Y009730D02*
X030051Y009730D01*
X030027Y009660D02*
X030027Y009800D01*
X029957Y009730D01*
X032310Y009730D02*
X032357Y009730D01*
X032403Y009800D02*
X032310Y009800D01*
X032310Y009660D01*
X032457Y009730D02*
X032551Y009730D01*
X032527Y009660D02*
X032527Y009800D01*
X032457Y009730D01*
D15*
X031959Y008165D02*
X031959Y007535D01*
X030841Y007535D02*
X030841Y008165D01*
X034050Y007650D02*
X034050Y006850D01*
X031590Y006060D02*
X036710Y006060D01*
X036735Y006060D02*
X036730Y001060D01*
X035900Y001100D02*
X034650Y001100D01*
X034400Y003600D01*
X033900Y003600D02*
X033650Y001100D01*
X032400Y001100D01*
X032150Y003600D01*
X028500Y003600D02*
X028250Y001100D01*
X027000Y001100D01*
X026750Y003600D01*
X026250Y003600D02*
X026000Y001100D01*
X024750Y001100D01*
X024500Y003600D01*
X020950Y003600D02*
X020700Y001100D01*
X019450Y001100D01*
X019200Y003600D01*
X018700Y003600D02*
X018450Y001100D01*
X017200Y001100D01*
X016950Y003600D01*
X013300Y003600D02*
X013050Y001100D01*
X011800Y001100D01*
X011550Y003600D01*
X011050Y003600D02*
X010800Y001100D01*
X009550Y001100D01*
X009300Y003600D01*
X007350Y002900D02*
X006550Y002900D01*
X008715Y001060D02*
X008710Y001050D01*
X008715Y001060D02*
X008715Y006060D01*
X008740Y006060D02*
X013860Y006060D01*
X013885Y006060D02*
X013880Y001060D01*
X016360Y001050D02*
X016365Y001060D01*
X016365Y006060D01*
X016390Y006060D02*
X021510Y006060D01*
X021535Y006060D02*
X021530Y001060D01*
X023910Y001050D02*
X023915Y001060D01*
X023915Y006060D01*
X023940Y006060D02*
X029060Y006060D01*
X029085Y006060D02*
X029080Y001060D01*
X031560Y001050D02*
X031565Y001060D01*
X031565Y006060D01*
X026350Y006850D02*
X026350Y007650D01*
X024359Y007535D02*
X024359Y008165D01*
X023241Y008165D02*
X023241Y007535D01*
X018750Y007650D02*
X018750Y006850D01*
X016759Y007535D02*
X016759Y008165D01*
X015641Y008165D02*
X015641Y007535D01*
X011150Y007650D02*
X011150Y006850D01*
X009159Y007535D02*
X009159Y008165D01*
X008041Y008165D02*
X008041Y007535D01*
X007831Y007735D02*
X007704Y007735D01*
X007767Y007735D02*
X007767Y007925D01*
X007704Y007862D01*
X007610Y007925D02*
X007610Y007767D01*
X007578Y007735D01*
X007515Y007735D01*
X007483Y007767D01*
X007483Y007925D01*
X036150Y003600D02*
X035900Y001100D01*
D16*
X035184Y006778D02*
X034594Y006778D01*
X035184Y006778D02*
X035184Y007722D01*
X034594Y007722D01*
X033806Y007722D02*
X033373Y007722D01*
X033216Y007565D01*
X033216Y006935D01*
X033373Y006778D01*
X033806Y006778D01*
X027484Y006778D02*
X026894Y006778D01*
X027484Y006778D02*
X027484Y007722D01*
X026894Y007722D01*
X026106Y007722D02*
X025673Y007722D01*
X025516Y007565D01*
X025516Y006935D01*
X025673Y006778D01*
X026106Y006778D01*
X019884Y006778D02*
X019294Y006778D01*
X019884Y006778D02*
X019884Y007722D01*
X019294Y007722D01*
X018506Y007722D02*
X018073Y007722D01*
X017916Y007565D01*
X017916Y006935D01*
X018073Y006778D01*
X018506Y006778D01*
X012284Y006778D02*
X011694Y006778D01*
X012284Y006778D02*
X012284Y007722D01*
X011694Y007722D01*
X010906Y007722D02*
X010473Y007722D01*
X010316Y007565D01*
X010316Y006935D01*
X010473Y006778D01*
X010906Y006778D01*
X005862Y006114D02*
X005862Y005618D01*
X005862Y006114D02*
X005095Y006114D01*
X003205Y006114D02*
X002438Y006114D01*
X002438Y001781D01*
X005862Y001781D01*
X005862Y003768D01*
X006478Y003577D02*
X006478Y003144D01*
X007422Y003144D02*
X007422Y003577D01*
X007265Y003734D01*
X006635Y003734D01*
X006478Y003577D01*
X002050Y003550D02*
X002050Y003050D01*
X001800Y002800D01*
X001300Y002800D01*
X001050Y003050D01*
X001050Y003550D01*
X001300Y003800D01*
X001050Y004050D01*
X001050Y004550D01*
X001300Y004800D01*
X001800Y004800D01*
X002050Y004550D01*
X002050Y004050D01*
X001800Y003800D01*
X002050Y003550D01*
X006478Y002356D02*
X006478Y001766D01*
X007422Y001766D01*
X007422Y002356D01*
X002672Y007061D02*
X002042Y007061D01*
X002672Y007061D02*
X002672Y007534D01*
X002121Y007534D01*
X002121Y009266D01*
X002672Y009266D01*
X002672Y009739D01*
X002042Y009739D01*
X000979Y009739D02*
X000979Y007061D01*
X005419Y008017D02*
X005600Y008017D01*
X005692Y007895D01*
X005781Y008017D02*
X005600Y008017D01*
X005590Y008011D02*
X005514Y007895D01*
X005420Y009380D02*
X004920Y009380D01*
X004670Y009630D01*
X004420Y009380D01*
X003920Y009380D01*
X003670Y009630D01*
X003670Y010130D01*
X003920Y010380D01*
X004420Y010380D01*
X004670Y010130D01*
X004920Y010380D01*
X005420Y010380D01*
X005670Y010130D01*
X005670Y009630D01*
X005420Y009380D01*
X007400Y009650D02*
X007650Y009400D01*
X008150Y009400D01*
X008400Y009650D01*
X008650Y009400D01*
X009150Y009400D01*
X009400Y009650D01*
X009400Y010150D01*
X009150Y010400D01*
X008650Y010400D01*
X008400Y010150D01*
X008150Y010400D01*
X007650Y010400D01*
X007400Y010150D01*
X007400Y009650D01*
X015000Y009650D02*
X015250Y009400D01*
X015750Y009400D01*
X016000Y009650D01*
X016250Y009400D01*
X016750Y009400D01*
X017000Y009650D01*
X017000Y010150D01*
X016750Y010400D01*
X016250Y010400D01*
X016000Y010150D01*
X015750Y010400D01*
X015250Y010400D01*
X015000Y010150D01*
X015000Y009650D01*
X022600Y009650D02*
X022850Y009400D01*
X023350Y009400D01*
X023600Y009650D01*
X023850Y009400D01*
X024350Y009400D01*
X024600Y009650D01*
X024600Y010150D01*
X024350Y010400D01*
X023850Y010400D01*
X023600Y010150D01*
X023350Y010400D01*
X022850Y010400D01*
X022600Y010150D01*
X022600Y009650D01*
X030200Y009650D02*
X030450Y009400D01*
X030950Y009400D01*
X031200Y009650D01*
X031450Y009400D01*
X031950Y009400D01*
X032200Y009650D01*
X032200Y010150D01*
X031950Y010400D01*
X031450Y010400D01*
X031200Y010150D01*
X030950Y010400D01*
X030450Y010400D01*
X030200Y010150D01*
X030200Y009650D01*
D17*
X002030Y001605D02*
X002005Y001630D01*
X002030Y001605D02*
X002055Y001605D01*
X002080Y001630D01*
X002080Y001755D01*
X002055Y001755D02*
X002105Y001755D01*
X002152Y001755D02*
X002227Y001755D01*
X002252Y001730D01*
X002252Y001680D01*
X002227Y001655D01*
X002152Y001655D01*
X002152Y001605D02*
X002152Y001755D01*
X002300Y001705D02*
X002350Y001755D01*
X002350Y001605D01*
X002300Y001605D02*
X002400Y001605D01*
X006067Y002020D02*
X006092Y001995D01*
X006142Y001995D01*
X006167Y002020D01*
X006214Y001995D02*
X006314Y001995D01*
X006264Y001995D02*
X006264Y002145D01*
X006214Y002095D01*
X006167Y002120D02*
X006142Y002145D01*
X006092Y002145D01*
X006067Y002120D01*
X006067Y002020D01*
X007630Y006555D02*
X007680Y006555D01*
X007705Y006580D01*
X007752Y006555D02*
X007852Y006655D01*
X007852Y006680D01*
X007827Y006705D01*
X007777Y006705D01*
X007752Y006680D01*
X007705Y006680D02*
X007680Y006705D01*
X007630Y006705D01*
X007605Y006680D01*
X007605Y006580D01*
X007630Y006555D01*
X007752Y006555D02*
X007852Y006555D01*
X003902Y007505D02*
X003802Y007505D01*
X003852Y007505D02*
X003852Y007655D01*
X003802Y007605D01*
X003755Y007655D02*
X003655Y007655D01*
X003655Y007505D01*
X003655Y007580D02*
X003705Y007580D01*
X004985Y008245D02*
X005060Y008245D01*
X005085Y008270D01*
X005085Y008370D01*
X005060Y008395D01*
X004985Y008395D01*
X004985Y008245D01*
X005133Y008245D02*
X005233Y008245D01*
X005183Y008245D02*
X005183Y008395D01*
X005133Y008345D01*
X005905Y008880D02*
X005905Y009030D01*
X005980Y009030D01*
X006005Y009005D01*
X006005Y008955D01*
X005980Y008930D01*
X005905Y008930D01*
X005955Y008930D02*
X006005Y008880D01*
X006052Y008905D02*
X006077Y008880D01*
X006127Y008880D01*
X006152Y008905D01*
X006152Y008955D01*
X006127Y008980D01*
X006102Y008980D01*
X006052Y008955D01*
X006052Y009030D01*
X006152Y009030D01*
X007510Y009070D02*
X007510Y008920D01*
X007510Y008970D02*
X007585Y008970D01*
X007610Y008995D01*
X007610Y009045D01*
X007585Y009070D01*
X007510Y009070D01*
X007560Y008970D02*
X007610Y008920D01*
X007658Y008920D02*
X007758Y009020D01*
X007758Y009045D01*
X007733Y009070D01*
X007683Y009070D01*
X007658Y009045D01*
X007658Y008920D02*
X007758Y008920D01*
X015110Y008920D02*
X015110Y009070D01*
X015185Y009070D01*
X015210Y009045D01*
X015210Y008995D01*
X015185Y008970D01*
X015110Y008970D01*
X015160Y008970D02*
X015210Y008920D01*
X015258Y008920D02*
X015358Y008920D01*
X015308Y008920D02*
X015308Y009070D01*
X015258Y009020D01*
X022760Y008970D02*
X022835Y008970D01*
X022860Y008995D01*
X022860Y009045D01*
X022835Y009070D01*
X022760Y009070D01*
X022760Y008920D01*
X022810Y008970D02*
X022860Y008920D01*
X022908Y008945D02*
X022933Y008920D01*
X022983Y008920D01*
X023008Y008945D01*
X023008Y008970D01*
X022983Y008995D01*
X022958Y008995D01*
X022983Y008995D02*
X023008Y009020D01*
X023008Y009045D01*
X022983Y009070D01*
X022933Y009070D01*
X022908Y009045D01*
X030310Y009070D02*
X030310Y008920D01*
X030310Y008970D02*
X030385Y008970D01*
X030410Y008995D01*
X030410Y009045D01*
X030385Y009070D01*
X030310Y009070D01*
X030360Y008970D02*
X030410Y008920D01*
X030458Y008995D02*
X030558Y008995D01*
X030533Y008920D02*
X030533Y009070D01*
X030458Y008995D01*
X027408Y006701D02*
X027408Y006551D01*
X027358Y006551D02*
X027458Y006551D01*
X027358Y006651D02*
X027408Y006701D01*
X027260Y006701D02*
X027260Y006551D01*
X027210Y006551D02*
X027310Y006551D01*
X027210Y006651D02*
X027260Y006701D01*
X027163Y006676D02*
X027138Y006701D01*
X027088Y006701D01*
X027063Y006676D01*
X027063Y006576D01*
X027088Y006551D01*
X027138Y006551D01*
X027163Y006576D01*
X030455Y006530D02*
X030480Y006505D01*
X030530Y006505D01*
X030555Y006530D01*
X030602Y006530D02*
X030627Y006505D01*
X030677Y006505D01*
X030702Y006530D01*
X030702Y006580D01*
X030677Y006605D01*
X030652Y006605D01*
X030602Y006580D01*
X030602Y006655D01*
X030702Y006655D01*
X030555Y006630D02*
X030530Y006655D01*
X030480Y006655D01*
X030455Y006630D01*
X030455Y006530D01*
X034763Y006576D02*
X034788Y006551D01*
X034838Y006551D01*
X034863Y006576D01*
X034910Y006551D02*
X035010Y006551D01*
X034960Y006551D02*
X034960Y006701D01*
X034910Y006651D01*
X034863Y006676D02*
X034838Y006701D01*
X034788Y006701D01*
X034763Y006676D01*
X034763Y006576D01*
X035058Y006576D02*
X035083Y006551D01*
X035133Y006551D01*
X035158Y006576D01*
X035158Y006601D01*
X035133Y006626D01*
X035108Y006626D01*
X035133Y006626D02*
X035158Y006651D01*
X035158Y006676D01*
X035133Y006701D01*
X035083Y006701D01*
X035058Y006676D01*
X023102Y006580D02*
X023002Y006580D01*
X023077Y006655D01*
X023077Y006505D01*
X022955Y006530D02*
X022930Y006505D01*
X022880Y006505D01*
X022855Y006530D01*
X022855Y006630D01*
X022880Y006655D01*
X022930Y006655D01*
X022955Y006630D01*
X019858Y006626D02*
X019783Y006626D01*
X019758Y006651D01*
X019758Y006676D01*
X019783Y006701D01*
X019833Y006701D01*
X019858Y006676D01*
X019858Y006576D01*
X019833Y006551D01*
X019783Y006551D01*
X019758Y006576D01*
X019710Y006576D02*
X019685Y006551D01*
X019635Y006551D01*
X019610Y006576D01*
X019610Y006676D01*
X019635Y006701D01*
X019685Y006701D01*
X019710Y006676D01*
X015552Y006630D02*
X015552Y006605D01*
X015527Y006580D01*
X015552Y006555D01*
X015552Y006530D01*
X015527Y006505D01*
X015477Y006505D01*
X015452Y006530D01*
X015405Y006530D02*
X015380Y006505D01*
X015330Y006505D01*
X015305Y006530D01*
X015305Y006630D01*
X015330Y006655D01*
X015380Y006655D01*
X015405Y006630D01*
X015452Y006630D02*
X015477Y006655D01*
X015527Y006655D01*
X015552Y006630D01*
X015527Y006580D02*
X015502Y006580D01*
X012258Y006676D02*
X012158Y006576D01*
X012158Y006551D01*
X012110Y006576D02*
X012085Y006551D01*
X012035Y006551D01*
X012010Y006576D01*
X012010Y006676D01*
X012035Y006701D01*
X012085Y006701D01*
X012110Y006676D01*
X012158Y006701D02*
X012258Y006701D01*
X012258Y006676D01*
D18*
X008600Y008358D02*
X008600Y008362D01*
X016200Y008358D02*
X016200Y008362D01*
X023800Y008358D02*
X023800Y008362D01*
X031400Y008358D02*
X031400Y008362D01*
D19*
X031900Y008110D02*
X030896Y008110D01*
X030896Y007594D01*
X031900Y007594D01*
X031900Y008110D01*
X024300Y008110D02*
X024300Y007594D01*
X023296Y007594D01*
X023296Y008110D01*
X024300Y008110D01*
X016700Y008110D02*
X016700Y007594D01*
X015696Y007594D01*
X015696Y008110D01*
X016700Y008110D01*
X009100Y008110D02*
X009100Y007594D01*
X008096Y007594D01*
X008096Y008110D01*
X009100Y008110D01*
D20*
X008600Y006612D02*
X008600Y006588D01*
X016250Y006612D02*
X016250Y006588D01*
X023800Y006612D02*
X023800Y006588D01*
X031400Y006612D02*
X031400Y006588D01*
D21*
X031150Y009000D03*
X023550Y009000D03*
X015950Y009000D03*
X008350Y009000D03*
X005400Y008950D03*
M02*
