%
M48
M72
T01C0.0236
T02C0.0394
T03C0.0400
T04C0.0910
T05C0.1180
T06C0.1260
%
T01
X9500Y6600
X13000Y7250
X17150Y6600
X20650Y7250
X24700Y6600
X28200Y7250
X32300Y6600
X35850Y7300
T02
X35527Y5760
X34550Y5760
X33750Y5760
X32774Y5760
X27874Y5760
X26897Y5760
X26097Y5760
X25120Y5760
X20130Y5760
X19350Y5760
X18550Y5760
X17770Y5760
X12677Y5760
X11700Y5760
X10900Y5760
X9923Y5760
T03
X1550Y4300
X1550Y3300
X4170Y9880
X5170Y9880
X7900Y9900
X8900Y9900
X15500Y9900
X16500Y9900
X23100Y9900
X24100Y9900
X30700Y9900
X31700Y9900
T04
X31565Y4600
X29085Y4600
X23915Y4600
X21535Y4600
X16365Y4600
X13885Y4600
X8715Y4600
X36735Y4600
T05
X4160Y3081
X5631Y4713
T06
X4150Y5964
M30
