G75*
G70*
%OFA0B0*%
%FSLAX24Y24*%
%IPPOS*%
%LPD*%
%AMOC8*
5,1,8,0,0,1.08239X$1,22.5*
%
%ADD10C,0.1390*%
%ADD11C,0.1740*%
%ADD12C,0.1700*%
%ADD13C,0.0820*%
%ADD14C,0.0640*%
%ADD15C,0.0671*%
D10*
X008715Y004770D03*
X013885Y004770D03*
X015465Y004770D03*
X020635Y004770D03*
X022215Y004770D03*
X027385Y004770D03*
X028965Y004770D03*
X034135Y004770D03*
D11*
X004150Y006134D03*
D12*
X004160Y003251D03*
X005631Y004883D03*
D13*
X001550Y004470D03*
X001550Y003470D03*
X004170Y010050D03*
X005170Y010050D03*
X007900Y010070D03*
X008900Y010070D03*
X014600Y010070D03*
X015600Y010070D03*
X021400Y010070D03*
X022400Y010070D03*
X028100Y010070D03*
X029100Y010070D03*
D14*
X026500Y007420D03*
X029700Y006770D03*
X033250Y007470D03*
X023000Y006770D03*
X019750Y007420D03*
X016250Y006770D03*
X013000Y007420D03*
X009500Y006770D03*
D15*
X010120Y005930D03*
X010900Y005930D03*
X011700Y005930D03*
X012480Y005930D03*
X016870Y005930D03*
X017650Y005930D03*
X018450Y005930D03*
X019230Y005930D03*
X023620Y005930D03*
X024400Y005930D03*
X025200Y005930D03*
X025980Y005930D03*
X030370Y005930D03*
X031150Y005930D03*
X031950Y005930D03*
X032730Y005930D03*
M02*
