G75*
G70*
%OFA0B0*%
%FSLAX24Y24*%
%IPPOS*%
%LPD*%
%AMOC8*
5,1,8,0,0,1.08239X$1,22.5*
%
%ADD10C,0.0110*%
D10*
X016255Y008105D02*
X016255Y008555D01*
X016030Y008555D01*
X015955Y008480D01*
X015955Y008330D01*
X016030Y008255D01*
X016255Y008255D01*
X016471Y008255D02*
X016696Y008255D01*
X016771Y008330D01*
X016696Y008405D01*
X016471Y008405D01*
X016471Y008480D02*
X016471Y008255D01*
X015739Y008330D02*
X015664Y008255D01*
X015514Y008255D01*
X015439Y008330D01*
X015439Y008480D01*
X015514Y008555D01*
X015664Y008555D01*
X015739Y008480D01*
X015739Y008330D01*
X016471Y008480D02*
X016546Y008555D01*
X016696Y008555D01*
X016986Y008555D02*
X017211Y008555D01*
X017286Y008480D01*
X017286Y008330D01*
X017211Y008255D01*
X016986Y008255D01*
X016986Y008180D02*
X016986Y008555D01*
X017502Y008480D02*
X017502Y008255D01*
X017802Y008255D02*
X017802Y008555D01*
X017577Y008555D01*
X017502Y008480D01*
X017996Y008255D02*
X018146Y008255D01*
X018071Y008255D02*
X018071Y008555D01*
X018146Y008555D01*
X018071Y008705D02*
X018071Y008780D01*
X018361Y008630D02*
X018436Y008705D01*
X018586Y008705D01*
X018661Y008630D01*
X018661Y008555D01*
X018586Y008480D01*
X018436Y008480D01*
X018361Y008405D01*
X018361Y008330D01*
X018436Y008255D01*
X018586Y008255D01*
X018661Y008330D01*
X019392Y008255D02*
X019392Y008480D01*
X019468Y008555D01*
X019693Y008555D01*
X019693Y008255D01*
X019886Y008255D02*
X020036Y008255D01*
X019961Y008255D02*
X019961Y008555D01*
X020036Y008555D01*
X019961Y008705D02*
X019961Y008780D01*
X020768Y008705D02*
X020768Y008255D01*
X020993Y008255D01*
X021068Y008330D01*
X021068Y008480D01*
X020993Y008555D01*
X020768Y008555D01*
X021283Y008480D02*
X021283Y008405D01*
X021583Y008405D01*
X021583Y008330D02*
X021583Y008480D01*
X021508Y008555D01*
X021358Y008555D01*
X021283Y008480D01*
X021508Y008255D02*
X021583Y008330D01*
X021508Y008255D02*
X021358Y008255D01*
X021799Y008255D02*
X021799Y008480D01*
X021874Y008555D01*
X022099Y008555D01*
X022099Y008255D01*
X022314Y008255D02*
X022540Y008255D01*
X022615Y008330D01*
X022615Y008480D01*
X022540Y008555D01*
X022314Y008555D01*
X022314Y008180D01*
X022389Y008105D01*
X022465Y008105D01*
X022808Y008255D02*
X022958Y008255D01*
X022883Y008255D02*
X022883Y008555D01*
X022958Y008555D01*
X022883Y008705D02*
X022883Y008780D01*
X023174Y008555D02*
X023399Y008555D01*
X023474Y008480D01*
X023399Y008405D01*
X023249Y008405D01*
X023174Y008330D01*
X023249Y008255D01*
X023474Y008255D01*
X023689Y008405D02*
X023990Y008405D01*
X023990Y008330D02*
X023990Y008480D01*
X023915Y008555D01*
X023765Y008555D01*
X023689Y008480D01*
X023689Y008405D01*
X023765Y008255D02*
X023915Y008255D01*
X023990Y008330D01*
X024205Y008330D02*
X024280Y008255D01*
X024505Y008255D01*
X024505Y008705D01*
X024280Y008705D01*
X024205Y008630D01*
X024205Y008330D01*
X017136Y008105D02*
X017061Y008105D01*
X016986Y008180D01*
X015224Y008255D02*
X015224Y008555D01*
X015224Y008405D02*
X015074Y008555D01*
X014999Y008555D01*
X014794Y008480D02*
X014719Y008555D01*
X014569Y008555D01*
X014494Y008480D01*
X014494Y008405D01*
X014794Y008405D01*
X014794Y008330D02*
X014794Y008480D01*
X014794Y008330D02*
X014719Y008255D01*
X014569Y008255D01*
X013763Y008330D02*
X013688Y008255D01*
X013538Y008255D01*
X013463Y008330D01*
X013463Y008630D01*
X013763Y008330D01*
X013763Y008630D01*
X013688Y008705D01*
X013538Y008705D01*
X013463Y008630D01*
X013247Y008630D02*
X013172Y008705D01*
X013022Y008705D01*
X012947Y008630D01*
X012947Y008555D01*
X013022Y008480D01*
X012947Y008405D01*
X012947Y008330D01*
X013022Y008255D01*
X013172Y008255D01*
X013247Y008330D01*
X013097Y008480D02*
X013022Y008480D01*
X012732Y008255D02*
X012431Y008705D01*
X012216Y008555D02*
X012066Y008705D01*
X012066Y008255D01*
X012216Y008255D02*
X011916Y008255D01*
X011700Y008330D02*
X011625Y008255D01*
X011475Y008255D01*
X011400Y008330D01*
X011400Y008480D01*
X011475Y008555D01*
X011550Y008555D01*
X011700Y008480D01*
X011700Y008705D01*
X011400Y008705D01*
M02*
