G75*
G70*
%OFA0B0*%
%FSLAX24Y24*%
%IPPOS*%
%LPD*%
%AMOC8*
5,1,8,0,0,1.08239X$1,22.5*
%
%ADD10C,0.1390*%
%ADD11R,0.0434X0.1261*%
%ADD12C,0.1740*%
%ADD13C,0.1700*%
%ADD14R,0.0513X0.0474*%
%ADD15R,0.0710X0.0631*%
%ADD16R,0.0352X0.0470*%
%ADD17R,0.0631X0.0218*%
%ADD18R,0.0828X0.0789*%
%ADD19R,0.0828X0.0828*%
%ADD20R,0.0415X0.0434*%
%ADD21R,0.1261X0.0631*%
%ADD22R,0.0631X0.0710*%
%ADD23C,0.0820*%
%ADD24C,0.0142*%
%ADD25C,0.0640*%
%ADD26C,0.0671*%
D10*
X008715Y004600D03*
X013885Y004600D03*
X016365Y004600D03*
X021535Y004600D03*
X023915Y004600D03*
X029085Y004600D03*
X031565Y004600D03*
X036735Y004600D03*
D11*
X035331Y005958D03*
X034544Y005958D03*
X033756Y005958D03*
X032969Y005958D03*
X027681Y005958D03*
X026894Y005958D03*
X026106Y005958D03*
X025319Y005958D03*
X020131Y005958D03*
X019344Y005958D03*
X018556Y005958D03*
X017769Y005958D03*
X012481Y005958D03*
X011694Y005958D03*
X010906Y005958D03*
X010119Y005958D03*
D12*
X004150Y005964D03*
D13*
X005631Y004713D03*
X004160Y003081D03*
D14*
X008265Y006600D03*
X008935Y006600D03*
X004835Y007550D03*
X004165Y007550D03*
X015915Y006600D03*
X016585Y006600D03*
X023465Y006600D03*
X024135Y006600D03*
X031065Y006600D03*
X031735Y006600D03*
D15*
X006950Y002199D03*
X006950Y003301D03*
D16*
X008226Y007338D03*
X008974Y007338D03*
X008974Y008358D03*
X008600Y008358D03*
X008226Y008358D03*
X015826Y008358D03*
X016200Y008358D03*
X016574Y008358D03*
X016574Y007338D03*
X015826Y007338D03*
X023426Y007338D03*
X024174Y007338D03*
X024174Y008358D03*
X023800Y008358D03*
X023426Y008358D03*
X031026Y008358D03*
X031400Y008358D03*
X031774Y008358D03*
X031774Y007338D03*
X031026Y007338D03*
D17*
X002593Y007888D03*
X002593Y008144D03*
X002593Y008400D03*
X002593Y008656D03*
X002593Y008912D03*
D18*
X001550Y009975D03*
X001550Y006825D03*
D19*
X001550Y007900D03*
X001550Y008900D03*
D20*
X005172Y008950D03*
X005628Y008950D03*
X008122Y009000D03*
X008578Y009000D03*
X015722Y009000D03*
X016178Y009000D03*
X023322Y009000D03*
X023778Y009000D03*
X030922Y009000D03*
X031378Y009000D03*
D21*
X033105Y009200D03*
X034995Y009200D03*
X027395Y009200D03*
X025505Y009200D03*
X019795Y009200D03*
X017905Y009200D03*
X012195Y009200D03*
X010305Y009200D03*
D22*
X010749Y007250D03*
X011851Y007250D03*
X018349Y007250D03*
X019451Y007250D03*
X025949Y007250D03*
X027051Y007250D03*
X033649Y007250D03*
X034751Y007250D03*
D23*
X031700Y009900D03*
X030700Y009900D03*
X024100Y009900D03*
X023100Y009900D03*
X016500Y009900D03*
X015500Y009900D03*
X008900Y009900D03*
X007900Y009900D03*
X005170Y009880D03*
X004170Y009880D03*
X001550Y004300D03*
X001550Y003300D03*
D24*
X005434Y007439D02*
X005766Y007439D01*
X005434Y007439D02*
X005434Y007771D01*
X005766Y007771D01*
X005766Y007439D01*
X005766Y007580D02*
X005434Y007580D01*
X005434Y007721D02*
X005766Y007721D01*
X005766Y008129D02*
X005434Y008129D01*
X005434Y008461D01*
X005766Y008461D01*
X005766Y008129D01*
X005766Y008270D02*
X005434Y008270D01*
X005434Y008411D02*
X005766Y008411D01*
D25*
X009500Y006600D03*
X013000Y007250D03*
X017150Y006600D03*
X020650Y007250D03*
X024700Y006600D03*
X028200Y007250D03*
X032300Y006600D03*
X035850Y007300D03*
D26*
X035330Y005760D03*
X034550Y005760D03*
X033750Y005760D03*
X032970Y005760D03*
X027680Y005760D03*
X026900Y005760D03*
X026100Y005760D03*
X025320Y005760D03*
X020130Y005760D03*
X019350Y005760D03*
X018550Y005760D03*
X017770Y005760D03*
X012480Y005760D03*
X011700Y005760D03*
X010900Y005760D03*
X010120Y005760D03*
M02*
