G75*
G70*
%OFA0B0*%
%FSLAX24Y24*%
%IPPOS*%
%LPD*%
%AMOC8*
5,1,8,0,0,1.08239X$1,22.5*
%
%ADD10C,0.0140*%
%ADD11C,0.0040*%
%ADD12C,0.0030*%
%ADD13C,0.0060*%
%ADD14C,0.0020*%
%ADD15C,0.0050*%
%ADD16C,0.0080*%
%ADD17C,0.0010*%
%ADD18C,0.0004*%
%ADD19C,0.0030*%
%ADD20C,0.0220*%
%ADD21R,0.0160X0.0280*%
D10*
X007970Y001170D02*
X008477Y001170D01*
X008224Y001170D02*
X008224Y001931D01*
X007970Y001677D01*
X015420Y001854D02*
X015547Y001981D01*
X015800Y001981D01*
X015927Y001854D01*
X015927Y001727D01*
X015420Y001220D01*
X015927Y001220D01*
X023020Y001347D02*
X023147Y001220D01*
X023400Y001220D01*
X023527Y001347D01*
X023527Y001474D01*
X023400Y001600D01*
X023274Y001600D01*
X023400Y001600D02*
X023527Y001727D01*
X023527Y001854D01*
X023400Y001981D01*
X023147Y001981D01*
X023020Y001854D01*
X030670Y001550D02*
X031177Y001550D01*
X031050Y001170D02*
X031050Y001931D01*
X030670Y001550D01*
X031050Y011020D02*
X031050Y011781D01*
X030670Y011400D01*
X031177Y011400D01*
X023527Y011324D02*
X023527Y011197D01*
X023400Y011070D01*
X023147Y011070D01*
X023020Y011197D01*
X023274Y011450D02*
X023400Y011450D01*
X023527Y011324D01*
X023400Y011450D02*
X023527Y011577D01*
X023527Y011704D01*
X023400Y011831D01*
X023147Y011831D01*
X023020Y011704D01*
X015927Y011704D02*
X015927Y011577D01*
X015420Y011070D01*
X015927Y011070D01*
X015927Y011704D02*
X015800Y011831D01*
X015547Y011831D01*
X015420Y011704D01*
X008477Y011020D02*
X007970Y011020D01*
X008224Y011020D02*
X008224Y011781D01*
X007970Y011527D01*
X007970Y020870D02*
X008477Y020870D01*
X008224Y020870D02*
X008224Y021631D01*
X007970Y021377D01*
X015420Y021554D02*
X015547Y021681D01*
X015800Y021681D01*
X015927Y021554D01*
X015927Y021427D01*
X015420Y020920D01*
X015927Y020920D01*
X023020Y021047D02*
X023147Y020920D01*
X023400Y020920D01*
X023527Y021047D01*
X023527Y021174D01*
X023400Y021300D01*
X023274Y021300D01*
X023400Y021300D02*
X023527Y021427D01*
X023527Y021554D01*
X023400Y021681D01*
X023147Y021681D01*
X023020Y021554D01*
X030670Y021250D02*
X031177Y021250D01*
X031050Y020870D02*
X031050Y021631D01*
X030670Y021250D01*
X031050Y030720D02*
X031050Y031481D01*
X030670Y031100D01*
X031177Y031100D01*
X023527Y031024D02*
X023527Y030897D01*
X023400Y030770D01*
X023147Y030770D01*
X023020Y030897D01*
X023274Y031150D02*
X023400Y031150D01*
X023527Y031024D01*
X023400Y031150D02*
X023527Y031277D01*
X023527Y031404D01*
X023400Y031531D01*
X023147Y031531D01*
X023020Y031404D01*
X015927Y031404D02*
X015800Y031531D01*
X015547Y031531D01*
X015420Y031404D01*
X015927Y031404D02*
X015927Y031277D01*
X015420Y030770D01*
X015927Y030770D01*
X008477Y030720D02*
X007970Y030720D01*
X008224Y030720D02*
X008224Y031481D01*
X007970Y031227D01*
D11*
X007523Y030100D02*
X007469Y030100D01*
X007442Y030073D01*
X007365Y030073D02*
X007365Y030047D01*
X007338Y030020D01*
X007365Y029993D01*
X007365Y029967D01*
X007338Y029940D01*
X007285Y029940D01*
X007258Y029967D01*
X007312Y030020D02*
X007338Y030020D01*
X007365Y030073D02*
X007338Y030100D01*
X007285Y030100D01*
X007258Y030073D01*
X007181Y030073D02*
X007181Y030020D01*
X007154Y029993D01*
X007074Y029993D01*
X007074Y029940D02*
X007074Y030100D01*
X007154Y030100D01*
X007181Y030073D01*
X006997Y030100D02*
X006943Y030100D01*
X006970Y030100D02*
X006970Y029967D01*
X006943Y029940D01*
X006917Y029940D01*
X006890Y029967D01*
X007442Y029940D02*
X007549Y030047D01*
X007549Y030073D01*
X007523Y030100D01*
X007549Y029940D02*
X007442Y029940D01*
X009757Y030003D02*
X009783Y029976D01*
X009837Y029976D01*
X009863Y030003D01*
X009941Y030003D02*
X009967Y029976D01*
X010021Y029976D01*
X010047Y030003D01*
X010047Y030030D01*
X010021Y030056D01*
X009994Y030056D01*
X010021Y030056D02*
X010047Y030083D01*
X010047Y030110D01*
X010021Y030136D01*
X009967Y030136D01*
X009941Y030110D01*
X009863Y030110D02*
X009837Y030136D01*
X009783Y030136D01*
X009757Y030110D01*
X009757Y030003D01*
X010125Y029976D02*
X010232Y030083D01*
X010232Y030110D01*
X010205Y030136D01*
X010152Y030136D01*
X010125Y030110D01*
X010125Y029976D02*
X010232Y029976D01*
X010640Y030180D02*
X009970Y029510D01*
X009970Y029274D01*
X009970Y028526D02*
X009970Y028290D01*
X010640Y027620D01*
X012530Y027620D01*
X012530Y028526D01*
X012530Y029274D02*
X012530Y030180D01*
X010640Y030180D01*
X010089Y028526D02*
X010111Y028462D01*
X010138Y028399D01*
X010168Y028337D01*
X010201Y028278D01*
X010237Y028220D01*
X010277Y028164D01*
X010320Y028111D01*
X010365Y028060D01*
X010413Y028012D01*
X010464Y027967D01*
X010518Y027924D01*
X010574Y027885D01*
X010631Y027848D01*
X010691Y027815D01*
X010753Y027786D01*
X010816Y027760D01*
X010880Y027737D01*
X010946Y027718D01*
X011013Y027703D01*
X011080Y027692D01*
X011148Y027684D01*
X011216Y027680D01*
X011284Y027680D01*
X011352Y027684D01*
X011420Y027692D01*
X011487Y027703D01*
X011554Y027718D01*
X011620Y027737D01*
X011684Y027760D01*
X011747Y027786D01*
X011809Y027815D01*
X011869Y027848D01*
X011926Y027885D01*
X011982Y027924D01*
X012036Y027967D01*
X012087Y028012D01*
X012135Y028060D01*
X012180Y028111D01*
X012223Y028164D01*
X012263Y028220D01*
X012299Y028278D01*
X012332Y028337D01*
X012362Y028399D01*
X012389Y028462D01*
X012411Y028526D01*
X012411Y029274D02*
X012389Y029338D01*
X012362Y029401D01*
X012332Y029463D01*
X012299Y029522D01*
X012263Y029580D01*
X012223Y029636D01*
X012180Y029689D01*
X012135Y029740D01*
X012087Y029788D01*
X012036Y029833D01*
X011982Y029876D01*
X011926Y029915D01*
X011869Y029952D01*
X011809Y029985D01*
X011747Y030014D01*
X011684Y030040D01*
X011620Y030063D01*
X011554Y030082D01*
X011487Y030097D01*
X011420Y030108D01*
X011352Y030116D01*
X011284Y030120D01*
X011216Y030120D01*
X011148Y030116D01*
X011080Y030108D01*
X011013Y030097D01*
X010946Y030082D01*
X010880Y030063D01*
X010816Y030040D01*
X010753Y030014D01*
X010691Y029985D01*
X010631Y029952D01*
X010574Y029915D01*
X010518Y029876D01*
X010464Y029833D01*
X010413Y029788D01*
X010365Y029740D01*
X010320Y029689D01*
X010277Y029636D01*
X010237Y029580D01*
X010201Y029522D01*
X010168Y029463D01*
X010138Y029401D01*
X010111Y029338D01*
X010089Y029274D01*
X008336Y033070D02*
X008336Y033097D01*
X008443Y033203D01*
X008443Y033230D01*
X008336Y033230D01*
X008258Y033203D02*
X008258Y033177D01*
X008232Y033150D01*
X008258Y033123D01*
X008258Y033097D01*
X008232Y033070D01*
X008178Y033070D01*
X008152Y033097D01*
X008205Y033150D02*
X008232Y033150D01*
X008258Y033203D02*
X008232Y033230D01*
X008178Y033230D01*
X008152Y033203D01*
X008074Y033203D02*
X008074Y033150D01*
X008048Y033123D01*
X007968Y033123D01*
X007968Y033070D02*
X007968Y033230D01*
X008048Y033230D01*
X008074Y033203D01*
X007890Y033230D02*
X007837Y033230D01*
X007863Y033230D02*
X007863Y033097D01*
X007837Y033070D01*
X007810Y033070D01*
X007783Y033097D01*
X010640Y037470D02*
X009970Y038140D01*
X009970Y038376D01*
X009970Y039124D02*
X009970Y039360D01*
X010640Y040030D01*
X012530Y040030D01*
X012530Y039124D01*
X012530Y038376D02*
X012530Y037470D01*
X010640Y037470D01*
X010089Y039124D02*
X010111Y039188D01*
X010138Y039251D01*
X010168Y039313D01*
X010201Y039372D01*
X010237Y039430D01*
X010277Y039486D01*
X010320Y039539D01*
X010365Y039590D01*
X010413Y039638D01*
X010464Y039683D01*
X010518Y039726D01*
X010574Y039765D01*
X010631Y039802D01*
X010691Y039835D01*
X010753Y039864D01*
X010816Y039890D01*
X010880Y039913D01*
X010946Y039932D01*
X011013Y039947D01*
X011080Y039958D01*
X011148Y039966D01*
X011216Y039970D01*
X011284Y039970D01*
X011352Y039966D01*
X011420Y039958D01*
X011487Y039947D01*
X011554Y039932D01*
X011620Y039913D01*
X011684Y039890D01*
X011747Y039864D01*
X011809Y039835D01*
X011869Y039802D01*
X011926Y039765D01*
X011982Y039726D01*
X012036Y039683D01*
X012087Y039638D01*
X012135Y039590D01*
X012180Y039539D01*
X012223Y039486D01*
X012263Y039430D01*
X012299Y039372D01*
X012332Y039313D01*
X012362Y039251D01*
X012389Y039188D01*
X012411Y039124D01*
X012411Y038376D02*
X012389Y038312D01*
X012362Y038249D01*
X012332Y038187D01*
X012299Y038128D01*
X012263Y038070D01*
X012223Y038014D01*
X012180Y037961D01*
X012135Y037910D01*
X012087Y037862D01*
X012036Y037817D01*
X011982Y037774D01*
X011926Y037735D01*
X011869Y037698D01*
X011809Y037665D01*
X011747Y037636D01*
X011684Y037610D01*
X011620Y037587D01*
X011554Y037568D01*
X011487Y037553D01*
X011420Y037542D01*
X011352Y037534D01*
X011284Y037530D01*
X011216Y037530D01*
X011148Y037534D01*
X011080Y037542D01*
X011013Y037553D01*
X010946Y037568D01*
X010880Y037587D01*
X010816Y037610D01*
X010753Y037636D01*
X010691Y037665D01*
X010631Y037698D01*
X010574Y037735D01*
X010518Y037774D01*
X010464Y037817D01*
X010413Y037862D01*
X010365Y037910D01*
X010320Y037961D01*
X010277Y038014D01*
X010237Y038070D01*
X010201Y038128D01*
X010168Y038187D01*
X010138Y038249D01*
X010111Y038312D01*
X010089Y038376D01*
X010152Y039826D02*
X010125Y039853D01*
X010152Y039826D02*
X010205Y039826D01*
X010232Y039853D01*
X010232Y039906D01*
X010205Y039933D01*
X010178Y039933D01*
X010125Y039906D01*
X010125Y039986D01*
X010232Y039986D01*
X010047Y039906D02*
X009941Y039906D01*
X010021Y039986D01*
X010021Y039826D01*
X009863Y039853D02*
X009837Y039826D01*
X009783Y039826D01*
X009757Y039853D01*
X009757Y039960D01*
X009783Y039986D01*
X009837Y039986D01*
X009863Y039960D01*
X007549Y039870D02*
X007442Y039870D01*
X007523Y039950D01*
X007523Y039790D01*
X007365Y039870D02*
X007258Y039870D01*
X007338Y039950D01*
X007338Y039790D01*
X007181Y039870D02*
X007154Y039843D01*
X007074Y039843D01*
X007074Y039790D02*
X007074Y039950D01*
X007154Y039950D01*
X007181Y039923D01*
X007181Y039870D01*
X006997Y039950D02*
X006943Y039950D01*
X006970Y039950D02*
X006970Y039817D01*
X006943Y039790D01*
X006917Y039790D01*
X006890Y039817D01*
X003643Y039807D02*
X003616Y039780D01*
X003563Y039780D01*
X003536Y039807D01*
X003589Y039860D02*
X003616Y039860D01*
X003643Y039833D01*
X003643Y039807D01*
X003616Y039860D02*
X003643Y039887D01*
X003643Y039913D01*
X003616Y039940D01*
X003563Y039940D01*
X003536Y039913D01*
X003458Y039860D02*
X003352Y039860D01*
X003432Y039940D01*
X003432Y039780D01*
X003274Y039860D02*
X003248Y039833D01*
X003168Y039833D01*
X003168Y039780D02*
X003168Y039940D01*
X003248Y039940D01*
X003274Y039913D01*
X003274Y039860D01*
X003090Y039940D02*
X003037Y039940D01*
X003063Y039940D02*
X003063Y039807D01*
X003037Y039780D01*
X003010Y039780D01*
X002983Y039807D01*
X002815Y039610D02*
X002761Y039610D01*
X002735Y039583D01*
X002815Y039610D02*
X002841Y039583D01*
X002841Y039557D01*
X002735Y039450D01*
X002841Y039450D01*
X002657Y039530D02*
X002551Y039530D01*
X002631Y039610D01*
X002631Y039450D01*
X002473Y039530D02*
X002446Y039503D01*
X002366Y039503D01*
X002366Y039450D02*
X002366Y039610D01*
X002446Y039610D01*
X002473Y039583D01*
X002473Y039530D01*
X002289Y039610D02*
X002236Y039610D01*
X002262Y039610D02*
X002262Y039477D01*
X002236Y039450D01*
X002209Y039450D01*
X002182Y039477D01*
X001823Y032160D02*
X001849Y032133D01*
X001849Y032107D01*
X001823Y032080D01*
X001769Y032080D01*
X001742Y032107D01*
X001742Y032133D01*
X001769Y032160D01*
X001823Y032160D01*
X001823Y032080D02*
X001849Y032053D01*
X001849Y032027D01*
X001823Y032000D01*
X001769Y032000D01*
X001742Y032027D01*
X001742Y032053D01*
X001769Y032080D01*
X001665Y032080D02*
X001558Y032080D01*
X001638Y032160D01*
X001638Y032000D01*
X001481Y032080D02*
X001454Y032053D01*
X001374Y032053D01*
X001374Y032000D02*
X001374Y032160D01*
X001454Y032160D01*
X001481Y032133D01*
X001481Y032080D01*
X001297Y032160D02*
X001243Y032160D01*
X001270Y032160D02*
X001270Y032027D01*
X001243Y032000D01*
X001217Y032000D01*
X001190Y032027D01*
X003037Y030090D02*
X003090Y030090D01*
X003063Y030090D02*
X003063Y029957D01*
X003037Y029930D01*
X003010Y029930D01*
X002983Y029957D01*
X003168Y029983D02*
X003248Y029983D01*
X003274Y030010D01*
X003274Y030063D01*
X003248Y030090D01*
X003168Y030090D01*
X003168Y029930D01*
X003352Y029957D02*
X003378Y029930D01*
X003432Y029930D01*
X003458Y029957D01*
X003458Y029983D01*
X003432Y030010D01*
X003405Y030010D01*
X003432Y030010D02*
X003458Y030037D01*
X003458Y030063D01*
X003432Y030090D01*
X003378Y030090D01*
X003352Y030063D01*
X003536Y030037D02*
X003589Y030090D01*
X003589Y029930D01*
X003536Y029930D02*
X003643Y029930D01*
X002841Y029733D02*
X002735Y029627D01*
X002761Y029600D01*
X002815Y029600D01*
X002841Y029627D01*
X002841Y029733D01*
X002815Y029760D01*
X002761Y029760D01*
X002735Y029733D01*
X002735Y029627D01*
X002657Y029627D02*
X002631Y029600D01*
X002577Y029600D01*
X002551Y029627D01*
X002604Y029680D02*
X002631Y029680D01*
X002657Y029653D01*
X002657Y029627D01*
X002631Y029680D02*
X002657Y029707D01*
X002657Y029733D01*
X002631Y029760D01*
X002577Y029760D01*
X002551Y029733D01*
X002473Y029733D02*
X002473Y029680D01*
X002446Y029653D01*
X002366Y029653D01*
X002366Y029600D02*
X002366Y029760D01*
X002446Y029760D01*
X002473Y029733D01*
X002289Y029760D02*
X002236Y029760D01*
X002262Y029760D02*
X002262Y029627D01*
X002236Y029600D01*
X002209Y029600D01*
X002182Y029627D01*
X007837Y023380D02*
X007890Y023380D01*
X007863Y023380D02*
X007863Y023247D01*
X007837Y023220D01*
X007810Y023220D01*
X007783Y023247D01*
X007968Y023273D02*
X008048Y023273D01*
X008074Y023300D01*
X008074Y023353D01*
X008048Y023380D01*
X007968Y023380D01*
X007968Y023220D01*
X008152Y023220D02*
X008258Y023327D01*
X008258Y023353D01*
X008232Y023380D01*
X008178Y023380D01*
X008152Y023353D01*
X008152Y023220D02*
X008258Y023220D01*
X008336Y023247D02*
X008363Y023220D01*
X008416Y023220D01*
X008443Y023247D01*
X008443Y023300D01*
X008416Y023327D01*
X008389Y023327D01*
X008336Y023300D01*
X008336Y023380D01*
X008443Y023380D01*
X007523Y020250D02*
X007549Y020223D01*
X007442Y020117D01*
X007469Y020090D01*
X007523Y020090D01*
X007549Y020117D01*
X007549Y020223D01*
X007523Y020250D02*
X007469Y020250D01*
X007442Y020223D01*
X007442Y020117D01*
X007365Y020090D02*
X007258Y020090D01*
X007365Y020197D01*
X007365Y020223D01*
X007338Y020250D01*
X007285Y020250D01*
X007258Y020223D01*
X007181Y020223D02*
X007181Y020170D01*
X007154Y020143D01*
X007074Y020143D01*
X007074Y020090D02*
X007074Y020250D01*
X007154Y020250D01*
X007181Y020223D01*
X006997Y020250D02*
X006943Y020250D01*
X006970Y020250D02*
X006970Y020117D01*
X006943Y020090D01*
X006917Y020090D01*
X006890Y020117D01*
X009757Y020153D02*
X009783Y020126D01*
X009837Y020126D01*
X009863Y020153D01*
X009941Y020126D02*
X010047Y020126D01*
X009994Y020126D02*
X009994Y020286D01*
X009941Y020233D01*
X009863Y020260D02*
X009837Y020286D01*
X009783Y020286D01*
X009757Y020260D01*
X009757Y020153D01*
X010125Y020153D02*
X010152Y020126D01*
X010205Y020126D01*
X010232Y020153D01*
X010232Y020260D01*
X010205Y020286D01*
X010152Y020286D01*
X010125Y020260D01*
X010125Y020233D01*
X010152Y020206D01*
X010232Y020206D01*
X010640Y020330D02*
X012530Y020330D01*
X012530Y019424D01*
X012530Y018676D02*
X012530Y017770D01*
X010640Y017770D01*
X009970Y018440D01*
X009970Y018676D01*
X009970Y019424D02*
X009970Y019660D01*
X010640Y020330D01*
X010089Y018676D02*
X010111Y018612D01*
X010138Y018549D01*
X010168Y018487D01*
X010201Y018428D01*
X010237Y018370D01*
X010277Y018314D01*
X010320Y018261D01*
X010365Y018210D01*
X010413Y018162D01*
X010464Y018117D01*
X010518Y018074D01*
X010574Y018035D01*
X010631Y017998D01*
X010691Y017965D01*
X010753Y017936D01*
X010816Y017910D01*
X010880Y017887D01*
X010946Y017868D01*
X011013Y017853D01*
X011080Y017842D01*
X011148Y017834D01*
X011216Y017830D01*
X011284Y017830D01*
X011352Y017834D01*
X011420Y017842D01*
X011487Y017853D01*
X011554Y017868D01*
X011620Y017887D01*
X011684Y017910D01*
X011747Y017936D01*
X011809Y017965D01*
X011869Y017998D01*
X011926Y018035D01*
X011982Y018074D01*
X012036Y018117D01*
X012087Y018162D01*
X012135Y018210D01*
X012180Y018261D01*
X012223Y018314D01*
X012263Y018370D01*
X012299Y018428D01*
X012332Y018487D01*
X012362Y018549D01*
X012389Y018612D01*
X012411Y018676D01*
X012411Y019424D02*
X012389Y019488D01*
X012362Y019551D01*
X012332Y019613D01*
X012299Y019672D01*
X012263Y019730D01*
X012223Y019786D01*
X012180Y019839D01*
X012135Y019890D01*
X012087Y019938D01*
X012036Y019983D01*
X011982Y020026D01*
X011926Y020065D01*
X011869Y020102D01*
X011809Y020135D01*
X011747Y020164D01*
X011684Y020190D01*
X011620Y020213D01*
X011554Y020232D01*
X011487Y020247D01*
X011420Y020258D01*
X011352Y020266D01*
X011284Y020270D01*
X011216Y020270D01*
X011148Y020266D01*
X011080Y020258D01*
X011013Y020247D01*
X010946Y020232D01*
X010880Y020213D01*
X010816Y020190D01*
X010753Y020164D01*
X010691Y020135D01*
X010631Y020102D01*
X010574Y020065D01*
X010518Y020026D01*
X010464Y019983D01*
X010413Y019938D01*
X010365Y019890D01*
X010320Y019839D01*
X010277Y019786D01*
X010237Y019730D01*
X010201Y019672D01*
X010168Y019613D01*
X010138Y019551D01*
X010111Y019488D01*
X010089Y019424D01*
X014490Y020117D02*
X014517Y020090D01*
X014543Y020090D01*
X014570Y020117D01*
X014570Y020250D01*
X014543Y020250D02*
X014597Y020250D01*
X014674Y020250D02*
X014754Y020250D01*
X014781Y020223D01*
X014781Y020170D01*
X014754Y020143D01*
X014674Y020143D01*
X014674Y020090D02*
X014674Y020250D01*
X014858Y020223D02*
X014885Y020250D01*
X014938Y020250D01*
X014965Y020223D01*
X014965Y020197D01*
X014858Y020090D01*
X014965Y020090D01*
X015042Y020090D02*
X015149Y020090D01*
X015096Y020090D02*
X015096Y020250D01*
X015042Y020197D01*
X017457Y020153D02*
X017483Y020126D01*
X017537Y020126D01*
X017563Y020153D01*
X017641Y020126D02*
X017747Y020233D01*
X017747Y020260D01*
X017721Y020286D01*
X017667Y020286D01*
X017641Y020260D01*
X017563Y020260D02*
X017537Y020286D01*
X017483Y020286D01*
X017457Y020260D01*
X017457Y020153D01*
X017641Y020126D02*
X017747Y020126D01*
X017825Y020126D02*
X017932Y020126D01*
X017878Y020126D02*
X017878Y020286D01*
X017825Y020233D01*
X018240Y020330D02*
X020130Y020330D01*
X020130Y019424D01*
X020130Y018676D02*
X020130Y017770D01*
X018240Y017770D01*
X017570Y018440D01*
X017570Y018676D01*
X017570Y019424D02*
X017570Y019660D01*
X018240Y020330D01*
X017689Y018676D02*
X017711Y018612D01*
X017738Y018549D01*
X017768Y018487D01*
X017801Y018428D01*
X017837Y018370D01*
X017877Y018314D01*
X017920Y018261D01*
X017965Y018210D01*
X018013Y018162D01*
X018064Y018117D01*
X018118Y018074D01*
X018174Y018035D01*
X018231Y017998D01*
X018291Y017965D01*
X018353Y017936D01*
X018416Y017910D01*
X018480Y017887D01*
X018546Y017868D01*
X018613Y017853D01*
X018680Y017842D01*
X018748Y017834D01*
X018816Y017830D01*
X018884Y017830D01*
X018952Y017834D01*
X019020Y017842D01*
X019087Y017853D01*
X019154Y017868D01*
X019220Y017887D01*
X019284Y017910D01*
X019347Y017936D01*
X019409Y017965D01*
X019469Y017998D01*
X019526Y018035D01*
X019582Y018074D01*
X019636Y018117D01*
X019687Y018162D01*
X019735Y018210D01*
X019780Y018261D01*
X019823Y018314D01*
X019863Y018370D01*
X019899Y018428D01*
X019932Y018487D01*
X019962Y018549D01*
X019989Y018612D01*
X020011Y018676D01*
X020011Y019424D02*
X019989Y019488D01*
X019962Y019551D01*
X019932Y019613D01*
X019899Y019672D01*
X019863Y019730D01*
X019823Y019786D01*
X019780Y019839D01*
X019735Y019890D01*
X019687Y019938D01*
X019636Y019983D01*
X019582Y020026D01*
X019526Y020065D01*
X019469Y020102D01*
X019409Y020135D01*
X019347Y020164D01*
X019284Y020190D01*
X019220Y020213D01*
X019154Y020232D01*
X019087Y020247D01*
X019020Y020258D01*
X018952Y020266D01*
X018884Y020270D01*
X018816Y020270D01*
X018748Y020266D01*
X018680Y020258D01*
X018613Y020247D01*
X018546Y020232D01*
X018480Y020213D01*
X018416Y020190D01*
X018353Y020164D01*
X018291Y020135D01*
X018231Y020102D01*
X018174Y020065D01*
X018118Y020026D01*
X018064Y019983D01*
X018013Y019938D01*
X017965Y019890D01*
X017920Y019839D01*
X017877Y019786D01*
X017837Y019730D01*
X017801Y019672D01*
X017768Y019613D01*
X017738Y019551D01*
X017711Y019488D01*
X017689Y019424D01*
X015443Y017780D02*
X015389Y017753D01*
X015336Y017700D01*
X015416Y017700D01*
X015443Y017673D01*
X015443Y017647D01*
X015416Y017620D01*
X015363Y017620D01*
X015336Y017647D01*
X015336Y017700D01*
X015258Y017647D02*
X015258Y017780D01*
X015152Y017780D02*
X015152Y017647D01*
X015178Y017620D01*
X015232Y017620D01*
X015258Y017647D01*
X015437Y013530D02*
X015490Y013530D01*
X015463Y013530D02*
X015463Y013397D01*
X015437Y013370D01*
X015410Y013370D01*
X015383Y013397D01*
X015568Y013423D02*
X015648Y013423D01*
X015674Y013450D01*
X015674Y013503D01*
X015648Y013530D01*
X015568Y013530D01*
X015568Y013370D01*
X015752Y013370D02*
X015858Y013370D01*
X015805Y013370D02*
X015805Y013530D01*
X015752Y013477D01*
X015936Y013450D02*
X015989Y013477D01*
X016016Y013477D01*
X016043Y013450D01*
X016043Y013397D01*
X016016Y013370D01*
X015963Y013370D01*
X015936Y013397D01*
X015936Y013450D02*
X015936Y013530D01*
X016043Y013530D01*
X014938Y010400D02*
X014885Y010400D01*
X014858Y010373D01*
X014858Y010347D01*
X014885Y010320D01*
X014965Y010320D01*
X014965Y010267D02*
X014965Y010373D01*
X014938Y010400D01*
X014965Y010267D02*
X014938Y010240D01*
X014885Y010240D01*
X014858Y010267D01*
X014781Y010320D02*
X014754Y010293D01*
X014674Y010293D01*
X014674Y010240D02*
X014674Y010400D01*
X014754Y010400D01*
X014781Y010373D01*
X014781Y010320D01*
X014597Y010400D02*
X014543Y010400D01*
X014570Y010400D02*
X014570Y010267D01*
X014543Y010240D01*
X014517Y010240D01*
X014490Y010267D01*
X012530Y010480D02*
X012530Y009574D01*
X012530Y008826D02*
X012530Y007920D01*
X010640Y007920D01*
X009970Y008590D01*
X009970Y008826D01*
X009970Y009574D02*
X009970Y009810D01*
X010640Y010480D01*
X012530Y010480D01*
X012411Y009574D02*
X012389Y009638D01*
X012362Y009701D01*
X012332Y009763D01*
X012299Y009822D01*
X012263Y009880D01*
X012223Y009936D01*
X012180Y009989D01*
X012135Y010040D01*
X012087Y010088D01*
X012036Y010133D01*
X011982Y010176D01*
X011926Y010215D01*
X011869Y010252D01*
X011809Y010285D01*
X011747Y010314D01*
X011684Y010340D01*
X011620Y010363D01*
X011554Y010382D01*
X011487Y010397D01*
X011420Y010408D01*
X011352Y010416D01*
X011284Y010420D01*
X011216Y010420D01*
X011148Y010416D01*
X011080Y010408D01*
X011013Y010397D01*
X010946Y010382D01*
X010880Y010363D01*
X010816Y010340D01*
X010753Y010314D01*
X010691Y010285D01*
X010631Y010252D01*
X010574Y010215D01*
X010518Y010176D01*
X010464Y010133D01*
X010413Y010088D01*
X010365Y010040D01*
X010320Y009989D01*
X010277Y009936D01*
X010237Y009880D01*
X010201Y009822D01*
X010168Y009763D01*
X010138Y009701D01*
X010111Y009638D01*
X010089Y009574D01*
X010152Y010276D02*
X010205Y010276D01*
X010232Y010303D01*
X010232Y010330D01*
X010205Y010356D01*
X010125Y010356D01*
X010125Y010303D01*
X010152Y010276D01*
X010125Y010356D02*
X010178Y010410D01*
X010232Y010436D01*
X010047Y010410D02*
X010021Y010436D01*
X009967Y010436D01*
X009941Y010410D01*
X009941Y010303D01*
X009967Y010276D01*
X010021Y010276D01*
X010047Y010303D01*
X010089Y008826D02*
X010111Y008762D01*
X010138Y008699D01*
X010168Y008637D01*
X010201Y008578D01*
X010237Y008520D01*
X010277Y008464D01*
X010320Y008411D01*
X010365Y008360D01*
X010413Y008312D01*
X010464Y008267D01*
X010518Y008224D01*
X010574Y008185D01*
X010631Y008148D01*
X010691Y008115D01*
X010753Y008086D01*
X010816Y008060D01*
X010880Y008037D01*
X010946Y008018D01*
X011013Y008003D01*
X011080Y007992D01*
X011148Y007984D01*
X011216Y007980D01*
X011284Y007980D01*
X011352Y007984D01*
X011420Y007992D01*
X011487Y008003D01*
X011554Y008018D01*
X011620Y008037D01*
X011684Y008060D01*
X011747Y008086D01*
X011809Y008115D01*
X011869Y008148D01*
X011926Y008185D01*
X011982Y008224D01*
X012036Y008267D01*
X012087Y008312D01*
X012135Y008360D01*
X012180Y008411D01*
X012223Y008464D01*
X012263Y008520D01*
X012299Y008578D01*
X012332Y008637D01*
X012362Y008699D01*
X012389Y008762D01*
X012411Y008826D01*
X015152Y007930D02*
X015152Y007797D01*
X015178Y007770D01*
X015232Y007770D01*
X015258Y007797D01*
X015258Y007930D01*
X015336Y007903D02*
X015363Y007930D01*
X015416Y007930D01*
X015443Y007903D01*
X015443Y007877D01*
X015336Y007770D01*
X015443Y007770D01*
X017570Y008590D02*
X017570Y008826D01*
X017570Y008590D02*
X018240Y007920D01*
X020130Y007920D01*
X020130Y008826D01*
X020130Y009574D02*
X020130Y010480D01*
X018240Y010480D01*
X017570Y009810D01*
X017570Y009574D01*
X017667Y010276D02*
X017721Y010276D01*
X017747Y010303D01*
X017825Y010303D02*
X017825Y010330D01*
X017852Y010356D01*
X017905Y010356D01*
X017932Y010330D01*
X017932Y010303D01*
X017905Y010276D01*
X017852Y010276D01*
X017825Y010303D01*
X017852Y010356D02*
X017825Y010383D01*
X017825Y010410D01*
X017852Y010436D01*
X017905Y010436D01*
X017932Y010410D01*
X017932Y010383D01*
X017905Y010356D01*
X017747Y010410D02*
X017721Y010436D01*
X017667Y010436D01*
X017641Y010410D01*
X017641Y010303D01*
X017667Y010276D01*
X017689Y008826D02*
X017711Y008762D01*
X017738Y008699D01*
X017768Y008637D01*
X017801Y008578D01*
X017837Y008520D01*
X017877Y008464D01*
X017920Y008411D01*
X017965Y008360D01*
X018013Y008312D01*
X018064Y008267D01*
X018118Y008224D01*
X018174Y008185D01*
X018231Y008148D01*
X018291Y008115D01*
X018353Y008086D01*
X018416Y008060D01*
X018480Y008037D01*
X018546Y008018D01*
X018613Y008003D01*
X018680Y007992D01*
X018748Y007984D01*
X018816Y007980D01*
X018884Y007980D01*
X018952Y007984D01*
X019020Y007992D01*
X019087Y008003D01*
X019154Y008018D01*
X019220Y008037D01*
X019284Y008060D01*
X019347Y008086D01*
X019409Y008115D01*
X019469Y008148D01*
X019526Y008185D01*
X019582Y008224D01*
X019636Y008267D01*
X019687Y008312D01*
X019735Y008360D01*
X019780Y008411D01*
X019823Y008464D01*
X019863Y008520D01*
X019899Y008578D01*
X019932Y008637D01*
X019962Y008699D01*
X019989Y008762D01*
X020011Y008826D01*
X020011Y009574D02*
X019989Y009638D01*
X019962Y009701D01*
X019932Y009763D01*
X019899Y009822D01*
X019863Y009880D01*
X019823Y009936D01*
X019780Y009989D01*
X019735Y010040D01*
X019687Y010088D01*
X019636Y010133D01*
X019582Y010176D01*
X019526Y010215D01*
X019469Y010252D01*
X019409Y010285D01*
X019347Y010314D01*
X019284Y010340D01*
X019220Y010363D01*
X019154Y010382D01*
X019087Y010397D01*
X019020Y010408D01*
X018952Y010416D01*
X018884Y010420D01*
X018816Y010420D01*
X018748Y010416D01*
X018680Y010408D01*
X018613Y010397D01*
X018546Y010382D01*
X018480Y010363D01*
X018416Y010340D01*
X018353Y010314D01*
X018291Y010285D01*
X018231Y010252D01*
X018174Y010215D01*
X018118Y010176D01*
X018064Y010133D01*
X018013Y010088D01*
X017965Y010040D01*
X017920Y009989D01*
X017877Y009936D01*
X017837Y009880D01*
X017801Y009822D01*
X017768Y009763D01*
X017738Y009701D01*
X017711Y009638D01*
X017689Y009574D01*
X021890Y010267D02*
X021917Y010240D01*
X021943Y010240D01*
X021970Y010267D01*
X021970Y010400D01*
X021943Y010400D02*
X021997Y010400D01*
X022074Y010400D02*
X022154Y010400D01*
X022181Y010373D01*
X022181Y010320D01*
X022154Y010293D01*
X022074Y010293D01*
X022074Y010240D02*
X022074Y010400D01*
X022258Y010347D02*
X022312Y010400D01*
X022312Y010240D01*
X022365Y010240D02*
X022258Y010240D01*
X022442Y010267D02*
X022549Y010373D01*
X022549Y010267D01*
X022523Y010240D01*
X022469Y010240D01*
X022442Y010267D01*
X022442Y010373D01*
X022469Y010400D01*
X022523Y010400D01*
X022549Y010373D01*
X022752Y007980D02*
X022752Y007847D01*
X022778Y007820D01*
X022832Y007820D01*
X022858Y007847D01*
X022858Y007980D01*
X022936Y007953D02*
X022963Y007980D01*
X023016Y007980D01*
X023043Y007953D01*
X023043Y007927D01*
X023016Y007900D01*
X023043Y007873D01*
X023043Y007847D01*
X023016Y007820D01*
X022963Y007820D01*
X022936Y007847D01*
X022989Y007900D02*
X023016Y007900D01*
X025170Y008590D02*
X025170Y008826D01*
X025170Y008590D02*
X025840Y007920D01*
X027730Y007920D01*
X027730Y008826D01*
X027730Y009574D02*
X027730Y010480D01*
X025840Y010480D01*
X025170Y009810D01*
X025170Y009574D01*
X025137Y010276D02*
X025163Y010303D01*
X025137Y010276D02*
X025083Y010276D01*
X025057Y010303D01*
X025057Y010410D01*
X025083Y010436D01*
X025137Y010436D01*
X025163Y010410D01*
X025241Y010383D02*
X025294Y010436D01*
X025294Y010276D01*
X025241Y010276D02*
X025347Y010276D01*
X025425Y010303D02*
X025532Y010410D01*
X025532Y010303D01*
X025505Y010276D01*
X025452Y010276D01*
X025425Y010303D01*
X025425Y010410D01*
X025452Y010436D01*
X025505Y010436D01*
X025532Y010410D01*
X025289Y008826D02*
X025311Y008762D01*
X025338Y008699D01*
X025368Y008637D01*
X025401Y008578D01*
X025437Y008520D01*
X025477Y008464D01*
X025520Y008411D01*
X025565Y008360D01*
X025613Y008312D01*
X025664Y008267D01*
X025718Y008224D01*
X025774Y008185D01*
X025831Y008148D01*
X025891Y008115D01*
X025953Y008086D01*
X026016Y008060D01*
X026080Y008037D01*
X026146Y008018D01*
X026213Y008003D01*
X026280Y007992D01*
X026348Y007984D01*
X026416Y007980D01*
X026484Y007980D01*
X026552Y007984D01*
X026620Y007992D01*
X026687Y008003D01*
X026754Y008018D01*
X026820Y008037D01*
X026884Y008060D01*
X026947Y008086D01*
X027009Y008115D01*
X027069Y008148D01*
X027126Y008185D01*
X027182Y008224D01*
X027236Y008267D01*
X027287Y008312D01*
X027335Y008360D01*
X027380Y008411D01*
X027423Y008464D01*
X027463Y008520D01*
X027499Y008578D01*
X027532Y008637D01*
X027562Y008699D01*
X027589Y008762D01*
X027611Y008826D01*
X027611Y009574D02*
X027589Y009638D01*
X027562Y009701D01*
X027532Y009763D01*
X027499Y009822D01*
X027463Y009880D01*
X027423Y009936D01*
X027380Y009989D01*
X027335Y010040D01*
X027287Y010088D01*
X027236Y010133D01*
X027182Y010176D01*
X027126Y010215D01*
X027069Y010252D01*
X027009Y010285D01*
X026947Y010314D01*
X026884Y010340D01*
X026820Y010363D01*
X026754Y010382D01*
X026687Y010397D01*
X026620Y010408D01*
X026552Y010416D01*
X026484Y010420D01*
X026416Y010420D01*
X026348Y010416D01*
X026280Y010408D01*
X026213Y010397D01*
X026146Y010382D01*
X026080Y010363D01*
X026016Y010340D01*
X025953Y010314D01*
X025891Y010285D01*
X025831Y010252D01*
X025774Y010215D01*
X025718Y010176D01*
X025664Y010133D01*
X025613Y010088D01*
X025565Y010040D01*
X025520Y009989D01*
X025477Y009936D01*
X025437Y009880D01*
X025401Y009822D01*
X025368Y009763D01*
X025338Y009701D01*
X025311Y009638D01*
X025289Y009574D01*
X023566Y013370D02*
X023593Y013397D01*
X023593Y013423D01*
X023566Y013450D01*
X023486Y013450D01*
X023486Y013397D01*
X023513Y013370D01*
X023566Y013370D01*
X023486Y013450D02*
X023539Y013503D01*
X023593Y013530D01*
X023355Y013530D02*
X023355Y013370D01*
X023302Y013370D02*
X023408Y013370D01*
X023302Y013477D02*
X023355Y013530D01*
X023224Y013503D02*
X023224Y013450D01*
X023198Y013423D01*
X023118Y013423D01*
X023118Y013370D02*
X023118Y013530D01*
X023198Y013530D01*
X023224Y013503D01*
X023040Y013530D02*
X022987Y013530D01*
X023013Y013530D02*
X023013Y013397D01*
X022987Y013370D01*
X022960Y013370D01*
X022933Y013397D01*
X022936Y017670D02*
X022936Y017697D01*
X023043Y017803D01*
X023043Y017830D01*
X022936Y017830D01*
X022858Y017830D02*
X022858Y017697D01*
X022832Y017670D01*
X022778Y017670D01*
X022752Y017697D01*
X022752Y017830D01*
X022549Y020090D02*
X022442Y020090D01*
X022549Y020197D01*
X022549Y020223D01*
X022523Y020250D01*
X022469Y020250D01*
X022442Y020223D01*
X022365Y020223D02*
X022338Y020250D01*
X022285Y020250D01*
X022258Y020223D01*
X022181Y020223D02*
X022181Y020170D01*
X022154Y020143D01*
X022074Y020143D01*
X022074Y020090D02*
X022074Y020250D01*
X022154Y020250D01*
X022181Y020223D01*
X022258Y020090D02*
X022365Y020197D01*
X022365Y020223D01*
X022365Y020090D02*
X022258Y020090D01*
X021970Y020117D02*
X021970Y020250D01*
X021943Y020250D02*
X021997Y020250D01*
X021970Y020117D02*
X021943Y020090D01*
X021917Y020090D01*
X021890Y020117D01*
X025057Y020153D02*
X025083Y020126D01*
X025137Y020126D01*
X025163Y020153D01*
X025241Y020126D02*
X025347Y020233D01*
X025347Y020260D01*
X025321Y020286D01*
X025267Y020286D01*
X025241Y020260D01*
X025163Y020260D02*
X025137Y020286D01*
X025083Y020286D01*
X025057Y020260D01*
X025057Y020153D01*
X025241Y020126D02*
X025347Y020126D01*
X025425Y020153D02*
X025452Y020126D01*
X025505Y020126D01*
X025532Y020153D01*
X025532Y020180D01*
X025505Y020206D01*
X025478Y020206D01*
X025505Y020206D02*
X025532Y020233D01*
X025532Y020260D01*
X025505Y020286D01*
X025452Y020286D01*
X025425Y020260D01*
X025840Y020330D02*
X027730Y020330D01*
X027730Y019424D01*
X027730Y018676D02*
X027730Y017770D01*
X025840Y017770D01*
X025170Y018440D01*
X025170Y018676D01*
X025170Y019424D02*
X025170Y019660D01*
X025840Y020330D01*
X025289Y018676D02*
X025311Y018612D01*
X025338Y018549D01*
X025368Y018487D01*
X025401Y018428D01*
X025437Y018370D01*
X025477Y018314D01*
X025520Y018261D01*
X025565Y018210D01*
X025613Y018162D01*
X025664Y018117D01*
X025718Y018074D01*
X025774Y018035D01*
X025831Y017998D01*
X025891Y017965D01*
X025953Y017936D01*
X026016Y017910D01*
X026080Y017887D01*
X026146Y017868D01*
X026213Y017853D01*
X026280Y017842D01*
X026348Y017834D01*
X026416Y017830D01*
X026484Y017830D01*
X026552Y017834D01*
X026620Y017842D01*
X026687Y017853D01*
X026754Y017868D01*
X026820Y017887D01*
X026884Y017910D01*
X026947Y017936D01*
X027009Y017965D01*
X027069Y017998D01*
X027126Y018035D01*
X027182Y018074D01*
X027236Y018117D01*
X027287Y018162D01*
X027335Y018210D01*
X027380Y018261D01*
X027423Y018314D01*
X027463Y018370D01*
X027499Y018428D01*
X027532Y018487D01*
X027562Y018549D01*
X027589Y018612D01*
X027611Y018676D01*
X027611Y019424D02*
X027589Y019488D01*
X027562Y019551D01*
X027532Y019613D01*
X027499Y019672D01*
X027463Y019730D01*
X027423Y019786D01*
X027380Y019839D01*
X027335Y019890D01*
X027287Y019938D01*
X027236Y019983D01*
X027182Y020026D01*
X027126Y020065D01*
X027069Y020102D01*
X027009Y020135D01*
X026947Y020164D01*
X026884Y020190D01*
X026820Y020213D01*
X026754Y020232D01*
X026687Y020247D01*
X026620Y020258D01*
X026552Y020266D01*
X026484Y020270D01*
X026416Y020270D01*
X026348Y020266D01*
X026280Y020258D01*
X026213Y020247D01*
X026146Y020232D01*
X026080Y020213D01*
X026016Y020190D01*
X025953Y020164D01*
X025891Y020135D01*
X025831Y020102D01*
X025774Y020065D01*
X025718Y020026D01*
X025664Y019983D01*
X025613Y019938D01*
X025565Y019890D01*
X025520Y019839D01*
X025477Y019786D01*
X025437Y019730D01*
X025401Y019672D01*
X025368Y019613D01*
X025338Y019551D01*
X025311Y019488D01*
X025289Y019424D01*
X023566Y023220D02*
X023513Y023220D01*
X023486Y023247D01*
X023486Y023273D01*
X023513Y023300D01*
X023566Y023300D01*
X023593Y023273D01*
X023593Y023247D01*
X023566Y023220D01*
X023566Y023300D02*
X023593Y023327D01*
X023593Y023353D01*
X023566Y023380D01*
X023513Y023380D01*
X023486Y023353D01*
X023486Y023327D01*
X023513Y023300D01*
X023408Y023327D02*
X023408Y023353D01*
X023382Y023380D01*
X023328Y023380D01*
X023302Y023353D01*
X023224Y023353D02*
X023224Y023300D01*
X023198Y023273D01*
X023118Y023273D01*
X023118Y023220D02*
X023118Y023380D01*
X023198Y023380D01*
X023224Y023353D01*
X023302Y023220D02*
X023408Y023327D01*
X023408Y023220D02*
X023302Y023220D01*
X023013Y023247D02*
X023013Y023380D01*
X022987Y023380D02*
X023040Y023380D01*
X023013Y023247D02*
X022987Y023220D01*
X022960Y023220D01*
X022933Y023247D01*
X022936Y027520D02*
X023043Y027520D01*
X022989Y027520D02*
X022989Y027680D01*
X022936Y027627D01*
X022858Y027520D02*
X022752Y027520D01*
X022805Y027520D02*
X022805Y027680D01*
X022752Y027627D01*
X022674Y027680D02*
X022674Y027547D01*
X022648Y027520D01*
X022594Y027520D01*
X022568Y027547D01*
X022568Y027680D01*
X022523Y029940D02*
X022523Y030100D01*
X022442Y030020D01*
X022549Y030020D01*
X022365Y029993D02*
X022365Y029967D01*
X022338Y029940D01*
X022285Y029940D01*
X022258Y029967D01*
X022312Y030020D02*
X022338Y030020D01*
X022365Y029993D01*
X022338Y030020D02*
X022365Y030047D01*
X022365Y030073D01*
X022338Y030100D01*
X022285Y030100D01*
X022258Y030073D01*
X022181Y030073D02*
X022181Y030020D01*
X022154Y029993D01*
X022074Y029993D01*
X022074Y029940D02*
X022074Y030100D01*
X022154Y030100D01*
X022181Y030073D01*
X021997Y030100D02*
X021943Y030100D01*
X021970Y030100D02*
X021970Y029967D01*
X021943Y029940D01*
X021917Y029940D01*
X021890Y029967D01*
X020130Y030180D02*
X020130Y029274D01*
X020130Y028526D02*
X020130Y027620D01*
X018240Y027620D01*
X017570Y028290D01*
X017570Y028526D01*
X017570Y029274D02*
X017570Y029510D01*
X018240Y030180D01*
X020130Y030180D01*
X020011Y029274D02*
X019989Y029338D01*
X019962Y029401D01*
X019932Y029463D01*
X019899Y029522D01*
X019863Y029580D01*
X019823Y029636D01*
X019780Y029689D01*
X019735Y029740D01*
X019687Y029788D01*
X019636Y029833D01*
X019582Y029876D01*
X019526Y029915D01*
X019469Y029952D01*
X019409Y029985D01*
X019347Y030014D01*
X019284Y030040D01*
X019220Y030063D01*
X019154Y030082D01*
X019087Y030097D01*
X019020Y030108D01*
X018952Y030116D01*
X018884Y030120D01*
X018816Y030120D01*
X018748Y030116D01*
X018680Y030108D01*
X018613Y030097D01*
X018546Y030082D01*
X018480Y030063D01*
X018416Y030040D01*
X018353Y030014D01*
X018291Y029985D01*
X018231Y029952D01*
X018174Y029915D01*
X018118Y029876D01*
X018064Y029833D01*
X018013Y029788D01*
X017965Y029740D01*
X017920Y029689D01*
X017877Y029636D01*
X017837Y029580D01*
X017801Y029522D01*
X017768Y029463D01*
X017738Y029401D01*
X017711Y029338D01*
X017689Y029274D01*
X017667Y029976D02*
X017641Y030003D01*
X017667Y029976D02*
X017721Y029976D01*
X017747Y030003D01*
X017747Y030030D01*
X017721Y030056D01*
X017694Y030056D01*
X017721Y030056D02*
X017747Y030083D01*
X017747Y030110D01*
X017721Y030136D01*
X017667Y030136D01*
X017641Y030110D01*
X017563Y030110D02*
X017537Y030136D01*
X017483Y030136D01*
X017457Y030110D01*
X017457Y030003D01*
X017483Y029976D01*
X017537Y029976D01*
X017563Y030003D01*
X017825Y030056D02*
X017932Y030056D01*
X017905Y029976D02*
X017905Y030136D01*
X017825Y030056D01*
X017689Y028526D02*
X017711Y028462D01*
X017738Y028399D01*
X017768Y028337D01*
X017801Y028278D01*
X017837Y028220D01*
X017877Y028164D01*
X017920Y028111D01*
X017965Y028060D01*
X018013Y028012D01*
X018064Y027967D01*
X018118Y027924D01*
X018174Y027885D01*
X018231Y027848D01*
X018291Y027815D01*
X018353Y027786D01*
X018416Y027760D01*
X018480Y027737D01*
X018546Y027718D01*
X018613Y027703D01*
X018680Y027692D01*
X018748Y027684D01*
X018816Y027680D01*
X018884Y027680D01*
X018952Y027684D01*
X019020Y027692D01*
X019087Y027703D01*
X019154Y027718D01*
X019220Y027737D01*
X019284Y027760D01*
X019347Y027786D01*
X019409Y027815D01*
X019469Y027848D01*
X019526Y027885D01*
X019582Y027924D01*
X019636Y027967D01*
X019687Y028012D01*
X019735Y028060D01*
X019780Y028111D01*
X019823Y028164D01*
X019863Y028220D01*
X019899Y028278D01*
X019932Y028337D01*
X019962Y028399D01*
X019989Y028462D01*
X020011Y028526D01*
X022960Y033070D02*
X022987Y033070D01*
X023013Y033097D01*
X023013Y033230D01*
X022987Y033230D02*
X023040Y033230D01*
X023118Y033230D02*
X023198Y033230D01*
X023224Y033203D01*
X023224Y033150D01*
X023198Y033123D01*
X023118Y033123D01*
X023118Y033070D02*
X023118Y033230D01*
X023302Y033150D02*
X023408Y033150D01*
X023382Y033070D02*
X023382Y033230D01*
X023302Y033150D01*
X023486Y033097D02*
X023513Y033070D01*
X023566Y033070D01*
X023593Y033097D01*
X023593Y033203D01*
X023486Y033097D01*
X023486Y033203D01*
X023513Y033230D01*
X023566Y033230D01*
X023593Y033203D01*
X022960Y033070D02*
X022933Y033097D01*
X025083Y030136D02*
X025057Y030110D01*
X025057Y030003D01*
X025083Y029976D01*
X025137Y029976D01*
X025163Y030003D01*
X025241Y030003D02*
X025267Y029976D01*
X025321Y029976D01*
X025347Y030003D01*
X025347Y030030D01*
X025321Y030056D01*
X025294Y030056D01*
X025321Y030056D02*
X025347Y030083D01*
X025347Y030110D01*
X025321Y030136D01*
X025267Y030136D01*
X025241Y030110D01*
X025163Y030110D02*
X025137Y030136D01*
X025083Y030136D01*
X025425Y030056D02*
X025505Y030056D01*
X025532Y030030D01*
X025532Y030003D01*
X025505Y029976D01*
X025452Y029976D01*
X025425Y030003D01*
X025425Y030056D01*
X025478Y030110D01*
X025532Y030136D01*
X025840Y030180D02*
X025170Y029510D01*
X025170Y029274D01*
X025170Y028526D02*
X025170Y028290D01*
X025840Y027620D01*
X027730Y027620D01*
X027730Y028526D01*
X027730Y029274D02*
X027730Y030180D01*
X025840Y030180D01*
X025289Y028526D02*
X025311Y028462D01*
X025338Y028399D01*
X025368Y028337D01*
X025401Y028278D01*
X025437Y028220D01*
X025477Y028164D01*
X025520Y028111D01*
X025565Y028060D01*
X025613Y028012D01*
X025664Y027967D01*
X025718Y027924D01*
X025774Y027885D01*
X025831Y027848D01*
X025891Y027815D01*
X025953Y027786D01*
X026016Y027760D01*
X026080Y027737D01*
X026146Y027718D01*
X026213Y027703D01*
X026280Y027692D01*
X026348Y027684D01*
X026416Y027680D01*
X026484Y027680D01*
X026552Y027684D01*
X026620Y027692D01*
X026687Y027703D01*
X026754Y027718D01*
X026820Y027737D01*
X026884Y027760D01*
X026947Y027786D01*
X027009Y027815D01*
X027069Y027848D01*
X027126Y027885D01*
X027182Y027924D01*
X027236Y027967D01*
X027287Y028012D01*
X027335Y028060D01*
X027380Y028111D01*
X027423Y028164D01*
X027463Y028220D01*
X027499Y028278D01*
X027532Y028337D01*
X027562Y028399D01*
X027589Y028462D01*
X027611Y028526D01*
X027611Y029274D02*
X027589Y029338D01*
X027562Y029401D01*
X027532Y029463D01*
X027499Y029522D01*
X027463Y029580D01*
X027423Y029636D01*
X027380Y029689D01*
X027335Y029740D01*
X027287Y029788D01*
X027236Y029833D01*
X027182Y029876D01*
X027126Y029915D01*
X027069Y029952D01*
X027009Y029985D01*
X026947Y030014D01*
X026884Y030040D01*
X026820Y030063D01*
X026754Y030082D01*
X026687Y030097D01*
X026620Y030108D01*
X026552Y030116D01*
X026484Y030120D01*
X026416Y030120D01*
X026348Y030116D01*
X026280Y030108D01*
X026213Y030097D01*
X026146Y030082D01*
X026080Y030063D01*
X026016Y030040D01*
X025953Y030014D01*
X025891Y029985D01*
X025831Y029952D01*
X025774Y029915D01*
X025718Y029876D01*
X025664Y029833D01*
X025613Y029788D01*
X025565Y029740D01*
X025520Y029689D01*
X025477Y029636D01*
X025437Y029580D01*
X025401Y029522D01*
X025368Y029463D01*
X025338Y029401D01*
X025311Y029338D01*
X025289Y029274D01*
X029490Y029967D02*
X029517Y029940D01*
X029543Y029940D01*
X029570Y029967D01*
X029570Y030100D01*
X029543Y030100D02*
X029597Y030100D01*
X029674Y030100D02*
X029754Y030100D01*
X029781Y030073D01*
X029781Y030020D01*
X029754Y029993D01*
X029674Y029993D01*
X029674Y029940D02*
X029674Y030100D01*
X029858Y030073D02*
X029885Y030100D01*
X029938Y030100D01*
X029965Y030073D01*
X029965Y030047D01*
X029938Y030020D01*
X029965Y029993D01*
X029965Y029967D01*
X029938Y029940D01*
X029885Y029940D01*
X029858Y029967D01*
X029912Y030020D02*
X029938Y030020D01*
X030042Y030020D02*
X030096Y030047D01*
X030123Y030047D01*
X030149Y030020D01*
X030149Y029967D01*
X030123Y029940D01*
X030069Y029940D01*
X030042Y029967D01*
X030042Y030020D02*
X030042Y030100D01*
X030149Y030100D01*
X030168Y027630D02*
X030168Y027497D01*
X030194Y027470D01*
X030248Y027470D01*
X030274Y027497D01*
X030274Y027630D01*
X030352Y027577D02*
X030405Y027630D01*
X030405Y027470D01*
X030352Y027470D02*
X030458Y027470D01*
X030536Y027470D02*
X030643Y027577D01*
X030643Y027603D01*
X030616Y027630D01*
X030563Y027630D01*
X030536Y027603D01*
X030536Y027470D02*
X030643Y027470D01*
X032770Y028290D02*
X032770Y028526D01*
X032770Y028290D02*
X033440Y027620D01*
X035330Y027620D01*
X035330Y028526D01*
X035330Y029274D02*
X035330Y030180D01*
X033440Y030180D01*
X032770Y029510D01*
X032770Y029274D01*
X032737Y029976D02*
X032763Y030003D01*
X032737Y029976D02*
X032683Y029976D01*
X032657Y030003D01*
X032657Y030110D01*
X032683Y030136D01*
X032737Y030136D01*
X032763Y030110D01*
X032841Y030110D02*
X032867Y030136D01*
X032921Y030136D01*
X032947Y030110D01*
X032947Y030083D01*
X032921Y030056D01*
X032947Y030030D01*
X032947Y030003D01*
X032921Y029976D01*
X032867Y029976D01*
X032841Y030003D01*
X032894Y030056D02*
X032921Y030056D01*
X033025Y030030D02*
X033052Y030056D01*
X033105Y030056D01*
X033132Y030030D01*
X033132Y030003D01*
X033105Y029976D01*
X033052Y029976D01*
X033025Y030003D01*
X033025Y030030D01*
X033052Y030056D02*
X033025Y030083D01*
X033025Y030110D01*
X033052Y030136D01*
X033105Y030136D01*
X033132Y030110D01*
X033132Y030083D01*
X033105Y030056D01*
X032889Y028526D02*
X032911Y028462D01*
X032938Y028399D01*
X032968Y028337D01*
X033001Y028278D01*
X033037Y028220D01*
X033077Y028164D01*
X033120Y028111D01*
X033165Y028060D01*
X033213Y028012D01*
X033264Y027967D01*
X033318Y027924D01*
X033374Y027885D01*
X033431Y027848D01*
X033491Y027815D01*
X033553Y027786D01*
X033616Y027760D01*
X033680Y027737D01*
X033746Y027718D01*
X033813Y027703D01*
X033880Y027692D01*
X033948Y027684D01*
X034016Y027680D01*
X034084Y027680D01*
X034152Y027684D01*
X034220Y027692D01*
X034287Y027703D01*
X034354Y027718D01*
X034420Y027737D01*
X034484Y027760D01*
X034547Y027786D01*
X034609Y027815D01*
X034669Y027848D01*
X034726Y027885D01*
X034782Y027924D01*
X034836Y027967D01*
X034887Y028012D01*
X034935Y028060D01*
X034980Y028111D01*
X035023Y028164D01*
X035063Y028220D01*
X035099Y028278D01*
X035132Y028337D01*
X035162Y028399D01*
X035189Y028462D01*
X035211Y028526D01*
X035211Y029274D02*
X035189Y029338D01*
X035162Y029401D01*
X035132Y029463D01*
X035099Y029522D01*
X035063Y029580D01*
X035023Y029636D01*
X034980Y029689D01*
X034935Y029740D01*
X034887Y029788D01*
X034836Y029833D01*
X034782Y029876D01*
X034726Y029915D01*
X034669Y029952D01*
X034609Y029985D01*
X034547Y030014D01*
X034484Y030040D01*
X034420Y030063D01*
X034354Y030082D01*
X034287Y030097D01*
X034220Y030108D01*
X034152Y030116D01*
X034084Y030120D01*
X034016Y030120D01*
X033948Y030116D01*
X033880Y030108D01*
X033813Y030097D01*
X033746Y030082D01*
X033680Y030063D01*
X033616Y030040D01*
X033553Y030014D01*
X033491Y029985D01*
X033431Y029952D01*
X033374Y029915D01*
X033318Y029876D01*
X033264Y029833D01*
X033213Y029788D01*
X033165Y029740D01*
X033120Y029689D01*
X033077Y029636D01*
X033037Y029580D01*
X033001Y029522D01*
X032968Y029463D01*
X032938Y029401D01*
X032911Y029338D01*
X032889Y029274D01*
X031243Y033020D02*
X031136Y033020D01*
X031189Y033020D02*
X031189Y033180D01*
X031136Y033127D01*
X031058Y033100D02*
X030952Y033100D01*
X031032Y033180D01*
X031032Y033020D01*
X030874Y033100D02*
X030848Y033073D01*
X030768Y033073D01*
X030768Y033020D02*
X030768Y033180D01*
X030848Y033180D01*
X030874Y033153D01*
X030874Y033100D01*
X030690Y033180D02*
X030637Y033180D01*
X030663Y033180D02*
X030663Y033047D01*
X030637Y033020D01*
X030610Y033020D01*
X030583Y033047D01*
X030563Y037320D02*
X030616Y037320D01*
X030643Y037347D01*
X030643Y037373D01*
X030616Y037400D01*
X030536Y037400D01*
X030536Y037347D01*
X030563Y037320D01*
X030536Y037400D02*
X030589Y037453D01*
X030643Y037480D01*
X030405Y037480D02*
X030405Y037320D01*
X030352Y037320D02*
X030458Y037320D01*
X030352Y037427D02*
X030405Y037480D01*
X030274Y037480D02*
X030274Y037347D01*
X030248Y037320D01*
X030194Y037320D01*
X030168Y037347D01*
X030168Y037480D01*
X030042Y039790D02*
X030042Y039817D01*
X030149Y039923D01*
X030149Y039950D01*
X030042Y039950D01*
X029938Y039950D02*
X029858Y039870D01*
X029965Y039870D01*
X029938Y039790D02*
X029938Y039950D01*
X029781Y039923D02*
X029781Y039870D01*
X029754Y039843D01*
X029674Y039843D01*
X029674Y039790D02*
X029674Y039950D01*
X029754Y039950D01*
X029781Y039923D01*
X029597Y039950D02*
X029543Y039950D01*
X029570Y039950D02*
X029570Y039817D01*
X029543Y039790D01*
X029517Y039790D01*
X029490Y039817D01*
X027730Y040030D02*
X027730Y039124D01*
X027730Y038376D02*
X027730Y037470D01*
X025840Y037470D01*
X025170Y038140D01*
X025170Y038376D01*
X025170Y039124D02*
X025170Y039360D01*
X025840Y040030D01*
X027730Y040030D01*
X027611Y039124D02*
X027589Y039188D01*
X027562Y039251D01*
X027532Y039313D01*
X027499Y039372D01*
X027463Y039430D01*
X027423Y039486D01*
X027380Y039539D01*
X027335Y039590D01*
X027287Y039638D01*
X027236Y039683D01*
X027182Y039726D01*
X027126Y039765D01*
X027069Y039802D01*
X027009Y039835D01*
X026947Y039864D01*
X026884Y039890D01*
X026820Y039913D01*
X026754Y039932D01*
X026687Y039947D01*
X026620Y039958D01*
X026552Y039966D01*
X026484Y039970D01*
X026416Y039970D01*
X026348Y039966D01*
X026280Y039958D01*
X026213Y039947D01*
X026146Y039932D01*
X026080Y039913D01*
X026016Y039890D01*
X025953Y039864D01*
X025891Y039835D01*
X025831Y039802D01*
X025774Y039765D01*
X025718Y039726D01*
X025664Y039683D01*
X025613Y039638D01*
X025565Y039590D01*
X025520Y039539D01*
X025477Y039486D01*
X025437Y039430D01*
X025401Y039372D01*
X025368Y039313D01*
X025338Y039251D01*
X025311Y039188D01*
X025289Y039124D01*
X025321Y039826D02*
X025321Y039986D01*
X025241Y039906D01*
X025347Y039906D01*
X025425Y039933D02*
X025452Y039906D01*
X025532Y039906D01*
X025532Y039853D02*
X025532Y039960D01*
X025505Y039986D01*
X025452Y039986D01*
X025425Y039960D01*
X025425Y039933D01*
X025425Y039853D02*
X025452Y039826D01*
X025505Y039826D01*
X025532Y039853D01*
X025163Y039853D02*
X025137Y039826D01*
X025083Y039826D01*
X025057Y039853D01*
X025057Y039960D01*
X025083Y039986D01*
X025137Y039986D01*
X025163Y039960D01*
X025289Y038376D02*
X025311Y038312D01*
X025338Y038249D01*
X025368Y038187D01*
X025401Y038128D01*
X025437Y038070D01*
X025477Y038014D01*
X025520Y037961D01*
X025565Y037910D01*
X025613Y037862D01*
X025664Y037817D01*
X025718Y037774D01*
X025774Y037735D01*
X025831Y037698D01*
X025891Y037665D01*
X025953Y037636D01*
X026016Y037610D01*
X026080Y037587D01*
X026146Y037568D01*
X026213Y037553D01*
X026280Y037542D01*
X026348Y037534D01*
X026416Y037530D01*
X026484Y037530D01*
X026552Y037534D01*
X026620Y037542D01*
X026687Y037553D01*
X026754Y037568D01*
X026820Y037587D01*
X026884Y037610D01*
X026947Y037636D01*
X027009Y037665D01*
X027069Y037698D01*
X027126Y037735D01*
X027182Y037774D01*
X027236Y037817D01*
X027287Y037862D01*
X027335Y037910D01*
X027380Y037961D01*
X027423Y038014D01*
X027463Y038070D01*
X027499Y038128D01*
X027532Y038187D01*
X027562Y038249D01*
X027589Y038312D01*
X027611Y038376D01*
X023043Y037530D02*
X022936Y037530D01*
X022936Y037450D01*
X022989Y037477D01*
X023016Y037477D01*
X023043Y037450D01*
X023043Y037397D01*
X023016Y037370D01*
X022963Y037370D01*
X022936Y037397D01*
X022858Y037370D02*
X022752Y037370D01*
X022805Y037370D02*
X022805Y037530D01*
X022752Y037477D01*
X022674Y037530D02*
X022674Y037397D01*
X022648Y037370D01*
X022594Y037370D01*
X022568Y037397D01*
X022568Y037530D01*
X022523Y039790D02*
X022549Y039817D01*
X022549Y039843D01*
X022523Y039870D01*
X022442Y039870D01*
X022442Y039817D01*
X022469Y039790D01*
X022523Y039790D01*
X022442Y039870D02*
X022496Y039923D01*
X022549Y039950D01*
X022365Y039870D02*
X022258Y039870D01*
X022338Y039950D01*
X022338Y039790D01*
X022181Y039870D02*
X022154Y039843D01*
X022074Y039843D01*
X022074Y039790D02*
X022074Y039950D01*
X022154Y039950D01*
X022181Y039923D01*
X022181Y039870D01*
X021997Y039950D02*
X021943Y039950D01*
X021970Y039950D02*
X021970Y039817D01*
X021943Y039790D01*
X021917Y039790D01*
X021890Y039817D01*
X020130Y040030D02*
X020130Y039124D01*
X020130Y038376D02*
X020130Y037470D01*
X018240Y037470D01*
X017570Y038140D01*
X017570Y038376D01*
X017570Y039124D02*
X017570Y039360D01*
X018240Y040030D01*
X020130Y040030D01*
X020011Y039124D02*
X019989Y039188D01*
X019962Y039251D01*
X019932Y039313D01*
X019899Y039372D01*
X019863Y039430D01*
X019823Y039486D01*
X019780Y039539D01*
X019735Y039590D01*
X019687Y039638D01*
X019636Y039683D01*
X019582Y039726D01*
X019526Y039765D01*
X019469Y039802D01*
X019409Y039835D01*
X019347Y039864D01*
X019284Y039890D01*
X019220Y039913D01*
X019154Y039932D01*
X019087Y039947D01*
X019020Y039958D01*
X018952Y039966D01*
X018884Y039970D01*
X018816Y039970D01*
X018748Y039966D01*
X018680Y039958D01*
X018613Y039947D01*
X018546Y039932D01*
X018480Y039913D01*
X018416Y039890D01*
X018353Y039864D01*
X018291Y039835D01*
X018231Y039802D01*
X018174Y039765D01*
X018118Y039726D01*
X018064Y039683D01*
X018013Y039638D01*
X017965Y039590D01*
X017920Y039539D01*
X017877Y039486D01*
X017837Y039430D01*
X017801Y039372D01*
X017768Y039313D01*
X017738Y039251D01*
X017711Y039188D01*
X017689Y039124D01*
X017721Y039826D02*
X017721Y039986D01*
X017641Y039906D01*
X017747Y039906D01*
X017825Y039853D02*
X017825Y039826D01*
X017825Y039853D02*
X017932Y039960D01*
X017932Y039986D01*
X017825Y039986D01*
X017563Y039960D02*
X017537Y039986D01*
X017483Y039986D01*
X017457Y039960D01*
X017457Y039853D01*
X017483Y039826D01*
X017537Y039826D01*
X017563Y039853D01*
X017689Y038376D02*
X017711Y038312D01*
X017738Y038249D01*
X017768Y038187D01*
X017801Y038128D01*
X017837Y038070D01*
X017877Y038014D01*
X017920Y037961D01*
X017965Y037910D01*
X018013Y037862D01*
X018064Y037817D01*
X018118Y037774D01*
X018174Y037735D01*
X018231Y037698D01*
X018291Y037665D01*
X018353Y037636D01*
X018416Y037610D01*
X018480Y037587D01*
X018546Y037568D01*
X018613Y037553D01*
X018680Y037542D01*
X018748Y037534D01*
X018816Y037530D01*
X018884Y037530D01*
X018952Y037534D01*
X019020Y037542D01*
X019087Y037553D01*
X019154Y037568D01*
X019220Y037587D01*
X019284Y037610D01*
X019347Y037636D01*
X019409Y037665D01*
X019469Y037698D01*
X019526Y037735D01*
X019582Y037774D01*
X019636Y037817D01*
X019687Y037862D01*
X019735Y037910D01*
X019780Y037961D01*
X019823Y038014D01*
X019863Y038070D01*
X019899Y038128D01*
X019932Y038187D01*
X019962Y038249D01*
X019989Y038312D01*
X020011Y038376D01*
X015443Y037400D02*
X015336Y037400D01*
X015416Y037480D01*
X015416Y037320D01*
X015258Y037320D02*
X015152Y037320D01*
X015205Y037320D02*
X015205Y037480D01*
X015152Y037427D01*
X015074Y037480D02*
X015074Y037347D01*
X015048Y037320D01*
X014994Y037320D01*
X014968Y037347D01*
X014968Y037480D01*
X014938Y039790D02*
X014938Y039950D01*
X014858Y039870D01*
X014965Y039870D01*
X015042Y039870D02*
X015096Y039897D01*
X015123Y039897D01*
X015149Y039870D01*
X015149Y039817D01*
X015123Y039790D01*
X015069Y039790D01*
X015042Y039817D01*
X015042Y039870D02*
X015042Y039950D01*
X015149Y039950D01*
X014781Y039923D02*
X014781Y039870D01*
X014754Y039843D01*
X014674Y039843D01*
X014674Y039790D02*
X014674Y039950D01*
X014754Y039950D01*
X014781Y039923D01*
X014597Y039950D02*
X014543Y039950D01*
X014570Y039950D02*
X014570Y039817D01*
X014543Y039790D01*
X014517Y039790D01*
X014490Y039817D01*
X015437Y033230D02*
X015490Y033230D01*
X015463Y033230D02*
X015463Y033097D01*
X015437Y033070D01*
X015410Y033070D01*
X015383Y033097D01*
X015568Y033123D02*
X015648Y033123D01*
X015674Y033150D01*
X015674Y033203D01*
X015648Y033230D01*
X015568Y033230D01*
X015568Y033070D01*
X015752Y033097D02*
X015778Y033070D01*
X015832Y033070D01*
X015858Y033097D01*
X015858Y033123D01*
X015832Y033150D01*
X015805Y033150D01*
X015832Y033150D02*
X015858Y033177D01*
X015858Y033203D01*
X015832Y033230D01*
X015778Y033230D01*
X015752Y033203D01*
X015936Y033203D02*
X015936Y033177D01*
X015963Y033150D01*
X016043Y033150D01*
X016043Y033097D02*
X016043Y033203D01*
X016016Y033230D01*
X015963Y033230D01*
X015936Y033203D01*
X015936Y033097D02*
X015963Y033070D01*
X016016Y033070D01*
X016043Y033097D01*
X015123Y030100D02*
X015149Y030073D01*
X015149Y030047D01*
X015123Y030020D01*
X015149Y029993D01*
X015149Y029967D01*
X015123Y029940D01*
X015069Y029940D01*
X015042Y029967D01*
X015096Y030020D02*
X015123Y030020D01*
X015123Y030100D02*
X015069Y030100D01*
X015042Y030073D01*
X014965Y030073D02*
X014965Y030047D01*
X014938Y030020D01*
X014965Y029993D01*
X014965Y029967D01*
X014938Y029940D01*
X014885Y029940D01*
X014858Y029967D01*
X014912Y030020D02*
X014938Y030020D01*
X014965Y030073D02*
X014938Y030100D01*
X014885Y030100D01*
X014858Y030073D01*
X014781Y030073D02*
X014781Y030020D01*
X014754Y029993D01*
X014674Y029993D01*
X014674Y029940D02*
X014674Y030100D01*
X014754Y030100D01*
X014781Y030073D01*
X014597Y030100D02*
X014543Y030100D01*
X014570Y030100D02*
X014570Y029967D01*
X014543Y029940D01*
X014517Y029940D01*
X014490Y029967D01*
X014968Y027630D02*
X014968Y027497D01*
X014994Y027470D01*
X015048Y027470D01*
X015074Y027497D01*
X015074Y027630D01*
X015152Y027577D02*
X015205Y027630D01*
X015205Y027470D01*
X015152Y027470D02*
X015258Y027470D01*
X015336Y027497D02*
X015443Y027603D01*
X015443Y027497D01*
X015416Y027470D01*
X015363Y027470D01*
X015336Y027497D01*
X015336Y027603D01*
X015363Y027630D01*
X015416Y027630D01*
X015443Y027603D01*
X015437Y023380D02*
X015490Y023380D01*
X015463Y023380D02*
X015463Y023247D01*
X015437Y023220D01*
X015410Y023220D01*
X015383Y023247D01*
X015568Y023273D02*
X015648Y023273D01*
X015674Y023300D01*
X015674Y023353D01*
X015648Y023380D01*
X015568Y023380D01*
X015568Y023220D01*
X015752Y023220D02*
X015858Y023327D01*
X015858Y023353D01*
X015832Y023380D01*
X015778Y023380D01*
X015752Y023353D01*
X015752Y023220D02*
X015858Y023220D01*
X015936Y023220D02*
X015936Y023247D01*
X016043Y023353D01*
X016043Y023380D01*
X015936Y023380D01*
X008416Y013530D02*
X008443Y013503D01*
X008443Y013477D01*
X008416Y013450D01*
X008443Y013423D01*
X008443Y013397D01*
X008416Y013370D01*
X008363Y013370D01*
X008336Y013397D01*
X008389Y013450D02*
X008416Y013450D01*
X008416Y013530D02*
X008363Y013530D01*
X008336Y013503D01*
X008205Y013530D02*
X008205Y013370D01*
X008152Y013370D02*
X008258Y013370D01*
X008152Y013477D02*
X008205Y013530D01*
X008074Y013503D02*
X008074Y013450D01*
X008048Y013423D01*
X007968Y013423D01*
X007968Y013370D02*
X007968Y013530D01*
X008048Y013530D01*
X008074Y013503D01*
X007890Y013530D02*
X007837Y013530D01*
X007863Y013530D02*
X007863Y013397D01*
X007837Y013370D01*
X007810Y013370D01*
X007783Y013397D01*
X007338Y010400D02*
X007365Y010373D01*
X007365Y010347D01*
X007338Y010320D01*
X007285Y010320D01*
X007258Y010347D01*
X007258Y010373D01*
X007285Y010400D01*
X007338Y010400D01*
X007338Y010320D02*
X007365Y010293D01*
X007365Y010267D01*
X007338Y010240D01*
X007285Y010240D01*
X007258Y010267D01*
X007258Y010293D01*
X007285Y010320D01*
X007181Y010320D02*
X007154Y010293D01*
X007074Y010293D01*
X007074Y010240D02*
X007074Y010400D01*
X007154Y010400D01*
X007181Y010373D01*
X007181Y010320D01*
X006997Y010400D02*
X006943Y010400D01*
X006970Y010400D02*
X006970Y010267D01*
X006943Y010240D01*
X006917Y010240D01*
X006890Y010267D01*
X003643Y010363D02*
X003536Y010257D01*
X003536Y010230D01*
X003458Y010310D02*
X003432Y010283D01*
X003352Y010283D01*
X003352Y010230D02*
X003352Y010390D01*
X003432Y010390D01*
X003458Y010363D01*
X003458Y010310D01*
X003536Y010390D02*
X003643Y010390D01*
X003643Y010363D01*
X003274Y010390D02*
X003221Y010390D01*
X003248Y010390D02*
X003248Y010257D01*
X003221Y010230D01*
X003194Y010230D01*
X003168Y010257D01*
X002657Y010033D02*
X002631Y010060D01*
X002577Y010060D01*
X002551Y010033D01*
X002473Y010033D02*
X002473Y009980D01*
X002446Y009953D01*
X002366Y009953D01*
X002366Y009900D02*
X002366Y010060D01*
X002446Y010060D01*
X002473Y010033D01*
X002551Y009900D02*
X002657Y010007D01*
X002657Y010033D01*
X002657Y009900D02*
X002551Y009900D01*
X002262Y009927D02*
X002262Y010060D01*
X002236Y010060D02*
X002289Y010060D01*
X002262Y009927D02*
X002236Y009900D01*
X002209Y009900D01*
X002182Y009927D01*
X001823Y012300D02*
X001823Y012460D01*
X001742Y012380D01*
X001849Y012380D01*
X001665Y012407D02*
X001665Y012433D01*
X001638Y012460D01*
X001585Y012460D01*
X001558Y012433D01*
X001481Y012433D02*
X001481Y012380D01*
X001454Y012353D01*
X001374Y012353D01*
X001374Y012300D02*
X001374Y012460D01*
X001454Y012460D01*
X001481Y012433D01*
X001558Y012300D02*
X001665Y012407D01*
X001665Y012300D02*
X001558Y012300D01*
X001270Y012327D02*
X001270Y012460D01*
X001243Y012460D02*
X001297Y012460D01*
X001270Y012327D02*
X001243Y012300D01*
X001217Y012300D01*
X001190Y012327D01*
X002209Y019750D02*
X002236Y019750D01*
X002262Y019777D01*
X002262Y019910D01*
X002236Y019910D02*
X002289Y019910D01*
X002366Y019910D02*
X002366Y019750D01*
X002366Y019803D02*
X002446Y019803D01*
X002473Y019830D01*
X002473Y019883D01*
X002446Y019910D01*
X002366Y019910D01*
X002551Y019857D02*
X002604Y019910D01*
X002604Y019750D01*
X002551Y019750D02*
X002657Y019750D01*
X002735Y019777D02*
X002735Y019803D01*
X002761Y019830D01*
X002815Y019830D01*
X002841Y019803D01*
X002841Y019777D01*
X002815Y019750D01*
X002761Y019750D01*
X002735Y019777D01*
X002761Y019830D02*
X002735Y019857D01*
X002735Y019883D01*
X002761Y019910D01*
X002815Y019910D01*
X002841Y019883D01*
X002841Y019857D01*
X002815Y019830D01*
X003010Y020080D02*
X003037Y020080D01*
X003063Y020107D01*
X003063Y020240D01*
X003037Y020240D02*
X003090Y020240D01*
X003168Y020240D02*
X003248Y020240D01*
X003274Y020213D01*
X003274Y020160D01*
X003248Y020133D01*
X003168Y020133D01*
X003168Y020080D02*
X003168Y020240D01*
X003352Y020187D02*
X003405Y020240D01*
X003405Y020080D01*
X003352Y020080D02*
X003458Y020080D01*
X003536Y020107D02*
X003563Y020080D01*
X003616Y020080D01*
X003643Y020107D01*
X003643Y020213D01*
X003616Y020240D01*
X003563Y020240D01*
X003536Y020213D01*
X003536Y020187D01*
X003563Y020160D01*
X003643Y020160D01*
X003010Y020080D02*
X002983Y020107D01*
X002209Y019750D02*
X002182Y019777D01*
X001823Y022150D02*
X001849Y022177D01*
X001849Y022203D01*
X001823Y022230D01*
X001742Y022230D01*
X001742Y022177D01*
X001769Y022150D01*
X001823Y022150D01*
X001742Y022230D02*
X001796Y022283D01*
X001849Y022310D01*
X001665Y022283D02*
X001665Y022257D01*
X001638Y022230D01*
X001665Y022203D01*
X001665Y022177D01*
X001638Y022150D01*
X001585Y022150D01*
X001558Y022177D01*
X001612Y022230D02*
X001638Y022230D01*
X001665Y022283D02*
X001638Y022310D01*
X001585Y022310D01*
X001558Y022283D01*
X001481Y022283D02*
X001481Y022230D01*
X001454Y022203D01*
X001374Y022203D01*
X001374Y022150D02*
X001374Y022310D01*
X001454Y022310D01*
X001481Y022283D01*
X001297Y022310D02*
X001243Y022310D01*
X001270Y022310D02*
X001270Y022177D01*
X001243Y022150D01*
X001217Y022150D01*
X001190Y022177D01*
X008021Y003680D02*
X008074Y003680D01*
X008048Y003680D02*
X008048Y003547D01*
X008021Y003520D01*
X007994Y003520D01*
X007968Y003547D01*
X008152Y003573D02*
X008232Y003573D01*
X008258Y003600D01*
X008258Y003653D01*
X008232Y003680D01*
X008152Y003680D01*
X008152Y003520D01*
X008336Y003547D02*
X008363Y003520D01*
X008416Y003520D01*
X008443Y003547D01*
X008443Y003573D01*
X008416Y003600D01*
X008389Y003600D01*
X008416Y003600D02*
X008443Y003627D01*
X008443Y003653D01*
X008416Y003680D01*
X008363Y003680D01*
X008336Y003653D01*
X001849Y002583D02*
X001823Y002610D01*
X001769Y002610D01*
X001742Y002583D01*
X001849Y002583D02*
X001849Y002557D01*
X001742Y002450D01*
X001849Y002450D01*
X001665Y002450D02*
X001558Y002450D01*
X001612Y002450D02*
X001612Y002610D01*
X001558Y002557D01*
X001481Y002583D02*
X001481Y002530D01*
X001454Y002503D01*
X001374Y002503D01*
X001374Y002450D02*
X001374Y002610D01*
X001454Y002610D01*
X001481Y002583D01*
X001297Y002610D02*
X001243Y002610D01*
X001270Y002610D02*
X001270Y002477D01*
X001243Y002450D01*
X001217Y002450D01*
X001190Y002477D01*
X015568Y003547D02*
X015594Y003520D01*
X015621Y003520D01*
X015648Y003547D01*
X015648Y003680D01*
X015674Y003680D02*
X015621Y003680D01*
X015752Y003680D02*
X015752Y003520D01*
X015752Y003573D02*
X015832Y003573D01*
X015858Y003600D01*
X015858Y003653D01*
X015832Y003680D01*
X015752Y003680D01*
X015936Y003600D02*
X016016Y003680D01*
X016016Y003520D01*
X016043Y003600D02*
X015936Y003600D01*
X023118Y003547D02*
X023144Y003520D01*
X023171Y003520D01*
X023198Y003547D01*
X023198Y003680D01*
X023224Y003680D02*
X023171Y003680D01*
X023302Y003680D02*
X023382Y003680D01*
X023408Y003653D01*
X023408Y003600D01*
X023382Y003573D01*
X023302Y003573D01*
X023302Y003520D02*
X023302Y003680D01*
X023486Y003680D02*
X023486Y003600D01*
X023539Y003627D01*
X023566Y003627D01*
X023593Y003600D01*
X023593Y003547D01*
X023566Y003520D01*
X023513Y003520D01*
X023486Y003547D01*
X023486Y003680D02*
X023593Y003680D01*
X029517Y010240D02*
X029543Y010240D01*
X029570Y010267D01*
X029570Y010400D01*
X029543Y010400D02*
X029597Y010400D01*
X029674Y010400D02*
X029754Y010400D01*
X029781Y010373D01*
X029781Y010320D01*
X029754Y010293D01*
X029674Y010293D01*
X029674Y010240D02*
X029674Y010400D01*
X029858Y010347D02*
X029912Y010400D01*
X029912Y010240D01*
X029965Y010240D02*
X029858Y010240D01*
X030042Y010240D02*
X030149Y010240D01*
X030096Y010240D02*
X030096Y010400D01*
X030042Y010347D01*
X029517Y010240D02*
X029490Y010267D01*
X030352Y007930D02*
X030352Y007797D01*
X030378Y007770D01*
X030432Y007770D01*
X030458Y007797D01*
X030458Y007930D01*
X030536Y007850D02*
X030643Y007850D01*
X030616Y007770D02*
X030616Y007930D01*
X030536Y007850D01*
X032770Y008590D02*
X032770Y008826D01*
X032770Y008590D02*
X033440Y007920D01*
X035330Y007920D01*
X035330Y008826D01*
X035330Y009574D02*
X035330Y010480D01*
X033440Y010480D01*
X032770Y009810D01*
X032770Y009574D01*
X032737Y010276D02*
X032763Y010303D01*
X032737Y010276D02*
X032683Y010276D01*
X032657Y010303D01*
X032657Y010410D01*
X032683Y010436D01*
X032737Y010436D01*
X032763Y010410D01*
X032841Y010383D02*
X032894Y010436D01*
X032894Y010276D01*
X032841Y010276D02*
X032947Y010276D01*
X033025Y010276D02*
X033132Y010383D01*
X033132Y010410D01*
X033105Y010436D01*
X033052Y010436D01*
X033025Y010410D01*
X033025Y010276D02*
X033132Y010276D01*
X032889Y008826D02*
X032911Y008762D01*
X032938Y008699D01*
X032968Y008637D01*
X033001Y008578D01*
X033037Y008520D01*
X033077Y008464D01*
X033120Y008411D01*
X033165Y008360D01*
X033213Y008312D01*
X033264Y008267D01*
X033318Y008224D01*
X033374Y008185D01*
X033431Y008148D01*
X033491Y008115D01*
X033553Y008086D01*
X033616Y008060D01*
X033680Y008037D01*
X033746Y008018D01*
X033813Y008003D01*
X033880Y007992D01*
X033948Y007984D01*
X034016Y007980D01*
X034084Y007980D01*
X034152Y007984D01*
X034220Y007992D01*
X034287Y008003D01*
X034354Y008018D01*
X034420Y008037D01*
X034484Y008060D01*
X034547Y008086D01*
X034609Y008115D01*
X034669Y008148D01*
X034726Y008185D01*
X034782Y008224D01*
X034836Y008267D01*
X034887Y008312D01*
X034935Y008360D01*
X034980Y008411D01*
X035023Y008464D01*
X035063Y008520D01*
X035099Y008578D01*
X035132Y008637D01*
X035162Y008699D01*
X035189Y008762D01*
X035211Y008826D01*
X035211Y009574D02*
X035189Y009638D01*
X035162Y009701D01*
X035132Y009763D01*
X035099Y009822D01*
X035063Y009880D01*
X035023Y009936D01*
X034980Y009989D01*
X034935Y010040D01*
X034887Y010088D01*
X034836Y010133D01*
X034782Y010176D01*
X034726Y010215D01*
X034669Y010252D01*
X034609Y010285D01*
X034547Y010314D01*
X034484Y010340D01*
X034420Y010363D01*
X034354Y010382D01*
X034287Y010397D01*
X034220Y010408D01*
X034152Y010416D01*
X034084Y010420D01*
X034016Y010420D01*
X033948Y010416D01*
X033880Y010408D01*
X033813Y010397D01*
X033746Y010382D01*
X033680Y010363D01*
X033616Y010340D01*
X033553Y010314D01*
X033491Y010285D01*
X033431Y010252D01*
X033374Y010215D01*
X033318Y010176D01*
X033264Y010133D01*
X033213Y010088D01*
X033165Y010040D01*
X033120Y009989D01*
X033077Y009936D01*
X033037Y009880D01*
X033001Y009822D01*
X032968Y009763D01*
X032938Y009701D01*
X032911Y009638D01*
X032889Y009574D01*
X036600Y009530D02*
X036734Y009530D01*
X036734Y009430D01*
X036700Y009396D01*
X036600Y009396D01*
X036600Y009309D02*
X036734Y009309D01*
X036734Y009209D01*
X036700Y009175D01*
X036600Y009175D01*
X036633Y009088D02*
X036700Y009088D01*
X036734Y009055D01*
X036734Y008988D01*
X036700Y008954D01*
X036667Y008954D01*
X036667Y009088D01*
X036633Y009088D02*
X036600Y009055D01*
X036600Y008988D01*
X036633Y008834D02*
X036600Y008800D01*
X036633Y008834D02*
X036767Y008834D01*
X036734Y008867D02*
X036734Y008800D01*
X036700Y008720D02*
X036734Y008686D01*
X036734Y008619D01*
X036700Y008586D01*
X036600Y008586D01*
X036600Y008499D02*
X036600Y008432D01*
X036600Y008465D02*
X036800Y008465D01*
X036800Y008499D01*
X036960Y008476D02*
X036960Y008609D01*
X037160Y008609D01*
X037320Y008576D02*
X037353Y008609D01*
X037420Y008609D01*
X037454Y008576D01*
X037454Y008509D01*
X037420Y008476D01*
X037387Y008476D01*
X037387Y008609D01*
X037320Y008576D02*
X037320Y008509D01*
X037320Y008388D02*
X037454Y008388D01*
X037454Y008321D02*
X037454Y008288D01*
X037454Y008321D02*
X037387Y008388D01*
X037194Y008355D02*
X037160Y008355D01*
X037094Y008355D02*
X036960Y008355D01*
X036960Y008388D02*
X036960Y008321D01*
X036993Y008241D02*
X036960Y008207D01*
X036960Y008107D01*
X036993Y008020D02*
X037060Y008020D01*
X037094Y007986D01*
X037094Y007920D01*
X037060Y007886D01*
X037027Y007886D01*
X037027Y008020D01*
X036993Y008020D02*
X036960Y007986D01*
X036960Y007920D01*
X036960Y007799D02*
X037094Y007799D01*
X037094Y007699D01*
X037060Y007665D01*
X036960Y007665D01*
X036960Y007578D02*
X036960Y007478D01*
X036993Y007444D01*
X037027Y007478D01*
X037027Y007544D01*
X037060Y007578D01*
X037094Y007544D01*
X037094Y007444D01*
X037060Y007357D02*
X037094Y007323D01*
X037094Y007257D01*
X037060Y007223D01*
X037027Y007223D01*
X037027Y007357D01*
X037060Y007357D02*
X036993Y007357D01*
X036960Y007323D01*
X036960Y007257D01*
X036960Y006915D02*
X037094Y006781D01*
X037127Y006781D01*
X037160Y006815D01*
X037160Y006881D01*
X037127Y006915D01*
X036960Y006915D02*
X036960Y006781D01*
X036960Y006694D02*
X036960Y006660D01*
X036993Y006660D01*
X036993Y006694D01*
X036960Y006694D01*
X036993Y006583D02*
X037127Y006450D01*
X036993Y006450D01*
X036960Y006483D01*
X036960Y006550D01*
X036993Y006583D01*
X037127Y006583D01*
X037160Y006550D01*
X037160Y006483D01*
X037127Y006450D01*
X037320Y006369D02*
X037454Y006303D01*
X037487Y006215D02*
X037520Y006182D01*
X037520Y006115D01*
X037487Y006082D01*
X037353Y006215D01*
X037320Y006182D01*
X037320Y006115D01*
X037353Y006082D01*
X037487Y006082D01*
X037487Y006215D02*
X037353Y006215D01*
X037320Y006369D02*
X037454Y006436D01*
X037420Y006745D02*
X037420Y006878D01*
X037520Y006778D01*
X037320Y006778D01*
X037320Y006966D02*
X037454Y007099D01*
X037454Y006966D02*
X037320Y007099D01*
X037353Y007408D02*
X037420Y007408D01*
X037454Y007441D01*
X037454Y007541D01*
X037520Y007541D02*
X037320Y007541D01*
X037320Y007441D01*
X037353Y007408D01*
X037320Y007629D02*
X037454Y007629D01*
X037454Y007762D02*
X037353Y007762D01*
X037320Y007729D01*
X037320Y007629D01*
X037320Y007849D02*
X037420Y007849D01*
X037454Y007883D01*
X037454Y007950D01*
X037420Y007983D01*
X037520Y007983D02*
X037320Y007983D01*
X037094Y008107D02*
X037094Y008207D01*
X037060Y008241D01*
X036993Y008241D01*
X037094Y008355D02*
X037094Y008388D01*
X036834Y008318D02*
X036800Y008318D01*
X036734Y008318D02*
X036600Y008318D01*
X036600Y008351D02*
X036600Y008285D01*
X036600Y008204D02*
X036734Y008204D01*
X036734Y008171D01*
X036700Y008137D01*
X036734Y008104D01*
X036700Y008070D01*
X036600Y008070D01*
X036600Y008137D02*
X036700Y008137D01*
X036700Y007983D02*
X036633Y007983D01*
X036600Y007950D01*
X036600Y007849D01*
X036600Y007762D02*
X036600Y007662D01*
X036633Y007629D01*
X036700Y007629D01*
X036734Y007662D01*
X036734Y007762D01*
X036533Y007762D01*
X036734Y007849D02*
X036734Y007950D01*
X036700Y007983D01*
X036734Y008318D02*
X036734Y008351D01*
X036800Y008720D02*
X036600Y008720D01*
X036960Y008951D02*
X036960Y009018D01*
X036993Y009051D01*
X037060Y009051D01*
X037094Y009018D01*
X037094Y008951D01*
X037060Y008918D01*
X037027Y008918D01*
X037027Y009051D01*
X037060Y009139D02*
X036960Y009139D01*
X037060Y009139D02*
X037094Y009172D01*
X037094Y009239D01*
X037060Y009272D01*
X037094Y009360D02*
X037094Y009460D01*
X037060Y009493D01*
X036993Y009493D01*
X036960Y009460D01*
X036960Y009360D01*
X036960Y009272D02*
X037160Y009272D01*
X037253Y009272D02*
X037454Y009272D01*
X037454Y009172D01*
X037420Y009139D01*
X037353Y009139D01*
X037320Y009172D01*
X037320Y009272D01*
X037353Y009051D02*
X037320Y009018D01*
X037320Y008951D01*
X037353Y008918D01*
X037420Y008918D01*
X037454Y008951D01*
X037454Y009018D01*
X037420Y009051D01*
X037353Y009051D01*
X037353Y008830D02*
X037320Y008797D01*
X037353Y008763D01*
X037320Y008730D01*
X037353Y008697D01*
X037454Y008697D01*
X037454Y008830D02*
X037353Y008830D01*
X037353Y009581D02*
X037320Y009614D01*
X037320Y009714D01*
X037520Y009714D01*
X037520Y009614D01*
X037487Y009581D01*
X037454Y009581D01*
X037420Y009614D01*
X037420Y009714D01*
X037387Y009802D02*
X037353Y009802D01*
X037320Y009835D01*
X037320Y009902D01*
X037353Y009935D01*
X037420Y009902D02*
X037420Y009835D01*
X037387Y009802D01*
X037487Y009802D02*
X037520Y009835D01*
X037520Y009902D01*
X037487Y009935D01*
X037454Y009935D01*
X037420Y009902D01*
X037353Y010023D02*
X037520Y010023D01*
X037520Y010156D02*
X037353Y010156D01*
X037320Y010123D01*
X037320Y010056D01*
X037353Y010023D01*
X037160Y010089D02*
X037094Y010023D01*
X036960Y010023D01*
X036960Y009935D02*
X036960Y009835D01*
X036993Y009802D01*
X037060Y009802D01*
X037094Y009835D01*
X037094Y009935D01*
X036893Y009935D01*
X036800Y009935D02*
X036600Y009935D01*
X036667Y009935D02*
X036734Y009835D01*
X036700Y009751D02*
X036734Y009717D01*
X036734Y009651D01*
X036700Y009617D01*
X036667Y009617D01*
X036667Y009751D01*
X036700Y009751D02*
X036633Y009751D01*
X036600Y009717D01*
X036600Y009651D01*
X036600Y009835D02*
X036667Y009935D01*
X036700Y010023D02*
X036667Y010056D01*
X036734Y010056D01*
X036734Y010123D01*
X036667Y010123D01*
X036667Y010056D01*
X036700Y010023D02*
X036767Y010023D01*
X036800Y010056D01*
X036800Y010123D01*
X036767Y010156D01*
X036633Y010156D01*
X036600Y010123D01*
X036600Y010056D01*
X036633Y010023D01*
X036960Y010156D02*
X037094Y010156D01*
X037160Y010089D01*
X037060Y010023D02*
X037060Y010156D01*
X036993Y009714D02*
X037027Y009681D01*
X037027Y009581D01*
X037060Y009581D02*
X036960Y009581D01*
X036960Y009681D01*
X036993Y009714D01*
X037094Y009681D02*
X037094Y009614D01*
X037060Y009581D01*
X037353Y009581D02*
X037387Y009581D01*
X037420Y009614D01*
X037353Y005994D02*
X037353Y005961D01*
X037320Y005961D01*
X037320Y005994D01*
X037353Y005994D01*
X037320Y005884D02*
X037454Y005750D01*
X037487Y005750D01*
X037520Y005783D01*
X037520Y005850D01*
X037487Y005884D01*
X037320Y005884D02*
X037320Y005750D01*
X031243Y003630D02*
X031189Y003603D01*
X031136Y003550D01*
X031216Y003550D01*
X031243Y003523D01*
X031243Y003497D01*
X031216Y003470D01*
X031163Y003470D01*
X031136Y003497D01*
X031136Y003550D01*
X031058Y003550D02*
X031032Y003523D01*
X030952Y003523D01*
X030952Y003470D02*
X030952Y003630D01*
X031032Y003630D01*
X031058Y003603D01*
X031058Y003550D01*
X030874Y003630D02*
X030821Y003630D01*
X030848Y003630D02*
X030848Y003497D01*
X030821Y003470D01*
X030794Y003470D01*
X030768Y003497D01*
X030768Y013320D02*
X030768Y013480D01*
X030848Y013480D01*
X030874Y013453D01*
X030874Y013400D01*
X030848Y013373D01*
X030768Y013373D01*
X030663Y013347D02*
X030663Y013480D01*
X030637Y013480D02*
X030690Y013480D01*
X030663Y013347D02*
X030637Y013320D01*
X030610Y013320D01*
X030583Y013347D01*
X030952Y013320D02*
X031058Y013320D01*
X031005Y013320D02*
X031005Y013480D01*
X030952Y013427D01*
X031136Y013480D02*
X031243Y013480D01*
X031243Y013453D01*
X031136Y013347D01*
X031136Y013320D01*
X030616Y017620D02*
X030563Y017620D01*
X030536Y017647D01*
X030536Y017673D01*
X030563Y017700D01*
X030616Y017700D01*
X030643Y017673D01*
X030643Y017647D01*
X030616Y017620D01*
X030616Y017700D02*
X030643Y017727D01*
X030643Y017753D01*
X030616Y017780D01*
X030563Y017780D01*
X030536Y017753D01*
X030536Y017727D01*
X030563Y017700D01*
X030458Y017647D02*
X030458Y017780D01*
X030352Y017780D02*
X030352Y017647D01*
X030378Y017620D01*
X030432Y017620D01*
X030458Y017647D01*
X032770Y018440D02*
X032770Y018676D01*
X032770Y018440D02*
X033440Y017770D01*
X035330Y017770D01*
X035330Y018676D01*
X035330Y019424D02*
X035330Y020330D01*
X033440Y020330D01*
X032770Y019660D01*
X032770Y019424D01*
X032737Y020126D02*
X032763Y020153D01*
X032737Y020126D02*
X032683Y020126D01*
X032657Y020153D01*
X032657Y020260D01*
X032683Y020286D01*
X032737Y020286D01*
X032763Y020260D01*
X032841Y020260D02*
X032867Y020286D01*
X032921Y020286D01*
X032947Y020260D01*
X032947Y020233D01*
X032841Y020126D01*
X032947Y020126D01*
X033025Y020153D02*
X033052Y020126D01*
X033105Y020126D01*
X033132Y020153D01*
X033132Y020206D01*
X033105Y020233D01*
X033078Y020233D01*
X033025Y020206D01*
X033025Y020286D01*
X033132Y020286D01*
X032889Y018676D02*
X032911Y018612D01*
X032938Y018549D01*
X032968Y018487D01*
X033001Y018428D01*
X033037Y018370D01*
X033077Y018314D01*
X033120Y018261D01*
X033165Y018210D01*
X033213Y018162D01*
X033264Y018117D01*
X033318Y018074D01*
X033374Y018035D01*
X033431Y017998D01*
X033491Y017965D01*
X033553Y017936D01*
X033616Y017910D01*
X033680Y017887D01*
X033746Y017868D01*
X033813Y017853D01*
X033880Y017842D01*
X033948Y017834D01*
X034016Y017830D01*
X034084Y017830D01*
X034152Y017834D01*
X034220Y017842D01*
X034287Y017853D01*
X034354Y017868D01*
X034420Y017887D01*
X034484Y017910D01*
X034547Y017936D01*
X034609Y017965D01*
X034669Y017998D01*
X034726Y018035D01*
X034782Y018074D01*
X034836Y018117D01*
X034887Y018162D01*
X034935Y018210D01*
X034980Y018261D01*
X035023Y018314D01*
X035063Y018370D01*
X035099Y018428D01*
X035132Y018487D01*
X035162Y018549D01*
X035189Y018612D01*
X035211Y018676D01*
X035211Y019424D02*
X035189Y019488D01*
X035162Y019551D01*
X035132Y019613D01*
X035099Y019672D01*
X035063Y019730D01*
X035023Y019786D01*
X034980Y019839D01*
X034935Y019890D01*
X034887Y019938D01*
X034836Y019983D01*
X034782Y020026D01*
X034726Y020065D01*
X034669Y020102D01*
X034609Y020135D01*
X034547Y020164D01*
X034484Y020190D01*
X034420Y020213D01*
X034354Y020232D01*
X034287Y020247D01*
X034220Y020258D01*
X034152Y020266D01*
X034084Y020270D01*
X034016Y020270D01*
X033948Y020266D01*
X033880Y020258D01*
X033813Y020247D01*
X033746Y020232D01*
X033680Y020213D01*
X033616Y020190D01*
X033553Y020164D01*
X033491Y020135D01*
X033431Y020102D01*
X033374Y020065D01*
X033318Y020026D01*
X033264Y019983D01*
X033213Y019938D01*
X033165Y019890D01*
X033120Y019839D01*
X033077Y019786D01*
X033037Y019730D01*
X033001Y019672D01*
X032968Y019613D01*
X032938Y019551D01*
X032911Y019488D01*
X032889Y019424D01*
X030149Y020117D02*
X030123Y020090D01*
X030069Y020090D01*
X030042Y020117D01*
X030096Y020170D02*
X030123Y020170D01*
X030149Y020143D01*
X030149Y020117D01*
X030123Y020170D02*
X030149Y020197D01*
X030149Y020223D01*
X030123Y020250D01*
X030069Y020250D01*
X030042Y020223D01*
X029965Y020223D02*
X029938Y020250D01*
X029885Y020250D01*
X029858Y020223D01*
X029781Y020223D02*
X029781Y020170D01*
X029754Y020143D01*
X029674Y020143D01*
X029674Y020090D02*
X029674Y020250D01*
X029754Y020250D01*
X029781Y020223D01*
X029858Y020090D02*
X029965Y020197D01*
X029965Y020223D01*
X029965Y020090D02*
X029858Y020090D01*
X029570Y020117D02*
X029570Y020250D01*
X029543Y020250D02*
X029597Y020250D01*
X029570Y020117D02*
X029543Y020090D01*
X029517Y020090D01*
X029490Y020117D01*
X030610Y023170D02*
X030637Y023170D01*
X030663Y023197D01*
X030663Y023330D01*
X030637Y023330D02*
X030690Y023330D01*
X030768Y023330D02*
X030848Y023330D01*
X030874Y023303D01*
X030874Y023250D01*
X030848Y023223D01*
X030768Y023223D01*
X030768Y023170D02*
X030768Y023330D01*
X030952Y023303D02*
X030978Y023330D01*
X031032Y023330D01*
X031058Y023303D01*
X031058Y023277D01*
X030952Y023170D01*
X031058Y023170D01*
X031136Y023197D02*
X031163Y023170D01*
X031216Y023170D01*
X031243Y023197D01*
X031243Y023303D01*
X031216Y023330D01*
X031163Y023330D01*
X031136Y023303D01*
X031136Y023277D01*
X031163Y023250D01*
X031243Y023250D01*
X030610Y023170D02*
X030583Y023197D01*
X036600Y019973D02*
X036633Y020006D01*
X036767Y020006D01*
X036800Y019973D01*
X036800Y019906D01*
X036767Y019873D01*
X036700Y019873D01*
X036667Y019906D01*
X036734Y019906D01*
X036734Y019973D01*
X036667Y019973D01*
X036667Y019906D01*
X036633Y019873D02*
X036600Y019906D01*
X036600Y019973D01*
X036600Y019785D02*
X036800Y019785D01*
X036893Y019785D02*
X037094Y019785D01*
X037094Y019685D01*
X037060Y019652D01*
X036993Y019652D01*
X036960Y019685D01*
X036960Y019785D01*
X036960Y019873D02*
X037094Y019873D01*
X037160Y019939D01*
X037094Y020006D01*
X036960Y020006D01*
X037060Y020006D02*
X037060Y019873D01*
X037320Y019906D02*
X037353Y019873D01*
X037520Y019873D01*
X037487Y019785D02*
X037454Y019785D01*
X037420Y019752D01*
X037420Y019685D01*
X037387Y019652D01*
X037353Y019652D01*
X037320Y019685D01*
X037320Y019752D01*
X037353Y019785D01*
X037320Y019906D02*
X037320Y019973D01*
X037353Y020006D01*
X037520Y020006D01*
X037487Y019785D02*
X037520Y019752D01*
X037520Y019685D01*
X037487Y019652D01*
X037520Y019564D02*
X037520Y019464D01*
X037487Y019431D01*
X037454Y019431D01*
X037420Y019464D01*
X037420Y019564D01*
X037320Y019564D02*
X037320Y019464D01*
X037353Y019431D01*
X037387Y019431D01*
X037420Y019464D01*
X037320Y019564D02*
X037520Y019564D01*
X037094Y019531D02*
X037094Y019464D01*
X037060Y019431D01*
X036960Y019431D01*
X036960Y019531D01*
X036993Y019564D01*
X037027Y019531D01*
X037027Y019431D01*
X037060Y019343D02*
X036993Y019343D01*
X036960Y019310D01*
X036960Y019210D01*
X036960Y019122D02*
X037160Y019122D01*
X037094Y019089D02*
X037094Y019022D01*
X037060Y018989D01*
X036960Y018989D01*
X036993Y018901D02*
X037060Y018901D01*
X037094Y018868D01*
X037094Y018801D01*
X037060Y018768D01*
X037027Y018768D01*
X037027Y018901D01*
X036993Y018901D02*
X036960Y018868D01*
X036960Y018801D01*
X036767Y018684D02*
X036633Y018684D01*
X036600Y018650D01*
X036600Y018570D02*
X036800Y018570D01*
X036734Y018536D02*
X036700Y018570D01*
X036734Y018536D02*
X036734Y018469D01*
X036700Y018436D01*
X036600Y018436D01*
X036600Y018349D02*
X036600Y018282D01*
X036600Y018315D02*
X036800Y018315D01*
X036800Y018349D01*
X036960Y018326D02*
X036960Y018459D01*
X037160Y018459D01*
X037320Y018426D02*
X037353Y018459D01*
X037420Y018459D01*
X037454Y018426D01*
X037454Y018359D01*
X037420Y018326D01*
X037387Y018326D01*
X037387Y018459D01*
X037320Y018426D02*
X037320Y018359D01*
X037320Y018238D02*
X037454Y018238D01*
X037454Y018171D02*
X037454Y018138D01*
X037454Y018171D02*
X037387Y018238D01*
X037194Y018205D02*
X037160Y018205D01*
X037094Y018205D02*
X036960Y018205D01*
X036960Y018238D02*
X036960Y018171D01*
X036993Y018091D02*
X036960Y018057D01*
X036960Y017957D01*
X036993Y017870D02*
X037060Y017870D01*
X037094Y017836D01*
X037094Y017770D01*
X037060Y017736D01*
X037027Y017736D01*
X037027Y017870D01*
X036993Y017870D02*
X036960Y017836D01*
X036960Y017770D01*
X036960Y017649D02*
X037094Y017649D01*
X037094Y017549D01*
X037060Y017515D01*
X036960Y017515D01*
X036960Y017428D02*
X036960Y017328D01*
X036993Y017294D01*
X037027Y017328D01*
X037027Y017394D01*
X037060Y017428D01*
X037094Y017394D01*
X037094Y017294D01*
X037060Y017207D02*
X037094Y017173D01*
X037094Y017107D01*
X037060Y017073D01*
X037027Y017073D01*
X037027Y017207D01*
X037060Y017207D02*
X036993Y017207D01*
X036960Y017173D01*
X036960Y017107D01*
X036960Y016765D02*
X037094Y016631D01*
X037127Y016631D01*
X037160Y016665D01*
X037160Y016731D01*
X037127Y016765D01*
X036960Y016765D02*
X036960Y016631D01*
X036960Y016544D02*
X036960Y016510D01*
X036993Y016510D01*
X036993Y016544D01*
X036960Y016544D01*
X036993Y016433D02*
X037127Y016300D01*
X036993Y016300D01*
X036960Y016333D01*
X036960Y016400D01*
X036993Y016433D01*
X037127Y016433D01*
X037160Y016400D01*
X037160Y016333D01*
X037127Y016300D01*
X037320Y016219D02*
X037454Y016153D01*
X037487Y016065D02*
X037520Y016032D01*
X037520Y015965D01*
X037487Y015932D01*
X037353Y016065D01*
X037320Y016032D01*
X037320Y015965D01*
X037353Y015932D01*
X037487Y015932D01*
X037487Y016065D02*
X037353Y016065D01*
X037320Y016219D02*
X037454Y016286D01*
X037420Y016595D02*
X037420Y016728D01*
X037520Y016628D01*
X037320Y016628D01*
X037320Y016816D02*
X037454Y016949D01*
X037454Y016816D02*
X037320Y016949D01*
X037353Y017258D02*
X037420Y017258D01*
X037454Y017291D01*
X037454Y017391D01*
X037520Y017391D02*
X037320Y017391D01*
X037320Y017291D01*
X037353Y017258D01*
X037320Y017479D02*
X037454Y017479D01*
X037454Y017612D02*
X037353Y017612D01*
X037320Y017579D01*
X037320Y017479D01*
X037320Y017699D02*
X037420Y017699D01*
X037454Y017733D01*
X037454Y017800D01*
X037420Y017833D01*
X037520Y017833D02*
X037320Y017833D01*
X037094Y017957D02*
X037094Y018057D01*
X037060Y018091D01*
X036993Y018091D01*
X037094Y018205D02*
X037094Y018238D01*
X036834Y018168D02*
X036800Y018168D01*
X036734Y018168D02*
X036600Y018168D01*
X036600Y018201D02*
X036600Y018135D01*
X036600Y018054D02*
X036734Y018054D01*
X036734Y018021D01*
X036700Y017987D01*
X036734Y017954D01*
X036700Y017920D01*
X036600Y017920D01*
X036600Y017987D02*
X036700Y017987D01*
X036700Y017833D02*
X036633Y017833D01*
X036600Y017800D01*
X036600Y017699D01*
X036600Y017612D02*
X036600Y017512D01*
X036633Y017479D01*
X036700Y017479D01*
X036734Y017512D01*
X036734Y017612D01*
X036533Y017612D01*
X036734Y017699D02*
X036734Y017800D01*
X036700Y017833D01*
X036734Y018168D02*
X036734Y018201D01*
X036734Y018650D02*
X036734Y018717D01*
X036700Y018804D02*
X036667Y018804D01*
X036667Y018938D01*
X036700Y018938D02*
X036734Y018905D01*
X036734Y018838D01*
X036700Y018804D01*
X036600Y018838D02*
X036600Y018905D01*
X036633Y018938D01*
X036700Y018938D01*
X036700Y019025D02*
X036600Y019025D01*
X036700Y019025D02*
X036734Y019059D01*
X036734Y019159D01*
X036600Y019159D01*
X036600Y019246D02*
X036700Y019246D01*
X036734Y019280D01*
X036734Y019380D01*
X036600Y019380D01*
X036667Y019467D02*
X036667Y019601D01*
X036700Y019601D02*
X036734Y019567D01*
X036734Y019501D01*
X036700Y019467D01*
X036667Y019467D01*
X036600Y019501D02*
X036600Y019567D01*
X036633Y019601D01*
X036700Y019601D01*
X036734Y019685D02*
X036667Y019785D01*
X036600Y019685D01*
X037060Y019343D02*
X037094Y019310D01*
X037094Y019210D01*
X037060Y019122D02*
X037094Y019089D01*
X037253Y019122D02*
X037454Y019122D01*
X037454Y019022D01*
X037420Y018989D01*
X037353Y018989D01*
X037320Y019022D01*
X037320Y019122D01*
X037353Y018901D02*
X037320Y018868D01*
X037320Y018801D01*
X037353Y018768D01*
X037420Y018768D01*
X037454Y018801D01*
X037454Y018868D01*
X037420Y018901D01*
X037353Y018901D01*
X037353Y018680D02*
X037320Y018647D01*
X037353Y018613D01*
X037320Y018580D01*
X037353Y018547D01*
X037454Y018547D01*
X037454Y018680D02*
X037353Y018680D01*
X037353Y015844D02*
X037353Y015811D01*
X037320Y015811D01*
X037320Y015844D01*
X037353Y015844D01*
X037320Y015734D02*
X037454Y015600D01*
X037487Y015600D01*
X037520Y015633D01*
X037520Y015700D01*
X037487Y015734D01*
X037320Y015734D02*
X037320Y015600D01*
X037320Y025450D02*
X037320Y025584D01*
X037454Y025450D01*
X037487Y025450D01*
X037520Y025483D01*
X037520Y025550D01*
X037487Y025584D01*
X037353Y025661D02*
X037320Y025661D01*
X037320Y025694D01*
X037353Y025694D01*
X037353Y025661D01*
X037353Y025782D02*
X037320Y025815D01*
X037320Y025882D01*
X037353Y025915D01*
X037487Y025782D01*
X037353Y025782D01*
X037353Y025915D02*
X037487Y025915D01*
X037520Y025882D01*
X037520Y025815D01*
X037487Y025782D01*
X037454Y026003D02*
X037320Y026069D01*
X037454Y026136D01*
X037160Y026183D02*
X037160Y026250D01*
X037127Y026283D01*
X036993Y026283D01*
X037127Y026150D01*
X036993Y026150D01*
X036960Y026183D01*
X036960Y026250D01*
X036993Y026283D01*
X036993Y026360D02*
X036960Y026360D01*
X036960Y026394D01*
X036993Y026394D01*
X036993Y026360D01*
X036960Y026481D02*
X036960Y026615D01*
X037094Y026481D01*
X037127Y026481D01*
X037160Y026515D01*
X037160Y026581D01*
X037127Y026615D01*
X037320Y026666D02*
X037454Y026799D01*
X037454Y026666D02*
X037320Y026799D01*
X037420Y026578D02*
X037420Y026445D01*
X037320Y026478D02*
X037520Y026478D01*
X037420Y026578D01*
X037160Y026183D02*
X037127Y026150D01*
X037060Y026923D02*
X037027Y026923D01*
X037027Y027057D01*
X037060Y027057D02*
X037094Y027023D01*
X037094Y026957D01*
X037060Y026923D01*
X036960Y026957D02*
X036960Y027023D01*
X036993Y027057D01*
X037060Y027057D01*
X037094Y027144D02*
X037094Y027244D01*
X037060Y027278D01*
X037027Y027244D01*
X037027Y027178D01*
X036993Y027144D01*
X036960Y027178D01*
X036960Y027278D01*
X036960Y027365D02*
X037060Y027365D01*
X037094Y027399D01*
X037094Y027499D01*
X036960Y027499D01*
X037027Y027586D02*
X037027Y027720D01*
X037060Y027720D02*
X037094Y027686D01*
X037094Y027620D01*
X037060Y027586D01*
X037027Y027586D01*
X036960Y027620D02*
X036960Y027686D01*
X036993Y027720D01*
X037060Y027720D01*
X037094Y027807D02*
X037094Y027907D01*
X037060Y027941D01*
X036993Y027941D01*
X036960Y027907D01*
X036960Y027807D01*
X036960Y028021D02*
X036960Y028088D01*
X036960Y028055D02*
X037094Y028055D01*
X037094Y028088D01*
X037160Y028055D02*
X037194Y028055D01*
X037320Y028088D02*
X037454Y028088D01*
X037454Y028021D02*
X037454Y027988D01*
X037454Y028021D02*
X037387Y028088D01*
X037387Y028176D02*
X037387Y028309D01*
X037420Y028309D02*
X037454Y028276D01*
X037454Y028209D01*
X037420Y028176D01*
X037387Y028176D01*
X037320Y028209D02*
X037320Y028276D01*
X037353Y028309D01*
X037420Y028309D01*
X037454Y028397D02*
X037353Y028397D01*
X037320Y028430D01*
X037353Y028463D01*
X037320Y028497D01*
X037353Y028530D01*
X037454Y028530D01*
X037420Y028618D02*
X037454Y028651D01*
X037454Y028718D01*
X037420Y028751D01*
X037353Y028751D01*
X037320Y028718D01*
X037320Y028651D01*
X037353Y028618D01*
X037420Y028618D01*
X037420Y028839D02*
X037353Y028839D01*
X037320Y028872D01*
X037320Y028972D01*
X037253Y028972D02*
X037454Y028972D01*
X037454Y028872D01*
X037420Y028839D01*
X037160Y028972D02*
X036960Y028972D01*
X036960Y029060D02*
X036960Y029160D01*
X036993Y029193D01*
X037060Y029193D01*
X037094Y029160D01*
X037094Y029060D01*
X037060Y028972D02*
X037094Y028939D01*
X037094Y028872D01*
X037060Y028839D01*
X036960Y028839D01*
X036993Y028751D02*
X037060Y028751D01*
X037094Y028718D01*
X037094Y028651D01*
X037060Y028618D01*
X037027Y028618D01*
X037027Y028751D01*
X036993Y028751D02*
X036960Y028718D01*
X036960Y028651D01*
X036767Y028534D02*
X036633Y028534D01*
X036600Y028500D01*
X036600Y028420D02*
X036800Y028420D01*
X036734Y028386D02*
X036734Y028319D01*
X036700Y028286D01*
X036600Y028286D01*
X036600Y028199D02*
X036600Y028132D01*
X036600Y028165D02*
X036800Y028165D01*
X036800Y028199D01*
X036960Y028176D02*
X036960Y028309D01*
X037160Y028309D01*
X036734Y028386D02*
X036700Y028420D01*
X036734Y028500D02*
X036734Y028567D01*
X036700Y028654D02*
X036667Y028654D01*
X036667Y028788D01*
X036700Y028788D02*
X036734Y028755D01*
X036734Y028688D01*
X036700Y028654D01*
X036600Y028688D02*
X036600Y028755D01*
X036633Y028788D01*
X036700Y028788D01*
X036700Y028875D02*
X036600Y028875D01*
X036700Y028875D02*
X036734Y028909D01*
X036734Y029009D01*
X036600Y029009D01*
X036600Y029096D02*
X036700Y029096D01*
X036734Y029130D01*
X036734Y029230D01*
X036600Y029230D01*
X036667Y029317D02*
X036667Y029451D01*
X036700Y029451D02*
X036734Y029417D01*
X036734Y029351D01*
X036700Y029317D01*
X036667Y029317D01*
X036600Y029351D02*
X036600Y029417D01*
X036633Y029451D01*
X036700Y029451D01*
X036734Y029535D02*
X036667Y029635D01*
X036600Y029535D01*
X036600Y029635D02*
X036800Y029635D01*
X036893Y029635D02*
X037094Y029635D01*
X037094Y029535D01*
X037060Y029502D01*
X036993Y029502D01*
X036960Y029535D01*
X036960Y029635D01*
X036960Y029723D02*
X037094Y029723D01*
X037160Y029789D01*
X037094Y029856D01*
X036960Y029856D01*
X037060Y029856D02*
X037060Y029723D01*
X036800Y029756D02*
X036767Y029723D01*
X036700Y029723D01*
X036667Y029756D01*
X036734Y029756D01*
X036734Y029823D01*
X036667Y029823D01*
X036667Y029756D01*
X036633Y029723D02*
X036600Y029756D01*
X036600Y029823D01*
X036633Y029856D01*
X036767Y029856D01*
X036800Y029823D01*
X036800Y029756D01*
X036993Y029414D02*
X037027Y029381D01*
X037027Y029281D01*
X037060Y029281D02*
X036960Y029281D01*
X036960Y029381D01*
X036993Y029414D01*
X037094Y029381D02*
X037094Y029314D01*
X037060Y029281D01*
X037320Y029314D02*
X037320Y029414D01*
X037520Y029414D01*
X037520Y029314D01*
X037487Y029281D01*
X037454Y029281D01*
X037420Y029314D01*
X037420Y029414D01*
X037387Y029502D02*
X037353Y029502D01*
X037320Y029535D01*
X037320Y029602D01*
X037353Y029635D01*
X037420Y029602D02*
X037420Y029535D01*
X037387Y029502D01*
X037487Y029502D02*
X037520Y029535D01*
X037520Y029602D01*
X037487Y029635D01*
X037454Y029635D01*
X037420Y029602D01*
X037353Y029723D02*
X037520Y029723D01*
X037520Y029856D02*
X037353Y029856D01*
X037320Y029823D01*
X037320Y029756D01*
X037353Y029723D01*
X037320Y029314D02*
X037353Y029281D01*
X037387Y029281D01*
X037420Y029314D01*
X036834Y028018D02*
X036800Y028018D01*
X036734Y028018D02*
X036600Y028018D01*
X036600Y028051D02*
X036600Y027985D01*
X036600Y027904D02*
X036734Y027904D01*
X036734Y027871D01*
X036700Y027837D01*
X036734Y027804D01*
X036700Y027770D01*
X036600Y027770D01*
X036600Y027837D02*
X036700Y027837D01*
X036700Y027683D02*
X036633Y027683D01*
X036600Y027650D01*
X036600Y027549D01*
X036600Y027462D02*
X036600Y027362D01*
X036633Y027329D01*
X036700Y027329D01*
X036734Y027362D01*
X036734Y027462D01*
X036533Y027462D01*
X036734Y027549D02*
X036734Y027650D01*
X036700Y027683D01*
X036734Y028018D02*
X036734Y028051D01*
X037320Y027683D02*
X037520Y027683D01*
X037454Y027650D02*
X037454Y027583D01*
X037420Y027549D01*
X037320Y027549D01*
X037353Y027462D02*
X037320Y027429D01*
X037320Y027329D01*
X037454Y027329D01*
X037454Y027241D02*
X037454Y027141D01*
X037420Y027108D01*
X037353Y027108D01*
X037320Y027141D01*
X037320Y027241D01*
X037520Y027241D01*
X037454Y027462D02*
X037353Y027462D01*
X037454Y027650D02*
X037420Y027683D01*
X037454Y035300D02*
X037487Y035300D01*
X037520Y035333D01*
X037520Y035400D01*
X037487Y035434D01*
X037454Y035300D02*
X037320Y035434D01*
X037320Y035300D01*
X037320Y035511D02*
X037320Y035544D01*
X037353Y035544D01*
X037353Y035511D01*
X037320Y035511D01*
X037353Y035632D02*
X037320Y035665D01*
X037320Y035732D01*
X037353Y035765D01*
X037487Y035632D01*
X037353Y035632D01*
X037353Y035765D02*
X037487Y035765D01*
X037520Y035732D01*
X037520Y035665D01*
X037487Y035632D01*
X037454Y035853D02*
X037320Y035919D01*
X037454Y035986D01*
X037160Y036033D02*
X037127Y036000D01*
X036993Y036133D01*
X036960Y036100D01*
X036960Y036033D01*
X036993Y036000D01*
X037127Y036000D01*
X037160Y036033D02*
X037160Y036100D01*
X037127Y036133D01*
X036993Y036133D01*
X036993Y036210D02*
X036960Y036210D01*
X036960Y036244D01*
X036993Y036244D01*
X036993Y036210D01*
X036960Y036331D02*
X036960Y036465D01*
X037094Y036331D01*
X037127Y036331D01*
X037160Y036365D01*
X037160Y036431D01*
X037127Y036465D01*
X037320Y036516D02*
X037454Y036649D01*
X037454Y036516D02*
X037320Y036649D01*
X037420Y036428D02*
X037420Y036295D01*
X037320Y036328D02*
X037520Y036328D01*
X037420Y036428D01*
X037060Y036773D02*
X037027Y036773D01*
X037027Y036907D01*
X037060Y036907D02*
X037094Y036873D01*
X037094Y036807D01*
X037060Y036773D01*
X036960Y036807D02*
X036960Y036873D01*
X036993Y036907D01*
X037060Y036907D01*
X037094Y036994D02*
X037094Y037094D01*
X037060Y037128D01*
X037027Y037094D01*
X037027Y037028D01*
X036993Y036994D01*
X036960Y037028D01*
X036960Y037128D01*
X036960Y037215D02*
X037060Y037215D01*
X037094Y037249D01*
X037094Y037349D01*
X036960Y037349D01*
X037027Y037436D02*
X037027Y037570D01*
X037060Y037570D02*
X037094Y037536D01*
X037094Y037470D01*
X037060Y037436D01*
X037027Y037436D01*
X036960Y037470D02*
X036960Y037536D01*
X036993Y037570D01*
X037060Y037570D01*
X037094Y037657D02*
X037094Y037757D01*
X037060Y037791D01*
X036993Y037791D01*
X036960Y037757D01*
X036960Y037657D01*
X036960Y037871D02*
X036960Y037938D01*
X036960Y037905D02*
X037094Y037905D01*
X037094Y037938D01*
X037160Y037905D02*
X037194Y037905D01*
X037320Y037938D02*
X037454Y037938D01*
X037387Y037938D02*
X037454Y037871D01*
X037454Y037838D01*
X037420Y038026D02*
X037387Y038026D01*
X037387Y038159D01*
X037420Y038159D02*
X037454Y038126D01*
X037454Y038059D01*
X037420Y038026D01*
X037320Y038059D02*
X037320Y038126D01*
X037353Y038159D01*
X037420Y038159D01*
X037454Y038247D02*
X037353Y038247D01*
X037320Y038280D01*
X037353Y038313D01*
X037320Y038347D01*
X037353Y038380D01*
X037454Y038380D01*
X037420Y038468D02*
X037454Y038501D01*
X037454Y038568D01*
X037420Y038601D01*
X037353Y038601D01*
X037320Y038568D01*
X037320Y038501D01*
X037353Y038468D01*
X037420Y038468D01*
X037420Y038689D02*
X037353Y038689D01*
X037320Y038722D01*
X037320Y038822D01*
X037253Y038822D02*
X037454Y038822D01*
X037454Y038722D01*
X037420Y038689D01*
X037160Y038822D02*
X036960Y038822D01*
X036960Y038910D02*
X036960Y039010D01*
X036993Y039043D01*
X037060Y039043D01*
X037094Y039010D01*
X037094Y038910D01*
X037060Y038822D02*
X037094Y038789D01*
X037094Y038722D01*
X037060Y038689D01*
X036960Y038689D01*
X036993Y038601D02*
X037060Y038601D01*
X037094Y038568D01*
X037094Y038501D01*
X037060Y038468D01*
X037027Y038468D01*
X037027Y038601D01*
X036993Y038601D02*
X036960Y038568D01*
X036960Y038501D01*
X036767Y038384D02*
X036633Y038384D01*
X036600Y038350D01*
X036600Y038270D02*
X036800Y038270D01*
X036734Y038236D02*
X036734Y038169D01*
X036700Y038136D01*
X036600Y038136D01*
X036600Y038049D02*
X036600Y037982D01*
X036600Y038015D02*
X036800Y038015D01*
X036800Y038049D01*
X036960Y038026D02*
X036960Y038159D01*
X037160Y038159D01*
X036734Y038236D02*
X036700Y038270D01*
X036734Y038350D02*
X036734Y038417D01*
X036700Y038504D02*
X036667Y038504D01*
X036667Y038638D01*
X036700Y038638D02*
X036734Y038605D01*
X036734Y038538D01*
X036700Y038504D01*
X036600Y038538D02*
X036600Y038605D01*
X036633Y038638D01*
X036700Y038638D01*
X036700Y038725D02*
X036600Y038725D01*
X036700Y038725D02*
X036734Y038759D01*
X036734Y038859D01*
X036600Y038859D01*
X036600Y038946D02*
X036700Y038946D01*
X036734Y038980D01*
X036734Y039080D01*
X036600Y039080D01*
X036667Y039167D02*
X036667Y039301D01*
X036700Y039301D02*
X036734Y039267D01*
X036734Y039201D01*
X036700Y039167D01*
X036667Y039167D01*
X036600Y039201D02*
X036600Y039267D01*
X036633Y039301D01*
X036700Y039301D01*
X036734Y039385D02*
X036667Y039485D01*
X036600Y039385D01*
X036600Y039485D02*
X036800Y039485D01*
X036893Y039485D02*
X037094Y039485D01*
X037094Y039385D01*
X037060Y039352D01*
X036993Y039352D01*
X036960Y039385D01*
X036960Y039485D01*
X036960Y039573D02*
X037094Y039573D01*
X037160Y039639D01*
X037094Y039706D01*
X036960Y039706D01*
X037060Y039706D02*
X037060Y039573D01*
X036800Y039606D02*
X036767Y039573D01*
X036700Y039573D01*
X036667Y039606D01*
X036734Y039606D01*
X036734Y039673D01*
X036667Y039673D01*
X036667Y039606D01*
X036633Y039573D02*
X036600Y039606D01*
X036600Y039673D01*
X036633Y039706D01*
X036767Y039706D01*
X036800Y039673D01*
X036800Y039606D01*
X036993Y039264D02*
X037027Y039231D01*
X037027Y039131D01*
X037060Y039131D02*
X036960Y039131D01*
X036960Y039231D01*
X036993Y039264D01*
X037094Y039231D02*
X037094Y039164D01*
X037060Y039131D01*
X037320Y039164D02*
X037320Y039264D01*
X037520Y039264D01*
X037520Y039164D01*
X037487Y039131D01*
X037454Y039131D01*
X037420Y039164D01*
X037420Y039264D01*
X037387Y039352D02*
X037353Y039352D01*
X037320Y039385D01*
X037320Y039452D01*
X037353Y039485D01*
X037420Y039452D02*
X037420Y039385D01*
X037387Y039352D01*
X037487Y039352D02*
X037520Y039385D01*
X037520Y039452D01*
X037487Y039485D01*
X037454Y039485D01*
X037420Y039452D01*
X037353Y039573D02*
X037520Y039573D01*
X037520Y039706D02*
X037353Y039706D01*
X037320Y039673D01*
X037320Y039606D01*
X037353Y039573D01*
X037320Y039164D02*
X037353Y039131D01*
X037387Y039131D01*
X037420Y039164D01*
X036834Y037868D02*
X036800Y037868D01*
X036734Y037868D02*
X036600Y037868D01*
X036600Y037901D02*
X036600Y037835D01*
X036600Y037754D02*
X036734Y037754D01*
X036734Y037721D01*
X036700Y037687D01*
X036734Y037654D01*
X036700Y037620D01*
X036600Y037620D01*
X036600Y037687D02*
X036700Y037687D01*
X036700Y037533D02*
X036633Y037533D01*
X036600Y037500D01*
X036600Y037399D01*
X036600Y037312D02*
X036600Y037212D01*
X036633Y037179D01*
X036700Y037179D01*
X036734Y037212D01*
X036734Y037312D01*
X036533Y037312D01*
X036734Y037399D02*
X036734Y037500D01*
X036700Y037533D01*
X036734Y037868D02*
X036734Y037901D01*
X037320Y037533D02*
X037520Y037533D01*
X037454Y037500D02*
X037420Y037533D01*
X037454Y037500D02*
X037454Y037433D01*
X037420Y037399D01*
X037320Y037399D01*
X037353Y037312D02*
X037320Y037279D01*
X037320Y037179D01*
X037454Y037179D01*
X037454Y037091D02*
X037454Y036991D01*
X037420Y036958D01*
X037353Y036958D01*
X037320Y036991D01*
X037320Y037091D01*
X037520Y037091D01*
X037454Y037312D02*
X037353Y037312D01*
X035330Y037470D02*
X033440Y037470D01*
X032770Y038140D01*
X032770Y038376D01*
X032770Y039124D02*
X032770Y039360D01*
X033440Y040030D01*
X035330Y040030D01*
X035330Y039124D01*
X035330Y038376D02*
X035330Y037470D01*
X035211Y039124D02*
X035189Y039188D01*
X035162Y039251D01*
X035132Y039313D01*
X035099Y039372D01*
X035063Y039430D01*
X035023Y039486D01*
X034980Y039539D01*
X034935Y039590D01*
X034887Y039638D01*
X034836Y039683D01*
X034782Y039726D01*
X034726Y039765D01*
X034669Y039802D01*
X034609Y039835D01*
X034547Y039864D01*
X034484Y039890D01*
X034420Y039913D01*
X034354Y039932D01*
X034287Y039947D01*
X034220Y039958D01*
X034152Y039966D01*
X034084Y039970D01*
X034016Y039970D01*
X033948Y039966D01*
X033880Y039958D01*
X033813Y039947D01*
X033746Y039932D01*
X033680Y039913D01*
X033616Y039890D01*
X033553Y039864D01*
X033491Y039835D01*
X033431Y039802D01*
X033374Y039765D01*
X033318Y039726D01*
X033264Y039683D01*
X033213Y039638D01*
X033165Y039590D01*
X033120Y039539D01*
X033077Y039486D01*
X033037Y039430D01*
X033001Y039372D01*
X032968Y039313D01*
X032938Y039251D01*
X032911Y039188D01*
X032889Y039124D01*
X032867Y039826D02*
X032841Y039853D01*
X032867Y039826D02*
X032921Y039826D01*
X032947Y039853D01*
X032947Y039906D01*
X032921Y039933D01*
X032894Y039933D01*
X032841Y039906D01*
X032841Y039986D01*
X032947Y039986D01*
X033025Y039933D02*
X033078Y039986D01*
X033078Y039826D01*
X033025Y039826D02*
X033132Y039826D01*
X032763Y039853D02*
X032737Y039826D01*
X032683Y039826D01*
X032657Y039853D01*
X032657Y039960D01*
X032683Y039986D01*
X032737Y039986D01*
X032763Y039960D01*
X032889Y038376D02*
X032911Y038312D01*
X032938Y038249D01*
X032968Y038187D01*
X033001Y038128D01*
X033037Y038070D01*
X033077Y038014D01*
X033120Y037961D01*
X033165Y037910D01*
X033213Y037862D01*
X033264Y037817D01*
X033318Y037774D01*
X033374Y037735D01*
X033431Y037698D01*
X033491Y037665D01*
X033553Y037636D01*
X033616Y037610D01*
X033680Y037587D01*
X033746Y037568D01*
X033813Y037553D01*
X033880Y037542D01*
X033948Y037534D01*
X034016Y037530D01*
X034084Y037530D01*
X034152Y037534D01*
X034220Y037542D01*
X034287Y037553D01*
X034354Y037568D01*
X034420Y037587D01*
X034484Y037610D01*
X034547Y037636D01*
X034609Y037665D01*
X034669Y037698D01*
X034726Y037735D01*
X034782Y037774D01*
X034836Y037817D01*
X034887Y037862D01*
X034935Y037910D01*
X034980Y037961D01*
X035023Y038014D01*
X035063Y038070D01*
X035099Y038128D01*
X035132Y038187D01*
X035162Y038249D01*
X035189Y038312D01*
X035211Y038376D01*
D12*
X001531Y002003D02*
X001474Y002003D01*
X001502Y002003D02*
X001502Y002173D01*
X001474Y002173D02*
X001531Y002173D01*
X001597Y002173D02*
X001710Y002003D01*
X001710Y002173D01*
X001781Y002173D02*
X001866Y002173D01*
X001894Y002145D01*
X001894Y002088D01*
X001866Y002060D01*
X001781Y002060D01*
X001781Y002003D02*
X001781Y002173D01*
X001965Y002173D02*
X001965Y002031D01*
X001993Y002003D01*
X002050Y002003D01*
X002078Y002031D01*
X002078Y002173D01*
X002149Y002173D02*
X002263Y002173D01*
X002206Y002173D02*
X002206Y002003D01*
X001597Y002003D02*
X001597Y002173D01*
X001550Y006003D02*
X001493Y006003D01*
X001465Y006031D01*
X001465Y006173D01*
X001394Y006145D02*
X001394Y006088D01*
X001366Y006060D01*
X001281Y006060D01*
X001281Y006003D02*
X001281Y006173D01*
X001366Y006173D01*
X001394Y006145D01*
X001210Y006173D02*
X001210Y006003D01*
X001097Y006173D01*
X001097Y006003D01*
X001031Y006003D02*
X000974Y006003D01*
X001002Y006003D02*
X001002Y006173D01*
X000974Y006173D02*
X001031Y006173D01*
X001550Y006003D02*
X001578Y006031D01*
X001578Y006173D01*
X001649Y006173D02*
X001763Y006173D01*
X001706Y006173D02*
X001706Y006003D01*
X003529Y008953D02*
X003586Y008953D01*
X003615Y008981D01*
X003615Y009095D01*
X003586Y009123D01*
X003529Y009123D01*
X003501Y009095D01*
X003501Y008981D01*
X003529Y008953D01*
X003685Y008981D02*
X003714Y008953D01*
X003770Y008953D01*
X003799Y008981D01*
X003799Y009123D01*
X003869Y009123D02*
X003983Y009123D01*
X003926Y009123D02*
X003926Y008953D01*
X004054Y008953D02*
X004054Y009123D01*
X004139Y009123D01*
X004167Y009095D01*
X004167Y009038D01*
X004139Y009010D01*
X004054Y009010D01*
X004238Y008981D02*
X004266Y008953D01*
X004323Y008953D01*
X004351Y008981D01*
X004351Y009123D01*
X004422Y009123D02*
X004535Y009123D01*
X004479Y009123D02*
X004479Y008953D01*
X004238Y008981D02*
X004238Y009123D01*
X003685Y009123D02*
X003685Y008981D01*
X002206Y011853D02*
X002206Y012023D01*
X002149Y012023D02*
X002263Y012023D01*
X002078Y012023D02*
X002078Y011881D01*
X002050Y011853D01*
X001993Y011853D01*
X001965Y011881D01*
X001965Y012023D01*
X001894Y011995D02*
X001894Y011938D01*
X001866Y011910D01*
X001781Y011910D01*
X001781Y011853D02*
X001781Y012023D01*
X001866Y012023D01*
X001894Y011995D01*
X001710Y012023D02*
X001710Y011853D01*
X001597Y012023D01*
X001597Y011853D01*
X001531Y011853D02*
X001474Y011853D01*
X001502Y011853D02*
X001502Y012023D01*
X001474Y012023D02*
X001531Y012023D01*
X001493Y015853D02*
X001550Y015853D01*
X001578Y015881D01*
X001578Y016023D01*
X001649Y016023D02*
X001763Y016023D01*
X001706Y016023D02*
X001706Y015853D01*
X001493Y015853D02*
X001465Y015881D01*
X001465Y016023D01*
X001394Y015995D02*
X001394Y015938D01*
X001366Y015910D01*
X001281Y015910D01*
X001281Y015853D02*
X001281Y016023D01*
X001366Y016023D01*
X001394Y015995D01*
X001210Y016023D02*
X001210Y015853D01*
X001097Y016023D01*
X001097Y015853D01*
X001031Y015853D02*
X000974Y015853D01*
X001002Y015853D02*
X001002Y016023D01*
X000974Y016023D02*
X001031Y016023D01*
X003529Y018803D02*
X003586Y018803D01*
X003615Y018831D01*
X003615Y018945D01*
X003586Y018973D01*
X003529Y018973D01*
X003501Y018945D01*
X003501Y018831D01*
X003529Y018803D01*
X003685Y018831D02*
X003714Y018803D01*
X003770Y018803D01*
X003799Y018831D01*
X003799Y018973D01*
X003869Y018973D02*
X003983Y018973D01*
X003926Y018973D02*
X003926Y018803D01*
X004054Y018803D02*
X004054Y018973D01*
X004139Y018973D01*
X004167Y018945D01*
X004167Y018888D01*
X004139Y018860D01*
X004054Y018860D01*
X004238Y018831D02*
X004238Y018973D01*
X004351Y018973D02*
X004351Y018831D01*
X004323Y018803D01*
X004266Y018803D01*
X004238Y018831D01*
X004422Y018973D02*
X004535Y018973D01*
X004479Y018973D02*
X004479Y018803D01*
X003685Y018831D02*
X003685Y018973D01*
X002206Y021703D02*
X002206Y021873D01*
X002149Y021873D02*
X002263Y021873D01*
X002078Y021873D02*
X002078Y021731D01*
X002050Y021703D01*
X001993Y021703D01*
X001965Y021731D01*
X001965Y021873D01*
X001894Y021845D02*
X001894Y021788D01*
X001866Y021760D01*
X001781Y021760D01*
X001781Y021703D02*
X001781Y021873D01*
X001866Y021873D01*
X001894Y021845D01*
X001710Y021873D02*
X001710Y021703D01*
X001597Y021873D01*
X001597Y021703D01*
X001531Y021703D02*
X001474Y021703D01*
X001502Y021703D02*
X001502Y021873D01*
X001474Y021873D02*
X001531Y021873D01*
X001493Y025703D02*
X001550Y025703D01*
X001578Y025731D01*
X001578Y025873D01*
X001649Y025873D02*
X001763Y025873D01*
X001706Y025873D02*
X001706Y025703D01*
X001493Y025703D02*
X001465Y025731D01*
X001465Y025873D01*
X001394Y025845D02*
X001394Y025788D01*
X001366Y025760D01*
X001281Y025760D01*
X001281Y025703D02*
X001281Y025873D01*
X001366Y025873D01*
X001394Y025845D01*
X001210Y025873D02*
X001210Y025703D01*
X001097Y025873D01*
X001097Y025703D01*
X001031Y025703D02*
X000974Y025703D01*
X001002Y025703D02*
X001002Y025873D01*
X000974Y025873D02*
X001031Y025873D01*
X003529Y028653D02*
X003586Y028653D01*
X003615Y028681D01*
X003615Y028795D01*
X003586Y028823D01*
X003529Y028823D01*
X003501Y028795D01*
X003501Y028681D01*
X003529Y028653D01*
X003685Y028681D02*
X003714Y028653D01*
X003770Y028653D01*
X003799Y028681D01*
X003799Y028823D01*
X003869Y028823D02*
X003983Y028823D01*
X003926Y028823D02*
X003926Y028653D01*
X004054Y028653D02*
X004054Y028823D01*
X004139Y028823D01*
X004167Y028795D01*
X004167Y028738D01*
X004139Y028710D01*
X004054Y028710D01*
X004238Y028681D02*
X004266Y028653D01*
X004323Y028653D01*
X004351Y028681D01*
X004351Y028823D01*
X004422Y028823D02*
X004535Y028823D01*
X004479Y028823D02*
X004479Y028653D01*
X004238Y028681D02*
X004238Y028823D01*
X003685Y028823D02*
X003685Y028681D01*
X002206Y031553D02*
X002206Y031723D01*
X002149Y031723D02*
X002263Y031723D01*
X002078Y031723D02*
X002078Y031581D01*
X002050Y031553D01*
X001993Y031553D01*
X001965Y031581D01*
X001965Y031723D01*
X001894Y031695D02*
X001894Y031638D01*
X001866Y031610D01*
X001781Y031610D01*
X001781Y031553D02*
X001781Y031723D01*
X001866Y031723D01*
X001894Y031695D01*
X001710Y031723D02*
X001710Y031553D01*
X001597Y031723D01*
X001597Y031553D01*
X001531Y031553D02*
X001474Y031553D01*
X001502Y031553D02*
X001502Y031723D01*
X001474Y031723D02*
X001531Y031723D01*
X001493Y035553D02*
X001550Y035553D01*
X001578Y035581D01*
X001578Y035723D01*
X001649Y035723D02*
X001763Y035723D01*
X001706Y035723D02*
X001706Y035553D01*
X001493Y035553D02*
X001465Y035581D01*
X001465Y035723D01*
X001394Y035695D02*
X001394Y035638D01*
X001366Y035610D01*
X001281Y035610D01*
X001281Y035553D02*
X001281Y035723D01*
X001366Y035723D01*
X001394Y035695D01*
X001210Y035723D02*
X001210Y035553D01*
X001097Y035723D01*
X001097Y035553D01*
X001031Y035553D02*
X000974Y035553D01*
X001002Y035553D02*
X001002Y035723D01*
X000974Y035723D02*
X001031Y035723D01*
X003529Y038503D02*
X003586Y038503D01*
X003615Y038531D01*
X003615Y038645D01*
X003586Y038673D01*
X003529Y038673D01*
X003501Y038645D01*
X003501Y038531D01*
X003529Y038503D01*
X003685Y038531D02*
X003714Y038503D01*
X003770Y038503D01*
X003799Y038531D01*
X003799Y038673D01*
X003869Y038673D02*
X003983Y038673D01*
X003926Y038673D02*
X003926Y038503D01*
X004054Y038503D02*
X004054Y038673D01*
X004139Y038673D01*
X004167Y038645D01*
X004167Y038588D01*
X004139Y038560D01*
X004054Y038560D01*
X004238Y038531D02*
X004266Y038503D01*
X004323Y038503D01*
X004351Y038531D01*
X004351Y038673D01*
X004422Y038673D02*
X004535Y038673D01*
X004479Y038673D02*
X004479Y038503D01*
X004238Y038531D02*
X004238Y038673D01*
X003685Y038673D02*
X003685Y038531D01*
X006865Y038464D02*
X006865Y038379D01*
X006893Y038350D01*
X007007Y038350D01*
X007035Y038379D01*
X007035Y038464D01*
X006865Y038464D01*
X006893Y038280D02*
X006950Y038280D01*
X006978Y038251D01*
X006978Y038194D01*
X006950Y038166D01*
X006922Y038166D01*
X006922Y038280D01*
X006893Y038280D02*
X006865Y038251D01*
X006865Y038194D01*
X006865Y038095D02*
X006865Y038010D01*
X006893Y037982D01*
X006922Y038010D01*
X006922Y038067D01*
X006950Y038095D01*
X006978Y038067D01*
X006978Y037982D01*
X006978Y037911D02*
X006978Y037883D01*
X006865Y037883D01*
X006865Y037911D02*
X006865Y037855D01*
X006893Y037788D02*
X006865Y037760D01*
X006865Y037675D01*
X006837Y037675D02*
X006978Y037675D01*
X006978Y037760D01*
X006950Y037788D01*
X006893Y037788D01*
X006808Y037732D02*
X006808Y037703D01*
X006837Y037675D01*
X006865Y037604D02*
X006978Y037604D01*
X006978Y037519D01*
X006950Y037491D01*
X006865Y037491D01*
X006893Y037420D02*
X006950Y037420D01*
X006978Y037392D01*
X006978Y037335D01*
X006950Y037307D01*
X006922Y037307D01*
X006922Y037420D01*
X006893Y037420D02*
X006865Y037392D01*
X006865Y037335D01*
X006893Y037236D02*
X006950Y037236D01*
X006978Y037208D01*
X006978Y037123D01*
X007035Y037123D02*
X006865Y037123D01*
X006865Y037208D01*
X006893Y037236D01*
X006865Y036868D02*
X006865Y036811D01*
X006865Y036839D02*
X006978Y036839D01*
X006978Y036868D01*
X007035Y036839D02*
X007064Y036839D01*
X006978Y036745D02*
X006978Y036660D01*
X006950Y036631D01*
X006865Y036631D01*
X006865Y036745D02*
X006978Y036745D01*
X006978Y036377D02*
X006950Y036348D01*
X006950Y036292D01*
X006922Y036263D01*
X006893Y036263D01*
X006865Y036292D01*
X006865Y036348D01*
X006893Y036377D01*
X006978Y036377D02*
X007007Y036377D01*
X007035Y036348D01*
X007035Y036292D01*
X007007Y036263D01*
X006978Y036192D02*
X006978Y036164D01*
X006865Y036164D01*
X006865Y036192D02*
X006865Y036136D01*
X006865Y036070D02*
X006978Y036070D01*
X006978Y035985D01*
X006950Y035956D01*
X006865Y035956D01*
X006893Y035886D02*
X006865Y035857D01*
X006865Y035772D01*
X006837Y035772D02*
X006978Y035772D01*
X006978Y035857D01*
X006950Y035886D01*
X006893Y035886D01*
X006808Y035829D02*
X006808Y035800D01*
X006837Y035772D01*
X006893Y035701D02*
X006922Y035673D01*
X006922Y035588D01*
X006950Y035588D02*
X006865Y035588D01*
X006865Y035673D01*
X006893Y035701D01*
X006978Y035673D02*
X006978Y035616D01*
X006950Y035588D01*
X006978Y035517D02*
X006978Y035432D01*
X006950Y035404D01*
X006893Y035404D01*
X006865Y035432D01*
X006865Y035517D01*
X006808Y035517D02*
X006978Y035517D01*
X006950Y035333D02*
X006893Y035333D01*
X006865Y035305D01*
X006865Y035248D01*
X006893Y035220D01*
X006950Y035220D01*
X006978Y035248D01*
X006978Y035305D01*
X006950Y035333D01*
X006922Y035149D02*
X006978Y035092D01*
X006978Y035064D01*
X006950Y034995D02*
X006978Y034967D01*
X006978Y034910D01*
X006950Y034882D01*
X006922Y034882D01*
X006922Y034995D01*
X006950Y034995D02*
X006893Y034995D01*
X006865Y034967D01*
X006865Y034910D01*
X006865Y035149D02*
X006978Y035149D01*
X007007Y034627D02*
X006893Y034627D01*
X007007Y034514D01*
X006893Y034514D01*
X006865Y034542D01*
X006865Y034599D01*
X006893Y034627D01*
X007007Y034627D02*
X007035Y034599D01*
X007035Y034542D01*
X007007Y034514D01*
X007007Y034443D02*
X007035Y034415D01*
X007035Y034358D01*
X007007Y034330D01*
X006978Y034330D01*
X006950Y034358D01*
X006922Y034330D01*
X006893Y034330D01*
X006865Y034358D01*
X006865Y034415D01*
X006893Y034443D01*
X006950Y034386D02*
X006950Y034358D01*
X006865Y034259D02*
X007035Y034145D01*
X006978Y034075D02*
X007035Y034018D01*
X006865Y034018D01*
X006865Y034075D02*
X006865Y033961D01*
X006893Y033890D02*
X006865Y033862D01*
X006865Y033805D01*
X006893Y033777D01*
X006950Y033777D01*
X006978Y033805D01*
X006978Y033834D01*
X006950Y033890D01*
X007035Y033890D01*
X007035Y033777D01*
X007064Y036164D02*
X007035Y036164D01*
X007064Y037883D02*
X007035Y037883D01*
X007035Y028614D02*
X006865Y028614D01*
X006865Y028529D01*
X006893Y028500D01*
X007007Y028500D01*
X007035Y028529D01*
X007035Y028614D01*
X006950Y028430D02*
X006978Y028401D01*
X006978Y028344D01*
X006950Y028316D01*
X006922Y028316D01*
X006922Y028430D01*
X006950Y028430D02*
X006893Y028430D01*
X006865Y028401D01*
X006865Y028344D01*
X006865Y028245D02*
X006865Y028160D01*
X006893Y028132D01*
X006922Y028160D01*
X006922Y028217D01*
X006950Y028245D01*
X006978Y028217D01*
X006978Y028132D01*
X006978Y028061D02*
X006978Y028033D01*
X006865Y028033D01*
X006865Y028061D02*
X006865Y028005D01*
X006893Y027938D02*
X006865Y027910D01*
X006865Y027825D01*
X006837Y027825D02*
X006978Y027825D01*
X006978Y027910D01*
X006950Y027938D01*
X006893Y027938D01*
X006808Y027882D02*
X006808Y027853D01*
X006837Y027825D01*
X006865Y027754D02*
X006978Y027754D01*
X006978Y027669D01*
X006950Y027641D01*
X006865Y027641D01*
X006893Y027570D02*
X006950Y027570D01*
X006978Y027542D01*
X006978Y027485D01*
X006950Y027457D01*
X006922Y027457D01*
X006922Y027570D01*
X006893Y027570D02*
X006865Y027542D01*
X006865Y027485D01*
X006893Y027386D02*
X006950Y027386D01*
X006978Y027358D01*
X006978Y027273D01*
X007035Y027273D02*
X006865Y027273D01*
X006865Y027358D01*
X006893Y027386D01*
X006865Y027018D02*
X006865Y026961D01*
X006865Y026989D02*
X006978Y026989D01*
X006978Y027018D01*
X007035Y026989D02*
X007064Y026989D01*
X006978Y026895D02*
X006978Y026810D01*
X006950Y026781D01*
X006865Y026781D01*
X006865Y026895D02*
X006978Y026895D01*
X006978Y026527D02*
X006950Y026498D01*
X006950Y026442D01*
X006922Y026413D01*
X006893Y026413D01*
X006865Y026442D01*
X006865Y026498D01*
X006893Y026527D01*
X006978Y026527D02*
X007007Y026527D01*
X007035Y026498D01*
X007035Y026442D01*
X007007Y026413D01*
X006978Y026342D02*
X006978Y026314D01*
X006865Y026314D01*
X006865Y026342D02*
X006865Y026286D01*
X006865Y026220D02*
X006978Y026220D01*
X006978Y026135D01*
X006950Y026106D01*
X006865Y026106D01*
X006893Y026036D02*
X006865Y026007D01*
X006865Y025922D01*
X006837Y025922D02*
X006978Y025922D01*
X006978Y026007D01*
X006950Y026036D01*
X006893Y026036D01*
X006808Y025979D02*
X006808Y025950D01*
X006837Y025922D01*
X006893Y025851D02*
X006922Y025823D01*
X006922Y025738D01*
X006950Y025738D02*
X006865Y025738D01*
X006865Y025823D01*
X006893Y025851D01*
X006978Y025823D02*
X006978Y025766D01*
X006950Y025738D01*
X006978Y025667D02*
X006978Y025582D01*
X006950Y025554D01*
X006893Y025554D01*
X006865Y025582D01*
X006865Y025667D01*
X006808Y025667D02*
X006978Y025667D01*
X006950Y025483D02*
X006893Y025483D01*
X006865Y025455D01*
X006865Y025398D01*
X006893Y025370D01*
X006950Y025370D01*
X006978Y025398D01*
X006978Y025455D01*
X006950Y025483D01*
X006922Y025299D02*
X006978Y025242D01*
X006978Y025214D01*
X006950Y025145D02*
X006978Y025117D01*
X006978Y025060D01*
X006950Y025032D01*
X006922Y025032D01*
X006922Y025145D01*
X006950Y025145D02*
X006893Y025145D01*
X006865Y025117D01*
X006865Y025060D01*
X006865Y025299D02*
X006978Y025299D01*
X007007Y024777D02*
X006893Y024777D01*
X007007Y024664D01*
X006893Y024664D01*
X006865Y024692D01*
X006865Y024749D01*
X006893Y024777D01*
X007007Y024777D02*
X007035Y024749D01*
X007035Y024692D01*
X007007Y024664D01*
X007007Y024593D02*
X007035Y024565D01*
X007035Y024508D01*
X007007Y024480D01*
X006978Y024480D01*
X006950Y024508D01*
X006922Y024480D01*
X006893Y024480D01*
X006865Y024508D01*
X006865Y024565D01*
X006893Y024593D01*
X006950Y024536D02*
X006950Y024508D01*
X006865Y024409D02*
X007035Y024295D01*
X006978Y024225D02*
X007035Y024168D01*
X006865Y024168D01*
X006865Y024225D02*
X006865Y024111D01*
X006893Y024040D02*
X006865Y024012D01*
X006865Y023955D01*
X006893Y023927D01*
X006950Y023927D01*
X006978Y023955D01*
X006978Y023984D01*
X006950Y024040D01*
X007035Y024040D01*
X007035Y023927D01*
X007064Y026314D02*
X007035Y026314D01*
X007064Y028033D02*
X007035Y028033D01*
X007035Y018764D02*
X006865Y018764D01*
X006865Y018679D01*
X006893Y018650D01*
X007007Y018650D01*
X007035Y018679D01*
X007035Y018764D01*
X006950Y018580D02*
X006978Y018551D01*
X006978Y018494D01*
X006950Y018466D01*
X006922Y018466D01*
X006922Y018580D01*
X006950Y018580D02*
X006893Y018580D01*
X006865Y018551D01*
X006865Y018494D01*
X006865Y018395D02*
X006865Y018310D01*
X006893Y018282D01*
X006922Y018310D01*
X006922Y018367D01*
X006950Y018395D01*
X006978Y018367D01*
X006978Y018282D01*
X006978Y018211D02*
X006978Y018183D01*
X006865Y018183D01*
X006865Y018211D02*
X006865Y018155D01*
X006893Y018088D02*
X006865Y018060D01*
X006865Y017975D01*
X006837Y017975D02*
X006978Y017975D01*
X006978Y018060D01*
X006950Y018088D01*
X006893Y018088D01*
X006808Y018032D02*
X006808Y018003D01*
X006837Y017975D01*
X006865Y017904D02*
X006978Y017904D01*
X006978Y017819D01*
X006950Y017791D01*
X006865Y017791D01*
X006893Y017720D02*
X006950Y017720D01*
X006978Y017692D01*
X006978Y017635D01*
X006950Y017607D01*
X006922Y017607D01*
X006922Y017720D01*
X006893Y017720D02*
X006865Y017692D01*
X006865Y017635D01*
X006893Y017536D02*
X006950Y017536D01*
X006978Y017508D01*
X006978Y017423D01*
X007035Y017423D02*
X006865Y017423D01*
X006865Y017508D01*
X006893Y017536D01*
X006865Y017168D02*
X006865Y017111D01*
X006865Y017139D02*
X006978Y017139D01*
X006978Y017168D01*
X007035Y017139D02*
X007064Y017139D01*
X006978Y017045D02*
X006978Y016960D01*
X006950Y016931D01*
X006865Y016931D01*
X006865Y017045D02*
X006978Y017045D01*
X006978Y016677D02*
X006950Y016648D01*
X006950Y016592D01*
X006922Y016563D01*
X006893Y016563D01*
X006865Y016592D01*
X006865Y016648D01*
X006893Y016677D01*
X006978Y016677D02*
X007007Y016677D01*
X007035Y016648D01*
X007035Y016592D01*
X007007Y016563D01*
X006978Y016492D02*
X006978Y016464D01*
X006865Y016464D01*
X006865Y016492D02*
X006865Y016436D01*
X006865Y016370D02*
X006978Y016370D01*
X006978Y016285D01*
X006950Y016256D01*
X006865Y016256D01*
X006893Y016186D02*
X006865Y016157D01*
X006865Y016072D01*
X006837Y016072D02*
X006978Y016072D01*
X006978Y016157D01*
X006950Y016186D01*
X006893Y016186D01*
X006808Y016129D02*
X006808Y016100D01*
X006837Y016072D01*
X006893Y016001D02*
X006922Y015973D01*
X006922Y015888D01*
X006950Y015888D02*
X006865Y015888D01*
X006865Y015973D01*
X006893Y016001D01*
X006978Y015973D02*
X006978Y015916D01*
X006950Y015888D01*
X006978Y015817D02*
X006978Y015732D01*
X006950Y015704D01*
X006893Y015704D01*
X006865Y015732D01*
X006865Y015817D01*
X006808Y015817D02*
X006978Y015817D01*
X006950Y015633D02*
X006893Y015633D01*
X006865Y015605D01*
X006865Y015548D01*
X006893Y015520D01*
X006950Y015520D01*
X006978Y015548D01*
X006978Y015605D01*
X006950Y015633D01*
X006922Y015449D02*
X006978Y015392D01*
X006978Y015364D01*
X006950Y015295D02*
X006893Y015295D01*
X006865Y015267D01*
X006865Y015210D01*
X006922Y015182D02*
X006922Y015295D01*
X006950Y015295D02*
X006978Y015267D01*
X006978Y015210D01*
X006950Y015182D01*
X006922Y015182D01*
X006893Y014927D02*
X007007Y014927D01*
X007035Y014899D01*
X007035Y014842D01*
X007007Y014814D01*
X006893Y014927D01*
X006865Y014899D01*
X006865Y014842D01*
X006893Y014814D01*
X007007Y014814D01*
X007007Y014743D02*
X007035Y014715D01*
X007035Y014658D01*
X007007Y014630D01*
X006978Y014630D01*
X006950Y014658D01*
X006922Y014630D01*
X006893Y014630D01*
X006865Y014658D01*
X006865Y014715D01*
X006893Y014743D01*
X006950Y014686D02*
X006950Y014658D01*
X006865Y014559D02*
X007035Y014445D01*
X006978Y014375D02*
X007035Y014318D01*
X006865Y014318D01*
X006865Y014375D02*
X006865Y014261D01*
X006893Y014190D02*
X006865Y014162D01*
X006865Y014105D01*
X006893Y014077D01*
X006950Y014077D01*
X006978Y014105D01*
X006978Y014134D01*
X006950Y014190D01*
X007035Y014190D01*
X007035Y014077D01*
X006978Y015449D02*
X006865Y015449D01*
X007035Y016464D02*
X007064Y016464D01*
X007064Y018183D02*
X007035Y018183D01*
X007035Y008914D02*
X006865Y008914D01*
X006865Y008829D01*
X006893Y008800D01*
X007007Y008800D01*
X007035Y008829D01*
X007035Y008914D01*
X006950Y008730D02*
X006893Y008730D01*
X006865Y008701D01*
X006865Y008644D01*
X006922Y008616D02*
X006922Y008730D01*
X006950Y008730D02*
X006978Y008701D01*
X006978Y008644D01*
X006950Y008616D01*
X006922Y008616D01*
X006950Y008545D02*
X006978Y008517D01*
X006978Y008432D01*
X006922Y008460D02*
X006922Y008517D01*
X006950Y008545D01*
X006865Y008545D02*
X006865Y008460D01*
X006893Y008432D01*
X006922Y008460D01*
X006978Y008361D02*
X006978Y008333D01*
X006865Y008333D01*
X006865Y008361D02*
X006865Y008305D01*
X006893Y008238D02*
X006865Y008210D01*
X006865Y008125D01*
X006837Y008125D02*
X006978Y008125D01*
X006978Y008210D01*
X006950Y008238D01*
X006893Y008238D01*
X006808Y008182D02*
X006808Y008153D01*
X006837Y008125D01*
X006865Y008054D02*
X006978Y008054D01*
X006978Y007969D01*
X006950Y007941D01*
X006865Y007941D01*
X006893Y007870D02*
X006950Y007870D01*
X006978Y007842D01*
X006978Y007785D01*
X006950Y007757D01*
X006922Y007757D01*
X006922Y007870D01*
X006893Y007870D02*
X006865Y007842D01*
X006865Y007785D01*
X006893Y007686D02*
X006950Y007686D01*
X006978Y007658D01*
X006978Y007573D01*
X007035Y007573D02*
X006865Y007573D01*
X006865Y007658D01*
X006893Y007686D01*
X006865Y007318D02*
X006865Y007261D01*
X006865Y007289D02*
X006978Y007289D01*
X006978Y007318D01*
X007035Y007289D02*
X007064Y007289D01*
X006978Y007195D02*
X006865Y007195D01*
X006978Y007195D02*
X006978Y007110D01*
X006950Y007081D01*
X006865Y007081D01*
X006893Y006827D02*
X006865Y006798D01*
X006865Y006742D01*
X006893Y006713D01*
X006922Y006713D01*
X006950Y006742D01*
X006950Y006798D01*
X006978Y006827D01*
X007007Y006827D01*
X007035Y006798D01*
X007035Y006742D01*
X007007Y006713D01*
X006978Y006642D02*
X006978Y006614D01*
X006865Y006614D01*
X006865Y006642D02*
X006865Y006586D01*
X006865Y006520D02*
X006978Y006520D01*
X006978Y006435D01*
X006950Y006406D01*
X006865Y006406D01*
X006893Y006336D02*
X006865Y006307D01*
X006865Y006222D01*
X006837Y006222D02*
X006978Y006222D01*
X006978Y006307D01*
X006950Y006336D01*
X006893Y006336D01*
X006808Y006279D02*
X006808Y006250D01*
X006837Y006222D01*
X006893Y006151D02*
X006922Y006123D01*
X006922Y006038D01*
X006950Y006038D02*
X006865Y006038D01*
X006865Y006123D01*
X006893Y006151D01*
X006978Y006123D02*
X006978Y006066D01*
X006950Y006038D01*
X006978Y005967D02*
X006978Y005882D01*
X006950Y005854D01*
X006893Y005854D01*
X006865Y005882D01*
X006865Y005967D01*
X006808Y005967D02*
X006978Y005967D01*
X006950Y005783D02*
X006893Y005783D01*
X006865Y005755D01*
X006865Y005698D01*
X006893Y005670D01*
X006950Y005670D01*
X006978Y005698D01*
X006978Y005755D01*
X006950Y005783D01*
X006922Y005599D02*
X006978Y005542D01*
X006978Y005514D01*
X006950Y005445D02*
X006978Y005417D01*
X006978Y005360D01*
X006950Y005332D01*
X006922Y005332D01*
X006922Y005445D01*
X006950Y005445D02*
X006893Y005445D01*
X006865Y005417D01*
X006865Y005360D01*
X006865Y005599D02*
X006978Y005599D01*
X007007Y005077D02*
X006893Y005077D01*
X007007Y004964D01*
X006893Y004964D01*
X006865Y004992D01*
X006865Y005049D01*
X006893Y005077D01*
X007007Y005077D02*
X007035Y005049D01*
X007035Y004992D01*
X007007Y004964D01*
X007007Y004893D02*
X007035Y004865D01*
X007035Y004808D01*
X007007Y004780D01*
X006978Y004780D01*
X006950Y004808D01*
X006922Y004780D01*
X006893Y004780D01*
X006865Y004808D01*
X006865Y004865D01*
X006893Y004893D01*
X006950Y004836D02*
X006950Y004808D01*
X006865Y004709D02*
X007035Y004595D01*
X006978Y004525D02*
X007035Y004468D01*
X006865Y004468D01*
X006865Y004525D02*
X006865Y004411D01*
X006893Y004340D02*
X006865Y004312D01*
X006865Y004255D01*
X006893Y004227D01*
X006950Y004227D01*
X006978Y004255D01*
X006978Y004284D01*
X006950Y004340D01*
X007035Y004340D01*
X007035Y004227D01*
X007064Y006614D02*
X007035Y006614D01*
X007064Y008333D02*
X007035Y008333D01*
D13*
X005907Y009787D02*
X005907Y010014D01*
X006020Y009900D02*
X005793Y009900D01*
X001557Y005164D02*
X001557Y004937D01*
X001670Y005050D02*
X001443Y005050D01*
X001557Y014787D02*
X001557Y015014D01*
X001670Y014900D02*
X001443Y014900D01*
X005907Y019637D02*
X005907Y019864D01*
X006020Y019750D02*
X005793Y019750D01*
X001557Y024637D02*
X001557Y024864D01*
X001670Y024750D02*
X001443Y024750D01*
X005907Y029487D02*
X005907Y029714D01*
X006020Y029600D02*
X005793Y029600D01*
X001557Y034487D02*
X001557Y034714D01*
X001670Y034600D02*
X001443Y034600D01*
X005907Y039337D02*
X005907Y039564D01*
X006020Y039450D02*
X005793Y039450D01*
D14*
X007010Y039350D02*
X007010Y039210D01*
X007103Y039210D01*
X007157Y039210D02*
X007251Y039210D01*
X007204Y039210D02*
X007204Y039350D01*
X007157Y039303D01*
X007103Y039350D02*
X007010Y039350D01*
X007010Y039280D02*
X007057Y039280D01*
X009510Y039280D02*
X009557Y039280D01*
X009603Y039350D02*
X009510Y039350D01*
X009510Y039210D01*
X009657Y039210D02*
X009751Y039210D01*
X009704Y039210D02*
X009704Y039350D01*
X009657Y039303D01*
X014610Y039280D02*
X014657Y039280D01*
X014703Y039210D02*
X014610Y039210D01*
X014610Y039350D01*
X014703Y039350D01*
X014757Y039327D02*
X014781Y039350D01*
X014827Y039350D01*
X014851Y039327D01*
X014851Y039303D01*
X014757Y039210D01*
X014851Y039210D01*
X017110Y039210D02*
X017110Y039350D01*
X017203Y039350D01*
X017257Y039327D02*
X017281Y039350D01*
X017327Y039350D01*
X017351Y039327D01*
X017351Y039303D01*
X017257Y039210D01*
X017351Y039210D01*
X017157Y039280D02*
X017110Y039280D01*
X022210Y039280D02*
X022257Y039280D01*
X022303Y039210D02*
X022210Y039210D01*
X022210Y039350D01*
X022303Y039350D01*
X022357Y039327D02*
X022381Y039350D01*
X022427Y039350D01*
X022451Y039327D01*
X022451Y039303D01*
X022427Y039280D01*
X022451Y039257D01*
X022451Y039233D01*
X022427Y039210D01*
X022381Y039210D01*
X022357Y039233D01*
X022404Y039280D02*
X022427Y039280D01*
X024710Y039280D02*
X024757Y039280D01*
X024803Y039350D02*
X024710Y039350D01*
X024710Y039210D01*
X024857Y039233D02*
X024881Y039210D01*
X024927Y039210D01*
X024951Y039233D01*
X024951Y039257D01*
X024927Y039280D01*
X024904Y039280D01*
X024927Y039280D02*
X024951Y039303D01*
X024951Y039327D01*
X024927Y039350D01*
X024881Y039350D01*
X024857Y039327D01*
X029810Y039350D02*
X029810Y039210D01*
X029903Y039210D01*
X029857Y039280D02*
X029810Y039280D01*
X029810Y039350D02*
X029903Y039350D01*
X029957Y039280D02*
X030051Y039280D01*
X030027Y039210D02*
X030027Y039350D01*
X029957Y039280D01*
X032310Y039280D02*
X032357Y039280D01*
X032403Y039350D02*
X032310Y039350D01*
X032310Y039210D01*
X032457Y039280D02*
X032551Y039280D01*
X032527Y039210D02*
X032527Y039350D01*
X032457Y039280D01*
X032403Y029500D02*
X032310Y029500D01*
X032310Y029360D01*
X032310Y029430D02*
X032357Y029430D01*
X032457Y029430D02*
X032551Y029430D01*
X032527Y029360D02*
X032527Y029500D01*
X032457Y029430D01*
X030051Y029430D02*
X029957Y029430D01*
X030027Y029500D01*
X030027Y029360D01*
X029903Y029360D02*
X029810Y029360D01*
X029810Y029500D01*
X029903Y029500D01*
X029857Y029430D02*
X029810Y029430D01*
X024951Y029407D02*
X024951Y029383D01*
X024927Y029360D01*
X024881Y029360D01*
X024857Y029383D01*
X024904Y029430D02*
X024927Y029430D01*
X024951Y029407D01*
X024927Y029430D02*
X024951Y029453D01*
X024951Y029477D01*
X024927Y029500D01*
X024881Y029500D01*
X024857Y029477D01*
X024803Y029500D02*
X024710Y029500D01*
X024710Y029360D01*
X024710Y029430D02*
X024757Y029430D01*
X022451Y029407D02*
X022451Y029383D01*
X022427Y029360D01*
X022381Y029360D01*
X022357Y029383D01*
X022303Y029360D02*
X022210Y029360D01*
X022210Y029500D01*
X022303Y029500D01*
X022357Y029477D02*
X022381Y029500D01*
X022427Y029500D01*
X022451Y029477D01*
X022451Y029453D01*
X022427Y029430D01*
X022451Y029407D01*
X022427Y029430D02*
X022404Y029430D01*
X022257Y029430D02*
X022210Y029430D01*
X017351Y029453D02*
X017257Y029360D01*
X017351Y029360D01*
X017351Y029453D02*
X017351Y029477D01*
X017327Y029500D01*
X017281Y029500D01*
X017257Y029477D01*
X017203Y029500D02*
X017110Y029500D01*
X017110Y029360D01*
X017110Y029430D02*
X017157Y029430D01*
X014851Y029453D02*
X014757Y029360D01*
X014851Y029360D01*
X014851Y029453D02*
X014851Y029477D01*
X014827Y029500D01*
X014781Y029500D01*
X014757Y029477D01*
X014703Y029500D02*
X014610Y029500D01*
X014610Y029360D01*
X014703Y029360D01*
X014657Y029430D02*
X014610Y029430D01*
X009751Y029360D02*
X009657Y029360D01*
X009704Y029360D02*
X009704Y029500D01*
X009657Y029453D01*
X009603Y029500D02*
X009510Y029500D01*
X009510Y029360D01*
X009510Y029430D02*
X009557Y029430D01*
X007251Y029360D02*
X007157Y029360D01*
X007204Y029360D02*
X007204Y029500D01*
X007157Y029453D01*
X007103Y029500D02*
X007010Y029500D01*
X007010Y029360D01*
X007103Y029360D01*
X007057Y029430D02*
X007010Y029430D01*
X007010Y019650D02*
X007010Y019510D01*
X007103Y019510D01*
X007157Y019510D02*
X007251Y019510D01*
X007204Y019510D02*
X007204Y019650D01*
X007157Y019603D01*
X007103Y019650D02*
X007010Y019650D01*
X007010Y019580D02*
X007057Y019580D01*
X009510Y019580D02*
X009557Y019580D01*
X009603Y019650D02*
X009510Y019650D01*
X009510Y019510D01*
X009657Y019510D02*
X009751Y019510D01*
X009704Y019510D02*
X009704Y019650D01*
X009657Y019603D01*
X014610Y019580D02*
X014657Y019580D01*
X014703Y019510D02*
X014610Y019510D01*
X014610Y019650D01*
X014703Y019650D01*
X014757Y019627D02*
X014781Y019650D01*
X014827Y019650D01*
X014851Y019627D01*
X014851Y019603D01*
X014757Y019510D01*
X014851Y019510D01*
X017110Y019510D02*
X017110Y019650D01*
X017203Y019650D01*
X017257Y019627D02*
X017281Y019650D01*
X017327Y019650D01*
X017351Y019627D01*
X017351Y019603D01*
X017257Y019510D01*
X017351Y019510D01*
X017157Y019580D02*
X017110Y019580D01*
X022210Y019580D02*
X022257Y019580D01*
X022303Y019510D02*
X022210Y019510D01*
X022210Y019650D01*
X022303Y019650D01*
X022357Y019627D02*
X022381Y019650D01*
X022427Y019650D01*
X022451Y019627D01*
X022451Y019603D01*
X022427Y019580D01*
X022451Y019557D01*
X022451Y019533D01*
X022427Y019510D01*
X022381Y019510D01*
X022357Y019533D01*
X022404Y019580D02*
X022427Y019580D01*
X024710Y019580D02*
X024757Y019580D01*
X024803Y019650D02*
X024710Y019650D01*
X024710Y019510D01*
X024857Y019533D02*
X024881Y019510D01*
X024927Y019510D01*
X024951Y019533D01*
X024951Y019557D01*
X024927Y019580D01*
X024904Y019580D01*
X024927Y019580D02*
X024951Y019603D01*
X024951Y019627D01*
X024927Y019650D01*
X024881Y019650D01*
X024857Y019627D01*
X029810Y019650D02*
X029810Y019510D01*
X029903Y019510D01*
X029857Y019580D02*
X029810Y019580D01*
X029810Y019650D02*
X029903Y019650D01*
X029957Y019580D02*
X030051Y019580D01*
X030027Y019510D02*
X030027Y019650D01*
X029957Y019580D01*
X032310Y019580D02*
X032357Y019580D01*
X032403Y019650D02*
X032310Y019650D01*
X032310Y019510D01*
X032457Y019580D02*
X032551Y019580D01*
X032527Y019510D02*
X032527Y019650D01*
X032457Y019580D01*
X032403Y009800D02*
X032310Y009800D01*
X032310Y009660D01*
X032310Y009730D02*
X032357Y009730D01*
X032457Y009730D02*
X032551Y009730D01*
X032527Y009660D02*
X032527Y009800D01*
X032457Y009730D01*
X030051Y009730D02*
X029957Y009730D01*
X030027Y009800D01*
X030027Y009660D01*
X029903Y009660D02*
X029810Y009660D01*
X029810Y009800D01*
X029903Y009800D01*
X029857Y009730D02*
X029810Y009730D01*
X024951Y009707D02*
X024951Y009683D01*
X024927Y009660D01*
X024881Y009660D01*
X024857Y009683D01*
X024904Y009730D02*
X024927Y009730D01*
X024951Y009707D01*
X024927Y009730D02*
X024951Y009753D01*
X024951Y009777D01*
X024927Y009800D01*
X024881Y009800D01*
X024857Y009777D01*
X024803Y009800D02*
X024710Y009800D01*
X024710Y009660D01*
X024710Y009730D02*
X024757Y009730D01*
X022451Y009707D02*
X022451Y009683D01*
X022427Y009660D01*
X022381Y009660D01*
X022357Y009683D01*
X022303Y009660D02*
X022210Y009660D01*
X022210Y009800D01*
X022303Y009800D01*
X022357Y009777D02*
X022381Y009800D01*
X022427Y009800D01*
X022451Y009777D01*
X022451Y009753D01*
X022427Y009730D01*
X022451Y009707D01*
X022427Y009730D02*
X022404Y009730D01*
X022257Y009730D02*
X022210Y009730D01*
X017351Y009753D02*
X017257Y009660D01*
X017351Y009660D01*
X017351Y009753D02*
X017351Y009777D01*
X017327Y009800D01*
X017281Y009800D01*
X017257Y009777D01*
X017203Y009800D02*
X017110Y009800D01*
X017110Y009660D01*
X017110Y009730D02*
X017157Y009730D01*
X014851Y009753D02*
X014757Y009660D01*
X014851Y009660D01*
X014851Y009753D02*
X014851Y009777D01*
X014827Y009800D01*
X014781Y009800D01*
X014757Y009777D01*
X014703Y009800D02*
X014610Y009800D01*
X014610Y009660D01*
X014703Y009660D01*
X014657Y009730D02*
X014610Y009730D01*
X009751Y009660D02*
X009657Y009660D01*
X009704Y009660D02*
X009704Y009800D01*
X009657Y009753D01*
X009603Y009800D02*
X009510Y009800D01*
X009510Y009660D01*
X009510Y009730D02*
X009557Y009730D01*
X007251Y009660D02*
X007157Y009660D01*
X007204Y009660D02*
X007204Y009800D01*
X007157Y009753D01*
X007103Y009800D02*
X007010Y009800D01*
X007010Y009660D01*
X007103Y009660D01*
X007057Y009730D02*
X007010Y009730D01*
D15*
X008041Y008165D02*
X008041Y007535D01*
X007831Y007735D02*
X007704Y007735D01*
X007767Y007735D02*
X007767Y007925D01*
X007704Y007862D01*
X007610Y007925D02*
X007610Y007767D01*
X007578Y007735D01*
X007515Y007735D01*
X007483Y007767D01*
X007483Y007925D01*
X009159Y008165D02*
X009159Y007535D01*
X008740Y006060D02*
X013860Y006060D01*
X013885Y006060D02*
X013880Y001060D01*
X013050Y001100D02*
X011800Y001100D01*
X011550Y003600D01*
X011050Y003600D02*
X010800Y001100D01*
X009550Y001100D01*
X009300Y003600D01*
X007350Y002900D02*
X006550Y002900D01*
X008715Y001060D02*
X008710Y001050D01*
X008715Y001060D02*
X008715Y006060D01*
X011150Y006850D02*
X011150Y007650D01*
X010800Y010950D02*
X009550Y010950D01*
X009300Y013450D01*
X011050Y013450D02*
X010800Y010950D01*
X011800Y010950D02*
X011550Y013450D01*
X013300Y013450D02*
X013050Y010950D01*
X011800Y010950D01*
X013880Y010910D02*
X013885Y015910D01*
X013860Y015910D02*
X008740Y015910D01*
X008715Y015910D02*
X008715Y010910D01*
X008710Y010900D01*
X007350Y012750D02*
X006550Y012750D01*
X008041Y017385D02*
X008041Y018015D01*
X007831Y017775D02*
X007704Y017775D01*
X007704Y017680D01*
X007767Y017712D01*
X007799Y017712D01*
X007831Y017680D01*
X007831Y017617D01*
X007799Y017585D01*
X007736Y017585D01*
X007704Y017617D01*
X007610Y017617D02*
X007610Y017775D01*
X007483Y017775D02*
X007483Y017617D01*
X007515Y017585D01*
X007578Y017585D01*
X007610Y017617D01*
X009159Y017385D02*
X009159Y018015D01*
X011150Y017500D02*
X011150Y016700D01*
X010800Y020800D02*
X009550Y020800D01*
X009300Y023300D01*
X011050Y023300D02*
X010800Y020800D01*
X011800Y020800D02*
X011550Y023300D01*
X013300Y023300D02*
X013050Y020800D01*
X011800Y020800D01*
X013880Y020760D02*
X013885Y025760D01*
X013860Y025760D02*
X008740Y025760D01*
X008715Y025760D02*
X008715Y020760D01*
X008710Y020750D01*
X007350Y022600D02*
X006550Y022600D01*
X008041Y027235D02*
X008041Y027865D01*
X007799Y027625D02*
X007736Y027625D01*
X007704Y027593D01*
X007704Y027562D01*
X007736Y027530D01*
X007831Y027530D01*
X007831Y027467D02*
X007831Y027593D01*
X007799Y027625D01*
X007831Y027467D02*
X007799Y027435D01*
X007736Y027435D01*
X007704Y027467D01*
X007610Y027467D02*
X007610Y027625D01*
X007483Y027625D02*
X007483Y027467D01*
X007515Y027435D01*
X007578Y027435D01*
X007610Y027467D01*
X009159Y027235D02*
X009159Y027865D01*
X011150Y027350D02*
X011150Y026550D01*
X010800Y030650D02*
X009550Y030650D01*
X009300Y033150D01*
X011050Y033150D02*
X010800Y030650D01*
X011800Y030650D02*
X011550Y033150D01*
X013300Y033150D02*
X013050Y030650D01*
X011800Y030650D01*
X013880Y030610D02*
X013885Y035610D01*
X013860Y035610D02*
X008740Y035610D01*
X008715Y035610D02*
X008715Y030610D01*
X008710Y030600D01*
X007350Y032450D02*
X006550Y032450D01*
X008041Y037085D02*
X008041Y037715D01*
X007799Y037475D02*
X007831Y037443D01*
X007831Y037412D01*
X007799Y037380D01*
X007831Y037348D01*
X007831Y037317D01*
X007799Y037285D01*
X007736Y037285D01*
X007704Y037317D01*
X007767Y037380D02*
X007799Y037380D01*
X007799Y037475D02*
X007736Y037475D01*
X007704Y037443D01*
X007546Y037475D02*
X007546Y037285D01*
X007483Y037285D02*
X007610Y037285D01*
X007483Y037412D02*
X007546Y037475D01*
X007389Y037475D02*
X007389Y037317D01*
X007357Y037285D01*
X007294Y037285D01*
X007262Y037317D01*
X007262Y037475D01*
X009159Y037715D02*
X009159Y037085D01*
X011150Y037200D02*
X011150Y036400D01*
X015641Y037085D02*
X015641Y037715D01*
X016759Y037715D02*
X016759Y037085D01*
X016390Y035610D02*
X021510Y035610D01*
X021535Y035610D02*
X021530Y030610D01*
X020700Y030650D02*
X019450Y030650D01*
X019200Y033150D01*
X018700Y033150D02*
X018450Y030650D01*
X017200Y030650D01*
X016950Y033150D01*
X016365Y035610D02*
X016365Y030610D01*
X016360Y030600D01*
X016759Y027865D02*
X016759Y027235D01*
X015641Y027235D02*
X015641Y027865D01*
X016365Y025760D02*
X016365Y020760D01*
X016360Y020750D01*
X017200Y020800D02*
X018450Y020800D01*
X018700Y023300D01*
X019200Y023300D02*
X019450Y020800D01*
X020700Y020800D01*
X020950Y023300D01*
X021510Y025760D02*
X016390Y025760D01*
X018750Y026550D02*
X018750Y027350D01*
X021535Y025760D02*
X021530Y020760D01*
X023910Y020750D02*
X023915Y020760D01*
X023915Y025760D01*
X023940Y025760D02*
X029060Y025760D01*
X029085Y025760D02*
X029080Y020760D01*
X028250Y020800D02*
X027000Y020800D01*
X026750Y023300D01*
X026250Y023300D02*
X026000Y020800D01*
X024750Y020800D01*
X024500Y023300D01*
X026350Y026550D02*
X026350Y027350D01*
X024359Y027235D02*
X024359Y027865D01*
X023241Y027865D02*
X023241Y027235D01*
X023910Y030600D02*
X023915Y030610D01*
X023915Y035610D01*
X023940Y035610D02*
X029060Y035610D01*
X029085Y035610D02*
X029080Y030610D01*
X028250Y030650D02*
X027000Y030650D01*
X026750Y033150D01*
X026250Y033150D02*
X026000Y030650D01*
X024750Y030650D01*
X024500Y033150D01*
X026350Y036400D02*
X026350Y037200D01*
X024359Y037085D02*
X024359Y037715D01*
X023241Y037715D02*
X023241Y037085D01*
X020950Y033150D02*
X020700Y030650D01*
X018750Y036400D02*
X018750Y037200D01*
X028500Y033150D02*
X028250Y030650D01*
X030841Y027865D02*
X030841Y027235D01*
X031959Y027235D02*
X031959Y027865D01*
X034050Y027350D02*
X034050Y026550D01*
X031590Y025760D02*
X036710Y025760D01*
X036735Y025760D02*
X036730Y020760D01*
X035900Y020800D02*
X034650Y020800D01*
X034400Y023300D01*
X033900Y023300D02*
X033650Y020800D01*
X032400Y020800D01*
X032150Y023300D01*
X031565Y025760D02*
X031565Y020760D01*
X031560Y020750D01*
X031959Y018015D02*
X031959Y017385D01*
X030841Y017385D02*
X030841Y018015D01*
X031565Y015910D02*
X031565Y010910D01*
X031560Y010900D01*
X032400Y010950D02*
X033650Y010950D01*
X033900Y013450D01*
X034400Y013450D02*
X034650Y010950D01*
X035900Y010950D01*
X036150Y013450D01*
X036710Y015910D02*
X031590Y015910D01*
X032150Y013450D02*
X032400Y010950D01*
X031959Y008165D02*
X031959Y007535D01*
X030841Y007535D02*
X030841Y008165D01*
X031565Y006060D02*
X031565Y001060D01*
X031560Y001050D01*
X032400Y001100D02*
X033650Y001100D01*
X033900Y003600D01*
X034400Y003600D02*
X034650Y001100D01*
X035900Y001100D01*
X036150Y003600D01*
X036735Y006060D02*
X036730Y001060D01*
X032400Y001100D02*
X032150Y003600D01*
X031590Y006060D02*
X036710Y006060D01*
X034050Y006850D02*
X034050Y007650D01*
X036730Y010910D02*
X036735Y015910D01*
X034050Y016700D02*
X034050Y017500D01*
X035900Y020800D02*
X036150Y023300D01*
X036730Y030610D02*
X036735Y035610D01*
X036710Y035610D02*
X031590Y035610D01*
X031565Y035610D02*
X031565Y030610D01*
X031560Y030600D01*
X032400Y030650D02*
X033650Y030650D01*
X033900Y033150D01*
X034400Y033150D02*
X034650Y030650D01*
X035900Y030650D01*
X036150Y033150D01*
X034050Y036400D02*
X034050Y037200D01*
X031959Y037085D02*
X031959Y037715D01*
X030841Y037715D02*
X030841Y037085D01*
X032150Y033150D02*
X032400Y030650D01*
X028500Y023300D02*
X028250Y020800D01*
X026350Y017500D02*
X026350Y016700D01*
X024359Y017385D02*
X024359Y018015D01*
X023241Y018015D02*
X023241Y017385D01*
X023915Y015910D02*
X023915Y010910D01*
X023910Y010900D01*
X024750Y010950D02*
X026000Y010950D01*
X026250Y013450D01*
X026750Y013450D02*
X027000Y010950D01*
X028250Y010950D01*
X028500Y013450D01*
X029060Y015910D02*
X023940Y015910D01*
X021535Y015910D02*
X021530Y010910D01*
X020700Y010950D02*
X019450Y010950D01*
X019200Y013450D01*
X018700Y013450D02*
X018450Y010950D01*
X017200Y010950D01*
X016950Y013450D01*
X016390Y015910D02*
X021510Y015910D01*
X020950Y013450D02*
X020700Y010950D01*
X023241Y008165D02*
X023241Y007535D01*
X024359Y007535D02*
X024359Y008165D01*
X026350Y007650D02*
X026350Y006850D01*
X023940Y006060D02*
X029060Y006060D01*
X029085Y006060D02*
X029080Y001060D01*
X028250Y001100D02*
X027000Y001100D01*
X026750Y003600D01*
X026250Y003600D02*
X026000Y001100D01*
X024750Y001100D01*
X024500Y003600D01*
X023915Y006060D02*
X023915Y001060D01*
X023910Y001050D01*
X021530Y001060D02*
X021535Y006060D01*
X021510Y006060D02*
X016390Y006060D01*
X016365Y006060D02*
X016365Y001060D01*
X016360Y001050D01*
X017200Y001100D02*
X018450Y001100D01*
X018700Y003600D01*
X019200Y003600D02*
X019450Y001100D01*
X020700Y001100D01*
X020950Y003600D01*
X018750Y006850D02*
X018750Y007650D01*
X016759Y007535D02*
X016759Y008165D01*
X015641Y008165D02*
X015641Y007535D01*
X016360Y010900D02*
X016365Y010910D01*
X016365Y015910D01*
X016759Y017385D02*
X016759Y018015D01*
X015641Y018015D02*
X015641Y017385D01*
X018750Y017500D02*
X018750Y016700D01*
X017200Y020800D02*
X016950Y023300D01*
X024500Y013450D02*
X024750Y010950D01*
X029080Y010910D02*
X029085Y015910D01*
X028500Y003600D02*
X028250Y001100D01*
X017200Y001100D02*
X016950Y003600D01*
X013300Y003600D02*
X013050Y001100D01*
D16*
X012284Y006778D02*
X011694Y006778D01*
X012284Y006778D02*
X012284Y007722D01*
X011694Y007722D01*
X010906Y007722D02*
X010473Y007722D01*
X010316Y007565D01*
X010316Y006935D01*
X010473Y006778D01*
X010906Y006778D01*
X009150Y009400D02*
X008650Y009400D01*
X008400Y009650D01*
X008150Y009400D01*
X007650Y009400D01*
X007400Y009650D01*
X007400Y010150D01*
X007650Y010400D01*
X008150Y010400D01*
X008400Y010150D01*
X008650Y010400D01*
X009150Y010400D01*
X009400Y010150D01*
X009400Y009650D01*
X009150Y009400D01*
X007422Y011616D02*
X006478Y011616D01*
X006478Y012206D01*
X006478Y012994D02*
X006478Y013427D01*
X006635Y013584D01*
X007265Y013584D01*
X007422Y013427D01*
X007422Y012994D01*
X007422Y012206D02*
X007422Y011616D01*
X005862Y011631D02*
X002438Y011631D01*
X002438Y015964D01*
X003205Y015964D01*
X002672Y016911D02*
X002042Y016911D01*
X002672Y016911D02*
X002672Y017384D01*
X002121Y017384D01*
X002121Y019116D01*
X002672Y019116D01*
X002672Y019589D01*
X002042Y019589D01*
X000979Y019589D02*
X000979Y016911D01*
X001300Y014650D02*
X001050Y014400D01*
X001050Y013900D01*
X001300Y013650D01*
X001050Y013400D01*
X001050Y012900D01*
X001300Y012650D01*
X001800Y012650D01*
X002050Y012900D01*
X002050Y013400D01*
X001800Y013650D01*
X002050Y013900D01*
X002050Y014400D01*
X001800Y014650D01*
X001300Y014650D01*
X005095Y015964D02*
X005862Y015964D01*
X005862Y015468D01*
X005862Y013618D02*
X005862Y011631D01*
X005420Y010380D02*
X004920Y010380D01*
X004670Y010130D01*
X004420Y010380D01*
X003920Y010380D01*
X003670Y010130D01*
X003670Y009630D01*
X003920Y009380D01*
X004420Y009380D01*
X004670Y009630D01*
X004920Y009380D01*
X005420Y009380D01*
X005670Y009630D01*
X005670Y010130D01*
X005420Y010380D01*
X005419Y008017D02*
X005600Y008017D01*
X005692Y007895D01*
X005781Y008017D02*
X005600Y008017D01*
X005590Y008011D02*
X005514Y007895D01*
X005862Y006114D02*
X005095Y006114D01*
X005862Y006114D02*
X005862Y005618D01*
X005862Y003768D02*
X005862Y001781D01*
X002438Y001781D01*
X002438Y006114D01*
X003205Y006114D01*
X002672Y007061D02*
X002042Y007061D01*
X002121Y007534D02*
X002672Y007534D01*
X002672Y007061D01*
X002121Y007534D02*
X002121Y009266D01*
X002672Y009266D01*
X002672Y009739D01*
X002042Y009739D01*
X000979Y009739D02*
X000979Y007061D01*
X001300Y004800D02*
X001050Y004550D01*
X001050Y004050D01*
X001300Y003800D01*
X001050Y003550D01*
X001050Y003050D01*
X001300Y002800D01*
X001800Y002800D01*
X002050Y003050D01*
X002050Y003550D01*
X001800Y003800D01*
X002050Y004050D01*
X002050Y004550D01*
X001800Y004800D01*
X001300Y004800D01*
X006478Y003577D02*
X006478Y003144D01*
X006478Y003577D02*
X006635Y003734D01*
X007265Y003734D01*
X007422Y003577D01*
X007422Y003144D01*
X007422Y002356D02*
X007422Y001766D01*
X006478Y001766D01*
X006478Y002356D01*
X015000Y009650D02*
X015250Y009400D01*
X015750Y009400D01*
X016000Y009650D01*
X016250Y009400D01*
X016750Y009400D01*
X017000Y009650D01*
X017000Y010150D01*
X016750Y010400D01*
X016250Y010400D01*
X016000Y010150D01*
X015750Y010400D01*
X015250Y010400D01*
X015000Y010150D01*
X015000Y009650D01*
X017916Y007565D02*
X017916Y006935D01*
X018073Y006778D01*
X018506Y006778D01*
X019294Y006778D02*
X019884Y006778D01*
X019884Y007722D01*
X019294Y007722D01*
X018506Y007722D02*
X018073Y007722D01*
X017916Y007565D01*
X022600Y009650D02*
X022850Y009400D01*
X023350Y009400D01*
X023600Y009650D01*
X023850Y009400D01*
X024350Y009400D01*
X024600Y009650D01*
X024600Y010150D01*
X024350Y010400D01*
X023850Y010400D01*
X023600Y010150D01*
X023350Y010400D01*
X022850Y010400D01*
X022600Y010150D01*
X022600Y009650D01*
X025516Y007565D02*
X025516Y006935D01*
X025673Y006778D01*
X026106Y006778D01*
X026894Y006778D02*
X027484Y006778D01*
X027484Y007722D01*
X026894Y007722D01*
X026106Y007722D02*
X025673Y007722D01*
X025516Y007565D01*
X030200Y009650D02*
X030450Y009400D01*
X030950Y009400D01*
X031200Y009650D01*
X031450Y009400D01*
X031950Y009400D01*
X032200Y009650D01*
X032200Y010150D01*
X031950Y010400D01*
X031450Y010400D01*
X031200Y010150D01*
X030950Y010400D01*
X030450Y010400D01*
X030200Y010150D01*
X030200Y009650D01*
X033216Y007565D02*
X033216Y006935D01*
X033373Y006778D01*
X033806Y006778D01*
X034594Y006778D02*
X035184Y006778D01*
X035184Y007722D01*
X034594Y007722D01*
X033806Y007722D02*
X033373Y007722D01*
X033216Y007565D01*
X033373Y016628D02*
X033216Y016785D01*
X033216Y017415D01*
X033373Y017572D01*
X033806Y017572D01*
X034594Y017572D02*
X035184Y017572D01*
X035184Y016628D01*
X034594Y016628D01*
X033806Y016628D02*
X033373Y016628D01*
X031950Y019250D02*
X031450Y019250D01*
X031200Y019500D01*
X030950Y019250D01*
X030450Y019250D01*
X030200Y019500D01*
X030200Y020000D01*
X030450Y020250D01*
X030950Y020250D01*
X031200Y020000D01*
X031450Y020250D01*
X031950Y020250D01*
X032200Y020000D01*
X032200Y019500D01*
X031950Y019250D01*
X027484Y017572D02*
X027484Y016628D01*
X026894Y016628D01*
X026106Y016628D02*
X025673Y016628D01*
X025516Y016785D01*
X025516Y017415D01*
X025673Y017572D01*
X026106Y017572D01*
X026894Y017572D02*
X027484Y017572D01*
X024600Y019500D02*
X024600Y020000D01*
X024350Y020250D01*
X023850Y020250D01*
X023600Y020000D01*
X023350Y020250D01*
X022850Y020250D01*
X022600Y020000D01*
X022600Y019500D01*
X022850Y019250D01*
X023350Y019250D01*
X023600Y019500D01*
X023850Y019250D01*
X024350Y019250D01*
X024600Y019500D01*
X019884Y017572D02*
X019884Y016628D01*
X019294Y016628D01*
X018506Y016628D02*
X018073Y016628D01*
X017916Y016785D01*
X017916Y017415D01*
X018073Y017572D01*
X018506Y017572D01*
X019294Y017572D02*
X019884Y017572D01*
X017000Y019500D02*
X017000Y020000D01*
X016750Y020250D01*
X016250Y020250D01*
X016000Y020000D01*
X015750Y020250D01*
X015250Y020250D01*
X015000Y020000D01*
X015000Y019500D01*
X015250Y019250D01*
X015750Y019250D01*
X016000Y019500D01*
X016250Y019250D01*
X016750Y019250D01*
X017000Y019500D01*
X012284Y017572D02*
X012284Y016628D01*
X011694Y016628D01*
X010906Y016628D02*
X010473Y016628D01*
X010316Y016785D01*
X010316Y017415D01*
X010473Y017572D01*
X010906Y017572D01*
X011694Y017572D02*
X012284Y017572D01*
X009400Y019500D02*
X009400Y020000D01*
X009150Y020250D01*
X008650Y020250D01*
X008400Y020000D01*
X008150Y020250D01*
X007650Y020250D01*
X007400Y020000D01*
X007400Y019500D01*
X007650Y019250D01*
X008150Y019250D01*
X008400Y019500D01*
X008650Y019250D01*
X009150Y019250D01*
X009400Y019500D01*
X007422Y021466D02*
X006478Y021466D01*
X006478Y022056D01*
X005862Y021481D02*
X002438Y021481D01*
X002438Y025814D01*
X003205Y025814D01*
X002672Y026761D02*
X002042Y026761D01*
X002121Y027234D02*
X002672Y027234D01*
X002672Y026761D01*
X002121Y027234D02*
X002121Y028966D01*
X002672Y028966D01*
X002672Y029439D01*
X002042Y029439D01*
X000979Y029439D02*
X000979Y026761D01*
X001300Y024500D02*
X001050Y024250D01*
X001050Y023750D01*
X001300Y023500D01*
X001050Y023250D01*
X001050Y022750D01*
X001300Y022500D01*
X001800Y022500D01*
X002050Y022750D01*
X002050Y023250D01*
X001800Y023500D01*
X002050Y023750D01*
X002050Y024250D01*
X001800Y024500D01*
X001300Y024500D01*
X005095Y025814D02*
X005862Y025814D01*
X005862Y025318D01*
X005862Y023468D02*
X005862Y021481D01*
X005420Y020230D02*
X004920Y020230D01*
X004670Y019980D01*
X004420Y020230D01*
X003920Y020230D01*
X003670Y019980D01*
X003670Y019480D01*
X003920Y019230D01*
X004420Y019230D01*
X004670Y019480D01*
X004920Y019230D01*
X005420Y019230D01*
X005670Y019480D01*
X005670Y019980D01*
X005420Y020230D01*
X007422Y021466D02*
X007422Y022056D01*
X007422Y022844D02*
X007422Y023277D01*
X007265Y023434D01*
X006635Y023434D01*
X006478Y023277D01*
X006478Y022844D01*
X010316Y026635D02*
X010473Y026478D01*
X010906Y026478D01*
X010316Y026635D02*
X010316Y027265D01*
X010473Y027422D01*
X010906Y027422D01*
X011694Y027422D02*
X012284Y027422D01*
X012284Y026478D01*
X011694Y026478D01*
X009150Y029100D02*
X008650Y029100D01*
X008400Y029350D01*
X008150Y029100D01*
X007650Y029100D01*
X007400Y029350D01*
X007400Y029850D01*
X007650Y030100D01*
X008150Y030100D01*
X008400Y029850D01*
X008650Y030100D01*
X009150Y030100D01*
X009400Y029850D01*
X009400Y029350D01*
X009150Y029100D01*
X007422Y031316D02*
X006478Y031316D01*
X006478Y031906D01*
X006478Y032694D02*
X006478Y033127D01*
X006635Y033284D01*
X007265Y033284D01*
X007422Y033127D01*
X007422Y032694D01*
X007422Y031906D02*
X007422Y031316D01*
X005862Y031331D02*
X002438Y031331D01*
X002438Y035664D01*
X003205Y035664D01*
X002672Y036611D02*
X002042Y036611D01*
X002121Y037084D02*
X002672Y037084D01*
X002672Y036611D01*
X002121Y037084D02*
X002121Y038816D01*
X002672Y038816D01*
X002672Y039289D01*
X002042Y039289D01*
X000979Y039289D02*
X000979Y036611D01*
X001300Y034350D02*
X001050Y034100D01*
X001050Y033600D01*
X001300Y033350D01*
X001050Y033100D01*
X001050Y032600D01*
X001300Y032350D01*
X001800Y032350D01*
X002050Y032600D01*
X002050Y033100D01*
X001800Y033350D01*
X002050Y033600D01*
X002050Y034100D01*
X001800Y034350D01*
X001300Y034350D01*
X005095Y035664D02*
X005862Y035664D01*
X005862Y035168D01*
X005862Y033318D02*
X005862Y031331D01*
X005420Y030080D02*
X004920Y030080D01*
X004670Y029830D01*
X004420Y030080D01*
X003920Y030080D01*
X003670Y029830D01*
X003670Y029330D01*
X003920Y029080D01*
X004420Y029080D01*
X004670Y029330D01*
X004920Y029080D01*
X005420Y029080D01*
X005670Y029330D01*
X005670Y029830D01*
X005420Y030080D01*
X005419Y027717D02*
X005600Y027717D01*
X005692Y027595D01*
X005781Y027717D02*
X005600Y027717D01*
X005590Y027711D02*
X005514Y027595D01*
X010473Y036328D02*
X010316Y036485D01*
X010316Y037115D01*
X010473Y037272D01*
X010906Y037272D01*
X011694Y037272D02*
X012284Y037272D01*
X012284Y036328D01*
X011694Y036328D01*
X010906Y036328D02*
X010473Y036328D01*
X009150Y038950D02*
X008650Y038950D01*
X008400Y039200D01*
X008150Y038950D01*
X007650Y038950D01*
X007400Y039200D01*
X007400Y039700D01*
X007650Y039950D01*
X008150Y039950D01*
X008400Y039700D01*
X008650Y039950D01*
X009150Y039950D01*
X009400Y039700D01*
X009400Y039200D01*
X009150Y038950D01*
X005781Y037567D02*
X005600Y037567D01*
X005692Y037445D01*
X005600Y037567D02*
X005419Y037567D01*
X005514Y037445D02*
X005590Y037561D01*
X005420Y038930D02*
X004920Y038930D01*
X004670Y039180D01*
X004420Y038930D01*
X003920Y038930D01*
X003670Y039180D01*
X003670Y039680D01*
X003920Y039930D01*
X004420Y039930D01*
X004670Y039680D01*
X004920Y039930D01*
X005420Y039930D01*
X005670Y039680D01*
X005670Y039180D01*
X005420Y038930D01*
X015000Y039200D02*
X015250Y038950D01*
X015750Y038950D01*
X016000Y039200D01*
X016250Y038950D01*
X016750Y038950D01*
X017000Y039200D01*
X017000Y039700D01*
X016750Y039950D01*
X016250Y039950D01*
X016000Y039700D01*
X015750Y039950D01*
X015250Y039950D01*
X015000Y039700D01*
X015000Y039200D01*
X017916Y037115D02*
X017916Y036485D01*
X018073Y036328D01*
X018506Y036328D01*
X019294Y036328D02*
X019884Y036328D01*
X019884Y037272D01*
X019294Y037272D01*
X018506Y037272D02*
X018073Y037272D01*
X017916Y037115D01*
X022600Y039200D02*
X022850Y038950D01*
X023350Y038950D01*
X023600Y039200D01*
X023850Y038950D01*
X024350Y038950D01*
X024600Y039200D01*
X024600Y039700D01*
X024350Y039950D01*
X023850Y039950D01*
X023600Y039700D01*
X023350Y039950D01*
X022850Y039950D01*
X022600Y039700D01*
X022600Y039200D01*
X025516Y037115D02*
X025516Y036485D01*
X025673Y036328D01*
X026106Y036328D01*
X026894Y036328D02*
X027484Y036328D01*
X027484Y037272D01*
X026894Y037272D01*
X026106Y037272D02*
X025673Y037272D01*
X025516Y037115D01*
X030200Y039200D02*
X030450Y038950D01*
X030950Y038950D01*
X031200Y039200D01*
X031450Y038950D01*
X031950Y038950D01*
X032200Y039200D01*
X032200Y039700D01*
X031950Y039950D01*
X031450Y039950D01*
X031200Y039700D01*
X030950Y039950D01*
X030450Y039950D01*
X030200Y039700D01*
X030200Y039200D01*
X033216Y037115D02*
X033216Y036485D01*
X033373Y036328D01*
X033806Y036328D01*
X034594Y036328D02*
X035184Y036328D01*
X035184Y037272D01*
X034594Y037272D01*
X033806Y037272D02*
X033373Y037272D01*
X033216Y037115D01*
X031950Y030100D02*
X031450Y030100D01*
X031200Y029850D01*
X030950Y030100D01*
X030450Y030100D01*
X030200Y029850D01*
X030200Y029350D01*
X030450Y029100D01*
X030950Y029100D01*
X031200Y029350D01*
X031450Y029100D01*
X031950Y029100D01*
X032200Y029350D01*
X032200Y029850D01*
X031950Y030100D01*
X033373Y027422D02*
X033216Y027265D01*
X033216Y026635D01*
X033373Y026478D01*
X033806Y026478D01*
X034594Y026478D02*
X035184Y026478D01*
X035184Y027422D01*
X034594Y027422D01*
X033806Y027422D02*
X033373Y027422D01*
X027484Y027422D02*
X027484Y026478D01*
X026894Y026478D01*
X026106Y026478D02*
X025673Y026478D01*
X025516Y026635D01*
X025516Y027265D01*
X025673Y027422D01*
X026106Y027422D01*
X026894Y027422D02*
X027484Y027422D01*
X024600Y029350D02*
X024600Y029850D01*
X024350Y030100D01*
X023850Y030100D01*
X023600Y029850D01*
X023350Y030100D01*
X022850Y030100D01*
X022600Y029850D01*
X022600Y029350D01*
X022850Y029100D01*
X023350Y029100D01*
X023600Y029350D01*
X023850Y029100D01*
X024350Y029100D01*
X024600Y029350D01*
X019884Y027422D02*
X019884Y026478D01*
X019294Y026478D01*
X018506Y026478D02*
X018073Y026478D01*
X017916Y026635D01*
X017916Y027265D01*
X018073Y027422D01*
X018506Y027422D01*
X019294Y027422D02*
X019884Y027422D01*
X017000Y029350D02*
X017000Y029850D01*
X016750Y030100D01*
X016250Y030100D01*
X016000Y029850D01*
X015750Y030100D01*
X015250Y030100D01*
X015000Y029850D01*
X015000Y029350D01*
X015250Y029100D01*
X015750Y029100D01*
X016000Y029350D01*
X016250Y029100D01*
X016750Y029100D01*
X017000Y029350D01*
X005781Y017867D02*
X005600Y017867D01*
X005692Y017745D01*
X005600Y017867D02*
X005419Y017867D01*
X005514Y017745D02*
X005590Y017861D01*
D17*
X005233Y018095D02*
X005133Y018095D01*
X005233Y018195D01*
X005233Y018220D01*
X005208Y018245D01*
X005158Y018245D01*
X005133Y018220D01*
X005085Y018220D02*
X005060Y018245D01*
X004985Y018245D01*
X004985Y018095D01*
X005060Y018095D01*
X005085Y018120D01*
X005085Y018220D01*
X005905Y018730D02*
X005905Y018880D01*
X005980Y018880D01*
X006005Y018855D01*
X006005Y018805D01*
X005980Y018780D01*
X005905Y018780D01*
X005955Y018780D02*
X006005Y018730D01*
X006052Y018730D02*
X006152Y018730D01*
X006102Y018730D02*
X006102Y018880D01*
X006052Y018830D01*
X006200Y018855D02*
X006225Y018880D01*
X006275Y018880D01*
X006300Y018855D01*
X006200Y018755D01*
X006225Y018730D01*
X006275Y018730D01*
X006300Y018755D01*
X006300Y018855D01*
X006200Y018855D02*
X006200Y018755D01*
X007510Y018770D02*
X007510Y018920D01*
X007585Y018920D01*
X007610Y018895D01*
X007610Y018845D01*
X007585Y018820D01*
X007510Y018820D01*
X007560Y018820D02*
X007610Y018770D01*
X007658Y018795D02*
X007683Y018770D01*
X007733Y018770D01*
X007758Y018795D01*
X007758Y018820D01*
X007733Y018845D01*
X007658Y018845D01*
X007658Y018795D01*
X007658Y018845D02*
X007708Y018895D01*
X007758Y018920D01*
X007802Y016555D02*
X007802Y016405D01*
X007752Y016405D02*
X007852Y016405D01*
X007900Y016430D02*
X007925Y016405D01*
X007975Y016405D01*
X008000Y016430D01*
X008000Y016480D01*
X007975Y016505D01*
X007950Y016505D01*
X007900Y016480D01*
X007900Y016555D01*
X008000Y016555D01*
X007802Y016555D02*
X007752Y016505D01*
X007705Y016530D02*
X007680Y016555D01*
X007630Y016555D01*
X007605Y016530D01*
X007605Y016430D01*
X007630Y016405D01*
X007680Y016405D01*
X007705Y016430D01*
X003902Y017355D02*
X003802Y017355D01*
X003902Y017455D01*
X003902Y017480D01*
X003877Y017505D01*
X003827Y017505D01*
X003802Y017480D01*
X003755Y017505D02*
X003655Y017505D01*
X003655Y017355D01*
X003655Y017430D02*
X003705Y017430D01*
X002522Y021305D02*
X002547Y021330D01*
X002547Y021355D01*
X002522Y021380D01*
X002447Y021380D01*
X002447Y021330D01*
X002472Y021305D01*
X002522Y021305D01*
X002447Y021380D02*
X002497Y021430D01*
X002547Y021455D01*
X002400Y021430D02*
X002375Y021455D01*
X002325Y021455D01*
X002300Y021430D01*
X002252Y021430D02*
X002252Y021380D01*
X002227Y021355D01*
X002152Y021355D01*
X002152Y021305D02*
X002152Y021455D01*
X002227Y021455D01*
X002252Y021430D01*
X002300Y021305D02*
X002400Y021405D01*
X002400Y021430D01*
X002400Y021305D02*
X002300Y021305D01*
X002080Y021330D02*
X002080Y021455D01*
X002055Y021455D02*
X002105Y021455D01*
X002080Y021330D02*
X002055Y021305D01*
X002030Y021305D01*
X002005Y021330D01*
X005919Y021720D02*
X005944Y021695D01*
X005994Y021695D01*
X006019Y021720D01*
X006067Y021695D02*
X006167Y021795D01*
X006167Y021820D01*
X006142Y021845D01*
X006092Y021845D01*
X006067Y021820D01*
X006019Y021820D02*
X005994Y021845D01*
X005944Y021845D01*
X005919Y021820D01*
X005919Y021720D01*
X006067Y021695D02*
X006167Y021695D01*
X006214Y021695D02*
X006214Y021720D01*
X006314Y021820D01*
X006314Y021845D01*
X006214Y021845D01*
X007630Y026255D02*
X007680Y026255D01*
X007705Y026280D01*
X007752Y026255D02*
X007852Y026355D01*
X007852Y026380D01*
X007827Y026405D01*
X007777Y026405D01*
X007752Y026380D01*
X007705Y026380D02*
X007680Y026405D01*
X007630Y026405D01*
X007605Y026380D01*
X007605Y026280D01*
X007630Y026255D01*
X007752Y026255D02*
X007852Y026255D01*
X007900Y026280D02*
X007900Y026305D01*
X007925Y026330D01*
X007975Y026330D01*
X008000Y026305D01*
X008000Y026280D01*
X007975Y026255D01*
X007925Y026255D01*
X007900Y026280D01*
X007925Y026330D02*
X007900Y026355D01*
X007900Y026380D01*
X007925Y026405D01*
X007975Y026405D01*
X008000Y026380D01*
X008000Y026355D01*
X007975Y026330D01*
X007758Y028620D02*
X007658Y028620D01*
X007610Y028620D02*
X007510Y028620D01*
X007463Y028620D02*
X007413Y028670D01*
X007438Y028670D02*
X007363Y028670D01*
X007363Y028620D02*
X007363Y028770D01*
X007438Y028770D01*
X007463Y028745D01*
X007463Y028695D01*
X007438Y028670D01*
X007510Y028720D02*
X007560Y028770D01*
X007560Y028620D01*
X007658Y028720D02*
X007708Y028770D01*
X007708Y028620D01*
X006300Y028605D02*
X006275Y028580D01*
X006225Y028580D01*
X006200Y028605D01*
X006200Y028655D02*
X006250Y028680D01*
X006275Y028680D01*
X006300Y028655D01*
X006300Y028605D01*
X006200Y028655D02*
X006200Y028730D01*
X006300Y028730D01*
X006102Y028730D02*
X006102Y028580D01*
X006052Y028580D02*
X006152Y028580D01*
X006052Y028680D02*
X006102Y028730D01*
X006005Y028705D02*
X006005Y028655D01*
X005980Y028630D01*
X005905Y028630D01*
X005905Y028580D02*
X005905Y028730D01*
X005980Y028730D01*
X006005Y028705D01*
X005955Y028630D02*
X006005Y028580D01*
X005233Y028070D02*
X005233Y028045D01*
X005208Y028020D01*
X005233Y027995D01*
X005233Y027970D01*
X005208Y027945D01*
X005158Y027945D01*
X005133Y027970D01*
X005085Y027970D02*
X005085Y028070D01*
X005060Y028095D01*
X004985Y028095D01*
X004985Y027945D01*
X005060Y027945D01*
X005085Y027970D01*
X005183Y028020D02*
X005208Y028020D01*
X005233Y028070D02*
X005208Y028095D01*
X005158Y028095D01*
X005133Y028070D01*
X003902Y027330D02*
X003902Y027305D01*
X003877Y027280D01*
X003902Y027255D01*
X003902Y027230D01*
X003877Y027205D01*
X003827Y027205D01*
X003802Y027230D01*
X003852Y027280D02*
X003877Y027280D01*
X003902Y027330D02*
X003877Y027355D01*
X003827Y027355D01*
X003802Y027330D01*
X003755Y027355D02*
X003655Y027355D01*
X003655Y027205D01*
X003655Y027280D02*
X003705Y027280D01*
X002522Y031155D02*
X002472Y031155D01*
X002447Y031180D01*
X002447Y031205D01*
X002472Y031230D01*
X002522Y031230D01*
X002547Y031205D01*
X002547Y031180D01*
X002522Y031155D01*
X002522Y031230D02*
X002547Y031255D01*
X002547Y031280D01*
X002522Y031305D01*
X002472Y031305D01*
X002447Y031280D01*
X002447Y031255D01*
X002472Y031230D01*
X002400Y031205D02*
X002400Y031180D01*
X002375Y031155D01*
X002325Y031155D01*
X002300Y031180D01*
X002252Y031230D02*
X002227Y031205D01*
X002152Y031205D01*
X002152Y031155D02*
X002152Y031305D01*
X002227Y031305D01*
X002252Y031280D01*
X002252Y031230D01*
X002300Y031280D02*
X002325Y031305D01*
X002375Y031305D01*
X002400Y031280D01*
X002400Y031255D01*
X002375Y031230D01*
X002400Y031205D01*
X002375Y031230D02*
X002350Y031230D01*
X002105Y031305D02*
X002055Y031305D01*
X002080Y031305D02*
X002080Y031180D01*
X002055Y031155D01*
X002030Y031155D01*
X002005Y031180D01*
X005919Y031570D02*
X005944Y031545D01*
X005994Y031545D01*
X006019Y031570D01*
X006067Y031620D02*
X006167Y031620D01*
X006214Y031570D02*
X006314Y031670D01*
X006314Y031570D01*
X006289Y031545D01*
X006239Y031545D01*
X006214Y031570D01*
X006214Y031670D01*
X006239Y031695D01*
X006289Y031695D01*
X006314Y031670D01*
X006142Y031695D02*
X006067Y031620D01*
X006019Y031670D02*
X005994Y031695D01*
X005944Y031695D01*
X005919Y031670D01*
X005919Y031570D01*
X006142Y031545D02*
X006142Y031695D01*
X007630Y036105D02*
X007680Y036105D01*
X007705Y036130D01*
X007752Y036180D02*
X007852Y036180D01*
X007900Y036205D02*
X007950Y036255D01*
X007950Y036105D01*
X007900Y036105D02*
X008000Y036105D01*
X007827Y036105D02*
X007827Y036255D01*
X007752Y036180D01*
X007705Y036230D02*
X007680Y036255D01*
X007630Y036255D01*
X007605Y036230D01*
X007605Y036130D01*
X007630Y036105D01*
X007610Y038470D02*
X007510Y038470D01*
X007463Y038470D02*
X007413Y038520D01*
X007438Y038520D02*
X007363Y038520D01*
X007363Y038470D02*
X007363Y038620D01*
X007438Y038620D01*
X007463Y038595D01*
X007463Y038545D01*
X007438Y038520D01*
X007510Y038570D02*
X007560Y038620D01*
X007560Y038470D01*
X007658Y038495D02*
X007683Y038470D01*
X007733Y038470D01*
X007758Y038495D01*
X007758Y038520D01*
X007733Y038545D01*
X007658Y038545D01*
X007658Y038495D01*
X007658Y038545D02*
X007708Y038595D01*
X007758Y038620D01*
X006300Y038555D02*
X006200Y038455D01*
X006225Y038430D01*
X006275Y038430D01*
X006300Y038455D01*
X006300Y038555D01*
X006275Y038580D01*
X006225Y038580D01*
X006200Y038555D01*
X006200Y038455D01*
X006152Y038430D02*
X006052Y038430D01*
X006152Y038530D01*
X006152Y038555D01*
X006127Y038580D01*
X006077Y038580D01*
X006052Y038555D01*
X006005Y038555D02*
X006005Y038505D01*
X005980Y038480D01*
X005905Y038480D01*
X005905Y038430D02*
X005905Y038580D01*
X005980Y038580D01*
X006005Y038555D01*
X005955Y038480D02*
X006005Y038430D01*
X005208Y037945D02*
X005133Y037870D01*
X005233Y037870D01*
X005208Y037795D02*
X005208Y037945D01*
X005085Y037920D02*
X005060Y037945D01*
X004985Y037945D01*
X004985Y037795D01*
X005060Y037795D01*
X005085Y037820D01*
X005085Y037920D01*
X003877Y037205D02*
X003877Y037055D01*
X003902Y037130D02*
X003802Y037130D01*
X003877Y037205D01*
X003755Y037205D02*
X003655Y037205D01*
X003655Y037055D01*
X003655Y037130D02*
X003705Y037130D01*
X011863Y036226D02*
X011863Y036126D01*
X011888Y036101D01*
X011938Y036101D01*
X011963Y036126D01*
X012010Y036176D02*
X012110Y036176D01*
X012158Y036176D02*
X012233Y036176D01*
X012258Y036151D01*
X012258Y036126D01*
X012233Y036101D01*
X012183Y036101D01*
X012158Y036126D01*
X012158Y036176D01*
X012208Y036226D01*
X012258Y036251D01*
X012085Y036251D02*
X012010Y036176D01*
X011963Y036226D02*
X011938Y036251D01*
X011888Y036251D01*
X011863Y036226D01*
X012085Y036251D02*
X012085Y036101D01*
X015305Y036080D02*
X015330Y036055D01*
X015380Y036055D01*
X015405Y036080D01*
X015452Y036130D02*
X015552Y036130D01*
X015600Y036180D02*
X015625Y036205D01*
X015675Y036205D01*
X015700Y036180D01*
X015700Y036155D01*
X015600Y036055D01*
X015700Y036055D01*
X015527Y036055D02*
X015527Y036205D01*
X015452Y036130D01*
X015405Y036180D02*
X015380Y036205D01*
X015330Y036205D01*
X015305Y036180D01*
X015305Y036080D01*
X015258Y038470D02*
X015258Y038495D01*
X015358Y038595D01*
X015358Y038620D01*
X015258Y038620D01*
X015160Y038620D02*
X015160Y038470D01*
X015110Y038470D02*
X015210Y038470D01*
X015110Y038570D02*
X015160Y038620D01*
X015063Y038595D02*
X015063Y038545D01*
X015038Y038520D01*
X014963Y038520D01*
X014963Y038470D02*
X014963Y038620D01*
X015038Y038620D01*
X015063Y038595D01*
X015013Y038520D02*
X015063Y038470D01*
X019463Y036226D02*
X019463Y036126D01*
X019488Y036101D01*
X019538Y036101D01*
X019563Y036126D01*
X019610Y036176D02*
X019710Y036176D01*
X019758Y036151D02*
X019783Y036176D01*
X019833Y036176D01*
X019858Y036151D01*
X019858Y036126D01*
X019833Y036101D01*
X019783Y036101D01*
X019758Y036126D01*
X019758Y036151D01*
X019783Y036176D02*
X019758Y036201D01*
X019758Y036226D01*
X019783Y036251D01*
X019833Y036251D01*
X019858Y036226D01*
X019858Y036201D01*
X019833Y036176D01*
X019685Y036101D02*
X019685Y036251D01*
X019610Y036176D01*
X019563Y036226D02*
X019538Y036251D01*
X019488Y036251D01*
X019463Y036226D01*
X022613Y038470D02*
X022613Y038620D01*
X022688Y038620D01*
X022713Y038595D01*
X022713Y038545D01*
X022688Y038520D01*
X022613Y038520D01*
X022663Y038520D02*
X022713Y038470D01*
X022760Y038470D02*
X022860Y038470D01*
X022810Y038470D02*
X022810Y038620D01*
X022760Y038570D01*
X022908Y038570D02*
X022908Y038595D01*
X022933Y038620D01*
X022983Y038620D01*
X023008Y038595D01*
X023008Y038570D01*
X022983Y038545D01*
X022933Y038545D01*
X022908Y038570D01*
X022933Y038545D02*
X022908Y038520D01*
X022908Y038495D01*
X022933Y038470D01*
X022983Y038470D01*
X023008Y038495D01*
X023008Y038520D01*
X022983Y038545D01*
X022930Y036205D02*
X022880Y036205D01*
X022855Y036180D01*
X022855Y036080D01*
X022880Y036055D01*
X022930Y036055D01*
X022955Y036080D01*
X023002Y036130D02*
X023102Y036130D01*
X023150Y036080D02*
X023175Y036055D01*
X023225Y036055D01*
X023250Y036080D01*
X023250Y036105D01*
X023225Y036130D01*
X023200Y036130D01*
X023225Y036130D02*
X023250Y036155D01*
X023250Y036180D01*
X023225Y036205D01*
X023175Y036205D01*
X023150Y036180D01*
X023077Y036205D02*
X023002Y036130D01*
X022955Y036180D02*
X022930Y036205D01*
X023077Y036205D02*
X023077Y036055D01*
X027063Y036126D02*
X027088Y036101D01*
X027138Y036101D01*
X027163Y036126D01*
X027210Y036126D02*
X027235Y036101D01*
X027285Y036101D01*
X027310Y036126D01*
X027310Y036176D01*
X027285Y036201D01*
X027260Y036201D01*
X027210Y036176D01*
X027210Y036251D01*
X027310Y036251D01*
X027358Y036226D02*
X027383Y036251D01*
X027433Y036251D01*
X027458Y036226D01*
X027358Y036126D01*
X027383Y036101D01*
X027433Y036101D01*
X027458Y036126D01*
X027458Y036226D01*
X027358Y036226D02*
X027358Y036126D01*
X027163Y036226D02*
X027138Y036251D01*
X027088Y036251D01*
X027063Y036226D01*
X027063Y036126D01*
X030163Y038470D02*
X030163Y038620D01*
X030238Y038620D01*
X030263Y038595D01*
X030263Y038545D01*
X030238Y038520D01*
X030163Y038520D01*
X030213Y038520D02*
X030263Y038470D01*
X030310Y038470D02*
X030410Y038470D01*
X030360Y038470D02*
X030360Y038620D01*
X030310Y038570D01*
X030458Y038570D02*
X030483Y038545D01*
X030558Y038545D01*
X030558Y038495D02*
X030558Y038595D01*
X030533Y038620D01*
X030483Y038620D01*
X030458Y038595D01*
X030458Y038570D01*
X030458Y038495D02*
X030483Y038470D01*
X030533Y038470D01*
X030558Y038495D01*
X030530Y036205D02*
X030480Y036205D01*
X030455Y036180D01*
X030455Y036080D01*
X030480Y036055D01*
X030530Y036055D01*
X030555Y036080D01*
X030602Y036130D02*
X030702Y036130D01*
X030750Y036130D02*
X030850Y036130D01*
X030825Y036055D02*
X030825Y036205D01*
X030750Y036130D01*
X030677Y036055D02*
X030677Y036205D01*
X030602Y036130D01*
X030555Y036180D02*
X030530Y036205D01*
X034763Y036226D02*
X034763Y036126D01*
X034788Y036101D01*
X034838Y036101D01*
X034863Y036126D01*
X034910Y036126D02*
X034935Y036101D01*
X034985Y036101D01*
X035010Y036126D01*
X035010Y036176D01*
X034985Y036201D01*
X034960Y036201D01*
X034910Y036176D01*
X034910Y036251D01*
X035010Y036251D01*
X035058Y036226D02*
X035083Y036251D01*
X035133Y036251D01*
X035158Y036226D01*
X035158Y036201D01*
X035058Y036101D01*
X035158Y036101D01*
X034863Y036226D02*
X034838Y036251D01*
X034788Y036251D01*
X034763Y036226D01*
X030533Y028770D02*
X030458Y028695D01*
X030558Y028695D01*
X030533Y028620D02*
X030533Y028770D01*
X030360Y028770D02*
X030360Y028620D01*
X030310Y028620D02*
X030410Y028620D01*
X030310Y028720D02*
X030360Y028770D01*
X030263Y028745D02*
X030263Y028695D01*
X030238Y028670D01*
X030163Y028670D01*
X030163Y028620D02*
X030163Y028770D01*
X030238Y028770D01*
X030263Y028745D01*
X030213Y028670D02*
X030263Y028620D01*
X030480Y026355D02*
X030455Y026330D01*
X030455Y026230D01*
X030480Y026205D01*
X030530Y026205D01*
X030555Y026230D01*
X030602Y026230D02*
X030627Y026205D01*
X030677Y026205D01*
X030702Y026230D01*
X030702Y026255D01*
X030677Y026280D01*
X030652Y026280D01*
X030677Y026280D02*
X030702Y026305D01*
X030702Y026330D01*
X030677Y026355D01*
X030627Y026355D01*
X030602Y026330D01*
X030555Y026330D02*
X030530Y026355D01*
X030480Y026355D01*
X030750Y026305D02*
X030800Y026355D01*
X030800Y026205D01*
X030750Y026205D02*
X030850Y026205D01*
X027458Y026376D02*
X027358Y026276D01*
X027358Y026251D01*
X027310Y026276D02*
X027285Y026251D01*
X027235Y026251D01*
X027210Y026276D01*
X027163Y026276D02*
X027138Y026251D01*
X027088Y026251D01*
X027063Y026276D01*
X027063Y026376D01*
X027088Y026401D01*
X027138Y026401D01*
X027163Y026376D01*
X027210Y026376D02*
X027235Y026401D01*
X027285Y026401D01*
X027310Y026376D01*
X027310Y026351D01*
X027285Y026326D01*
X027310Y026301D01*
X027310Y026276D01*
X027285Y026326D02*
X027260Y026326D01*
X027358Y026401D02*
X027458Y026401D01*
X027458Y026376D01*
X023250Y026330D02*
X023150Y026230D01*
X023175Y026205D01*
X023225Y026205D01*
X023250Y026230D01*
X023250Y026330D01*
X023225Y026355D01*
X023175Y026355D01*
X023150Y026330D01*
X023150Y026230D01*
X023102Y026230D02*
X023077Y026205D01*
X023027Y026205D01*
X023002Y026230D01*
X022955Y026230D02*
X022930Y026205D01*
X022880Y026205D01*
X022855Y026230D01*
X022855Y026330D01*
X022880Y026355D01*
X022930Y026355D01*
X022955Y026330D01*
X023002Y026330D02*
X023027Y026355D01*
X023077Y026355D01*
X023102Y026330D01*
X023102Y026305D01*
X023077Y026280D01*
X023102Y026255D01*
X023102Y026230D01*
X023077Y026280D02*
X023052Y026280D01*
X022983Y028620D02*
X022933Y028620D01*
X022908Y028645D01*
X022860Y028620D02*
X022760Y028620D01*
X022713Y028620D02*
X022663Y028670D01*
X022688Y028670D02*
X022613Y028670D01*
X022613Y028620D02*
X022613Y028770D01*
X022688Y028770D01*
X022713Y028745D01*
X022713Y028695D01*
X022688Y028670D01*
X022760Y028720D02*
X022810Y028770D01*
X022810Y028620D01*
X022908Y028745D02*
X022933Y028770D01*
X022983Y028770D01*
X023008Y028745D01*
X023008Y028720D01*
X022983Y028695D01*
X023008Y028670D01*
X023008Y028645D01*
X022983Y028620D01*
X022983Y028695D02*
X022958Y028695D01*
X019858Y026401D02*
X019758Y026401D01*
X019758Y026326D01*
X019808Y026351D01*
X019833Y026351D01*
X019858Y026326D01*
X019858Y026276D01*
X019833Y026251D01*
X019783Y026251D01*
X019758Y026276D01*
X019710Y026276D02*
X019685Y026251D01*
X019635Y026251D01*
X019610Y026276D01*
X019563Y026276D02*
X019538Y026251D01*
X019488Y026251D01*
X019463Y026276D01*
X019463Y026376D01*
X019488Y026401D01*
X019538Y026401D01*
X019563Y026376D01*
X019610Y026376D02*
X019635Y026401D01*
X019685Y026401D01*
X019710Y026376D01*
X019710Y026351D01*
X019685Y026326D01*
X019710Y026301D01*
X019710Y026276D01*
X019685Y026326D02*
X019660Y026326D01*
X015700Y026330D02*
X015675Y026355D01*
X015625Y026355D01*
X015600Y026330D01*
X015600Y026305D01*
X015625Y026280D01*
X015700Y026280D01*
X015700Y026230D02*
X015700Y026330D01*
X015700Y026230D02*
X015675Y026205D01*
X015625Y026205D01*
X015600Y026230D01*
X015552Y026205D02*
X015452Y026205D01*
X015552Y026305D01*
X015552Y026330D01*
X015527Y026355D01*
X015477Y026355D01*
X015452Y026330D01*
X015405Y026330D02*
X015380Y026355D01*
X015330Y026355D01*
X015305Y026330D01*
X015305Y026230D01*
X015330Y026205D01*
X015380Y026205D01*
X015405Y026230D01*
X015358Y028620D02*
X015258Y028620D01*
X015358Y028720D01*
X015358Y028745D01*
X015333Y028770D01*
X015283Y028770D01*
X015258Y028745D01*
X015160Y028770D02*
X015160Y028620D01*
X015110Y028620D02*
X015210Y028620D01*
X015110Y028720D02*
X015160Y028770D01*
X015063Y028745D02*
X015063Y028695D01*
X015038Y028670D01*
X014963Y028670D01*
X014963Y028620D02*
X014963Y028770D01*
X015038Y028770D01*
X015063Y028745D01*
X015013Y028670D02*
X015063Y028620D01*
X012258Y026376D02*
X012258Y026351D01*
X012233Y026326D01*
X012258Y026301D01*
X012258Y026276D01*
X012233Y026251D01*
X012183Y026251D01*
X012158Y026276D01*
X012110Y026276D02*
X012085Y026251D01*
X012035Y026251D01*
X012010Y026276D01*
X011963Y026276D02*
X011938Y026251D01*
X011888Y026251D01*
X011863Y026276D01*
X011863Y026376D01*
X011888Y026401D01*
X011938Y026401D01*
X011963Y026376D01*
X012010Y026376D02*
X012035Y026401D01*
X012085Y026401D01*
X012110Y026376D01*
X012110Y026351D01*
X012085Y026326D01*
X012110Y026301D01*
X012110Y026276D01*
X012085Y026326D02*
X012060Y026326D01*
X012158Y026376D02*
X012183Y026401D01*
X012233Y026401D01*
X012258Y026376D01*
X012233Y026326D02*
X012208Y026326D01*
X015110Y018920D02*
X015185Y018920D01*
X015210Y018895D01*
X015210Y018845D01*
X015185Y018820D01*
X015110Y018820D01*
X015110Y018770D02*
X015110Y018920D01*
X015160Y018820D02*
X015210Y018770D01*
X015258Y018770D02*
X015258Y018795D01*
X015358Y018895D01*
X015358Y018920D01*
X015258Y018920D01*
X015330Y016505D02*
X015305Y016480D01*
X015305Y016380D01*
X015330Y016355D01*
X015380Y016355D01*
X015405Y016380D01*
X015452Y016355D02*
X015552Y016355D01*
X015502Y016355D02*
X015502Y016505D01*
X015452Y016455D01*
X015405Y016480D02*
X015380Y016505D01*
X015330Y016505D01*
X015600Y016430D02*
X015675Y016430D01*
X015700Y016405D01*
X015700Y016380D01*
X015675Y016355D01*
X015625Y016355D01*
X015600Y016380D01*
X015600Y016430D01*
X015650Y016480D01*
X015700Y016505D01*
X012258Y016526D02*
X012158Y016426D01*
X012183Y016401D01*
X012233Y016401D01*
X012258Y016426D01*
X012258Y016526D01*
X012233Y016551D01*
X012183Y016551D01*
X012158Y016526D01*
X012158Y016426D01*
X012110Y016401D02*
X012010Y016401D01*
X012110Y016501D01*
X012110Y016526D01*
X012085Y016551D01*
X012035Y016551D01*
X012010Y016526D01*
X011963Y016526D02*
X011938Y016551D01*
X011888Y016551D01*
X011863Y016526D01*
X011863Y016426D01*
X011888Y016401D01*
X011938Y016401D01*
X011963Y016426D01*
X006289Y011995D02*
X006214Y011920D01*
X006314Y011920D01*
X006289Y011845D02*
X006289Y011995D01*
X006117Y011995D02*
X006117Y011845D01*
X006067Y011845D02*
X006167Y011845D01*
X006067Y011945D02*
X006117Y011995D01*
X006019Y011970D02*
X005994Y011995D01*
X005944Y011995D01*
X005919Y011970D01*
X005919Y011870D01*
X005944Y011845D01*
X005994Y011845D01*
X006019Y011870D01*
X006052Y009030D02*
X006052Y008955D01*
X006102Y008980D01*
X006127Y008980D01*
X006152Y008955D01*
X006152Y008905D01*
X006127Y008880D01*
X006077Y008880D01*
X006052Y008905D01*
X006005Y008880D02*
X005955Y008930D01*
X005980Y008930D02*
X005905Y008930D01*
X005905Y008880D02*
X005905Y009030D01*
X005980Y009030D01*
X006005Y009005D01*
X006005Y008955D01*
X005980Y008930D01*
X006052Y009030D02*
X006152Y009030D01*
X005183Y008395D02*
X005183Y008245D01*
X005133Y008245D02*
X005233Y008245D01*
X005133Y008345D02*
X005183Y008395D01*
X005085Y008370D02*
X005060Y008395D01*
X004985Y008395D01*
X004985Y008245D01*
X005060Y008245D01*
X005085Y008270D01*
X005085Y008370D01*
X003852Y007655D02*
X003852Y007505D01*
X003802Y007505D02*
X003902Y007505D01*
X003802Y007605D02*
X003852Y007655D01*
X003755Y007655D02*
X003655Y007655D01*
X003655Y007505D01*
X003655Y007580D02*
X003705Y007580D01*
X007605Y006680D02*
X007605Y006580D01*
X007630Y006555D01*
X007680Y006555D01*
X007705Y006580D01*
X007752Y006555D02*
X007852Y006655D01*
X007852Y006680D01*
X007827Y006705D01*
X007777Y006705D01*
X007752Y006680D01*
X007705Y006680D02*
X007680Y006705D01*
X007630Y006705D01*
X007605Y006680D01*
X007752Y006555D02*
X007852Y006555D01*
X007758Y008920D02*
X007658Y008920D01*
X007758Y009020D01*
X007758Y009045D01*
X007733Y009070D01*
X007683Y009070D01*
X007658Y009045D01*
X007610Y009045D02*
X007610Y008995D01*
X007585Y008970D01*
X007510Y008970D01*
X007510Y008920D02*
X007510Y009070D01*
X007585Y009070D01*
X007610Y009045D01*
X007560Y008970D02*
X007610Y008920D01*
X012010Y006676D02*
X012010Y006576D01*
X012035Y006551D01*
X012085Y006551D01*
X012110Y006576D01*
X012158Y006576D02*
X012158Y006551D01*
X012158Y006576D02*
X012258Y006676D01*
X012258Y006701D01*
X012158Y006701D01*
X012110Y006676D02*
X012085Y006701D01*
X012035Y006701D01*
X012010Y006676D01*
X015305Y006630D02*
X015305Y006530D01*
X015330Y006505D01*
X015380Y006505D01*
X015405Y006530D01*
X015452Y006530D02*
X015477Y006505D01*
X015527Y006505D01*
X015552Y006530D01*
X015552Y006555D01*
X015527Y006580D01*
X015502Y006580D01*
X015527Y006580D02*
X015552Y006605D01*
X015552Y006630D01*
X015527Y006655D01*
X015477Y006655D01*
X015452Y006630D01*
X015405Y006630D02*
X015380Y006655D01*
X015330Y006655D01*
X015305Y006630D01*
X015308Y008920D02*
X015308Y009070D01*
X015258Y009020D01*
X015210Y008995D02*
X015185Y008970D01*
X015110Y008970D01*
X015110Y008920D02*
X015110Y009070D01*
X015185Y009070D01*
X015210Y009045D01*
X015210Y008995D01*
X015160Y008970D02*
X015210Y008920D01*
X015258Y008920D02*
X015358Y008920D01*
X019610Y006676D02*
X019610Y006576D01*
X019635Y006551D01*
X019685Y006551D01*
X019710Y006576D01*
X019758Y006576D02*
X019783Y006551D01*
X019833Y006551D01*
X019858Y006576D01*
X019858Y006676D01*
X019833Y006701D01*
X019783Y006701D01*
X019758Y006676D01*
X019758Y006651D01*
X019783Y006626D01*
X019858Y006626D01*
X019710Y006676D02*
X019685Y006701D01*
X019635Y006701D01*
X019610Y006676D01*
X022855Y006630D02*
X022855Y006530D01*
X022880Y006505D01*
X022930Y006505D01*
X022955Y006530D01*
X023002Y006580D02*
X023102Y006580D01*
X023077Y006505D02*
X023077Y006655D01*
X023002Y006580D01*
X022955Y006630D02*
X022930Y006655D01*
X022880Y006655D01*
X022855Y006630D01*
X022860Y008920D02*
X022810Y008970D01*
X022835Y008970D02*
X022760Y008970D01*
X022760Y008920D02*
X022760Y009070D01*
X022835Y009070D01*
X022860Y009045D01*
X022860Y008995D01*
X022835Y008970D01*
X022908Y008945D02*
X022933Y008920D01*
X022983Y008920D01*
X023008Y008945D01*
X023008Y008970D01*
X022983Y008995D01*
X022958Y008995D01*
X022983Y008995D02*
X023008Y009020D01*
X023008Y009045D01*
X022983Y009070D01*
X022933Y009070D01*
X022908Y009045D01*
X027063Y006676D02*
X027063Y006576D01*
X027088Y006551D01*
X027138Y006551D01*
X027163Y006576D01*
X027210Y006551D02*
X027310Y006551D01*
X027358Y006551D02*
X027458Y006551D01*
X027408Y006551D02*
X027408Y006701D01*
X027358Y006651D01*
X027260Y006701D02*
X027260Y006551D01*
X027210Y006651D02*
X027260Y006701D01*
X027163Y006676D02*
X027138Y006701D01*
X027088Y006701D01*
X027063Y006676D01*
X030455Y006630D02*
X030455Y006530D01*
X030480Y006505D01*
X030530Y006505D01*
X030555Y006530D01*
X030602Y006530D02*
X030627Y006505D01*
X030677Y006505D01*
X030702Y006530D01*
X030702Y006580D01*
X030677Y006605D01*
X030652Y006605D01*
X030602Y006580D01*
X030602Y006655D01*
X030702Y006655D01*
X030555Y006630D02*
X030530Y006655D01*
X030480Y006655D01*
X030455Y006630D01*
X030410Y008920D02*
X030360Y008970D01*
X030385Y008970D02*
X030310Y008970D01*
X030310Y008920D02*
X030310Y009070D01*
X030385Y009070D01*
X030410Y009045D01*
X030410Y008995D01*
X030385Y008970D01*
X030458Y008995D02*
X030558Y008995D01*
X030533Y008920D02*
X030533Y009070D01*
X030458Y008995D01*
X034763Y006676D02*
X034763Y006576D01*
X034788Y006551D01*
X034838Y006551D01*
X034863Y006576D01*
X034910Y006551D02*
X035010Y006551D01*
X034960Y006551D02*
X034960Y006701D01*
X034910Y006651D01*
X034863Y006676D02*
X034838Y006701D01*
X034788Y006701D01*
X034763Y006676D01*
X035058Y006676D02*
X035083Y006701D01*
X035133Y006701D01*
X035158Y006676D01*
X035158Y006651D01*
X035133Y006626D01*
X035158Y006601D01*
X035158Y006576D01*
X035133Y006551D01*
X035083Y006551D01*
X035058Y006576D01*
X035108Y006626D02*
X035133Y006626D01*
X035133Y016401D02*
X035158Y016426D01*
X035158Y016451D01*
X035133Y016476D01*
X035058Y016476D01*
X035058Y016426D01*
X035083Y016401D01*
X035133Y016401D01*
X035058Y016476D02*
X035108Y016526D01*
X035158Y016551D01*
X035010Y016526D02*
X034985Y016551D01*
X034935Y016551D01*
X034910Y016526D01*
X034863Y016526D02*
X034838Y016551D01*
X034788Y016551D01*
X034763Y016526D01*
X034763Y016426D01*
X034788Y016401D01*
X034838Y016401D01*
X034863Y016426D01*
X034910Y016401D02*
X035010Y016501D01*
X035010Y016526D01*
X035010Y016401D02*
X034910Y016401D01*
X030850Y016405D02*
X030850Y016380D01*
X030825Y016355D01*
X030775Y016355D01*
X030750Y016380D01*
X030750Y016405D01*
X030775Y016430D01*
X030825Y016430D01*
X030850Y016405D01*
X030825Y016430D02*
X030850Y016455D01*
X030850Y016480D01*
X030825Y016505D01*
X030775Y016505D01*
X030750Y016480D01*
X030750Y016455D01*
X030775Y016430D01*
X030702Y016355D02*
X030602Y016355D01*
X030652Y016355D02*
X030652Y016505D01*
X030602Y016455D01*
X030555Y016480D02*
X030530Y016505D01*
X030480Y016505D01*
X030455Y016480D01*
X030455Y016380D01*
X030480Y016355D01*
X030530Y016355D01*
X030555Y016380D01*
X030533Y018770D02*
X030558Y018795D01*
X030558Y018895D01*
X030533Y018920D01*
X030483Y018920D01*
X030458Y018895D01*
X030458Y018870D01*
X030483Y018845D01*
X030558Y018845D01*
X030533Y018770D02*
X030483Y018770D01*
X030458Y018795D01*
X030410Y018770D02*
X030360Y018820D01*
X030385Y018820D02*
X030310Y018820D01*
X030310Y018770D02*
X030310Y018920D01*
X030385Y018920D01*
X030410Y018895D01*
X030410Y018845D01*
X030385Y018820D01*
X027433Y016551D02*
X027358Y016476D01*
X027458Y016476D01*
X027433Y016401D02*
X027433Y016551D01*
X027310Y016526D02*
X027285Y016551D01*
X027235Y016551D01*
X027210Y016526D01*
X027163Y016526D02*
X027138Y016551D01*
X027088Y016551D01*
X027063Y016526D01*
X027063Y016426D01*
X027088Y016401D01*
X027138Y016401D01*
X027163Y016426D01*
X027210Y016401D02*
X027310Y016501D01*
X027310Y016526D01*
X027310Y016401D02*
X027210Y016401D01*
X023250Y016480D02*
X023150Y016380D01*
X023150Y016355D01*
X023102Y016355D02*
X023002Y016355D01*
X023052Y016355D02*
X023052Y016505D01*
X023002Y016455D01*
X022955Y016480D02*
X022930Y016505D01*
X022880Y016505D01*
X022855Y016480D01*
X022855Y016380D01*
X022880Y016355D01*
X022930Y016355D01*
X022955Y016380D01*
X023150Y016505D02*
X023250Y016505D01*
X023250Y016480D01*
X022983Y018770D02*
X022933Y018770D01*
X022908Y018795D01*
X022908Y018820D01*
X022933Y018845D01*
X022983Y018845D01*
X023008Y018820D01*
X023008Y018795D01*
X022983Y018770D01*
X022983Y018845D02*
X023008Y018870D01*
X023008Y018895D01*
X022983Y018920D01*
X022933Y018920D01*
X022908Y018895D01*
X022908Y018870D01*
X022933Y018845D01*
X022860Y018845D02*
X022835Y018820D01*
X022760Y018820D01*
X022760Y018770D02*
X022760Y018920D01*
X022835Y018920D01*
X022860Y018895D01*
X022860Y018845D01*
X022810Y018820D02*
X022860Y018770D01*
X019858Y016526D02*
X019833Y016551D01*
X019783Y016551D01*
X019758Y016526D01*
X019710Y016526D02*
X019685Y016551D01*
X019635Y016551D01*
X019610Y016526D01*
X019563Y016526D02*
X019538Y016551D01*
X019488Y016551D01*
X019463Y016526D01*
X019463Y016426D01*
X019488Y016401D01*
X019538Y016401D01*
X019563Y016426D01*
X019610Y016401D02*
X019710Y016501D01*
X019710Y016526D01*
X019710Y016401D02*
X019610Y016401D01*
X019758Y016401D02*
X019858Y016501D01*
X019858Y016526D01*
X019858Y016401D02*
X019758Y016401D01*
X006264Y002145D02*
X006264Y001995D01*
X006214Y001995D02*
X006314Y001995D01*
X006214Y002095D02*
X006264Y002145D01*
X006167Y002120D02*
X006142Y002145D01*
X006092Y002145D01*
X006067Y002120D01*
X006067Y002020D01*
X006092Y001995D01*
X006142Y001995D01*
X006167Y002020D01*
X002400Y001605D02*
X002300Y001605D01*
X002350Y001605D02*
X002350Y001755D01*
X002300Y001705D01*
X002252Y001680D02*
X002227Y001655D01*
X002152Y001655D01*
X002152Y001605D02*
X002152Y001755D01*
X002227Y001755D01*
X002252Y001730D01*
X002252Y001680D01*
X002105Y001755D02*
X002055Y001755D01*
X002080Y001755D02*
X002080Y001630D01*
X002055Y001605D01*
X002030Y001605D01*
X002005Y001630D01*
X002030Y011455D02*
X002055Y011455D01*
X002080Y011480D01*
X002080Y011605D01*
X002055Y011605D02*
X002105Y011605D01*
X002152Y011605D02*
X002227Y011605D01*
X002252Y011580D01*
X002252Y011530D01*
X002227Y011505D01*
X002152Y011505D01*
X002152Y011455D02*
X002152Y011605D01*
X002300Y011555D02*
X002350Y011605D01*
X002350Y011455D01*
X002300Y011455D02*
X002400Y011455D01*
X002447Y011530D02*
X002547Y011530D01*
X002522Y011455D02*
X002522Y011605D01*
X002447Y011530D01*
X002030Y011455D02*
X002005Y011480D01*
X034763Y026276D02*
X034788Y026251D01*
X034838Y026251D01*
X034863Y026276D01*
X034910Y026276D02*
X034935Y026251D01*
X034985Y026251D01*
X035010Y026276D01*
X035010Y026301D01*
X034985Y026326D01*
X034960Y026326D01*
X034985Y026326D02*
X035010Y026351D01*
X035010Y026376D01*
X034985Y026401D01*
X034935Y026401D01*
X034910Y026376D01*
X034863Y026376D02*
X034838Y026401D01*
X034788Y026401D01*
X034763Y026376D01*
X034763Y026276D01*
X035058Y026276D02*
X035083Y026251D01*
X035133Y026251D01*
X035158Y026276D01*
X035158Y026376D01*
X035133Y026401D01*
X035083Y026401D01*
X035058Y026376D01*
X035058Y026351D01*
X035083Y026326D01*
X035158Y026326D01*
D18*
X031400Y028058D02*
X031400Y028062D01*
X023800Y028058D02*
X023800Y028062D01*
X016200Y028058D02*
X016200Y028062D01*
X008600Y028058D02*
X008600Y028062D01*
X008600Y037908D02*
X008600Y037912D01*
X016200Y037908D02*
X016200Y037912D01*
X023800Y037908D02*
X023800Y037912D01*
X031400Y037908D02*
X031400Y037912D01*
X031400Y018212D02*
X031400Y018208D01*
X023800Y018208D02*
X023800Y018212D01*
X016200Y018208D02*
X016200Y018212D01*
X008600Y018208D02*
X008600Y018212D01*
X008600Y008362D02*
X008600Y008358D01*
X016200Y008358D02*
X016200Y008362D01*
X023800Y008358D02*
X023800Y008362D01*
X031400Y008358D02*
X031400Y008362D01*
D19*
X031900Y008110D02*
X030896Y008110D01*
X030896Y007594D01*
X031900Y007594D01*
X031900Y008110D01*
X024300Y008110D02*
X024300Y007594D01*
X023296Y007594D01*
X023296Y008110D01*
X024300Y008110D01*
X016700Y008110D02*
X016700Y007594D01*
X015696Y007594D01*
X015696Y008110D01*
X016700Y008110D01*
X009100Y008110D02*
X009100Y007594D01*
X008096Y007594D01*
X008096Y008110D01*
X009100Y008110D01*
X009100Y017444D02*
X008096Y017444D01*
X008096Y017960D01*
X009100Y017960D01*
X009100Y017444D01*
X015696Y017444D02*
X015696Y017960D01*
X016700Y017960D01*
X016700Y017444D01*
X015696Y017444D01*
X023296Y017444D02*
X023296Y017960D01*
X024300Y017960D01*
X024300Y017444D01*
X023296Y017444D01*
X030896Y017444D02*
X030896Y017960D01*
X031900Y017960D01*
X031900Y017444D01*
X030896Y017444D01*
X030896Y027294D02*
X030896Y027810D01*
X031900Y027810D01*
X031900Y027294D01*
X030896Y027294D01*
X024300Y027294D02*
X024300Y027810D01*
X023296Y027810D01*
X023296Y027294D01*
X024300Y027294D01*
X016700Y027294D02*
X016700Y027810D01*
X015696Y027810D01*
X015696Y027294D01*
X016700Y027294D01*
X009100Y027294D02*
X009100Y027810D01*
X008096Y027810D01*
X008096Y027294D01*
X009100Y027294D01*
X009100Y037144D02*
X008096Y037144D01*
X008096Y037660D01*
X009100Y037660D01*
X009100Y037144D01*
X015696Y037144D02*
X015696Y037660D01*
X016700Y037660D01*
X016700Y037144D01*
X015696Y037144D01*
X023296Y037144D02*
X023296Y037660D01*
X024300Y037660D01*
X024300Y037144D01*
X023296Y037144D01*
X030896Y037144D02*
X030896Y037660D01*
X031900Y037660D01*
X031900Y037144D01*
X030896Y037144D01*
D20*
X031400Y036162D02*
X031400Y036138D01*
X023800Y036162D02*
X023800Y036138D01*
X016250Y036162D02*
X016250Y036138D01*
X008600Y036162D02*
X008600Y036138D01*
X008600Y026312D02*
X008600Y026288D01*
X016250Y026312D02*
X016250Y026288D01*
X023800Y026312D02*
X023800Y026288D01*
X031400Y026312D02*
X031400Y026288D01*
X031400Y016462D02*
X031400Y016438D01*
X023800Y016462D02*
X023800Y016438D01*
X016250Y016462D02*
X016250Y016438D01*
X008600Y016462D02*
X008600Y016438D01*
X008600Y006612D02*
X008600Y006588D01*
X016250Y006612D02*
X016250Y006588D01*
X023800Y006612D02*
X023800Y006588D01*
X031400Y006612D02*
X031400Y006588D01*
D21*
X031150Y009000D03*
X023550Y009000D03*
X015950Y009000D03*
X008350Y009000D03*
X005400Y008950D03*
X005400Y018800D03*
X008350Y018850D03*
X015950Y018850D03*
X023550Y018850D03*
X031150Y018850D03*
X031150Y028700D03*
X023550Y028700D03*
X015950Y028700D03*
X008350Y028700D03*
X005400Y028650D03*
X005400Y038500D03*
X008350Y038550D03*
X015950Y038550D03*
X023550Y038550D03*
X031150Y038550D03*
M02*
