G75*
G70*
%OFA0B0*%
%FSLAX24Y24*%
%IPPOS*%
%LPD*%
%AMOC8*
5,1,8,0,0,1.08239X$1,22.5*
%
%ADD10C,0.0000*%
%ADD11R,0.0354X0.1181*%
%ADD12R,0.0433X0.0394*%
%ADD13R,0.0630X0.0551*%
%ADD14R,0.0272X0.0390*%
%ADD15R,0.0551X0.0138*%
%ADD16R,0.0748X0.0709*%
%ADD17R,0.0748X0.0748*%
%ADD18R,0.0335X0.0354*%
%ADD19R,0.1181X0.0551*%
%ADD20R,0.0551X0.0630*%
%ADD21C,0.0118*%
D10*
X000800Y000900D02*
X000800Y010543D01*
X000802Y010560D01*
X000806Y010577D01*
X000813Y010593D01*
X000823Y010607D01*
X000836Y010620D01*
X000850Y010630D01*
X000866Y010637D01*
X000883Y010641D01*
X000900Y010643D01*
X038102Y010643D01*
X038102Y010650D02*
X000900Y010650D01*
X000883Y010652D01*
X000866Y010656D01*
X000850Y010663D01*
X000836Y010673D01*
X000823Y010686D01*
X000813Y010700D01*
X000806Y010716D01*
X000802Y010733D01*
X000800Y010750D01*
X000800Y020393D01*
X000802Y020410D01*
X000806Y020427D01*
X000813Y020443D01*
X000823Y020457D01*
X000836Y020470D01*
X000850Y020480D01*
X000866Y020487D01*
X000883Y020491D01*
X000900Y020493D01*
X038102Y020493D01*
X038102Y020500D02*
X000900Y020500D01*
X000883Y020502D01*
X000866Y020506D01*
X000850Y020513D01*
X000836Y020523D01*
X000823Y020536D01*
X000813Y020550D01*
X000806Y020566D01*
X000802Y020583D01*
X000800Y020600D01*
X000800Y030243D01*
X000802Y030260D01*
X000806Y030277D01*
X000813Y030293D01*
X000823Y030307D01*
X000836Y030320D01*
X000850Y030330D01*
X000866Y030337D01*
X000883Y030341D01*
X000900Y030343D01*
X038102Y030343D01*
X038102Y030350D02*
X000900Y030350D01*
X000883Y030352D01*
X000866Y030356D01*
X000850Y030363D01*
X000836Y030373D01*
X000823Y030386D01*
X000813Y030400D01*
X000806Y030416D01*
X000802Y030433D01*
X000800Y030450D01*
X000800Y040093D01*
X000802Y040110D01*
X000806Y040127D01*
X000813Y040143D01*
X000823Y040157D01*
X000836Y040170D01*
X000850Y040180D01*
X000866Y040187D01*
X000883Y040191D01*
X000900Y040193D01*
X038102Y040193D01*
X038119Y040191D01*
X038136Y040187D01*
X038152Y040180D01*
X038166Y040170D01*
X038179Y040157D01*
X038189Y040143D01*
X038196Y040127D01*
X038200Y040110D01*
X038202Y040093D01*
X038202Y030450D01*
X038200Y030433D01*
X038196Y030416D01*
X038189Y030400D01*
X038179Y030386D01*
X038166Y030373D01*
X038152Y030363D01*
X038136Y030356D01*
X038119Y030352D01*
X038102Y030350D01*
X038102Y030343D02*
X038119Y030341D01*
X038136Y030337D01*
X038152Y030330D01*
X038166Y030320D01*
X038179Y030307D01*
X038189Y030293D01*
X038196Y030277D01*
X038200Y030260D01*
X038202Y030243D01*
X038202Y020600D01*
X038200Y020583D01*
X038196Y020566D01*
X038189Y020550D01*
X038179Y020536D01*
X038166Y020523D01*
X038152Y020513D01*
X038136Y020506D01*
X038119Y020502D01*
X038102Y020500D01*
X038102Y020493D02*
X038119Y020491D01*
X038136Y020487D01*
X038152Y020480D01*
X038166Y020470D01*
X038179Y020457D01*
X038189Y020443D01*
X038196Y020427D01*
X038200Y020410D01*
X038202Y020393D01*
X038202Y010750D01*
X038200Y010733D01*
X038196Y010716D01*
X038189Y010700D01*
X038179Y010686D01*
X038166Y010673D01*
X038152Y010663D01*
X038136Y010656D01*
X038119Y010652D01*
X038102Y010650D01*
X038102Y010643D02*
X038119Y010641D01*
X038136Y010637D01*
X038152Y010630D01*
X038166Y010620D01*
X038179Y010607D01*
X038189Y010593D01*
X038196Y010577D01*
X038200Y010560D01*
X038202Y010543D01*
X038202Y000900D01*
X038200Y000883D01*
X038196Y000866D01*
X038189Y000850D01*
X038179Y000836D01*
X038166Y000823D01*
X038152Y000813D01*
X038136Y000806D01*
X038119Y000802D01*
X038102Y000800D01*
X000900Y000800D01*
X000883Y000802D01*
X000866Y000806D01*
X000850Y000813D01*
X000836Y000823D01*
X000823Y000836D01*
X000813Y000850D01*
X000806Y000866D01*
X000802Y000883D01*
X000800Y000900D01*
D11*
X010119Y005958D03*
X010906Y005958D03*
X011694Y005958D03*
X012481Y005958D03*
X017769Y005958D03*
X018556Y005958D03*
X019344Y005958D03*
X020131Y005958D03*
X025319Y005958D03*
X026106Y005958D03*
X026894Y005958D03*
X027681Y005958D03*
X032969Y005958D03*
X033756Y005958D03*
X034544Y005958D03*
X035331Y005958D03*
X035331Y015808D03*
X034544Y015808D03*
X033756Y015808D03*
X032969Y015808D03*
X027681Y015808D03*
X026894Y015808D03*
X026106Y015808D03*
X025319Y015808D03*
X020131Y015808D03*
X019344Y015808D03*
X018556Y015808D03*
X017769Y015808D03*
X012481Y015808D03*
X011694Y015808D03*
X010906Y015808D03*
X010119Y015808D03*
X010119Y025658D03*
X010906Y025658D03*
X011694Y025658D03*
X012481Y025658D03*
X017769Y025658D03*
X018556Y025658D03*
X019344Y025658D03*
X020131Y025658D03*
X025319Y025658D03*
X026106Y025658D03*
X026894Y025658D03*
X027681Y025658D03*
X032969Y025658D03*
X033756Y025658D03*
X034544Y025658D03*
X035331Y025658D03*
X035331Y035508D03*
X034544Y035508D03*
X033756Y035508D03*
X032969Y035508D03*
X027681Y035508D03*
X026894Y035508D03*
X026106Y035508D03*
X025319Y035508D03*
X020131Y035508D03*
X019344Y035508D03*
X018556Y035508D03*
X017769Y035508D03*
X012481Y035508D03*
X011694Y035508D03*
X010906Y035508D03*
X010119Y035508D03*
D12*
X008935Y036150D03*
X008265Y036150D03*
X004835Y037100D03*
X004165Y037100D03*
X004165Y027250D03*
X004835Y027250D03*
X008265Y026300D03*
X008935Y026300D03*
X015915Y026300D03*
X016585Y026300D03*
X023465Y026300D03*
X024135Y026300D03*
X031065Y026300D03*
X031735Y026300D03*
X031735Y036150D03*
X031065Y036150D03*
X024135Y036150D03*
X023465Y036150D03*
X016585Y036150D03*
X015915Y036150D03*
X004835Y017400D03*
X004165Y017400D03*
X008265Y016450D03*
X008935Y016450D03*
X015915Y016450D03*
X016585Y016450D03*
X023465Y016450D03*
X024135Y016450D03*
X031065Y016450D03*
X031735Y016450D03*
X031735Y006600D03*
X031065Y006600D03*
X024135Y006600D03*
X023465Y006600D03*
X016585Y006600D03*
X015915Y006600D03*
X008935Y006600D03*
X008265Y006600D03*
X004835Y007550D03*
X004165Y007550D03*
D13*
X006950Y003301D03*
X006950Y002199D03*
X006950Y012049D03*
X006950Y013151D03*
X006950Y021899D03*
X006950Y023001D03*
X006950Y031749D03*
X006950Y032851D03*
D14*
X008226Y036888D03*
X008974Y036888D03*
X008974Y037908D03*
X008600Y037908D03*
X008226Y037908D03*
X015826Y037908D03*
X016200Y037908D03*
X016574Y037908D03*
X016574Y036888D03*
X015826Y036888D03*
X023426Y036888D03*
X024174Y036888D03*
X024174Y037908D03*
X023800Y037908D03*
X023426Y037908D03*
X031026Y037908D03*
X031400Y037908D03*
X031774Y037908D03*
X031774Y036888D03*
X031026Y036888D03*
X031026Y028058D03*
X031400Y028058D03*
X031774Y028058D03*
X031774Y027038D03*
X031026Y027038D03*
X024174Y027038D03*
X023426Y027038D03*
X023426Y028058D03*
X023800Y028058D03*
X024174Y028058D03*
X016574Y028058D03*
X016200Y028058D03*
X015826Y028058D03*
X015826Y027038D03*
X016574Y027038D03*
X008974Y027038D03*
X008226Y027038D03*
X008226Y028058D03*
X008600Y028058D03*
X008974Y028058D03*
X008974Y018208D03*
X008600Y018208D03*
X008226Y018208D03*
X008226Y017188D03*
X008974Y017188D03*
X015826Y017188D03*
X016574Y017188D03*
X016574Y018208D03*
X016200Y018208D03*
X015826Y018208D03*
X023426Y018208D03*
X023800Y018208D03*
X024174Y018208D03*
X024174Y017188D03*
X023426Y017188D03*
X031026Y017188D03*
X031774Y017188D03*
X031774Y018208D03*
X031400Y018208D03*
X031026Y018208D03*
X031026Y008358D03*
X031400Y008358D03*
X031774Y008358D03*
X031774Y007338D03*
X031026Y007338D03*
X024174Y007338D03*
X023426Y007338D03*
X023426Y008358D03*
X023800Y008358D03*
X024174Y008358D03*
X016574Y008358D03*
X016200Y008358D03*
X015826Y008358D03*
X015826Y007338D03*
X016574Y007338D03*
X008974Y007338D03*
X008226Y007338D03*
X008226Y008358D03*
X008600Y008358D03*
X008974Y008358D03*
D15*
X002593Y008400D03*
X002593Y008144D03*
X002593Y007888D03*
X002593Y008656D03*
X002593Y008912D03*
X002593Y017738D03*
X002593Y017994D03*
X002593Y018250D03*
X002593Y018506D03*
X002593Y018762D03*
X002593Y027588D03*
X002593Y027844D03*
X002593Y028100D03*
X002593Y028356D03*
X002593Y028612D03*
X002593Y037438D03*
X002593Y037694D03*
X002593Y037950D03*
X002593Y038206D03*
X002593Y038462D03*
D16*
X001550Y039525D03*
X001550Y036375D03*
X001550Y029675D03*
X001550Y026525D03*
X001550Y019825D03*
X001550Y016675D03*
X001550Y009975D03*
X001550Y006825D03*
D17*
X001550Y007900D03*
X001550Y008900D03*
X001550Y017750D03*
X001550Y018750D03*
X001550Y027600D03*
X001550Y028600D03*
X001550Y037450D03*
X001550Y038450D03*
D18*
X005172Y038500D03*
X005628Y038500D03*
X008122Y038550D03*
X008578Y038550D03*
X015722Y038550D03*
X016178Y038550D03*
X023322Y038550D03*
X023778Y038550D03*
X030922Y038550D03*
X031378Y038550D03*
X031378Y028700D03*
X030922Y028700D03*
X023778Y028700D03*
X023322Y028700D03*
X016178Y028700D03*
X015722Y028700D03*
X008578Y028700D03*
X008122Y028700D03*
X005628Y028650D03*
X005172Y028650D03*
X005172Y018800D03*
X005628Y018800D03*
X008122Y018850D03*
X008578Y018850D03*
X015722Y018850D03*
X016178Y018850D03*
X023322Y018850D03*
X023778Y018850D03*
X030922Y018850D03*
X031378Y018850D03*
X031378Y009000D03*
X030922Y009000D03*
X023778Y009000D03*
X023322Y009000D03*
X016178Y009000D03*
X015722Y009000D03*
X008578Y009000D03*
X008122Y009000D03*
X005628Y008950D03*
X005172Y008950D03*
D19*
X010305Y009200D03*
X012195Y009200D03*
X017905Y009200D03*
X019795Y009200D03*
X025505Y009200D03*
X027395Y009200D03*
X033105Y009200D03*
X034995Y009200D03*
X034995Y019050D03*
X033105Y019050D03*
X027395Y019050D03*
X025505Y019050D03*
X019795Y019050D03*
X017905Y019050D03*
X012195Y019050D03*
X010305Y019050D03*
X010305Y028900D03*
X012195Y028900D03*
X017905Y028900D03*
X019795Y028900D03*
X025505Y028900D03*
X027395Y028900D03*
X033105Y028900D03*
X034995Y028900D03*
X034995Y038750D03*
X033105Y038750D03*
X027395Y038750D03*
X025505Y038750D03*
X019795Y038750D03*
X017905Y038750D03*
X012195Y038750D03*
X010305Y038750D03*
D20*
X010749Y036800D03*
X011851Y036800D03*
X018349Y036800D03*
X019451Y036800D03*
X025949Y036800D03*
X027051Y036800D03*
X033649Y036800D03*
X034751Y036800D03*
X034751Y026950D03*
X033649Y026950D03*
X027051Y026950D03*
X025949Y026950D03*
X019451Y026950D03*
X018349Y026950D03*
X011851Y026950D03*
X010749Y026950D03*
X010749Y017100D03*
X011851Y017100D03*
X018349Y017100D03*
X019451Y017100D03*
X025949Y017100D03*
X027051Y017100D03*
X033649Y017100D03*
X034751Y017100D03*
X034751Y007250D03*
X033649Y007250D03*
X027051Y007250D03*
X025949Y007250D03*
X019451Y007250D03*
X018349Y007250D03*
X011851Y007250D03*
X010749Y007250D03*
D21*
X005738Y007467D02*
X005462Y007467D01*
X005462Y007743D01*
X005738Y007743D01*
X005738Y007467D01*
X005738Y007584D02*
X005462Y007584D01*
X005462Y007701D02*
X005738Y007701D01*
X005738Y008157D02*
X005462Y008157D01*
X005462Y008433D01*
X005738Y008433D01*
X005738Y008157D01*
X005738Y008274D02*
X005462Y008274D01*
X005462Y008391D02*
X005738Y008391D01*
X005738Y017317D02*
X005462Y017317D01*
X005462Y017593D01*
X005738Y017593D01*
X005738Y017317D01*
X005738Y017434D02*
X005462Y017434D01*
X005462Y017551D02*
X005738Y017551D01*
X005738Y018007D02*
X005462Y018007D01*
X005462Y018283D01*
X005738Y018283D01*
X005738Y018007D01*
X005738Y018124D02*
X005462Y018124D01*
X005462Y018241D02*
X005738Y018241D01*
X005738Y027167D02*
X005462Y027167D01*
X005462Y027443D01*
X005738Y027443D01*
X005738Y027167D01*
X005738Y027284D02*
X005462Y027284D01*
X005462Y027401D02*
X005738Y027401D01*
X005738Y027857D02*
X005462Y027857D01*
X005462Y028133D01*
X005738Y028133D01*
X005738Y027857D01*
X005738Y027974D02*
X005462Y027974D01*
X005462Y028091D02*
X005738Y028091D01*
X005738Y037017D02*
X005462Y037017D01*
X005462Y037293D01*
X005738Y037293D01*
X005738Y037017D01*
X005738Y037134D02*
X005462Y037134D01*
X005462Y037251D02*
X005738Y037251D01*
X005738Y037707D02*
X005462Y037707D01*
X005462Y037983D01*
X005738Y037983D01*
X005738Y037707D01*
X005738Y037824D02*
X005462Y037824D01*
X005462Y037941D02*
X005738Y037941D01*
M02*
