%
M48
M72
T01C0.0236
T02C0.0394
T03C0.0400
T04C0.0910
T05C0.1180
T06C0.1260
%
T01
X9500Y6600
X13000Y7250
X17150Y6600
X20650Y7250
X24700Y6600
X28200Y7250
X32300Y6600
X35850Y7300
X32300Y16450
X35850Y17150
X28200Y17100
X24700Y16450
X20650Y17100
X17150Y16450
X13000Y17100
X9500Y16450
X9500Y26300
X13000Y26950
X17150Y26300
X20650Y26950
X24700Y26300
X28200Y26950
X32300Y26300
X35850Y27000
X32300Y36150
X35850Y36850
X28200Y36800
X24700Y36150
X20650Y36800
X17150Y36150
X13000Y36800
X9500Y36150
T02
X10120Y35310
X10900Y35310
X11700Y35310
X12480Y35310
X17770Y35310
X18550Y35310
X19350Y35310
X20130Y35310
X25320Y35310
X26100Y35310
X26900Y35310
X27680Y35310
X32970Y35310
X33750Y35310
X34550Y35310
X35330Y35310
X35330Y25460
X34550Y25460
X33750Y25460
X32970Y25460
X27680Y25460
X26900Y25460
X26100Y25460
X25320Y25460
X20130Y25460
X19350Y25460
X18550Y25460
X17770Y25460
X12480Y25460
X11700Y25460
X10900Y25460
X10120Y25460
X10120Y15610
X10900Y15610
X11700Y15610
X12480Y15610
X17770Y15610
X18550Y15610
X19350Y15610
X20130Y15610
X25320Y15610
X26100Y15610
X26900Y15610
X27680Y15610
X32970Y15610
X33750Y15610
X34550Y15610
X35330Y15610
X35330Y5760
X34550Y5760
X33750Y5760
X32970Y5760
X27680Y5760
X26900Y5760
X26100Y5760
X25320Y5760
X20130Y5760
X19350Y5760
X18550Y5760
X17770Y5760
X12480Y5760
X11700Y5760
X10900Y5760
X10120Y5760
T03
X1550Y3300
X1550Y4300
X4170Y9880
X5170Y9880
X7900Y9900
X8900Y9900
X15500Y9900
X16500Y9900
X23100Y9900
X24100Y9900
X30700Y9900
X31700Y9900
X31700Y19750
X30700Y19750
X24100Y19750
X23100Y19750
X16500Y19750
X15500Y19750
X8900Y19750
X7900Y19750
X5170Y19730
X4170Y19730
X1550Y23000
X1550Y24000
X4170Y29580
X5170Y29580
X7900Y29600
X8900Y29600
X15500Y29600
X16500Y29600
X23100Y29600
X24100Y29600
X30700Y29600
X31700Y29600
X31700Y39450
X30700Y39450
X24100Y39450
X23100Y39450
X16500Y39450
X15500Y39450
X8900Y39450
X7900Y39450
X5170Y39430
X4170Y39430
X1550Y33850
X1550Y32850
X1550Y14150
X1550Y13150
T04
X8715Y14450
X13885Y14450
X16365Y14450
X21535Y14450
X23915Y14450
X29085Y14450
X31565Y14450
X36735Y14450
X36735Y4600
X31565Y4600
X29085Y4600
X23915Y4600
X21535Y4600
X16365Y4600
X13885Y4600
X8715Y4600
X8715Y24300
X13885Y24300
X16365Y24300
X21535Y24300
X23915Y24300
X29085Y24300
X31565Y24300
X36735Y24300
X36735Y34150
X31565Y34150
X29085Y34150
X23915Y34150
X21535Y34150
X16365Y34150
X13885Y34150
X8715Y34150
T05
X5631Y34263
X4160Y32631
X5631Y24413
X4160Y22781
X5631Y14563
X4160Y12931
X5631Y4713
X4160Y3081
T06
X4150Y5964
X4150Y15814
X4150Y25664
X4150Y35514
M30
