G75*
G70*
%OFA0B0*%
%FSLAX24Y24*%
%IPPOS*%
%LPD*%
%AMOC8*
5,1,8,0,0,1.08239X$1,22.5*
%
%ADD10C,0.1310*%
%ADD11R,0.0354X0.1181*%
%ADD12C,0.1660*%
%ADD13C,0.1620*%
%ADD14R,0.0433X0.0394*%
%ADD15R,0.0630X0.0551*%
%ADD16R,0.0272X0.0390*%
%ADD17R,0.0551X0.0138*%
%ADD18R,0.0748X0.0709*%
%ADD19R,0.0748X0.0748*%
%ADD20R,0.0335X0.0354*%
%ADD21R,0.1181X0.0551*%
%ADD22R,0.0551X0.0630*%
%ADD23C,0.0740*%
%ADD24C,0.0118*%
%ADD25C,0.0500*%
%ADD26C,0.0240*%
%ADD27C,0.0320*%
%ADD28C,0.0160*%
%ADD29C,0.0560*%
%ADD30C,0.0591*%
%ADD31C,0.0400*%
%ADD32C,0.0120*%
D10*
X008715Y004600D03*
X013885Y004600D03*
X016365Y004600D03*
X021535Y004600D03*
X023915Y004600D03*
X029085Y004600D03*
X031565Y004600D03*
X036735Y004600D03*
X036735Y014450D03*
X031565Y014450D03*
X029085Y014450D03*
X023915Y014450D03*
X021535Y014450D03*
X016365Y014450D03*
X013885Y014450D03*
X008715Y014450D03*
X008715Y024300D03*
X013885Y024300D03*
X016365Y024300D03*
X021535Y024300D03*
X023915Y024300D03*
X029085Y024300D03*
X031565Y024300D03*
X036735Y024300D03*
X036735Y034150D03*
X031565Y034150D03*
X029085Y034150D03*
X023915Y034150D03*
X021535Y034150D03*
X016365Y034150D03*
X013885Y034150D03*
X008715Y034150D03*
D11*
X010119Y035508D03*
X010906Y035508D03*
X011694Y035508D03*
X012481Y035508D03*
X017769Y035508D03*
X018556Y035508D03*
X019344Y035508D03*
X020131Y035508D03*
X025319Y035508D03*
X026106Y035508D03*
X026894Y035508D03*
X027681Y035508D03*
X032969Y035508D03*
X033756Y035508D03*
X034544Y035508D03*
X035331Y035508D03*
X035331Y025658D03*
X034544Y025658D03*
X033756Y025658D03*
X032969Y025658D03*
X027681Y025658D03*
X026894Y025658D03*
X026106Y025658D03*
X025319Y025658D03*
X020131Y025658D03*
X019344Y025658D03*
X018556Y025658D03*
X017769Y025658D03*
X012481Y025658D03*
X011694Y025658D03*
X010906Y025658D03*
X010119Y025658D03*
X010119Y015808D03*
X010906Y015808D03*
X011694Y015808D03*
X012481Y015808D03*
X017769Y015808D03*
X018556Y015808D03*
X019344Y015808D03*
X020131Y015808D03*
X025319Y015808D03*
X026106Y015808D03*
X026894Y015808D03*
X027681Y015808D03*
X032969Y015808D03*
X033756Y015808D03*
X034544Y015808D03*
X035331Y015808D03*
X035331Y005958D03*
X034544Y005958D03*
X033756Y005958D03*
X032969Y005958D03*
X027681Y005958D03*
X026894Y005958D03*
X026106Y005958D03*
X025319Y005958D03*
X020131Y005958D03*
X019344Y005958D03*
X018556Y005958D03*
X017769Y005958D03*
X012481Y005958D03*
X011694Y005958D03*
X010906Y005958D03*
X010119Y005958D03*
D12*
X004150Y005964D03*
X004150Y015814D03*
X004150Y025664D03*
X004150Y035514D03*
D13*
X005631Y034263D03*
X004160Y032631D03*
X005631Y024413D03*
X004160Y022781D03*
X005631Y014563D03*
X004160Y012931D03*
X005631Y004713D03*
X004160Y003081D03*
D14*
X004165Y007550D03*
X004835Y007550D03*
X008265Y006600D03*
X008935Y006600D03*
X015915Y006600D03*
X016585Y006600D03*
X023465Y006600D03*
X024135Y006600D03*
X031065Y006600D03*
X031735Y006600D03*
X031735Y016450D03*
X031065Y016450D03*
X024135Y016450D03*
X023465Y016450D03*
X016585Y016450D03*
X015915Y016450D03*
X008935Y016450D03*
X008265Y016450D03*
X004835Y017400D03*
X004165Y017400D03*
X008265Y026300D03*
X008935Y026300D03*
X004835Y027250D03*
X004165Y027250D03*
X008265Y036150D03*
X008935Y036150D03*
X004835Y037100D03*
X004165Y037100D03*
X015915Y036150D03*
X016585Y036150D03*
X023465Y036150D03*
X024135Y036150D03*
X031065Y036150D03*
X031735Y036150D03*
X031735Y026300D03*
X031065Y026300D03*
X024135Y026300D03*
X023465Y026300D03*
X016585Y026300D03*
X015915Y026300D03*
D15*
X006950Y023001D03*
X006950Y021899D03*
X006950Y013151D03*
X006950Y012049D03*
X006950Y003301D03*
X006950Y002199D03*
X006950Y031749D03*
X006950Y032851D03*
D16*
X008226Y036888D03*
X008974Y036888D03*
X008974Y037908D03*
X008600Y037908D03*
X008226Y037908D03*
X015826Y037908D03*
X016200Y037908D03*
X016574Y037908D03*
X016574Y036888D03*
X015826Y036888D03*
X023426Y036888D03*
X024174Y036888D03*
X024174Y037908D03*
X023800Y037908D03*
X023426Y037908D03*
X031026Y037908D03*
X031400Y037908D03*
X031774Y037908D03*
X031774Y036888D03*
X031026Y036888D03*
X031026Y028058D03*
X031400Y028058D03*
X031774Y028058D03*
X031774Y027038D03*
X031026Y027038D03*
X024174Y027038D03*
X023426Y027038D03*
X023426Y028058D03*
X023800Y028058D03*
X024174Y028058D03*
X016574Y028058D03*
X016200Y028058D03*
X015826Y028058D03*
X015826Y027038D03*
X016574Y027038D03*
X008974Y027038D03*
X008226Y027038D03*
X008226Y028058D03*
X008600Y028058D03*
X008974Y028058D03*
X008974Y018208D03*
X008600Y018208D03*
X008226Y018208D03*
X008226Y017188D03*
X008974Y017188D03*
X015826Y017188D03*
X016574Y017188D03*
X016574Y018208D03*
X016200Y018208D03*
X015826Y018208D03*
X023426Y018208D03*
X023800Y018208D03*
X024174Y018208D03*
X024174Y017188D03*
X023426Y017188D03*
X031026Y017188D03*
X031774Y017188D03*
X031774Y018208D03*
X031400Y018208D03*
X031026Y018208D03*
X031026Y008358D03*
X031400Y008358D03*
X031774Y008358D03*
X031774Y007338D03*
X031026Y007338D03*
X024174Y007338D03*
X023426Y007338D03*
X023426Y008358D03*
X023800Y008358D03*
X024174Y008358D03*
X016574Y008358D03*
X016200Y008358D03*
X015826Y008358D03*
X015826Y007338D03*
X016574Y007338D03*
X008974Y007338D03*
X008226Y007338D03*
X008226Y008358D03*
X008600Y008358D03*
X008974Y008358D03*
D17*
X002593Y008400D03*
X002593Y008144D03*
X002593Y007888D03*
X002593Y008656D03*
X002593Y008912D03*
X002593Y017738D03*
X002593Y017994D03*
X002593Y018250D03*
X002593Y018506D03*
X002593Y018762D03*
X002593Y027588D03*
X002593Y027844D03*
X002593Y028100D03*
X002593Y028356D03*
X002593Y028612D03*
X002593Y037438D03*
X002593Y037694D03*
X002593Y037950D03*
X002593Y038206D03*
X002593Y038462D03*
D18*
X001550Y039525D03*
X001550Y036375D03*
X001550Y029675D03*
X001550Y026525D03*
X001550Y019825D03*
X001550Y016675D03*
X001550Y009975D03*
X001550Y006825D03*
D19*
X001550Y007900D03*
X001550Y008900D03*
X001550Y017750D03*
X001550Y018750D03*
X001550Y027600D03*
X001550Y028600D03*
X001550Y037450D03*
X001550Y038450D03*
D20*
X005172Y038500D03*
X005628Y038500D03*
X008122Y038550D03*
X008578Y038550D03*
X015722Y038550D03*
X016178Y038550D03*
X023322Y038550D03*
X023778Y038550D03*
X030922Y038550D03*
X031378Y038550D03*
X031378Y028700D03*
X030922Y028700D03*
X023778Y028700D03*
X023322Y028700D03*
X016178Y028700D03*
X015722Y028700D03*
X008578Y028700D03*
X008122Y028700D03*
X005628Y028650D03*
X005172Y028650D03*
X005172Y018800D03*
X005628Y018800D03*
X008122Y018850D03*
X008578Y018850D03*
X015722Y018850D03*
X016178Y018850D03*
X023322Y018850D03*
X023778Y018850D03*
X030922Y018850D03*
X031378Y018850D03*
X031378Y009000D03*
X030922Y009000D03*
X023778Y009000D03*
X023322Y009000D03*
X016178Y009000D03*
X015722Y009000D03*
X008578Y009000D03*
X008122Y009000D03*
X005628Y008950D03*
X005172Y008950D03*
D21*
X010305Y009200D03*
X012195Y009200D03*
X017905Y009200D03*
X019795Y009200D03*
X025505Y009200D03*
X027395Y009200D03*
X033105Y009200D03*
X034995Y009200D03*
X034995Y019050D03*
X033105Y019050D03*
X027395Y019050D03*
X025505Y019050D03*
X019795Y019050D03*
X017905Y019050D03*
X012195Y019050D03*
X010305Y019050D03*
X010305Y028900D03*
X012195Y028900D03*
X017905Y028900D03*
X019795Y028900D03*
X025505Y028900D03*
X027395Y028900D03*
X033105Y028900D03*
X034995Y028900D03*
X034995Y038750D03*
X033105Y038750D03*
X027395Y038750D03*
X025505Y038750D03*
X019795Y038750D03*
X017905Y038750D03*
X012195Y038750D03*
X010305Y038750D03*
D22*
X010749Y036800D03*
X011851Y036800D03*
X018349Y036800D03*
X019451Y036800D03*
X025949Y036800D03*
X027051Y036800D03*
X033649Y036800D03*
X034751Y036800D03*
X034751Y026950D03*
X033649Y026950D03*
X027051Y026950D03*
X025949Y026950D03*
X019451Y026950D03*
X018349Y026950D03*
X011851Y026950D03*
X010749Y026950D03*
X010749Y017100D03*
X011851Y017100D03*
X018349Y017100D03*
X019451Y017100D03*
X025949Y017100D03*
X027051Y017100D03*
X033649Y017100D03*
X034751Y017100D03*
X034751Y007250D03*
X033649Y007250D03*
X027051Y007250D03*
X025949Y007250D03*
X019451Y007250D03*
X018349Y007250D03*
X011851Y007250D03*
X010749Y007250D03*
D23*
X008900Y009900D03*
X007900Y009900D03*
X005170Y009880D03*
X004170Y009880D03*
X001550Y013150D03*
X001550Y014150D03*
X004170Y019730D03*
X005170Y019730D03*
X007900Y019750D03*
X008900Y019750D03*
X015500Y019750D03*
X016500Y019750D03*
X023100Y019750D03*
X024100Y019750D03*
X030700Y019750D03*
X031700Y019750D03*
X031700Y009900D03*
X030700Y009900D03*
X024100Y009900D03*
X023100Y009900D03*
X016500Y009900D03*
X015500Y009900D03*
X001550Y004300D03*
X001550Y003300D03*
X001550Y023000D03*
X001550Y024000D03*
X004170Y029580D03*
X005170Y029580D03*
X007900Y029600D03*
X008900Y029600D03*
X015500Y029600D03*
X016500Y029600D03*
X023100Y029600D03*
X024100Y029600D03*
X030700Y029600D03*
X031700Y029600D03*
X031700Y039450D03*
X030700Y039450D03*
X024100Y039450D03*
X023100Y039450D03*
X016500Y039450D03*
X015500Y039450D03*
X008900Y039450D03*
X007900Y039450D03*
X005170Y039430D03*
X004170Y039430D03*
X001550Y033850D03*
X001550Y032850D03*
D24*
X005462Y037017D02*
X005738Y037017D01*
X005462Y037017D02*
X005462Y037293D01*
X005738Y037293D01*
X005738Y037017D01*
X005738Y037134D02*
X005462Y037134D01*
X005462Y037251D02*
X005738Y037251D01*
X005738Y037707D02*
X005462Y037707D01*
X005462Y037983D01*
X005738Y037983D01*
X005738Y037707D01*
X005738Y037824D02*
X005462Y037824D01*
X005462Y037941D02*
X005738Y037941D01*
X005738Y027857D02*
X005462Y027857D01*
X005462Y028133D01*
X005738Y028133D01*
X005738Y027857D01*
X005738Y027974D02*
X005462Y027974D01*
X005462Y028091D02*
X005738Y028091D01*
X005738Y027167D02*
X005462Y027167D01*
X005462Y027443D01*
X005738Y027443D01*
X005738Y027167D01*
X005738Y027284D02*
X005462Y027284D01*
X005462Y027401D02*
X005738Y027401D01*
X005738Y018007D02*
X005462Y018007D01*
X005462Y018283D01*
X005738Y018283D01*
X005738Y018007D01*
X005738Y018124D02*
X005462Y018124D01*
X005462Y018241D02*
X005738Y018241D01*
X005738Y017317D02*
X005462Y017317D01*
X005462Y017593D01*
X005738Y017593D01*
X005738Y017317D01*
X005738Y017434D02*
X005462Y017434D01*
X005462Y017551D02*
X005738Y017551D01*
X005738Y008157D02*
X005462Y008157D01*
X005462Y008433D01*
X005738Y008433D01*
X005738Y008157D01*
X005738Y008274D02*
X005462Y008274D01*
X005462Y008391D02*
X005738Y008391D01*
X005738Y007467D02*
X005462Y007467D01*
X005462Y007743D01*
X005738Y007743D01*
X005738Y007467D01*
X005738Y007584D02*
X005462Y007584D01*
X005462Y007701D02*
X005738Y007701D01*
D25*
X006450Y006100D02*
X004286Y006100D01*
X004150Y005964D01*
X005631Y004713D02*
X002487Y004713D01*
X001600Y005600D01*
X001600Y006775D01*
X001550Y006825D02*
X002125Y006825D01*
X002550Y007250D01*
X002550Y007700D01*
X006450Y006100D02*
X006950Y005600D01*
X006950Y003301D01*
X006950Y002199D02*
X005043Y002199D01*
X004160Y003081D01*
X010350Y007250D02*
X010749Y007250D01*
X011851Y007250D02*
X012300Y007250D01*
X012500Y007250D02*
X013000Y007250D01*
X017950Y007250D02*
X018349Y007250D01*
X019451Y007250D02*
X019950Y007250D01*
X020100Y007250D02*
X020650Y007250D01*
X025500Y007250D02*
X025949Y007250D01*
X027051Y007250D02*
X027500Y007250D01*
X028200Y007250D01*
X033200Y007250D02*
X033649Y007250D01*
X034751Y007250D02*
X035150Y007250D01*
X035200Y007300D02*
X035850Y007300D01*
X035150Y017100D02*
X034751Y017100D01*
X035200Y017150D02*
X035850Y017150D01*
X033649Y017100D02*
X033200Y017100D01*
X028200Y017100D02*
X027500Y017100D01*
X027051Y017100D01*
X025949Y017100D02*
X025500Y017100D01*
X020650Y017100D02*
X020100Y017100D01*
X019950Y017100D02*
X019451Y017100D01*
X018349Y017100D02*
X017950Y017100D01*
X013000Y017100D02*
X012500Y017100D01*
X012300Y017100D02*
X011851Y017100D01*
X010749Y017100D02*
X010350Y017100D01*
X006950Y015450D02*
X006950Y013151D01*
X006950Y012049D02*
X005043Y012049D01*
X004160Y012931D01*
X005631Y014563D02*
X002487Y014563D01*
X001600Y015450D01*
X001600Y016625D01*
X001550Y016675D02*
X002125Y016675D01*
X002550Y017100D01*
X002550Y017550D01*
X004286Y015950D02*
X004150Y015814D01*
X004286Y015950D02*
X006450Y015950D01*
X006950Y015450D01*
X006950Y021899D02*
X005043Y021899D01*
X004160Y022781D01*
X005631Y024413D02*
X002487Y024413D01*
X001600Y025300D01*
X001600Y026475D01*
X001550Y026525D02*
X002125Y026525D01*
X002550Y026950D01*
X002550Y027400D01*
X004286Y025800D02*
X004150Y025664D01*
X004286Y025800D02*
X006450Y025800D01*
X006950Y025300D01*
X006950Y023001D01*
X010350Y026950D02*
X010749Y026950D01*
X011851Y026950D02*
X012300Y026950D01*
X012500Y026950D02*
X013000Y026950D01*
X017950Y026950D02*
X018349Y026950D01*
X019451Y026950D02*
X019950Y026950D01*
X020100Y026950D02*
X020650Y026950D01*
X025500Y026950D02*
X025949Y026950D01*
X027051Y026950D02*
X027500Y026950D01*
X028200Y026950D01*
X033200Y026950D02*
X033649Y026950D01*
X034751Y026950D02*
X035150Y026950D01*
X035200Y027000D02*
X035850Y027000D01*
X035150Y036800D02*
X034751Y036800D01*
X035200Y036850D02*
X035850Y036850D01*
X033649Y036800D02*
X033200Y036800D01*
X028200Y036800D02*
X027500Y036800D01*
X027051Y036800D01*
X025949Y036800D02*
X025500Y036800D01*
X020650Y036800D02*
X020100Y036800D01*
X019950Y036800D02*
X019451Y036800D01*
X018349Y036800D02*
X017950Y036800D01*
X013000Y036800D02*
X012500Y036800D01*
X012300Y036800D02*
X011851Y036800D01*
X010749Y036800D02*
X010350Y036800D01*
X006950Y035150D02*
X006950Y032851D01*
X006950Y031749D02*
X005043Y031749D01*
X004160Y032631D01*
X005631Y034263D02*
X002487Y034263D01*
X001600Y035150D01*
X001600Y036325D01*
X001550Y036375D02*
X002125Y036375D01*
X002550Y036800D01*
X002550Y037250D01*
X004286Y035650D02*
X004150Y035514D01*
X004286Y035650D02*
X006450Y035650D01*
X006950Y035150D01*
D26*
X000980Y003850D02*
X000980Y001100D01*
X007100Y001100D01*
X007100Y001723D01*
X006968Y001723D01*
X006968Y002181D01*
X006932Y002181D01*
X006435Y002181D01*
X006435Y001897D01*
X006449Y001846D01*
X006475Y001800D01*
X006512Y001763D01*
X006558Y001737D01*
X006609Y001723D01*
X006932Y001723D01*
X006932Y002181D01*
X006932Y002217D01*
X006435Y002217D01*
X006435Y002371D01*
X005950Y002350D01*
X005900Y003150D01*
X005200Y003150D01*
X005156Y003201D01*
X004280Y003201D01*
X004280Y002961D01*
X004280Y002079D01*
X004329Y002084D01*
X004440Y002109D01*
X004547Y002147D01*
X004649Y002196D01*
X004745Y002256D01*
X004834Y002327D01*
X004914Y002407D01*
X004985Y002496D01*
X005045Y002592D01*
X005095Y002694D01*
X005132Y002801D01*
X005157Y002912D01*
X005163Y002961D01*
X004280Y002961D01*
X004040Y002961D01*
X004040Y002079D01*
X003991Y002084D01*
X003880Y002109D01*
X003773Y002147D01*
X003671Y002196D01*
X003575Y002256D01*
X003486Y002327D01*
X003406Y002407D01*
X003335Y002496D01*
X003275Y002592D01*
X003225Y002694D01*
X003188Y002801D01*
X003163Y002912D01*
X003157Y002961D01*
X004040Y002961D01*
X004040Y003201D01*
X003157Y003201D01*
X003163Y003251D01*
X003188Y003362D01*
X003225Y003469D01*
X003275Y003571D01*
X003335Y003667D01*
X003406Y003756D01*
X003486Y003836D01*
X003504Y003850D01*
X001878Y003850D01*
X001862Y003834D01*
X001804Y003810D01*
X001849Y003788D01*
X001921Y003735D01*
X001985Y003671D01*
X002038Y003599D01*
X002078Y003519D01*
X002106Y003433D01*
X002120Y003345D01*
X002120Y003300D01*
X001550Y003300D01*
X001550Y003300D01*
X001550Y003300D01*
X000980Y003300D01*
X000980Y003345D01*
X000994Y003433D01*
X001022Y003519D01*
X001062Y003599D01*
X001115Y003671D01*
X001179Y003735D01*
X001251Y003788D01*
X001296Y003810D01*
X001238Y003834D01*
X001222Y003850D01*
X000980Y003850D01*
X000980Y003662D02*
X001108Y003662D01*
X000992Y003424D02*
X000980Y003424D01*
X000980Y003300D02*
X000980Y003255D01*
X000994Y003167D01*
X001022Y003081D01*
X001062Y003001D01*
X001115Y002929D01*
X001179Y002865D01*
X001251Y002812D01*
X001331Y002772D01*
X001417Y002744D01*
X001505Y002730D01*
X001550Y002730D01*
X001595Y002730D01*
X001683Y002744D01*
X001769Y002772D01*
X001849Y002812D01*
X001921Y002865D01*
X001985Y002929D01*
X002038Y003001D01*
X002078Y003081D01*
X002106Y003167D01*
X002120Y003255D01*
X002120Y003300D01*
X001550Y003300D01*
X001550Y002730D01*
X001550Y003300D01*
X001550Y003300D01*
X000980Y003300D01*
X000980Y003185D02*
X000991Y003185D01*
X000980Y002947D02*
X001102Y002947D01*
X000980Y002708D02*
X003221Y002708D01*
X003159Y002947D02*
X001998Y002947D01*
X002109Y003185D02*
X004040Y003185D01*
X004040Y002947D02*
X004280Y002947D01*
X004280Y003185D02*
X005170Y003185D01*
X005161Y002947D02*
X005913Y002947D01*
X005928Y002708D02*
X005099Y002708D01*
X004964Y002470D02*
X005943Y002470D01*
X006435Y002231D02*
X004705Y002231D01*
X004280Y002231D02*
X004040Y002231D01*
X004040Y002470D02*
X004280Y002470D01*
X004280Y002708D02*
X004040Y002708D01*
X003615Y002231D02*
X000980Y002231D01*
X000980Y001993D02*
X006435Y001993D01*
X006528Y001754D02*
X000980Y001754D01*
X000980Y001516D02*
X007100Y001516D01*
X007100Y001277D02*
X000980Y001277D01*
X000980Y002470D02*
X003356Y002470D01*
X003210Y003424D02*
X002108Y003424D01*
X001992Y003662D02*
X003332Y003662D01*
X001550Y003185D02*
X001550Y003185D01*
X001550Y002947D02*
X001550Y002947D01*
X004800Y006950D02*
X004798Y007153D01*
X004835Y007153D01*
X005078Y007153D01*
X005128Y007167D01*
X005174Y007193D01*
X005211Y007230D01*
X005238Y007276D01*
X005249Y007319D01*
X005261Y007302D01*
X005297Y007266D01*
X005339Y007237D01*
X005387Y007218D01*
X005437Y007208D01*
X005600Y007208D01*
X005763Y007208D01*
X005813Y007218D01*
X005861Y007237D01*
X005903Y007266D01*
X005939Y007302D01*
X005967Y007344D01*
X005987Y007391D01*
X005997Y007441D01*
X005997Y007605D01*
X005997Y007768D01*
X005987Y007818D01*
X005967Y007865D01*
X005945Y007899D01*
X006017Y007971D01*
X006067Y008092D01*
X006067Y008499D01*
X006019Y008614D01*
X006025Y008620D01*
X006066Y008719D01*
X006066Y009181D01*
X006025Y009280D01*
X005949Y009356D01*
X005849Y009397D01*
X005475Y009397D01*
X005541Y009445D01*
X005605Y009509D01*
X005658Y009581D01*
X005698Y009661D01*
X005726Y009747D01*
X005740Y009835D01*
X005740Y009880D01*
X005740Y009925D01*
X005726Y010013D01*
X005698Y010099D01*
X005658Y010179D01*
X005605Y010251D01*
X005541Y010315D01*
X005469Y010368D01*
X005459Y010373D01*
X007467Y010373D01*
X007357Y010263D01*
X007260Y010027D01*
X007260Y009773D01*
X007357Y009537D01*
X007537Y009357D01*
X007708Y009287D01*
X007684Y009231D01*
X007684Y008769D01*
X007725Y008670D01*
X007801Y008594D01*
X007820Y008586D01*
X007820Y008109D01*
X007861Y008010D01*
X007937Y007934D01*
X008036Y007893D01*
X008250Y007893D01*
X008250Y007733D01*
X008226Y007733D01*
X008226Y007338D01*
X007890Y007338D01*
X007890Y007117D01*
X007904Y007066D01*
X007930Y007021D01*
X007967Y006983D01*
X007970Y006982D01*
X007926Y006957D01*
X007889Y006920D01*
X007862Y006874D01*
X007849Y006823D01*
X007849Y006600D01*
X007849Y006377D01*
X007862Y006326D01*
X007889Y006280D01*
X007926Y006243D01*
X007972Y006217D01*
X008022Y006203D01*
X008265Y006203D01*
X008265Y006600D01*
X007849Y006600D01*
X008265Y006600D01*
X008265Y006600D01*
X008265Y006600D01*
X008226Y006700D01*
X008226Y007338D01*
X008226Y007338D01*
X007890Y007338D01*
X007890Y007559D01*
X007904Y007610D01*
X007930Y007656D01*
X007967Y007693D01*
X008013Y007719D01*
X008064Y007733D01*
X008226Y007733D01*
X008226Y007338D01*
X008226Y007338D01*
X008226Y007478D02*
X008226Y007478D01*
X008226Y007717D02*
X008226Y007717D01*
X008008Y007717D02*
X005997Y007717D01*
X005997Y007605D02*
X005600Y007605D01*
X005600Y007605D01*
X005997Y007605D01*
X005997Y007478D02*
X007890Y007478D01*
X007890Y007240D02*
X005864Y007240D01*
X005600Y007240D02*
X005600Y007240D01*
X005600Y007208D02*
X005600Y007605D01*
X005600Y007605D01*
X005600Y007208D01*
X005336Y007240D02*
X005217Y007240D01*
X004835Y007240D02*
X004835Y007240D01*
X004835Y007153D02*
X004835Y007550D01*
X004835Y007550D01*
X004835Y007947D01*
X005078Y007947D01*
X005128Y007933D01*
X005174Y007907D01*
X005211Y007870D01*
X005225Y007846D01*
X005233Y007865D01*
X005255Y007899D01*
X005183Y007971D01*
X005133Y008092D01*
X005133Y008499D01*
X005135Y008503D01*
X004951Y008503D01*
X004851Y008544D01*
X004796Y008599D01*
X004786Y008599D01*
X004792Y007947D01*
X004835Y007947D01*
X004835Y007550D01*
X004835Y007550D01*
X004835Y007153D01*
X004800Y007001D02*
X007950Y007001D01*
X007849Y006763D02*
X006969Y006763D01*
X006850Y006900D02*
X006850Y006950D01*
X004800Y006950D01*
X004835Y007478D02*
X004835Y007478D01*
X004835Y007717D02*
X004835Y007717D01*
X004792Y007955D02*
X005199Y007955D01*
X005133Y008194D02*
X004790Y008194D01*
X004788Y008432D02*
X005133Y008432D01*
X006067Y008432D02*
X007820Y008432D01*
X007820Y008194D02*
X006067Y008194D01*
X006001Y007955D02*
X007916Y007955D01*
X007725Y008671D02*
X006046Y008671D01*
X006066Y008909D02*
X007684Y008909D01*
X007684Y009148D02*
X006066Y009148D01*
X005876Y009386D02*
X007509Y009386D01*
X007321Y009625D02*
X005680Y009625D01*
X005740Y009863D02*
X007260Y009863D01*
X007291Y010102D02*
X005697Y010102D01*
X005740Y009880D02*
X005170Y009880D01*
X005170Y009880D01*
X005740Y009880D01*
X005507Y010340D02*
X007435Y010340D01*
X007800Y010920D02*
X007800Y014242D01*
X007931Y013926D01*
X008191Y013666D01*
X008531Y013525D01*
X008899Y013525D01*
X009239Y013666D01*
X009499Y013926D01*
X009640Y014266D01*
X009640Y014634D01*
X009499Y014974D01*
X009239Y015234D01*
X009090Y015296D01*
X009090Y015591D01*
X009031Y015734D01*
X008921Y015844D01*
X008778Y015903D01*
X008622Y015903D01*
X008479Y015844D01*
X008369Y015734D01*
X008310Y015591D01*
X008310Y015283D01*
X008191Y015234D01*
X007931Y014974D01*
X007800Y014658D01*
X007800Y015650D01*
X006850Y016750D01*
X006850Y016800D01*
X004800Y016800D01*
X004798Y017003D01*
X004835Y017003D01*
X005078Y017003D01*
X005128Y017017D01*
X005174Y017043D01*
X005211Y017080D01*
X005238Y017126D01*
X005249Y017169D01*
X005261Y017152D01*
X005297Y017116D01*
X005339Y017087D01*
X005387Y017068D01*
X005437Y017058D01*
X005600Y017058D01*
X005763Y017058D01*
X005813Y017068D01*
X005861Y017087D01*
X005903Y017116D01*
X005939Y017152D01*
X005967Y017194D01*
X005987Y017241D01*
X005997Y017291D01*
X005997Y017455D01*
X005997Y017618D01*
X005987Y017668D01*
X005967Y017715D01*
X005945Y017749D01*
X006017Y017821D01*
X006067Y017942D01*
X006067Y018349D01*
X006019Y018464D01*
X006025Y018470D01*
X006066Y018569D01*
X006066Y019031D01*
X006025Y019130D01*
X005949Y019206D01*
X005849Y019247D01*
X005475Y019247D01*
X005541Y019295D01*
X005605Y019359D01*
X005658Y019431D01*
X005698Y019511D01*
X005726Y019597D01*
X005740Y019685D01*
X005740Y019730D01*
X005740Y019775D01*
X005726Y019863D01*
X005698Y019949D01*
X005658Y020029D01*
X005605Y020101D01*
X005541Y020165D01*
X005469Y020218D01*
X005459Y020223D01*
X007467Y020223D01*
X007357Y020113D01*
X007260Y019877D01*
X007260Y019623D01*
X007357Y019387D01*
X007537Y019207D01*
X007708Y019137D01*
X007684Y019081D01*
X007684Y018619D01*
X007725Y018520D01*
X007801Y018444D01*
X007820Y018436D01*
X007820Y017959D01*
X007861Y017860D01*
X007937Y017784D01*
X008036Y017743D01*
X008250Y017743D01*
X008250Y017583D01*
X008226Y017583D01*
X008226Y017188D01*
X007890Y017188D01*
X007890Y016967D01*
X007904Y016916D01*
X007930Y016871D01*
X007967Y016833D01*
X007970Y016832D01*
X007926Y016807D01*
X007889Y016770D01*
X007862Y016724D01*
X007849Y016673D01*
X007849Y016450D01*
X007849Y016227D01*
X007862Y016176D01*
X007889Y016130D01*
X007926Y016093D01*
X007972Y016067D01*
X008022Y016053D01*
X008265Y016053D01*
X008265Y016450D01*
X007849Y016450D01*
X008265Y016450D01*
X008265Y016450D01*
X008265Y016450D01*
X008226Y016550D01*
X008226Y017188D01*
X008226Y017188D01*
X007890Y017188D01*
X007890Y017409D01*
X007904Y017460D01*
X007930Y017506D01*
X007967Y017543D01*
X008013Y017569D01*
X008064Y017583D01*
X008226Y017583D01*
X008226Y017188D01*
X008226Y017188D01*
X008226Y017257D02*
X008226Y017257D01*
X008226Y017495D02*
X008226Y017495D01*
X008250Y017734D02*
X005955Y017734D01*
X005997Y017495D02*
X007924Y017495D01*
X007890Y017257D02*
X005990Y017257D01*
X005997Y017455D02*
X005600Y017455D01*
X005997Y017455D01*
X005600Y017455D02*
X005600Y017455D01*
X005600Y017058D01*
X005600Y017455D01*
X005600Y017455D01*
X005600Y017257D02*
X005600Y017257D01*
X005131Y017018D02*
X007890Y017018D01*
X007899Y016780D02*
X006850Y016780D01*
X007030Y016541D02*
X007849Y016541D01*
X007849Y016303D02*
X007236Y016303D01*
X007442Y016064D02*
X007982Y016064D01*
X008265Y016064D02*
X008265Y016064D01*
X008265Y016053D02*
X008508Y016053D01*
X008530Y016059D01*
X008565Y016024D01*
X008664Y015983D01*
X009190Y015983D01*
X009391Y015900D01*
X009609Y015900D01*
X009632Y015909D01*
X009555Y015722D01*
X009555Y015498D01*
X009641Y015290D01*
X009660Y015271D01*
X009660Y015052D01*
X009697Y014964D01*
X009764Y014897D01*
X009852Y014860D01*
X012798Y014860D01*
X012886Y014897D01*
X012953Y014964D01*
X012990Y015052D01*
X012990Y015364D01*
X013045Y015498D01*
X013045Y015722D01*
X012990Y015856D01*
X012990Y016550D01*
X013109Y016550D01*
X013312Y016634D01*
X013466Y016788D01*
X013550Y016991D01*
X013550Y017209D01*
X013466Y017412D01*
X013312Y017566D01*
X013109Y017650D01*
X012990Y017650D01*
X012990Y018597D01*
X013014Y018621D01*
X013055Y018721D01*
X013055Y019379D01*
X013014Y019479D01*
X012986Y019506D01*
X012953Y019586D01*
X012886Y019653D01*
X012798Y019690D01*
X009852Y019690D01*
X009764Y019653D01*
X009706Y019596D01*
X009661Y019596D01*
X009562Y019554D01*
X009486Y019479D01*
X009445Y019379D01*
X009445Y018721D01*
X009486Y018621D01*
X009562Y018546D01*
X009660Y018505D01*
X009660Y017618D01*
X009248Y017618D01*
X009164Y017653D01*
X008950Y017653D01*
X008950Y017743D01*
X009164Y017743D01*
X009263Y017784D01*
X009339Y017860D01*
X009380Y017959D01*
X009380Y018456D01*
X009339Y018556D01*
X009324Y018570D01*
X009324Y019269D01*
X009443Y019387D01*
X009540Y019623D01*
X009540Y019877D01*
X009443Y020113D01*
X009333Y020223D01*
X015067Y020223D01*
X014957Y020113D01*
X014860Y019877D01*
X014860Y019623D01*
X014957Y019387D01*
X015137Y019207D01*
X015308Y019137D01*
X015284Y019081D01*
X015284Y018619D01*
X015325Y018520D01*
X015401Y018444D01*
X015420Y018436D01*
X015420Y017959D01*
X015461Y017860D01*
X015537Y017784D01*
X015636Y017743D01*
X015850Y017743D01*
X015850Y017583D01*
X015826Y017583D01*
X015826Y017188D01*
X015490Y017188D01*
X015490Y016967D01*
X015504Y016916D01*
X015530Y016871D01*
X015567Y016833D01*
X015595Y016818D01*
X015576Y016807D01*
X015539Y016770D01*
X015512Y016724D01*
X015499Y016673D01*
X015499Y016450D01*
X015499Y016227D01*
X015512Y016176D01*
X015539Y016130D01*
X015576Y016093D01*
X015622Y016067D01*
X015672Y016053D01*
X015915Y016053D01*
X015915Y016450D01*
X015499Y016450D01*
X015915Y016450D01*
X015915Y016450D01*
X015915Y016450D01*
X015826Y016539D01*
X015826Y017188D01*
X015826Y017188D01*
X015490Y017188D01*
X015490Y017409D01*
X015504Y017460D01*
X015530Y017506D01*
X015567Y017543D01*
X015613Y017569D01*
X015664Y017583D01*
X015826Y017583D01*
X015826Y017188D01*
X015826Y017188D01*
X015826Y017257D02*
X015826Y017257D01*
X015826Y017495D02*
X015826Y017495D01*
X015850Y017734D02*
X012990Y017734D01*
X012990Y017972D02*
X015420Y017972D01*
X015420Y018211D02*
X012990Y018211D01*
X012990Y018449D02*
X015396Y018449D01*
X015284Y018688D02*
X013042Y018688D01*
X013055Y018926D02*
X015284Y018926D01*
X015241Y019165D02*
X013055Y019165D01*
X013046Y019403D02*
X014951Y019403D01*
X014860Y019642D02*
X012898Y019642D01*
X012481Y019050D02*
X012195Y019050D01*
X013383Y017495D02*
X015524Y017495D01*
X015490Y017257D02*
X013530Y017257D01*
X013550Y017018D02*
X015490Y017018D01*
X015549Y016780D02*
X013457Y016780D01*
X012990Y016541D02*
X015499Y016541D01*
X015499Y016303D02*
X012990Y016303D01*
X012990Y016064D02*
X015632Y016064D01*
X015915Y016064D02*
X015915Y016064D01*
X015915Y016053D02*
X016158Y016053D01*
X016180Y016059D01*
X016215Y016024D01*
X016314Y015983D01*
X016840Y015983D01*
X017041Y015900D01*
X017259Y015900D01*
X017282Y015909D01*
X017205Y015722D01*
X017205Y015498D01*
X017291Y015290D01*
X017310Y015271D01*
X017310Y015102D01*
X017347Y015014D01*
X017414Y014947D01*
X017502Y014910D01*
X020448Y014910D01*
X020536Y014947D01*
X020603Y015014D01*
X020640Y015102D01*
X020640Y015364D01*
X020695Y015498D01*
X020695Y015722D01*
X020640Y015856D01*
X020640Y016550D01*
X020759Y016550D01*
X020962Y016634D01*
X021116Y016788D01*
X021200Y016991D01*
X021200Y017209D01*
X021116Y017412D01*
X020962Y017566D01*
X020759Y017650D01*
X020640Y017650D01*
X020640Y018683D01*
X020655Y018721D01*
X020655Y019379D01*
X020640Y019417D01*
X020640Y019548D01*
X020603Y019636D01*
X020536Y019703D01*
X020448Y019740D01*
X017502Y019740D01*
X017414Y019703D01*
X017347Y019636D01*
X017330Y019596D01*
X017261Y019596D01*
X017162Y019554D01*
X017086Y019479D01*
X017045Y019379D01*
X017045Y018721D01*
X017086Y018621D01*
X017162Y018546D01*
X017261Y018504D01*
X017310Y018504D01*
X017310Y017580D01*
X016895Y017580D01*
X016863Y017612D01*
X016764Y017653D01*
X016550Y017653D01*
X016550Y017743D01*
X016764Y017743D01*
X016863Y017784D01*
X016939Y017860D01*
X016980Y017959D01*
X016980Y018456D01*
X016939Y018556D01*
X016924Y018570D01*
X016924Y019269D01*
X017043Y019387D01*
X017140Y019623D01*
X017140Y019877D01*
X017043Y020113D01*
X016933Y020223D01*
X022667Y020223D01*
X022557Y020113D01*
X022460Y019877D01*
X022460Y019623D01*
X022557Y019387D01*
X022737Y019207D01*
X022908Y019137D01*
X022884Y019081D01*
X022884Y018619D01*
X022925Y018520D01*
X023001Y018444D01*
X023020Y018436D01*
X023020Y017959D01*
X023061Y017860D01*
X023137Y017784D01*
X023236Y017743D01*
X023450Y017743D01*
X023450Y017583D01*
X023426Y017583D01*
X023426Y017188D01*
X023090Y017188D01*
X023090Y016967D01*
X023104Y016916D01*
X023130Y016871D01*
X023167Y016833D01*
X023170Y016832D01*
X023126Y016807D01*
X023089Y016770D01*
X023062Y016724D01*
X023049Y016673D01*
X023049Y016450D01*
X023049Y016227D01*
X023062Y016176D01*
X023089Y016130D01*
X023126Y016093D01*
X023172Y016067D01*
X023222Y016053D01*
X023465Y016053D01*
X023465Y016450D01*
X023049Y016450D01*
X023465Y016450D01*
X023465Y016450D01*
X023465Y016450D01*
X023426Y016489D01*
X023426Y017188D01*
X023426Y017188D01*
X023090Y017188D01*
X023090Y017409D01*
X023104Y017460D01*
X023130Y017506D01*
X023167Y017543D01*
X023213Y017569D01*
X023264Y017583D01*
X023426Y017583D01*
X023426Y017188D01*
X023426Y017188D01*
X023426Y017257D02*
X023426Y017257D01*
X023426Y017495D02*
X023426Y017495D01*
X023450Y017734D02*
X020640Y017734D01*
X020640Y017972D02*
X023020Y017972D01*
X023020Y018211D02*
X020640Y018211D01*
X020640Y018449D02*
X022996Y018449D01*
X022884Y018688D02*
X020642Y018688D01*
X020655Y018926D02*
X022884Y018926D01*
X022841Y019165D02*
X020655Y019165D01*
X020646Y019403D02*
X022551Y019403D01*
X022460Y019642D02*
X020598Y019642D01*
X020100Y019050D02*
X020131Y019019D01*
X021033Y017495D02*
X023124Y017495D01*
X023090Y017257D02*
X021180Y017257D01*
X021200Y017018D02*
X023090Y017018D01*
X023099Y016780D02*
X021107Y016780D01*
X020640Y016541D02*
X023049Y016541D01*
X023049Y016303D02*
X020640Y016303D01*
X020640Y016064D02*
X023182Y016064D01*
X023465Y016064D02*
X023465Y016064D01*
X023465Y016053D02*
X023708Y016053D01*
X023730Y016059D01*
X023765Y016024D01*
X023864Y015983D01*
X024390Y015983D01*
X024591Y015900D01*
X024809Y015900D01*
X024832Y015909D01*
X024755Y015722D01*
X024755Y015498D01*
X024841Y015290D01*
X024872Y015259D01*
X024872Y015164D01*
X024910Y015072D01*
X024910Y015052D01*
X024947Y014964D01*
X025014Y014897D01*
X025102Y014860D01*
X028048Y014860D01*
X028136Y014897D01*
X028203Y014964D01*
X028240Y015052D01*
X028240Y015485D01*
X028245Y015498D01*
X028245Y015722D01*
X028240Y015735D01*
X028240Y016550D01*
X028309Y016550D01*
X028512Y016634D01*
X028666Y016788D01*
X028750Y016991D01*
X028750Y017209D01*
X028666Y017412D01*
X028512Y017566D01*
X028309Y017650D01*
X028240Y017650D01*
X028240Y018683D01*
X028255Y018721D01*
X028255Y019379D01*
X028240Y019417D01*
X028240Y019498D01*
X028203Y019586D01*
X028136Y019653D01*
X028048Y019690D01*
X025102Y019690D01*
X025014Y019653D01*
X024956Y019596D01*
X024861Y019596D01*
X024762Y019554D01*
X024686Y019479D01*
X024645Y019379D01*
X024645Y018721D01*
X024686Y018621D01*
X024762Y018546D01*
X024861Y018504D01*
X024889Y018504D01*
X024889Y017580D01*
X024495Y017580D01*
X024463Y017612D01*
X024364Y017653D01*
X024150Y017653D01*
X024150Y017743D01*
X024364Y017743D01*
X024463Y017784D01*
X024539Y017860D01*
X024580Y017959D01*
X024580Y018456D01*
X024539Y018556D01*
X024524Y018570D01*
X024524Y019269D01*
X024643Y019387D01*
X024740Y019623D01*
X024740Y019877D01*
X024643Y020113D01*
X024533Y020223D01*
X030267Y020223D01*
X030157Y020113D01*
X030060Y019877D01*
X030060Y019623D01*
X030157Y019387D01*
X030337Y019207D01*
X030508Y019137D01*
X030484Y019081D01*
X030484Y018619D01*
X030525Y018520D01*
X030601Y018444D01*
X030620Y018436D01*
X030620Y017959D01*
X030661Y017860D01*
X030737Y017784D01*
X030836Y017743D01*
X031050Y017743D01*
X031050Y017583D01*
X031026Y017583D01*
X031026Y017188D01*
X030690Y017188D01*
X030690Y016967D01*
X030704Y016916D01*
X030730Y016871D01*
X030767Y016833D01*
X030770Y016832D01*
X030726Y016807D01*
X030689Y016770D01*
X030662Y016724D01*
X030649Y016673D01*
X030649Y016450D01*
X030649Y016227D01*
X030662Y016176D01*
X030689Y016130D01*
X030726Y016093D01*
X030772Y016067D01*
X030822Y016053D01*
X031065Y016053D01*
X031065Y016450D01*
X030649Y016450D01*
X031065Y016450D01*
X031065Y016450D01*
X031065Y016450D01*
X031026Y016489D01*
X031026Y017188D01*
X031026Y017188D01*
X030690Y017188D01*
X030690Y017409D01*
X030704Y017460D01*
X030730Y017506D01*
X030767Y017543D01*
X030813Y017569D01*
X030864Y017583D01*
X031026Y017583D01*
X031026Y017188D01*
X031026Y017188D01*
X031026Y017257D02*
X031026Y017257D01*
X031026Y017495D02*
X031026Y017495D01*
X031050Y017734D02*
X028240Y017734D01*
X028240Y017972D02*
X030620Y017972D01*
X030620Y018211D02*
X028240Y018211D01*
X028240Y018449D02*
X030596Y018449D01*
X030484Y018688D02*
X028242Y018688D01*
X028255Y018926D02*
X030484Y018926D01*
X030441Y019165D02*
X028255Y019165D01*
X028246Y019403D02*
X030151Y019403D01*
X030060Y019642D02*
X028148Y019642D01*
X027600Y019050D02*
X027681Y018969D01*
X028583Y017495D02*
X030724Y017495D01*
X030690Y017257D02*
X028730Y017257D01*
X028750Y017018D02*
X030690Y017018D01*
X030699Y016780D02*
X028657Y016780D01*
X028240Y016541D02*
X030649Y016541D01*
X030649Y016303D02*
X028240Y016303D01*
X028240Y016064D02*
X030782Y016064D01*
X031065Y016064D02*
X031065Y016064D01*
X031065Y016053D02*
X031308Y016053D01*
X031330Y016059D01*
X031365Y016024D01*
X031464Y015983D01*
X031990Y015983D01*
X032191Y015900D01*
X032409Y015900D01*
X032497Y015936D01*
X032491Y015930D01*
X032405Y015722D01*
X032405Y015498D01*
X032491Y015290D01*
X032510Y015271D01*
X032510Y015052D01*
X032547Y014964D01*
X032614Y014897D01*
X032702Y014860D01*
X035648Y014860D01*
X035736Y014897D01*
X035803Y014964D01*
X035840Y015052D01*
X035840Y015364D01*
X035895Y015498D01*
X035895Y015722D01*
X035840Y015856D01*
X035840Y016600D01*
X035959Y016600D01*
X036162Y016684D01*
X036316Y016838D01*
X036400Y017041D01*
X036400Y017259D01*
X036316Y017462D01*
X036162Y017616D01*
X035959Y017700D01*
X035840Y017700D01*
X035840Y018683D01*
X035855Y018721D01*
X035855Y019379D01*
X035840Y019417D01*
X035840Y019498D01*
X035803Y019586D01*
X035736Y019653D01*
X035648Y019690D01*
X032702Y019690D01*
X032614Y019653D01*
X032556Y019596D01*
X032461Y019596D01*
X032362Y019554D01*
X032286Y019479D01*
X032245Y019379D01*
X032245Y018721D01*
X032286Y018621D01*
X032362Y018546D01*
X032461Y018504D01*
X032510Y018504D01*
X032510Y017630D01*
X032019Y017630D01*
X031964Y017653D01*
X031750Y017653D01*
X031750Y017743D01*
X031964Y017743D01*
X032063Y017784D01*
X032139Y017860D01*
X032180Y017959D01*
X032180Y018456D01*
X032139Y018556D01*
X032124Y018570D01*
X032124Y019269D01*
X032243Y019387D01*
X032340Y019623D01*
X032340Y019877D01*
X032243Y020113D01*
X032133Y020223D01*
X037932Y020223D01*
X037932Y010920D01*
X007800Y010920D01*
X007800Y011056D02*
X037932Y011056D01*
X037932Y011294D02*
X007800Y011294D01*
X007800Y011533D02*
X037932Y011533D01*
X037932Y011771D02*
X007800Y011771D01*
X007800Y012010D02*
X037932Y012010D01*
X037932Y012248D02*
X007800Y012248D01*
X007800Y012487D02*
X037932Y012487D01*
X037932Y012725D02*
X007800Y012725D01*
X007800Y012964D02*
X037932Y012964D01*
X037932Y013202D02*
X007800Y013202D01*
X007800Y013441D02*
X037932Y013441D01*
X037932Y013679D02*
X037272Y013679D01*
X037259Y013666D02*
X037519Y013926D01*
X037660Y014266D01*
X037660Y014634D01*
X037519Y014974D01*
X037259Y015234D01*
X036919Y015375D01*
X036551Y015375D01*
X036211Y015234D01*
X035951Y014974D01*
X035810Y014634D01*
X035810Y014266D01*
X035951Y013926D01*
X036211Y013666D01*
X036551Y013525D01*
X036919Y013525D01*
X037259Y013666D01*
X037511Y013918D02*
X037932Y013918D01*
X037932Y014156D02*
X037614Y014156D01*
X037660Y014395D02*
X037932Y014395D01*
X037932Y014633D02*
X037660Y014633D01*
X037562Y014872D02*
X037932Y014872D01*
X037932Y015110D02*
X037383Y015110D01*
X036983Y015349D02*
X037932Y015349D01*
X037932Y015587D02*
X035895Y015587D01*
X035853Y015826D02*
X037932Y015826D01*
X037932Y016064D02*
X035840Y016064D01*
X035840Y016303D02*
X037932Y016303D01*
X037932Y016541D02*
X035840Y016541D01*
X036257Y016780D02*
X037932Y016780D01*
X037932Y017018D02*
X036391Y017018D01*
X036400Y017257D02*
X037932Y017257D01*
X037932Y017495D02*
X036283Y017495D01*
X035840Y017734D02*
X037932Y017734D01*
X037932Y017972D02*
X035840Y017972D01*
X035840Y018211D02*
X037932Y018211D01*
X037932Y018449D02*
X035840Y018449D01*
X035842Y018688D02*
X037932Y018688D01*
X037932Y018926D02*
X035855Y018926D01*
X035855Y019165D02*
X037932Y019165D01*
X037932Y019403D02*
X035846Y019403D01*
X035748Y019642D02*
X037932Y019642D01*
X037932Y019880D02*
X032339Y019880D01*
X032340Y019642D02*
X032602Y019642D01*
X032254Y019403D02*
X032249Y019403D01*
X032245Y019165D02*
X032124Y019165D01*
X032124Y018926D02*
X032245Y018926D01*
X032258Y018688D02*
X032124Y018688D01*
X032180Y018449D02*
X032510Y018449D01*
X032510Y018211D02*
X032180Y018211D01*
X032180Y017972D02*
X032510Y017972D01*
X032510Y017734D02*
X031750Y017734D01*
X031735Y016565D02*
X031850Y016450D01*
X032300Y016450D01*
X032447Y015826D02*
X028240Y015826D01*
X028245Y015587D02*
X032405Y015587D01*
X032466Y015349D02*
X031813Y015349D01*
X031749Y015375D02*
X031381Y015375D01*
X031041Y015234D01*
X030781Y014974D01*
X030640Y014634D01*
X030640Y014266D01*
X030781Y013926D01*
X031041Y013666D01*
X031381Y013525D01*
X031749Y013525D01*
X032089Y013666D01*
X032349Y013926D01*
X032490Y014266D01*
X032490Y014634D01*
X032349Y014974D01*
X032089Y015234D01*
X031749Y015375D01*
X031317Y015349D02*
X029333Y015349D01*
X029269Y015375D02*
X028901Y015375D01*
X028561Y015234D01*
X028301Y014974D01*
X028160Y014634D01*
X028160Y014266D01*
X028301Y013926D01*
X028561Y013666D01*
X028901Y013525D01*
X029269Y013525D01*
X029609Y013666D01*
X029869Y013926D01*
X030010Y014266D01*
X030010Y014634D01*
X029869Y014974D01*
X029609Y015234D01*
X029269Y015375D01*
X028837Y015349D02*
X028240Y015349D01*
X028240Y015110D02*
X028437Y015110D01*
X028258Y014872D02*
X028076Y014872D01*
X028160Y014633D02*
X024840Y014633D01*
X024840Y014634D02*
X024699Y014974D01*
X024439Y015234D01*
X024099Y015375D01*
X023731Y015375D01*
X023391Y015234D01*
X023131Y014974D01*
X022990Y014634D01*
X022990Y014266D01*
X023131Y013926D01*
X023391Y013666D01*
X023731Y013525D01*
X024099Y013525D01*
X024439Y013666D01*
X024699Y013926D01*
X024840Y014266D01*
X024840Y014634D01*
X024840Y014395D02*
X028160Y014395D01*
X028206Y014156D02*
X024794Y014156D01*
X024691Y013918D02*
X028309Y013918D01*
X028548Y013679D02*
X024452Y013679D01*
X023378Y013679D02*
X022072Y013679D01*
X022059Y013666D02*
X022319Y013926D01*
X022460Y014266D01*
X022460Y014634D01*
X022319Y014974D01*
X022059Y015234D01*
X021719Y015375D01*
X021351Y015375D01*
X021011Y015234D01*
X020751Y014974D01*
X020610Y014634D01*
X020610Y014266D01*
X020751Y013926D01*
X021011Y013666D01*
X021351Y013525D01*
X021719Y013525D01*
X022059Y013666D01*
X022311Y013918D02*
X023139Y013918D01*
X023036Y014156D02*
X022414Y014156D01*
X022460Y014395D02*
X022990Y014395D01*
X022990Y014633D02*
X022460Y014633D01*
X022362Y014872D02*
X023088Y014872D01*
X023267Y015110D02*
X022183Y015110D01*
X021783Y015349D02*
X023667Y015349D01*
X023465Y016053D02*
X023465Y016450D01*
X023465Y016303D02*
X023465Y016303D01*
X024135Y016450D02*
X024135Y016565D01*
X024200Y016450D01*
X024700Y016450D01*
X024797Y015826D02*
X020653Y015826D01*
X020695Y015587D02*
X024755Y015587D01*
X024816Y015349D02*
X024163Y015349D01*
X024563Y015110D02*
X024894Y015110D01*
X024742Y014872D02*
X025074Y014872D01*
X025319Y015808D02*
X025300Y015877D01*
X025300Y017150D01*
X025949Y017100D01*
X024889Y017734D02*
X024150Y017734D01*
X024174Y017188D02*
X024262Y017150D01*
X024580Y017972D02*
X024889Y017972D01*
X024889Y018211D02*
X024580Y018211D01*
X024580Y018449D02*
X024889Y018449D01*
X024658Y018688D02*
X024524Y018688D01*
X024524Y018926D02*
X024645Y018926D01*
X024645Y019165D02*
X024524Y019165D01*
X024649Y019403D02*
X024654Y019403D01*
X024740Y019642D02*
X025002Y019642D01*
X024739Y019880D02*
X030061Y019880D01*
X030163Y020119D02*
X024637Y020119D01*
X025505Y019050D02*
X025319Y018864D01*
X027700Y015877D02*
X027681Y015808D01*
X029733Y015110D02*
X030917Y015110D01*
X030738Y014872D02*
X029912Y014872D01*
X030010Y014633D02*
X030640Y014633D01*
X030640Y014395D02*
X030010Y014395D01*
X029964Y014156D02*
X030686Y014156D01*
X030789Y013918D02*
X029861Y013918D01*
X029622Y013679D02*
X031028Y013679D01*
X032102Y013679D02*
X036198Y013679D01*
X035959Y013918D02*
X032341Y013918D01*
X032444Y014156D02*
X035856Y014156D01*
X035810Y014395D02*
X032490Y014395D01*
X032490Y014633D02*
X035810Y014633D01*
X035908Y014872D02*
X035676Y014872D01*
X035840Y015110D02*
X036087Y015110D01*
X035840Y015349D02*
X036487Y015349D01*
X035331Y015808D02*
X035350Y015877D01*
X035330Y016210D01*
X035150Y017100D02*
X035200Y017150D01*
X035331Y019019D02*
X035330Y019019D01*
X035331Y019019D02*
X035300Y019050D01*
X033105Y019050D02*
X032969Y018914D01*
X032237Y020119D02*
X037932Y020119D01*
X037932Y020770D02*
X007800Y020770D01*
X007800Y024092D01*
X007931Y023776D01*
X008191Y023516D01*
X008531Y023375D01*
X008899Y023375D01*
X009239Y023516D01*
X009499Y023776D01*
X009640Y024116D01*
X009640Y024484D01*
X009499Y024824D01*
X009239Y025084D01*
X009090Y025146D01*
X009090Y025441D01*
X009031Y025584D01*
X008921Y025694D01*
X008778Y025753D01*
X008622Y025753D01*
X008479Y025694D01*
X008369Y025584D01*
X008310Y025441D01*
X008310Y025133D01*
X008191Y025084D01*
X007931Y024824D01*
X007800Y024508D01*
X007800Y025500D01*
X006850Y026600D01*
X006850Y026650D01*
X004800Y026650D01*
X004798Y026853D01*
X004835Y026853D01*
X005078Y026853D01*
X005128Y026867D01*
X005174Y026893D01*
X005211Y026930D01*
X005238Y026976D01*
X005249Y027019D01*
X005261Y027002D01*
X005297Y026966D01*
X005339Y026937D01*
X005387Y026918D01*
X005437Y026908D01*
X005600Y026908D01*
X005763Y026908D01*
X005813Y026918D01*
X005861Y026937D01*
X005903Y026966D01*
X005939Y027002D01*
X005967Y027044D01*
X005987Y027091D01*
X005997Y027141D01*
X005997Y027305D01*
X005997Y027468D01*
X005987Y027518D01*
X005967Y027565D01*
X005945Y027599D01*
X006017Y027671D01*
X006067Y027792D01*
X006067Y028199D01*
X006019Y028314D01*
X006025Y028320D01*
X006066Y028419D01*
X006066Y028881D01*
X006025Y028980D01*
X005949Y029056D01*
X005849Y029097D01*
X005475Y029097D01*
X005541Y029145D01*
X005605Y029209D01*
X005658Y029281D01*
X005698Y029361D01*
X005726Y029447D01*
X005740Y029535D01*
X005740Y029580D01*
X005740Y029625D01*
X005726Y029713D01*
X005698Y029799D01*
X005658Y029879D01*
X005605Y029951D01*
X005541Y030015D01*
X005469Y030068D01*
X005459Y030073D01*
X007467Y030073D01*
X007357Y029963D01*
X007260Y029727D01*
X007260Y029473D01*
X007357Y029237D01*
X007537Y029057D01*
X007708Y028987D01*
X007684Y028931D01*
X007684Y028469D01*
X007725Y028370D01*
X007801Y028294D01*
X007820Y028286D01*
X007820Y027809D01*
X007861Y027710D01*
X007937Y027634D01*
X008036Y027593D01*
X008250Y027593D01*
X008250Y027433D01*
X008226Y027433D01*
X008226Y027038D01*
X007890Y027038D01*
X007890Y026817D01*
X007904Y026766D01*
X007930Y026721D01*
X007967Y026683D01*
X007970Y026682D01*
X007926Y026657D01*
X007889Y026620D01*
X007862Y026574D01*
X007849Y026523D01*
X007849Y026300D01*
X007849Y026077D01*
X007862Y026026D01*
X007889Y025980D01*
X007926Y025943D01*
X007972Y025917D01*
X008022Y025903D01*
X008265Y025903D01*
X008265Y026300D01*
X007849Y026300D01*
X008265Y026300D01*
X008265Y026300D01*
X008265Y026300D01*
X008226Y026400D01*
X008226Y027038D01*
X008226Y027038D01*
X007890Y027038D01*
X007890Y027259D01*
X007904Y027310D01*
X007930Y027356D01*
X007967Y027393D01*
X008013Y027419D01*
X008064Y027433D01*
X008226Y027433D01*
X008226Y027038D01*
X008226Y027038D01*
X008226Y027274D02*
X008226Y027274D01*
X008250Y027512D02*
X005988Y027512D01*
X005997Y027305D02*
X005600Y027305D01*
X005600Y027305D01*
X005997Y027305D01*
X005997Y027274D02*
X007894Y027274D01*
X007890Y027035D02*
X005961Y027035D01*
X005600Y027035D02*
X005600Y027035D01*
X005600Y026908D02*
X005600Y027305D01*
X005600Y027305D01*
X005600Y026908D01*
X005600Y027274D02*
X005600Y027274D01*
X005225Y027546D02*
X005211Y027570D01*
X005174Y027607D01*
X005128Y027633D01*
X005078Y027647D01*
X004835Y027647D01*
X004835Y027250D01*
X004835Y026853D01*
X004835Y027250D01*
X004835Y027250D01*
X004835Y027250D01*
X004835Y027647D01*
X004792Y027647D01*
X004786Y028299D01*
X004796Y028299D01*
X004851Y028244D01*
X004951Y028203D01*
X005135Y028203D01*
X005133Y028199D01*
X005133Y027792D01*
X005183Y027671D01*
X005255Y027599D01*
X005233Y027565D01*
X005225Y027546D01*
X005150Y027751D02*
X004791Y027751D01*
X004789Y027989D02*
X005133Y027989D01*
X004891Y028228D02*
X004787Y028228D01*
X004835Y027512D02*
X004835Y027512D01*
X004835Y027274D02*
X004835Y027274D01*
X004835Y027035D02*
X004835Y027035D01*
X004799Y026797D02*
X007896Y026797D01*
X007858Y026558D02*
X006886Y026558D01*
X007092Y026320D02*
X007849Y026320D01*
X007849Y026081D02*
X007298Y026081D01*
X007504Y025843D02*
X008642Y025843D01*
X008664Y025833D02*
X009190Y025833D01*
X009391Y025750D01*
X009609Y025750D01*
X009632Y025759D01*
X009555Y025572D01*
X009555Y025348D01*
X009641Y025140D01*
X009660Y025121D01*
X009660Y024902D01*
X009697Y024814D01*
X009764Y024747D01*
X009852Y024710D01*
X012798Y024710D01*
X012886Y024747D01*
X012953Y024814D01*
X012990Y024902D01*
X012990Y025214D01*
X013045Y025348D01*
X013045Y025572D01*
X012990Y025706D01*
X012990Y026400D01*
X013109Y026400D01*
X013312Y026484D01*
X013466Y026638D01*
X013550Y026841D01*
X013550Y027059D01*
X013466Y027262D01*
X013312Y027416D01*
X013109Y027500D01*
X012990Y027500D01*
X012990Y028447D01*
X013014Y028471D01*
X013055Y028571D01*
X013055Y029229D01*
X013014Y029329D01*
X012986Y029356D01*
X012953Y029436D01*
X012886Y029503D01*
X012798Y029540D01*
X009852Y029540D01*
X009764Y029503D01*
X009706Y029446D01*
X009661Y029446D01*
X009562Y029404D01*
X009486Y029329D01*
X009445Y029229D01*
X009445Y028571D01*
X009486Y028471D01*
X009562Y028396D01*
X009660Y028355D01*
X009660Y027468D01*
X009248Y027468D01*
X009164Y027503D01*
X008950Y027503D01*
X008950Y027593D01*
X009164Y027593D01*
X009263Y027634D01*
X009339Y027710D01*
X009380Y027809D01*
X009380Y028306D01*
X009339Y028406D01*
X009324Y028420D01*
X009324Y029119D01*
X009443Y029237D01*
X009540Y029473D01*
X009540Y029727D01*
X009443Y029963D01*
X009333Y030073D01*
X015067Y030073D01*
X014957Y029963D01*
X014860Y029727D01*
X014860Y029473D01*
X014957Y029237D01*
X015137Y029057D01*
X015308Y028987D01*
X015284Y028931D01*
X015284Y028469D01*
X015325Y028370D01*
X015401Y028294D01*
X015420Y028286D01*
X015420Y027809D01*
X015461Y027710D01*
X015537Y027634D01*
X015636Y027593D01*
X015850Y027593D01*
X015850Y027433D01*
X015826Y027433D01*
X015826Y027038D01*
X015490Y027038D01*
X015490Y026817D01*
X015504Y026766D01*
X015530Y026721D01*
X015567Y026683D01*
X015595Y026668D01*
X015576Y026657D01*
X015539Y026620D01*
X015512Y026574D01*
X015499Y026523D01*
X015499Y026300D01*
X015499Y026077D01*
X015512Y026026D01*
X015539Y025980D01*
X015576Y025943D01*
X015622Y025917D01*
X015672Y025903D01*
X015915Y025903D01*
X015915Y026300D01*
X015499Y026300D01*
X015915Y026300D01*
X015915Y026300D01*
X015915Y026300D01*
X015826Y026389D01*
X015826Y027038D01*
X015826Y027038D01*
X015490Y027038D01*
X015490Y027259D01*
X015504Y027310D01*
X015530Y027356D01*
X015567Y027393D01*
X015613Y027419D01*
X015664Y027433D01*
X015826Y027433D01*
X015826Y027038D01*
X015826Y027038D01*
X015826Y027274D02*
X015826Y027274D01*
X015850Y027512D02*
X012990Y027512D01*
X012990Y027751D02*
X015444Y027751D01*
X015420Y027989D02*
X012990Y027989D01*
X012990Y028228D02*
X015420Y028228D01*
X015286Y028466D02*
X013009Y028466D01*
X013055Y028705D02*
X015284Y028705D01*
X015289Y028943D02*
X013055Y028943D01*
X013055Y029182D02*
X015013Y029182D01*
X014882Y029420D02*
X012960Y029420D01*
X012481Y028900D02*
X012195Y028900D01*
X013454Y027274D02*
X015494Y027274D01*
X015490Y027035D02*
X013550Y027035D01*
X013532Y026797D02*
X015496Y026797D01*
X015508Y026558D02*
X013386Y026558D01*
X012990Y026320D02*
X015499Y026320D01*
X015499Y026081D02*
X012990Y026081D01*
X012990Y025843D02*
X016292Y025843D01*
X016314Y025833D02*
X016840Y025833D01*
X017041Y025750D01*
X017259Y025750D01*
X017282Y025759D01*
X017205Y025572D01*
X017205Y025348D01*
X017291Y025140D01*
X017310Y025121D01*
X017310Y024952D01*
X017347Y024864D01*
X017414Y024797D01*
X017502Y024760D01*
X020448Y024760D01*
X020536Y024797D01*
X020603Y024864D01*
X020640Y024952D01*
X020640Y025214D01*
X020695Y025348D01*
X020695Y025572D01*
X020640Y025706D01*
X020640Y026400D01*
X020759Y026400D01*
X020962Y026484D01*
X021116Y026638D01*
X021200Y026841D01*
X021200Y027059D01*
X021116Y027262D01*
X020962Y027416D01*
X020759Y027500D01*
X020640Y027500D01*
X020640Y028533D01*
X020655Y028571D01*
X020655Y029229D01*
X020640Y029267D01*
X020640Y029398D01*
X020603Y029486D01*
X020536Y029553D01*
X020448Y029590D01*
X017502Y029590D01*
X017414Y029553D01*
X017347Y029486D01*
X017330Y029446D01*
X017261Y029446D01*
X017162Y029404D01*
X017086Y029329D01*
X017045Y029229D01*
X017045Y028571D01*
X017086Y028471D01*
X017162Y028396D01*
X017261Y028354D01*
X017310Y028354D01*
X017310Y027430D01*
X016895Y027430D01*
X016863Y027462D01*
X016764Y027503D01*
X016550Y027503D01*
X016550Y027593D01*
X016764Y027593D01*
X016863Y027634D01*
X016939Y027710D01*
X016980Y027809D01*
X016980Y028306D01*
X016939Y028406D01*
X016924Y028420D01*
X016924Y029119D01*
X017043Y029237D01*
X017140Y029473D01*
X017140Y029727D01*
X017043Y029963D01*
X016933Y030073D01*
X022667Y030073D01*
X022557Y029963D01*
X022460Y029727D01*
X022460Y029473D01*
X022557Y029237D01*
X022737Y029057D01*
X022908Y028987D01*
X022884Y028931D01*
X022884Y028469D01*
X022925Y028370D01*
X023001Y028294D01*
X023020Y028286D01*
X023020Y027809D01*
X023061Y027710D01*
X023137Y027634D01*
X023236Y027593D01*
X023450Y027593D01*
X023450Y027433D01*
X023426Y027433D01*
X023426Y027038D01*
X023090Y027038D01*
X023090Y026817D01*
X023104Y026766D01*
X023130Y026721D01*
X023167Y026683D01*
X023170Y026682D01*
X023126Y026657D01*
X023089Y026620D01*
X023062Y026574D01*
X023049Y026523D01*
X023049Y026300D01*
X023049Y026077D01*
X023062Y026026D01*
X023089Y025980D01*
X023126Y025943D01*
X023172Y025917D01*
X023222Y025903D01*
X023465Y025903D01*
X023465Y026300D01*
X023049Y026300D01*
X023465Y026300D01*
X023465Y026300D01*
X023465Y026300D01*
X023426Y026339D01*
X023426Y027038D01*
X023426Y027038D01*
X023090Y027038D01*
X023090Y027259D01*
X023104Y027310D01*
X023130Y027356D01*
X023167Y027393D01*
X023213Y027419D01*
X023264Y027433D01*
X023426Y027433D01*
X023426Y027038D01*
X023426Y027038D01*
X023426Y027274D02*
X023426Y027274D01*
X023450Y027512D02*
X020640Y027512D01*
X020640Y027751D02*
X023044Y027751D01*
X023020Y027989D02*
X020640Y027989D01*
X020640Y028228D02*
X023020Y028228D01*
X022886Y028466D02*
X020640Y028466D01*
X020655Y028705D02*
X022884Y028705D01*
X022889Y028943D02*
X020655Y028943D01*
X020655Y029182D02*
X022613Y029182D01*
X022482Y029420D02*
X020631Y029420D01*
X020100Y028900D02*
X020131Y028869D01*
X021104Y027274D02*
X023094Y027274D01*
X023090Y027035D02*
X021200Y027035D01*
X021182Y026797D02*
X023096Y026797D01*
X023058Y026558D02*
X021036Y026558D01*
X020640Y026320D02*
X023049Y026320D01*
X023049Y026081D02*
X020640Y026081D01*
X020640Y025843D02*
X023842Y025843D01*
X023864Y025833D02*
X024390Y025833D01*
X024591Y025750D01*
X024809Y025750D01*
X024832Y025759D01*
X024755Y025572D01*
X024755Y025348D01*
X024841Y025140D01*
X024872Y025109D01*
X024872Y025014D01*
X024910Y024922D01*
X024910Y024902D01*
X024947Y024814D01*
X025014Y024747D01*
X025102Y024710D01*
X028048Y024710D01*
X028136Y024747D01*
X028203Y024814D01*
X028240Y024902D01*
X028240Y025335D01*
X028245Y025348D01*
X028245Y025572D01*
X028240Y025585D01*
X028240Y026400D01*
X028309Y026400D01*
X028512Y026484D01*
X028666Y026638D01*
X028750Y026841D01*
X028750Y027059D01*
X028666Y027262D01*
X028512Y027416D01*
X028309Y027500D01*
X028240Y027500D01*
X028240Y028533D01*
X028255Y028571D01*
X028255Y029229D01*
X028240Y029267D01*
X028240Y029348D01*
X028203Y029436D01*
X028136Y029503D01*
X028048Y029540D01*
X025102Y029540D01*
X025014Y029503D01*
X024956Y029446D01*
X024861Y029446D01*
X024762Y029404D01*
X024686Y029329D01*
X024645Y029229D01*
X024645Y028571D01*
X024686Y028471D01*
X024762Y028396D01*
X024861Y028354D01*
X024889Y028354D01*
X024889Y027430D01*
X024495Y027430D01*
X024463Y027462D01*
X024364Y027503D01*
X024150Y027503D01*
X024150Y027593D01*
X024364Y027593D01*
X024463Y027634D01*
X024539Y027710D01*
X024580Y027809D01*
X024580Y028306D01*
X024539Y028406D01*
X024524Y028420D01*
X024524Y029119D01*
X024643Y029237D01*
X024740Y029473D01*
X024740Y029727D01*
X024643Y029963D01*
X024533Y030073D01*
X030267Y030073D01*
X030157Y029963D01*
X030060Y029727D01*
X030060Y029473D01*
X030157Y029237D01*
X030337Y029057D01*
X030508Y028987D01*
X030484Y028931D01*
X030484Y028469D01*
X030525Y028370D01*
X030601Y028294D01*
X030620Y028286D01*
X030620Y027809D01*
X030661Y027710D01*
X030737Y027634D01*
X030836Y027593D01*
X031050Y027593D01*
X031050Y027433D01*
X031026Y027433D01*
X031026Y027038D01*
X030690Y027038D01*
X030690Y026817D01*
X030704Y026766D01*
X030730Y026721D01*
X030767Y026683D01*
X030770Y026682D01*
X030726Y026657D01*
X030689Y026620D01*
X030662Y026574D01*
X030649Y026523D01*
X030649Y026300D01*
X030649Y026077D01*
X030662Y026026D01*
X030689Y025980D01*
X030726Y025943D01*
X030772Y025917D01*
X030822Y025903D01*
X031065Y025903D01*
X031065Y026300D01*
X030649Y026300D01*
X031065Y026300D01*
X031065Y026300D01*
X031065Y026300D01*
X031026Y026339D01*
X031026Y027038D01*
X031026Y027038D01*
X030690Y027038D01*
X030690Y027259D01*
X030704Y027310D01*
X030730Y027356D01*
X030767Y027393D01*
X030813Y027419D01*
X030864Y027433D01*
X031026Y027433D01*
X031026Y027038D01*
X031026Y027038D01*
X031026Y027274D02*
X031026Y027274D01*
X031050Y027512D02*
X028240Y027512D01*
X028240Y027751D02*
X030644Y027751D01*
X030620Y027989D02*
X028240Y027989D01*
X028240Y028228D02*
X030620Y028228D01*
X030486Y028466D02*
X028240Y028466D01*
X028255Y028705D02*
X030484Y028705D01*
X030489Y028943D02*
X028255Y028943D01*
X028255Y029182D02*
X030213Y029182D01*
X030082Y029420D02*
X028210Y029420D01*
X027681Y028819D02*
X027600Y028900D01*
X028654Y027274D02*
X030694Y027274D01*
X030690Y027035D02*
X028750Y027035D01*
X028732Y026797D02*
X030696Y026797D01*
X030658Y026558D02*
X028586Y026558D01*
X028240Y026320D02*
X030649Y026320D01*
X030649Y026081D02*
X028240Y026081D01*
X028240Y025843D02*
X031442Y025843D01*
X031464Y025833D02*
X031990Y025833D01*
X032191Y025750D01*
X032409Y025750D01*
X032497Y025786D01*
X032491Y025780D01*
X032405Y025572D01*
X032405Y025348D01*
X032491Y025140D01*
X032510Y025121D01*
X032510Y024902D01*
X032547Y024814D01*
X032614Y024747D01*
X032702Y024710D01*
X035648Y024710D01*
X035736Y024747D01*
X035803Y024814D01*
X035840Y024902D01*
X035840Y025214D01*
X035895Y025348D01*
X035895Y025572D01*
X035840Y025706D01*
X035840Y026450D01*
X035959Y026450D01*
X036162Y026534D01*
X036316Y026688D01*
X036400Y026891D01*
X036400Y027109D01*
X036316Y027312D01*
X036162Y027466D01*
X035959Y027550D01*
X035840Y027550D01*
X035840Y028533D01*
X035855Y028571D01*
X035855Y029229D01*
X035840Y029267D01*
X035840Y029348D01*
X035803Y029436D01*
X035736Y029503D01*
X035648Y029540D01*
X032702Y029540D01*
X032614Y029503D01*
X032556Y029446D01*
X032461Y029446D01*
X032362Y029404D01*
X032286Y029329D01*
X032245Y029229D01*
X032245Y028571D01*
X032286Y028471D01*
X032362Y028396D01*
X032461Y028354D01*
X032510Y028354D01*
X032510Y027480D01*
X032019Y027480D01*
X031964Y027503D01*
X031750Y027503D01*
X031750Y027593D01*
X031964Y027593D01*
X032063Y027634D01*
X032139Y027710D01*
X032180Y027809D01*
X032180Y028306D01*
X032139Y028406D01*
X032124Y028420D01*
X032124Y029119D01*
X032243Y029237D01*
X032340Y029473D01*
X032340Y029727D01*
X032243Y029963D01*
X032133Y030073D01*
X037932Y030073D01*
X037932Y020770D01*
X037932Y020834D02*
X007800Y020834D01*
X007800Y021073D02*
X037932Y021073D01*
X037932Y021311D02*
X007800Y021311D01*
X007800Y021550D02*
X037932Y021550D01*
X037932Y021788D02*
X007800Y021788D01*
X007800Y022027D02*
X037932Y022027D01*
X037932Y022265D02*
X007800Y022265D01*
X007800Y022504D02*
X037932Y022504D01*
X037932Y022742D02*
X007800Y022742D01*
X007800Y022981D02*
X037932Y022981D01*
X037932Y023219D02*
X007800Y023219D01*
X007800Y023458D02*
X008332Y023458D01*
X008011Y023696D02*
X007800Y023696D01*
X007800Y023935D02*
X007865Y023935D01*
X007859Y024650D02*
X007800Y024650D01*
X007800Y024889D02*
X007995Y024889D01*
X007800Y025127D02*
X008294Y025127D01*
X008310Y025366D02*
X007800Y025366D01*
X007710Y025604D02*
X008389Y025604D01*
X008508Y025903D02*
X008265Y025903D01*
X008265Y026300D01*
X008265Y026081D02*
X008265Y026081D01*
X008508Y025903D02*
X008530Y025909D01*
X008565Y025874D01*
X008664Y025833D01*
X009011Y025604D02*
X009568Y025604D01*
X009555Y025366D02*
X009090Y025366D01*
X009136Y025127D02*
X009654Y025127D01*
X009666Y024889D02*
X009435Y024889D01*
X009571Y024650D02*
X013029Y024650D01*
X012960Y024484D02*
X012960Y024116D01*
X013101Y023776D01*
X013361Y023516D01*
X013701Y023375D01*
X014069Y023375D01*
X014409Y023516D01*
X014669Y023776D01*
X014810Y024116D01*
X014810Y024484D01*
X014669Y024824D01*
X014409Y025084D01*
X014069Y025225D01*
X013701Y025225D01*
X013361Y025084D01*
X013101Y024824D01*
X012960Y024484D01*
X012960Y024412D02*
X009640Y024412D01*
X009640Y024173D02*
X012960Y024173D01*
X013035Y023935D02*
X009565Y023935D01*
X009419Y023696D02*
X013181Y023696D01*
X013502Y023458D02*
X009098Y023458D01*
X008700Y024300D02*
X008700Y025363D01*
X008935Y026300D02*
X009500Y026300D01*
X008935Y026300D02*
X008935Y026415D01*
X008950Y027512D02*
X009660Y027512D01*
X009660Y027751D02*
X009356Y027751D01*
X009380Y027989D02*
X009660Y027989D01*
X009660Y028228D02*
X009380Y028228D01*
X009324Y028466D02*
X009491Y028466D01*
X009445Y028705D02*
X009324Y028705D01*
X009324Y028943D02*
X009445Y028943D01*
X009445Y029182D02*
X009387Y029182D01*
X009518Y029420D02*
X009599Y029420D01*
X009540Y029659D02*
X014860Y029659D01*
X014930Y029897D02*
X009470Y029897D01*
X010150Y028900D02*
X010305Y028900D01*
X010150Y027038D02*
X010238Y026950D01*
X010350Y026950D01*
X010150Y025858D02*
X010119Y025658D01*
X012481Y025658D02*
X012500Y025677D01*
X012500Y026950D01*
X012300Y026950D01*
X013032Y025604D02*
X017218Y025604D01*
X017205Y025366D02*
X013045Y025366D01*
X012990Y025127D02*
X013464Y025127D01*
X013165Y024889D02*
X012984Y024889D01*
X014306Y025127D02*
X015944Y025127D01*
X015841Y025084D02*
X015581Y024824D01*
X015440Y024484D01*
X015440Y024116D01*
X015581Y023776D01*
X015841Y023516D01*
X016181Y023375D01*
X016549Y023375D01*
X016889Y023516D01*
X017149Y023776D01*
X017290Y024116D01*
X017290Y024484D01*
X017149Y024824D01*
X016889Y025084D01*
X016549Y025225D01*
X016181Y025225D01*
X015841Y025084D01*
X015645Y024889D02*
X014605Y024889D01*
X014741Y024650D02*
X015509Y024650D01*
X015440Y024412D02*
X014810Y024412D01*
X014810Y024173D02*
X015440Y024173D01*
X015515Y023935D02*
X014735Y023935D01*
X014589Y023696D02*
X015661Y023696D01*
X015982Y023458D02*
X014268Y023458D01*
X016748Y023458D02*
X021152Y023458D01*
X021011Y023516D02*
X021351Y023375D01*
X021719Y023375D01*
X022059Y023516D01*
X022319Y023776D01*
X022460Y024116D01*
X022460Y024484D01*
X022319Y024824D01*
X022059Y025084D01*
X021719Y025225D01*
X021351Y025225D01*
X021011Y025084D01*
X020751Y024824D01*
X020610Y024484D01*
X020610Y024116D01*
X020751Y023776D01*
X021011Y023516D01*
X020831Y023696D02*
X017069Y023696D01*
X017215Y023935D02*
X020685Y023935D01*
X020610Y024173D02*
X017290Y024173D01*
X017290Y024412D02*
X020610Y024412D01*
X020679Y024650D02*
X017221Y024650D01*
X017336Y024889D02*
X017085Y024889D01*
X017304Y025127D02*
X016786Y025127D01*
X016314Y025833D02*
X016215Y025874D01*
X016180Y025909D01*
X016158Y025903D01*
X015915Y025903D01*
X015915Y026300D01*
X015915Y026081D02*
X015915Y026081D01*
X016585Y026300D02*
X016585Y026365D01*
X016650Y026300D01*
X017150Y026300D01*
X016612Y027000D02*
X016574Y027038D01*
X016550Y027512D02*
X017310Y027512D01*
X017310Y027751D02*
X016956Y027751D01*
X016980Y027989D02*
X017310Y027989D01*
X017310Y028228D02*
X016980Y028228D01*
X016924Y028466D02*
X017091Y028466D01*
X017045Y028705D02*
X016924Y028705D01*
X016924Y028943D02*
X017045Y028943D01*
X017045Y029182D02*
X016987Y029182D01*
X017118Y029420D02*
X017199Y029420D01*
X017140Y029659D02*
X022460Y029659D01*
X022530Y029897D02*
X017070Y029897D01*
X017905Y028900D02*
X017769Y028764D01*
X017769Y027000D02*
X017819Y026950D01*
X017950Y026950D01*
X019950Y026950D02*
X020100Y026950D01*
X020100Y025739D01*
X020131Y025658D01*
X020682Y025604D02*
X024768Y025604D01*
X024755Y025366D02*
X020695Y025366D01*
X020640Y025127D02*
X021114Y025127D01*
X020815Y024889D02*
X020614Y024889D01*
X021956Y025127D02*
X023494Y025127D01*
X023391Y025084D02*
X023131Y024824D01*
X022990Y024484D01*
X022990Y024116D01*
X023131Y023776D01*
X023391Y023516D01*
X023731Y023375D01*
X024099Y023375D01*
X024439Y023516D01*
X024699Y023776D01*
X024840Y024116D01*
X024840Y024484D01*
X024699Y024824D01*
X024439Y025084D01*
X024099Y025225D01*
X023731Y025225D01*
X023391Y025084D01*
X023195Y024889D02*
X022255Y024889D01*
X022391Y024650D02*
X023059Y024650D01*
X022990Y024412D02*
X022460Y024412D01*
X022460Y024173D02*
X022990Y024173D01*
X023065Y023935D02*
X022385Y023935D01*
X022239Y023696D02*
X023211Y023696D01*
X023532Y023458D02*
X021918Y023458D01*
X024298Y023458D02*
X028702Y023458D01*
X028561Y023516D02*
X028901Y023375D01*
X029269Y023375D01*
X029609Y023516D01*
X029869Y023776D01*
X030010Y024116D01*
X030010Y024484D01*
X029869Y024824D01*
X029609Y025084D01*
X029269Y025225D01*
X028901Y025225D01*
X028561Y025084D01*
X028301Y024824D01*
X028160Y024484D01*
X028160Y024116D01*
X028301Y023776D01*
X028561Y023516D01*
X028381Y023696D02*
X024619Y023696D01*
X024765Y023935D02*
X028235Y023935D01*
X028160Y024173D02*
X024840Y024173D01*
X024840Y024412D02*
X028160Y024412D01*
X028229Y024650D02*
X024771Y024650D01*
X024635Y024889D02*
X024916Y024889D01*
X024854Y025127D02*
X024336Y025127D01*
X023864Y025833D02*
X023765Y025874D01*
X023730Y025909D01*
X023708Y025903D01*
X023465Y025903D01*
X023465Y026300D01*
X023465Y026081D02*
X023465Y026081D01*
X024135Y026300D02*
X024135Y026415D01*
X024200Y026300D01*
X024700Y026300D01*
X024262Y027000D02*
X024174Y027038D01*
X024150Y027512D02*
X024889Y027512D01*
X024889Y027751D02*
X024556Y027751D01*
X024580Y027989D02*
X024889Y027989D01*
X024889Y028228D02*
X024580Y028228D01*
X024524Y028466D02*
X024691Y028466D01*
X024645Y028705D02*
X024524Y028705D01*
X024524Y028943D02*
X024645Y028943D01*
X024645Y029182D02*
X024587Y029182D01*
X024718Y029420D02*
X024799Y029420D01*
X024740Y029659D02*
X030060Y029659D01*
X030130Y029897D02*
X024670Y029897D01*
X025505Y028900D02*
X025319Y028714D01*
X025300Y027000D02*
X025300Y025727D01*
X025319Y025658D01*
X025300Y027000D02*
X025949Y026950D01*
X027700Y025727D02*
X027681Y025658D01*
X028240Y025604D02*
X032418Y025604D01*
X032405Y025366D02*
X028245Y025366D01*
X028240Y025127D02*
X028664Y025127D01*
X028365Y024889D02*
X028234Y024889D01*
X029506Y025127D02*
X031144Y025127D01*
X031041Y025084D02*
X031381Y025225D01*
X031749Y025225D01*
X032089Y025084D01*
X032349Y024824D01*
X032490Y024484D01*
X032490Y024116D01*
X032349Y023776D01*
X032089Y023516D01*
X031749Y023375D01*
X031381Y023375D01*
X031041Y023516D01*
X030781Y023776D01*
X030640Y024116D01*
X030640Y024484D01*
X030781Y024824D01*
X031041Y025084D01*
X030845Y024889D02*
X029805Y024889D01*
X029941Y024650D02*
X030709Y024650D01*
X030640Y024412D02*
X030010Y024412D01*
X030010Y024173D02*
X030640Y024173D01*
X030715Y023935D02*
X029935Y023935D01*
X029789Y023696D02*
X030861Y023696D01*
X031182Y023458D02*
X029468Y023458D01*
X031065Y025903D02*
X031308Y025903D01*
X031330Y025909D01*
X031365Y025874D01*
X031464Y025833D01*
X031065Y025903D02*
X031065Y026300D01*
X031065Y026081D02*
X031065Y026081D01*
X031735Y026300D02*
X031735Y026415D01*
X031850Y026300D01*
X032300Y026300D01*
X032969Y026719D02*
X033200Y026950D01*
X032510Y027512D02*
X031750Y027512D01*
X032156Y027751D02*
X032510Y027751D01*
X032510Y027989D02*
X032180Y027989D01*
X032180Y028228D02*
X032510Y028228D01*
X032291Y028466D02*
X032124Y028466D01*
X032124Y028705D02*
X032245Y028705D01*
X032245Y028943D02*
X032124Y028943D01*
X032187Y029182D02*
X032245Y029182D01*
X032318Y029420D02*
X032399Y029420D01*
X032340Y029659D02*
X037932Y029659D01*
X037932Y029897D02*
X032270Y029897D01*
X033105Y028900D02*
X032969Y028764D01*
X035150Y026950D02*
X035200Y027000D01*
X035840Y026320D02*
X037932Y026320D01*
X037932Y026558D02*
X036186Y026558D01*
X036361Y026797D02*
X037932Y026797D01*
X037932Y027035D02*
X036400Y027035D01*
X036332Y027274D02*
X037932Y027274D01*
X037932Y027512D02*
X036051Y027512D01*
X035840Y027751D02*
X037932Y027751D01*
X037932Y027989D02*
X035840Y027989D01*
X035840Y028228D02*
X037932Y028228D01*
X037932Y028466D02*
X035840Y028466D01*
X035855Y028705D02*
X037932Y028705D01*
X037932Y028943D02*
X035855Y028943D01*
X035855Y029182D02*
X037932Y029182D01*
X037932Y029420D02*
X035810Y029420D01*
X035300Y028900D02*
X035331Y028869D01*
X035330Y028869D01*
X037932Y030620D02*
X007800Y030620D01*
X007800Y033942D01*
X007931Y033626D01*
X008191Y033366D01*
X008531Y033225D01*
X008899Y033225D01*
X009239Y033366D01*
X009499Y033626D01*
X009640Y033966D01*
X009640Y034334D01*
X009499Y034674D01*
X009239Y034934D01*
X009090Y034996D01*
X009090Y035291D01*
X009031Y035434D01*
X008921Y035544D01*
X008778Y035603D01*
X008622Y035603D01*
X008479Y035544D01*
X008369Y035434D01*
X008310Y035291D01*
X008310Y034983D01*
X008191Y034934D01*
X007931Y034674D01*
X007800Y034358D01*
X007800Y035350D01*
X006850Y036450D01*
X006850Y036500D01*
X004800Y036500D01*
X004798Y036703D01*
X004835Y036703D01*
X005078Y036703D01*
X005128Y036717D01*
X005174Y036743D01*
X005211Y036780D01*
X005238Y036826D01*
X005249Y036869D01*
X005261Y036852D01*
X005297Y036816D01*
X005339Y036787D01*
X005387Y036768D01*
X005437Y036758D01*
X005600Y036758D01*
X005763Y036758D01*
X005813Y036768D01*
X005861Y036787D01*
X005903Y036816D01*
X005939Y036852D01*
X005967Y036894D01*
X005987Y036941D01*
X005997Y036991D01*
X005997Y037155D01*
X005997Y037318D01*
X005987Y037368D01*
X005967Y037415D01*
X005945Y037449D01*
X006017Y037521D01*
X006067Y037642D01*
X006067Y038049D01*
X006019Y038164D01*
X006025Y038170D01*
X006066Y038269D01*
X006066Y038731D01*
X006025Y038830D01*
X005949Y038906D01*
X005849Y038947D01*
X005475Y038947D01*
X005541Y038995D01*
X005605Y039059D01*
X005658Y039131D01*
X005698Y039211D01*
X005726Y039297D01*
X005740Y039385D01*
X005740Y039430D01*
X005740Y039475D01*
X005726Y039563D01*
X005698Y039649D01*
X005658Y039729D01*
X005605Y039801D01*
X005541Y039865D01*
X005469Y039918D01*
X005459Y039923D01*
X007467Y039923D01*
X007357Y039813D01*
X007260Y039577D01*
X007260Y039323D01*
X007357Y039087D01*
X007537Y038907D01*
X007708Y038837D01*
X007684Y038781D01*
X007684Y038319D01*
X007725Y038220D01*
X007801Y038144D01*
X007820Y038136D01*
X007820Y037659D01*
X007861Y037560D01*
X007937Y037484D01*
X008036Y037443D01*
X008250Y037443D01*
X008250Y037283D01*
X008226Y037283D01*
X008226Y036888D01*
X007890Y036888D01*
X007890Y036667D01*
X007904Y036616D01*
X007930Y036571D01*
X007967Y036533D01*
X007970Y036532D01*
X007926Y036507D01*
X007889Y036470D01*
X007862Y036424D01*
X007849Y036373D01*
X007849Y036150D01*
X007849Y035927D01*
X007862Y035876D01*
X007889Y035830D01*
X007926Y035793D01*
X007972Y035767D01*
X008022Y035753D01*
X008265Y035753D01*
X008265Y036150D01*
X007849Y036150D01*
X008265Y036150D01*
X008265Y036150D01*
X008265Y036150D01*
X008226Y036250D01*
X008226Y036888D01*
X008226Y036888D01*
X007890Y036888D01*
X007890Y037109D01*
X007904Y037160D01*
X007930Y037206D01*
X007967Y037243D01*
X008013Y037269D01*
X008064Y037283D01*
X008226Y037283D01*
X008226Y036888D01*
X008226Y036888D01*
X008226Y037052D02*
X008226Y037052D01*
X008250Y037291D02*
X005997Y037291D01*
X005997Y037155D02*
X005600Y037155D01*
X005600Y037155D01*
X005997Y037155D01*
X005997Y037052D02*
X007890Y037052D01*
X007890Y036814D02*
X005900Y036814D01*
X005600Y036814D02*
X005600Y036814D01*
X005600Y036758D02*
X005600Y037155D01*
X005600Y037155D01*
X005600Y036758D01*
X005600Y037052D02*
X005600Y037052D01*
X005300Y036814D02*
X005230Y036814D01*
X004835Y036814D02*
X004835Y036814D01*
X004835Y036703D02*
X004835Y037100D01*
X004835Y037100D01*
X004835Y037100D01*
X004835Y037497D01*
X005078Y037497D01*
X005128Y037483D01*
X005174Y037457D01*
X005211Y037420D01*
X005225Y037396D01*
X005233Y037415D01*
X005255Y037449D01*
X005183Y037521D01*
X005133Y037642D01*
X005133Y038049D01*
X005135Y038053D01*
X004951Y038053D01*
X004851Y038094D01*
X004796Y038149D01*
X004786Y038149D01*
X004792Y037497D01*
X004835Y037497D01*
X004835Y037100D01*
X004835Y036703D01*
X004799Y036575D02*
X007927Y036575D01*
X007849Y036337D02*
X006948Y036337D01*
X007154Y036098D02*
X007849Y036098D01*
X007872Y035860D02*
X007360Y035860D01*
X007566Y035621D02*
X009340Y035621D01*
X009391Y035600D02*
X009609Y035600D01*
X009632Y035609D01*
X009555Y035422D01*
X009555Y035198D01*
X009641Y034990D01*
X009660Y034971D01*
X009660Y034752D01*
X009697Y034664D01*
X009764Y034597D01*
X009852Y034560D01*
X012798Y034560D01*
X012886Y034597D01*
X012953Y034664D01*
X012990Y034752D01*
X012990Y035064D01*
X013045Y035198D01*
X013045Y035422D01*
X012990Y035556D01*
X012990Y036250D01*
X013109Y036250D01*
X013312Y036334D01*
X013466Y036488D01*
X013550Y036691D01*
X013550Y036909D01*
X013466Y037112D01*
X013312Y037266D01*
X013109Y037350D01*
X012990Y037350D01*
X012990Y038297D01*
X013014Y038321D01*
X013055Y038421D01*
X013055Y039079D01*
X013014Y039179D01*
X012986Y039206D01*
X012953Y039286D01*
X012886Y039353D01*
X012798Y039390D01*
X009852Y039390D01*
X009764Y039353D01*
X009706Y039296D01*
X009661Y039296D01*
X009562Y039254D01*
X009486Y039179D01*
X009445Y039079D01*
X009445Y038421D01*
X009486Y038321D01*
X009562Y038246D01*
X009660Y038205D01*
X009660Y037318D01*
X009248Y037318D01*
X009164Y037353D01*
X008950Y037353D01*
X008950Y037443D01*
X009164Y037443D01*
X009263Y037484D01*
X009339Y037560D01*
X009380Y037659D01*
X009380Y038156D01*
X009339Y038256D01*
X009324Y038270D01*
X009324Y038969D01*
X009443Y039087D01*
X009540Y039323D01*
X009540Y039577D01*
X009443Y039813D01*
X009333Y039923D01*
X015067Y039923D01*
X014957Y039813D01*
X014860Y039577D01*
X014860Y039323D01*
X014957Y039087D01*
X015137Y038907D01*
X015308Y038837D01*
X015284Y038781D01*
X015284Y038319D01*
X015325Y038220D01*
X015401Y038144D01*
X015420Y038136D01*
X015420Y037659D01*
X015461Y037560D01*
X015537Y037484D01*
X015636Y037443D01*
X015850Y037443D01*
X015850Y037283D01*
X015826Y037283D01*
X015826Y036888D01*
X015490Y036888D01*
X015490Y036667D01*
X015504Y036616D01*
X015530Y036571D01*
X015567Y036533D01*
X015595Y036518D01*
X015576Y036507D01*
X015539Y036470D01*
X015512Y036424D01*
X015499Y036373D01*
X015499Y036150D01*
X015499Y035927D01*
X015512Y035876D01*
X015539Y035830D01*
X015576Y035793D01*
X015622Y035767D01*
X015672Y035753D01*
X015915Y035753D01*
X015915Y036150D01*
X015499Y036150D01*
X015915Y036150D01*
X015915Y036150D01*
X015915Y036150D01*
X015826Y036239D01*
X015826Y036888D01*
X015826Y036888D01*
X015490Y036888D01*
X015490Y037109D01*
X015504Y037160D01*
X015530Y037206D01*
X015567Y037243D01*
X015613Y037269D01*
X015664Y037283D01*
X015826Y037283D01*
X015826Y036888D01*
X015826Y036888D01*
X015826Y037052D02*
X015826Y037052D01*
X015850Y037291D02*
X013253Y037291D01*
X013491Y037052D02*
X015490Y037052D01*
X015490Y036814D02*
X013550Y036814D01*
X013502Y036575D02*
X015527Y036575D01*
X015499Y036337D02*
X013314Y036337D01*
X012990Y036098D02*
X015499Y036098D01*
X015522Y035860D02*
X012990Y035860D01*
X012990Y035621D02*
X016990Y035621D01*
X017041Y035600D02*
X017259Y035600D01*
X017282Y035609D01*
X017205Y035422D01*
X017205Y035198D01*
X017291Y034990D01*
X017310Y034971D01*
X017310Y034802D01*
X017347Y034714D01*
X017414Y034647D01*
X017502Y034610D01*
X020448Y034610D01*
X020536Y034647D01*
X020603Y034714D01*
X020640Y034802D01*
X020640Y035064D01*
X020695Y035198D01*
X020695Y035422D01*
X020640Y035556D01*
X020640Y036250D01*
X020759Y036250D01*
X020962Y036334D01*
X021116Y036488D01*
X021200Y036691D01*
X021200Y036909D01*
X021116Y037112D01*
X020962Y037266D01*
X020759Y037350D01*
X020640Y037350D01*
X020640Y038383D01*
X020655Y038421D01*
X020655Y039079D01*
X020640Y039117D01*
X020640Y039248D01*
X020603Y039336D01*
X020536Y039403D01*
X020448Y039440D01*
X017502Y039440D01*
X017414Y039403D01*
X017347Y039336D01*
X017330Y039296D01*
X017261Y039296D01*
X017162Y039254D01*
X017086Y039179D01*
X017045Y039079D01*
X017045Y038421D01*
X017086Y038321D01*
X017162Y038246D01*
X017261Y038204D01*
X017310Y038204D01*
X017310Y037280D01*
X016895Y037280D01*
X016863Y037312D01*
X016764Y037353D01*
X016550Y037353D01*
X016550Y037443D01*
X016764Y037443D01*
X016863Y037484D01*
X016939Y037560D01*
X016980Y037659D01*
X016980Y038156D01*
X016939Y038256D01*
X016924Y038270D01*
X016924Y038969D01*
X017043Y039087D01*
X017140Y039323D01*
X017140Y039577D01*
X017043Y039813D01*
X016933Y039923D01*
X022667Y039923D01*
X022557Y039813D01*
X022460Y039577D01*
X022460Y039323D01*
X022557Y039087D01*
X022737Y038907D01*
X022908Y038837D01*
X022884Y038781D01*
X022884Y038319D01*
X022925Y038220D01*
X023001Y038144D01*
X023020Y038136D01*
X023020Y037659D01*
X023061Y037560D01*
X023137Y037484D01*
X023236Y037443D01*
X023450Y037443D01*
X023450Y037283D01*
X023426Y037283D01*
X023426Y036888D01*
X023090Y036888D01*
X023090Y036667D01*
X023104Y036616D01*
X023130Y036571D01*
X023167Y036533D01*
X023170Y036532D01*
X023126Y036507D01*
X023089Y036470D01*
X023062Y036424D01*
X023049Y036373D01*
X023049Y036150D01*
X023049Y035927D01*
X023062Y035876D01*
X023089Y035830D01*
X023126Y035793D01*
X023172Y035767D01*
X023222Y035753D01*
X023465Y035753D01*
X023465Y036150D01*
X023049Y036150D01*
X023465Y036150D01*
X023465Y036150D01*
X023465Y036150D01*
X023426Y036189D01*
X023426Y036888D01*
X023426Y036888D01*
X023090Y036888D01*
X023090Y037109D01*
X023104Y037160D01*
X023130Y037206D01*
X023167Y037243D01*
X023213Y037269D01*
X023264Y037283D01*
X023426Y037283D01*
X023426Y036888D01*
X023426Y036888D01*
X023426Y037052D02*
X023426Y037052D01*
X023450Y037291D02*
X020903Y037291D01*
X021141Y037052D02*
X023090Y037052D01*
X023090Y036814D02*
X021200Y036814D01*
X021152Y036575D02*
X023127Y036575D01*
X023049Y036337D02*
X020964Y036337D01*
X020640Y036098D02*
X023049Y036098D01*
X023072Y035860D02*
X020640Y035860D01*
X020640Y035621D02*
X024540Y035621D01*
X024591Y035600D02*
X024809Y035600D01*
X024832Y035609D01*
X024755Y035422D01*
X024755Y035198D01*
X024841Y034990D01*
X024872Y034959D01*
X024872Y034864D01*
X024910Y034772D01*
X024910Y034752D01*
X024947Y034664D01*
X025014Y034597D01*
X025102Y034560D01*
X028048Y034560D01*
X028136Y034597D01*
X028203Y034664D01*
X028240Y034752D01*
X028240Y035185D01*
X028245Y035198D01*
X028245Y035422D01*
X028240Y035435D01*
X028240Y036250D01*
X028309Y036250D01*
X028512Y036334D01*
X028666Y036488D01*
X028750Y036691D01*
X028750Y036909D01*
X028666Y037112D01*
X028512Y037266D01*
X028309Y037350D01*
X028240Y037350D01*
X028240Y038383D01*
X028255Y038421D01*
X028255Y039079D01*
X028240Y039117D01*
X028240Y039198D01*
X028203Y039286D01*
X028136Y039353D01*
X028048Y039390D01*
X025102Y039390D01*
X025014Y039353D01*
X024956Y039296D01*
X024861Y039296D01*
X024762Y039254D01*
X024686Y039179D01*
X024645Y039079D01*
X024645Y038421D01*
X024686Y038321D01*
X024762Y038246D01*
X024861Y038204D01*
X024889Y038204D01*
X024889Y037280D01*
X024495Y037280D01*
X024463Y037312D01*
X024364Y037353D01*
X024150Y037353D01*
X024150Y037443D01*
X024364Y037443D01*
X024463Y037484D01*
X024539Y037560D01*
X024580Y037659D01*
X024580Y038156D01*
X024539Y038256D01*
X024524Y038270D01*
X024524Y038969D01*
X024643Y039087D01*
X024740Y039323D01*
X024740Y039577D01*
X024643Y039813D01*
X024533Y039923D01*
X030267Y039923D01*
X030157Y039813D01*
X030060Y039577D01*
X030060Y039323D01*
X030157Y039087D01*
X030337Y038907D01*
X030508Y038837D01*
X030484Y038781D01*
X030484Y038319D01*
X030525Y038220D01*
X030601Y038144D01*
X030620Y038136D01*
X030620Y037659D01*
X030661Y037560D01*
X030737Y037484D01*
X030836Y037443D01*
X031050Y037443D01*
X031050Y037283D01*
X031026Y037283D01*
X031026Y036888D01*
X030690Y036888D01*
X030690Y036667D01*
X030704Y036616D01*
X030730Y036571D01*
X030767Y036533D01*
X030770Y036532D01*
X030726Y036507D01*
X030689Y036470D01*
X030662Y036424D01*
X030649Y036373D01*
X030649Y036150D01*
X030649Y035927D01*
X030662Y035876D01*
X030689Y035830D01*
X030726Y035793D01*
X030772Y035767D01*
X030822Y035753D01*
X031065Y035753D01*
X031065Y036150D01*
X030649Y036150D01*
X031065Y036150D01*
X031065Y036150D01*
X031065Y036150D01*
X031026Y036189D01*
X031026Y036888D01*
X031026Y036888D01*
X030690Y036888D01*
X030690Y037109D01*
X030704Y037160D01*
X030730Y037206D01*
X030767Y037243D01*
X030813Y037269D01*
X030864Y037283D01*
X031026Y037283D01*
X031026Y036888D01*
X031026Y036888D01*
X031026Y037052D02*
X031026Y037052D01*
X031050Y037291D02*
X028453Y037291D01*
X028240Y037529D02*
X030692Y037529D01*
X030620Y037768D02*
X028240Y037768D01*
X028240Y038006D02*
X030620Y038006D01*
X030515Y038245D02*
X028240Y038245D01*
X028255Y038483D02*
X030484Y038483D01*
X030484Y038722D02*
X028255Y038722D01*
X028255Y038960D02*
X030285Y038960D01*
X030111Y039199D02*
X028240Y039199D01*
X027681Y038669D02*
X027600Y038750D01*
X028691Y037052D02*
X030690Y037052D01*
X030690Y036814D02*
X028750Y036814D01*
X028702Y036575D02*
X030727Y036575D01*
X030649Y036337D02*
X028514Y036337D01*
X028240Y036098D02*
X030649Y036098D01*
X030672Y035860D02*
X028240Y035860D01*
X028240Y035621D02*
X032140Y035621D01*
X032191Y035600D02*
X032409Y035600D01*
X032497Y035636D01*
X032491Y035630D01*
X032405Y035422D01*
X032405Y035198D01*
X032491Y034990D01*
X032510Y034971D01*
X032510Y034752D01*
X032547Y034664D01*
X032614Y034597D01*
X032702Y034560D01*
X035648Y034560D01*
X035736Y034597D01*
X035803Y034664D01*
X035840Y034752D01*
X035840Y035064D01*
X035895Y035198D01*
X035895Y035422D01*
X035840Y035556D01*
X035840Y036300D01*
X035959Y036300D01*
X036162Y036384D01*
X036316Y036538D01*
X036400Y036741D01*
X036400Y036959D01*
X036316Y037162D01*
X036162Y037316D01*
X035959Y037400D01*
X035840Y037400D01*
X035840Y038383D01*
X035855Y038421D01*
X035855Y039079D01*
X035840Y039117D01*
X035840Y039198D01*
X035803Y039286D01*
X035736Y039353D01*
X035648Y039390D01*
X032702Y039390D01*
X032614Y039353D01*
X032556Y039296D01*
X032461Y039296D01*
X032362Y039254D01*
X032286Y039179D01*
X032245Y039079D01*
X032245Y038421D01*
X032286Y038321D01*
X032362Y038246D01*
X032461Y038204D01*
X032510Y038204D01*
X032510Y037330D01*
X032019Y037330D01*
X031964Y037353D01*
X031750Y037353D01*
X031750Y037443D01*
X031964Y037443D01*
X032063Y037484D01*
X032139Y037560D01*
X032180Y037659D01*
X032180Y038156D01*
X032139Y038256D01*
X032124Y038270D01*
X032124Y038969D01*
X032243Y039087D01*
X032340Y039323D01*
X032340Y039577D01*
X032243Y039813D01*
X032133Y039923D01*
X037932Y039923D01*
X037932Y030620D01*
X037932Y030851D02*
X007800Y030851D01*
X007800Y031090D02*
X037932Y031090D01*
X037932Y031328D02*
X007800Y031328D01*
X007800Y031567D02*
X037932Y031567D01*
X037932Y031805D02*
X007800Y031805D01*
X007800Y032044D02*
X037932Y032044D01*
X037932Y032282D02*
X007800Y032282D01*
X007800Y032521D02*
X037932Y032521D01*
X037932Y032759D02*
X007800Y032759D01*
X007800Y032998D02*
X037932Y032998D01*
X037932Y033236D02*
X036946Y033236D01*
X036919Y033225D02*
X037259Y033366D01*
X037519Y033626D01*
X037660Y033966D01*
X037660Y034334D01*
X037519Y034674D01*
X037259Y034934D01*
X036919Y035075D01*
X036551Y035075D01*
X036211Y034934D01*
X035951Y034674D01*
X035810Y034334D01*
X035810Y033966D01*
X035951Y033626D01*
X036211Y033366D01*
X036551Y033225D01*
X036919Y033225D01*
X036524Y033236D02*
X031776Y033236D01*
X031749Y033225D02*
X032089Y033366D01*
X032349Y033626D01*
X032490Y033966D01*
X032490Y034334D01*
X032349Y034674D01*
X032089Y034934D01*
X031749Y035075D01*
X031381Y035075D01*
X031041Y034934D01*
X030781Y034674D01*
X030640Y034334D01*
X030640Y033966D01*
X030781Y033626D01*
X031041Y033366D01*
X031381Y033225D01*
X031749Y033225D01*
X031354Y033236D02*
X029296Y033236D01*
X029269Y033225D02*
X029609Y033366D01*
X029869Y033626D01*
X030010Y033966D01*
X030010Y034334D01*
X029869Y034674D01*
X029609Y034934D01*
X029269Y035075D01*
X028901Y035075D01*
X028561Y034934D01*
X028301Y034674D01*
X028160Y034334D01*
X028160Y033966D01*
X028301Y033626D01*
X028561Y033366D01*
X028901Y033225D01*
X029269Y033225D01*
X028874Y033236D02*
X024126Y033236D01*
X024099Y033225D02*
X024439Y033366D01*
X024699Y033626D01*
X024840Y033966D01*
X024840Y034334D01*
X024699Y034674D01*
X024439Y034934D01*
X024099Y035075D01*
X023731Y035075D01*
X023391Y034934D01*
X023131Y034674D01*
X022990Y034334D01*
X022990Y033966D01*
X023131Y033626D01*
X023391Y033366D01*
X023731Y033225D01*
X024099Y033225D01*
X023704Y033236D02*
X021746Y033236D01*
X021719Y033225D02*
X022059Y033366D01*
X022319Y033626D01*
X022460Y033966D01*
X022460Y034334D01*
X022319Y034674D01*
X022059Y034934D01*
X021719Y035075D01*
X021351Y035075D01*
X021011Y034934D01*
X020751Y034674D01*
X020610Y034334D01*
X020610Y033966D01*
X020751Y033626D01*
X021011Y033366D01*
X021351Y033225D01*
X021719Y033225D01*
X021324Y033236D02*
X016576Y033236D01*
X016549Y033225D02*
X016889Y033366D01*
X017149Y033626D01*
X017290Y033966D01*
X017290Y034334D01*
X017149Y034674D01*
X016889Y034934D01*
X016549Y035075D01*
X016181Y035075D01*
X015841Y034934D01*
X015581Y034674D01*
X015440Y034334D01*
X015440Y033966D01*
X015581Y033626D01*
X015841Y033366D01*
X016181Y033225D01*
X016549Y033225D01*
X016154Y033236D02*
X014096Y033236D01*
X014069Y033225D02*
X014409Y033366D01*
X014669Y033626D01*
X014810Y033966D01*
X014810Y034334D01*
X014669Y034674D01*
X014409Y034934D01*
X014069Y035075D01*
X013701Y035075D01*
X013361Y034934D01*
X013101Y034674D01*
X012960Y034334D01*
X012960Y033966D01*
X013101Y033626D01*
X013361Y033366D01*
X013701Y033225D01*
X014069Y033225D01*
X013674Y033236D02*
X008926Y033236D01*
X008504Y033236D02*
X007800Y033236D01*
X007800Y033475D02*
X008082Y033475D01*
X007895Y033713D02*
X007800Y033713D01*
X007800Y034429D02*
X007829Y034429D01*
X007800Y034667D02*
X007928Y034667D01*
X007800Y034906D02*
X008162Y034906D01*
X008310Y035144D02*
X007800Y035144D01*
X007772Y035383D02*
X008348Y035383D01*
X008265Y035753D02*
X008508Y035753D01*
X008530Y035759D01*
X008565Y035724D01*
X008664Y035683D01*
X009190Y035683D01*
X009391Y035600D01*
X009555Y035383D02*
X009052Y035383D01*
X009090Y035144D02*
X009577Y035144D01*
X009660Y034906D02*
X009268Y034906D01*
X009502Y034667D02*
X009695Y034667D01*
X009601Y034429D02*
X012999Y034429D01*
X012955Y034667D02*
X013098Y034667D01*
X012990Y034906D02*
X013332Y034906D01*
X013023Y035144D02*
X017227Y035144D01*
X017205Y035383D02*
X013045Y035383D01*
X012500Y035527D02*
X012500Y036800D01*
X012300Y036800D01*
X012990Y037529D02*
X015492Y037529D01*
X015420Y037768D02*
X012990Y037768D01*
X012990Y038006D02*
X015420Y038006D01*
X015315Y038245D02*
X012990Y038245D01*
X013055Y038483D02*
X015284Y038483D01*
X015284Y038722D02*
X013055Y038722D01*
X013055Y038960D02*
X015085Y038960D01*
X014911Y039199D02*
X012994Y039199D01*
X012481Y038750D02*
X012195Y038750D01*
X010305Y038750D02*
X010150Y038750D01*
X009445Y038722D02*
X009324Y038722D01*
X009324Y038960D02*
X009445Y038960D01*
X009489Y039199D02*
X009506Y039199D01*
X009540Y039437D02*
X014860Y039437D01*
X014901Y039676D02*
X009499Y039676D01*
X009341Y039914D02*
X015059Y039914D01*
X016941Y039914D02*
X022659Y039914D01*
X022501Y039676D02*
X017099Y039676D01*
X017140Y039437D02*
X017495Y039437D01*
X017106Y039199D02*
X017089Y039199D01*
X017045Y038960D02*
X016924Y038960D01*
X016924Y038722D02*
X017045Y038722D01*
X017045Y038483D02*
X016924Y038483D01*
X016943Y038245D02*
X017164Y038245D01*
X017310Y038006D02*
X016980Y038006D01*
X016980Y037768D02*
X017310Y037768D01*
X017310Y037529D02*
X016908Y037529D01*
X016884Y037291D02*
X017310Y037291D01*
X017769Y036850D02*
X017819Y036800D01*
X017950Y036800D01*
X017150Y036150D02*
X016650Y036150D01*
X016585Y036215D01*
X016585Y036150D01*
X016840Y035683D02*
X016314Y035683D01*
X016215Y035724D01*
X016180Y035759D01*
X016158Y035753D01*
X015915Y035753D01*
X015915Y036150D01*
X015915Y036098D02*
X015915Y036098D01*
X015915Y035860D02*
X015915Y035860D01*
X016840Y035683D02*
X017041Y035600D01*
X016918Y034906D02*
X017310Y034906D01*
X017394Y034667D02*
X017152Y034667D01*
X017251Y034429D02*
X020649Y034429D01*
X020610Y034190D02*
X017290Y034190D01*
X017284Y033952D02*
X020616Y033952D01*
X020715Y033713D02*
X017185Y033713D01*
X016998Y033475D02*
X020902Y033475D01*
X020748Y034667D02*
X020556Y034667D01*
X020640Y034906D02*
X020982Y034906D01*
X020673Y035144D02*
X024777Y035144D01*
X024755Y035383D02*
X020695Y035383D01*
X020131Y035508D02*
X020100Y035589D01*
X020100Y036800D01*
X019950Y036800D01*
X020640Y037529D02*
X023092Y037529D01*
X023020Y037768D02*
X020640Y037768D01*
X020640Y038006D02*
X023020Y038006D01*
X022915Y038245D02*
X020640Y038245D01*
X020655Y038483D02*
X022884Y038483D01*
X022884Y038722D02*
X020655Y038722D01*
X020655Y038960D02*
X022685Y038960D01*
X022511Y039199D02*
X020640Y039199D01*
X020455Y039437D02*
X022460Y039437D01*
X024524Y038960D02*
X024645Y038960D01*
X024645Y038722D02*
X024524Y038722D01*
X024524Y038483D02*
X024645Y038483D01*
X024543Y038245D02*
X024764Y038245D01*
X024889Y038006D02*
X024580Y038006D01*
X024580Y037768D02*
X024889Y037768D01*
X024889Y037529D02*
X024508Y037529D01*
X024484Y037291D02*
X024889Y037291D01*
X025300Y036850D02*
X025300Y035577D01*
X025319Y035508D01*
X024591Y035600D02*
X024390Y035683D01*
X023864Y035683D01*
X023765Y035724D01*
X023730Y035759D01*
X023708Y035753D01*
X023465Y035753D01*
X023465Y036150D01*
X023465Y036098D02*
X023465Y036098D01*
X023465Y035860D02*
X023465Y035860D01*
X024135Y036150D02*
X024135Y036265D01*
X024200Y036150D01*
X024700Y036150D01*
X024262Y036850D02*
X024174Y036888D01*
X025300Y036850D02*
X025949Y036800D01*
X025319Y038564D02*
X025505Y038750D01*
X024706Y039199D02*
X024689Y039199D01*
X024740Y039437D02*
X030060Y039437D01*
X030101Y039676D02*
X024699Y039676D01*
X024541Y039914D02*
X030259Y039914D01*
X032141Y039914D02*
X037932Y039914D01*
X037932Y039676D02*
X032299Y039676D01*
X032340Y039437D02*
X037932Y039437D01*
X037932Y039199D02*
X035840Y039199D01*
X035855Y038960D02*
X037932Y038960D01*
X037932Y038722D02*
X035855Y038722D01*
X035855Y038483D02*
X037932Y038483D01*
X037932Y038245D02*
X035840Y038245D01*
X035840Y038006D02*
X037932Y038006D01*
X037932Y037768D02*
X035840Y037768D01*
X035840Y037529D02*
X037932Y037529D01*
X037932Y037291D02*
X036187Y037291D01*
X036362Y037052D02*
X037932Y037052D01*
X037932Y036814D02*
X036400Y036814D01*
X036331Y036575D02*
X037932Y036575D01*
X037932Y036337D02*
X036048Y036337D01*
X035840Y036098D02*
X037932Y036098D01*
X037932Y035860D02*
X035840Y035860D01*
X035840Y035621D02*
X037932Y035621D01*
X037932Y035383D02*
X035895Y035383D01*
X035873Y035144D02*
X037932Y035144D01*
X037932Y034906D02*
X037288Y034906D01*
X037522Y034667D02*
X037932Y034667D01*
X037932Y034429D02*
X037621Y034429D01*
X037660Y034190D02*
X037932Y034190D01*
X037932Y033952D02*
X037654Y033952D01*
X037555Y033713D02*
X037932Y033713D01*
X037932Y033475D02*
X037368Y033475D01*
X036102Y033475D02*
X032198Y033475D01*
X032385Y033713D02*
X035915Y033713D01*
X035816Y033952D02*
X032484Y033952D01*
X032490Y034190D02*
X035810Y034190D01*
X035849Y034429D02*
X032451Y034429D01*
X032545Y034667D02*
X032352Y034667D01*
X032510Y034906D02*
X032118Y034906D01*
X032427Y035144D02*
X028240Y035144D01*
X028240Y034906D02*
X028532Y034906D01*
X028298Y034667D02*
X028205Y034667D01*
X028199Y034429D02*
X024801Y034429D01*
X024840Y034190D02*
X028160Y034190D01*
X028166Y033952D02*
X024834Y033952D01*
X024735Y033713D02*
X028265Y033713D01*
X028452Y033475D02*
X024548Y033475D01*
X024702Y034667D02*
X024945Y034667D01*
X024872Y034906D02*
X024468Y034906D01*
X023362Y034906D02*
X022088Y034906D01*
X022322Y034667D02*
X023128Y034667D01*
X023029Y034429D02*
X022421Y034429D01*
X022460Y034190D02*
X022990Y034190D01*
X022996Y033952D02*
X022454Y033952D01*
X022355Y033713D02*
X023095Y033713D01*
X023282Y033475D02*
X022168Y033475D01*
X017769Y038614D02*
X017905Y038750D01*
X016574Y036888D02*
X016612Y036850D01*
X015812Y034906D02*
X014438Y034906D01*
X014672Y034667D02*
X015578Y034667D01*
X015479Y034429D02*
X014771Y034429D01*
X014810Y034190D02*
X015440Y034190D01*
X015446Y033952D02*
X014804Y033952D01*
X014705Y033713D02*
X015545Y033713D01*
X015732Y033475D02*
X014518Y033475D01*
X013252Y033475D02*
X009348Y033475D01*
X009535Y033713D02*
X013065Y033713D01*
X012966Y033952D02*
X009634Y033952D01*
X009640Y034190D02*
X012960Y034190D01*
X012481Y035508D02*
X012500Y035527D01*
X010150Y035708D02*
X010119Y035508D01*
X009500Y036150D02*
X008935Y036150D01*
X008935Y036265D01*
X008265Y036150D02*
X008265Y035753D01*
X008265Y035860D02*
X008265Y035860D01*
X008265Y036098D02*
X008265Y036098D01*
X008700Y035213D02*
X008700Y034150D01*
X006932Y031767D02*
X006435Y031767D01*
X006435Y031921D01*
X005950Y031900D01*
X005900Y032700D01*
X005200Y032700D01*
X005156Y032751D01*
X004280Y032751D01*
X004280Y032511D01*
X004280Y031629D01*
X004329Y031634D01*
X004440Y031659D01*
X004547Y031697D01*
X004649Y031746D01*
X004745Y031806D01*
X004834Y031877D01*
X004914Y031957D01*
X004985Y032046D01*
X005045Y032142D01*
X005095Y032244D01*
X005132Y032351D01*
X005157Y032462D01*
X005163Y032511D01*
X004280Y032511D01*
X004040Y032511D01*
X004040Y031629D01*
X003991Y031634D01*
X003880Y031659D01*
X003773Y031697D01*
X003671Y031746D01*
X003575Y031806D01*
X003486Y031877D01*
X003406Y031957D01*
X003335Y032046D01*
X003275Y032142D01*
X003225Y032244D01*
X003188Y032351D01*
X003163Y032462D01*
X003157Y032511D01*
X004040Y032511D01*
X004040Y032751D01*
X003157Y032751D01*
X003163Y032801D01*
X003188Y032912D01*
X003225Y033019D01*
X003275Y033121D01*
X003335Y033217D01*
X003406Y033306D01*
X003486Y033386D01*
X003504Y033400D01*
X001878Y033400D01*
X001862Y033384D01*
X001804Y033360D01*
X001849Y033338D01*
X001921Y033285D01*
X001985Y033221D01*
X002038Y033149D01*
X002078Y033069D01*
X002106Y032983D01*
X002120Y032895D01*
X002120Y032850D01*
X001550Y032850D01*
X001550Y032850D01*
X001550Y032850D01*
X000980Y032850D01*
X000980Y032895D01*
X000994Y032983D01*
X001022Y033069D01*
X001062Y033149D01*
X001115Y033221D01*
X001179Y033285D01*
X001251Y033338D01*
X001296Y033360D01*
X001238Y033384D01*
X001222Y033400D01*
X000980Y033400D01*
X000980Y030650D01*
X007100Y030650D01*
X007100Y031273D01*
X006968Y031273D01*
X006968Y031731D01*
X006932Y031731D01*
X006435Y031731D01*
X006435Y031447D01*
X006449Y031396D01*
X006475Y031350D01*
X006512Y031313D01*
X006558Y031287D01*
X006609Y031273D01*
X006932Y031273D01*
X006932Y031731D01*
X006932Y031767D01*
X006932Y031567D02*
X006968Y031567D01*
X006968Y031328D02*
X006932Y031328D01*
X007100Y031090D02*
X000980Y031090D01*
X000980Y031328D02*
X006497Y031328D01*
X006435Y031567D02*
X000980Y031567D01*
X000980Y031805D02*
X003577Y031805D01*
X003337Y032044D02*
X000980Y032044D01*
X000980Y032282D02*
X001492Y032282D01*
X001505Y032280D02*
X001417Y032294D01*
X001331Y032322D01*
X001251Y032362D01*
X001179Y032415D01*
X001115Y032479D01*
X001062Y032551D01*
X001022Y032631D01*
X000994Y032717D01*
X000980Y032805D01*
X000980Y032850D01*
X001550Y032850D01*
X002120Y032850D01*
X002120Y032805D01*
X002106Y032717D01*
X002078Y032631D01*
X002038Y032551D01*
X001985Y032479D01*
X001921Y032415D01*
X001849Y032362D01*
X001769Y032322D01*
X001683Y032294D01*
X001595Y032280D01*
X001550Y032280D01*
X001550Y032850D01*
X001550Y032850D01*
X001550Y032280D01*
X001505Y032280D01*
X001550Y032282D02*
X001550Y032282D01*
X001608Y032282D02*
X003212Y032282D01*
X003158Y032759D02*
X002113Y032759D01*
X002101Y032998D02*
X003218Y032998D01*
X003350Y033236D02*
X001970Y033236D01*
X001550Y032759D02*
X001550Y032759D01*
X001550Y032521D02*
X001550Y032521D01*
X002015Y032521D02*
X004040Y032521D01*
X004040Y032282D02*
X004280Y032282D01*
X004280Y032044D02*
X004040Y032044D01*
X004040Y031805D02*
X004280Y031805D01*
X004743Y031805D02*
X006435Y031805D01*
X005941Y032044D02*
X004983Y032044D01*
X005108Y032282D02*
X005926Y032282D01*
X005911Y032521D02*
X004280Y032521D01*
X005644Y029897D02*
X007330Y029897D01*
X007260Y029659D02*
X005735Y029659D01*
X005740Y029580D02*
X005170Y029580D01*
X005170Y029580D01*
X005740Y029580D01*
X005717Y029420D02*
X007282Y029420D01*
X007413Y029182D02*
X005578Y029182D01*
X006040Y028943D02*
X007689Y028943D01*
X007684Y028705D02*
X006066Y028705D01*
X006066Y028466D02*
X007686Y028466D01*
X007820Y028228D02*
X006055Y028228D01*
X006067Y027989D02*
X007820Y027989D01*
X007844Y027751D02*
X006050Y027751D01*
X007100Y030851D02*
X000980Y030851D01*
X000980Y032521D02*
X001085Y032521D01*
X000987Y032759D02*
X000980Y032759D01*
X000980Y032998D02*
X000999Y032998D01*
X000980Y033236D02*
X001130Y033236D01*
X004835Y037052D02*
X004835Y037052D01*
X004835Y037291D02*
X004835Y037291D01*
X004791Y037529D02*
X005180Y037529D01*
X005133Y037768D02*
X004789Y037768D01*
X004787Y038006D02*
X005133Y038006D01*
X006067Y038006D02*
X007820Y038006D01*
X007820Y037768D02*
X006067Y037768D01*
X006020Y037529D02*
X007892Y037529D01*
X007715Y038245D02*
X006055Y038245D01*
X006066Y038483D02*
X007684Y038483D01*
X007684Y038722D02*
X006066Y038722D01*
X005692Y039199D02*
X007311Y039199D01*
X007260Y039437D02*
X005740Y039437D01*
X005740Y039430D02*
X005170Y039430D01*
X005170Y039430D01*
X005740Y039430D01*
X005685Y039676D02*
X007301Y039676D01*
X007459Y039914D02*
X005474Y039914D01*
X005493Y038960D02*
X007485Y038960D01*
X009324Y038483D02*
X009445Y038483D01*
X009343Y038245D02*
X009564Y038245D01*
X009660Y038006D02*
X009380Y038006D01*
X009380Y037768D02*
X009660Y037768D01*
X009660Y037529D02*
X009308Y037529D01*
X010150Y036888D02*
X010238Y036800D01*
X010350Y036800D01*
X020100Y038750D02*
X020131Y038719D01*
X027700Y035577D02*
X027681Y035508D01*
X028245Y035383D02*
X032405Y035383D01*
X032460Y035621D02*
X032487Y035621D01*
X032191Y035600D02*
X031990Y035683D01*
X031464Y035683D01*
X031365Y035724D01*
X031330Y035759D01*
X031308Y035753D01*
X031065Y035753D01*
X031065Y036150D01*
X031065Y036098D02*
X031065Y036098D01*
X031065Y035860D02*
X031065Y035860D01*
X031735Y036150D02*
X031735Y036265D01*
X031850Y036150D01*
X032300Y036150D01*
X032969Y036569D02*
X033200Y036800D01*
X032510Y037529D02*
X032108Y037529D01*
X032180Y037768D02*
X032510Y037768D01*
X032510Y038006D02*
X032180Y038006D01*
X032143Y038245D02*
X032364Y038245D01*
X032245Y038483D02*
X032124Y038483D01*
X032124Y038722D02*
X032245Y038722D01*
X032245Y038960D02*
X032124Y038960D01*
X032289Y039199D02*
X032306Y039199D01*
X032969Y038614D02*
X033105Y038750D01*
X035150Y036800D02*
X035200Y036850D01*
X035330Y035910D02*
X035350Y035577D01*
X035331Y035508D01*
X035840Y034906D02*
X036182Y034906D01*
X035948Y034667D02*
X035805Y034667D01*
X035331Y038719D02*
X035330Y038719D01*
X035331Y038719D02*
X035300Y038750D01*
X031012Y034906D02*
X029638Y034906D01*
X029872Y034667D02*
X030778Y034667D01*
X030679Y034429D02*
X029971Y034429D01*
X030010Y034190D02*
X030640Y034190D01*
X030646Y033952D02*
X030004Y033952D01*
X029905Y033713D02*
X030745Y033713D01*
X030932Y033475D02*
X029718Y033475D01*
X035330Y026060D02*
X035350Y025727D01*
X035331Y025658D01*
X035840Y025843D02*
X037932Y025843D01*
X037932Y026081D02*
X035840Y026081D01*
X035882Y025604D02*
X037932Y025604D01*
X037932Y025366D02*
X035895Y025366D01*
X035840Y025127D02*
X036314Y025127D01*
X036211Y025084D02*
X035951Y024824D01*
X035810Y024484D01*
X035810Y024116D01*
X035951Y023776D01*
X036211Y023516D01*
X036551Y023375D01*
X036919Y023375D01*
X037259Y023516D01*
X037519Y023776D01*
X037660Y024116D01*
X037660Y024484D01*
X037519Y024824D01*
X037259Y025084D01*
X036919Y025225D01*
X036551Y025225D01*
X036211Y025084D01*
X036015Y024889D02*
X035834Y024889D01*
X035879Y024650D02*
X032421Y024650D01*
X032490Y024412D02*
X035810Y024412D01*
X035810Y024173D02*
X032490Y024173D01*
X032415Y023935D02*
X035885Y023935D01*
X036031Y023696D02*
X032269Y023696D01*
X031948Y023458D02*
X036352Y023458D01*
X037118Y023458D02*
X037932Y023458D01*
X037932Y023696D02*
X037439Y023696D01*
X037585Y023935D02*
X037932Y023935D01*
X037932Y024173D02*
X037660Y024173D01*
X037660Y024412D02*
X037932Y024412D01*
X037932Y024650D02*
X037591Y024650D01*
X037455Y024889D02*
X037932Y024889D01*
X037932Y025127D02*
X037156Y025127D01*
X032516Y024889D02*
X032285Y024889D01*
X032504Y025127D02*
X031986Y025127D01*
X033200Y017100D02*
X032969Y016869D01*
X031735Y016565D02*
X031735Y016450D01*
X031065Y016450D02*
X031065Y016053D01*
X031065Y016303D02*
X031065Y016303D01*
X032213Y015110D02*
X032510Y015110D01*
X032392Y014872D02*
X032674Y014872D01*
X032133Y010373D02*
X037932Y010373D01*
X037932Y001070D01*
X007800Y001070D01*
X007800Y004392D01*
X007931Y004076D01*
X008191Y003816D01*
X008531Y003675D01*
X008899Y003675D01*
X009239Y003816D01*
X009499Y004076D01*
X009640Y004416D01*
X009640Y004784D01*
X009499Y005124D01*
X009239Y005384D01*
X009090Y005446D01*
X009090Y005741D01*
X009031Y005884D01*
X008921Y005994D01*
X008778Y006053D01*
X008622Y006053D01*
X008479Y005994D01*
X008369Y005884D01*
X008310Y005741D01*
X008310Y005433D01*
X008191Y005384D01*
X007931Y005124D01*
X007800Y004808D01*
X007800Y005800D01*
X006850Y006900D01*
X007175Y006524D02*
X007849Y006524D01*
X007886Y006286D02*
X007381Y006286D01*
X007587Y006047D02*
X008608Y006047D01*
X008664Y006133D02*
X009190Y006133D01*
X009391Y006050D01*
X009609Y006050D01*
X009632Y006059D01*
X009555Y005872D01*
X009555Y005648D01*
X009641Y005440D01*
X009660Y005421D01*
X009660Y005202D01*
X009697Y005114D01*
X009764Y005047D01*
X009852Y005010D01*
X012798Y005010D01*
X012886Y005047D01*
X012953Y005114D01*
X012990Y005202D01*
X012990Y005514D01*
X013045Y005648D01*
X013045Y005872D01*
X012990Y006006D01*
X012990Y006700D01*
X013109Y006700D01*
X013312Y006784D01*
X013466Y006938D01*
X013550Y007141D01*
X013550Y007359D01*
X013466Y007562D01*
X013312Y007716D01*
X013109Y007800D01*
X012990Y007800D01*
X012990Y008747D01*
X013014Y008771D01*
X013055Y008871D01*
X013055Y009529D01*
X013014Y009629D01*
X012986Y009656D01*
X012953Y009736D01*
X012886Y009803D01*
X012798Y009840D01*
X009852Y009840D01*
X009764Y009803D01*
X009706Y009746D01*
X009661Y009746D01*
X009562Y009704D01*
X009486Y009629D01*
X009445Y009529D01*
X009445Y008871D01*
X009486Y008771D01*
X009562Y008696D01*
X009660Y008655D01*
X009660Y007768D01*
X009248Y007768D01*
X009164Y007803D01*
X008950Y007803D01*
X008950Y007893D01*
X009164Y007893D01*
X009263Y007934D01*
X009339Y008010D01*
X009380Y008109D01*
X009380Y008606D01*
X009339Y008706D01*
X009324Y008720D01*
X009324Y009419D01*
X009443Y009537D01*
X009540Y009773D01*
X009540Y010027D01*
X009443Y010263D01*
X009333Y010373D01*
X015067Y010373D01*
X014957Y010263D01*
X014860Y010027D01*
X014860Y009773D01*
X014957Y009537D01*
X015137Y009357D01*
X015308Y009287D01*
X015284Y009231D01*
X015284Y008769D01*
X015325Y008670D01*
X015401Y008594D01*
X015420Y008586D01*
X015420Y008109D01*
X015461Y008010D01*
X015537Y007934D01*
X015636Y007893D01*
X015850Y007893D01*
X015850Y007733D01*
X015826Y007733D01*
X015826Y007338D01*
X015490Y007338D01*
X015490Y007117D01*
X015504Y007066D01*
X015530Y007021D01*
X015567Y006983D01*
X015595Y006968D01*
X015576Y006957D01*
X015539Y006920D01*
X015512Y006874D01*
X015499Y006823D01*
X015499Y006600D01*
X015499Y006377D01*
X015512Y006326D01*
X015539Y006280D01*
X015576Y006243D01*
X015622Y006217D01*
X015672Y006203D01*
X015915Y006203D01*
X015915Y006600D01*
X015499Y006600D01*
X015915Y006600D01*
X015915Y006600D01*
X015915Y006600D01*
X015826Y006689D01*
X015826Y007338D01*
X015826Y007338D01*
X015490Y007338D01*
X015490Y007559D01*
X015504Y007610D01*
X015530Y007656D01*
X015567Y007693D01*
X015613Y007719D01*
X015664Y007733D01*
X015826Y007733D01*
X015826Y007338D01*
X015826Y007338D01*
X015826Y007478D02*
X015826Y007478D01*
X015826Y007717D02*
X015826Y007717D01*
X015608Y007717D02*
X013311Y007717D01*
X013501Y007478D02*
X015490Y007478D01*
X015490Y007240D02*
X013550Y007240D01*
X013492Y007001D02*
X015550Y007001D01*
X015499Y006763D02*
X013260Y006763D01*
X012990Y006524D02*
X015499Y006524D01*
X015536Y006286D02*
X012990Y006286D01*
X012990Y006047D02*
X017277Y006047D01*
X017282Y006059D02*
X017205Y005872D01*
X017205Y005648D01*
X017291Y005440D01*
X017310Y005421D01*
X017310Y005252D01*
X017347Y005164D01*
X017414Y005097D01*
X017502Y005060D01*
X020448Y005060D01*
X020536Y005097D01*
X020603Y005164D01*
X020640Y005252D01*
X020640Y005514D01*
X020695Y005648D01*
X020695Y005872D01*
X020640Y006006D01*
X020640Y006700D01*
X020759Y006700D01*
X020962Y006784D01*
X021116Y006938D01*
X021200Y007141D01*
X021200Y007359D01*
X021116Y007562D01*
X020962Y007716D01*
X020759Y007800D01*
X020640Y007800D01*
X020640Y008833D01*
X020655Y008871D01*
X020655Y009529D01*
X020640Y009567D01*
X020640Y009698D01*
X020603Y009786D01*
X020536Y009853D01*
X020448Y009890D01*
X017502Y009890D01*
X017414Y009853D01*
X017347Y009786D01*
X017330Y009746D01*
X017261Y009746D01*
X017162Y009704D01*
X017086Y009629D01*
X017045Y009529D01*
X017045Y008871D01*
X017086Y008771D01*
X017162Y008696D01*
X017261Y008654D01*
X017310Y008654D01*
X017310Y007730D01*
X016895Y007730D01*
X016863Y007762D01*
X016764Y007803D01*
X016550Y007803D01*
X016550Y007893D01*
X016764Y007893D01*
X016863Y007934D01*
X016939Y008010D01*
X016980Y008109D01*
X016980Y008606D01*
X016939Y008706D01*
X016924Y008720D01*
X016924Y009419D01*
X017043Y009537D01*
X017140Y009773D01*
X017140Y010027D01*
X017043Y010263D01*
X016933Y010373D01*
X022667Y010373D01*
X022557Y010263D01*
X022460Y010027D01*
X022460Y009773D01*
X022557Y009537D01*
X022737Y009357D01*
X022908Y009287D01*
X022884Y009231D01*
X022884Y008769D01*
X022925Y008670D01*
X023001Y008594D01*
X023020Y008586D01*
X023020Y008109D01*
X023061Y008010D01*
X023137Y007934D01*
X023236Y007893D01*
X023450Y007893D01*
X023450Y007733D01*
X023426Y007733D01*
X023426Y007338D01*
X023090Y007338D01*
X023090Y007117D01*
X023104Y007066D01*
X023130Y007021D01*
X023167Y006983D01*
X023170Y006982D01*
X023126Y006957D01*
X023089Y006920D01*
X023062Y006874D01*
X023049Y006823D01*
X023049Y006600D01*
X023049Y006377D01*
X023062Y006326D01*
X023089Y006280D01*
X023126Y006243D01*
X023172Y006217D01*
X023222Y006203D01*
X023465Y006203D01*
X023465Y006600D01*
X023049Y006600D01*
X023465Y006600D01*
X023465Y006600D01*
X023465Y006600D01*
X023426Y006639D01*
X023426Y007338D01*
X023426Y007338D01*
X023090Y007338D01*
X023090Y007559D01*
X023104Y007610D01*
X023130Y007656D01*
X023167Y007693D01*
X023213Y007719D01*
X023264Y007733D01*
X023426Y007733D01*
X023426Y007338D01*
X023426Y007338D01*
X023426Y007478D02*
X023426Y007478D01*
X023426Y007717D02*
X023426Y007717D01*
X023208Y007717D02*
X020961Y007717D01*
X021151Y007478D02*
X023090Y007478D01*
X023090Y007240D02*
X021200Y007240D01*
X021142Y007001D02*
X023150Y007001D01*
X023049Y006763D02*
X020910Y006763D01*
X020640Y006524D02*
X023049Y006524D01*
X023086Y006286D02*
X020640Y006286D01*
X020640Y006047D02*
X024827Y006047D01*
X024832Y006059D02*
X024755Y005872D01*
X024755Y005648D01*
X024841Y005440D01*
X024872Y005409D01*
X024872Y005314D01*
X024910Y005222D01*
X024910Y005202D01*
X024947Y005114D01*
X025014Y005047D01*
X025102Y005010D01*
X028048Y005010D01*
X028136Y005047D01*
X028203Y005114D01*
X028240Y005202D01*
X028240Y005635D01*
X028245Y005648D01*
X028245Y005872D01*
X028240Y005885D01*
X028240Y006700D01*
X028309Y006700D01*
X028512Y006784D01*
X028666Y006938D01*
X028750Y007141D01*
X028750Y007359D01*
X028666Y007562D01*
X028512Y007716D01*
X028309Y007800D01*
X028240Y007800D01*
X028240Y008833D01*
X028255Y008871D01*
X028255Y009529D01*
X028240Y009567D01*
X028240Y009648D01*
X028203Y009736D01*
X028136Y009803D01*
X028048Y009840D01*
X025102Y009840D01*
X025014Y009803D01*
X024956Y009746D01*
X024861Y009746D01*
X024762Y009704D01*
X024686Y009629D01*
X024645Y009529D01*
X024645Y008871D01*
X024686Y008771D01*
X024762Y008696D01*
X024861Y008654D01*
X024889Y008654D01*
X024889Y007730D01*
X024495Y007730D01*
X024463Y007762D01*
X024364Y007803D01*
X024150Y007803D01*
X024150Y007893D01*
X024364Y007893D01*
X024463Y007934D01*
X024539Y008010D01*
X024580Y008109D01*
X024580Y008606D01*
X024539Y008706D01*
X024524Y008720D01*
X024524Y009419D01*
X024643Y009537D01*
X024740Y009773D01*
X024740Y010027D01*
X024643Y010263D01*
X024533Y010373D01*
X030267Y010373D01*
X030157Y010263D01*
X030060Y010027D01*
X030060Y009773D01*
X030157Y009537D01*
X030337Y009357D01*
X030508Y009287D01*
X030484Y009231D01*
X030484Y008769D01*
X030525Y008670D01*
X030601Y008594D01*
X030620Y008586D01*
X030620Y008109D01*
X030661Y008010D01*
X030737Y007934D01*
X030836Y007893D01*
X031050Y007893D01*
X031050Y007733D01*
X031026Y007733D01*
X031026Y007338D01*
X030690Y007338D01*
X030690Y007117D01*
X030704Y007066D01*
X030730Y007021D01*
X030767Y006983D01*
X030770Y006982D01*
X030726Y006957D01*
X030689Y006920D01*
X030662Y006874D01*
X030649Y006823D01*
X030649Y006600D01*
X030649Y006377D01*
X030662Y006326D01*
X030689Y006280D01*
X030726Y006243D01*
X030772Y006217D01*
X030822Y006203D01*
X031065Y006203D01*
X031065Y006600D01*
X030649Y006600D01*
X031065Y006600D01*
X031065Y006600D01*
X031065Y006600D01*
X031026Y006639D01*
X031026Y007338D01*
X031026Y007338D01*
X030690Y007338D01*
X030690Y007559D01*
X030704Y007610D01*
X030730Y007656D01*
X030767Y007693D01*
X030813Y007719D01*
X030864Y007733D01*
X031026Y007733D01*
X031026Y007338D01*
X031026Y007338D01*
X031026Y007478D02*
X031026Y007478D01*
X031026Y007717D02*
X031026Y007717D01*
X030808Y007717D02*
X028511Y007717D01*
X028701Y007478D02*
X030690Y007478D01*
X030690Y007240D02*
X028750Y007240D01*
X028692Y007001D02*
X030750Y007001D01*
X030649Y006763D02*
X028460Y006763D01*
X028240Y006524D02*
X030649Y006524D01*
X030686Y006286D02*
X028240Y006286D01*
X028240Y006047D02*
X032477Y006047D01*
X032491Y006080D02*
X032405Y005872D01*
X032405Y005648D01*
X032491Y005440D01*
X032510Y005421D01*
X032510Y005202D01*
X032547Y005114D01*
X032614Y005047D01*
X032702Y005010D01*
X035648Y005010D01*
X035736Y005047D01*
X035803Y005114D01*
X035840Y005202D01*
X035840Y005514D01*
X035895Y005648D01*
X035895Y005872D01*
X035840Y006006D01*
X035840Y006750D01*
X035959Y006750D01*
X036162Y006834D01*
X036316Y006988D01*
X036400Y007191D01*
X036400Y007409D01*
X036316Y007612D01*
X036162Y007766D01*
X035959Y007850D01*
X035840Y007850D01*
X035840Y008833D01*
X035855Y008871D01*
X035855Y009529D01*
X035840Y009567D01*
X035840Y009648D01*
X035803Y009736D01*
X035736Y009803D01*
X035648Y009840D01*
X032702Y009840D01*
X032614Y009803D01*
X032556Y009746D01*
X032461Y009746D01*
X032362Y009704D01*
X032286Y009629D01*
X032245Y009529D01*
X032245Y008871D01*
X032286Y008771D01*
X032362Y008696D01*
X032461Y008654D01*
X032510Y008654D01*
X032510Y007780D01*
X032019Y007780D01*
X031964Y007803D01*
X031750Y007803D01*
X031750Y007893D01*
X031964Y007893D01*
X032063Y007934D01*
X032139Y008010D01*
X032180Y008109D01*
X032180Y008606D01*
X032139Y008706D01*
X032124Y008720D01*
X032124Y009419D01*
X032243Y009537D01*
X032340Y009773D01*
X032340Y010027D01*
X032243Y010263D01*
X032133Y010373D01*
X032165Y010340D02*
X037932Y010340D01*
X037932Y010102D02*
X032309Y010102D01*
X032340Y009863D02*
X037932Y009863D01*
X037932Y009625D02*
X035840Y009625D01*
X035855Y009386D02*
X037932Y009386D01*
X037932Y009148D02*
X035855Y009148D01*
X035855Y008909D02*
X037932Y008909D01*
X037932Y008671D02*
X035840Y008671D01*
X035840Y008432D02*
X037932Y008432D01*
X037932Y008194D02*
X035840Y008194D01*
X035840Y007955D02*
X037932Y007955D01*
X037932Y007717D02*
X036211Y007717D01*
X036372Y007478D02*
X037932Y007478D01*
X037932Y007240D02*
X036400Y007240D01*
X036321Y007001D02*
X037932Y007001D01*
X037932Y006763D02*
X035990Y006763D01*
X035840Y006524D02*
X037932Y006524D01*
X037932Y006286D02*
X035840Y006286D01*
X035840Y006047D02*
X037932Y006047D01*
X037932Y005809D02*
X035895Y005809D01*
X035863Y005570D02*
X037932Y005570D01*
X037932Y005332D02*
X037312Y005332D01*
X037259Y005384D02*
X036919Y005525D01*
X036551Y005525D01*
X036211Y005384D01*
X035951Y005124D01*
X035810Y004784D01*
X035810Y004416D01*
X035951Y004076D01*
X036211Y003816D01*
X036551Y003675D01*
X036919Y003675D01*
X037259Y003816D01*
X037519Y004076D01*
X037660Y004416D01*
X037660Y004784D01*
X037519Y005124D01*
X037259Y005384D01*
X037532Y005093D02*
X037932Y005093D01*
X037932Y004855D02*
X037631Y004855D01*
X037660Y004616D02*
X037932Y004616D01*
X037932Y004378D02*
X037644Y004378D01*
X037545Y004139D02*
X037932Y004139D01*
X037932Y003901D02*
X037344Y003901D01*
X037932Y003662D02*
X007800Y003662D01*
X007800Y003424D02*
X037932Y003424D01*
X037932Y003185D02*
X007800Y003185D01*
X007800Y002947D02*
X037932Y002947D01*
X037932Y002708D02*
X007800Y002708D01*
X007800Y002470D02*
X037932Y002470D01*
X037932Y002231D02*
X007800Y002231D01*
X007800Y001993D02*
X037932Y001993D01*
X037932Y001754D02*
X007800Y001754D01*
X007800Y001516D02*
X037932Y001516D01*
X037932Y001277D02*
X007800Y001277D01*
X006968Y001754D02*
X006932Y001754D01*
X006932Y001993D02*
X006968Y001993D01*
X007800Y003901D02*
X008106Y003901D01*
X007905Y004139D02*
X007800Y004139D01*
X007800Y004378D02*
X007806Y004378D01*
X007800Y004855D02*
X007819Y004855D01*
X007800Y005093D02*
X007918Y005093D01*
X007800Y005332D02*
X008138Y005332D01*
X008310Y005570D02*
X007800Y005570D01*
X007793Y005809D02*
X008338Y005809D01*
X008700Y005663D02*
X008700Y004600D01*
X009324Y003901D02*
X013276Y003901D01*
X013361Y003816D02*
X013701Y003675D01*
X014069Y003675D01*
X014409Y003816D01*
X014669Y004076D01*
X014810Y004416D01*
X014810Y004784D01*
X014669Y005124D01*
X014409Y005384D01*
X014069Y005525D01*
X013701Y005525D01*
X013361Y005384D01*
X013101Y005124D01*
X012960Y004784D01*
X012960Y004416D01*
X013101Y004076D01*
X013361Y003816D01*
X013075Y004139D02*
X009525Y004139D01*
X009624Y004378D02*
X012976Y004378D01*
X012960Y004616D02*
X009640Y004616D01*
X009611Y004855D02*
X012989Y004855D01*
X012932Y005093D02*
X013088Y005093D01*
X012990Y005332D02*
X013308Y005332D01*
X013013Y005570D02*
X017237Y005570D01*
X017205Y005809D02*
X013045Y005809D01*
X012500Y005977D02*
X012500Y007250D01*
X012300Y007250D01*
X012990Y007955D02*
X015516Y007955D01*
X015420Y008194D02*
X012990Y008194D01*
X012990Y008432D02*
X015420Y008432D01*
X015325Y008671D02*
X012990Y008671D01*
X013055Y008909D02*
X015284Y008909D01*
X015284Y009148D02*
X013055Y009148D01*
X013055Y009386D02*
X015109Y009386D01*
X014921Y009625D02*
X013016Y009625D01*
X012481Y009200D02*
X012195Y009200D01*
X010305Y009200D02*
X010150Y009200D01*
X009622Y008671D02*
X009353Y008671D01*
X009324Y008909D02*
X009445Y008909D01*
X009445Y009148D02*
X009324Y009148D01*
X009324Y009386D02*
X009445Y009386D01*
X009479Y009625D02*
X009484Y009625D01*
X009540Y009863D02*
X014860Y009863D01*
X014891Y010102D02*
X009509Y010102D01*
X009365Y010340D02*
X015035Y010340D01*
X016965Y010340D02*
X022635Y010340D01*
X022491Y010102D02*
X017109Y010102D01*
X017140Y009863D02*
X017437Y009863D01*
X017084Y009625D02*
X017079Y009625D01*
X017045Y009386D02*
X016924Y009386D01*
X016924Y009148D02*
X017045Y009148D01*
X017045Y008909D02*
X016924Y008909D01*
X016953Y008671D02*
X017222Y008671D01*
X017310Y008432D02*
X016980Y008432D01*
X016980Y008194D02*
X017310Y008194D01*
X017310Y007955D02*
X016884Y007955D01*
X016574Y007338D02*
X016612Y007300D01*
X016585Y006665D02*
X016650Y006600D01*
X017150Y006600D01*
X017282Y006059D02*
X017259Y006050D01*
X017041Y006050D01*
X016840Y006133D01*
X016314Y006133D01*
X016215Y006174D01*
X016180Y006209D01*
X016158Y006203D01*
X015915Y006203D01*
X015915Y006600D01*
X015915Y006524D02*
X015915Y006524D01*
X015915Y006286D02*
X015915Y006286D01*
X016585Y006600D02*
X016585Y006665D01*
X016549Y005525D02*
X016181Y005525D01*
X015841Y005384D01*
X015581Y005124D01*
X015440Y004784D01*
X015440Y004416D01*
X015581Y004076D01*
X015841Y003816D01*
X016181Y003675D01*
X016549Y003675D01*
X016889Y003816D01*
X017149Y004076D01*
X017290Y004416D01*
X017290Y004784D01*
X017149Y005124D01*
X016889Y005384D01*
X016549Y005525D01*
X016942Y005332D02*
X017310Y005332D01*
X017423Y005093D02*
X017162Y005093D01*
X017261Y004855D02*
X020639Y004855D01*
X020610Y004784D02*
X020610Y004416D01*
X020751Y004076D01*
X021011Y003816D01*
X021351Y003675D01*
X021719Y003675D01*
X022059Y003816D01*
X022319Y004076D01*
X022460Y004416D01*
X022460Y004784D01*
X022319Y005124D01*
X022059Y005384D01*
X021719Y005525D01*
X021351Y005525D01*
X021011Y005384D01*
X020751Y005124D01*
X020610Y004784D01*
X020610Y004616D02*
X017290Y004616D01*
X017274Y004378D02*
X020626Y004378D01*
X020725Y004139D02*
X017175Y004139D01*
X016974Y003901D02*
X020926Y003901D01*
X020738Y005093D02*
X020527Y005093D01*
X020640Y005332D02*
X020958Y005332D01*
X020663Y005570D02*
X024787Y005570D01*
X024755Y005809D02*
X020695Y005809D01*
X020131Y005958D02*
X020100Y006039D01*
X020100Y007250D01*
X019950Y007250D01*
X020640Y007955D02*
X023116Y007955D01*
X023020Y008194D02*
X020640Y008194D01*
X020640Y008432D02*
X023020Y008432D01*
X022925Y008671D02*
X020640Y008671D01*
X020655Y008909D02*
X022884Y008909D01*
X022884Y009148D02*
X020655Y009148D01*
X020655Y009386D02*
X022709Y009386D01*
X022521Y009625D02*
X020640Y009625D01*
X020513Y009863D02*
X022460Y009863D01*
X024524Y009386D02*
X024645Y009386D01*
X024645Y009148D02*
X024524Y009148D01*
X024524Y008909D02*
X024645Y008909D01*
X024553Y008671D02*
X024822Y008671D01*
X024889Y008432D02*
X024580Y008432D01*
X024580Y008194D02*
X024889Y008194D01*
X024889Y007955D02*
X024484Y007955D01*
X024174Y007338D02*
X024262Y007300D01*
X024135Y006715D02*
X024200Y006600D01*
X024700Y006600D01*
X024832Y006059D02*
X024809Y006050D01*
X024591Y006050D01*
X024390Y006133D01*
X023864Y006133D01*
X023765Y006174D01*
X023730Y006209D01*
X023708Y006203D01*
X023465Y006203D01*
X023465Y006600D01*
X023465Y006524D02*
X023465Y006524D01*
X023465Y006286D02*
X023465Y006286D01*
X024135Y006600D02*
X024135Y006715D01*
X024099Y005525D02*
X023731Y005525D01*
X023391Y005384D01*
X023131Y005124D01*
X022990Y004784D01*
X022990Y004416D01*
X023131Y004076D01*
X023391Y003816D01*
X023731Y003675D01*
X024099Y003675D01*
X024439Y003816D01*
X024699Y004076D01*
X024840Y004416D01*
X024840Y004784D01*
X024699Y005124D01*
X024439Y005384D01*
X024099Y005525D01*
X024492Y005332D02*
X024872Y005332D01*
X024968Y005093D02*
X024712Y005093D01*
X024811Y004855D02*
X028189Y004855D01*
X028160Y004784D02*
X028301Y005124D01*
X028561Y005384D01*
X028901Y005525D01*
X029269Y005525D01*
X029609Y005384D01*
X029869Y005124D01*
X030010Y004784D01*
X030010Y004416D01*
X029869Y004076D01*
X029609Y003816D01*
X029269Y003675D01*
X028901Y003675D01*
X028561Y003816D01*
X028301Y004076D01*
X028160Y004416D01*
X028160Y004784D01*
X028160Y004616D02*
X024840Y004616D01*
X024824Y004378D02*
X028176Y004378D01*
X028275Y004139D02*
X024725Y004139D01*
X024524Y003901D02*
X028476Y003901D01*
X028288Y005093D02*
X028182Y005093D01*
X028240Y005332D02*
X028508Y005332D01*
X028240Y005570D02*
X032437Y005570D01*
X032405Y005809D02*
X028245Y005809D01*
X027681Y005958D02*
X027700Y006027D01*
X028240Y007955D02*
X030716Y007955D01*
X030620Y008194D02*
X028240Y008194D01*
X028240Y008432D02*
X030620Y008432D01*
X030525Y008671D02*
X028240Y008671D01*
X028255Y008909D02*
X030484Y008909D01*
X030484Y009148D02*
X028255Y009148D01*
X028255Y009386D02*
X030309Y009386D01*
X030121Y009625D02*
X028240Y009625D01*
X027681Y009119D02*
X027600Y009200D01*
X025505Y009200D02*
X025319Y009014D01*
X024684Y009625D02*
X024679Y009625D01*
X024740Y009863D02*
X030060Y009863D01*
X030091Y010102D02*
X024709Y010102D01*
X024565Y010340D02*
X030235Y010340D01*
X032124Y009386D02*
X032245Y009386D01*
X032245Y009148D02*
X032124Y009148D01*
X032124Y008909D02*
X032245Y008909D01*
X032153Y008671D02*
X032422Y008671D01*
X032510Y008432D02*
X032180Y008432D01*
X032180Y008194D02*
X032510Y008194D01*
X032510Y007955D02*
X032084Y007955D01*
X032969Y007019D02*
X033200Y007250D01*
X032300Y006600D02*
X031850Y006600D01*
X031735Y006715D01*
X031735Y006600D01*
X031990Y006133D02*
X031464Y006133D01*
X031365Y006174D01*
X031330Y006209D01*
X031308Y006203D01*
X031065Y006203D01*
X031065Y006600D01*
X031065Y006524D02*
X031065Y006524D01*
X031065Y006286D02*
X031065Y006286D01*
X031381Y005525D02*
X031041Y005384D01*
X030781Y005124D01*
X030640Y004784D01*
X030640Y004416D01*
X030781Y004076D01*
X031041Y003816D01*
X031381Y003675D01*
X031749Y003675D01*
X032089Y003816D01*
X032349Y004076D01*
X032490Y004416D01*
X032490Y004784D01*
X032349Y005124D01*
X032089Y005384D01*
X031749Y005525D01*
X031381Y005525D01*
X030988Y005332D02*
X029662Y005332D01*
X029882Y005093D02*
X030768Y005093D01*
X030669Y004855D02*
X029981Y004855D01*
X030010Y004616D02*
X030640Y004616D01*
X030656Y004378D02*
X029994Y004378D01*
X029895Y004139D02*
X030755Y004139D01*
X030956Y003901D02*
X029694Y003901D01*
X032174Y003901D02*
X036126Y003901D01*
X035925Y004139D02*
X032375Y004139D01*
X032474Y004378D02*
X035826Y004378D01*
X035810Y004616D02*
X032490Y004616D01*
X032461Y004855D02*
X035839Y004855D01*
X035782Y005093D02*
X035938Y005093D01*
X035840Y005332D02*
X036158Y005332D01*
X035331Y005958D02*
X035350Y006027D01*
X035330Y006360D01*
X035150Y007250D02*
X035200Y007300D01*
X035331Y009169D02*
X035330Y009169D01*
X035331Y009169D02*
X035300Y009200D01*
X033105Y009200D02*
X032969Y009064D01*
X032284Y009625D02*
X032279Y009625D01*
X031990Y006133D02*
X032191Y006050D01*
X032409Y006050D01*
X032497Y006086D01*
X032491Y006080D01*
X032510Y005332D02*
X032142Y005332D01*
X032362Y005093D02*
X032568Y005093D01*
X025949Y007250D02*
X025300Y007300D01*
X025300Y006027D01*
X025319Y005958D01*
X023338Y005332D02*
X022112Y005332D01*
X022332Y005093D02*
X023118Y005093D01*
X023019Y004855D02*
X022431Y004855D01*
X022460Y004616D02*
X022990Y004616D01*
X023006Y004378D02*
X022444Y004378D01*
X022345Y004139D02*
X023105Y004139D01*
X023306Y003901D02*
X022144Y003901D01*
X017950Y007250D02*
X017819Y007250D01*
X017769Y007300D01*
X017769Y009064D02*
X017905Y009200D01*
X020100Y009200D02*
X020131Y009169D01*
X020998Y013679D02*
X016902Y013679D01*
X016889Y013666D02*
X017149Y013926D01*
X017290Y014266D01*
X017290Y014634D01*
X017149Y014974D01*
X016889Y015234D01*
X016549Y015375D01*
X016181Y015375D01*
X015841Y015234D01*
X015581Y014974D01*
X015440Y014634D01*
X015440Y014266D01*
X015581Y013926D01*
X015841Y013666D01*
X016181Y013525D01*
X016549Y013525D01*
X016889Y013666D01*
X017141Y013918D02*
X020759Y013918D01*
X020656Y014156D02*
X017244Y014156D01*
X017290Y014395D02*
X020610Y014395D01*
X020610Y014633D02*
X017290Y014633D01*
X017192Y014872D02*
X020708Y014872D01*
X020640Y015110D02*
X020887Y015110D01*
X020640Y015349D02*
X021287Y015349D01*
X020131Y015808D02*
X020100Y015889D01*
X020100Y017100D01*
X019950Y017100D01*
X017950Y017100D02*
X017819Y017100D01*
X017769Y017150D01*
X017310Y017734D02*
X016550Y017734D01*
X016980Y017972D02*
X017310Y017972D01*
X017310Y018211D02*
X016980Y018211D01*
X016980Y018449D02*
X017310Y018449D01*
X017058Y018688D02*
X016924Y018688D01*
X016924Y018926D02*
X017045Y018926D01*
X017045Y019165D02*
X016924Y019165D01*
X017049Y019403D02*
X017054Y019403D01*
X017140Y019642D02*
X017352Y019642D01*
X017139Y019880D02*
X022461Y019880D01*
X022563Y020119D02*
X017037Y020119D01*
X017905Y019050D02*
X017769Y018914D01*
X016574Y017188D02*
X016612Y017150D01*
X016585Y016515D02*
X016650Y016450D01*
X017150Y016450D01*
X016585Y016450D02*
X016585Y016515D01*
X017247Y015826D02*
X013003Y015826D01*
X013045Y015587D02*
X017205Y015587D01*
X017266Y015349D02*
X016613Y015349D01*
X017013Y015110D02*
X017310Y015110D01*
X016117Y015349D02*
X014133Y015349D01*
X014069Y015375D02*
X013701Y015375D01*
X013361Y015234D01*
X013101Y014974D01*
X012960Y014634D01*
X012960Y014266D01*
X013101Y013926D01*
X013361Y013666D01*
X013701Y013525D01*
X014069Y013525D01*
X014409Y013666D01*
X014669Y013926D01*
X014810Y014266D01*
X014810Y014634D01*
X014669Y014974D01*
X014409Y015234D01*
X014069Y015375D01*
X013637Y015349D02*
X012990Y015349D01*
X012990Y015110D02*
X013237Y015110D01*
X013058Y014872D02*
X012826Y014872D01*
X012960Y014633D02*
X009640Y014633D01*
X009640Y014395D02*
X012960Y014395D01*
X013006Y014156D02*
X009594Y014156D01*
X009491Y013918D02*
X013109Y013918D01*
X013348Y013679D02*
X009252Y013679D01*
X008700Y014450D02*
X008700Y015513D01*
X008939Y015826D02*
X009597Y015826D01*
X009555Y015587D02*
X009090Y015587D01*
X009090Y015349D02*
X009616Y015349D01*
X009660Y015110D02*
X009363Y015110D01*
X009542Y014872D02*
X009824Y014872D01*
X010119Y015808D02*
X010150Y016008D01*
X009500Y016450D02*
X008935Y016450D01*
X008935Y016565D01*
X008265Y016450D02*
X008265Y016053D01*
X008265Y016303D02*
X008265Y016303D01*
X008461Y015826D02*
X007648Y015826D01*
X007800Y015587D02*
X008310Y015587D01*
X008310Y015349D02*
X007800Y015349D01*
X007800Y015110D02*
X008067Y015110D01*
X007888Y014872D02*
X007800Y014872D01*
X007800Y014156D02*
X007836Y014156D01*
X007800Y013918D02*
X007939Y013918D01*
X007800Y013679D02*
X008178Y013679D01*
X006932Y012067D02*
X006932Y012031D01*
X006435Y012031D01*
X006435Y011747D01*
X006449Y011696D01*
X006475Y011650D01*
X006512Y011613D01*
X006558Y011587D01*
X006609Y011573D01*
X006932Y011573D01*
X006932Y012031D01*
X006968Y012031D01*
X006968Y011573D01*
X007100Y011573D01*
X007100Y010950D01*
X000980Y010950D01*
X000980Y013700D01*
X001222Y013700D01*
X001238Y013684D01*
X001296Y013660D01*
X001251Y013638D01*
X001179Y013585D01*
X001115Y013521D01*
X001062Y013449D01*
X001022Y013369D01*
X000994Y013283D01*
X000980Y013195D01*
X000980Y013150D01*
X001550Y013150D01*
X002120Y013150D01*
X002120Y013195D01*
X002106Y013283D01*
X002078Y013369D01*
X002038Y013449D01*
X001985Y013521D01*
X001921Y013585D01*
X001849Y013638D01*
X001804Y013660D01*
X001862Y013684D01*
X001878Y013700D01*
X003504Y013700D01*
X003486Y013686D01*
X003406Y013606D01*
X003335Y013517D01*
X003275Y013421D01*
X003225Y013319D01*
X003188Y013212D01*
X003163Y013101D01*
X003157Y013051D01*
X004040Y013051D01*
X004040Y012811D01*
X004280Y012811D01*
X004280Y011929D01*
X004329Y011934D01*
X004440Y011959D01*
X004547Y011997D01*
X004649Y012046D01*
X004745Y012106D01*
X004834Y012177D01*
X004914Y012257D01*
X004985Y012346D01*
X005045Y012442D01*
X005095Y012544D01*
X005132Y012651D01*
X005157Y012762D01*
X005163Y012811D01*
X004280Y012811D01*
X004280Y013051D01*
X005156Y013051D01*
X005200Y013000D01*
X005900Y013000D01*
X005950Y012200D01*
X006435Y012221D01*
X006435Y012067D01*
X006932Y012067D01*
X006932Y012010D02*
X006968Y012010D01*
X006968Y011771D02*
X006932Y011771D01*
X007100Y011533D02*
X000980Y011533D01*
X000980Y011771D02*
X006435Y011771D01*
X006435Y012010D02*
X004573Y012010D01*
X004280Y012010D02*
X004040Y012010D01*
X004040Y011929D02*
X004040Y012811D01*
X003157Y012811D01*
X003163Y012762D01*
X003188Y012651D01*
X003225Y012544D01*
X003275Y012442D01*
X003335Y012346D01*
X003406Y012257D01*
X003486Y012177D01*
X003575Y012106D01*
X003671Y012046D01*
X003773Y011997D01*
X003880Y011959D01*
X003991Y011934D01*
X004040Y011929D01*
X003747Y012010D02*
X000980Y012010D01*
X000980Y012248D02*
X003415Y012248D01*
X003253Y012487D02*
X000980Y012487D01*
X000980Y012725D02*
X001169Y012725D01*
X001179Y012715D02*
X001251Y012662D01*
X001331Y012622D01*
X001417Y012594D01*
X001505Y012580D01*
X001550Y012580D01*
X001595Y012580D01*
X001683Y012594D01*
X001769Y012622D01*
X001849Y012662D01*
X001921Y012715D01*
X001985Y012779D01*
X002038Y012851D01*
X002078Y012931D01*
X002106Y013017D01*
X002120Y013105D01*
X002120Y013150D01*
X001550Y013150D01*
X001550Y013150D01*
X001550Y013150D01*
X001550Y012580D01*
X001550Y013150D01*
X001550Y013150D01*
X000980Y013150D01*
X000980Y013105D01*
X000994Y013017D01*
X001022Y012931D01*
X001062Y012851D01*
X001115Y012779D01*
X001179Y012715D01*
X001011Y012964D02*
X000980Y012964D01*
X000980Y013202D02*
X000981Y013202D01*
X000980Y013441D02*
X001058Y013441D01*
X000980Y013679D02*
X001250Y013679D01*
X001850Y013679D02*
X003479Y013679D01*
X003287Y013441D02*
X002042Y013441D01*
X002119Y013202D02*
X003186Y013202D01*
X003171Y012725D02*
X001931Y012725D01*
X002089Y012964D02*
X004040Y012964D01*
X004040Y012725D02*
X004280Y012725D01*
X004280Y012487D02*
X004040Y012487D01*
X004040Y012248D02*
X004280Y012248D01*
X004905Y012248D02*
X005947Y012248D01*
X005932Y012487D02*
X005067Y012487D01*
X005149Y012725D02*
X005917Y012725D01*
X005902Y012964D02*
X004280Y012964D01*
X001550Y012964D02*
X001550Y012964D01*
X001550Y012725D02*
X001550Y012725D01*
X000980Y011294D02*
X007100Y011294D01*
X007100Y011056D02*
X000980Y011056D01*
X005600Y007478D02*
X005600Y007478D01*
X008265Y006600D02*
X008265Y006203D01*
X008508Y006203D01*
X008530Y006209D01*
X008565Y006174D01*
X008664Y006133D01*
X008792Y006047D02*
X009627Y006047D01*
X009555Y005809D02*
X009062Y005809D01*
X009090Y005570D02*
X009587Y005570D01*
X009660Y005332D02*
X009292Y005332D01*
X009512Y005093D02*
X009718Y005093D01*
X010119Y005958D02*
X010150Y006158D01*
X009500Y006600D02*
X008935Y006600D01*
X008935Y006715D01*
X008265Y006524D02*
X008265Y006524D01*
X008265Y006286D02*
X008265Y006286D01*
X009284Y007955D02*
X009660Y007955D01*
X009660Y008194D02*
X009380Y008194D01*
X009380Y008432D02*
X009660Y008432D01*
X010150Y007338D02*
X010238Y007250D01*
X010350Y007250D01*
X012481Y005958D02*
X012500Y005977D01*
X014462Y005332D02*
X015788Y005332D01*
X015568Y005093D02*
X014682Y005093D01*
X014781Y004855D02*
X015469Y004855D01*
X015440Y004616D02*
X014810Y004616D01*
X014794Y004378D02*
X015456Y004378D01*
X015555Y004139D02*
X014695Y004139D01*
X014494Y003901D02*
X015756Y003901D01*
X015828Y013679D02*
X014422Y013679D01*
X014661Y013918D02*
X015589Y013918D01*
X015486Y014156D02*
X014764Y014156D01*
X014810Y014395D02*
X015440Y014395D01*
X015440Y014633D02*
X014810Y014633D01*
X014712Y014872D02*
X015538Y014872D01*
X015717Y015110D02*
X014533Y015110D01*
X015915Y016053D02*
X015915Y016450D01*
X015915Y016303D02*
X015915Y016303D01*
X012500Y015827D02*
X012500Y017100D01*
X012300Y017100D01*
X012500Y015827D02*
X012481Y015808D01*
X010350Y017100D02*
X010238Y017100D01*
X010150Y017188D01*
X009660Y017734D02*
X008950Y017734D01*
X009380Y017972D02*
X009660Y017972D01*
X009660Y018211D02*
X009380Y018211D01*
X009380Y018449D02*
X009660Y018449D01*
X009458Y018688D02*
X009324Y018688D01*
X009324Y018926D02*
X009445Y018926D01*
X009445Y019165D02*
X009324Y019165D01*
X009449Y019403D02*
X009454Y019403D01*
X009540Y019642D02*
X009752Y019642D01*
X009539Y019880D02*
X014861Y019880D01*
X014963Y020119D02*
X009437Y020119D01*
X010150Y019050D02*
X010305Y019050D01*
X007796Y018449D02*
X006025Y018449D01*
X006066Y018688D02*
X007684Y018688D01*
X007684Y018926D02*
X006066Y018926D01*
X005990Y019165D02*
X007641Y019165D01*
X007351Y019403D02*
X005637Y019403D01*
X005733Y019642D02*
X007260Y019642D01*
X007261Y019880D02*
X005721Y019880D01*
X005740Y019730D02*
X005170Y019730D01*
X005170Y019730D01*
X005740Y019730D01*
X005588Y020119D02*
X007363Y020119D01*
X007100Y020800D02*
X000980Y020800D01*
X000980Y023550D01*
X001222Y023550D01*
X001238Y023534D01*
X001296Y023510D01*
X001251Y023488D01*
X001179Y023435D01*
X001115Y023371D01*
X001062Y023299D01*
X001022Y023219D01*
X000980Y023219D01*
X001022Y023219D02*
X000994Y023133D01*
X000980Y023045D01*
X000980Y023000D01*
X001550Y023000D01*
X002120Y023000D01*
X002120Y023045D01*
X002106Y023133D01*
X002078Y023219D01*
X003250Y023219D01*
X003225Y023169D02*
X003188Y023062D01*
X003163Y022951D01*
X003157Y022901D01*
X004040Y022901D01*
X004040Y022661D01*
X004280Y022661D01*
X004280Y021779D01*
X004329Y021784D01*
X004440Y021809D01*
X004547Y021847D01*
X004649Y021896D01*
X004745Y021956D01*
X004834Y022027D01*
X004914Y022107D01*
X004985Y022196D01*
X005045Y022292D01*
X005095Y022394D01*
X005132Y022501D01*
X005157Y022612D01*
X005163Y022661D01*
X004280Y022661D01*
X004280Y022901D01*
X005156Y022901D01*
X005200Y022850D01*
X005900Y022850D01*
X005950Y022050D01*
X006435Y022071D01*
X006435Y021917D01*
X006932Y021917D01*
X006932Y021881D01*
X006435Y021881D01*
X006435Y021597D01*
X006449Y021546D01*
X006475Y021500D01*
X006512Y021463D01*
X006558Y021437D01*
X006609Y021423D01*
X006932Y021423D01*
X006932Y021881D01*
X006968Y021881D01*
X006968Y021423D01*
X007100Y021423D01*
X007100Y020800D01*
X007100Y020834D02*
X000980Y020834D01*
X000980Y021073D02*
X007100Y021073D01*
X007100Y021311D02*
X000980Y021311D01*
X000980Y021550D02*
X006448Y021550D01*
X006435Y021788D02*
X004346Y021788D01*
X004280Y021788D02*
X004040Y021788D01*
X004040Y021779D02*
X004040Y022661D01*
X003157Y022661D01*
X003163Y022612D01*
X003188Y022501D01*
X003225Y022394D01*
X003275Y022292D01*
X003335Y022196D01*
X003406Y022107D01*
X003486Y022027D01*
X003575Y021956D01*
X003671Y021896D01*
X003773Y021847D01*
X003880Y021809D01*
X003991Y021784D01*
X004040Y021779D01*
X003974Y021788D02*
X000980Y021788D01*
X000980Y022027D02*
X003487Y022027D01*
X003292Y022265D02*
X000980Y022265D01*
X000980Y022504D02*
X001269Y022504D01*
X001251Y022512D02*
X001331Y022472D01*
X001417Y022444D01*
X001505Y022430D01*
X001550Y022430D01*
X001595Y022430D01*
X001683Y022444D01*
X001769Y022472D01*
X001849Y022512D01*
X001921Y022565D01*
X001985Y022629D01*
X002038Y022701D01*
X002078Y022781D01*
X002106Y022867D01*
X002120Y022955D01*
X002120Y023000D01*
X001550Y023000D01*
X001550Y023000D01*
X001550Y023000D01*
X001550Y022430D01*
X001550Y023000D01*
X001550Y023000D01*
X000980Y023000D01*
X000980Y022955D01*
X000994Y022867D01*
X001022Y022781D01*
X001062Y022701D01*
X001115Y022629D01*
X001179Y022565D01*
X001251Y022512D01*
X001550Y022504D02*
X001550Y022504D01*
X001550Y022742D02*
X001550Y022742D01*
X001550Y022981D02*
X001550Y022981D01*
X001831Y022504D02*
X003187Y022504D01*
X003169Y022981D02*
X002120Y022981D01*
X002078Y023219D02*
X002038Y023299D01*
X001985Y023371D01*
X001921Y023435D01*
X001849Y023488D01*
X001804Y023510D01*
X001862Y023534D01*
X001878Y023550D01*
X003504Y023550D01*
X003486Y023536D01*
X003406Y023456D01*
X003335Y023367D01*
X003275Y023271D01*
X003225Y023169D01*
X003408Y023458D02*
X001890Y023458D01*
X001210Y023458D02*
X000980Y023458D01*
X000980Y022981D02*
X000980Y022981D01*
X000980Y022742D02*
X001042Y022742D01*
X002058Y022742D02*
X004040Y022742D01*
X004040Y022504D02*
X004280Y022504D01*
X004280Y022742D02*
X005907Y022742D01*
X005922Y022504D02*
X005133Y022504D01*
X005028Y022265D02*
X005937Y022265D01*
X006435Y022027D02*
X004833Y022027D01*
X004280Y022027D02*
X004040Y022027D01*
X004040Y022265D02*
X004280Y022265D01*
X006932Y021788D02*
X006968Y021788D01*
X006968Y021550D02*
X006932Y021550D01*
X006067Y018211D02*
X007820Y018211D01*
X007820Y017972D02*
X006067Y017972D01*
X005255Y017749D02*
X005233Y017715D01*
X005225Y017696D01*
X005211Y017720D01*
X005174Y017757D01*
X005128Y017783D01*
X005078Y017797D01*
X004835Y017797D01*
X004835Y017400D01*
X004835Y017003D01*
X004835Y017400D01*
X004835Y017400D01*
X004835Y017400D01*
X004835Y017797D01*
X004792Y017797D01*
X004786Y018449D01*
X004796Y018449D01*
X004851Y018394D01*
X004951Y018353D01*
X005135Y018353D01*
X005133Y018349D01*
X005133Y017942D01*
X005183Y017821D01*
X005255Y017749D01*
X005245Y017734D02*
X005197Y017734D01*
X005133Y017972D02*
X004790Y017972D01*
X004788Y018211D02*
X005133Y018211D01*
X004796Y018449D02*
X004786Y018449D01*
X004835Y017734D02*
X004835Y017734D01*
X004835Y017495D02*
X004835Y017495D01*
X004835Y017257D02*
X004835Y017257D01*
X004835Y017018D02*
X004835Y017018D01*
D27*
X008974Y017188D02*
X010150Y017188D01*
X010150Y019050D01*
X010150Y017188D02*
X010150Y016008D01*
X012481Y015808D02*
X012481Y019050D01*
X016612Y017150D02*
X017769Y017150D01*
X017769Y018914D01*
X017769Y017150D02*
X017769Y015808D01*
X020131Y015808D02*
X020131Y019019D01*
X024262Y017150D02*
X025300Y017150D01*
X025319Y015808D02*
X025319Y018864D01*
X027681Y018969D02*
X027681Y017000D01*
X027681Y015808D01*
X031774Y017188D02*
X031924Y017200D01*
X033000Y017200D01*
X033000Y017100D01*
X033200Y017100D01*
X032969Y016869D02*
X032969Y015808D01*
X032969Y016869D02*
X032969Y018914D01*
X035330Y019019D02*
X035330Y017050D01*
X035330Y016210D01*
X035330Y009169D02*
X035330Y007200D01*
X035330Y006360D01*
X033200Y007250D02*
X033000Y007250D01*
X033000Y007350D01*
X031924Y007350D01*
X031774Y007338D01*
X032969Y007019D02*
X032969Y005958D01*
X032969Y007019D02*
X032969Y009064D01*
X027681Y009119D02*
X027681Y007150D01*
X027681Y005958D01*
X025319Y005958D02*
X025319Y009014D01*
X025300Y007300D02*
X024262Y007300D01*
X020131Y005958D02*
X020131Y009169D01*
X017769Y009064D02*
X017769Y007300D01*
X016612Y007300D01*
X017769Y007300D02*
X017769Y005958D01*
X012481Y005958D02*
X012481Y009200D01*
X010150Y009200D02*
X010150Y007338D01*
X008974Y007338D01*
X010150Y007338D02*
X010150Y006158D01*
X012481Y025658D02*
X012481Y028900D01*
X010150Y028900D02*
X010150Y027038D01*
X008974Y027038D01*
X010150Y027038D02*
X010150Y025858D01*
X016612Y027000D02*
X017769Y027000D01*
X017769Y028764D01*
X017769Y027000D02*
X017769Y025658D01*
X020131Y025658D02*
X020131Y028869D01*
X024262Y027000D02*
X025300Y027000D01*
X025319Y025658D02*
X025319Y028714D01*
X027681Y028819D02*
X027681Y026850D01*
X027681Y025658D01*
X031774Y027038D02*
X031924Y027050D01*
X033000Y027050D01*
X033000Y026950D01*
X033200Y026950D01*
X032969Y026719D02*
X032969Y025658D01*
X032969Y026719D02*
X032969Y028764D01*
X035330Y028869D02*
X035330Y026900D01*
X035330Y026060D01*
X032969Y035508D02*
X032969Y036569D01*
X032969Y038614D01*
X033000Y036900D02*
X031924Y036900D01*
X031774Y036888D01*
X033000Y036900D02*
X033000Y036800D01*
X033200Y036800D01*
X035330Y036750D02*
X035330Y035910D01*
X035330Y036750D02*
X035330Y038719D01*
X027681Y038669D02*
X027681Y036700D01*
X027681Y035508D01*
X025319Y035508D02*
X025319Y038564D01*
X025300Y036850D02*
X024262Y036850D01*
X020131Y035508D02*
X020131Y038719D01*
X017769Y038614D02*
X017769Y036850D01*
X016612Y036850D01*
X017769Y036850D02*
X017769Y035508D01*
X012481Y035508D02*
X012481Y038750D01*
X010150Y038750D02*
X010150Y036888D01*
X008974Y036888D01*
X010150Y036888D02*
X010150Y035708D01*
D28*
X008935Y036265D02*
X008600Y036600D01*
X008600Y037908D01*
X008600Y038428D01*
X008578Y038550D01*
X008200Y038550D02*
X008200Y037934D01*
X008226Y037908D01*
X008200Y038550D02*
X008122Y038550D01*
X008122Y039150D01*
X007900Y039450D01*
X008900Y039450D02*
X008974Y039324D01*
X008974Y037908D01*
X005600Y037845D02*
X005600Y038422D01*
X005628Y038500D01*
X005172Y038500D02*
X004800Y038500D01*
X004200Y039050D01*
X004200Y039400D01*
X004170Y039430D01*
X004165Y037100D02*
X004150Y037085D01*
X004170Y029580D02*
X004200Y029550D01*
X004200Y029200D01*
X004800Y028650D01*
X005172Y028650D01*
X005600Y028572D02*
X005628Y028650D01*
X005600Y028572D02*
X005600Y027995D01*
X004165Y027250D02*
X004150Y027235D01*
X007900Y029600D02*
X008122Y029300D01*
X008122Y028700D01*
X008200Y028700D01*
X008200Y028084D01*
X008226Y028058D01*
X008600Y028058D02*
X008600Y028578D01*
X008578Y028700D01*
X008600Y028058D02*
X008600Y026750D01*
X008935Y026415D01*
X008974Y028058D02*
X008974Y029474D01*
X008900Y029600D01*
X015500Y029600D02*
X015722Y029278D01*
X015722Y028700D01*
X015800Y028672D01*
X015800Y028084D01*
X015826Y028058D01*
X016200Y028058D02*
X016200Y028728D01*
X016178Y028700D01*
X016200Y028058D02*
X016200Y026750D01*
X016585Y026365D01*
X016574Y028058D02*
X016574Y029474D01*
X016500Y029600D01*
X019795Y028900D02*
X020100Y028900D01*
X023100Y029600D02*
X023322Y029278D01*
X023322Y028700D01*
X023400Y028522D01*
X023400Y028084D01*
X023426Y028058D01*
X023778Y028080D02*
X023778Y028700D01*
X023778Y028080D02*
X023800Y028058D01*
X023800Y026750D01*
X024135Y026415D01*
X024174Y028058D02*
X024174Y029474D01*
X024100Y029600D01*
X027395Y028900D02*
X027600Y028900D01*
X027581Y026950D02*
X027500Y026950D01*
X027581Y026950D02*
X027598Y026948D01*
X027615Y026944D01*
X027631Y026937D01*
X027645Y026927D01*
X027658Y026914D01*
X027668Y026900D01*
X027675Y026884D01*
X027679Y026867D01*
X027681Y026850D01*
X031000Y028084D02*
X031000Y028522D01*
X030922Y028700D01*
X030922Y029278D01*
X030700Y029600D01*
X031700Y029600D02*
X031774Y029526D01*
X031774Y028058D01*
X031400Y028058D02*
X031378Y028080D01*
X031378Y028700D01*
X031400Y028058D02*
X031400Y026750D01*
X031735Y026415D01*
X031026Y028058D02*
X031000Y028084D01*
X034995Y028900D02*
X035300Y028900D01*
X035280Y026950D02*
X035150Y026950D01*
X035280Y026950D02*
X035293Y026948D01*
X035305Y026943D01*
X035315Y026935D01*
X035323Y026925D01*
X035328Y026913D01*
X035330Y026900D01*
X031700Y019750D02*
X031774Y019676D01*
X031774Y018208D01*
X031400Y018208D02*
X031378Y018230D01*
X031378Y018850D01*
X031000Y018672D02*
X031000Y018234D01*
X031026Y018208D01*
X031400Y018208D02*
X031400Y016900D01*
X031735Y016565D01*
X031000Y018672D02*
X030922Y018850D01*
X030922Y019428D01*
X030700Y019750D01*
X027600Y019050D02*
X027395Y019050D01*
X027500Y017100D02*
X027581Y017100D01*
X027598Y017098D01*
X027615Y017094D01*
X027631Y017087D01*
X027645Y017077D01*
X027658Y017064D01*
X027668Y017050D01*
X027675Y017034D01*
X027679Y017017D01*
X027681Y017000D01*
X024174Y018208D02*
X024174Y019624D01*
X024100Y019750D01*
X023322Y019428D02*
X023322Y018850D01*
X023400Y018672D01*
X023400Y018234D01*
X023426Y018208D01*
X023778Y018230D02*
X023778Y018850D01*
X023778Y018230D02*
X023800Y018208D01*
X023800Y016900D01*
X024135Y016565D01*
X023322Y019428D02*
X023100Y019750D01*
X020100Y019050D02*
X019795Y019050D01*
X016574Y019624D02*
X016574Y018208D01*
X016200Y018208D02*
X016200Y018878D01*
X016178Y018850D01*
X015800Y018822D02*
X015800Y018234D01*
X015826Y018208D01*
X016200Y018208D02*
X016200Y016900D01*
X016585Y016515D01*
X015800Y018822D02*
X015722Y018850D01*
X015722Y019428D01*
X015500Y019750D01*
X016500Y019750D02*
X016574Y019624D01*
X008974Y019624D02*
X008974Y018208D01*
X008600Y018208D02*
X008600Y018728D01*
X008578Y018850D01*
X008200Y018850D02*
X008200Y018234D01*
X008226Y018208D01*
X008600Y018208D02*
X008600Y016900D01*
X008935Y016565D01*
X008200Y018850D02*
X008122Y018850D01*
X008122Y019450D01*
X007900Y019750D01*
X008900Y019750D02*
X008974Y019624D01*
X005628Y018800D02*
X005600Y018722D01*
X005600Y018145D01*
X005172Y018800D02*
X004800Y018800D01*
X004200Y019350D01*
X004200Y019700D01*
X004170Y019730D01*
X004165Y017400D02*
X004150Y017385D01*
X004170Y009880D02*
X004200Y009850D01*
X004200Y009500D01*
X004800Y008950D01*
X005172Y008950D01*
X005600Y008872D02*
X005628Y008950D01*
X005600Y008872D02*
X005600Y008295D01*
X004165Y007550D02*
X004150Y007535D01*
X007900Y009900D02*
X008122Y009600D01*
X008122Y009000D01*
X008200Y009000D01*
X008200Y008384D01*
X008226Y008358D01*
X008600Y008358D02*
X008600Y008878D01*
X008578Y009000D01*
X008600Y008358D02*
X008600Y007050D01*
X008935Y006715D01*
X008974Y008358D02*
X008974Y009774D01*
X008900Y009900D01*
X015500Y009900D02*
X015722Y009578D01*
X015722Y009000D01*
X015800Y008972D01*
X015800Y008384D01*
X015826Y008358D01*
X016200Y008358D02*
X016200Y009028D01*
X016178Y009000D01*
X016200Y008358D02*
X016200Y007050D01*
X016585Y006665D01*
X016574Y008358D02*
X016574Y009774D01*
X016500Y009900D01*
X019795Y009200D02*
X020100Y009200D01*
X023100Y009900D02*
X023322Y009578D01*
X023322Y009000D01*
X023400Y008822D01*
X023400Y008384D01*
X023426Y008358D01*
X023778Y008380D02*
X023778Y009000D01*
X023778Y008380D02*
X023800Y008358D01*
X023800Y007050D01*
X024135Y006715D01*
X024174Y008358D02*
X024174Y009774D01*
X024100Y009900D01*
X027395Y009200D02*
X027600Y009200D01*
X027581Y007250D02*
X027500Y007250D01*
X027581Y007250D02*
X027598Y007248D01*
X027615Y007244D01*
X027631Y007237D01*
X027645Y007227D01*
X027658Y007214D01*
X027668Y007200D01*
X027675Y007184D01*
X027679Y007167D01*
X027681Y007150D01*
X031000Y008384D02*
X031000Y008822D01*
X030922Y009000D01*
X030922Y009578D01*
X030700Y009900D01*
X031700Y009900D02*
X031774Y009826D01*
X031774Y008358D01*
X031400Y008358D02*
X031378Y008380D01*
X031378Y009000D01*
X031400Y008358D02*
X031400Y007050D01*
X031735Y006715D01*
X031026Y008358D02*
X031000Y008384D01*
X034995Y009200D02*
X035300Y009200D01*
X035280Y007250D02*
X035150Y007250D01*
X035280Y007250D02*
X035293Y007248D01*
X035305Y007243D01*
X035315Y007235D01*
X035323Y007225D01*
X035328Y007213D01*
X035330Y007200D01*
X035330Y017050D02*
X035328Y017063D01*
X035323Y017075D01*
X035315Y017085D01*
X035305Y017093D01*
X035293Y017098D01*
X035280Y017100D01*
X035150Y017100D01*
X035300Y019050D02*
X034995Y019050D01*
X031735Y036265D02*
X031400Y036600D01*
X031400Y037908D01*
X031378Y037930D01*
X031378Y038550D01*
X031000Y038372D02*
X031000Y037934D01*
X031026Y037908D01*
X031000Y038372D02*
X030922Y038550D01*
X030922Y039128D01*
X030700Y039450D01*
X031700Y039450D02*
X031774Y039376D01*
X031774Y037908D01*
X034995Y038750D02*
X035300Y038750D01*
X035280Y036800D02*
X035150Y036800D01*
X035280Y036800D02*
X035293Y036798D01*
X035305Y036793D01*
X035315Y036785D01*
X035323Y036775D01*
X035328Y036763D01*
X035330Y036750D01*
X027681Y036700D02*
X027679Y036717D01*
X027675Y036734D01*
X027668Y036750D01*
X027658Y036764D01*
X027645Y036777D01*
X027631Y036787D01*
X027615Y036794D01*
X027598Y036798D01*
X027581Y036800D01*
X027500Y036800D01*
X027600Y038750D02*
X027395Y038750D01*
X024174Y039324D02*
X024174Y037908D01*
X023800Y037908D02*
X023778Y037930D01*
X023778Y038550D01*
X023400Y038372D02*
X023400Y037934D01*
X023426Y037908D01*
X023800Y037908D02*
X023800Y036600D01*
X024135Y036265D01*
X023400Y038372D02*
X023322Y038550D01*
X023322Y039128D01*
X023100Y039450D01*
X024100Y039450D02*
X024174Y039324D01*
X020100Y038750D02*
X019795Y038750D01*
X016574Y039324D02*
X016574Y037908D01*
X016200Y037908D02*
X016200Y038578D01*
X016178Y038550D01*
X015800Y038522D02*
X015800Y037934D01*
X015826Y037908D01*
X016200Y037908D02*
X016200Y036600D01*
X016585Y036215D01*
X015800Y038522D02*
X015722Y038550D01*
X015722Y039128D01*
X015500Y039450D01*
X016500Y039450D02*
X016574Y039324D01*
D29*
X017150Y036150D03*
X020650Y036800D03*
X024700Y036150D03*
X028200Y036800D03*
X032300Y036150D03*
X035850Y036850D03*
X035850Y027000D03*
X032300Y026300D03*
X028200Y026950D03*
X024700Y026300D03*
X020650Y026950D03*
X017150Y026300D03*
X013000Y026950D03*
X009500Y026300D03*
X013000Y017100D03*
X009500Y016450D03*
X017150Y016450D03*
X020650Y017100D03*
X024700Y016450D03*
X028200Y017100D03*
X032300Y016450D03*
X035850Y017150D03*
X035850Y007300D03*
X032300Y006600D03*
X028200Y007250D03*
X024700Y006600D03*
X020650Y007250D03*
X017150Y006600D03*
X013000Y007250D03*
X009500Y006600D03*
X009500Y036150D03*
X013000Y036800D03*
D30*
X012480Y035310D03*
X011700Y035310D03*
X010900Y035310D03*
X010120Y035310D03*
X017770Y035310D03*
X018550Y035310D03*
X019350Y035310D03*
X020130Y035310D03*
X025320Y035310D03*
X026100Y035310D03*
X026900Y035310D03*
X027680Y035310D03*
X032970Y035310D03*
X033750Y035310D03*
X034550Y035310D03*
X035330Y035310D03*
X035330Y025460D03*
X034550Y025460D03*
X033750Y025460D03*
X032970Y025460D03*
X027680Y025460D03*
X026900Y025460D03*
X026100Y025460D03*
X025320Y025460D03*
X020130Y025460D03*
X019350Y025460D03*
X018550Y025460D03*
X017770Y025460D03*
X012480Y025460D03*
X011700Y025460D03*
X010900Y025460D03*
X010120Y025460D03*
X010120Y015610D03*
X010900Y015610D03*
X011700Y015610D03*
X012480Y015610D03*
X017770Y015610D03*
X018550Y015610D03*
X019350Y015610D03*
X020130Y015610D03*
X025320Y015610D03*
X026100Y015610D03*
X026900Y015610D03*
X027680Y015610D03*
X032970Y015610D03*
X033750Y015610D03*
X034550Y015610D03*
X035330Y015610D03*
X035330Y005760D03*
X034550Y005760D03*
X033750Y005760D03*
X032970Y005760D03*
X027680Y005760D03*
X026900Y005760D03*
X026100Y005760D03*
X025320Y005760D03*
X020130Y005760D03*
X019350Y005760D03*
X018550Y005760D03*
X017770Y005760D03*
X012480Y005760D03*
X011700Y005760D03*
X010900Y005760D03*
X010120Y005760D03*
D31*
X004165Y005979D02*
X004150Y005964D01*
X004165Y005979D02*
X004165Y007550D01*
X004150Y007535D02*
X004150Y008700D01*
X003800Y009050D01*
X002500Y009050D01*
X001550Y006825D02*
X001600Y006775D01*
X004150Y015814D02*
X004165Y015829D01*
X004165Y017400D01*
X004150Y017385D02*
X004150Y018550D01*
X003800Y018900D01*
X002500Y018900D01*
X001550Y016675D02*
X001600Y016625D01*
X004150Y025664D02*
X004165Y025679D01*
X004165Y027250D01*
X004150Y027235D02*
X004150Y028400D01*
X003800Y028750D01*
X002500Y028750D01*
X001550Y026525D02*
X001600Y026475D01*
X004150Y035514D02*
X004165Y035529D01*
X004165Y037100D01*
X004150Y037085D02*
X004150Y038250D01*
X003800Y038600D01*
X002500Y038600D01*
X001550Y036375D02*
X001600Y036325D01*
D32*
X001610Y036315D02*
X001610Y035881D01*
X001942Y035881D01*
X001978Y035890D01*
X002010Y035909D01*
X002036Y035935D01*
X002054Y035967D01*
X002064Y036002D01*
X002064Y036315D01*
X001610Y036315D01*
X001490Y036315D01*
X001490Y035881D01*
X001158Y035881D01*
X001122Y035890D01*
X001090Y035909D01*
X001064Y035935D01*
X001046Y035967D01*
X001036Y036002D01*
X001036Y036315D01*
X001490Y036315D01*
X001490Y036435D01*
X001036Y036435D01*
X001036Y036650D01*
X000950Y036650D01*
X000950Y035150D01*
X001350Y035150D01*
X002400Y034100D01*
X004694Y034100D01*
X004693Y034103D01*
X004682Y034203D01*
X005571Y034203D01*
X005571Y034323D01*
X004682Y034323D01*
X004693Y034422D01*
X004699Y034450D01*
X003350Y034450D01*
X003150Y034650D01*
X002750Y035000D01*
X002750Y036700D01*
X002250Y036700D01*
X002064Y036514D01*
X002064Y036435D01*
X001610Y036435D01*
X001610Y036315D01*
X001610Y036350D02*
X002750Y036350D01*
X002750Y036232D02*
X002064Y036232D01*
X002064Y036113D02*
X002750Y036113D01*
X002750Y035995D02*
X002062Y035995D01*
X001610Y035995D02*
X001490Y035995D01*
X001490Y036113D02*
X001610Y036113D01*
X001610Y036232D02*
X001490Y036232D01*
X001490Y036350D02*
X000950Y036350D01*
X000950Y036232D02*
X001036Y036232D01*
X001036Y036113D02*
X000950Y036113D01*
X000950Y035995D02*
X001038Y035995D01*
X000950Y035876D02*
X002750Y035876D01*
X002750Y035758D02*
X000950Y035758D01*
X000950Y035639D02*
X002750Y035639D01*
X002750Y035521D02*
X000950Y035521D01*
X000950Y035402D02*
X002750Y035402D01*
X002750Y035284D02*
X000950Y035284D01*
X000950Y035165D02*
X002750Y035165D01*
X002750Y035047D02*
X001453Y035047D01*
X001572Y034928D02*
X002832Y034928D01*
X002968Y034810D02*
X001690Y034810D01*
X001809Y034691D02*
X003103Y034691D01*
X003227Y034573D02*
X001927Y034573D01*
X002046Y034454D02*
X003346Y034454D01*
X003181Y035450D02*
X003150Y035450D01*
X003150Y038700D01*
X003850Y038700D01*
X004300Y038300D01*
X004300Y037437D01*
X004204Y037437D01*
X004204Y037138D01*
X004127Y037138D01*
X004127Y037062D01*
X003809Y037062D01*
X003809Y036885D01*
X003818Y036849D01*
X003837Y036817D01*
X003863Y036791D01*
X003895Y036773D01*
X003930Y036763D01*
X004127Y036763D01*
X004127Y037062D01*
X004204Y037062D01*
X004204Y036763D01*
X004300Y036763D01*
X004300Y036473D01*
X004210Y036483D01*
X004210Y035574D01*
X004090Y035574D01*
X004090Y036483D01*
X003987Y036471D01*
X003881Y036447D01*
X003778Y036411D01*
X003680Y036364D01*
X003588Y036306D01*
X003503Y036238D01*
X003426Y036161D01*
X003358Y036076D01*
X003300Y035984D01*
X003252Y035885D01*
X003217Y035783D01*
X003192Y035676D01*
X003181Y035574D01*
X004090Y035574D01*
X004090Y035454D01*
X003181Y035454D01*
X003181Y035450D01*
X003150Y035521D02*
X004090Y035521D01*
X004090Y035639D02*
X004210Y035639D01*
X004210Y035758D02*
X004090Y035758D01*
X004090Y035876D02*
X004210Y035876D01*
X004210Y035995D02*
X004090Y035995D01*
X004090Y036113D02*
X004210Y036113D01*
X004210Y036232D02*
X004090Y036232D01*
X004090Y036350D02*
X004210Y036350D01*
X004210Y036469D02*
X004090Y036469D01*
X003975Y036469D02*
X003150Y036469D01*
X003150Y036587D02*
X004300Y036587D01*
X004300Y036706D02*
X003150Y036706D01*
X003150Y036824D02*
X003833Y036824D01*
X003809Y036943D02*
X003150Y036943D01*
X003150Y037061D02*
X003809Y037061D01*
X003809Y037138D02*
X004127Y037138D01*
X004127Y037437D01*
X003930Y037437D01*
X003895Y037427D01*
X003863Y037409D01*
X003837Y037383D01*
X003818Y037351D01*
X003809Y037315D01*
X003809Y037138D01*
X003809Y037180D02*
X003150Y037180D01*
X003150Y037298D02*
X003809Y037298D01*
X003876Y037417D02*
X003150Y037417D01*
X003150Y037535D02*
X004300Y037535D01*
X004300Y037654D02*
X003150Y037654D01*
X003150Y037772D02*
X004300Y037772D01*
X004300Y037891D02*
X003150Y037891D01*
X003150Y038009D02*
X004300Y038009D01*
X004300Y038128D02*
X003150Y038128D01*
X003150Y038246D02*
X004300Y038246D01*
X004227Y038365D02*
X003150Y038365D01*
X003150Y038483D02*
X004094Y038483D01*
X003961Y038602D02*
X003150Y038602D01*
X004127Y037417D02*
X004204Y037417D01*
X004204Y037298D02*
X004127Y037298D01*
X004127Y037180D02*
X004204Y037180D01*
X004204Y037061D02*
X004127Y037061D01*
X004127Y036943D02*
X004204Y036943D01*
X004204Y036824D02*
X004127Y036824D01*
X003658Y036350D02*
X003150Y036350D01*
X003150Y036232D02*
X003496Y036232D01*
X003387Y036113D02*
X003150Y036113D01*
X003150Y035995D02*
X003307Y035995D01*
X003249Y035876D02*
X003150Y035876D01*
X003150Y035758D02*
X003211Y035758D01*
X003188Y035639D02*
X003150Y035639D01*
X002750Y036469D02*
X002064Y036469D01*
X002137Y036587D02*
X002750Y036587D01*
X001036Y036587D02*
X000950Y036587D01*
X000950Y036469D02*
X001036Y036469D01*
X002164Y034336D02*
X004683Y034336D01*
X005571Y034217D02*
X002283Y034217D01*
X003150Y028850D02*
X003850Y028850D01*
X004300Y028450D01*
X004300Y027587D01*
X004204Y027587D01*
X004204Y027288D01*
X004127Y027288D01*
X004127Y027212D01*
X003809Y027212D01*
X003809Y027035D01*
X003818Y026999D01*
X003837Y026967D01*
X003863Y026941D01*
X003895Y026923D01*
X003930Y026913D01*
X004127Y026913D01*
X004127Y027212D01*
X004204Y027212D01*
X004204Y026913D01*
X004300Y026913D01*
X004300Y026623D01*
X004210Y026633D01*
X004210Y025724D01*
X004090Y025724D01*
X004090Y026633D01*
X003987Y026621D01*
X003881Y026597D01*
X003778Y026561D01*
X003680Y026514D01*
X003588Y026456D01*
X003503Y026388D01*
X003426Y026311D01*
X003358Y026226D01*
X003300Y026134D01*
X003252Y026035D01*
X003217Y025933D01*
X003192Y025826D01*
X003181Y025724D01*
X004090Y025724D01*
X004090Y025604D01*
X003181Y025604D01*
X003181Y025600D01*
X003150Y025600D01*
X003150Y028850D01*
X003150Y028766D02*
X003944Y028766D01*
X004078Y028648D02*
X003150Y028648D01*
X003150Y028529D02*
X004211Y028529D01*
X004300Y028411D02*
X003150Y028411D01*
X003150Y028292D02*
X004300Y028292D01*
X004300Y028174D02*
X003150Y028174D01*
X003150Y028055D02*
X004300Y028055D01*
X004300Y027937D02*
X003150Y027937D01*
X003150Y027818D02*
X004300Y027818D01*
X004300Y027700D02*
X003150Y027700D01*
X003150Y027581D02*
X003909Y027581D01*
X003895Y027577D02*
X003863Y027559D01*
X003837Y027533D01*
X003818Y027501D01*
X003809Y027465D01*
X003809Y027288D01*
X004127Y027288D01*
X004127Y027587D01*
X003930Y027587D01*
X003895Y027577D01*
X003809Y027463D02*
X003150Y027463D01*
X003150Y027344D02*
X003809Y027344D01*
X003809Y027107D02*
X003150Y027107D01*
X003150Y026989D02*
X003824Y026989D01*
X004127Y026989D02*
X004204Y026989D01*
X004204Y027107D02*
X004127Y027107D01*
X004127Y027226D02*
X003150Y027226D01*
X003150Y026870D02*
X004300Y026870D01*
X004300Y026752D02*
X003150Y026752D01*
X003150Y026633D02*
X004300Y026633D01*
X004210Y026515D02*
X004090Y026515D01*
X004090Y026396D02*
X004210Y026396D01*
X004210Y026278D02*
X004090Y026278D01*
X004090Y026159D02*
X004210Y026159D01*
X004210Y026041D02*
X004090Y026041D01*
X004090Y025922D02*
X004210Y025922D01*
X004210Y025804D02*
X004090Y025804D01*
X004090Y025685D02*
X003150Y025685D01*
X003150Y025804D02*
X003190Y025804D01*
X003214Y025922D02*
X003150Y025922D01*
X003150Y026041D02*
X003255Y026041D01*
X003316Y026159D02*
X003150Y026159D01*
X003150Y026278D02*
X003399Y026278D01*
X003513Y026396D02*
X003150Y026396D01*
X003150Y026515D02*
X003681Y026515D01*
X002750Y026515D02*
X001610Y026515D01*
X001610Y026465D02*
X001610Y026585D01*
X002064Y026585D01*
X002064Y026664D01*
X002250Y026850D01*
X002750Y026850D01*
X002750Y025150D01*
X003150Y024800D01*
X003350Y024600D01*
X004699Y024600D01*
X004693Y024572D01*
X004682Y024473D01*
X005571Y024473D01*
X005571Y024353D01*
X004682Y024353D01*
X004693Y024253D01*
X004694Y024250D01*
X002400Y024250D01*
X001350Y025300D01*
X000950Y025300D01*
X000950Y026800D01*
X001036Y026800D01*
X001036Y026585D01*
X001490Y026585D01*
X001490Y026465D01*
X001610Y026465D01*
X001610Y026031D01*
X001942Y026031D01*
X001978Y026040D01*
X002010Y026059D01*
X002036Y026085D01*
X002054Y026117D01*
X002064Y026152D01*
X002064Y026465D01*
X001610Y026465D01*
X001610Y026396D02*
X001490Y026396D01*
X001490Y026465D02*
X001490Y026031D01*
X001158Y026031D01*
X001122Y026040D01*
X001090Y026059D01*
X001064Y026085D01*
X001046Y026117D01*
X001036Y026152D01*
X001036Y026465D01*
X001490Y026465D01*
X001490Y026515D02*
X000950Y026515D01*
X000950Y026633D02*
X001036Y026633D01*
X001036Y026752D02*
X000950Y026752D01*
X000950Y026396D02*
X001036Y026396D01*
X001036Y026278D02*
X000950Y026278D01*
X000950Y026159D02*
X001036Y026159D01*
X000950Y026041D02*
X001122Y026041D01*
X000950Y025922D02*
X002750Y025922D01*
X002750Y025804D02*
X000950Y025804D01*
X000950Y025685D02*
X002750Y025685D01*
X002750Y025567D02*
X000950Y025567D01*
X000950Y025448D02*
X002750Y025448D01*
X002750Y025330D02*
X000950Y025330D01*
X001439Y025211D02*
X002750Y025211D01*
X002816Y025093D02*
X001557Y025093D01*
X001676Y024974D02*
X002951Y024974D01*
X003087Y024856D02*
X001794Y024856D01*
X001913Y024737D02*
X003213Y024737D01*
X003331Y024619D02*
X002031Y024619D01*
X002150Y024500D02*
X004685Y024500D01*
X004692Y024263D02*
X002387Y024263D01*
X002268Y024382D02*
X005571Y024382D01*
X004204Y027344D02*
X004127Y027344D01*
X004127Y027463D02*
X004204Y027463D01*
X004204Y027581D02*
X004127Y027581D01*
X002750Y026752D02*
X002152Y026752D01*
X002064Y026633D02*
X002750Y026633D01*
X002750Y026396D02*
X002064Y026396D01*
X002064Y026278D02*
X002750Y026278D01*
X002750Y026159D02*
X002064Y026159D01*
X001978Y026041D02*
X002750Y026041D01*
X001610Y026041D02*
X001490Y026041D01*
X001490Y026159D02*
X001610Y026159D01*
X001610Y026278D02*
X001490Y026278D01*
X003150Y019000D02*
X003850Y019000D01*
X004300Y018600D01*
X004300Y017737D01*
X004204Y017737D01*
X004204Y017438D01*
X004127Y017438D01*
X004127Y017362D01*
X003809Y017362D01*
X003809Y017185D01*
X003818Y017149D01*
X003837Y017117D01*
X003863Y017091D01*
X003895Y017073D01*
X003930Y017063D01*
X004127Y017063D01*
X004127Y017362D01*
X004204Y017362D01*
X004204Y017063D01*
X004300Y017063D01*
X004300Y016773D01*
X004210Y016783D01*
X004210Y015874D01*
X004090Y015874D01*
X004090Y016783D01*
X003987Y016771D01*
X003881Y016747D01*
X003778Y016711D01*
X003680Y016664D01*
X003588Y016606D01*
X003503Y016538D01*
X003426Y016461D01*
X003358Y016376D01*
X003300Y016284D01*
X003252Y016185D01*
X003217Y016083D01*
X003192Y015976D01*
X003181Y015874D01*
X004090Y015874D01*
X004090Y015754D01*
X003181Y015754D01*
X003181Y015750D01*
X003150Y015750D01*
X003150Y019000D01*
X003150Y018931D02*
X003928Y018931D01*
X004061Y018812D02*
X003150Y018812D01*
X003150Y018694D02*
X004195Y018694D01*
X004300Y018575D02*
X003150Y018575D01*
X003150Y018457D02*
X004300Y018457D01*
X004300Y018338D02*
X003150Y018338D01*
X003150Y018220D02*
X004300Y018220D01*
X004300Y018101D02*
X003150Y018101D01*
X003150Y017983D02*
X004300Y017983D01*
X004300Y017864D02*
X003150Y017864D01*
X003150Y017746D02*
X004300Y017746D01*
X004204Y017627D02*
X004127Y017627D01*
X004127Y017737D02*
X003930Y017737D01*
X003895Y017727D01*
X003863Y017709D01*
X003837Y017683D01*
X003818Y017651D01*
X003809Y017615D01*
X003809Y017438D01*
X004127Y017438D01*
X004127Y017737D01*
X004127Y017509D02*
X004204Y017509D01*
X004127Y017390D02*
X003150Y017390D01*
X003150Y017272D02*
X003809Y017272D01*
X003817Y017153D02*
X003150Y017153D01*
X003150Y017035D02*
X004300Y017035D01*
X004300Y016916D02*
X003150Y016916D01*
X003150Y016798D02*
X004300Y016798D01*
X004210Y016679D02*
X004090Y016679D01*
X004090Y016561D02*
X004210Y016561D01*
X004210Y016442D02*
X004090Y016442D01*
X004090Y016324D02*
X004210Y016324D01*
X004210Y016205D02*
X004090Y016205D01*
X004090Y016087D02*
X004210Y016087D01*
X004210Y015968D02*
X004090Y015968D01*
X004090Y015850D02*
X003150Y015850D01*
X003150Y015968D02*
X003191Y015968D01*
X003218Y016087D02*
X003150Y016087D01*
X003150Y016205D02*
X003262Y016205D01*
X003325Y016324D02*
X003150Y016324D01*
X003150Y016442D02*
X003411Y016442D01*
X003531Y016561D02*
X003150Y016561D01*
X003150Y016679D02*
X003711Y016679D01*
X004127Y017153D02*
X004204Y017153D01*
X004204Y017272D02*
X004127Y017272D01*
X003809Y017509D02*
X003150Y017509D01*
X003150Y017627D02*
X003812Y017627D01*
X002750Y017000D02*
X002750Y015300D01*
X003150Y014950D01*
X003350Y014750D01*
X004699Y014750D01*
X004693Y014722D01*
X004682Y014623D01*
X005571Y014623D01*
X005571Y014503D01*
X004682Y014503D01*
X004693Y014403D01*
X004694Y014400D01*
X002400Y014400D01*
X001350Y015450D01*
X000950Y015450D01*
X000950Y016950D01*
X001036Y016950D01*
X001036Y016735D01*
X001490Y016735D01*
X001490Y016615D01*
X001610Y016615D01*
X001610Y016181D01*
X001942Y016181D01*
X001978Y016190D01*
X002010Y016209D01*
X002036Y016235D01*
X002054Y016267D01*
X002064Y016302D01*
X002064Y016615D01*
X001610Y016615D01*
X001610Y016735D01*
X002064Y016735D01*
X002064Y016814D01*
X002250Y017000D01*
X002750Y017000D01*
X002750Y016916D02*
X002166Y016916D01*
X002064Y016798D02*
X002750Y016798D01*
X002750Y016679D02*
X001610Y016679D01*
X001610Y016561D02*
X001490Y016561D01*
X001490Y016615D02*
X001490Y016181D01*
X001158Y016181D01*
X001122Y016190D01*
X001090Y016209D01*
X001064Y016235D01*
X001046Y016267D01*
X001036Y016302D01*
X001036Y016615D01*
X001490Y016615D01*
X001490Y016679D02*
X000950Y016679D01*
X000950Y016561D02*
X001036Y016561D01*
X001036Y016442D02*
X000950Y016442D01*
X000950Y016324D02*
X001036Y016324D01*
X001097Y016205D02*
X000950Y016205D01*
X000950Y016087D02*
X002750Y016087D01*
X002750Y016205D02*
X002003Y016205D01*
X002064Y016324D02*
X002750Y016324D01*
X002750Y016442D02*
X002064Y016442D01*
X002064Y016561D02*
X002750Y016561D01*
X002750Y015968D02*
X000950Y015968D01*
X000950Y015850D02*
X002750Y015850D01*
X002750Y015731D02*
X000950Y015731D01*
X000950Y015613D02*
X002750Y015613D01*
X002750Y015494D02*
X000950Y015494D01*
X001424Y015376D02*
X002750Y015376D01*
X002799Y015257D02*
X001543Y015257D01*
X001661Y015139D02*
X002935Y015139D01*
X003070Y015020D02*
X001780Y015020D01*
X001898Y014902D02*
X003198Y014902D01*
X003317Y014783D02*
X002017Y014783D01*
X002135Y014665D02*
X004686Y014665D01*
X004690Y014428D02*
X002372Y014428D01*
X002254Y014546D02*
X005571Y014546D01*
X001610Y016205D02*
X001490Y016205D01*
X001490Y016324D02*
X001610Y016324D01*
X001610Y016442D02*
X001490Y016442D01*
X001036Y016798D02*
X000950Y016798D01*
X000950Y016916D02*
X001036Y016916D01*
X003150Y009150D02*
X003850Y009150D01*
X004300Y008750D01*
X004300Y007887D01*
X004204Y007887D01*
X004204Y007588D01*
X004127Y007588D01*
X004127Y007512D01*
X003809Y007512D01*
X003809Y007335D01*
X003818Y007299D01*
X003837Y007267D01*
X003863Y007241D01*
X003895Y007223D01*
X003930Y007213D01*
X004127Y007213D01*
X004127Y007512D01*
X004204Y007512D01*
X004204Y007213D01*
X004300Y007213D01*
X004300Y006923D01*
X004210Y006933D01*
X004210Y006024D01*
X004090Y006024D01*
X004090Y006933D01*
X003987Y006921D01*
X003881Y006897D01*
X003778Y006861D01*
X003680Y006814D01*
X003588Y006756D01*
X003503Y006688D01*
X003426Y006611D01*
X003358Y006526D01*
X003300Y006434D01*
X003252Y006335D01*
X003217Y006233D01*
X003192Y006126D01*
X003181Y006024D01*
X004090Y006024D01*
X004090Y005904D01*
X003181Y005904D01*
X003181Y005900D01*
X003150Y005900D01*
X003150Y009150D01*
X003150Y009095D02*
X003912Y009095D01*
X004045Y008977D02*
X003150Y008977D01*
X003150Y008858D02*
X004178Y008858D01*
X004300Y008740D02*
X003150Y008740D01*
X003150Y008621D02*
X004300Y008621D01*
X004300Y008503D02*
X003150Y008503D01*
X003150Y008384D02*
X004300Y008384D01*
X004300Y008266D02*
X003150Y008266D01*
X003150Y008147D02*
X004300Y008147D01*
X004300Y008029D02*
X003150Y008029D01*
X003150Y007910D02*
X004300Y007910D01*
X004204Y007792D02*
X004127Y007792D01*
X004127Y007887D02*
X003930Y007887D01*
X003895Y007877D01*
X003863Y007859D01*
X003837Y007833D01*
X003818Y007801D01*
X003809Y007765D01*
X003809Y007588D01*
X004127Y007588D01*
X004127Y007887D01*
X004127Y007673D02*
X004204Y007673D01*
X004127Y007555D02*
X003150Y007555D01*
X003150Y007673D02*
X003809Y007673D01*
X003816Y007792D02*
X003150Y007792D01*
X003150Y007436D02*
X003809Y007436D01*
X003813Y007318D02*
X003150Y007318D01*
X003150Y007199D02*
X004300Y007199D01*
X004300Y007081D02*
X003150Y007081D01*
X003150Y006962D02*
X004300Y006962D01*
X004210Y006844D02*
X004090Y006844D01*
X004090Y006725D02*
X004210Y006725D01*
X004210Y006607D02*
X004090Y006607D01*
X004090Y006488D02*
X004210Y006488D01*
X004210Y006370D02*
X004090Y006370D01*
X004090Y006251D02*
X004210Y006251D01*
X004210Y006133D02*
X004090Y006133D01*
X004090Y006014D02*
X003150Y006014D01*
X003150Y006133D02*
X003194Y006133D01*
X003223Y006251D02*
X003150Y006251D01*
X003150Y006370D02*
X003269Y006370D01*
X003334Y006488D02*
X003150Y006488D01*
X003150Y006607D02*
X003422Y006607D01*
X003549Y006725D02*
X003150Y006725D01*
X003150Y006844D02*
X003742Y006844D01*
X004127Y007318D02*
X004204Y007318D01*
X004204Y007436D02*
X004127Y007436D01*
X002750Y007150D02*
X002750Y005450D01*
X003150Y005100D01*
X003350Y004900D01*
X004699Y004900D01*
X004693Y004872D01*
X004682Y004773D01*
X005571Y004773D01*
X005571Y004653D01*
X004682Y004653D01*
X004693Y004553D01*
X004694Y004550D01*
X002400Y004550D01*
X001350Y005600D01*
X000950Y005600D01*
X000950Y007100D01*
X001036Y007100D01*
X001036Y006885D01*
X001490Y006885D01*
X001490Y006765D01*
X001610Y006765D01*
X001610Y006331D01*
X001942Y006331D01*
X001978Y006340D01*
X002010Y006359D01*
X002036Y006385D01*
X002054Y006417D01*
X002064Y006452D01*
X002064Y006765D01*
X001610Y006765D01*
X001610Y006885D01*
X002064Y006885D01*
X002064Y006964D01*
X002250Y007150D01*
X002750Y007150D01*
X002750Y007081D02*
X002181Y007081D01*
X002064Y006962D02*
X002750Y006962D01*
X002750Y006844D02*
X001610Y006844D01*
X001610Y006725D02*
X001490Y006725D01*
X001490Y006765D02*
X001490Y006331D01*
X001158Y006331D01*
X001122Y006340D01*
X001090Y006359D01*
X001064Y006385D01*
X001046Y006417D01*
X001036Y006452D01*
X001036Y006765D01*
X001490Y006765D01*
X001490Y006844D02*
X000950Y006844D01*
X000950Y006962D02*
X001036Y006962D01*
X001036Y007081D02*
X000950Y007081D01*
X000950Y006725D02*
X001036Y006725D01*
X001036Y006607D02*
X000950Y006607D01*
X000950Y006488D02*
X001036Y006488D01*
X001079Y006370D02*
X000950Y006370D01*
X000950Y006251D02*
X002750Y006251D01*
X002750Y006133D02*
X000950Y006133D01*
X000950Y006014D02*
X002750Y006014D01*
X002750Y005896D02*
X000950Y005896D01*
X000950Y005777D02*
X002750Y005777D01*
X002750Y005659D02*
X000950Y005659D01*
X001410Y005540D02*
X002750Y005540D01*
X002783Y005422D02*
X001528Y005422D01*
X001647Y005303D02*
X002918Y005303D01*
X003053Y005185D02*
X001765Y005185D01*
X001884Y005066D02*
X003184Y005066D01*
X003302Y004948D02*
X002002Y004948D01*
X002121Y004829D02*
X004688Y004829D01*
X004689Y004592D02*
X002358Y004592D01*
X002239Y004711D02*
X005571Y004711D01*
X002750Y006370D02*
X002021Y006370D01*
X002064Y006488D02*
X002750Y006488D01*
X002750Y006607D02*
X002064Y006607D01*
X002064Y006725D02*
X002750Y006725D01*
X001610Y006607D02*
X001490Y006607D01*
X001490Y006488D02*
X001610Y006488D01*
X001610Y006370D02*
X001490Y006370D01*
M02*
