G75*
G70*
%OFA0B0*%
%FSLAX24Y24*%
%IPPOS*%
%LPD*%
%AMOC8*
5,1,8,0,0,1.08239X$1,22.5*
%
%ADD10R,0.0450X0.1300*%
%ADD11C,0.1390*%
%ADD12C,0.1740*%
%ADD13C,0.1700*%
%ADD14C,0.0059*%
%ADD15C,0.0820*%
%ADD16C,0.0640*%
%ADD17C,0.0671*%
D10*
X010125Y005960D03*
X010905Y005960D03*
X011695Y005960D03*
X012475Y005970D03*
X017775Y005960D03*
X018555Y005960D03*
X019345Y005960D03*
X020135Y005960D03*
X025325Y005960D03*
X026105Y005960D03*
X026895Y005960D03*
X027685Y005960D03*
X032975Y005960D03*
X033755Y005960D03*
X034545Y005960D03*
X035335Y005960D03*
X035335Y015810D03*
X034545Y015810D03*
X033755Y015810D03*
X032975Y015810D03*
X027685Y015810D03*
X026895Y015810D03*
X026105Y015810D03*
X025325Y015810D03*
X020135Y015810D03*
X019345Y015810D03*
X018555Y015810D03*
X017775Y015810D03*
X012475Y015820D03*
X011695Y015810D03*
X010905Y015810D03*
X010125Y015810D03*
X010125Y025660D03*
X010905Y025660D03*
X011695Y025660D03*
X012475Y025670D03*
X017775Y025660D03*
X018555Y025660D03*
X019345Y025660D03*
X020135Y025660D03*
X025325Y025660D03*
X026105Y025660D03*
X026895Y025660D03*
X027685Y025660D03*
X032975Y025660D03*
X033755Y025660D03*
X034545Y025660D03*
X035335Y025660D03*
X035335Y035510D03*
X034545Y035510D03*
X033755Y035510D03*
X032975Y035510D03*
X027685Y035510D03*
X026895Y035510D03*
X026105Y035510D03*
X025325Y035510D03*
X020135Y035510D03*
X019345Y035510D03*
X018555Y035510D03*
X017775Y035510D03*
X012475Y035520D03*
X011695Y035510D03*
X010905Y035510D03*
X010125Y035510D03*
D11*
X008715Y034150D03*
X013885Y034150D03*
X016365Y034150D03*
X021535Y034150D03*
X023915Y034150D03*
X029085Y034150D03*
X031565Y034150D03*
X036735Y034150D03*
X036735Y024300D03*
X031565Y024300D03*
X029085Y024300D03*
X023915Y024300D03*
X021535Y024300D03*
X016365Y024300D03*
X013885Y024300D03*
X008715Y024300D03*
X008715Y014450D03*
X013885Y014450D03*
X016365Y014450D03*
X021535Y014450D03*
X023915Y014450D03*
X029085Y014450D03*
X031565Y014450D03*
X036735Y014450D03*
X036735Y004600D03*
X031565Y004600D03*
X029085Y004600D03*
X023915Y004600D03*
X021535Y004600D03*
X016365Y004600D03*
X013885Y004600D03*
X008715Y004600D03*
D12*
X004150Y005964D03*
X004150Y015814D03*
X004150Y025664D03*
X004150Y035514D03*
D13*
X005631Y034263D03*
X004160Y032631D03*
X005631Y024413D03*
X004160Y022781D03*
X005631Y014563D03*
X004160Y012931D03*
X005631Y004713D03*
X004160Y003081D03*
D14*
X035783Y009001D02*
X035783Y009241D01*
X036100Y009273D01*
X036134Y009380D01*
X036186Y009480D01*
X035984Y009727D01*
X036153Y009897D01*
X036401Y009695D01*
X036501Y009746D01*
X036607Y009781D01*
X036639Y010098D01*
X036879Y010098D01*
X036912Y009781D01*
X037018Y009746D01*
X037118Y009695D01*
X037365Y009897D01*
X037535Y009727D01*
X037333Y009480D01*
X037385Y009380D01*
X037419Y009273D01*
X037736Y009241D01*
X037736Y009001D01*
X037419Y008969D01*
X037385Y008862D01*
X037333Y008763D01*
X037535Y008515D01*
X037365Y008346D01*
X037118Y008547D01*
X037018Y008496D01*
X036877Y008837D01*
X036930Y008866D01*
X036977Y008904D01*
X037015Y008950D01*
X037044Y009004D01*
X037061Y009061D01*
X037067Y009121D01*
X037061Y009184D01*
X037041Y009244D01*
X037010Y009299D01*
X036969Y009347D01*
X036918Y009385D01*
X036861Y009412D01*
X036800Y009426D01*
X036736Y009428D01*
X036674Y009417D01*
X036616Y009393D01*
X036563Y009358D01*
X036519Y009313D01*
X036485Y009260D01*
X036462Y009201D01*
X036452Y009139D01*
X036455Y009075D01*
X036471Y009014D01*
X036499Y008958D01*
X036538Y008908D01*
X036586Y008867D01*
X036642Y008837D01*
X036500Y008496D01*
X036401Y008547D01*
X036153Y008346D01*
X035984Y008515D01*
X036186Y008763D01*
X036134Y008862D01*
X036100Y008969D01*
X035783Y009001D01*
X035783Y009030D02*
X036467Y009030D01*
X036455Y009088D02*
X035783Y009088D01*
X035783Y009146D02*
X036453Y009146D01*
X036463Y009203D02*
X035783Y009203D01*
X035974Y009261D02*
X036485Y009261D01*
X036524Y009318D02*
X036114Y009318D01*
X036133Y009376D02*
X036590Y009376D01*
X036930Y009376D02*
X037386Y009376D01*
X037404Y009318D02*
X036994Y009318D01*
X037032Y009261D02*
X037545Y009261D01*
X037736Y009203D02*
X037055Y009203D01*
X037065Y009146D02*
X037736Y009146D01*
X037736Y009088D02*
X037064Y009088D01*
X037052Y009030D02*
X037736Y009030D01*
X037456Y008973D02*
X037027Y008973D01*
X036986Y008915D02*
X037402Y008915D01*
X037382Y008858D02*
X036916Y008858D01*
X036892Y008800D02*
X037353Y008800D01*
X037350Y008743D02*
X036916Y008743D01*
X036940Y008685D02*
X037397Y008685D01*
X037444Y008628D02*
X036964Y008628D01*
X036988Y008570D02*
X037490Y008570D01*
X037532Y008512D02*
X037161Y008512D01*
X037232Y008455D02*
X037475Y008455D01*
X037417Y008397D02*
X037302Y008397D01*
X037050Y008512D02*
X037012Y008512D01*
X036579Y008685D02*
X036122Y008685D01*
X036075Y008628D02*
X036555Y008628D01*
X036531Y008570D02*
X036028Y008570D01*
X035987Y008512D02*
X036358Y008512D01*
X036287Y008455D02*
X036044Y008455D01*
X036102Y008397D02*
X036217Y008397D01*
X036469Y008512D02*
X036507Y008512D01*
X036603Y008743D02*
X036169Y008743D01*
X036166Y008800D02*
X036626Y008800D01*
X036604Y008858D02*
X036137Y008858D01*
X036117Y008915D02*
X036532Y008915D01*
X036491Y008973D02*
X036063Y008973D01*
X036162Y009433D02*
X037357Y009433D01*
X037342Y009491D02*
X036177Y009491D01*
X036130Y009548D02*
X037389Y009548D01*
X037436Y009606D02*
X036083Y009606D01*
X036036Y009664D02*
X037483Y009664D01*
X037530Y009721D02*
X037150Y009721D01*
X037068Y009721D02*
X036451Y009721D01*
X036369Y009721D02*
X035989Y009721D01*
X036035Y009779D02*
X036298Y009779D01*
X036228Y009836D02*
X036093Y009836D01*
X036150Y009894D02*
X036157Y009894D01*
X036601Y009779D02*
X036918Y009779D01*
X036906Y009836D02*
X036613Y009836D01*
X036619Y009894D02*
X036900Y009894D01*
X036894Y009951D02*
X036625Y009951D01*
X036630Y010009D02*
X036888Y010009D01*
X036883Y010066D02*
X036636Y010066D01*
X037220Y009779D02*
X037484Y009779D01*
X037426Y009836D02*
X037291Y009836D01*
X037362Y009894D02*
X037369Y009894D01*
X037365Y018196D02*
X037118Y018397D01*
X037018Y018346D01*
X036877Y018687D01*
X036930Y018716D01*
X036977Y018754D01*
X037015Y018800D01*
X037044Y018854D01*
X037061Y018911D01*
X037067Y018971D01*
X037061Y019034D01*
X037041Y019094D01*
X037010Y019149D01*
X036969Y019197D01*
X036918Y019235D01*
X036861Y019262D01*
X036800Y019276D01*
X036736Y019278D01*
X036674Y019267D01*
X036616Y019243D01*
X036563Y019208D01*
X036519Y019163D01*
X036485Y019110D01*
X036462Y019051D01*
X036452Y018989D01*
X036455Y018925D01*
X036471Y018864D01*
X036499Y018808D01*
X036538Y018758D01*
X036586Y018717D01*
X036642Y018687D01*
X036500Y018346D01*
X036401Y018397D01*
X036153Y018196D01*
X035984Y018365D01*
X036186Y018613D01*
X036134Y018712D01*
X036100Y018819D01*
X035783Y018851D01*
X035783Y019091D01*
X036100Y019123D01*
X036134Y019230D01*
X036186Y019330D01*
X035984Y019577D01*
X036153Y019747D01*
X036401Y019545D01*
X036501Y019596D01*
X036607Y019631D01*
X036639Y019948D01*
X036879Y019948D01*
X036912Y019631D01*
X037018Y019596D01*
X037118Y019545D01*
X037365Y019747D01*
X037535Y019577D01*
X037333Y019330D01*
X037385Y019230D01*
X037419Y019123D01*
X037736Y019091D01*
X037736Y018851D01*
X037419Y018819D01*
X037385Y018712D01*
X037333Y018613D01*
X037535Y018365D01*
X037365Y018196D01*
X037409Y018239D02*
X037312Y018239D01*
X037241Y018297D02*
X037467Y018297D01*
X037524Y018354D02*
X037171Y018354D01*
X037035Y018354D02*
X037015Y018354D01*
X036991Y018412D02*
X037497Y018412D01*
X037450Y018469D02*
X036967Y018469D01*
X036943Y018527D02*
X037403Y018527D01*
X037356Y018585D02*
X036920Y018585D01*
X036896Y018642D02*
X037348Y018642D01*
X037378Y018700D02*
X036901Y018700D01*
X036980Y018757D02*
X037399Y018757D01*
X037417Y018815D02*
X037023Y018815D01*
X037049Y018872D02*
X037736Y018872D01*
X037736Y018930D02*
X037063Y018930D01*
X037065Y018987D02*
X037736Y018987D01*
X037736Y019045D02*
X037057Y019045D01*
X037037Y019103D02*
X037624Y019103D01*
X037407Y019160D02*
X037001Y019160D01*
X036941Y019218D02*
X037389Y019218D01*
X037361Y019275D02*
X036804Y019275D01*
X036721Y019275D02*
X036157Y019275D01*
X036130Y019218D02*
X036578Y019218D01*
X036517Y019160D02*
X036112Y019160D01*
X036183Y019333D02*
X037336Y019333D01*
X037383Y019390D02*
X036136Y019390D01*
X036089Y019448D02*
X037430Y019448D01*
X037477Y019505D02*
X036042Y019505D01*
X035995Y019563D02*
X036379Y019563D01*
X036436Y019563D02*
X037083Y019563D01*
X037140Y019563D02*
X037523Y019563D01*
X037492Y019621D02*
X037211Y019621D01*
X037281Y019678D02*
X037434Y019678D01*
X037377Y019736D02*
X037352Y019736D01*
X036943Y019621D02*
X036576Y019621D01*
X036612Y019678D02*
X036907Y019678D01*
X036901Y019736D02*
X036618Y019736D01*
X036624Y019793D02*
X036895Y019793D01*
X036889Y019851D02*
X036630Y019851D01*
X036635Y019908D02*
X036883Y019908D01*
X036308Y019621D02*
X036027Y019621D01*
X036085Y019678D02*
X036238Y019678D01*
X036167Y019736D02*
X036142Y019736D01*
X035895Y019103D02*
X036482Y019103D01*
X036461Y019045D02*
X035783Y019045D01*
X035783Y018987D02*
X036452Y018987D01*
X036455Y018930D02*
X035783Y018930D01*
X035783Y018872D02*
X036469Y018872D01*
X036495Y018815D02*
X036101Y018815D01*
X036120Y018757D02*
X036539Y018757D01*
X036618Y018700D02*
X036141Y018700D01*
X036170Y018642D02*
X036623Y018642D01*
X036599Y018585D02*
X036163Y018585D01*
X036116Y018527D02*
X036575Y018527D01*
X036552Y018469D02*
X036069Y018469D01*
X036022Y018412D02*
X036528Y018412D01*
X036504Y018354D02*
X036484Y018354D01*
X036348Y018354D02*
X035995Y018354D01*
X036052Y018297D02*
X036278Y018297D01*
X036207Y018239D02*
X036110Y018239D01*
X036153Y028046D02*
X035984Y028215D01*
X036186Y028463D01*
X036134Y028562D01*
X036100Y028669D01*
X035783Y028701D01*
X035783Y028941D01*
X036100Y028973D01*
X036134Y029080D01*
X036186Y029180D01*
X035984Y029427D01*
X036153Y029597D01*
X036401Y029395D01*
X036501Y029446D01*
X036607Y029481D01*
X036639Y029798D01*
X036879Y029798D01*
X036912Y029481D01*
X037018Y029446D01*
X037118Y029395D01*
X037365Y029597D01*
X037535Y029427D01*
X037333Y029180D01*
X037385Y029080D01*
X037419Y028973D01*
X037736Y028941D01*
X037736Y028701D01*
X037419Y028669D01*
X037385Y028562D01*
X037333Y028463D01*
X037535Y028215D01*
X037365Y028046D01*
X037118Y028247D01*
X037018Y028196D01*
X036877Y028537D01*
X036930Y028566D01*
X036977Y028604D01*
X037015Y028650D01*
X037044Y028704D01*
X037061Y028761D01*
X037067Y028821D01*
X037061Y028884D01*
X037041Y028944D01*
X037010Y028999D01*
X036969Y029047D01*
X036918Y029085D01*
X036861Y029112D01*
X036800Y029126D01*
X036736Y029128D01*
X036674Y029117D01*
X036616Y029093D01*
X036563Y029058D01*
X036519Y029013D01*
X036485Y028960D01*
X036462Y028901D01*
X036452Y028839D01*
X036455Y028775D01*
X036471Y028714D01*
X036499Y028658D01*
X036538Y028608D01*
X036586Y028567D01*
X036642Y028537D01*
X036500Y028196D01*
X036501Y028196D01*
X036500Y028196D02*
X036401Y028247D01*
X036153Y028046D01*
X036118Y028081D02*
X036197Y028081D01*
X036268Y028139D02*
X036060Y028139D01*
X036003Y028196D02*
X036338Y028196D01*
X036524Y028254D02*
X036015Y028254D01*
X036062Y028311D02*
X036548Y028311D01*
X036572Y028369D02*
X036109Y028369D01*
X036156Y028427D02*
X036596Y028427D01*
X036620Y028484D02*
X036175Y028484D01*
X036145Y028542D02*
X036633Y028542D01*
X036548Y028599D02*
X036122Y028599D01*
X036104Y028657D02*
X036500Y028657D01*
X036471Y028714D02*
X035783Y028714D01*
X035783Y028772D02*
X036456Y028772D01*
X036453Y028829D02*
X035783Y028829D01*
X035783Y028887D02*
X036460Y028887D01*
X036479Y028945D02*
X035816Y028945D01*
X036109Y029002D02*
X036512Y029002D01*
X036566Y029060D02*
X036128Y029060D01*
X036153Y029117D02*
X036677Y029117D01*
X036837Y029117D02*
X037366Y029117D01*
X037391Y029060D02*
X036951Y029060D01*
X037008Y029002D02*
X037410Y029002D01*
X037336Y029175D02*
X036183Y029175D01*
X036143Y029232D02*
X037376Y029232D01*
X037423Y029290D02*
X036096Y029290D01*
X036049Y029347D02*
X037470Y029347D01*
X037517Y029405D02*
X037130Y029405D01*
X037099Y029405D02*
X036420Y029405D01*
X036389Y029405D02*
X036002Y029405D01*
X036019Y029463D02*
X036318Y029463D01*
X036248Y029520D02*
X036077Y029520D01*
X036134Y029578D02*
X036177Y029578D01*
X036551Y029463D02*
X036968Y029463D01*
X036908Y029520D02*
X036611Y029520D01*
X036617Y029578D02*
X036902Y029578D01*
X036896Y029635D02*
X036623Y029635D01*
X036629Y029693D02*
X036890Y029693D01*
X036884Y029750D02*
X036635Y029750D01*
X037201Y029463D02*
X037500Y029463D01*
X037442Y029520D02*
X037271Y029520D01*
X037342Y029578D02*
X037385Y029578D01*
X037703Y028945D02*
X037041Y028945D01*
X037060Y028887D02*
X037736Y028887D01*
X037736Y028829D02*
X037066Y028829D01*
X037062Y028772D02*
X037736Y028772D01*
X037736Y028714D02*
X037047Y028714D01*
X037019Y028657D02*
X037415Y028657D01*
X037396Y028599D02*
X036971Y028599D01*
X036886Y028542D02*
X037374Y028542D01*
X037344Y028484D02*
X036899Y028484D01*
X036923Y028427D02*
X037363Y028427D01*
X037410Y028369D02*
X036947Y028369D01*
X036971Y028311D02*
X037457Y028311D01*
X037504Y028254D02*
X036994Y028254D01*
X037018Y028196D02*
X037019Y028196D01*
X037181Y028196D02*
X037516Y028196D01*
X037459Y028139D02*
X037251Y028139D01*
X037322Y028081D02*
X037401Y028081D01*
X037365Y037896D02*
X037118Y038097D01*
X037018Y038046D01*
X036877Y038387D01*
X036930Y038416D01*
X036977Y038454D01*
X037015Y038500D01*
X037044Y038554D01*
X037061Y038611D01*
X037067Y038671D01*
X037061Y038734D01*
X037041Y038794D01*
X037010Y038849D01*
X036969Y038897D01*
X036918Y038935D01*
X036861Y038962D01*
X036800Y038976D01*
X036736Y038978D01*
X036674Y038967D01*
X036616Y038943D01*
X036563Y038908D01*
X036519Y038863D01*
X036485Y038810D01*
X036462Y038751D01*
X036452Y038689D01*
X036455Y038625D01*
X036471Y038564D01*
X036499Y038508D01*
X036538Y038458D01*
X036586Y038417D01*
X036642Y038387D01*
X036500Y038046D01*
X036401Y038097D01*
X036153Y037896D01*
X035984Y038065D01*
X036186Y038313D01*
X036134Y038412D01*
X036100Y038519D01*
X035783Y038551D01*
X035783Y038791D01*
X036100Y038823D01*
X036134Y038930D01*
X036186Y039030D01*
X035984Y039277D01*
X036153Y039447D01*
X036401Y039245D01*
X036501Y039296D01*
X036607Y039331D01*
X036639Y039648D01*
X036879Y039648D01*
X036912Y039331D01*
X037018Y039296D01*
X037118Y039245D01*
X037365Y039447D01*
X037535Y039277D01*
X037333Y039030D01*
X037385Y038930D01*
X037419Y038823D01*
X037736Y038791D01*
X037736Y038551D01*
X037419Y038519D01*
X037385Y038412D01*
X037333Y038313D01*
X037535Y038065D01*
X037365Y037896D01*
X037393Y037923D02*
X037332Y037923D01*
X037261Y037981D02*
X037451Y037981D01*
X037508Y038038D02*
X037190Y038038D01*
X037120Y038096D02*
X037510Y038096D01*
X037463Y038153D02*
X036974Y038153D01*
X036998Y038096D02*
X037115Y038096D01*
X036950Y038211D02*
X037416Y038211D01*
X037369Y038269D02*
X036926Y038269D01*
X036902Y038326D02*
X037340Y038326D01*
X037370Y038384D02*
X036879Y038384D01*
X036962Y038441D02*
X037394Y038441D01*
X037412Y038499D02*
X037014Y038499D01*
X037044Y038556D02*
X037736Y038556D01*
X037736Y038614D02*
X037061Y038614D01*
X037067Y038671D02*
X037736Y038671D01*
X037736Y038729D02*
X037061Y038729D01*
X037044Y038787D02*
X037736Y038787D01*
X037412Y038844D02*
X037013Y038844D01*
X036962Y038902D02*
X037394Y038902D01*
X037370Y038959D02*
X036866Y038959D01*
X036655Y038959D02*
X036149Y038959D01*
X036125Y038902D02*
X036557Y038902D01*
X036507Y038844D02*
X036107Y038844D01*
X036179Y039017D02*
X037340Y039017D01*
X037370Y039074D02*
X036149Y039074D01*
X036102Y039132D02*
X037417Y039132D01*
X037463Y039189D02*
X036055Y039189D01*
X036009Y039247D02*
X036399Y039247D01*
X036404Y039247D02*
X037114Y039247D01*
X037120Y039247D02*
X037510Y039247D01*
X037508Y039305D02*
X037191Y039305D01*
X037261Y039362D02*
X037450Y039362D01*
X037393Y039420D02*
X037332Y039420D01*
X036993Y039305D02*
X036526Y039305D01*
X036610Y039362D02*
X036908Y039362D01*
X036903Y039420D02*
X036616Y039420D01*
X036622Y039477D02*
X036897Y039477D01*
X036891Y039535D02*
X036628Y039535D01*
X036634Y039592D02*
X036885Y039592D01*
X036328Y039305D02*
X036011Y039305D01*
X036069Y039362D02*
X036257Y039362D01*
X036187Y039420D02*
X036126Y039420D01*
X035783Y038787D02*
X036476Y038787D01*
X036459Y038729D02*
X035783Y038729D01*
X035783Y038671D02*
X036453Y038671D01*
X036458Y038614D02*
X035783Y038614D01*
X035783Y038556D02*
X036475Y038556D01*
X036506Y038499D02*
X036107Y038499D01*
X036125Y038441D02*
X036558Y038441D01*
X036640Y038384D02*
X036149Y038384D01*
X036179Y038326D02*
X036616Y038326D01*
X036593Y038269D02*
X036150Y038269D01*
X036103Y038211D02*
X036569Y038211D01*
X036545Y038153D02*
X036056Y038153D01*
X036009Y038096D02*
X036399Y038096D01*
X036404Y038096D02*
X036521Y038096D01*
X036328Y038038D02*
X036011Y038038D01*
X036068Y037981D02*
X036258Y037981D01*
X036187Y037923D02*
X036126Y037923D01*
D15*
X001550Y003300D03*
X001550Y004300D03*
X004170Y009880D03*
X005170Y009880D03*
X007900Y009900D03*
X008900Y009900D03*
X015500Y009900D03*
X016500Y009900D03*
X023100Y009900D03*
X024100Y009900D03*
X030700Y009900D03*
X031700Y009900D03*
X031700Y019750D03*
X030700Y019750D03*
X024100Y019750D03*
X023100Y019750D03*
X016500Y019750D03*
X015500Y019750D03*
X008900Y019750D03*
X007900Y019750D03*
X005170Y019730D03*
X004170Y019730D03*
X001550Y023000D03*
X001550Y024000D03*
X004170Y029580D03*
X005170Y029580D03*
X007900Y029600D03*
X008900Y029600D03*
X015500Y029600D03*
X016500Y029600D03*
X023100Y029600D03*
X024100Y029600D03*
X030700Y029600D03*
X031700Y029600D03*
X031700Y039450D03*
X030700Y039450D03*
X024100Y039450D03*
X023100Y039450D03*
X016500Y039450D03*
X015500Y039450D03*
X008900Y039450D03*
X007900Y039450D03*
X005170Y039430D03*
X004170Y039430D03*
X001550Y033850D03*
X001550Y032850D03*
X001550Y014150D03*
X001550Y013150D03*
D16*
X009500Y016450D03*
X013000Y017100D03*
X017150Y016450D03*
X020650Y017100D03*
X024700Y016450D03*
X028200Y017100D03*
X032300Y016450D03*
X035850Y017150D03*
X032300Y026300D03*
X035850Y027000D03*
X028200Y026950D03*
X024700Y026300D03*
X020650Y026950D03*
X017150Y026300D03*
X013000Y026950D03*
X009500Y026300D03*
X009500Y036150D03*
X013000Y036800D03*
X017150Y036150D03*
X020650Y036800D03*
X024700Y036150D03*
X028200Y036800D03*
X032300Y036150D03*
X035850Y036850D03*
X035850Y007300D03*
X032300Y006600D03*
X028200Y007250D03*
X024700Y006600D03*
X020650Y007250D03*
X017150Y006600D03*
X013000Y007250D03*
X009500Y006600D03*
D17*
X010120Y005760D03*
X010900Y005760D03*
X011700Y005760D03*
X012480Y005760D03*
X017770Y005760D03*
X018550Y005760D03*
X019350Y005760D03*
X020130Y005760D03*
X025320Y005760D03*
X026100Y005760D03*
X026900Y005760D03*
X027680Y005760D03*
X032970Y005760D03*
X033750Y005760D03*
X034550Y005760D03*
X035330Y005760D03*
X035330Y015610D03*
X034550Y015610D03*
X033750Y015610D03*
X032970Y015610D03*
X027680Y015610D03*
X026900Y015610D03*
X026100Y015610D03*
X025320Y015610D03*
X020130Y015610D03*
X019350Y015610D03*
X018550Y015610D03*
X017770Y015610D03*
X012480Y015610D03*
X011700Y015610D03*
X010900Y015610D03*
X010120Y015610D03*
X010120Y025460D03*
X010900Y025460D03*
X011700Y025460D03*
X012480Y025460D03*
X017770Y025460D03*
X018550Y025460D03*
X019350Y025460D03*
X020130Y025460D03*
X025320Y025460D03*
X026100Y025460D03*
X026900Y025460D03*
X027680Y025460D03*
X032970Y025460D03*
X033750Y025460D03*
X034550Y025460D03*
X035330Y025460D03*
X035330Y035310D03*
X034550Y035310D03*
X033750Y035310D03*
X032970Y035310D03*
X027680Y035310D03*
X026900Y035310D03*
X026100Y035310D03*
X025320Y035310D03*
X020130Y035310D03*
X019350Y035310D03*
X018550Y035310D03*
X017770Y035310D03*
X012480Y035310D03*
X011700Y035310D03*
X010900Y035310D03*
X010120Y035310D03*
M02*
