G75*
G70*
%OFA0B0*%
%FSLAX24Y24*%
%IPPOS*%
%LPD*%
%AMOC8*
5,1,8,0,0,1.08239X$1,22.5*
%
%ADD10C,0.1390*%
%ADD11R,0.0434X0.1261*%
%ADD12C,0.1740*%
%ADD13C,0.1700*%
%ADD14R,0.0513X0.0474*%
%ADD15R,0.0710X0.0631*%
%ADD16R,0.0352X0.0470*%
%ADD17R,0.0631X0.0218*%
%ADD18R,0.0828X0.0789*%
%ADD19R,0.0828X0.0828*%
%ADD20R,0.0415X0.0434*%
%ADD21R,0.1261X0.0631*%
%ADD22R,0.0631X0.0710*%
%ADD23C,0.0820*%
%ADD24C,0.0142*%
%ADD25C,0.0640*%
%ADD26C,0.0671*%
D10*
X008715Y004600D03*
X013885Y004600D03*
X016365Y004600D03*
X021535Y004600D03*
X023915Y004600D03*
X029085Y004600D03*
X031565Y004600D03*
X036735Y004600D03*
X036735Y014450D03*
X031565Y014450D03*
X029085Y014450D03*
X023915Y014450D03*
X021535Y014450D03*
X016365Y014450D03*
X013885Y014450D03*
X008715Y014450D03*
X008715Y024300D03*
X013885Y024300D03*
X016365Y024300D03*
X021535Y024300D03*
X023915Y024300D03*
X029085Y024300D03*
X031565Y024300D03*
X036735Y024300D03*
X036735Y034150D03*
X031565Y034150D03*
X029085Y034150D03*
X023915Y034150D03*
X021535Y034150D03*
X016365Y034150D03*
X013885Y034150D03*
X008715Y034150D03*
D11*
X010119Y035508D03*
X010906Y035508D03*
X011694Y035508D03*
X012481Y035508D03*
X017769Y035508D03*
X018556Y035508D03*
X019344Y035508D03*
X020131Y035508D03*
X025319Y035508D03*
X026106Y035508D03*
X026894Y035508D03*
X027681Y035508D03*
X032969Y035508D03*
X033756Y035508D03*
X034544Y035508D03*
X035331Y035508D03*
X035331Y025658D03*
X034544Y025658D03*
X033756Y025658D03*
X032969Y025658D03*
X027681Y025658D03*
X026894Y025658D03*
X026106Y025658D03*
X025319Y025658D03*
X020131Y025658D03*
X019344Y025658D03*
X018556Y025658D03*
X017769Y025658D03*
X012481Y025658D03*
X011694Y025658D03*
X010906Y025658D03*
X010119Y025658D03*
X010119Y015808D03*
X010906Y015808D03*
X011694Y015808D03*
X012481Y015808D03*
X017769Y015808D03*
X018556Y015808D03*
X019344Y015808D03*
X020131Y015808D03*
X025319Y015808D03*
X026106Y015808D03*
X026894Y015808D03*
X027681Y015808D03*
X032969Y015808D03*
X033756Y015808D03*
X034544Y015808D03*
X035331Y015808D03*
X035331Y005958D03*
X034544Y005958D03*
X033756Y005958D03*
X032969Y005958D03*
X027681Y005958D03*
X026894Y005958D03*
X026106Y005958D03*
X025319Y005958D03*
X020131Y005958D03*
X019344Y005958D03*
X018556Y005958D03*
X017769Y005958D03*
X012481Y005958D03*
X011694Y005958D03*
X010906Y005958D03*
X010119Y005958D03*
D12*
X004150Y005964D03*
X004150Y015814D03*
X004150Y025664D03*
X004150Y035514D03*
D13*
X005631Y034263D03*
X004160Y032631D03*
X005631Y024413D03*
X004160Y022781D03*
X005631Y014563D03*
X004160Y012931D03*
X005631Y004713D03*
X004160Y003081D03*
D14*
X004165Y007550D03*
X004835Y007550D03*
X008265Y006600D03*
X008935Y006600D03*
X015915Y006600D03*
X016585Y006600D03*
X023465Y006600D03*
X024135Y006600D03*
X031065Y006600D03*
X031735Y006600D03*
X031735Y016450D03*
X031065Y016450D03*
X024135Y016450D03*
X023465Y016450D03*
X016585Y016450D03*
X015915Y016450D03*
X008935Y016450D03*
X008265Y016450D03*
X004835Y017400D03*
X004165Y017400D03*
X008265Y026300D03*
X008935Y026300D03*
X004835Y027250D03*
X004165Y027250D03*
X008265Y036150D03*
X008935Y036150D03*
X004835Y037100D03*
X004165Y037100D03*
X015915Y036150D03*
X016585Y036150D03*
X023465Y036150D03*
X024135Y036150D03*
X031065Y036150D03*
X031735Y036150D03*
X031735Y026300D03*
X031065Y026300D03*
X024135Y026300D03*
X023465Y026300D03*
X016585Y026300D03*
X015915Y026300D03*
D15*
X006950Y023001D03*
X006950Y021899D03*
X006950Y013151D03*
X006950Y012049D03*
X006950Y003301D03*
X006950Y002199D03*
X006950Y031749D03*
X006950Y032851D03*
D16*
X008226Y036888D03*
X008974Y036888D03*
X008974Y037908D03*
X008600Y037908D03*
X008226Y037908D03*
X015826Y037908D03*
X016200Y037908D03*
X016574Y037908D03*
X016574Y036888D03*
X015826Y036888D03*
X023426Y036888D03*
X024174Y036888D03*
X024174Y037908D03*
X023800Y037908D03*
X023426Y037908D03*
X031026Y037908D03*
X031400Y037908D03*
X031774Y037908D03*
X031774Y036888D03*
X031026Y036888D03*
X031026Y028058D03*
X031400Y028058D03*
X031774Y028058D03*
X031774Y027038D03*
X031026Y027038D03*
X024174Y027038D03*
X023426Y027038D03*
X023426Y028058D03*
X023800Y028058D03*
X024174Y028058D03*
X016574Y028058D03*
X016200Y028058D03*
X015826Y028058D03*
X015826Y027038D03*
X016574Y027038D03*
X008974Y027038D03*
X008226Y027038D03*
X008226Y028058D03*
X008600Y028058D03*
X008974Y028058D03*
X008974Y018208D03*
X008600Y018208D03*
X008226Y018208D03*
X008226Y017188D03*
X008974Y017188D03*
X015826Y017188D03*
X016574Y017188D03*
X016574Y018208D03*
X016200Y018208D03*
X015826Y018208D03*
X023426Y018208D03*
X023800Y018208D03*
X024174Y018208D03*
X024174Y017188D03*
X023426Y017188D03*
X031026Y017188D03*
X031774Y017188D03*
X031774Y018208D03*
X031400Y018208D03*
X031026Y018208D03*
X031026Y008358D03*
X031400Y008358D03*
X031774Y008358D03*
X031774Y007338D03*
X031026Y007338D03*
X024174Y007338D03*
X023426Y007338D03*
X023426Y008358D03*
X023800Y008358D03*
X024174Y008358D03*
X016574Y008358D03*
X016200Y008358D03*
X015826Y008358D03*
X015826Y007338D03*
X016574Y007338D03*
X008974Y007338D03*
X008226Y007338D03*
X008226Y008358D03*
X008600Y008358D03*
X008974Y008358D03*
D17*
X002593Y008400D03*
X002593Y008144D03*
X002593Y007888D03*
X002593Y008656D03*
X002593Y008912D03*
X002593Y017738D03*
X002593Y017994D03*
X002593Y018250D03*
X002593Y018506D03*
X002593Y018762D03*
X002593Y027588D03*
X002593Y027844D03*
X002593Y028100D03*
X002593Y028356D03*
X002593Y028612D03*
X002593Y037438D03*
X002593Y037694D03*
X002593Y037950D03*
X002593Y038206D03*
X002593Y038462D03*
D18*
X001550Y039525D03*
X001550Y036375D03*
X001550Y029675D03*
X001550Y026525D03*
X001550Y019825D03*
X001550Y016675D03*
X001550Y009975D03*
X001550Y006825D03*
D19*
X001550Y007900D03*
X001550Y008900D03*
X001550Y017750D03*
X001550Y018750D03*
X001550Y027600D03*
X001550Y028600D03*
X001550Y037450D03*
X001550Y038450D03*
D20*
X005172Y038500D03*
X005628Y038500D03*
X008122Y038550D03*
X008578Y038550D03*
X015722Y038550D03*
X016178Y038550D03*
X023322Y038550D03*
X023778Y038550D03*
X030922Y038550D03*
X031378Y038550D03*
X031378Y028700D03*
X030922Y028700D03*
X023778Y028700D03*
X023322Y028700D03*
X016178Y028700D03*
X015722Y028700D03*
X008578Y028700D03*
X008122Y028700D03*
X005628Y028650D03*
X005172Y028650D03*
X005172Y018800D03*
X005628Y018800D03*
X008122Y018850D03*
X008578Y018850D03*
X015722Y018850D03*
X016178Y018850D03*
X023322Y018850D03*
X023778Y018850D03*
X030922Y018850D03*
X031378Y018850D03*
X031378Y009000D03*
X030922Y009000D03*
X023778Y009000D03*
X023322Y009000D03*
X016178Y009000D03*
X015722Y009000D03*
X008578Y009000D03*
X008122Y009000D03*
X005628Y008950D03*
X005172Y008950D03*
D21*
X010305Y009200D03*
X012195Y009200D03*
X017905Y009200D03*
X019795Y009200D03*
X025505Y009200D03*
X027395Y009200D03*
X033105Y009200D03*
X034995Y009200D03*
X034995Y019050D03*
X033105Y019050D03*
X027395Y019050D03*
X025505Y019050D03*
X019795Y019050D03*
X017905Y019050D03*
X012195Y019050D03*
X010305Y019050D03*
X010305Y028900D03*
X012195Y028900D03*
X017905Y028900D03*
X019795Y028900D03*
X025505Y028900D03*
X027395Y028900D03*
X033105Y028900D03*
X034995Y028900D03*
X034995Y038750D03*
X033105Y038750D03*
X027395Y038750D03*
X025505Y038750D03*
X019795Y038750D03*
X017905Y038750D03*
X012195Y038750D03*
X010305Y038750D03*
D22*
X010749Y036800D03*
X011851Y036800D03*
X018349Y036800D03*
X019451Y036800D03*
X025949Y036800D03*
X027051Y036800D03*
X033649Y036800D03*
X034751Y036800D03*
X034751Y026950D03*
X033649Y026950D03*
X027051Y026950D03*
X025949Y026950D03*
X019451Y026950D03*
X018349Y026950D03*
X011851Y026950D03*
X010749Y026950D03*
X010749Y017100D03*
X011851Y017100D03*
X018349Y017100D03*
X019451Y017100D03*
X025949Y017100D03*
X027051Y017100D03*
X033649Y017100D03*
X034751Y017100D03*
X034751Y007250D03*
X033649Y007250D03*
X027051Y007250D03*
X025949Y007250D03*
X019451Y007250D03*
X018349Y007250D03*
X011851Y007250D03*
X010749Y007250D03*
D23*
X001550Y003300D03*
X001550Y004300D03*
X004170Y009880D03*
X005170Y009880D03*
X007900Y009900D03*
X008900Y009900D03*
X015500Y009900D03*
X016500Y009900D03*
X023100Y009900D03*
X024100Y009900D03*
X030700Y009900D03*
X031700Y009900D03*
X031700Y019750D03*
X030700Y019750D03*
X024100Y019750D03*
X023100Y019750D03*
X016500Y019750D03*
X015500Y019750D03*
X008900Y019750D03*
X007900Y019750D03*
X005170Y019730D03*
X004170Y019730D03*
X001550Y023000D03*
X001550Y024000D03*
X004170Y029580D03*
X005170Y029580D03*
X007900Y029600D03*
X008900Y029600D03*
X015500Y029600D03*
X016500Y029600D03*
X023100Y029600D03*
X024100Y029600D03*
X030700Y029600D03*
X031700Y029600D03*
X031700Y039450D03*
X030700Y039450D03*
X024100Y039450D03*
X023100Y039450D03*
X016500Y039450D03*
X015500Y039450D03*
X008900Y039450D03*
X007900Y039450D03*
X005170Y039430D03*
X004170Y039430D03*
X001550Y033850D03*
X001550Y032850D03*
X001550Y014150D03*
X001550Y013150D03*
D24*
X005434Y017289D02*
X005766Y017289D01*
X005434Y017289D02*
X005434Y017621D01*
X005766Y017621D01*
X005766Y017289D01*
X005766Y017430D02*
X005434Y017430D01*
X005434Y017571D02*
X005766Y017571D01*
X005766Y017979D02*
X005434Y017979D01*
X005434Y018311D01*
X005766Y018311D01*
X005766Y017979D01*
X005766Y018120D02*
X005434Y018120D01*
X005434Y018261D02*
X005766Y018261D01*
X005766Y027139D02*
X005434Y027139D01*
X005434Y027471D01*
X005766Y027471D01*
X005766Y027139D01*
X005766Y027280D02*
X005434Y027280D01*
X005434Y027421D02*
X005766Y027421D01*
X005766Y027829D02*
X005434Y027829D01*
X005434Y028161D01*
X005766Y028161D01*
X005766Y027829D01*
X005766Y027970D02*
X005434Y027970D01*
X005434Y028111D02*
X005766Y028111D01*
X005766Y036989D02*
X005434Y036989D01*
X005434Y037321D01*
X005766Y037321D01*
X005766Y036989D01*
X005766Y037130D02*
X005434Y037130D01*
X005434Y037271D02*
X005766Y037271D01*
X005766Y037679D02*
X005434Y037679D01*
X005434Y038011D01*
X005766Y038011D01*
X005766Y037679D01*
X005766Y037820D02*
X005434Y037820D01*
X005434Y037961D02*
X005766Y037961D01*
X005766Y008129D02*
X005434Y008129D01*
X005434Y008461D01*
X005766Y008461D01*
X005766Y008129D01*
X005766Y008270D02*
X005434Y008270D01*
X005434Y008411D02*
X005766Y008411D01*
X005766Y007439D02*
X005434Y007439D01*
X005434Y007771D01*
X005766Y007771D01*
X005766Y007439D01*
X005766Y007580D02*
X005434Y007580D01*
X005434Y007721D02*
X005766Y007721D01*
D25*
X009500Y006600D03*
X013000Y007250D03*
X017150Y006600D03*
X020650Y007250D03*
X024700Y006600D03*
X028200Y007250D03*
X032300Y006600D03*
X035850Y007300D03*
X032300Y016450D03*
X035850Y017150D03*
X028200Y017100D03*
X024700Y016450D03*
X020650Y017100D03*
X017150Y016450D03*
X013000Y017100D03*
X009500Y016450D03*
X009500Y026300D03*
X013000Y026950D03*
X017150Y026300D03*
X020650Y026950D03*
X024700Y026300D03*
X028200Y026950D03*
X032300Y026300D03*
X035850Y027000D03*
X032300Y036150D03*
X035850Y036850D03*
X028200Y036800D03*
X024700Y036150D03*
X020650Y036800D03*
X017150Y036150D03*
X013000Y036800D03*
X009500Y036150D03*
D26*
X010120Y035310D03*
X010900Y035310D03*
X011700Y035310D03*
X012480Y035310D03*
X017770Y035310D03*
X018550Y035310D03*
X019350Y035310D03*
X020130Y035310D03*
X025320Y035310D03*
X026100Y035310D03*
X026900Y035310D03*
X027680Y035310D03*
X032970Y035310D03*
X033750Y035310D03*
X034550Y035310D03*
X035330Y035310D03*
X035330Y025460D03*
X034550Y025460D03*
X033750Y025460D03*
X032970Y025460D03*
X027680Y025460D03*
X026900Y025460D03*
X026100Y025460D03*
X025320Y025460D03*
X020130Y025460D03*
X019350Y025460D03*
X018550Y025460D03*
X017770Y025460D03*
X012480Y025460D03*
X011700Y025460D03*
X010900Y025460D03*
X010120Y025460D03*
X010120Y015610D03*
X010900Y015610D03*
X011700Y015610D03*
X012480Y015610D03*
X017770Y015610D03*
X018550Y015610D03*
X019350Y015610D03*
X020130Y015610D03*
X025320Y015610D03*
X026100Y015610D03*
X026900Y015610D03*
X027680Y015610D03*
X032970Y015610D03*
X033750Y015610D03*
X034550Y015610D03*
X035330Y015610D03*
X035330Y005760D03*
X034550Y005760D03*
X033750Y005760D03*
X032970Y005760D03*
X027680Y005760D03*
X026900Y005760D03*
X026100Y005760D03*
X025320Y005760D03*
X020130Y005760D03*
X019350Y005760D03*
X018550Y005760D03*
X017770Y005760D03*
X012480Y005760D03*
X011700Y005760D03*
X010900Y005760D03*
X010120Y005760D03*
M02*
