G75*
G70*
%OFA0B0*%
%FSLAX24Y24*%
%IPPOS*%
%LPD*%
%AMOC8*
5,1,8,0,0,1.08239X$1,22.5*
%
%ADD10C,0.0000*%
D10*
X000800Y000900D02*
X000800Y010543D01*
X000802Y010560D01*
X000806Y010577D01*
X000813Y010593D01*
X000823Y010607D01*
X000836Y010620D01*
X000850Y010630D01*
X000866Y010637D01*
X000883Y010641D01*
X000900Y010643D01*
X038102Y010643D01*
X038102Y010650D02*
X000900Y010650D01*
X000883Y010652D01*
X000866Y010656D01*
X000850Y010663D01*
X000836Y010673D01*
X000823Y010686D01*
X000813Y010700D01*
X000806Y010716D01*
X000802Y010733D01*
X000800Y010750D01*
X000800Y020393D01*
X000802Y020410D01*
X000806Y020427D01*
X000813Y020443D01*
X000823Y020457D01*
X000836Y020470D01*
X000850Y020480D01*
X000866Y020487D01*
X000883Y020491D01*
X000900Y020493D01*
X038102Y020493D01*
X038102Y020500D02*
X000900Y020500D01*
X000883Y020502D01*
X000866Y020506D01*
X000850Y020513D01*
X000836Y020523D01*
X000823Y020536D01*
X000813Y020550D01*
X000806Y020566D01*
X000802Y020583D01*
X000800Y020600D01*
X000800Y030243D01*
X000802Y030260D01*
X000806Y030277D01*
X000813Y030293D01*
X000823Y030307D01*
X000836Y030320D01*
X000850Y030330D01*
X000866Y030337D01*
X000883Y030341D01*
X000900Y030343D01*
X038102Y030343D01*
X038102Y030350D02*
X000900Y030350D01*
X000883Y030352D01*
X000866Y030356D01*
X000850Y030363D01*
X000836Y030373D01*
X000823Y030386D01*
X000813Y030400D01*
X000806Y030416D01*
X000802Y030433D01*
X000800Y030450D01*
X000800Y040093D01*
X000802Y040110D01*
X000806Y040127D01*
X000813Y040143D01*
X000823Y040157D01*
X000836Y040170D01*
X000850Y040180D01*
X000866Y040187D01*
X000883Y040191D01*
X000900Y040193D01*
X038102Y040193D01*
X038119Y040191D01*
X038136Y040187D01*
X038152Y040180D01*
X038166Y040170D01*
X038179Y040157D01*
X038189Y040143D01*
X038196Y040127D01*
X038200Y040110D01*
X038202Y040093D01*
X038202Y030450D01*
X038200Y030433D01*
X038196Y030416D01*
X038189Y030400D01*
X038179Y030386D01*
X038166Y030373D01*
X038152Y030363D01*
X038136Y030356D01*
X038119Y030352D01*
X038102Y030350D01*
X038102Y030343D02*
X038119Y030341D01*
X038136Y030337D01*
X038152Y030330D01*
X038166Y030320D01*
X038179Y030307D01*
X038189Y030293D01*
X038196Y030277D01*
X038200Y030260D01*
X038202Y030243D01*
X038202Y020600D01*
X038200Y020583D01*
X038196Y020566D01*
X038189Y020550D01*
X038179Y020536D01*
X038166Y020523D01*
X038152Y020513D01*
X038136Y020506D01*
X038119Y020502D01*
X038102Y020500D01*
X038102Y020493D02*
X038119Y020491D01*
X038136Y020487D01*
X038152Y020480D01*
X038166Y020470D01*
X038179Y020457D01*
X038189Y020443D01*
X038196Y020427D01*
X038200Y020410D01*
X038202Y020393D01*
X038202Y010750D01*
X038200Y010733D01*
X038196Y010716D01*
X038189Y010700D01*
X038179Y010686D01*
X038166Y010673D01*
X038152Y010663D01*
X038136Y010656D01*
X038119Y010652D01*
X038102Y010650D01*
X038102Y010643D02*
X038119Y010641D01*
X038136Y010637D01*
X038152Y010630D01*
X038166Y010620D01*
X038179Y010607D01*
X038189Y010593D01*
X038196Y010577D01*
X038200Y010560D01*
X038202Y010543D01*
X038202Y000900D01*
X038200Y000883D01*
X038196Y000866D01*
X038189Y000850D01*
X038179Y000836D01*
X038166Y000823D01*
X038152Y000813D01*
X038136Y000806D01*
X038119Y000802D01*
X038102Y000800D01*
X000900Y000800D01*
X000883Y000802D01*
X000866Y000806D01*
X000850Y000813D01*
X000836Y000823D01*
X000823Y000836D01*
X000813Y000850D01*
X000806Y000866D01*
X000802Y000883D01*
X000800Y000900D01*
M02*
