G75*
G70*
%OFA0B0*%
%FSLAX24Y24*%
%IPPOS*%
%LPD*%
%AMOC8*
5,1,8,0,0,1.08239X$1,22.5*
%
%ADD10R,0.0350X0.1180*%
%ADD11C,0.1310*%
%ADD12C,0.1660*%
%ADD13C,0.1620*%
%ADD14C,0.0059*%
%ADD15C,0.0740*%
%ADD16C,0.0240*%
%ADD17C,0.0560*%
%ADD18C,0.0591*%
%ADD19C,0.0500*%
%ADD20C,0.0400*%
D10*
X010125Y005960D03*
X010905Y005960D03*
X011695Y005960D03*
X017775Y005960D03*
X018555Y005960D03*
X019345Y005960D03*
X025325Y005960D03*
X026105Y005960D03*
X026895Y005960D03*
X032975Y005960D03*
X033755Y005960D03*
X034545Y005960D03*
X034545Y015810D03*
X033755Y015810D03*
X032975Y015810D03*
X026895Y015810D03*
X026105Y015810D03*
X025325Y015810D03*
X019345Y015810D03*
X018555Y015810D03*
X017775Y015810D03*
X011695Y015810D03*
X010905Y015810D03*
X010125Y015810D03*
X010125Y025660D03*
X010905Y025660D03*
X011695Y025660D03*
X017775Y025660D03*
X018555Y025660D03*
X019345Y025660D03*
X025325Y025660D03*
X026105Y025660D03*
X026895Y025660D03*
X032975Y025660D03*
X033755Y025660D03*
X034545Y025660D03*
X034545Y035510D03*
X033755Y035510D03*
X032975Y035510D03*
X026895Y035510D03*
X026105Y035510D03*
X025325Y035510D03*
X019345Y035510D03*
X018555Y035510D03*
X017775Y035510D03*
X011695Y035510D03*
X010905Y035510D03*
X010125Y035510D03*
D11*
X008715Y034150D03*
X013885Y034150D03*
X016365Y034150D03*
X021535Y034150D03*
X023915Y034150D03*
X029085Y034150D03*
X031565Y034150D03*
X036735Y034150D03*
X036735Y024300D03*
X031565Y024300D03*
X029085Y024300D03*
X023915Y024300D03*
X021535Y024300D03*
X016365Y024300D03*
X013885Y024300D03*
X008715Y024300D03*
X008715Y014450D03*
X013885Y014450D03*
X016365Y014450D03*
X021535Y014450D03*
X023915Y014450D03*
X029085Y014450D03*
X031565Y014450D03*
X036735Y014450D03*
X036735Y004600D03*
X031565Y004600D03*
X029085Y004600D03*
X023915Y004600D03*
X021535Y004600D03*
X016365Y004600D03*
X013885Y004600D03*
X008715Y004600D03*
D12*
X004150Y005964D03*
X004150Y015814D03*
X004150Y025664D03*
X004150Y035514D03*
D13*
X005631Y034263D03*
X004160Y032631D03*
X005631Y024413D03*
X004160Y022781D03*
X005631Y014563D03*
X004160Y012931D03*
X005631Y004713D03*
X004160Y003081D03*
D14*
X035783Y009001D02*
X035783Y009241D01*
X036100Y009273D01*
X036134Y009380D01*
X036186Y009480D01*
X035984Y009727D01*
X036153Y009897D01*
X036401Y009695D01*
X036501Y009746D01*
X036607Y009781D01*
X036639Y010098D01*
X036879Y010098D01*
X036912Y009781D01*
X037018Y009746D01*
X037118Y009695D01*
X037365Y009897D01*
X037535Y009727D01*
X037333Y009480D01*
X037385Y009380D01*
X037419Y009273D01*
X037736Y009241D01*
X037736Y009001D01*
X037419Y008969D01*
X037385Y008862D01*
X037333Y008763D01*
X037535Y008515D01*
X037365Y008346D01*
X037118Y008547D01*
X037018Y008496D01*
X036877Y008837D01*
X036930Y008866D01*
X036977Y008904D01*
X037015Y008950D01*
X037044Y009004D01*
X037061Y009061D01*
X037067Y009121D01*
X037061Y009184D01*
X037041Y009244D01*
X037010Y009299D01*
X036969Y009347D01*
X036918Y009385D01*
X036861Y009412D01*
X036800Y009426D01*
X036736Y009428D01*
X036674Y009417D01*
X036616Y009393D01*
X036563Y009358D01*
X036519Y009313D01*
X036485Y009260D01*
X036462Y009201D01*
X036452Y009139D01*
X036455Y009075D01*
X036471Y009014D01*
X036499Y008958D01*
X036538Y008908D01*
X036586Y008867D01*
X036642Y008837D01*
X036500Y008496D01*
X036401Y008547D01*
X036153Y008346D01*
X035984Y008515D01*
X036186Y008763D01*
X036134Y008862D01*
X036100Y008969D01*
X035783Y009001D01*
X035783Y009030D02*
X036467Y009030D01*
X036455Y009088D02*
X035783Y009088D01*
X035783Y009146D02*
X036453Y009146D01*
X036463Y009203D02*
X035783Y009203D01*
X035974Y009261D02*
X036485Y009261D01*
X036524Y009318D02*
X036114Y009318D01*
X036133Y009376D02*
X036590Y009376D01*
X036930Y009376D02*
X037386Y009376D01*
X037404Y009318D02*
X036994Y009318D01*
X037032Y009261D02*
X037545Y009261D01*
X037736Y009203D02*
X037055Y009203D01*
X037065Y009146D02*
X037736Y009146D01*
X037736Y009088D02*
X037064Y009088D01*
X037052Y009030D02*
X037736Y009030D01*
X037456Y008973D02*
X037027Y008973D01*
X036986Y008915D02*
X037402Y008915D01*
X037382Y008858D02*
X036916Y008858D01*
X036892Y008800D02*
X037353Y008800D01*
X037350Y008743D02*
X036916Y008743D01*
X036940Y008685D02*
X037397Y008685D01*
X037444Y008628D02*
X036964Y008628D01*
X036988Y008570D02*
X037490Y008570D01*
X037532Y008512D02*
X037161Y008512D01*
X037232Y008455D02*
X037475Y008455D01*
X037417Y008397D02*
X037302Y008397D01*
X037050Y008512D02*
X037012Y008512D01*
X036579Y008685D02*
X036122Y008685D01*
X036075Y008628D02*
X036555Y008628D01*
X036531Y008570D02*
X036028Y008570D01*
X035987Y008512D02*
X036358Y008512D01*
X036287Y008455D02*
X036044Y008455D01*
X036102Y008397D02*
X036217Y008397D01*
X036469Y008512D02*
X036507Y008512D01*
X036603Y008743D02*
X036169Y008743D01*
X036166Y008800D02*
X036626Y008800D01*
X036604Y008858D02*
X036137Y008858D01*
X036117Y008915D02*
X036532Y008915D01*
X036491Y008973D02*
X036063Y008973D01*
X036162Y009433D02*
X037357Y009433D01*
X037342Y009491D02*
X036177Y009491D01*
X036130Y009548D02*
X037389Y009548D01*
X037436Y009606D02*
X036083Y009606D01*
X036036Y009664D02*
X037483Y009664D01*
X037530Y009721D02*
X037150Y009721D01*
X037068Y009721D02*
X036451Y009721D01*
X036369Y009721D02*
X035989Y009721D01*
X036035Y009779D02*
X036298Y009779D01*
X036228Y009836D02*
X036093Y009836D01*
X036150Y009894D02*
X036157Y009894D01*
X036601Y009779D02*
X036918Y009779D01*
X036906Y009836D02*
X036613Y009836D01*
X036619Y009894D02*
X036900Y009894D01*
X036894Y009951D02*
X036625Y009951D01*
X036630Y010009D02*
X036888Y010009D01*
X036883Y010066D02*
X036636Y010066D01*
X037220Y009779D02*
X037484Y009779D01*
X037426Y009836D02*
X037291Y009836D01*
X037362Y009894D02*
X037369Y009894D01*
X037365Y018196D02*
X037118Y018397D01*
X037018Y018346D01*
X036877Y018687D01*
X036930Y018716D01*
X036977Y018754D01*
X037015Y018800D01*
X037044Y018854D01*
X037061Y018911D01*
X037067Y018971D01*
X037061Y019034D01*
X037041Y019094D01*
X037010Y019149D01*
X036969Y019197D01*
X036918Y019235D01*
X036861Y019262D01*
X036800Y019276D01*
X036736Y019278D01*
X036674Y019267D01*
X036616Y019243D01*
X036563Y019208D01*
X036519Y019163D01*
X036485Y019110D01*
X036462Y019051D01*
X036452Y018989D01*
X036455Y018925D01*
X036471Y018864D01*
X036499Y018808D01*
X036538Y018758D01*
X036586Y018717D01*
X036642Y018687D01*
X036500Y018346D01*
X036401Y018397D01*
X036153Y018196D01*
X035984Y018365D01*
X036186Y018613D01*
X036134Y018712D01*
X036100Y018819D01*
X035783Y018851D01*
X035783Y019091D01*
X036100Y019123D01*
X036134Y019230D01*
X036186Y019330D01*
X035984Y019577D01*
X036153Y019747D01*
X036401Y019545D01*
X036501Y019596D01*
X036607Y019631D01*
X036639Y019948D01*
X036879Y019948D01*
X036912Y019631D01*
X037018Y019596D01*
X037118Y019545D01*
X037365Y019747D01*
X037535Y019577D01*
X037333Y019330D01*
X037385Y019230D01*
X037419Y019123D01*
X037736Y019091D01*
X037736Y018851D01*
X037419Y018819D01*
X037385Y018712D01*
X037333Y018613D01*
X037535Y018365D01*
X037365Y018196D01*
X037409Y018239D02*
X037312Y018239D01*
X037241Y018297D02*
X037467Y018297D01*
X037524Y018354D02*
X037171Y018354D01*
X037035Y018354D02*
X037015Y018354D01*
X036991Y018412D02*
X037497Y018412D01*
X037450Y018469D02*
X036967Y018469D01*
X036943Y018527D02*
X037403Y018527D01*
X037356Y018585D02*
X036920Y018585D01*
X036896Y018642D02*
X037348Y018642D01*
X037378Y018700D02*
X036901Y018700D01*
X036980Y018757D02*
X037399Y018757D01*
X037417Y018815D02*
X037023Y018815D01*
X037049Y018872D02*
X037736Y018872D01*
X037736Y018930D02*
X037063Y018930D01*
X037065Y018987D02*
X037736Y018987D01*
X037736Y019045D02*
X037057Y019045D01*
X037037Y019103D02*
X037624Y019103D01*
X037407Y019160D02*
X037001Y019160D01*
X036941Y019218D02*
X037389Y019218D01*
X037361Y019275D02*
X036804Y019275D01*
X036721Y019275D02*
X036157Y019275D01*
X036130Y019218D02*
X036578Y019218D01*
X036517Y019160D02*
X036112Y019160D01*
X036183Y019333D02*
X037336Y019333D01*
X037383Y019390D02*
X036136Y019390D01*
X036089Y019448D02*
X037430Y019448D01*
X037477Y019505D02*
X036042Y019505D01*
X035995Y019563D02*
X036379Y019563D01*
X036436Y019563D02*
X037083Y019563D01*
X037140Y019563D02*
X037523Y019563D01*
X037492Y019621D02*
X037211Y019621D01*
X037281Y019678D02*
X037434Y019678D01*
X037377Y019736D02*
X037352Y019736D01*
X036943Y019621D02*
X036576Y019621D01*
X036612Y019678D02*
X036907Y019678D01*
X036901Y019736D02*
X036618Y019736D01*
X036624Y019793D02*
X036895Y019793D01*
X036889Y019851D02*
X036630Y019851D01*
X036635Y019908D02*
X036883Y019908D01*
X036308Y019621D02*
X036027Y019621D01*
X036085Y019678D02*
X036238Y019678D01*
X036167Y019736D02*
X036142Y019736D01*
X035895Y019103D02*
X036482Y019103D01*
X036461Y019045D02*
X035783Y019045D01*
X035783Y018987D02*
X036452Y018987D01*
X036455Y018930D02*
X035783Y018930D01*
X035783Y018872D02*
X036469Y018872D01*
X036495Y018815D02*
X036101Y018815D01*
X036120Y018757D02*
X036539Y018757D01*
X036618Y018700D02*
X036141Y018700D01*
X036170Y018642D02*
X036623Y018642D01*
X036599Y018585D02*
X036163Y018585D01*
X036116Y018527D02*
X036575Y018527D01*
X036552Y018469D02*
X036069Y018469D01*
X036022Y018412D02*
X036528Y018412D01*
X036504Y018354D02*
X036484Y018354D01*
X036348Y018354D02*
X035995Y018354D01*
X036052Y018297D02*
X036278Y018297D01*
X036207Y018239D02*
X036110Y018239D01*
X036153Y028046D02*
X035984Y028215D01*
X036186Y028463D01*
X036134Y028562D01*
X036100Y028669D01*
X035783Y028701D01*
X035783Y028941D01*
X036100Y028973D01*
X036134Y029080D01*
X036186Y029180D01*
X035984Y029427D01*
X036153Y029597D01*
X036401Y029395D01*
X036501Y029446D01*
X036607Y029481D01*
X036639Y029798D01*
X036879Y029798D01*
X036912Y029481D01*
X037018Y029446D01*
X037118Y029395D01*
X037365Y029597D01*
X037535Y029427D01*
X037333Y029180D01*
X037385Y029080D01*
X037419Y028973D01*
X037736Y028941D01*
X037736Y028701D01*
X037419Y028669D01*
X037385Y028562D01*
X037333Y028463D01*
X037535Y028215D01*
X037365Y028046D01*
X037118Y028247D01*
X037018Y028196D01*
X036877Y028537D01*
X036930Y028566D01*
X036977Y028604D01*
X037015Y028650D01*
X037044Y028704D01*
X037061Y028761D01*
X037067Y028821D01*
X037061Y028884D01*
X037041Y028944D01*
X037010Y028999D01*
X036969Y029047D01*
X036918Y029085D01*
X036861Y029112D01*
X036800Y029126D01*
X036736Y029128D01*
X036674Y029117D01*
X036616Y029093D01*
X036563Y029058D01*
X036519Y029013D01*
X036485Y028960D01*
X036462Y028901D01*
X036452Y028839D01*
X036455Y028775D01*
X036471Y028714D01*
X036499Y028658D01*
X036538Y028608D01*
X036586Y028567D01*
X036642Y028537D01*
X036500Y028196D01*
X036501Y028196D01*
X036500Y028196D02*
X036401Y028247D01*
X036153Y028046D01*
X036118Y028081D02*
X036197Y028081D01*
X036268Y028139D02*
X036060Y028139D01*
X036003Y028196D02*
X036338Y028196D01*
X036524Y028254D02*
X036015Y028254D01*
X036062Y028311D02*
X036548Y028311D01*
X036572Y028369D02*
X036109Y028369D01*
X036156Y028427D02*
X036596Y028427D01*
X036620Y028484D02*
X036175Y028484D01*
X036145Y028542D02*
X036633Y028542D01*
X036548Y028599D02*
X036122Y028599D01*
X036104Y028657D02*
X036500Y028657D01*
X036471Y028714D02*
X035783Y028714D01*
X035783Y028772D02*
X036456Y028772D01*
X036453Y028829D02*
X035783Y028829D01*
X035783Y028887D02*
X036460Y028887D01*
X036479Y028945D02*
X035816Y028945D01*
X036109Y029002D02*
X036512Y029002D01*
X036566Y029060D02*
X036128Y029060D01*
X036153Y029117D02*
X036677Y029117D01*
X036837Y029117D02*
X037366Y029117D01*
X037391Y029060D02*
X036951Y029060D01*
X037008Y029002D02*
X037410Y029002D01*
X037336Y029175D02*
X036183Y029175D01*
X036143Y029232D02*
X037376Y029232D01*
X037423Y029290D02*
X036096Y029290D01*
X036049Y029347D02*
X037470Y029347D01*
X037517Y029405D02*
X037130Y029405D01*
X037099Y029405D02*
X036420Y029405D01*
X036389Y029405D02*
X036002Y029405D01*
X036019Y029463D02*
X036318Y029463D01*
X036248Y029520D02*
X036077Y029520D01*
X036134Y029578D02*
X036177Y029578D01*
X036551Y029463D02*
X036968Y029463D01*
X036908Y029520D02*
X036611Y029520D01*
X036617Y029578D02*
X036902Y029578D01*
X036896Y029635D02*
X036623Y029635D01*
X036629Y029693D02*
X036890Y029693D01*
X036884Y029750D02*
X036635Y029750D01*
X037201Y029463D02*
X037500Y029463D01*
X037442Y029520D02*
X037271Y029520D01*
X037342Y029578D02*
X037385Y029578D01*
X037703Y028945D02*
X037041Y028945D01*
X037060Y028887D02*
X037736Y028887D01*
X037736Y028829D02*
X037066Y028829D01*
X037062Y028772D02*
X037736Y028772D01*
X037736Y028714D02*
X037047Y028714D01*
X037019Y028657D02*
X037415Y028657D01*
X037396Y028599D02*
X036971Y028599D01*
X036886Y028542D02*
X037374Y028542D01*
X037344Y028484D02*
X036899Y028484D01*
X036923Y028427D02*
X037363Y028427D01*
X037410Y028369D02*
X036947Y028369D01*
X036971Y028311D02*
X037457Y028311D01*
X037504Y028254D02*
X036994Y028254D01*
X037018Y028196D02*
X037019Y028196D01*
X037181Y028196D02*
X037516Y028196D01*
X037459Y028139D02*
X037251Y028139D01*
X037322Y028081D02*
X037401Y028081D01*
X037365Y037896D02*
X037118Y038097D01*
X037018Y038046D01*
X036877Y038387D01*
X036930Y038416D01*
X036977Y038454D01*
X037015Y038500D01*
X037044Y038554D01*
X037061Y038611D01*
X037067Y038671D01*
X037061Y038734D01*
X037041Y038794D01*
X037010Y038849D01*
X036969Y038897D01*
X036918Y038935D01*
X036861Y038962D01*
X036800Y038976D01*
X036736Y038978D01*
X036674Y038967D01*
X036616Y038943D01*
X036563Y038908D01*
X036519Y038863D01*
X036485Y038810D01*
X036462Y038751D01*
X036452Y038689D01*
X036455Y038625D01*
X036471Y038564D01*
X036499Y038508D01*
X036538Y038458D01*
X036586Y038417D01*
X036642Y038387D01*
X036500Y038046D01*
X036401Y038097D01*
X036153Y037896D01*
X035984Y038065D01*
X036186Y038313D01*
X036134Y038412D01*
X036100Y038519D01*
X035783Y038551D01*
X035783Y038791D01*
X036100Y038823D01*
X036134Y038930D01*
X036186Y039030D01*
X035984Y039277D01*
X036153Y039447D01*
X036401Y039245D01*
X036501Y039296D01*
X036607Y039331D01*
X036639Y039648D01*
X036879Y039648D01*
X036912Y039331D01*
X037018Y039296D01*
X037118Y039245D01*
X037365Y039447D01*
X037535Y039277D01*
X037333Y039030D01*
X037385Y038930D01*
X037419Y038823D01*
X037736Y038791D01*
X037736Y038551D01*
X037419Y038519D01*
X037385Y038412D01*
X037333Y038313D01*
X037535Y038065D01*
X037365Y037896D01*
X037393Y037923D02*
X037332Y037923D01*
X037261Y037981D02*
X037451Y037981D01*
X037508Y038038D02*
X037190Y038038D01*
X037120Y038096D02*
X037510Y038096D01*
X037463Y038153D02*
X036974Y038153D01*
X036998Y038096D02*
X037115Y038096D01*
X036950Y038211D02*
X037416Y038211D01*
X037369Y038269D02*
X036926Y038269D01*
X036902Y038326D02*
X037340Y038326D01*
X037370Y038384D02*
X036879Y038384D01*
X036962Y038441D02*
X037394Y038441D01*
X037412Y038499D02*
X037014Y038499D01*
X037044Y038556D02*
X037736Y038556D01*
X037736Y038614D02*
X037061Y038614D01*
X037067Y038671D02*
X037736Y038671D01*
X037736Y038729D02*
X037061Y038729D01*
X037044Y038787D02*
X037736Y038787D01*
X037412Y038844D02*
X037013Y038844D01*
X036962Y038902D02*
X037394Y038902D01*
X037370Y038959D02*
X036866Y038959D01*
X036655Y038959D02*
X036149Y038959D01*
X036125Y038902D02*
X036557Y038902D01*
X036507Y038844D02*
X036107Y038844D01*
X036179Y039017D02*
X037340Y039017D01*
X037370Y039074D02*
X036149Y039074D01*
X036102Y039132D02*
X037417Y039132D01*
X037463Y039189D02*
X036055Y039189D01*
X036009Y039247D02*
X036399Y039247D01*
X036404Y039247D02*
X037114Y039247D01*
X037120Y039247D02*
X037510Y039247D01*
X037508Y039305D02*
X037191Y039305D01*
X037261Y039362D02*
X037450Y039362D01*
X037393Y039420D02*
X037332Y039420D01*
X036993Y039305D02*
X036526Y039305D01*
X036610Y039362D02*
X036908Y039362D01*
X036903Y039420D02*
X036616Y039420D01*
X036622Y039477D02*
X036897Y039477D01*
X036891Y039535D02*
X036628Y039535D01*
X036634Y039592D02*
X036885Y039592D01*
X036328Y039305D02*
X036011Y039305D01*
X036069Y039362D02*
X036257Y039362D01*
X036187Y039420D02*
X036126Y039420D01*
X035783Y038787D02*
X036476Y038787D01*
X036459Y038729D02*
X035783Y038729D01*
X035783Y038671D02*
X036453Y038671D01*
X036458Y038614D02*
X035783Y038614D01*
X035783Y038556D02*
X036475Y038556D01*
X036506Y038499D02*
X036107Y038499D01*
X036125Y038441D02*
X036558Y038441D01*
X036640Y038384D02*
X036149Y038384D01*
X036179Y038326D02*
X036616Y038326D01*
X036593Y038269D02*
X036150Y038269D01*
X036103Y038211D02*
X036569Y038211D01*
X036545Y038153D02*
X036056Y038153D01*
X036009Y038096D02*
X036399Y038096D01*
X036404Y038096D02*
X036521Y038096D01*
X036328Y038038D02*
X036011Y038038D01*
X036068Y037981D02*
X036258Y037981D01*
X036187Y037923D02*
X036126Y037923D01*
D15*
X031700Y039450D03*
X030700Y039450D03*
X024100Y039450D03*
X023100Y039450D03*
X016500Y039450D03*
X015500Y039450D03*
X008900Y039450D03*
X007900Y039450D03*
X005170Y039430D03*
X004170Y039430D03*
X001550Y033850D03*
X001550Y032850D03*
X004170Y029580D03*
X005170Y029580D03*
X007900Y029600D03*
X008900Y029600D03*
X015500Y029600D03*
X016500Y029600D03*
X023100Y029600D03*
X024100Y029600D03*
X030700Y029600D03*
X031700Y029600D03*
X031700Y019750D03*
X030700Y019750D03*
X024100Y019750D03*
X023100Y019750D03*
X016500Y019750D03*
X015500Y019750D03*
X008900Y019750D03*
X007900Y019750D03*
X005170Y019730D03*
X004170Y019730D03*
X001550Y023000D03*
X001550Y024000D03*
X001550Y014150D03*
X001550Y013150D03*
X004170Y009880D03*
X005170Y009880D03*
X007900Y009900D03*
X008900Y009900D03*
X015500Y009900D03*
X016500Y009900D03*
X023100Y009900D03*
X024100Y009900D03*
X030700Y009900D03*
X031700Y009900D03*
X001550Y004300D03*
X001550Y003300D03*
D16*
X001000Y003148D02*
X001000Y001087D01*
X037938Y001087D01*
X037938Y008906D01*
X037892Y008861D01*
X037844Y008802D01*
X037832Y008800D01*
X037823Y008792D01*
X037747Y008792D01*
X037593Y008776D01*
X037691Y008656D01*
X037745Y008602D01*
X037745Y008590D01*
X037752Y008580D01*
X037745Y008505D01*
X037745Y008428D01*
X037736Y008420D01*
X037735Y008408D01*
X037676Y008360D01*
X037521Y008205D01*
X037473Y008146D01*
X037461Y008145D01*
X037452Y008136D01*
X037376Y008136D01*
X037300Y008128D01*
X037291Y008136D01*
X037279Y008136D01*
X037225Y008190D01*
X037092Y008298D01*
X037037Y008270D01*
X037028Y008273D01*
X037018Y008269D01*
X036946Y008299D01*
X036872Y008323D01*
X036867Y008332D01*
X036858Y008336D01*
X036828Y008408D01*
X036792Y008477D01*
X036795Y008487D01*
X036759Y008574D01*
X036723Y008487D01*
X036726Y008477D01*
X036691Y008408D01*
X036661Y008336D01*
X036652Y008332D01*
X036647Y008323D01*
X036573Y008299D01*
X036500Y008269D01*
X036491Y008273D01*
X036482Y008270D01*
X036427Y008298D01*
X036294Y008190D01*
X036240Y008136D01*
X036228Y008136D01*
X036219Y008128D01*
X036143Y008136D01*
X036067Y008136D01*
X036058Y008145D01*
X036046Y008146D01*
X035998Y008205D01*
X035843Y008360D01*
X035784Y008408D01*
X035783Y008420D01*
X035774Y008428D01*
X035774Y008505D01*
X035767Y008580D01*
X035774Y008590D01*
X035774Y008602D01*
X035828Y008656D01*
X035926Y008776D01*
X035772Y008792D01*
X035696Y008792D01*
X035687Y008800D01*
X035675Y008802D01*
X035627Y008861D01*
X035573Y008915D01*
X035573Y008927D01*
X035565Y008936D01*
X035573Y009012D01*
X035573Y009231D01*
X035565Y009306D01*
X035573Y009316D01*
X035573Y009328D01*
X035627Y009382D01*
X035675Y009441D01*
X035687Y009442D01*
X035696Y009451D01*
X035772Y009451D01*
X035926Y009466D01*
X035828Y009587D01*
X035774Y009640D01*
X035774Y009653D01*
X035767Y009662D01*
X035774Y009738D01*
X035774Y009814D01*
X035783Y009823D01*
X035784Y009835D01*
X035843Y009883D01*
X035998Y010037D01*
X036046Y010097D01*
X036058Y010098D01*
X036067Y010106D01*
X036143Y010106D01*
X036219Y010114D01*
X036228Y010106D01*
X036240Y010106D01*
X036294Y010053D01*
X036414Y009955D01*
X036430Y010109D01*
X036430Y010185D01*
X036439Y010194D01*
X036440Y010206D01*
X036499Y010254D01*
X036553Y010308D01*
X036565Y010308D01*
X036574Y010315D01*
X036650Y010308D01*
X036869Y010308D01*
X036945Y010315D01*
X036954Y010308D01*
X036966Y010308D01*
X037020Y010254D01*
X037079Y010206D01*
X037080Y010194D01*
X037089Y010185D01*
X037089Y010109D01*
X037105Y009955D01*
X037225Y010053D01*
X037279Y010106D01*
X037291Y010106D01*
X037300Y010114D01*
X037376Y010106D01*
X037452Y010106D01*
X037461Y010098D01*
X037473Y010097D01*
X037521Y010037D01*
X037676Y009883D01*
X037735Y009835D01*
X037736Y009823D01*
X037745Y009814D01*
X037745Y009738D01*
X037752Y009662D01*
X037745Y009653D01*
X037745Y009640D01*
X037691Y009587D01*
X037593Y009466D01*
X037747Y009451D01*
X037823Y009451D01*
X037832Y009442D01*
X037844Y009441D01*
X037892Y009382D01*
X037938Y009336D01*
X037938Y010363D01*
X032015Y010363D01*
X032166Y010212D01*
X032250Y010009D01*
X032250Y009791D01*
X032166Y009588D01*
X032012Y009434D01*
X031809Y009350D01*
X031591Y009350D01*
X031388Y009434D01*
X031234Y009588D01*
X031200Y009670D01*
X031166Y009588D01*
X031012Y009434D01*
X030809Y009350D01*
X030591Y009350D01*
X030388Y009434D01*
X030234Y009588D01*
X030150Y009791D01*
X030150Y010009D01*
X030234Y010212D01*
X030385Y010363D01*
X024415Y010363D01*
X024566Y010212D01*
X024650Y010009D01*
X024650Y009791D01*
X024566Y009588D01*
X024412Y009434D01*
X024209Y009350D01*
X023991Y009350D01*
X023788Y009434D01*
X023634Y009588D01*
X023600Y009670D01*
X023566Y009588D01*
X023412Y009434D01*
X023209Y009350D01*
X022991Y009350D01*
X022788Y009434D01*
X022634Y009588D01*
X022550Y009791D01*
X022550Y010009D01*
X022634Y010212D01*
X022785Y010363D01*
X016815Y010363D01*
X016966Y010212D01*
X017050Y010009D01*
X017050Y009791D01*
X016966Y009588D01*
X016812Y009434D01*
X016609Y009350D01*
X016391Y009350D01*
X016188Y009434D01*
X016034Y009588D01*
X016000Y009670D01*
X015966Y009588D01*
X015812Y009434D01*
X015609Y009350D01*
X015391Y009350D01*
X015188Y009434D01*
X015034Y009588D01*
X014950Y009791D01*
X014950Y010009D01*
X015034Y010212D01*
X015185Y010363D01*
X009215Y010363D01*
X009366Y010212D01*
X009450Y010009D01*
X009450Y009791D01*
X009366Y009588D01*
X009212Y009434D01*
X009009Y009350D01*
X008791Y009350D01*
X008588Y009434D01*
X008434Y009588D01*
X008400Y009670D01*
X008366Y009588D01*
X008212Y009434D01*
X008009Y009350D01*
X007791Y009350D01*
X007588Y009434D01*
X007434Y009588D01*
X007350Y009791D01*
X007350Y010009D01*
X007434Y010212D01*
X007585Y010363D01*
X005442Y010363D01*
X005482Y010346D01*
X005636Y010192D01*
X005720Y009989D01*
X005720Y009771D01*
X005636Y009568D01*
X005482Y009414D01*
X005279Y009330D01*
X005061Y009330D01*
X004858Y009414D01*
X004704Y009568D01*
X004680Y009626D01*
X004658Y009581D01*
X004605Y009509D01*
X004541Y009445D01*
X004469Y009392D01*
X004389Y009352D01*
X004303Y009324D01*
X004215Y009310D01*
X004170Y009310D01*
X004170Y009880D01*
X004170Y009880D01*
X003600Y009880D01*
X003600Y009925D01*
X003614Y010013D01*
X003642Y010099D01*
X003682Y010179D01*
X003735Y010251D01*
X003799Y010315D01*
X003864Y010363D01*
X001000Y010363D01*
X001000Y003452D01*
X001022Y003519D01*
X001062Y003599D01*
X001115Y003671D01*
X001179Y003735D01*
X001251Y003788D01*
X001296Y003810D01*
X001238Y003834D01*
X001084Y003988D01*
X001000Y004191D01*
X001000Y004409D01*
X001084Y004612D01*
X001120Y004648D01*
X001120Y005836D01*
X001185Y005994D01*
X001306Y006115D01*
X001491Y006299D01*
X001649Y006364D01*
X001649Y006364D01*
X001720Y006394D01*
X003232Y006394D01*
X003342Y006584D01*
X003530Y006772D01*
X003760Y006905D01*
X004017Y006974D01*
X004283Y006974D01*
X004540Y006905D01*
X004770Y006772D01*
X004958Y006584D01*
X005091Y006354D01*
X005160Y006097D01*
X005160Y005831D01*
X005091Y005574D01*
X005081Y005556D01*
X005434Y005703D01*
X005828Y005703D01*
X006192Y005552D01*
X006470Y005273D01*
X006621Y004910D01*
X006621Y004516D01*
X006470Y004152D01*
X006192Y003873D01*
X005828Y003723D01*
X005434Y003723D01*
X005070Y003873D01*
X004792Y004152D01*
X004641Y004516D01*
X004641Y004910D01*
X004734Y005135D01*
X004540Y005023D01*
X004283Y004954D01*
X004017Y004954D01*
X003760Y005023D01*
X003530Y005156D01*
X003342Y005344D01*
X003232Y005534D01*
X001980Y005534D01*
X001980Y004648D01*
X002016Y004612D01*
X002100Y004409D01*
X002100Y004191D01*
X002016Y003988D01*
X001862Y003834D01*
X001804Y003810D01*
X001849Y003788D01*
X001921Y003735D01*
X001985Y003671D01*
X002038Y003599D01*
X002078Y003519D01*
X002106Y003433D01*
X002120Y003345D01*
X002120Y003300D01*
X001550Y003300D01*
X001550Y003300D01*
X002120Y003300D01*
X002120Y003255D01*
X002106Y003167D01*
X002078Y003081D01*
X002038Y003001D01*
X001985Y002929D01*
X001921Y002865D01*
X001849Y002812D01*
X001769Y002772D01*
X001683Y002744D01*
X001595Y002730D01*
X001550Y002730D01*
X001550Y003300D01*
X001550Y003300D01*
X001550Y002730D01*
X001505Y002730D01*
X001417Y002744D01*
X001331Y002772D01*
X001251Y002812D01*
X001179Y002865D01*
X001115Y002929D01*
X001062Y003001D01*
X001022Y003081D01*
X001000Y003148D01*
X001000Y002947D02*
X001102Y002947D01*
X001000Y002708D02*
X003221Y002708D01*
X003225Y002694D02*
X003275Y002592D01*
X003335Y002496D01*
X003406Y002407D01*
X003486Y002327D01*
X003575Y002256D01*
X003671Y002196D01*
X003773Y002147D01*
X003880Y002109D01*
X003991Y002084D01*
X004040Y002079D01*
X004040Y002961D01*
X004280Y002961D01*
X004280Y002079D01*
X004329Y002084D01*
X004440Y002109D01*
X004547Y002147D01*
X004649Y002196D01*
X004745Y002256D01*
X004834Y002327D01*
X004914Y002407D01*
X004985Y002496D01*
X005045Y002592D01*
X005095Y002694D01*
X005132Y002801D01*
X005157Y002912D01*
X005163Y002961D01*
X004280Y002961D01*
X004280Y003201D01*
X005163Y003201D01*
X005157Y003251D01*
X005132Y003362D01*
X005095Y003469D01*
X005045Y003571D01*
X004985Y003667D01*
X004914Y003756D01*
X004834Y003836D01*
X004745Y003907D01*
X004649Y003967D01*
X004547Y004016D01*
X004440Y004054D01*
X004329Y004079D01*
X004280Y004084D01*
X004280Y003202D01*
X004040Y003202D01*
X004040Y004084D01*
X003991Y004079D01*
X003880Y004054D01*
X003773Y004016D01*
X003671Y003967D01*
X003575Y003907D01*
X003486Y003836D01*
X003406Y003756D01*
X003335Y003667D01*
X003275Y003571D01*
X003225Y003469D01*
X003188Y003362D01*
X003163Y003251D01*
X003157Y003201D01*
X004040Y003201D01*
X004040Y002961D01*
X003157Y002961D01*
X003163Y002912D01*
X003188Y002801D01*
X003225Y002694D01*
X003356Y002470D02*
X001000Y002470D01*
X001000Y002231D02*
X003615Y002231D01*
X004040Y002231D02*
X004280Y002231D01*
X004280Y002470D02*
X004040Y002470D01*
X004040Y002708D02*
X004280Y002708D01*
X004280Y002947D02*
X004040Y002947D01*
X004040Y003185D02*
X002109Y003185D01*
X002108Y003424D02*
X003210Y003424D01*
X003332Y003662D02*
X001992Y003662D01*
X001928Y003901D02*
X003567Y003901D01*
X004040Y003901D02*
X004280Y003901D01*
X004280Y003662D02*
X004040Y003662D01*
X004040Y003424D02*
X004280Y003424D01*
X004280Y003185D02*
X037938Y003185D01*
X037938Y002947D02*
X005161Y002947D01*
X005099Y002708D02*
X037938Y002708D01*
X037938Y002470D02*
X004964Y002470D01*
X004705Y002231D02*
X037938Y002231D01*
X037938Y001993D02*
X001000Y001993D01*
X001000Y001754D02*
X037938Y001754D01*
X037938Y001516D02*
X001000Y001516D01*
X001000Y001277D02*
X037938Y001277D01*
X037938Y003424D02*
X005110Y003424D01*
X004988Y003662D02*
X037938Y003662D01*
X037938Y003901D02*
X037216Y003901D01*
X037208Y003892D02*
X037443Y004127D01*
X037570Y004434D01*
X037570Y004766D01*
X037443Y005073D01*
X037208Y005308D01*
X036901Y005435D01*
X036569Y005435D01*
X036262Y005308D01*
X036027Y005073D01*
X035900Y004766D01*
X035900Y004434D01*
X036027Y004127D01*
X036262Y003892D01*
X036569Y003765D01*
X036901Y003765D01*
X037208Y003892D01*
X037448Y004139D02*
X037938Y004139D01*
X037938Y004378D02*
X037547Y004378D01*
X037570Y004616D02*
X037938Y004616D01*
X037938Y004855D02*
X037533Y004855D01*
X037423Y005093D02*
X037938Y005093D01*
X037938Y005332D02*
X037151Y005332D01*
X037938Y005570D02*
X034986Y005570D01*
X034953Y005491D02*
X035025Y005665D01*
X035025Y005855D01*
X034953Y006029D01*
X034900Y006082D01*
X034900Y006625D01*
X034795Y006730D01*
X034295Y006730D01*
X034190Y006625D01*
X034190Y006072D01*
X034150Y006032D01*
X034110Y006072D01*
X034110Y006625D01*
X034005Y006730D01*
X033505Y006730D01*
X033400Y006625D01*
X033400Y006082D01*
X033360Y006042D01*
X033330Y006072D01*
X033330Y006625D01*
X033225Y006730D01*
X032725Y006730D01*
X032620Y006625D01*
X032620Y006082D01*
X032567Y006029D01*
X032495Y005855D01*
X032495Y005665D01*
X032567Y005491D01*
X032620Y005438D01*
X032620Y005295D01*
X032725Y005190D01*
X033225Y005190D01*
X033330Y005295D01*
X033330Y005448D01*
X033360Y005478D01*
X033400Y005438D01*
X033400Y005295D01*
X033505Y005190D01*
X034005Y005190D01*
X034110Y005295D01*
X034110Y005448D01*
X034150Y005488D01*
X034190Y005448D01*
X034190Y005295D01*
X034295Y005190D01*
X034795Y005190D01*
X034900Y005295D01*
X034900Y005438D01*
X034953Y005491D01*
X034900Y005332D02*
X036319Y005332D01*
X036047Y005093D02*
X032253Y005093D01*
X032273Y005073D02*
X032038Y005308D01*
X031731Y005435D01*
X031399Y005435D01*
X031092Y005308D01*
X030857Y005073D01*
X030730Y004766D01*
X030730Y004434D01*
X030857Y004127D01*
X031092Y003892D01*
X031399Y003765D01*
X031731Y003765D01*
X032038Y003892D01*
X032273Y004127D01*
X032400Y004434D01*
X032400Y004766D01*
X032273Y005073D01*
X032363Y004855D02*
X035937Y004855D01*
X035900Y004616D02*
X032400Y004616D01*
X032377Y004378D02*
X035923Y004378D01*
X036022Y004139D02*
X032278Y004139D01*
X032046Y003901D02*
X036254Y003901D01*
X035025Y005809D02*
X037938Y005809D01*
X037938Y006047D02*
X034935Y006047D01*
X034900Y006286D02*
X037938Y006286D01*
X037938Y006524D02*
X034900Y006524D01*
X034190Y006524D02*
X034110Y006524D01*
X034110Y006286D02*
X034190Y006286D01*
X034165Y006047D02*
X034135Y006047D01*
X034110Y005332D02*
X034190Y005332D01*
X033400Y005332D02*
X033330Y005332D01*
X032620Y005332D02*
X031981Y005332D01*
X032534Y005570D02*
X027336Y005570D01*
X027303Y005491D02*
X027375Y005665D01*
X027375Y005855D01*
X027303Y006029D01*
X027250Y006082D01*
X027250Y006625D01*
X027145Y006730D01*
X026645Y006730D01*
X026540Y006625D01*
X026540Y006072D01*
X026500Y006032D01*
X026460Y006072D01*
X026460Y006625D01*
X026355Y006730D01*
X025855Y006730D01*
X025750Y006625D01*
X025750Y006082D01*
X025710Y006042D01*
X025680Y006072D01*
X025680Y006625D01*
X025575Y006730D01*
X025075Y006730D01*
X024970Y006625D01*
X024970Y006082D01*
X024917Y006029D01*
X024845Y005855D01*
X024845Y005665D01*
X024917Y005491D01*
X024970Y005438D01*
X024970Y005295D01*
X025075Y005190D01*
X025575Y005190D01*
X025680Y005295D01*
X025680Y005448D01*
X025710Y005478D01*
X025750Y005438D01*
X025750Y005295D01*
X025855Y005190D01*
X026355Y005190D01*
X026460Y005295D01*
X026460Y005448D01*
X026500Y005488D01*
X026540Y005448D01*
X026540Y005295D01*
X026645Y005190D01*
X027145Y005190D01*
X027250Y005295D01*
X027250Y005438D01*
X027303Y005491D01*
X027250Y005332D02*
X028669Y005332D01*
X028612Y005308D02*
X028377Y005073D01*
X028250Y004766D01*
X028250Y004434D01*
X028377Y004127D01*
X028612Y003892D01*
X028919Y003765D01*
X029251Y003765D01*
X029558Y003892D01*
X029793Y004127D01*
X029920Y004434D01*
X029920Y004766D01*
X029793Y005073D01*
X029558Y005308D01*
X029251Y005435D01*
X028919Y005435D01*
X028612Y005308D01*
X028397Y005093D02*
X024603Y005093D01*
X024623Y005073D02*
X024388Y005308D01*
X024081Y005435D01*
X023749Y005435D01*
X023442Y005308D01*
X023207Y005073D01*
X023080Y004766D01*
X023080Y004434D01*
X023207Y004127D01*
X023442Y003892D01*
X023749Y003765D01*
X024081Y003765D01*
X024388Y003892D01*
X024623Y004127D01*
X024750Y004434D01*
X024750Y004766D01*
X024623Y005073D01*
X024713Y004855D02*
X028287Y004855D01*
X028250Y004616D02*
X024750Y004616D01*
X024727Y004378D02*
X028273Y004378D01*
X028372Y004139D02*
X024628Y004139D01*
X024396Y003901D02*
X028604Y003901D01*
X029566Y003901D02*
X031084Y003901D01*
X030852Y004139D02*
X029798Y004139D01*
X029897Y004378D02*
X030753Y004378D01*
X030730Y004616D02*
X029920Y004616D01*
X029883Y004855D02*
X030767Y004855D01*
X030877Y005093D02*
X029773Y005093D01*
X029501Y005332D02*
X031149Y005332D01*
X032495Y005809D02*
X027375Y005809D01*
X027285Y006047D02*
X032585Y006047D01*
X032620Y006286D02*
X027250Y006286D01*
X027250Y006524D02*
X032620Y006524D01*
X033330Y006524D02*
X033400Y006524D01*
X033400Y006286D02*
X033330Y006286D01*
X033355Y006047D02*
X033365Y006047D01*
X035774Y008432D02*
X001000Y008432D01*
X001000Y008194D02*
X036007Y008194D01*
X036298Y008194D02*
X037220Y008194D01*
X037512Y008194D02*
X037938Y008194D01*
X037938Y008432D02*
X037745Y008432D01*
X037679Y008671D02*
X037938Y008671D01*
X037938Y009386D02*
X037889Y009386D01*
X037938Y009625D02*
X037729Y009625D01*
X037700Y009863D02*
X037938Y009863D01*
X037938Y010102D02*
X037457Y010102D01*
X037274Y010102D02*
X037090Y010102D01*
X036429Y010102D02*
X036245Y010102D01*
X036062Y010102D02*
X032212Y010102D01*
X032250Y009863D02*
X035819Y009863D01*
X035790Y009625D02*
X032181Y009625D01*
X031896Y009386D02*
X035630Y009386D01*
X035573Y009148D02*
X001000Y009148D01*
X001000Y009386D02*
X003884Y009386D01*
X003871Y009392D02*
X003951Y009352D01*
X004037Y009324D01*
X004125Y009310D01*
X004170Y009310D01*
X004170Y009880D01*
X004170Y009880D01*
X003600Y009880D01*
X003600Y009835D01*
X003614Y009747D01*
X003642Y009661D01*
X003682Y009581D01*
X003735Y009509D01*
X003799Y009445D01*
X003871Y009392D01*
X004170Y009386D02*
X004170Y009386D01*
X004170Y009625D02*
X004170Y009625D01*
X004170Y009863D02*
X004170Y009863D01*
X004456Y009386D02*
X004925Y009386D01*
X004681Y009625D02*
X004680Y009625D01*
X005415Y009386D02*
X007704Y009386D01*
X007419Y009625D02*
X005659Y009625D01*
X005720Y009863D02*
X007350Y009863D01*
X007388Y010102D02*
X005674Y010102D01*
X005488Y010340D02*
X007562Y010340D01*
X008381Y009625D02*
X008419Y009625D01*
X008704Y009386D02*
X008096Y009386D01*
X009096Y009386D02*
X015304Y009386D01*
X015019Y009625D02*
X009381Y009625D01*
X009450Y009863D02*
X014950Y009863D01*
X014988Y010102D02*
X009412Y010102D01*
X009238Y010340D02*
X015162Y010340D01*
X015981Y009625D02*
X016019Y009625D01*
X016304Y009386D02*
X015696Y009386D01*
X016696Y009386D02*
X022904Y009386D01*
X022619Y009625D02*
X016981Y009625D01*
X017050Y009863D02*
X022550Y009863D01*
X022588Y010102D02*
X017012Y010102D01*
X016838Y010340D02*
X022762Y010340D01*
X023581Y009625D02*
X023619Y009625D01*
X023904Y009386D02*
X023296Y009386D01*
X024296Y009386D02*
X030504Y009386D01*
X030219Y009625D02*
X024581Y009625D01*
X024650Y009863D02*
X030150Y009863D01*
X030188Y010102D02*
X024612Y010102D01*
X024438Y010340D02*
X030362Y010340D01*
X031181Y009625D02*
X031219Y009625D01*
X031504Y009386D02*
X030896Y009386D01*
X032038Y010340D02*
X037938Y010340D01*
X037938Y010937D02*
X001000Y010937D01*
X001000Y012998D01*
X001022Y012931D01*
X001062Y012851D01*
X001115Y012779D01*
X001179Y012715D01*
X001251Y012662D01*
X001331Y012622D01*
X001417Y012594D01*
X001505Y012580D01*
X001550Y012580D01*
X001595Y012580D01*
X001683Y012594D01*
X001769Y012622D01*
X001849Y012662D01*
X001921Y012715D01*
X001985Y012779D01*
X002038Y012851D01*
X002078Y012931D01*
X002106Y013017D01*
X002120Y013105D01*
X002120Y013150D01*
X002120Y013195D01*
X002106Y013283D01*
X002078Y013369D01*
X002038Y013449D01*
X001985Y013521D01*
X001921Y013585D01*
X001849Y013638D01*
X001804Y013660D01*
X001862Y013684D01*
X002016Y013838D01*
X002100Y014041D01*
X002100Y014259D01*
X002016Y014462D01*
X001980Y014498D01*
X001980Y015384D01*
X003232Y015384D01*
X003342Y015194D01*
X003530Y015006D01*
X003760Y014873D01*
X004017Y014804D01*
X004283Y014804D01*
X004540Y014873D01*
X004734Y014985D01*
X004641Y014760D01*
X004641Y014366D01*
X004792Y014002D01*
X005070Y013723D01*
X005434Y013573D01*
X005828Y013573D01*
X006192Y013723D01*
X006470Y014002D01*
X006621Y014366D01*
X006621Y014760D01*
X006470Y015123D01*
X006192Y015402D01*
X005828Y015553D01*
X005434Y015553D01*
X005081Y015406D01*
X005091Y015424D01*
X005160Y015681D01*
X005160Y015947D01*
X005091Y016204D01*
X004958Y016434D01*
X004770Y016622D01*
X004540Y016755D01*
X004283Y016824D01*
X004017Y016824D01*
X003760Y016755D01*
X003530Y016622D01*
X003342Y016434D01*
X003232Y016244D01*
X001720Y016244D01*
X001649Y016214D01*
X001649Y016214D01*
X001491Y016149D01*
X001306Y015965D01*
X001185Y015844D01*
X001120Y015686D01*
X001120Y014498D01*
X001084Y014462D01*
X001000Y014259D01*
X001000Y014041D01*
X001084Y013838D01*
X001238Y013684D01*
X001296Y013660D01*
X001251Y013638D01*
X001179Y013585D01*
X001115Y013521D01*
X001062Y013449D01*
X001022Y013369D01*
X001000Y013302D01*
X001000Y020213D01*
X003864Y020213D01*
X003799Y020165D01*
X003735Y020101D01*
X003682Y020029D01*
X003642Y019949D01*
X003614Y019863D01*
X003600Y019775D01*
X003600Y019730D01*
X004170Y019730D01*
X004170Y019730D01*
X004170Y019160D01*
X004215Y019160D01*
X004303Y019174D01*
X004389Y019202D01*
X004469Y019242D01*
X004541Y019295D01*
X004605Y019359D01*
X004658Y019431D01*
X004680Y019476D01*
X004704Y019418D01*
X004858Y019264D01*
X005061Y019180D01*
X005279Y019180D01*
X005482Y019264D01*
X005636Y019418D01*
X005720Y019621D01*
X005720Y019839D01*
X005636Y020042D01*
X005482Y020196D01*
X005442Y020213D01*
X007585Y020213D01*
X007434Y020062D01*
X007350Y019859D01*
X007350Y019641D01*
X007434Y019438D01*
X007588Y019284D01*
X007791Y019200D01*
X008009Y019200D01*
X008212Y019284D01*
X008366Y019438D01*
X008400Y019520D01*
X008434Y019438D01*
X008588Y019284D01*
X008791Y019200D01*
X009009Y019200D01*
X009212Y019284D01*
X009366Y019438D01*
X009450Y019641D01*
X009450Y019859D01*
X009366Y020062D01*
X009215Y020213D01*
X015185Y020213D01*
X015034Y020062D01*
X014950Y019859D01*
X014950Y019641D01*
X015034Y019438D01*
X015188Y019284D01*
X015391Y019200D01*
X015609Y019200D01*
X015812Y019284D01*
X015966Y019438D01*
X016000Y019520D01*
X016034Y019438D01*
X016188Y019284D01*
X016391Y019200D01*
X016609Y019200D01*
X016812Y019284D01*
X016966Y019438D01*
X017050Y019641D01*
X017050Y019859D01*
X016966Y020062D01*
X016815Y020213D01*
X022785Y020213D01*
X022634Y020062D01*
X022550Y019859D01*
X022550Y019641D01*
X022634Y019438D01*
X022788Y019284D01*
X022991Y019200D01*
X023209Y019200D01*
X023412Y019284D01*
X023566Y019438D01*
X023600Y019520D01*
X023634Y019438D01*
X023788Y019284D01*
X023991Y019200D01*
X024209Y019200D01*
X024412Y019284D01*
X024566Y019438D01*
X024650Y019641D01*
X024650Y019859D01*
X024566Y020062D01*
X024415Y020213D01*
X030385Y020213D01*
X030234Y020062D01*
X030150Y019859D01*
X030150Y019641D01*
X030234Y019438D01*
X030388Y019284D01*
X030591Y019200D01*
X030809Y019200D01*
X031012Y019284D01*
X031166Y019438D01*
X031200Y019520D01*
X031234Y019438D01*
X031388Y019284D01*
X031591Y019200D01*
X031809Y019200D01*
X032012Y019284D01*
X032166Y019438D01*
X032250Y019641D01*
X032250Y019859D01*
X032166Y020062D01*
X032015Y020213D01*
X037938Y020213D01*
X037938Y019186D01*
X037892Y019232D01*
X037844Y019291D01*
X037832Y019292D01*
X037823Y019301D01*
X037747Y019301D01*
X037593Y019316D01*
X037691Y019437D01*
X037745Y019490D01*
X037745Y019503D01*
X037752Y019512D01*
X037745Y019588D01*
X037745Y019664D01*
X037736Y019673D01*
X037735Y019685D01*
X037676Y019733D01*
X037521Y019887D01*
X037473Y019947D01*
X037461Y019948D01*
X037452Y019956D01*
X037376Y019956D01*
X037300Y019964D01*
X037291Y019956D01*
X037279Y019956D01*
X037225Y019903D01*
X037105Y019805D01*
X037089Y019959D01*
X037089Y020035D01*
X037080Y020044D01*
X037079Y020056D01*
X037020Y020104D01*
X036966Y020158D01*
X036954Y020158D01*
X036945Y020165D01*
X036869Y020158D01*
X036650Y020158D01*
X036574Y020165D01*
X036565Y020158D01*
X036553Y020158D01*
X036499Y020104D01*
X036440Y020056D01*
X036439Y020044D01*
X036430Y020035D01*
X036430Y019959D01*
X036414Y019805D01*
X036294Y019903D01*
X036240Y019956D01*
X036228Y019956D01*
X036219Y019964D01*
X036143Y019956D01*
X036067Y019956D01*
X036058Y019948D01*
X036046Y019947D01*
X035998Y019887D01*
X035843Y019733D01*
X035784Y019685D01*
X035783Y019673D01*
X035774Y019664D01*
X035774Y019588D01*
X035767Y019512D01*
X035774Y019503D01*
X035774Y019490D01*
X035828Y019437D01*
X035926Y019316D01*
X035772Y019301D01*
X035696Y019301D01*
X035687Y019292D01*
X035675Y019291D01*
X035627Y019232D01*
X035573Y019178D01*
X035573Y019166D01*
X035565Y019156D01*
X035573Y019081D01*
X035573Y018862D01*
X035565Y018786D01*
X035573Y018777D01*
X035573Y018765D01*
X035627Y018711D01*
X035675Y018652D01*
X035687Y018650D01*
X035696Y018642D01*
X035772Y018642D01*
X035926Y018626D01*
X035828Y018506D01*
X035774Y018452D01*
X035774Y018440D01*
X035767Y018430D01*
X035774Y018355D01*
X035774Y018278D01*
X035783Y018270D01*
X035784Y018258D01*
X035843Y018210D01*
X035998Y018055D01*
X036046Y017996D01*
X036058Y017995D01*
X036067Y017986D01*
X036143Y017986D01*
X036219Y017978D01*
X036228Y017986D01*
X036240Y017986D01*
X036294Y018040D01*
X036427Y018148D01*
X036482Y018120D01*
X036491Y018123D01*
X036500Y018119D01*
X036573Y018149D01*
X036647Y018173D01*
X036652Y018182D01*
X036661Y018186D01*
X036691Y018258D01*
X036726Y018327D01*
X036723Y018337D01*
X036759Y018424D01*
X036795Y018337D01*
X036792Y018327D01*
X036828Y018258D01*
X036858Y018186D01*
X036867Y018182D01*
X036872Y018173D01*
X036946Y018149D01*
X037018Y018119D01*
X037028Y018123D01*
X037037Y018120D01*
X037092Y018148D01*
X037225Y018040D01*
X037279Y017986D01*
X037291Y017986D01*
X037300Y017978D01*
X037376Y017986D01*
X037452Y017986D01*
X037461Y017995D01*
X037473Y017996D01*
X037521Y018055D01*
X037676Y018210D01*
X037735Y018258D01*
X037736Y018270D01*
X037745Y018278D01*
X037745Y018355D01*
X037752Y018430D01*
X037745Y018440D01*
X037745Y018452D01*
X037691Y018506D01*
X037593Y018626D01*
X037747Y018642D01*
X037823Y018642D01*
X037832Y018650D01*
X037844Y018652D01*
X037892Y018711D01*
X037938Y018756D01*
X037938Y010937D01*
X037938Y011056D02*
X001000Y011056D01*
X001000Y011294D02*
X037938Y011294D01*
X037938Y011533D02*
X001000Y011533D01*
X001000Y011771D02*
X037938Y011771D01*
X037938Y012010D02*
X004573Y012010D01*
X004547Y011997D02*
X004649Y012046D01*
X004745Y012106D01*
X004834Y012177D01*
X004914Y012257D01*
X004985Y012346D01*
X005045Y012442D01*
X005095Y012544D01*
X005132Y012651D01*
X005157Y012762D01*
X005163Y012811D01*
X004280Y012811D01*
X004280Y011929D01*
X004329Y011934D01*
X004440Y011959D01*
X004547Y011997D01*
X004280Y012010D02*
X004040Y012010D01*
X004040Y011929D02*
X004040Y012811D01*
X004280Y012811D01*
X004280Y013051D01*
X005163Y013051D01*
X005157Y013101D01*
X005132Y013212D01*
X005095Y013319D01*
X005045Y013421D01*
X004985Y013517D01*
X004914Y013606D01*
X004834Y013686D01*
X004745Y013757D01*
X004649Y013817D01*
X004547Y013866D01*
X004440Y013904D01*
X004329Y013929D01*
X004280Y013934D01*
X004280Y013052D01*
X004040Y013052D01*
X004040Y013934D01*
X003991Y013929D01*
X003880Y013904D01*
X003773Y013866D01*
X003671Y013817D01*
X003575Y013757D01*
X003486Y013686D01*
X003406Y013606D01*
X003335Y013517D01*
X003275Y013421D01*
X003225Y013319D01*
X003188Y013212D01*
X003163Y013101D01*
X003157Y013051D01*
X004040Y013051D01*
X004040Y012811D01*
X003157Y012811D01*
X003163Y012762D01*
X003188Y012651D01*
X003225Y012544D01*
X003275Y012442D01*
X003335Y012346D01*
X003406Y012257D01*
X003486Y012177D01*
X003575Y012106D01*
X003671Y012046D01*
X003773Y011997D01*
X003880Y011959D01*
X003991Y011934D01*
X004040Y011929D01*
X003747Y012010D02*
X001000Y012010D01*
X001000Y012248D02*
X003415Y012248D01*
X003253Y012487D02*
X001000Y012487D01*
X001000Y012725D02*
X001169Y012725D01*
X001011Y012964D02*
X001000Y012964D01*
X001000Y013441D02*
X001058Y013441D01*
X001000Y013679D02*
X001250Y013679D01*
X001051Y013918D02*
X001000Y013918D01*
X001000Y014395D02*
X001056Y014395D01*
X001000Y014633D02*
X001120Y014633D01*
X001120Y014872D02*
X001000Y014872D01*
X001000Y015110D02*
X001120Y015110D01*
X001120Y015349D02*
X001000Y015349D01*
X001000Y015587D02*
X001120Y015587D01*
X001178Y015826D02*
X001000Y015826D01*
X001000Y016064D02*
X001406Y016064D01*
X001000Y016303D02*
X003266Y016303D01*
X003449Y016541D02*
X001000Y016541D01*
X001000Y016780D02*
X003852Y016780D01*
X004448Y016780D02*
X037938Y016780D01*
X037938Y017018D02*
X001000Y017018D01*
X001000Y017257D02*
X037938Y017257D01*
X037938Y017495D02*
X001000Y017495D01*
X001000Y017734D02*
X037938Y017734D01*
X037938Y017972D02*
X001000Y017972D01*
X001000Y018211D02*
X035842Y018211D01*
X035774Y018449D02*
X001000Y018449D01*
X001000Y018688D02*
X035646Y018688D01*
X035573Y018926D02*
X001000Y018926D01*
X001000Y019165D02*
X004097Y019165D01*
X004125Y019160D02*
X004037Y019174D01*
X003951Y019202D01*
X003871Y019242D01*
X003799Y019295D01*
X003735Y019359D01*
X003682Y019431D01*
X003642Y019511D01*
X003614Y019597D01*
X003600Y019685D01*
X003600Y019730D01*
X004170Y019730D01*
X004170Y019730D01*
X004170Y019160D01*
X004125Y019160D01*
X004170Y019165D02*
X004170Y019165D01*
X004243Y019165D02*
X035572Y019165D01*
X035856Y019403D02*
X032131Y019403D01*
X032250Y019642D02*
X035774Y019642D01*
X035990Y019880D02*
X032241Y019880D01*
X032109Y020119D02*
X036514Y020119D01*
X036422Y019880D02*
X036322Y019880D01*
X037005Y020119D02*
X037938Y020119D01*
X037938Y019880D02*
X037529Y019880D01*
X037745Y019642D02*
X037938Y019642D01*
X037938Y019403D02*
X037663Y019403D01*
X037197Y019880D02*
X037097Y019880D01*
X037938Y020787D02*
X001000Y020787D01*
X001000Y022848D01*
X001022Y022781D01*
X001062Y022701D01*
X001115Y022629D01*
X001179Y022565D01*
X001251Y022512D01*
X001331Y022472D01*
X001417Y022444D01*
X001505Y022430D01*
X001550Y022430D01*
X001595Y022430D01*
X001683Y022444D01*
X001769Y022472D01*
X001849Y022512D01*
X001921Y022565D01*
X001985Y022629D01*
X002038Y022701D01*
X002078Y022781D01*
X002106Y022867D01*
X002120Y022955D01*
X002120Y023000D01*
X002120Y023045D01*
X002106Y023133D01*
X002078Y023219D01*
X003250Y023219D01*
X003225Y023169D02*
X003188Y023062D01*
X003163Y022951D01*
X003157Y022901D01*
X004040Y022901D01*
X004040Y022661D01*
X004280Y022661D01*
X004280Y021779D01*
X004329Y021784D01*
X004440Y021809D01*
X004547Y021847D01*
X004649Y021896D01*
X004745Y021956D01*
X004834Y022027D01*
X004914Y022107D01*
X004985Y022196D01*
X005045Y022292D01*
X005095Y022394D01*
X005132Y022501D01*
X005157Y022612D01*
X005163Y022661D01*
X004280Y022661D01*
X004280Y022901D01*
X005163Y022901D01*
X005157Y022951D01*
X005132Y023062D01*
X005095Y023169D01*
X005045Y023271D01*
X004985Y023367D01*
X004914Y023456D01*
X004834Y023536D01*
X004745Y023607D01*
X004649Y023667D01*
X004547Y023716D01*
X004440Y023754D01*
X004329Y023779D01*
X004280Y023784D01*
X004280Y022902D01*
X004040Y022902D01*
X004040Y023784D01*
X003991Y023779D01*
X003880Y023754D01*
X003773Y023716D01*
X003671Y023667D01*
X003575Y023607D01*
X003486Y023536D01*
X003406Y023456D01*
X003335Y023367D01*
X003275Y023271D01*
X003225Y023169D01*
X003169Y022981D02*
X002120Y022981D01*
X002120Y023000D02*
X001550Y023000D01*
X002120Y023000D01*
X002078Y023219D02*
X002038Y023299D01*
X001985Y023371D01*
X001921Y023435D01*
X001849Y023488D01*
X001804Y023510D01*
X001862Y023534D01*
X002016Y023688D01*
X002100Y023891D01*
X002100Y024109D01*
X002016Y024312D01*
X001980Y024348D01*
X001980Y025234D01*
X003232Y025234D01*
X003342Y025044D01*
X003530Y024856D01*
X003760Y024723D01*
X004017Y024654D01*
X004283Y024654D01*
X004540Y024723D01*
X004734Y024835D01*
X004641Y024610D01*
X004641Y024216D01*
X004792Y023852D01*
X005070Y023573D01*
X005434Y023423D01*
X005828Y023423D01*
X006192Y023573D01*
X006470Y023852D01*
X006621Y024216D01*
X006621Y024610D01*
X006470Y024973D01*
X006192Y025252D01*
X005828Y025403D01*
X005434Y025403D01*
X005081Y025256D01*
X005091Y025274D01*
X005160Y025531D01*
X005160Y025797D01*
X005091Y026054D01*
X004958Y026284D01*
X004770Y026472D01*
X004540Y026605D01*
X004283Y026674D01*
X004017Y026674D01*
X003760Y026605D01*
X003530Y026472D01*
X003342Y026284D01*
X003232Y026094D01*
X001720Y026094D01*
X001649Y026064D01*
X001649Y026064D01*
X001491Y025999D01*
X001306Y025815D01*
X001185Y025694D01*
X001120Y025536D01*
X001120Y024348D01*
X001084Y024312D01*
X001000Y024109D01*
X001000Y023891D01*
X001084Y023688D01*
X001238Y023534D01*
X001296Y023510D01*
X001251Y023488D01*
X001179Y023435D01*
X001115Y023371D01*
X001062Y023299D01*
X001022Y023219D01*
X001000Y023219D01*
X001022Y023219D02*
X001000Y023152D01*
X001000Y030063D01*
X003864Y030063D01*
X003799Y030015D01*
X003735Y029951D01*
X003682Y029879D01*
X003642Y029799D01*
X003614Y029713D01*
X003600Y029625D01*
X003600Y029580D01*
X004170Y029580D01*
X004170Y029580D01*
X004170Y029010D01*
X004215Y029010D01*
X004303Y029024D01*
X004389Y029052D01*
X004469Y029092D01*
X004541Y029145D01*
X004605Y029209D01*
X004658Y029281D01*
X004680Y029326D01*
X004704Y029268D01*
X004858Y029114D01*
X005061Y029030D01*
X005279Y029030D01*
X005482Y029114D01*
X005636Y029268D01*
X005720Y029471D01*
X005720Y029689D01*
X005636Y029892D01*
X005482Y030046D01*
X005442Y030063D01*
X007585Y030063D01*
X007434Y029912D01*
X007350Y029709D01*
X007350Y029491D01*
X007434Y029288D01*
X007588Y029134D01*
X007791Y029050D01*
X008009Y029050D01*
X008212Y029134D01*
X008366Y029288D01*
X008400Y029370D01*
X008434Y029288D01*
X008588Y029134D01*
X008791Y029050D01*
X009009Y029050D01*
X009212Y029134D01*
X009366Y029288D01*
X009450Y029491D01*
X009450Y029709D01*
X009366Y029912D01*
X009215Y030063D01*
X015185Y030063D01*
X015034Y029912D01*
X014950Y029709D01*
X014950Y029491D01*
X015034Y029288D01*
X015188Y029134D01*
X015391Y029050D01*
X015609Y029050D01*
X015812Y029134D01*
X015966Y029288D01*
X016000Y029370D01*
X016034Y029288D01*
X016188Y029134D01*
X016391Y029050D01*
X016609Y029050D01*
X016812Y029134D01*
X016966Y029288D01*
X017050Y029491D01*
X017050Y029709D01*
X016966Y029912D01*
X016815Y030063D01*
X022785Y030063D01*
X022634Y029912D01*
X022550Y029709D01*
X022550Y029491D01*
X022634Y029288D01*
X022788Y029134D01*
X022991Y029050D01*
X023209Y029050D01*
X023412Y029134D01*
X023566Y029288D01*
X023600Y029370D01*
X023634Y029288D01*
X023788Y029134D01*
X023991Y029050D01*
X024209Y029050D01*
X024412Y029134D01*
X024566Y029288D01*
X024650Y029491D01*
X024650Y029709D01*
X024566Y029912D01*
X024415Y030063D01*
X030385Y030063D01*
X030234Y029912D01*
X030150Y029709D01*
X030150Y029491D01*
X030234Y029288D01*
X030388Y029134D01*
X030591Y029050D01*
X030809Y029050D01*
X031012Y029134D01*
X031166Y029288D01*
X031200Y029370D01*
X031234Y029288D01*
X031388Y029134D01*
X031591Y029050D01*
X031809Y029050D01*
X032012Y029134D01*
X032166Y029288D01*
X032250Y029491D01*
X032250Y029709D01*
X032166Y029912D01*
X032015Y030063D01*
X037938Y030063D01*
X037938Y029036D01*
X037892Y029082D01*
X037844Y029141D01*
X037832Y029142D01*
X037823Y029151D01*
X037747Y029151D01*
X037593Y029166D01*
X037691Y029287D01*
X037745Y029340D01*
X037745Y029353D01*
X037752Y029362D01*
X037745Y029438D01*
X037745Y029514D01*
X037736Y029523D01*
X037735Y029535D01*
X037676Y029583D01*
X037521Y029737D01*
X037473Y029797D01*
X037461Y029798D01*
X037452Y029806D01*
X037376Y029806D01*
X037300Y029814D01*
X037291Y029806D01*
X037279Y029806D01*
X037225Y029753D01*
X037105Y029655D01*
X037089Y029809D01*
X037089Y029885D01*
X037080Y029894D01*
X037079Y029906D01*
X037020Y029954D01*
X036966Y030008D01*
X036954Y030008D01*
X036945Y030015D01*
X036869Y030008D01*
X036650Y030008D01*
X036574Y030015D01*
X036565Y030008D01*
X036553Y030008D01*
X036499Y029954D01*
X036440Y029906D01*
X036439Y029894D01*
X036430Y029885D01*
X036430Y029809D01*
X036414Y029655D01*
X036294Y029753D01*
X036240Y029806D01*
X036228Y029806D01*
X036219Y029814D01*
X036143Y029806D01*
X036067Y029806D01*
X036058Y029798D01*
X036046Y029797D01*
X035998Y029737D01*
X035843Y029583D01*
X035784Y029535D01*
X035783Y029523D01*
X035774Y029514D01*
X035774Y029438D01*
X035767Y029362D01*
X035774Y029353D01*
X035774Y029340D01*
X035828Y029287D01*
X035926Y029166D01*
X035772Y029151D01*
X035696Y029151D01*
X035687Y029142D01*
X035675Y029141D01*
X035627Y029082D01*
X035573Y029028D01*
X035573Y029016D01*
X035565Y029006D01*
X035573Y028931D01*
X035573Y028712D01*
X035565Y028636D01*
X035573Y028627D01*
X035573Y028615D01*
X035627Y028561D01*
X035675Y028502D01*
X035687Y028500D01*
X035696Y028492D01*
X035772Y028492D01*
X035926Y028476D01*
X035828Y028356D01*
X035774Y028302D01*
X035774Y028290D01*
X035767Y028280D01*
X035774Y028205D01*
X035774Y028128D01*
X035783Y028120D01*
X035784Y028108D01*
X035843Y028060D01*
X035998Y027905D01*
X036046Y027846D01*
X036058Y027845D01*
X036067Y027836D01*
X036143Y027836D01*
X036219Y027828D01*
X036228Y027836D01*
X036240Y027836D01*
X036294Y027890D01*
X036427Y027998D01*
X036482Y027970D01*
X036491Y027973D01*
X036500Y027969D01*
X036573Y027999D01*
X036647Y028023D01*
X036652Y028032D01*
X036661Y028036D01*
X036691Y028108D01*
X036726Y028177D01*
X036723Y028187D01*
X036759Y028274D01*
X036795Y028187D01*
X036792Y028177D01*
X036828Y028108D01*
X036858Y028036D01*
X036867Y028032D01*
X036872Y028023D01*
X036946Y027999D01*
X037018Y027969D01*
X037028Y027973D01*
X037037Y027970D01*
X037092Y027998D01*
X037225Y027890D01*
X037279Y027836D01*
X037291Y027836D01*
X037300Y027828D01*
X037376Y027836D01*
X037452Y027836D01*
X037461Y027845D01*
X037473Y027846D01*
X037521Y027905D01*
X037676Y028060D01*
X037735Y028108D01*
X037736Y028120D01*
X037745Y028128D01*
X037745Y028205D01*
X037752Y028280D01*
X037745Y028290D01*
X037745Y028302D01*
X037691Y028356D01*
X037593Y028476D01*
X037747Y028492D01*
X037823Y028492D01*
X037832Y028500D01*
X037844Y028502D01*
X037892Y028561D01*
X037938Y028606D01*
X037938Y020787D01*
X037938Y020834D02*
X001000Y020834D01*
X001000Y021073D02*
X037938Y021073D01*
X037938Y021311D02*
X001000Y021311D01*
X001000Y021550D02*
X037938Y021550D01*
X037938Y021788D02*
X004346Y021788D01*
X004280Y021788D02*
X004040Y021788D01*
X004040Y021779D02*
X004040Y022661D01*
X003157Y022661D01*
X003163Y022612D01*
X003188Y022501D01*
X003225Y022394D01*
X003275Y022292D01*
X003335Y022196D01*
X003406Y022107D01*
X003486Y022027D01*
X003575Y021956D01*
X003671Y021896D01*
X003773Y021847D01*
X003880Y021809D01*
X003991Y021784D01*
X004040Y021779D01*
X003974Y021788D02*
X001000Y021788D01*
X001000Y022027D02*
X003487Y022027D01*
X003292Y022265D02*
X001000Y022265D01*
X001000Y022504D02*
X001269Y022504D01*
X001550Y022504D02*
X001550Y022504D01*
X001550Y022430D02*
X001550Y023000D01*
X001550Y023000D01*
X001550Y023000D01*
X001550Y022430D01*
X001831Y022504D02*
X003187Y022504D01*
X004040Y022504D02*
X004280Y022504D01*
X004280Y022742D02*
X037938Y022742D01*
X037938Y022504D02*
X005133Y022504D01*
X005028Y022265D02*
X037938Y022265D01*
X037938Y022027D02*
X004833Y022027D01*
X004280Y022027D02*
X004040Y022027D01*
X004040Y022265D02*
X004280Y022265D01*
X004040Y022742D02*
X002058Y022742D01*
X001550Y022742D02*
X001550Y022742D01*
X001550Y022981D02*
X001550Y022981D01*
X001042Y022742D02*
X001000Y022742D01*
X001000Y023458D02*
X001210Y023458D01*
X001081Y023696D02*
X001000Y023696D01*
X001000Y024173D02*
X001026Y024173D01*
X001000Y024412D02*
X001120Y024412D01*
X001120Y024650D02*
X001000Y024650D01*
X001000Y024889D02*
X001120Y024889D01*
X001120Y025127D02*
X001000Y025127D01*
X001000Y025366D02*
X001120Y025366D01*
X001148Y025604D02*
X001000Y025604D01*
X001000Y025843D02*
X001334Y025843D01*
X001000Y026081D02*
X001689Y026081D01*
X001000Y026320D02*
X003378Y026320D01*
X003679Y026558D02*
X001000Y026558D01*
X001000Y026797D02*
X037938Y026797D01*
X037938Y027035D02*
X001000Y027035D01*
X001000Y027274D02*
X037938Y027274D01*
X037938Y027512D02*
X001000Y027512D01*
X001000Y027751D02*
X037938Y027751D01*
X037938Y027989D02*
X037605Y027989D01*
X037747Y028228D02*
X037938Y028228D01*
X037938Y028466D02*
X037601Y028466D01*
X037103Y027989D02*
X037074Y027989D01*
X036971Y027989D02*
X036548Y027989D01*
X036445Y027989D02*
X036416Y027989D01*
X036740Y028228D02*
X036779Y028228D01*
X035918Y028466D02*
X001000Y028466D01*
X001000Y028228D02*
X035772Y028228D01*
X035914Y027989D02*
X001000Y027989D01*
X001000Y028705D02*
X035572Y028705D01*
X035572Y028943D02*
X001000Y028943D01*
X001000Y029182D02*
X003762Y029182D01*
X003735Y029209D02*
X003799Y029145D01*
X003871Y029092D01*
X003951Y029052D01*
X004037Y029024D01*
X004125Y029010D01*
X004170Y029010D01*
X004170Y029580D01*
X004170Y029580D01*
X003600Y029580D01*
X003600Y029535D01*
X003614Y029447D01*
X003642Y029361D01*
X003682Y029281D01*
X003735Y029209D01*
X003623Y029420D02*
X001000Y029420D01*
X001000Y029659D02*
X003605Y029659D01*
X003696Y029897D02*
X001000Y029897D01*
X001000Y030637D02*
X001000Y032698D01*
X001022Y032631D01*
X001062Y032551D01*
X001115Y032479D01*
X001179Y032415D01*
X001251Y032362D01*
X001331Y032322D01*
X001417Y032294D01*
X001505Y032280D01*
X001550Y032280D01*
X001595Y032280D01*
X001683Y032294D01*
X001769Y032322D01*
X001849Y032362D01*
X001921Y032415D01*
X001985Y032479D01*
X002038Y032551D01*
X002078Y032631D01*
X002106Y032717D01*
X002120Y032805D01*
X002120Y032850D01*
X002120Y032895D01*
X002106Y032983D01*
X002078Y033069D01*
X002038Y033149D01*
X001985Y033221D01*
X001921Y033285D01*
X001849Y033338D01*
X001804Y033360D01*
X001862Y033384D01*
X002016Y033538D01*
X002100Y033741D01*
X002100Y033959D01*
X002016Y034162D01*
X001980Y034198D01*
X001980Y035084D01*
X003232Y035084D01*
X003342Y034894D01*
X003530Y034706D01*
X003760Y034573D01*
X004017Y034504D01*
X004283Y034504D01*
X004540Y034573D01*
X004734Y034685D01*
X004641Y034460D01*
X004641Y034066D01*
X004792Y033702D01*
X005070Y033423D01*
X005434Y033273D01*
X005828Y033273D01*
X006192Y033423D01*
X006470Y033702D01*
X006621Y034066D01*
X006621Y034460D01*
X006470Y034823D01*
X006192Y035102D01*
X005828Y035253D01*
X005434Y035253D01*
X005081Y035106D01*
X005091Y035124D01*
X005160Y035381D01*
X005160Y035647D01*
X005091Y035904D01*
X004958Y036134D01*
X004770Y036322D01*
X004540Y036455D01*
X004283Y036524D01*
X004017Y036524D01*
X003760Y036455D01*
X003530Y036322D01*
X003342Y036134D01*
X003232Y035944D01*
X001720Y035944D01*
X001649Y035914D01*
X001649Y035914D01*
X001491Y035849D01*
X001306Y035665D01*
X001185Y035544D01*
X001120Y035386D01*
X001120Y034198D01*
X001084Y034162D01*
X001000Y033959D01*
X001000Y033741D01*
X001084Y033538D01*
X001238Y033384D01*
X001296Y033360D01*
X001251Y033338D01*
X001179Y033285D01*
X001115Y033221D01*
X001062Y033149D01*
X001022Y033069D01*
X001000Y033002D01*
X001000Y039913D01*
X003864Y039913D01*
X003799Y039865D01*
X003735Y039801D01*
X003682Y039729D01*
X003642Y039649D01*
X003614Y039563D01*
X003600Y039475D01*
X003600Y039430D01*
X004170Y039430D01*
X004170Y039430D01*
X004170Y038860D01*
X004215Y038860D01*
X004303Y038874D01*
X004389Y038902D01*
X004469Y038942D01*
X004541Y038995D01*
X004605Y039059D01*
X004658Y039131D01*
X004680Y039176D01*
X004704Y039118D01*
X004858Y038964D01*
X005061Y038880D01*
X005279Y038880D01*
X005482Y038964D01*
X005636Y039118D01*
X005720Y039321D01*
X005720Y039539D01*
X005636Y039742D01*
X005482Y039896D01*
X005442Y039913D01*
X007585Y039913D01*
X007434Y039762D01*
X007350Y039559D01*
X007350Y039341D01*
X007434Y039138D01*
X007588Y038984D01*
X007791Y038900D01*
X008009Y038900D01*
X008212Y038984D01*
X008366Y039138D01*
X008400Y039220D01*
X008434Y039138D01*
X008588Y038984D01*
X008791Y038900D01*
X009009Y038900D01*
X009212Y038984D01*
X009366Y039138D01*
X009450Y039341D01*
X009450Y039559D01*
X009366Y039762D01*
X009215Y039913D01*
X015185Y039913D01*
X015034Y039762D01*
X014950Y039559D01*
X014950Y039341D01*
X015034Y039138D01*
X015188Y038984D01*
X015391Y038900D01*
X015609Y038900D01*
X015812Y038984D01*
X015966Y039138D01*
X016000Y039220D01*
X016034Y039138D01*
X016188Y038984D01*
X016391Y038900D01*
X016609Y038900D01*
X016812Y038984D01*
X016966Y039138D01*
X017050Y039341D01*
X017050Y039559D01*
X016966Y039762D01*
X016815Y039913D01*
X022785Y039913D01*
X022634Y039762D01*
X022550Y039559D01*
X022550Y039341D01*
X022634Y039138D01*
X022788Y038984D01*
X022991Y038900D01*
X023209Y038900D01*
X023412Y038984D01*
X023566Y039138D01*
X023600Y039220D01*
X023634Y039138D01*
X023788Y038984D01*
X023991Y038900D01*
X024209Y038900D01*
X024412Y038984D01*
X024566Y039138D01*
X024650Y039341D01*
X024650Y039559D01*
X024566Y039762D01*
X024415Y039913D01*
X030385Y039913D01*
X030234Y039762D01*
X030150Y039559D01*
X030150Y039341D01*
X030234Y039138D01*
X030388Y038984D01*
X030591Y038900D01*
X030809Y038900D01*
X031012Y038984D01*
X031166Y039138D01*
X031200Y039220D01*
X031234Y039138D01*
X031388Y038984D01*
X031591Y038900D01*
X031809Y038900D01*
X032012Y038984D01*
X032166Y039138D01*
X032250Y039341D01*
X032250Y039559D01*
X032166Y039762D01*
X032015Y039913D01*
X037938Y039913D01*
X037938Y038886D01*
X037892Y038932D01*
X037844Y038991D01*
X037832Y038992D01*
X037823Y039001D01*
X037747Y039001D01*
X037593Y039016D01*
X037691Y039137D01*
X037745Y039190D01*
X037745Y039203D01*
X037752Y039212D01*
X037745Y039288D01*
X037745Y039364D01*
X037736Y039373D01*
X037735Y039385D01*
X037676Y039433D01*
X037521Y039587D01*
X037473Y039647D01*
X037461Y039648D01*
X037452Y039656D01*
X037376Y039656D01*
X037300Y039664D01*
X037291Y039656D01*
X037279Y039656D01*
X037225Y039603D01*
X037105Y039505D01*
X037089Y039659D01*
X037089Y039735D01*
X037080Y039744D01*
X037079Y039756D01*
X037020Y039804D01*
X036966Y039858D01*
X036954Y039858D01*
X036945Y039865D01*
X036869Y039858D01*
X036650Y039858D01*
X036574Y039865D01*
X036565Y039858D01*
X036553Y039858D01*
X036499Y039804D01*
X036440Y039756D01*
X036439Y039744D01*
X036430Y039735D01*
X036430Y039659D01*
X036414Y039505D01*
X036294Y039603D01*
X036240Y039656D01*
X036228Y039656D01*
X036219Y039664D01*
X036143Y039656D01*
X036067Y039656D01*
X036058Y039648D01*
X036046Y039647D01*
X035998Y039587D01*
X035843Y039433D01*
X035784Y039385D01*
X035783Y039373D01*
X035774Y039364D01*
X035774Y039288D01*
X035767Y039212D01*
X035774Y039203D01*
X035774Y039190D01*
X035828Y039137D01*
X035926Y039016D01*
X035772Y039001D01*
X035696Y039001D01*
X035687Y038992D01*
X035675Y038991D01*
X035627Y038932D01*
X035573Y038878D01*
X035573Y038866D01*
X035565Y038856D01*
X035573Y038781D01*
X035573Y038562D01*
X035565Y038486D01*
X035573Y038477D01*
X035573Y038465D01*
X035627Y038411D01*
X035675Y038352D01*
X035687Y038350D01*
X035696Y038342D01*
X035772Y038342D01*
X035926Y038326D01*
X035828Y038206D01*
X035774Y038152D01*
X035774Y038140D01*
X035767Y038130D01*
X035774Y038055D01*
X035774Y037978D01*
X035783Y037970D01*
X035784Y037958D01*
X035843Y037910D01*
X035998Y037755D01*
X036046Y037696D01*
X036058Y037695D01*
X036067Y037686D01*
X036143Y037686D01*
X036219Y037678D01*
X036228Y037686D01*
X036240Y037686D01*
X036294Y037740D01*
X036427Y037848D01*
X036482Y037820D01*
X036491Y037823D01*
X036500Y037819D01*
X036573Y037849D01*
X036647Y037873D01*
X036652Y037882D01*
X036661Y037886D01*
X036691Y037958D01*
X036726Y038027D01*
X036723Y038037D01*
X036759Y038124D01*
X036795Y038037D01*
X036792Y038027D01*
X036828Y037958D01*
X036858Y037886D01*
X036867Y037882D01*
X036872Y037873D01*
X036946Y037849D01*
X037018Y037819D01*
X037028Y037823D01*
X037037Y037820D01*
X037092Y037848D01*
X037225Y037740D01*
X037279Y037686D01*
X037291Y037686D01*
X037300Y037678D01*
X037376Y037686D01*
X037452Y037686D01*
X037461Y037695D01*
X037473Y037696D01*
X037521Y037755D01*
X037676Y037910D01*
X037735Y037958D01*
X037736Y037970D01*
X037745Y037978D01*
X037745Y038055D01*
X037752Y038130D01*
X037745Y038140D01*
X037745Y038152D01*
X037691Y038206D01*
X037593Y038326D01*
X037747Y038342D01*
X037823Y038342D01*
X037832Y038350D01*
X037844Y038352D01*
X037892Y038411D01*
X037938Y038456D01*
X037938Y030637D01*
X001000Y030637D01*
X001000Y030851D02*
X037938Y030851D01*
X037938Y031090D02*
X001000Y031090D01*
X001000Y031328D02*
X037938Y031328D01*
X037938Y031567D02*
X001000Y031567D01*
X001000Y031805D02*
X003577Y031805D01*
X003575Y031806D02*
X003671Y031746D01*
X003773Y031697D01*
X003880Y031659D01*
X003991Y031634D01*
X004040Y031629D01*
X004040Y032511D01*
X004280Y032511D01*
X004280Y031629D01*
X004329Y031634D01*
X004440Y031659D01*
X004547Y031697D01*
X004649Y031746D01*
X004745Y031806D01*
X004834Y031877D01*
X004914Y031957D01*
X004985Y032046D01*
X005045Y032142D01*
X005095Y032244D01*
X005132Y032351D01*
X005157Y032462D01*
X005163Y032511D01*
X004280Y032511D01*
X004280Y032751D01*
X005163Y032751D01*
X005157Y032801D01*
X005132Y032912D01*
X005095Y033019D01*
X005045Y033121D01*
X004985Y033217D01*
X004914Y033306D01*
X004834Y033386D01*
X004745Y033457D01*
X004649Y033517D01*
X004547Y033566D01*
X004440Y033604D01*
X004329Y033629D01*
X004280Y033634D01*
X004280Y032752D01*
X004040Y032752D01*
X004040Y033634D01*
X003991Y033629D01*
X003880Y033604D01*
X003773Y033566D01*
X003671Y033517D01*
X003575Y033457D01*
X003486Y033386D01*
X003406Y033306D01*
X003335Y033217D01*
X003275Y033121D01*
X003225Y033019D01*
X003188Y032912D01*
X003163Y032801D01*
X003157Y032751D01*
X004040Y032751D01*
X004040Y032511D01*
X003157Y032511D01*
X003163Y032462D01*
X003188Y032351D01*
X003225Y032244D01*
X003275Y032142D01*
X003335Y032046D01*
X003406Y031957D01*
X003486Y031877D01*
X003575Y031806D01*
X003337Y032044D02*
X001000Y032044D01*
X001000Y032282D02*
X001492Y032282D01*
X001550Y032282D02*
X001550Y032282D01*
X001550Y032280D02*
X001550Y032850D01*
X002120Y032850D01*
X001550Y032850D01*
X001550Y032850D01*
X001550Y032850D01*
X001550Y032280D01*
X001608Y032282D02*
X003212Y032282D01*
X003158Y032759D02*
X002113Y032759D01*
X002101Y032998D02*
X003218Y032998D01*
X003350Y033236D02*
X001970Y033236D01*
X001952Y033475D02*
X003603Y033475D01*
X004040Y033475D02*
X004280Y033475D01*
X004280Y033236D02*
X004040Y033236D01*
X004040Y032998D02*
X004280Y032998D01*
X004280Y032759D02*
X004040Y032759D01*
X004040Y032521D02*
X002015Y032521D01*
X001550Y032521D02*
X001550Y032521D01*
X001550Y032759D02*
X001550Y032759D01*
X001085Y032521D02*
X001000Y032521D01*
X001000Y033236D02*
X001130Y033236D01*
X001148Y033475D02*
X001000Y033475D01*
X001000Y033713D02*
X001011Y033713D01*
X001000Y034190D02*
X001112Y034190D01*
X001120Y034429D02*
X001000Y034429D01*
X001000Y034667D02*
X001120Y034667D01*
X001120Y034906D02*
X001000Y034906D01*
X001000Y035144D02*
X001120Y035144D01*
X001120Y035383D02*
X001000Y035383D01*
X001000Y035621D02*
X001263Y035621D01*
X001516Y035860D02*
X001000Y035860D01*
X001000Y036098D02*
X003321Y036098D01*
X003555Y036337D02*
X001000Y036337D01*
X001000Y036575D02*
X037938Y036575D01*
X037938Y036337D02*
X004745Y036337D01*
X004979Y036098D02*
X009770Y036098D01*
X009770Y036175D02*
X009770Y035632D01*
X009717Y035579D01*
X009645Y035405D01*
X009645Y035215D01*
X009717Y035041D01*
X009770Y034988D01*
X009770Y034845D01*
X009875Y034740D01*
X010375Y034740D01*
X010480Y034845D01*
X010480Y034998D01*
X010510Y035028D01*
X010550Y034988D01*
X010550Y034845D01*
X010655Y034740D01*
X011155Y034740D01*
X011260Y034845D01*
X011260Y034998D01*
X011300Y035038D01*
X011340Y034998D01*
X011340Y034845D01*
X011445Y034740D01*
X011945Y034740D01*
X012050Y034845D01*
X012050Y034988D01*
X012103Y035041D01*
X012175Y035215D01*
X012175Y035405D01*
X012103Y035579D01*
X012050Y035632D01*
X012050Y036175D01*
X011945Y036280D01*
X011445Y036280D01*
X011340Y036175D01*
X011340Y035622D01*
X011300Y035582D01*
X011260Y035622D01*
X011260Y036175D01*
X011155Y036280D01*
X010655Y036280D01*
X010550Y036175D01*
X010550Y035632D01*
X010510Y035592D01*
X010480Y035622D01*
X010480Y036175D01*
X010375Y036280D01*
X009875Y036280D01*
X009770Y036175D01*
X009770Y035860D02*
X005103Y035860D01*
X005160Y035621D02*
X009759Y035621D01*
X009645Y035383D02*
X005160Y035383D01*
X005172Y035144D02*
X005096Y035144D01*
X004727Y034667D02*
X004703Y034667D01*
X004641Y034429D02*
X001980Y034429D01*
X001980Y034667D02*
X003597Y034667D01*
X003335Y034906D02*
X001980Y034906D01*
X001988Y034190D02*
X004641Y034190D01*
X004688Y033952D02*
X002100Y033952D01*
X002089Y033713D02*
X004787Y033713D01*
X004717Y033475D02*
X005019Y033475D01*
X004970Y033236D02*
X037938Y033236D01*
X037938Y032998D02*
X005102Y032998D01*
X005162Y032759D02*
X037938Y032759D01*
X037938Y032521D02*
X004280Y032521D01*
X004280Y032282D02*
X004040Y032282D01*
X004040Y032044D02*
X004280Y032044D01*
X004280Y031805D02*
X004040Y031805D01*
X004743Y031805D02*
X037938Y031805D01*
X037938Y032044D02*
X004983Y032044D01*
X005108Y032282D02*
X037938Y032282D01*
X037208Y033442D02*
X036901Y033315D01*
X036569Y033315D01*
X036262Y033442D01*
X036027Y033677D01*
X035900Y033984D01*
X035900Y034316D01*
X036027Y034623D01*
X036262Y034858D01*
X036569Y034985D01*
X036901Y034985D01*
X037208Y034858D01*
X037443Y034623D01*
X037570Y034316D01*
X037570Y033984D01*
X037443Y033677D01*
X037208Y033442D01*
X037240Y033475D02*
X037938Y033475D01*
X037938Y033713D02*
X037458Y033713D01*
X037557Y033952D02*
X037938Y033952D01*
X037938Y034190D02*
X037570Y034190D01*
X037523Y034429D02*
X037938Y034429D01*
X037938Y034667D02*
X037399Y034667D01*
X037093Y034906D02*
X037938Y034906D01*
X037938Y035144D02*
X034996Y035144D01*
X035025Y035215D02*
X035025Y035405D01*
X034953Y035579D01*
X034900Y035632D01*
X034900Y036175D01*
X034795Y036280D01*
X034295Y036280D01*
X034190Y036175D01*
X034190Y035622D01*
X034150Y035582D01*
X034110Y035622D01*
X034110Y036175D01*
X034005Y036280D01*
X033505Y036280D01*
X033400Y036175D01*
X033400Y035632D01*
X033360Y035592D01*
X033330Y035622D01*
X033330Y036175D01*
X033225Y036280D01*
X032725Y036280D01*
X032620Y036175D01*
X032620Y035632D01*
X032567Y035579D01*
X032495Y035405D01*
X032495Y035215D01*
X032567Y035041D01*
X032620Y034988D01*
X032620Y034845D01*
X032725Y034740D01*
X033225Y034740D01*
X033330Y034845D01*
X033330Y034998D01*
X033360Y035028D01*
X033400Y034988D01*
X033400Y034845D01*
X033505Y034740D01*
X034005Y034740D01*
X034110Y034845D01*
X034110Y034998D01*
X034150Y035038D01*
X034190Y034998D01*
X034190Y034845D01*
X034295Y034740D01*
X034795Y034740D01*
X034900Y034845D01*
X034900Y034988D01*
X034953Y035041D01*
X035025Y035215D01*
X035025Y035383D02*
X037938Y035383D01*
X037938Y035621D02*
X034911Y035621D01*
X034900Y035860D02*
X037938Y035860D01*
X037938Y036098D02*
X034900Y036098D01*
X034190Y036098D02*
X034110Y036098D01*
X034110Y035860D02*
X034190Y035860D01*
X034189Y035621D02*
X034111Y035621D01*
X033389Y035621D02*
X033331Y035621D01*
X033330Y035860D02*
X033400Y035860D01*
X033400Y036098D02*
X033330Y036098D01*
X032620Y036098D02*
X027250Y036098D01*
X027250Y036175D02*
X027145Y036280D01*
X026645Y036280D01*
X026540Y036175D01*
X026540Y035622D01*
X026500Y035582D01*
X026460Y035622D01*
X026460Y036175D01*
X026355Y036280D01*
X025855Y036280D01*
X025750Y036175D01*
X025750Y035632D01*
X025710Y035592D01*
X025680Y035622D01*
X025680Y036175D01*
X025575Y036280D01*
X025075Y036280D01*
X024970Y036175D01*
X024970Y035632D01*
X024917Y035579D01*
X024845Y035405D01*
X024845Y035215D01*
X024917Y035041D01*
X024970Y034988D01*
X024970Y034845D01*
X025075Y034740D01*
X025575Y034740D01*
X025680Y034845D01*
X025680Y034998D01*
X025710Y035028D01*
X025750Y034988D01*
X025750Y034845D01*
X025855Y034740D01*
X026355Y034740D01*
X026460Y034845D01*
X026460Y034998D01*
X026500Y035038D01*
X026540Y034998D01*
X026540Y034845D01*
X026645Y034740D01*
X027145Y034740D01*
X027250Y034845D01*
X027250Y034988D01*
X027303Y035041D01*
X027375Y035215D01*
X027375Y035405D01*
X027303Y035579D01*
X027250Y035632D01*
X027250Y036175D01*
X027250Y035860D02*
X032620Y035860D01*
X032609Y035621D02*
X027261Y035621D01*
X027375Y035383D02*
X032495Y035383D01*
X032524Y035144D02*
X027346Y035144D01*
X027250Y034906D02*
X028727Y034906D01*
X028612Y034858D02*
X028377Y034623D01*
X028250Y034316D01*
X028250Y033984D01*
X028377Y033677D01*
X028612Y033442D01*
X028919Y033315D01*
X029251Y033315D01*
X029558Y033442D01*
X029793Y033677D01*
X029920Y033984D01*
X029920Y034316D01*
X029793Y034623D01*
X029558Y034858D01*
X029251Y034985D01*
X028919Y034985D01*
X028612Y034858D01*
X028421Y034667D02*
X024579Y034667D01*
X024623Y034623D02*
X024388Y034858D01*
X024081Y034985D01*
X023749Y034985D01*
X023442Y034858D01*
X023207Y034623D01*
X023080Y034316D01*
X023080Y033984D01*
X023207Y033677D01*
X023442Y033442D01*
X023749Y033315D01*
X024081Y033315D01*
X024388Y033442D01*
X024623Y033677D01*
X024750Y033984D01*
X024750Y034316D01*
X024623Y034623D01*
X024703Y034429D02*
X028297Y034429D01*
X028250Y034190D02*
X024750Y034190D01*
X024737Y033952D02*
X028263Y033952D01*
X028362Y033713D02*
X024638Y033713D01*
X024420Y033475D02*
X028580Y033475D01*
X029590Y033475D02*
X031060Y033475D01*
X031092Y033442D02*
X031399Y033315D01*
X031731Y033315D01*
X032038Y033442D01*
X032273Y033677D01*
X032400Y033984D01*
X032400Y034316D01*
X032273Y034623D01*
X032038Y034858D01*
X031731Y034985D01*
X031399Y034985D01*
X031092Y034858D01*
X030857Y034623D01*
X030730Y034316D01*
X030730Y033984D01*
X030857Y033677D01*
X031092Y033442D01*
X030842Y033713D02*
X029808Y033713D01*
X029907Y033952D02*
X030743Y033952D01*
X030730Y034190D02*
X029920Y034190D01*
X029873Y034429D02*
X030777Y034429D01*
X030901Y034667D02*
X029749Y034667D01*
X029443Y034906D02*
X031207Y034906D01*
X031923Y034906D02*
X032620Y034906D01*
X032229Y034667D02*
X036071Y034667D01*
X035947Y034429D02*
X032353Y034429D01*
X032400Y034190D02*
X035900Y034190D01*
X035913Y033952D02*
X032387Y033952D01*
X032288Y033713D02*
X036012Y033713D01*
X036230Y033475D02*
X032070Y033475D01*
X033330Y034906D02*
X033400Y034906D01*
X034110Y034906D02*
X034190Y034906D01*
X034900Y034906D02*
X036377Y034906D01*
X037938Y036814D02*
X001000Y036814D01*
X001000Y037052D02*
X037938Y037052D01*
X037938Y037291D02*
X001000Y037291D01*
X001000Y037529D02*
X037938Y037529D01*
X037938Y037768D02*
X037534Y037768D01*
X037745Y038006D02*
X037938Y038006D01*
X037938Y038245D02*
X037659Y038245D01*
X037191Y037768D02*
X036328Y037768D01*
X035985Y037768D02*
X001000Y037768D01*
X001000Y038006D02*
X035774Y038006D01*
X035860Y038245D02*
X001000Y038245D01*
X001000Y038483D02*
X035568Y038483D01*
X035573Y038722D02*
X001000Y038722D01*
X001000Y038960D02*
X003847Y038960D01*
X003871Y038942D02*
X003951Y038902D01*
X004037Y038874D01*
X004125Y038860D01*
X004170Y038860D01*
X004170Y039430D01*
X004170Y039430D01*
X003600Y039430D01*
X003600Y039385D01*
X003614Y039297D01*
X003642Y039211D01*
X003682Y039131D01*
X003735Y039059D01*
X003799Y038995D01*
X003871Y038942D01*
X004170Y038960D02*
X004170Y038960D01*
X004170Y039199D02*
X004170Y039199D01*
X004493Y038960D02*
X004867Y038960D01*
X005473Y038960D02*
X007646Y038960D01*
X007409Y039199D02*
X005669Y039199D01*
X005720Y039437D02*
X007350Y039437D01*
X007398Y039676D02*
X005664Y039676D01*
X003655Y039676D02*
X001000Y039676D01*
X001000Y039437D02*
X003600Y039437D01*
X003648Y039199D02*
X001000Y039199D01*
X006090Y035144D02*
X009674Y035144D01*
X009770Y034906D02*
X009073Y034906D01*
X009188Y034858D02*
X008881Y034985D01*
X008549Y034985D01*
X008242Y034858D01*
X008007Y034623D01*
X007880Y034316D01*
X007880Y033984D01*
X008007Y033677D01*
X008242Y033442D01*
X008549Y033315D01*
X008881Y033315D01*
X009188Y033442D01*
X009423Y033677D01*
X009550Y033984D01*
X009550Y034316D01*
X009423Y034623D01*
X009188Y034858D01*
X009379Y034667D02*
X013221Y034667D01*
X013177Y034623D02*
X013050Y034316D01*
X013050Y033984D01*
X013177Y033677D01*
X013412Y033442D01*
X013719Y033315D01*
X014051Y033315D01*
X014358Y033442D01*
X014593Y033677D01*
X014720Y033984D01*
X014720Y034316D01*
X014593Y034623D01*
X014358Y034858D01*
X014051Y034985D01*
X013719Y034985D01*
X013412Y034858D01*
X013177Y034623D01*
X013097Y034429D02*
X009503Y034429D01*
X009550Y034190D02*
X013050Y034190D01*
X013063Y033952D02*
X009537Y033952D01*
X009438Y033713D02*
X013162Y033713D01*
X013380Y033475D02*
X009220Y033475D01*
X008210Y033475D02*
X006243Y033475D01*
X006475Y033713D02*
X007992Y033713D01*
X007893Y033952D02*
X006574Y033952D01*
X006621Y034190D02*
X007880Y034190D01*
X007927Y034429D02*
X006621Y034429D01*
X006535Y034667D02*
X008051Y034667D01*
X008357Y034906D02*
X006388Y034906D01*
X008154Y038960D02*
X008646Y038960D01*
X008409Y039199D02*
X008391Y039199D01*
X009154Y038960D02*
X015246Y038960D01*
X015009Y039199D02*
X009391Y039199D01*
X009450Y039437D02*
X014950Y039437D01*
X014998Y039676D02*
X009402Y039676D01*
X010480Y036098D02*
X010550Y036098D01*
X010550Y035860D02*
X010480Y035860D01*
X010481Y035621D02*
X010539Y035621D01*
X010550Y034906D02*
X010480Y034906D01*
X011260Y034906D02*
X011340Y034906D01*
X012050Y034906D02*
X013527Y034906D01*
X014243Y034906D02*
X016007Y034906D01*
X015892Y034858D02*
X015657Y034623D01*
X015530Y034316D01*
X015530Y033984D01*
X015657Y033677D01*
X015892Y033442D01*
X016199Y033315D01*
X016531Y033315D01*
X016838Y033442D01*
X017073Y033677D01*
X017200Y033984D01*
X017200Y034316D01*
X017073Y034623D01*
X016838Y034858D01*
X016531Y034985D01*
X016199Y034985D01*
X015892Y034858D01*
X015701Y034667D02*
X014549Y034667D01*
X014673Y034429D02*
X015577Y034429D01*
X015530Y034190D02*
X014720Y034190D01*
X014707Y033952D02*
X015543Y033952D01*
X015642Y033713D02*
X014608Y033713D01*
X014390Y033475D02*
X015860Y033475D01*
X016870Y033475D02*
X021030Y033475D01*
X021062Y033442D02*
X020827Y033677D01*
X020700Y033984D01*
X020700Y034316D01*
X020827Y034623D01*
X021062Y034858D01*
X021369Y034985D01*
X021701Y034985D01*
X022008Y034858D01*
X022243Y034623D01*
X022370Y034316D01*
X022370Y033984D01*
X022243Y033677D01*
X022008Y033442D01*
X021701Y033315D01*
X021369Y033315D01*
X021062Y033442D01*
X020812Y033713D02*
X017088Y033713D01*
X017187Y033952D02*
X020713Y033952D01*
X020700Y034190D02*
X017200Y034190D01*
X017153Y034429D02*
X020747Y034429D01*
X020871Y034667D02*
X017029Y034667D01*
X016723Y034906D02*
X017420Y034906D01*
X017420Y034845D02*
X017525Y034740D01*
X018025Y034740D01*
X018130Y034845D01*
X018130Y034998D01*
X018160Y035028D01*
X018200Y034988D01*
X018200Y034845D01*
X018305Y034740D01*
X018805Y034740D01*
X018910Y034845D01*
X018910Y034998D01*
X018950Y035038D01*
X018990Y034998D01*
X018990Y034845D01*
X019095Y034740D01*
X019595Y034740D01*
X019700Y034845D01*
X019700Y034988D01*
X019753Y035041D01*
X019825Y035215D01*
X019825Y035405D01*
X019753Y035579D01*
X019700Y035632D01*
X019700Y036175D01*
X019595Y036280D01*
X019095Y036280D01*
X018990Y036175D01*
X018990Y035622D01*
X018950Y035582D01*
X018910Y035622D01*
X018910Y036175D01*
X018805Y036280D01*
X018305Y036280D01*
X018200Y036175D01*
X018200Y035632D01*
X018160Y035592D01*
X018130Y035622D01*
X018130Y036175D01*
X018025Y036280D01*
X017525Y036280D01*
X017420Y036175D01*
X017420Y035632D01*
X017367Y035579D01*
X017295Y035405D01*
X017295Y035215D01*
X017367Y035041D01*
X017420Y034988D01*
X017420Y034845D01*
X017324Y035144D02*
X012146Y035144D01*
X012175Y035383D02*
X017295Y035383D01*
X017409Y035621D02*
X012061Y035621D01*
X012050Y035860D02*
X017420Y035860D01*
X017420Y036098D02*
X012050Y036098D01*
X011340Y036098D02*
X011260Y036098D01*
X011260Y035860D02*
X011340Y035860D01*
X011339Y035621D02*
X011261Y035621D01*
X015754Y038960D02*
X016246Y038960D01*
X016009Y039199D02*
X015991Y039199D01*
X016754Y038960D02*
X022846Y038960D01*
X022609Y039199D02*
X016991Y039199D01*
X017050Y039437D02*
X022550Y039437D01*
X022598Y039676D02*
X017002Y039676D01*
X018130Y036098D02*
X018200Y036098D01*
X018200Y035860D02*
X018130Y035860D01*
X018131Y035621D02*
X018189Y035621D01*
X018200Y034906D02*
X018130Y034906D01*
X018910Y034906D02*
X018990Y034906D01*
X019700Y034906D02*
X021177Y034906D01*
X021893Y034906D02*
X023557Y034906D01*
X023251Y034667D02*
X022199Y034667D01*
X022323Y034429D02*
X023127Y034429D01*
X023080Y034190D02*
X022370Y034190D01*
X022357Y033952D02*
X023093Y033952D01*
X023192Y033713D02*
X022258Y033713D01*
X022040Y033475D02*
X023410Y033475D01*
X024273Y034906D02*
X024970Y034906D01*
X024874Y035144D02*
X019796Y035144D01*
X019825Y035383D02*
X024845Y035383D01*
X024959Y035621D02*
X019711Y035621D01*
X019700Y035860D02*
X024970Y035860D01*
X024970Y036098D02*
X019700Y036098D01*
X018990Y036098D02*
X018910Y036098D01*
X018910Y035860D02*
X018990Y035860D01*
X018989Y035621D02*
X018911Y035621D01*
X023354Y038960D02*
X023846Y038960D01*
X023609Y039199D02*
X023591Y039199D01*
X024354Y038960D02*
X030446Y038960D01*
X030209Y039199D02*
X024591Y039199D01*
X024650Y039437D02*
X030150Y039437D01*
X030198Y039676D02*
X024602Y039676D01*
X025680Y036098D02*
X025750Y036098D01*
X025750Y035860D02*
X025680Y035860D01*
X025681Y035621D02*
X025739Y035621D01*
X025750Y034906D02*
X025680Y034906D01*
X026460Y034906D02*
X026540Y034906D01*
X026539Y035621D02*
X026461Y035621D01*
X026460Y035860D02*
X026540Y035860D01*
X026540Y036098D02*
X026460Y036098D01*
X030954Y038960D02*
X031446Y038960D01*
X031209Y039199D02*
X031191Y039199D01*
X031954Y038960D02*
X035650Y038960D01*
X035774Y039199D02*
X032191Y039199D01*
X032250Y039437D02*
X035847Y039437D01*
X036430Y039676D02*
X032202Y039676D01*
X036716Y038006D02*
X036803Y038006D01*
X037869Y038960D02*
X037938Y038960D01*
X037938Y039199D02*
X037745Y039199D01*
X037672Y039437D02*
X037938Y039437D01*
X037938Y039676D02*
X037089Y039676D01*
X037080Y029897D02*
X037938Y029897D01*
X037938Y029659D02*
X037600Y029659D01*
X037746Y029420D02*
X037938Y029420D01*
X037938Y029182D02*
X037605Y029182D01*
X037110Y029659D02*
X037104Y029659D01*
X036439Y029897D02*
X032172Y029897D01*
X032250Y029659D02*
X035919Y029659D01*
X035773Y029420D02*
X032221Y029420D01*
X032059Y029182D02*
X035914Y029182D01*
X036409Y029659D02*
X036415Y029659D01*
X037938Y026558D02*
X004621Y026558D01*
X004922Y026320D02*
X009770Y026320D01*
X009770Y026325D02*
X009770Y025782D01*
X009717Y025729D01*
X009645Y025555D01*
X009645Y025365D01*
X009717Y025191D01*
X009770Y025138D01*
X009770Y024995D01*
X009875Y024890D01*
X010375Y024890D01*
X010480Y024995D01*
X010480Y025148D01*
X010510Y025178D01*
X010550Y025138D01*
X010550Y024995D01*
X010655Y024890D01*
X011155Y024890D01*
X011260Y024995D01*
X011260Y025148D01*
X011300Y025188D01*
X011340Y025148D01*
X011340Y024995D01*
X011445Y024890D01*
X011945Y024890D01*
X012050Y024995D01*
X012050Y025138D01*
X012103Y025191D01*
X012175Y025365D01*
X012175Y025555D01*
X012103Y025729D01*
X012050Y025782D01*
X012050Y026325D01*
X011945Y026430D01*
X011445Y026430D01*
X011340Y026325D01*
X011340Y025772D01*
X011300Y025732D01*
X011260Y025772D01*
X011260Y026325D01*
X011155Y026430D01*
X010655Y026430D01*
X010550Y026325D01*
X010550Y025782D01*
X010510Y025742D01*
X010480Y025772D01*
X010480Y026325D01*
X010375Y026430D01*
X009875Y026430D01*
X009770Y026325D01*
X009770Y026081D02*
X005075Y026081D01*
X005148Y025843D02*
X009770Y025843D01*
X009665Y025604D02*
X005160Y025604D01*
X005116Y025366D02*
X005345Y025366D01*
X004658Y024650D02*
X001980Y024650D01*
X001980Y024412D02*
X004641Y024412D01*
X004659Y024173D02*
X002074Y024173D01*
X002100Y023935D02*
X004757Y023935D01*
X004589Y023696D02*
X004947Y023696D01*
X004912Y023458D02*
X005350Y023458D01*
X005070Y023219D02*
X037938Y023219D01*
X037938Y022981D02*
X005151Y022981D01*
X004280Y022981D02*
X004040Y022981D01*
X004040Y023219D02*
X004280Y023219D01*
X004280Y023458D02*
X004040Y023458D01*
X004040Y023696D02*
X004280Y023696D01*
X003731Y023696D02*
X002019Y023696D01*
X001890Y023458D02*
X003408Y023458D01*
X003497Y024889D02*
X001980Y024889D01*
X001980Y025127D02*
X003294Y025127D01*
X005917Y025366D02*
X009645Y025366D01*
X009770Y025127D02*
X008900Y025127D01*
X008881Y025135D02*
X008549Y025135D01*
X008242Y025008D01*
X008007Y024773D01*
X007880Y024466D01*
X007880Y024134D01*
X008007Y023827D01*
X008242Y023592D01*
X008549Y023465D01*
X008881Y023465D01*
X009188Y023592D01*
X009423Y023827D01*
X009550Y024134D01*
X009550Y024466D01*
X009423Y024773D01*
X009188Y025008D01*
X008881Y025135D01*
X008530Y025127D02*
X006317Y025127D01*
X006505Y024889D02*
X008123Y024889D01*
X007956Y024650D02*
X006604Y024650D01*
X006621Y024412D02*
X007880Y024412D01*
X007880Y024173D02*
X006603Y024173D01*
X006504Y023935D02*
X007963Y023935D01*
X008138Y023696D02*
X006314Y023696D01*
X005912Y023458D02*
X037938Y023458D01*
X037938Y023696D02*
X037312Y023696D01*
X037208Y023592D02*
X037443Y023827D01*
X037570Y024134D01*
X037570Y024466D01*
X037443Y024773D01*
X037208Y025008D01*
X036901Y025135D01*
X036569Y025135D01*
X036262Y025008D01*
X036027Y024773D01*
X035900Y024466D01*
X035900Y024134D01*
X036027Y023827D01*
X036262Y023592D01*
X036569Y023465D01*
X036901Y023465D01*
X037208Y023592D01*
X037487Y023935D02*
X037938Y023935D01*
X037938Y024173D02*
X037570Y024173D01*
X037570Y024412D02*
X037938Y024412D01*
X037938Y024650D02*
X037494Y024650D01*
X037327Y024889D02*
X037938Y024889D01*
X037938Y025127D02*
X036920Y025127D01*
X036550Y025127D02*
X034900Y025127D01*
X034900Y025138D02*
X034953Y025191D01*
X035025Y025365D01*
X035025Y025555D01*
X034953Y025729D01*
X034900Y025782D01*
X034900Y026325D01*
X034795Y026430D01*
X034295Y026430D01*
X034190Y026325D01*
X034190Y025772D01*
X034150Y025732D01*
X034110Y025772D01*
X034110Y026325D01*
X034005Y026430D01*
X033505Y026430D01*
X033400Y026325D01*
X033400Y025782D01*
X033360Y025742D01*
X033330Y025772D01*
X033330Y026325D01*
X033225Y026430D01*
X032725Y026430D01*
X032620Y026325D01*
X032620Y025782D01*
X032567Y025729D01*
X032495Y025555D01*
X032495Y025365D01*
X032567Y025191D01*
X032620Y025138D01*
X032620Y024995D01*
X032725Y024890D01*
X033225Y024890D01*
X033330Y024995D01*
X033330Y025148D01*
X033360Y025178D01*
X033400Y025138D01*
X033400Y024995D01*
X033505Y024890D01*
X034005Y024890D01*
X034110Y024995D01*
X034110Y025148D01*
X034150Y025188D01*
X034190Y025148D01*
X034190Y024995D01*
X034295Y024890D01*
X034795Y024890D01*
X034900Y024995D01*
X034900Y025138D01*
X035025Y025366D02*
X037938Y025366D01*
X037938Y025604D02*
X035005Y025604D01*
X034900Y025843D02*
X037938Y025843D01*
X037938Y026081D02*
X034900Y026081D01*
X034900Y026320D02*
X037938Y026320D01*
X036143Y024889D02*
X032157Y024889D01*
X032273Y024773D02*
X032038Y025008D01*
X031731Y025135D01*
X031399Y025135D01*
X031092Y025008D01*
X030857Y024773D01*
X030730Y024466D01*
X030730Y024134D01*
X030857Y023827D01*
X031092Y023592D01*
X031399Y023465D01*
X031731Y023465D01*
X032038Y023592D01*
X032273Y023827D01*
X032400Y024134D01*
X032400Y024466D01*
X032273Y024773D01*
X032324Y024650D02*
X035976Y024650D01*
X035900Y024412D02*
X032400Y024412D01*
X032400Y024173D02*
X035900Y024173D01*
X035983Y023935D02*
X032317Y023935D01*
X032142Y023696D02*
X036158Y023696D01*
X034190Y025127D02*
X034110Y025127D01*
X033400Y025127D02*
X033330Y025127D01*
X032620Y025127D02*
X031750Y025127D01*
X031380Y025127D02*
X029270Y025127D01*
X029251Y025135D02*
X028919Y025135D01*
X028612Y025008D01*
X028377Y024773D01*
X028250Y024466D01*
X028250Y024134D01*
X028377Y023827D01*
X028612Y023592D01*
X028919Y023465D01*
X029251Y023465D01*
X029558Y023592D01*
X029793Y023827D01*
X029920Y024134D01*
X029920Y024466D01*
X029793Y024773D01*
X029558Y025008D01*
X029251Y025135D01*
X028900Y025127D02*
X027250Y025127D01*
X027250Y025138D02*
X027303Y025191D01*
X027375Y025365D01*
X027375Y025555D01*
X027303Y025729D01*
X027250Y025782D01*
X027250Y026325D01*
X027145Y026430D01*
X026645Y026430D01*
X026540Y026325D01*
X026540Y025772D01*
X026500Y025732D01*
X026460Y025772D01*
X026460Y026325D01*
X026355Y026430D01*
X025855Y026430D01*
X025750Y026325D01*
X025750Y025782D01*
X025710Y025742D01*
X025680Y025772D01*
X025680Y026325D01*
X025575Y026430D01*
X025075Y026430D01*
X024970Y026325D01*
X024970Y025782D01*
X024917Y025729D01*
X024845Y025555D01*
X024845Y025365D01*
X024917Y025191D01*
X024970Y025138D01*
X024970Y024995D01*
X025075Y024890D01*
X025575Y024890D01*
X025680Y024995D01*
X025680Y025148D01*
X025710Y025178D01*
X025750Y025138D01*
X025750Y024995D01*
X025855Y024890D01*
X026355Y024890D01*
X026460Y024995D01*
X026460Y025148D01*
X026500Y025188D01*
X026540Y025148D01*
X026540Y024995D01*
X026645Y024890D01*
X027145Y024890D01*
X027250Y024995D01*
X027250Y025138D01*
X027375Y025366D02*
X032495Y025366D01*
X032515Y025604D02*
X027355Y025604D01*
X027250Y025843D02*
X032620Y025843D01*
X032620Y026081D02*
X027250Y026081D01*
X027250Y026320D02*
X032620Y026320D01*
X033330Y026320D02*
X033400Y026320D01*
X033400Y026081D02*
X033330Y026081D01*
X033330Y025843D02*
X033400Y025843D01*
X034110Y025843D02*
X034190Y025843D01*
X034190Y026081D02*
X034110Y026081D01*
X034110Y026320D02*
X034190Y026320D01*
X031341Y029182D02*
X031059Y029182D01*
X030341Y029182D02*
X024459Y029182D01*
X024621Y029420D02*
X030179Y029420D01*
X030150Y029659D02*
X024650Y029659D01*
X024572Y029897D02*
X030228Y029897D01*
X026540Y026320D02*
X026460Y026320D01*
X026460Y026081D02*
X026540Y026081D01*
X026540Y025843D02*
X026460Y025843D01*
X025750Y025843D02*
X025680Y025843D01*
X025680Y026081D02*
X025750Y026081D01*
X025750Y026320D02*
X025680Y026320D01*
X024970Y026320D02*
X019700Y026320D01*
X019700Y026325D02*
X019595Y026430D01*
X019095Y026430D01*
X018990Y026325D01*
X018990Y025772D01*
X018950Y025732D01*
X018910Y025772D01*
X018910Y026325D01*
X018805Y026430D01*
X018305Y026430D01*
X018200Y026325D01*
X018200Y025782D01*
X018160Y025742D01*
X018130Y025772D01*
X018130Y026325D01*
X018025Y026430D01*
X017525Y026430D01*
X017420Y026325D01*
X017420Y025782D01*
X017367Y025729D01*
X017295Y025555D01*
X017295Y025365D01*
X017367Y025191D01*
X017420Y025138D01*
X017420Y024995D01*
X017525Y024890D01*
X018025Y024890D01*
X018130Y024995D01*
X018130Y025148D01*
X018160Y025178D01*
X018200Y025138D01*
X018200Y024995D01*
X018305Y024890D01*
X018805Y024890D01*
X018910Y024995D01*
X018910Y025148D01*
X018950Y025188D01*
X018990Y025148D01*
X018990Y024995D01*
X019095Y024890D01*
X019595Y024890D01*
X019700Y024995D01*
X019700Y025138D01*
X019753Y025191D01*
X019825Y025365D01*
X019825Y025555D01*
X019753Y025729D01*
X019700Y025782D01*
X019700Y026325D01*
X019700Y026081D02*
X024970Y026081D01*
X024970Y025843D02*
X019700Y025843D01*
X019805Y025604D02*
X024865Y025604D01*
X024845Y025366D02*
X019825Y025366D01*
X019700Y025127D02*
X021350Y025127D01*
X021369Y025135D02*
X021062Y025008D01*
X020827Y024773D01*
X020700Y024466D01*
X020700Y024134D01*
X020827Y023827D01*
X021062Y023592D01*
X021369Y023465D01*
X021701Y023465D01*
X022008Y023592D01*
X022243Y023827D01*
X022370Y024134D01*
X022370Y024466D01*
X022243Y024773D01*
X022008Y025008D01*
X021701Y025135D01*
X021369Y025135D01*
X021720Y025127D02*
X023730Y025127D01*
X023749Y025135D02*
X023442Y025008D01*
X023207Y024773D01*
X023080Y024466D01*
X023080Y024134D01*
X023207Y023827D01*
X023442Y023592D01*
X023749Y023465D01*
X024081Y023465D01*
X024388Y023592D01*
X024623Y023827D01*
X024750Y024134D01*
X024750Y024466D01*
X024623Y024773D01*
X024388Y025008D01*
X024081Y025135D01*
X023749Y025135D01*
X024100Y025127D02*
X024970Y025127D01*
X024674Y024650D02*
X028326Y024650D01*
X028250Y024412D02*
X024750Y024412D01*
X024750Y024173D02*
X028250Y024173D01*
X028333Y023935D02*
X024667Y023935D01*
X024492Y023696D02*
X028508Y023696D01*
X029662Y023696D02*
X030988Y023696D01*
X030813Y023935D02*
X029837Y023935D01*
X029920Y024173D02*
X030730Y024173D01*
X030730Y024412D02*
X029920Y024412D01*
X029844Y024650D02*
X030806Y024650D01*
X030973Y024889D02*
X029677Y024889D01*
X028493Y024889D02*
X024507Y024889D01*
X023323Y024889D02*
X022127Y024889D01*
X022294Y024650D02*
X023156Y024650D01*
X023080Y024412D02*
X022370Y024412D01*
X022370Y024173D02*
X023080Y024173D01*
X023163Y023935D02*
X022287Y023935D01*
X022112Y023696D02*
X023338Y023696D01*
X020958Y023696D02*
X016942Y023696D01*
X016838Y023592D02*
X017073Y023827D01*
X017200Y024134D01*
X017200Y024466D01*
X017073Y024773D01*
X016838Y025008D01*
X016531Y025135D01*
X016199Y025135D01*
X015892Y025008D01*
X015657Y024773D01*
X015530Y024466D01*
X015530Y024134D01*
X015657Y023827D01*
X015892Y023592D01*
X016199Y023465D01*
X016531Y023465D01*
X016838Y023592D01*
X017117Y023935D02*
X020783Y023935D01*
X020700Y024173D02*
X017200Y024173D01*
X017200Y024412D02*
X020700Y024412D01*
X020776Y024650D02*
X017124Y024650D01*
X016957Y024889D02*
X020943Y024889D01*
X018990Y025127D02*
X018910Y025127D01*
X018200Y025127D02*
X018130Y025127D01*
X017420Y025127D02*
X016550Y025127D01*
X016180Y025127D02*
X014070Y025127D01*
X014051Y025135D02*
X013719Y025135D01*
X013412Y025008D01*
X013177Y024773D01*
X013050Y024466D01*
X013050Y024134D01*
X013177Y023827D01*
X013412Y023592D01*
X013719Y023465D01*
X014051Y023465D01*
X014358Y023592D01*
X014593Y023827D01*
X014720Y024134D01*
X014720Y024466D01*
X014593Y024773D01*
X014358Y025008D01*
X014051Y025135D01*
X013700Y025127D02*
X012050Y025127D01*
X012175Y025366D02*
X017295Y025366D01*
X017315Y025604D02*
X012155Y025604D01*
X012050Y025843D02*
X017420Y025843D01*
X017420Y026081D02*
X012050Y026081D01*
X012050Y026320D02*
X017420Y026320D01*
X018130Y026320D02*
X018200Y026320D01*
X018200Y026081D02*
X018130Y026081D01*
X018130Y025843D02*
X018200Y025843D01*
X018910Y025843D02*
X018990Y025843D01*
X018990Y026081D02*
X018910Y026081D01*
X018910Y026320D02*
X018990Y026320D01*
X016859Y029182D02*
X022741Y029182D01*
X022579Y029420D02*
X017021Y029420D01*
X017050Y029659D02*
X022550Y029659D01*
X022628Y029897D02*
X016972Y029897D01*
X016141Y029182D02*
X015859Y029182D01*
X015141Y029182D02*
X009259Y029182D01*
X009421Y029420D02*
X014979Y029420D01*
X014950Y029659D02*
X009450Y029659D01*
X009372Y029897D02*
X015028Y029897D01*
X011340Y026320D02*
X011260Y026320D01*
X011260Y026081D02*
X011340Y026081D01*
X011340Y025843D02*
X011260Y025843D01*
X010550Y025843D02*
X010480Y025843D01*
X010480Y026081D02*
X010550Y026081D01*
X010550Y026320D02*
X010480Y026320D01*
X010480Y025127D02*
X010550Y025127D01*
X011260Y025127D02*
X011340Y025127D01*
X013126Y024650D02*
X009474Y024650D01*
X009550Y024412D02*
X013050Y024412D01*
X013050Y024173D02*
X009550Y024173D01*
X009467Y023935D02*
X013133Y023935D01*
X013308Y023696D02*
X009292Y023696D01*
X009307Y024889D02*
X013293Y024889D01*
X014477Y024889D02*
X015773Y024889D01*
X015606Y024650D02*
X014644Y024650D01*
X014720Y024412D02*
X015530Y024412D01*
X015530Y024173D02*
X014720Y024173D01*
X014637Y023935D02*
X015613Y023935D01*
X015788Y023696D02*
X014462Y023696D01*
X015091Y020119D02*
X009309Y020119D01*
X009441Y019880D02*
X014959Y019880D01*
X014950Y019642D02*
X009450Y019642D01*
X009331Y019403D02*
X015069Y019403D01*
X015931Y019403D02*
X016069Y019403D01*
X016931Y019403D02*
X022669Y019403D01*
X022550Y019642D02*
X017050Y019642D01*
X017041Y019880D02*
X022559Y019880D01*
X022691Y020119D02*
X016909Y020119D01*
X017525Y016580D02*
X017420Y016475D01*
X017420Y015932D01*
X017367Y015879D01*
X017295Y015705D01*
X017295Y015515D01*
X017367Y015341D01*
X017420Y015288D01*
X017420Y015145D01*
X017525Y015040D01*
X018025Y015040D01*
X018130Y015145D01*
X018130Y015298D01*
X018160Y015328D01*
X018200Y015288D01*
X018200Y015145D01*
X018305Y015040D01*
X018805Y015040D01*
X018910Y015145D01*
X018910Y015298D01*
X018950Y015338D01*
X018990Y015298D01*
X018990Y015145D01*
X019095Y015040D01*
X019595Y015040D01*
X019700Y015145D01*
X019700Y015288D01*
X019753Y015341D01*
X019825Y015515D01*
X019825Y015705D01*
X019753Y015879D01*
X019700Y015932D01*
X019700Y016475D01*
X019595Y016580D01*
X019095Y016580D01*
X018990Y016475D01*
X018990Y015922D01*
X018950Y015882D01*
X018910Y015922D01*
X018910Y016475D01*
X018805Y016580D01*
X018305Y016580D01*
X018200Y016475D01*
X018200Y015932D01*
X018160Y015892D01*
X018130Y015922D01*
X018130Y016475D01*
X018025Y016580D01*
X017525Y016580D01*
X017486Y016541D02*
X011984Y016541D01*
X011945Y016580D02*
X011445Y016580D01*
X011340Y016475D01*
X011340Y015922D01*
X011300Y015882D01*
X011260Y015922D01*
X011260Y016475D01*
X011155Y016580D01*
X010655Y016580D01*
X010550Y016475D01*
X010550Y015932D01*
X010510Y015892D01*
X010480Y015922D01*
X010480Y016475D01*
X010375Y016580D01*
X009875Y016580D01*
X009770Y016475D01*
X009770Y015932D01*
X009717Y015879D01*
X009645Y015705D01*
X009645Y015515D01*
X009717Y015341D01*
X009770Y015288D01*
X009770Y015145D01*
X009875Y015040D01*
X010375Y015040D01*
X010480Y015145D01*
X010480Y015298D01*
X010510Y015328D01*
X010550Y015288D01*
X010550Y015145D01*
X010655Y015040D01*
X011155Y015040D01*
X011260Y015145D01*
X011260Y015298D01*
X011300Y015338D01*
X011340Y015298D01*
X011340Y015145D01*
X011445Y015040D01*
X011945Y015040D01*
X012050Y015145D01*
X012050Y015288D01*
X012103Y015341D01*
X012175Y015515D01*
X012175Y015705D01*
X012103Y015879D01*
X012050Y015932D01*
X012050Y016475D01*
X011945Y016580D01*
X012050Y016303D02*
X017420Y016303D01*
X017420Y016064D02*
X012050Y016064D01*
X012125Y015826D02*
X017345Y015826D01*
X017295Y015587D02*
X012175Y015587D01*
X012106Y015349D02*
X017364Y015349D01*
X017455Y015110D02*
X016886Y015110D01*
X016838Y015158D02*
X017073Y014923D01*
X017200Y014616D01*
X017200Y014284D01*
X017073Y013977D01*
X016838Y013742D01*
X016531Y013615D01*
X016199Y013615D01*
X015892Y013742D01*
X015657Y013977D01*
X015530Y014284D01*
X015530Y014616D01*
X015657Y014923D01*
X015892Y015158D01*
X016199Y015285D01*
X016531Y015285D01*
X016838Y015158D01*
X017094Y014872D02*
X020806Y014872D01*
X020827Y014923D02*
X020700Y014616D01*
X020700Y014284D01*
X020827Y013977D01*
X021062Y013742D01*
X021369Y013615D01*
X021701Y013615D01*
X022008Y013742D01*
X022243Y013977D01*
X022370Y014284D01*
X022370Y014616D01*
X022243Y014923D01*
X022008Y015158D01*
X021701Y015285D01*
X021369Y015285D01*
X021062Y015158D01*
X020827Y014923D01*
X021014Y015110D02*
X019665Y015110D01*
X019756Y015349D02*
X024914Y015349D01*
X024917Y015341D02*
X024970Y015288D01*
X024970Y015145D01*
X025075Y015040D01*
X025575Y015040D01*
X025680Y015145D01*
X025680Y015298D01*
X025710Y015328D01*
X025750Y015288D01*
X025750Y015145D01*
X025855Y015040D01*
X026355Y015040D01*
X026460Y015145D01*
X026460Y015298D01*
X026500Y015338D01*
X026540Y015298D01*
X026540Y015145D01*
X026645Y015040D01*
X027145Y015040D01*
X027250Y015145D01*
X027250Y015288D01*
X027303Y015341D01*
X027375Y015515D01*
X027375Y015705D01*
X027303Y015879D01*
X027250Y015932D01*
X027250Y016475D01*
X027145Y016580D01*
X026645Y016580D01*
X026540Y016475D01*
X026540Y015922D01*
X026500Y015882D01*
X026460Y015922D01*
X026460Y016475D01*
X026355Y016580D01*
X025855Y016580D01*
X025750Y016475D01*
X025750Y015932D01*
X025710Y015892D01*
X025680Y015922D01*
X025680Y016475D01*
X025575Y016580D01*
X025075Y016580D01*
X024970Y016475D01*
X024970Y015932D01*
X024917Y015879D01*
X024845Y015705D01*
X024845Y015515D01*
X024917Y015341D01*
X025005Y015110D02*
X024436Y015110D01*
X024388Y015158D02*
X024081Y015285D01*
X023749Y015285D01*
X023442Y015158D01*
X023207Y014923D01*
X023080Y014616D01*
X023080Y014284D01*
X023207Y013977D01*
X023442Y013742D01*
X023749Y013615D01*
X024081Y013615D01*
X024388Y013742D01*
X024623Y013977D01*
X024750Y014284D01*
X024750Y014616D01*
X024623Y014923D01*
X024388Y015158D01*
X024644Y014872D02*
X028356Y014872D01*
X028377Y014923D02*
X028250Y014616D01*
X028250Y014284D01*
X028377Y013977D01*
X028612Y013742D01*
X028919Y013615D01*
X029251Y013615D01*
X029558Y013742D01*
X029793Y013977D01*
X029920Y014284D01*
X029920Y014616D01*
X029793Y014923D01*
X029558Y015158D01*
X029251Y015285D01*
X028919Y015285D01*
X028612Y015158D01*
X028377Y014923D01*
X028564Y015110D02*
X027215Y015110D01*
X027306Y015349D02*
X032564Y015349D01*
X032567Y015341D02*
X032620Y015288D01*
X032620Y015145D01*
X032725Y015040D01*
X033225Y015040D01*
X033330Y015145D01*
X033330Y015298D01*
X033360Y015328D01*
X033400Y015288D01*
X033400Y015145D01*
X033505Y015040D01*
X034005Y015040D01*
X034110Y015145D01*
X034110Y015298D01*
X034150Y015338D01*
X034190Y015298D01*
X034190Y015145D01*
X034295Y015040D01*
X034795Y015040D01*
X034900Y015145D01*
X034900Y015288D01*
X034953Y015341D01*
X035025Y015515D01*
X035025Y015705D01*
X034953Y015879D01*
X034900Y015932D01*
X034900Y016475D01*
X034795Y016580D01*
X034295Y016580D01*
X034190Y016475D01*
X034190Y015922D01*
X034150Y015882D01*
X034110Y015922D01*
X034110Y016475D01*
X034005Y016580D01*
X033505Y016580D01*
X033400Y016475D01*
X033400Y015932D01*
X033360Y015892D01*
X033330Y015922D01*
X033330Y016475D01*
X033225Y016580D01*
X032725Y016580D01*
X032620Y016475D01*
X032620Y015932D01*
X032567Y015879D01*
X032495Y015705D01*
X032495Y015515D01*
X032567Y015341D01*
X032655Y015110D02*
X032086Y015110D01*
X032038Y015158D02*
X031731Y015285D01*
X031399Y015285D01*
X031092Y015158D01*
X030857Y014923D01*
X030730Y014616D01*
X030730Y014284D01*
X030857Y013977D01*
X031092Y013742D01*
X031399Y013615D01*
X031731Y013615D01*
X032038Y013742D01*
X032273Y013977D01*
X032400Y014284D01*
X032400Y014616D01*
X032273Y014923D01*
X032038Y015158D01*
X032294Y014872D02*
X036006Y014872D01*
X036027Y014923D02*
X035900Y014616D01*
X035900Y014284D01*
X036027Y013977D01*
X036262Y013742D01*
X036569Y013615D01*
X036901Y013615D01*
X037208Y013742D01*
X037443Y013977D01*
X037570Y014284D01*
X037570Y014616D01*
X037443Y014923D01*
X037208Y015158D01*
X036901Y015285D01*
X036569Y015285D01*
X036262Y015158D01*
X036027Y014923D01*
X036214Y015110D02*
X034865Y015110D01*
X034956Y015349D02*
X037938Y015349D01*
X037938Y015587D02*
X035025Y015587D01*
X034975Y015826D02*
X037938Y015826D01*
X037938Y016064D02*
X034900Y016064D01*
X034900Y016303D02*
X037938Y016303D01*
X037938Y016541D02*
X034834Y016541D01*
X034256Y016541D02*
X034044Y016541D01*
X034110Y016303D02*
X034190Y016303D01*
X034190Y016064D02*
X034110Y016064D01*
X033400Y016064D02*
X033330Y016064D01*
X033330Y016303D02*
X033400Y016303D01*
X033466Y016541D02*
X033264Y016541D01*
X032686Y016541D02*
X027184Y016541D01*
X027250Y016303D02*
X032620Y016303D01*
X032620Y016064D02*
X027250Y016064D01*
X027325Y015826D02*
X032545Y015826D01*
X032495Y015587D02*
X027375Y015587D01*
X026575Y015110D02*
X026425Y015110D01*
X025785Y015110D02*
X025645Y015110D01*
X024845Y015587D02*
X019825Y015587D01*
X019775Y015826D02*
X024895Y015826D01*
X024970Y016064D02*
X019700Y016064D01*
X019700Y016303D02*
X024970Y016303D01*
X025036Y016541D02*
X019634Y016541D01*
X019056Y016541D02*
X018844Y016541D01*
X018910Y016303D02*
X018990Y016303D01*
X018990Y016064D02*
X018910Y016064D01*
X018200Y016064D02*
X018130Y016064D01*
X018130Y016303D02*
X018200Y016303D01*
X018266Y016541D02*
X018064Y016541D01*
X018095Y015110D02*
X018235Y015110D01*
X018875Y015110D02*
X019025Y015110D01*
X020700Y014395D02*
X017200Y014395D01*
X017193Y014633D02*
X020707Y014633D01*
X020753Y014156D02*
X017147Y014156D01*
X017013Y013918D02*
X020887Y013918D01*
X021214Y013679D02*
X016686Y013679D01*
X016044Y013679D02*
X014206Y013679D01*
X014358Y013742D02*
X014593Y013977D01*
X014720Y014284D01*
X014720Y014616D01*
X014593Y014923D01*
X014358Y015158D01*
X014051Y015285D01*
X013719Y015285D01*
X013412Y015158D01*
X013177Y014923D01*
X013050Y014616D01*
X013050Y014284D01*
X013177Y013977D01*
X013412Y013742D01*
X013719Y013615D01*
X014051Y013615D01*
X014358Y013742D01*
X014533Y013918D02*
X015717Y013918D01*
X015583Y014156D02*
X014667Y014156D01*
X014720Y014395D02*
X015530Y014395D01*
X015537Y014633D02*
X014713Y014633D01*
X014614Y014872D02*
X015636Y014872D01*
X015844Y015110D02*
X014406Y015110D01*
X013364Y015110D02*
X012015Y015110D01*
X011375Y015110D02*
X011225Y015110D01*
X010585Y015110D02*
X010445Y015110D01*
X009805Y015110D02*
X009236Y015110D01*
X009188Y015158D02*
X009423Y014923D01*
X009550Y014616D01*
X009550Y014284D01*
X009423Y013977D01*
X009188Y013742D01*
X008881Y013615D01*
X008549Y013615D01*
X008242Y013742D01*
X008007Y013977D01*
X007880Y014284D01*
X007880Y014616D01*
X008007Y014923D01*
X008242Y015158D01*
X008549Y015285D01*
X008881Y015285D01*
X009188Y015158D01*
X009444Y014872D02*
X013156Y014872D01*
X013057Y014633D02*
X009543Y014633D01*
X009550Y014395D02*
X013050Y014395D01*
X013103Y014156D02*
X009497Y014156D01*
X009363Y013918D02*
X013237Y013918D01*
X013564Y013679D02*
X009036Y013679D01*
X008394Y013679D02*
X006085Y013679D01*
X006386Y013918D02*
X008067Y013918D01*
X007933Y014156D02*
X006534Y014156D01*
X006621Y014395D02*
X007880Y014395D01*
X007887Y014633D02*
X006621Y014633D01*
X006575Y014872D02*
X007986Y014872D01*
X008194Y015110D02*
X006476Y015110D01*
X006245Y015349D02*
X009714Y015349D01*
X009645Y015587D02*
X005135Y015587D01*
X005160Y015826D02*
X009695Y015826D01*
X009770Y016064D02*
X005128Y016064D01*
X005034Y016303D02*
X009770Y016303D01*
X009836Y016541D02*
X004851Y016541D01*
X003252Y015349D02*
X001980Y015349D01*
X001980Y015110D02*
X003425Y015110D01*
X003764Y014872D02*
X001980Y014872D01*
X001980Y014633D02*
X004641Y014633D01*
X004641Y014395D02*
X002044Y014395D01*
X002100Y014156D02*
X004728Y014156D01*
X004876Y013918D02*
X004379Y013918D01*
X004280Y013918D02*
X004040Y013918D01*
X003941Y013918D02*
X002049Y013918D01*
X001850Y013679D02*
X003479Y013679D01*
X003287Y013441D02*
X002042Y013441D01*
X002119Y013202D02*
X003186Y013202D01*
X003171Y012725D02*
X001931Y012725D01*
X002089Y012964D02*
X004040Y012964D01*
X004040Y013202D02*
X004280Y013202D01*
X004280Y012964D02*
X037938Y012964D01*
X037938Y013202D02*
X005134Y013202D01*
X005033Y013441D02*
X037938Y013441D01*
X037938Y013679D02*
X037056Y013679D01*
X037383Y013918D02*
X037938Y013918D01*
X037938Y014156D02*
X037517Y014156D01*
X037570Y014395D02*
X037938Y014395D01*
X037938Y014633D02*
X037563Y014633D01*
X037464Y014872D02*
X037938Y014872D01*
X037938Y015110D02*
X037256Y015110D01*
X036087Y013918D02*
X032213Y013918D01*
X032347Y014156D02*
X035953Y014156D01*
X035900Y014395D02*
X032400Y014395D01*
X032393Y014633D02*
X035907Y014633D01*
X036414Y013679D02*
X031886Y013679D01*
X031244Y013679D02*
X029406Y013679D01*
X029733Y013918D02*
X030917Y013918D01*
X030783Y014156D02*
X029867Y014156D01*
X029920Y014395D02*
X030730Y014395D01*
X030737Y014633D02*
X029913Y014633D01*
X029814Y014872D02*
X030836Y014872D01*
X031044Y015110D02*
X029606Y015110D01*
X028437Y013918D02*
X024563Y013918D01*
X024697Y014156D02*
X028303Y014156D01*
X028250Y014395D02*
X024750Y014395D01*
X024743Y014633D02*
X028257Y014633D01*
X028764Y013679D02*
X024236Y013679D01*
X023594Y013679D02*
X021856Y013679D01*
X022183Y013918D02*
X023267Y013918D01*
X023133Y014156D02*
X022317Y014156D01*
X022370Y014395D02*
X023080Y014395D01*
X023087Y014633D02*
X022363Y014633D01*
X022264Y014872D02*
X023186Y014872D01*
X023394Y015110D02*
X022056Y015110D01*
X025680Y016064D02*
X025750Y016064D01*
X025750Y016303D02*
X025680Y016303D01*
X025614Y016541D02*
X025816Y016541D01*
X026394Y016541D02*
X026606Y016541D01*
X026540Y016303D02*
X026460Y016303D01*
X026460Y016064D02*
X026540Y016064D01*
X024531Y019403D02*
X030269Y019403D01*
X030150Y019642D02*
X024650Y019642D01*
X024641Y019880D02*
X030159Y019880D01*
X030291Y020119D02*
X024509Y020119D01*
X023669Y019403D02*
X023531Y019403D01*
X025680Y025127D02*
X025750Y025127D01*
X026460Y025127D02*
X026540Y025127D01*
X023741Y029182D02*
X023459Y029182D01*
X031131Y019403D02*
X031269Y019403D01*
X033295Y015110D02*
X033435Y015110D01*
X034075Y015110D02*
X034225Y015110D01*
X036671Y018211D02*
X036848Y018211D01*
X037677Y018211D02*
X037938Y018211D01*
X037938Y018449D02*
X037745Y018449D01*
X037873Y018688D02*
X037938Y018688D01*
X037938Y012725D02*
X005149Y012725D01*
X005067Y012487D02*
X037938Y012487D01*
X037938Y012248D02*
X004905Y012248D01*
X004280Y012248D02*
X004040Y012248D01*
X004040Y012487D02*
X004280Y012487D01*
X004280Y012725D02*
X004040Y012725D01*
X004040Y013441D02*
X004280Y013441D01*
X004280Y013679D02*
X004040Y013679D01*
X004841Y013679D02*
X005177Y013679D01*
X004687Y014872D02*
X004536Y014872D01*
X002120Y013150D02*
X001550Y013150D01*
X001550Y013150D01*
X002120Y013150D01*
X001550Y013150D02*
X001550Y012580D01*
X001550Y013150D01*
X001550Y013150D01*
X001550Y012964D02*
X001550Y012964D01*
X001550Y012725D02*
X001550Y012725D01*
X001000Y010340D02*
X003833Y010340D01*
X003643Y010102D02*
X001000Y010102D01*
X001000Y009863D02*
X003600Y009863D01*
X003660Y009625D02*
X001000Y009625D01*
X001000Y008909D02*
X035578Y008909D01*
X035840Y008671D02*
X001000Y008671D01*
X001000Y007955D02*
X037938Y007955D01*
X037938Y007717D02*
X001000Y007717D01*
X001000Y007478D02*
X037938Y007478D01*
X037938Y007240D02*
X001000Y007240D01*
X001000Y007001D02*
X037938Y007001D01*
X037938Y006763D02*
X004779Y006763D01*
X004993Y006524D02*
X009770Y006524D01*
X009770Y006625D02*
X009770Y006082D01*
X009717Y006029D01*
X009645Y005855D01*
X009645Y005665D01*
X009717Y005491D01*
X009770Y005438D01*
X009770Y005295D01*
X009875Y005190D01*
X010375Y005190D01*
X010480Y005295D01*
X010480Y005448D01*
X010510Y005478D01*
X010550Y005438D01*
X010550Y005295D01*
X010655Y005190D01*
X011155Y005190D01*
X011260Y005295D01*
X011260Y005448D01*
X011300Y005488D01*
X011340Y005448D01*
X011340Y005295D01*
X011445Y005190D01*
X011945Y005190D01*
X012050Y005295D01*
X012050Y005438D01*
X012103Y005491D01*
X012175Y005665D01*
X012175Y005855D01*
X012103Y006029D01*
X012050Y006082D01*
X012050Y006625D01*
X011945Y006730D01*
X011445Y006730D01*
X011340Y006625D01*
X011340Y006072D01*
X011300Y006032D01*
X011260Y006072D01*
X011260Y006625D01*
X011155Y006730D01*
X010655Y006730D01*
X010550Y006625D01*
X010550Y006082D01*
X010510Y006042D01*
X010480Y006072D01*
X010480Y006625D01*
X010375Y006730D01*
X009875Y006730D01*
X009770Y006625D01*
X009770Y006286D02*
X005109Y006286D01*
X005160Y006047D02*
X009735Y006047D01*
X009645Y005809D02*
X005154Y005809D01*
X005114Y005570D02*
X005089Y005570D01*
X004717Y005093D02*
X004662Y005093D01*
X004641Y004855D02*
X001980Y004855D01*
X001980Y005093D02*
X003638Y005093D01*
X003354Y005332D02*
X001980Y005332D01*
X002012Y004616D02*
X004641Y004616D01*
X004698Y004378D02*
X002100Y004378D01*
X002079Y004139D02*
X004804Y004139D01*
X004753Y003901D02*
X005043Y003901D01*
X006219Y003901D02*
X008234Y003901D01*
X008242Y003892D02*
X008549Y003765D01*
X008881Y003765D01*
X009188Y003892D01*
X009423Y004127D01*
X009550Y004434D01*
X009550Y004766D01*
X009423Y005073D01*
X009188Y005308D01*
X008881Y005435D01*
X008549Y005435D01*
X008242Y005308D01*
X008007Y005073D01*
X007880Y004766D01*
X007880Y004434D01*
X008007Y004127D01*
X008242Y003892D01*
X008002Y004139D02*
X006457Y004139D01*
X006564Y004378D02*
X007903Y004378D01*
X007880Y004616D02*
X006621Y004616D01*
X006621Y004855D02*
X007917Y004855D01*
X008027Y005093D02*
X006545Y005093D01*
X006412Y005332D02*
X008299Y005332D01*
X009131Y005332D02*
X009770Y005332D01*
X009684Y005570D02*
X006148Y005570D01*
X003521Y006763D02*
X001000Y006763D01*
X001000Y006524D02*
X003307Y006524D01*
X001477Y006286D02*
X001000Y006286D01*
X001000Y006047D02*
X001239Y006047D01*
X001120Y005809D02*
X001000Y005809D01*
X001000Y005570D02*
X001120Y005570D01*
X001120Y005332D02*
X001000Y005332D01*
X001000Y005093D02*
X001120Y005093D01*
X001120Y004855D02*
X001000Y004855D01*
X001000Y004616D02*
X001088Y004616D01*
X001021Y004139D02*
X001000Y004139D01*
X001000Y003901D02*
X001172Y003901D01*
X001108Y003662D02*
X001000Y003662D01*
X001550Y003185D02*
X001550Y003185D01*
X001550Y002947D02*
X001550Y002947D01*
X001998Y002947D02*
X003159Y002947D01*
X009196Y003901D02*
X013404Y003901D01*
X013412Y003892D02*
X013719Y003765D01*
X014051Y003765D01*
X014358Y003892D01*
X014593Y004127D01*
X014720Y004434D01*
X014720Y004766D01*
X014593Y005073D01*
X014358Y005308D01*
X014051Y005435D01*
X013719Y005435D01*
X013412Y005308D01*
X013177Y005073D01*
X013050Y004766D01*
X013050Y004434D01*
X013177Y004127D01*
X013412Y003892D01*
X013172Y004139D02*
X009428Y004139D01*
X009527Y004378D02*
X013073Y004378D01*
X013050Y004616D02*
X009550Y004616D01*
X009513Y004855D02*
X013087Y004855D01*
X013197Y005093D02*
X009403Y005093D01*
X010480Y005332D02*
X010550Y005332D01*
X010515Y006047D02*
X010505Y006047D01*
X010480Y006286D02*
X010550Y006286D01*
X010550Y006524D02*
X010480Y006524D01*
X011260Y006524D02*
X011340Y006524D01*
X011340Y006286D02*
X011260Y006286D01*
X011285Y006047D02*
X011315Y006047D01*
X011340Y005332D02*
X011260Y005332D01*
X012050Y005332D02*
X013469Y005332D01*
X014301Y005332D02*
X015949Y005332D01*
X015892Y005308D02*
X015657Y005073D01*
X015530Y004766D01*
X015530Y004434D01*
X015657Y004127D01*
X015892Y003892D01*
X016199Y003765D01*
X016531Y003765D01*
X016838Y003892D01*
X017073Y004127D01*
X017200Y004434D01*
X017200Y004766D01*
X017073Y005073D01*
X016838Y005308D01*
X016531Y005435D01*
X016199Y005435D01*
X015892Y005308D01*
X015677Y005093D02*
X014573Y005093D01*
X014683Y004855D02*
X015567Y004855D01*
X015530Y004616D02*
X014720Y004616D01*
X014697Y004378D02*
X015553Y004378D01*
X015652Y004139D02*
X014598Y004139D01*
X014366Y003901D02*
X015884Y003901D01*
X016846Y003901D02*
X021054Y003901D01*
X021062Y003892D02*
X021369Y003765D01*
X021701Y003765D01*
X022008Y003892D01*
X022243Y004127D01*
X022370Y004434D01*
X022370Y004766D01*
X022243Y005073D01*
X022008Y005308D01*
X021701Y005435D01*
X021369Y005435D01*
X021062Y005308D01*
X020827Y005073D01*
X020700Y004766D01*
X020700Y004434D01*
X020827Y004127D01*
X021062Y003892D01*
X020822Y004139D02*
X017078Y004139D01*
X017177Y004378D02*
X020723Y004378D01*
X020700Y004616D02*
X017200Y004616D01*
X017163Y004855D02*
X020737Y004855D01*
X020847Y005093D02*
X017053Y005093D01*
X016781Y005332D02*
X017420Y005332D01*
X017420Y005295D02*
X017525Y005190D01*
X018025Y005190D01*
X018130Y005295D01*
X018130Y005448D01*
X018160Y005478D01*
X018200Y005438D01*
X018200Y005295D01*
X018305Y005190D01*
X018805Y005190D01*
X018910Y005295D01*
X018910Y005448D01*
X018950Y005488D01*
X018990Y005448D01*
X018990Y005295D01*
X019095Y005190D01*
X019595Y005190D01*
X019700Y005295D01*
X019700Y005438D01*
X019753Y005491D01*
X019825Y005665D01*
X019825Y005855D01*
X019753Y006029D01*
X019700Y006082D01*
X019700Y006625D01*
X019595Y006730D01*
X019095Y006730D01*
X018990Y006625D01*
X018990Y006072D01*
X018950Y006032D01*
X018910Y006072D01*
X018910Y006625D01*
X018805Y006730D01*
X018305Y006730D01*
X018200Y006625D01*
X018200Y006082D01*
X018160Y006042D01*
X018130Y006072D01*
X018130Y006625D01*
X018025Y006730D01*
X017525Y006730D01*
X017420Y006625D01*
X017420Y006082D01*
X017367Y006029D01*
X017295Y005855D01*
X017295Y005665D01*
X017367Y005491D01*
X017420Y005438D01*
X017420Y005295D01*
X017334Y005570D02*
X012136Y005570D01*
X012175Y005809D02*
X017295Y005809D01*
X017385Y006047D02*
X012085Y006047D01*
X012050Y006286D02*
X017420Y006286D01*
X017420Y006524D02*
X012050Y006524D01*
X018130Y006524D02*
X018200Y006524D01*
X018200Y006286D02*
X018130Y006286D01*
X018155Y006047D02*
X018165Y006047D01*
X018130Y005332D02*
X018200Y005332D01*
X018910Y005332D02*
X018990Y005332D01*
X018965Y006047D02*
X018935Y006047D01*
X018910Y006286D02*
X018990Y006286D01*
X018990Y006524D02*
X018910Y006524D01*
X019700Y006524D02*
X024970Y006524D01*
X024970Y006286D02*
X019700Y006286D01*
X019735Y006047D02*
X024935Y006047D01*
X024845Y005809D02*
X019825Y005809D01*
X019786Y005570D02*
X024884Y005570D01*
X024970Y005332D02*
X024331Y005332D01*
X023499Y005332D02*
X021951Y005332D01*
X022223Y005093D02*
X023227Y005093D01*
X023117Y004855D02*
X022333Y004855D01*
X022370Y004616D02*
X023080Y004616D01*
X023103Y004378D02*
X022347Y004378D01*
X022248Y004139D02*
X023202Y004139D01*
X023434Y003901D02*
X022016Y003901D01*
X021119Y005332D02*
X019700Y005332D01*
X025680Y005332D02*
X025750Y005332D01*
X025715Y006047D02*
X025705Y006047D01*
X025680Y006286D02*
X025750Y006286D01*
X025750Y006524D02*
X025680Y006524D01*
X026460Y006524D02*
X026540Y006524D01*
X026540Y006286D02*
X026460Y006286D01*
X026485Y006047D02*
X026515Y006047D01*
X026540Y005332D02*
X026460Y005332D01*
X036703Y008432D02*
X036816Y008432D01*
X011340Y016064D02*
X011260Y016064D01*
X011260Y016303D02*
X011340Y016303D01*
X011406Y016541D02*
X011194Y016541D01*
X010616Y016541D02*
X010414Y016541D01*
X010480Y016303D02*
X010550Y016303D01*
X010550Y016064D02*
X010480Y016064D01*
X008469Y019403D02*
X008331Y019403D01*
X007469Y019403D02*
X005621Y019403D01*
X005720Y019642D02*
X007350Y019642D01*
X007359Y019880D02*
X005703Y019880D01*
X005559Y020119D02*
X007491Y020119D01*
X004719Y019403D02*
X004637Y019403D01*
X004170Y019403D02*
X004170Y019403D01*
X004170Y019642D02*
X004170Y019642D01*
X003703Y019403D02*
X001000Y019403D01*
X001000Y019642D02*
X003607Y019642D01*
X003619Y019880D02*
X001000Y019880D01*
X001000Y020119D02*
X003752Y020119D01*
X004170Y029182D02*
X004170Y029182D01*
X004170Y029420D02*
X004170Y029420D01*
X004578Y029182D02*
X004791Y029182D01*
X005549Y029182D02*
X007541Y029182D01*
X007379Y029420D02*
X005699Y029420D01*
X005720Y029659D02*
X007350Y029659D01*
X007428Y029897D02*
X005631Y029897D01*
X008259Y029182D02*
X008541Y029182D01*
D17*
X009500Y026300D03*
X013000Y026950D03*
X017150Y026300D03*
X020650Y026950D03*
X024700Y026300D03*
X028200Y026950D03*
X032300Y026300D03*
X035850Y027000D03*
X032300Y036150D03*
X035850Y036850D03*
X028200Y036800D03*
X024700Y036150D03*
X020650Y036800D03*
X017150Y036150D03*
X013000Y036800D03*
X009500Y036150D03*
X013000Y017100D03*
X009500Y016450D03*
X017150Y016450D03*
X020650Y017100D03*
X024700Y016450D03*
X028200Y017100D03*
X032300Y016450D03*
X035850Y017150D03*
X035850Y007300D03*
X032300Y006600D03*
X028200Y007250D03*
X024700Y006600D03*
X020650Y007250D03*
X017150Y006600D03*
X013000Y007250D03*
X009500Y006600D03*
D18*
X010120Y005760D03*
X010900Y005760D03*
X011700Y005760D03*
X012480Y005760D03*
X017770Y005760D03*
X018550Y005760D03*
X019350Y005760D03*
X020130Y005760D03*
X025320Y005760D03*
X026100Y005760D03*
X026900Y005760D03*
X027680Y005760D03*
X032970Y005760D03*
X033750Y005760D03*
X034550Y005760D03*
X035330Y005760D03*
X035330Y015610D03*
X034550Y015610D03*
X033750Y015610D03*
X032970Y015610D03*
X027680Y015610D03*
X026900Y015610D03*
X026100Y015610D03*
X025320Y015610D03*
X020130Y015610D03*
X019350Y015610D03*
X018550Y015610D03*
X017770Y015610D03*
X012480Y015610D03*
X011700Y015610D03*
X010900Y015610D03*
X010120Y015610D03*
X010120Y025460D03*
X010900Y025460D03*
X011700Y025460D03*
X012480Y025460D03*
X017770Y025460D03*
X018550Y025460D03*
X019350Y025460D03*
X020130Y025460D03*
X025320Y025460D03*
X026100Y025460D03*
X026900Y025460D03*
X027680Y025460D03*
X032970Y025460D03*
X033750Y025460D03*
X034550Y025460D03*
X035330Y025460D03*
X035330Y035310D03*
X034550Y035310D03*
X033750Y035310D03*
X032970Y035310D03*
X027680Y035310D03*
X026900Y035310D03*
X026100Y035310D03*
X025320Y035310D03*
X020130Y035310D03*
X019350Y035310D03*
X018550Y035310D03*
X017770Y035310D03*
X012480Y035310D03*
X011700Y035310D03*
X010900Y035310D03*
X010120Y035310D03*
D19*
X004150Y035514D02*
X001805Y035514D01*
X001734Y035484D02*
X001550Y035300D01*
X001550Y033850D01*
X001805Y025664D02*
X004150Y025664D01*
X001734Y025634D02*
X001550Y025450D01*
X001550Y024000D01*
X001805Y015814D02*
X004150Y015814D01*
X001734Y015784D02*
X001550Y015600D01*
X001550Y014150D01*
X001805Y005964D02*
X004150Y005964D01*
X001734Y005934D02*
X001550Y005750D01*
X001550Y004300D01*
D20*
X001734Y005935D02*
X001749Y005947D01*
X001767Y005956D01*
X001785Y005962D01*
X001805Y005964D01*
X001734Y015785D02*
X001749Y015797D01*
X001767Y015806D01*
X001785Y015812D01*
X001805Y015814D01*
X001734Y025635D02*
X001749Y025647D01*
X001767Y025656D01*
X001785Y025662D01*
X001805Y025664D01*
X001734Y035485D02*
X001749Y035497D01*
X001767Y035506D01*
X001785Y035512D01*
X001805Y035514D01*
M02*
